<?xml version="1.0" encoding="UTF-8" standalone="no"?>
<!-- Generator: Adobe Illustrator 13.0.0, SVG Export Plug-In . SVG Version: 6.00 Build 14948)  -->

<svg
   xmlns:dc="http://purl.org/dc/elements/1.1/"
   xmlns:cc="http://creativecommons.org/ns#"
   xmlns:rdf="http://www.w3.org/1999/02/22-rdf-syntax-ns#"
   xmlns:svg="http://www.w3.org/2000/svg"
   xmlns="http://www.w3.org/2000/svg"
   xmlns:sodipodi="http://sodipodi.sourceforge.net/DTD/sodipodi-0.dtd"
   xmlns:inkscape="http://www.inkscape.org/namespaces/inkscape"
   version="1.1"
   id="Layer_1"
   x="0px"
   y="0px"
   width="500"
   height="116.145"
   viewBox="-1 -1 499.99999 116.145"
   enable-background="new -1 -1 568.929 116.145"
   xml:space="preserve"
   sodipodi:docname="logo.svg"
   inkscape:version="0.92.5 (2060ec1f9f, 2020-04-08)"><metadata
   id="metadata125"><rdf:RDF><cc:Work
       rdf:about=""><dc:format>image/svg+xml</dc:format><dc:type
         rdf:resource="http://purl.org/dc/dcmitype/StillImage" /><dc:title /></cc:Work></rdf:RDF></metadata><defs
   id="defs123" /><sodipodi:namedview
   pagecolor="#ffffff"
   bordercolor="#666666"
   borderopacity="1"
   objecttolerance="10"
   gridtolerance="10"
   guidetolerance="10"
   inkscape:pageopacity="0"
   inkscape:pageshadow="2"
   inkscape:window-width="3840"
   inkscape:window-height="2065"
   id="namedview121"
   showgrid="false"
   inkscape:zoom="3.7809536"
   inkscape:cx="550.76994"
   inkscape:cy="22.534721"
   inkscape:window-x="0"
   inkscape:window-y="0"
   inkscape:window-maximized="1"
   inkscape:current-layer="Layer_1" />

<g
   id="g991"
   transform="translate(-30.262538,-3.8541423)"><g
     id="g80">
	<g
   id="g6">
		<path
   id="path2"
   d="m 82.587,54.496 c 0,0.368 -0.255,0.624 -0.766,0.766 -0.613,0.163 -2.513,0.245 -5.701,0.245 -2.922,0 -4.802,-0.082 -5.64,-0.245 -0.695,-0.143 -1.134,-0.603 -1.318,-1.379 -0.695,-2.942 -1.236,-4.516 -1.625,-4.72 -0.327,-0.143 -3.065,-0.214 -8.214,-0.214 -3.474,0 -5.323,0.092 -5.548,0.275 -0.348,0.327 -0.736,1.421 -1.165,3.28 -0.388,1.696 -0.858,2.616 -1.41,2.759 -0.695,0.163 -3.024,0.245 -6.989,0.245 -3.126,0 -4.689,-0.296 -4.689,-0.889 0,-0.531 2.309,-7.06 6.927,-19.586 5.006,-13.548 7.724,-20.996 8.153,-22.345 0.245,-0.776 0.531,-1.165 0.858,-1.165 0.552,0 1.405,0.051 2.56,0.153 1.154,0.103 2.018,0.153 2.59,0.153 0.552,0 1.364,-0.036 2.437,-0.107 1.073,-0.071 1.875,-0.107 2.406,-0.107 0.388,0 0.746,0.337 1.073,1.012 1.001,2.146 3.923,9.502 8.766,22.069 4.864,12.648 7.295,19.248 7.295,19.8 z M 60.856,26.572 c -0.429,0.899 -1.155,2.851 -2.176,5.854 -1.104,3.188 -1.655,5.058 -1.655,5.609 0,0.368 0.613,0.572 1.839,0.613 0.633,0.042 1.675,0.062 3.126,0.062 1.349,0 2.094,-0.164 2.238,-0.49 0.041,-0.102 0.061,-0.246 0.061,-0.429 0,-0.674 -0.47,-2.534 -1.41,-5.579 -0.92,-2.943 -1.594,-4.822 -2.023,-5.64 z"
   inkscape:connector-curvature="0"
   style="fill:#fcfcfc" />
		<path
   id="path4"
   d="m 70.179,56.73 c -1.244,-0.195 -2.267,-1.336 -2.477,-2.504 v 0 c -0.401,-1.76 -0.81,-3.068 -1.042,-3.666 v 0 c -0.343,-0.022 -0.835,-0.043 -1.461,-0.061 v 0 c -1.344,-0.035 -3.31,-0.054 -5.876,-0.051 v 0 C 57.105,50.435 55.46,50.5 54.724,50.559 v 0 c -0.027,0.068 -0.056,0.145 -0.086,0.23 v 0 c -0.165,0.46 -0.36,1.155 -0.565,2.047 v 0 c -0.214,0.921 -0.444,1.667 -0.771,2.311 v 0 c -0.327,0.61 -0.76,1.283 -1.759,1.575 v 0 c -1.11,0.234 -3.293,0.271 -7.33,0.286 v 0 c -2.46,-0.043 -3.881,-0.066 -5.139,-0.697 v 0 c -0.409,-0.204 -1.053,-0.806 -1.051,-1.692 v 0 c 0.025,-0.493 0.086,-0.563 0.165,-0.892 v 0 c 0.083,-0.286 0.193,-0.646 0.341,-1.098 v 0 c 0.296,-0.904 0.732,-2.168 1.312,-3.807 v 0 c 1.157,-3.277 2.892,-8.043 5.203,-14.311 v 0 c 4.999,-13.528 7.735,-21.032 8.129,-22.276 v 0 c 0.156,-0.481 0.321,-0.898 0.621,-1.312 v 0 c 0.271,-0.393 0.859,-0.902 1.667,-0.902 v 0 c 0.642,0 1.515,0.056 2.693,0.158 v 0 c 1.131,0.101 1.969,0.148 2.458,0.148 v 0 c 0.489,0 1.283,-0.033 2.337,-0.104 v 0 c 1.09,-0.072 1.91,-0.109 2.506,-0.109 v 0 c 0.646,-0.006 1.227,0.309 1.587,0.66 v 0 c 0.374,0.357 0.619,0.754 0.845,1.217 v 0 c 1.053,2.261 3.955,9.575 8.806,22.165 v 0 c 4.265,11.096 6.641,17.47 7.221,19.425 v 0 c 0.083,0.335 0.148,0.411 0.175,0.915 v 0 c 0.015,0.53 -0.236,1.153 -0.631,1.527 v 0 c -0.389,0.385 -0.82,0.565 -1.25,0.689 v 0 c -1.056,0.25 -2.82,0.279 -6.086,0.296 v 0 C 73.147,57.001 71.297,56.94 70.179,56.73 Z M 80.863,53.887 C 80.818,53.75 80.767,53.597 80.71,53.431 v 0 c -0.296,-0.874 -0.749,-2.138 -1.355,-3.78 v 0 c -1.21,-3.289 -3.034,-8.097 -5.463,-14.417 v 0 C 69.059,22.689 66.116,15.289 65.177,13.281 v 0 C 65.146,13.217 65.118,13.163 65.094,13.12 v 0 c -0.471,0.012 -1.127,0.044 -1.945,0.1 v 0 c -1.092,0.072 -1.924,0.109 -2.537,0.109 v 0 c -0.658,0 -1.543,-0.053 -2.724,-0.158 v 0 C 57.145,13.105 56.532,13.062 56.066,13.04 v 0 c -0.011,0.032 -0.023,0.067 -0.034,0.104 v 0 c -0.462,1.449 -3.162,8.841 -8.175,22.408 v 0 c -3.604,9.77 -5.811,15.927 -6.573,18.312 v 0 c 0.644,0.089 1.644,0.146 2.929,0.145 v 0 c 3.354,0.012 5.656,-0.081 6.385,-0.161 v 0 c 0.011,-0.019 0.022,-0.04 0.034,-0.063 v 0 c 0.144,-0.278 0.341,-0.839 0.516,-1.618 v 0 c 0.224,-0.964 0.438,-1.745 0.662,-2.378 v 0 c 0.249,-0.641 0.403,-1.11 0.938,-1.657 v 0 l 0.049,-0.045 0.029,-0.022 c 0.395,-0.294 0.565,-0.298 0.74,-0.357 v 0 c 0.168,-0.042 0.319,-0.066 0.485,-0.088 v 0 c 0.331,-0.043 0.719,-0.074 1.207,-0.099 v 0 c 0.968,-0.047 2.314,-0.07 4.066,-0.07 v 0 c 3.88,0 6.376,0.039 7.622,0.125 v 0 c 0.473,0.056 0.592,-0.002 1.192,0.214 v 0 l 0.049,0.022 0.051,0.027 c 0.639,0.384 0.75,0.717 0.95,1.042 v 0 c 0.17,0.329 0.314,0.693 0.467,1.129 v 0 c 0.298,0.871 0.614,2.031 0.968,3.529 v 0 c 0.047,0.197 0.093,0.236 0.093,0.238 v 0 c 0.004,-0.004 0,0 0.053,0.014 v 0 c 0.569,0.122 2.479,0.224 5.353,0.218 v 0 c 2.235,0.009 3.918,-0.058 4.741,-0.122 z m -14.357,-3.661 0.001,-10e-4 v 0 0 z M 58.813,40.148 c -1.048,-0.095 -1.737,-0.017 -2.697,-0.771 v 0 C 55.8,39.106 55.51,38.557 55.524,38.035 v 0 c 0.022,-0.687 0.193,-1.233 0.475,-2.24 v 0 c 0.288,-0.973 0.708,-2.253 1.26,-3.853 v 0 c 1.034,-3.03 1.749,-4.974 2.243,-6.016 v 0 l 1.291,-2.705 1.392,2.653 c 0.539,1.042 1.188,2.905 2.128,5.896 v 0 c 0.945,3.132 1.441,4.841 1.478,6.021 v 0 c -0.006,0.296 -0.019,0.594 -0.189,1.032 v 0 c -0.514,0.98 -1.208,1.083 -1.718,1.229 v 0 c -0.553,0.119 -1.155,0.156 -1.891,0.158 v 0 c -1.472,0 -2.525,-0.019 -3.18,-0.062 z m 3.882,-2.959 c -0.174,-0.828 -0.59,-2.444 -1.248,-4.529 v 0 C 61.233,31.97 61.03,31.337 60.841,30.764 v 0 c -0.228,0.644 -0.476,1.362 -0.744,2.153 v 0 c -0.655,1.867 -1.114,3.336 -1.361,4.226 v 0 c 0.071,0.004 0.146,0.007 0.225,0.009 v 0 c 0.563,0.037 1.595,0.06 3.03,0.058 v 0 c 0.266,0.003 0.505,-0.006 0.704,-0.021 z m -3.167,-9.921 1.328,-0.697 z"
   inkscape:connector-curvature="0"
   style="fill:#9fcfff" />
	</g>
	<g
   id="g12">
		<path
   id="path8"
   d="m 117.99,11.767 c 0,-0.449 -0.082,0.225 -0.246,2.023 -0.225,2.269 -0.398,5.17 -0.521,8.705 -0.164,4.005 -0.245,8.563 -0.245,13.671 0,8.439 0.235,14.447 0.705,18.023 0.041,0.388 0.061,0.634 0.061,0.735 0,0.225 -0.153,0.357 -0.459,0.399 -0.736,0.102 -3.444,0.153 -8.123,0.153 -1.104,0 -1.737,-0.214 -1.9,-0.644 -0.042,-0.776 -0.082,-1.553 -0.123,-2.33 -0.021,-0.163 -0.102,-0.327 -0.245,-0.49 -0.123,0.061 -0.276,0.184 -0.459,0.368 -2.207,2.167 -4.966,3.249 -8.276,3.249 -4.312,0 -7.766,-1.512 -10.36,-4.536 -2.473,-2.881 -3.709,-6.519 -3.709,-10.912 0,-4.455 1.216,-8.123 3.647,-11.004 2.575,-3.065 6.048,-4.598 10.422,-4.598 3.085,0 5.486,0.981 7.203,2.942 0.286,0.327 0.49,0.491 0.613,0.491 0.184,0 0.276,-0.266 0.276,-0.797 0,-1.574 -0.041,-3.924 -0.123,-7.05 -0.082,-3.126 -0.123,-5.466 -0.123,-7.019 0,-0.592 0.163,-0.93 0.49,-1.011 1.308,-0.062 3.106,-0.184 5.395,-0.368 4.087,-0.51 5.896,-0.766 5.425,-0.766 0.45,0 0.675,0.256 0.675,0.766 z m -11.555,28.169 c 0,-1.614 -0.563,-3.029 -1.686,-4.245 -1.124,-1.216 -2.483,-1.824 -4.077,-1.824 -1.676,0 -3.009,0.608 -4,1.824 -0.991,1.216 -1.487,2.672 -1.487,4.368 0,1.655 0.5,3.055 1.502,4.199 1.022,1.226 2.35,1.839 3.985,1.839 1.635,0 3.004,-0.613 4.107,-1.839 1.103,-1.226 1.656,-2.666 1.656,-4.322 z"
   inkscape:connector-curvature="0"
   style="fill:#fcfcfc" />
		<path
   id="path10"
   d="M 86.66,52.069 C 83.93,48.901 82.58,44.85 82.588,40.181 v 0 c -0.008,-4.721 1.313,-8.795 4,-11.969 v 0 c 2.834,-3.408 6.853,-5.155 11.571,-5.133 v 0 c 2.502,-0.014 4.754,0.611 6.571,1.873 v 0 c -0.019,-1.304 -0.054,-2.888 -0.103,-4.749 v 0 c -0.083,-3.132 -0.124,-5.48 -0.124,-7.057 v 0 c 0.004,-0.432 0.045,-0.867 0.273,-1.353 v 0 c 0.208,-0.481 0.759,-0.987 1.354,-1.114 v 0 l 0.146,-0.037 0.146,-0.006 c 1.279,-0.06 3.067,-0.183 5.345,-0.366 v 0 0 c 3.046,-0.378 4.922,-0.642 5.188,-0.695 v 0 c 0.015,-0.004 0.021,-0.004 0.027,-0.006 0.19963,-0.044103 0.19928,-0.045098 0.331,-0.069 0.489,-0.014 1.18,0.175 1.632,0.701 v 0 c 0.365,0.423 0.495,0.889 0.531,1.296 v 0 c 0.002,0.02 0.003,0.037 0.005,0.054 v 0 c 0.006,0.095 0.006,0.15 0.006,0.216 v 0 c -0.0262,0.109036 -0.0365,0.160119 -0.0477,0.215 -0.008,0.056 -0.0333,0.181 -0.0513,0.35 v 0 c -0.037,0.343 -0.088,0.878 -0.154,1.605 v 0 c -0.22,2.22 -0.393,5.096 -0.514,8.617 v 0 c -0.164,3.98 -0.245,8.519 -0.245,13.61 v 0 c -0.002,8.407 0.239,14.393 0.697,17.869 v 0 c 0.041,0.416 0.065,0.629 0.067,0.89 v 0 c 0.023,0.444 -0.216,1.067 -0.631,1.402 v 0 c -0.405,0.341 -0.804,0.436 -1.122,0.483 v 0 c -0.999,0.127 -3.602,0.162 -8.327,0.167 v 0 c -0.65,-0.002 -1.217,-0.052 -1.784,-0.241 v 0 c -0.543,-0.173 -1.223,-0.592 -1.52,-1.369 v 0 l -0.082,-0.22 -0.012,-0.234 c 0,-0.011 -10e-4,-0.021 -0.002,-0.032 v 0 c -2.175,1.5 -4.765,2.261 -7.604,2.25 v 0 h -0.083 v 0 C 93.454,57.13 89.497,55.408 86.66,52.069 Z m 2.222,-21.925 c -2.175,2.588 -3.285,5.848 -3.293,10.037 v 0 c 0.008,4.118 1.13,7.341 3.346,9.935 v 0 c 2.337,2.693 5.256,3.992 9.224,4.013 v 0 c 2.986,-0.014 5.281,-0.929 7.215,-2.81 v 0 c 0.249,-0.24 0.467,-0.448 0.851,-0.649 v 0 l 1.036,-0.516 0.762,0.872 c 0.28,0.319 0.537,0.754 0.603,1.291 v 0 l 0.008,0.056 0.002,0.053 c 0.027,0.512 0.054,1.023 0.081,1.534 v 0 c 0.124,0.011 0.273,0.019 0.445,0.018 v 0 c 3.327,0.003 5.715,-0.031 6.973,-0.079 v 0 c -0.445,-3.747 -0.657,-9.62 -0.659,-17.732 v 0 c 0.002,-5.125 0.083,-9.7 0.247,-13.723 v 0 c 0.124,-3.554 0.298,-6.483 0.526,-8.788 v 0 c 0.033,-0.361 0.063,-0.678 0.089,-0.952 v 0 c -0.04,0.005 -0.08,0.011 -0.122,0.017 v 0 c -0.929,0.129 -2.307,0.306 -4.142,0.536 v 0 l -0.021,0.002 -0.045,0.004 c -1.797,0.145 -3.296,0.251 -4.502,0.322 v 0 c 0.006,1.521 0.045,3.707 0.12,6.542 v 0 c 0.082,3.134 0.124,5.492 0.124,7.089 v 0 c -0.064,0.532 0.109,0.97 -0.615,1.828 v 0 c -0.265,0.273 -0.75,0.483 -1.162,0.468 v 0 c -0.731,-0.041 -0.954,-0.3 -1.182,-0.45 v 0 c -0.214,-0.172 -0.38,-0.347 -0.559,-0.551 v 0 c -1.423,-1.603 -3.295,-2.411 -6.074,-2.43 v 0 c -4.03,0.022 -6.959,1.338 -9.276,4.063 z m 28.104,-17.388 0.15,-0.169 v 0 0 z m 2.243,-0.296 c -59.977641,71.026093 -29.988821,35.513046 0,0 z m 0.154,-0.304 c -60.080308,71.228759 -30.040154,35.61438 0,0 z m -2.554,-2.537 c -58.377641,72.920093 -29.188821,36.460046 0,0 z m -21.27,35.627 c -1.25,-1.412 -1.885,-3.235 -1.875,-5.188 v 0 c -0.008,-1.984 0.608,-3.836 1.825,-5.316 v 0 c 1.24,-1.558 3.128,-2.398 5.162,-2.376 v 0 c 1.981,-0.017 3.83,0.82 5.178,2.306 v 0 c 1.357,1.449 2.097,3.297 2.086,5.265 v 0 c 0.01,1.987 -0.705,3.856 -2.041,5.324 v 0 c -1.336,1.513 -3.211,2.355 -5.223,2.335 v 0 h -0.078 v 0 c -1.978,0 -3.815,-0.852 -5.034,-2.35 z m 2.275,-8.608 c -0.767,0.954 -1.141,2.014 -1.149,3.42 v 0 c 0.01,1.356 0.376,2.335 1.153,3.24 v 0 c 0.785,0.904 1.572,1.274 2.833,1.299 v 0 c 1.258,-0.021 2.121,-0.405 2.993,-1.342 v 0 c 0.87,-0.984 1.258,-1.998 1.271,-3.317 v 0 c -0.012,-1.264 -0.396,-2.247 -1.287,-3.228 v 0 c -0.9,-0.945 -1.768,-1.326 -2.977,-1.342 v 0 c -1.318,0.022 -2.097,0.398 -2.837,1.27 z"
   inkscape:connector-curvature="0"
   style="fill:#9fcfff"
   sodipodi:nodetypes="ccccccccccccccccccccccccccccccccccccccccccccccccccccccccccccccccccccccccccccccccccccccccccccccccccccccccccccccccccccccccccccccccccccccccccccccccccccccccccccccccccccc" />
	</g>
	<g
   id="g18">
		<path
   id="path14"
   d="m 152.014,33.99 c 0,3.494 -0.113,5.558 -0.337,6.191 -0.47,1.451 -1.88,3.914 -4.23,7.387 -2.043,2.983 -3.791,5.313 -5.241,6.988 -0.532,0.634 -2.136,0.95 -4.813,0.95 -2.33,0 -3.842,-0.082 -4.536,-0.245 -0.429,-0.102 -0.787,-0.307 -1.073,-0.613 -1.226,-1.328 -2.973,-3.637 -5.242,-6.927 -2.432,-3.535 -3.882,-5.957 -4.353,-7.265 -0.511,-1.41 -0.766,-3.525 -0.766,-6.345 0,-0.797 0.01,-1.997 0.031,-3.602 0.02,-1.604 0.03,-2.815 0.03,-3.632 0,-0.531 0.357,-0.797 1.073,-0.797 1.042,0 2.61,0.031 4.705,0.092 2.095,0.062 3.663,0.092 4.705,0.092 0.47,0 0.705,0.317 0.705,0.95 0,0.572 -0.041,1.436 -0.123,2.59 -0.082,1.155 -0.123,2.028 -0.123,2.621 0,2.125 0.061,3.862 0.184,5.211 0.061,0.695 0.653,2.003 1.777,3.923 1.165,2.023 2.013,3.035 2.544,3.035 0.51,0 1.328,-0.991 2.452,-2.974 1.083,-1.859 1.665,-3.126 1.747,-3.801 0.163,-1.451 0.245,-3.208 0.245,-5.272 0,-0.592 -0.062,-1.486 -0.184,-2.682 -0.123,-1.196 -0.184,-2.079 -0.184,-2.651 0,-0.633 0.214,-0.95 0.644,-0.95 0.49,0 1.221,0.01 2.191,0.03 0.971,0.021 1.701,0.031 2.192,0.031 0.49,0 1.23,-0.041 2.222,-0.123 0.991,-0.082 1.732,-0.123 2.222,-0.123 0.511,0 0.848,0.266 1.011,0.797 0.351,1.167 0.525,3.538 0.525,7.114 z"
   inkscape:connector-curvature="0"
   style="fill:#fcfcfc" />
		<path
   id="path16"
   d="m 132.509,56.719 c -0.687,-0.156 -1.34,-0.524 -1.828,-1.054 v 0 c -1.324,-1.437 -3.085,-3.772 -5.375,-7.094 v 0 c -2.46,-3.593 -3.93,-5.986 -4.528,-7.604 v 0 c -0.61,-1.708 -0.849,-3.942 -0.855,-6.855 v 0 c 0,-0.81 0.01,-2.015 0.031,-3.622 v 0 c 0.021,-1.599 0.031,-2.808 0.031,-3.613 v 0 c -0.029,-0.584 0.275,-1.386 0.874,-1.801 v 0 c 0.58,-0.417 1.166,-0.489 1.7,-0.496 v 0 c 1.069,0 2.646,0.031 4.749,0.093 v 0 c 2.086,0.062 3.646,0.092 4.66,0.092 v 0 c 0.555,-0.029 1.334,0.265 1.733,0.843 v 0 c 0.403,0.559 0.467,1.114 0.473,1.607 v 0 c 0,0.64 -0.043,1.521 -0.125,2.695 v 0 c -0.083,1.135 -0.12,1.988 -0.12,2.514 v 0 c 0,2.097 0.06,3.796 0.177,5.081 v 0 c -0.035,0.109 0.481,1.476 1.585,3.305 v 0 c 0.47,0.84 0.915,1.489 1.23,1.897 v 0 c 0.305,-0.4 0.706,-1.021 1.169,-1.842 v 0 c 1.057,-1.766 1.577,-3.087 1.554,-3.215 v 0 c 0.154,-1.373 0.237,-3.079 0.237,-5.104 v 0 c 0,-0.493 -0.058,-1.36 -0.177,-2.528 v 0 c -0.125,-1.225 -0.191,-2.131 -0.191,-2.804 v 0 c 0.006,-0.479 0.056,-0.997 0.417,-1.554 v 0 c 0.354,-0.578 1.153,-0.933 1.725,-0.896 v 0 c 0.51,0 1.248,0.01 2.224,0.029 v 0 c 0.964,0.023 1.688,0.031 2.161,0.031 v 0 c 0.411,0 1.128,-0.037 2.099,-0.117 v 0 c 1.013,-0.082 1.776,-0.127 2.345,-0.127 v 0 c 1.071,-0.092 2.253,0.888 2.448,1.869 v 0 c 0.438,1.523 0.574,3.893 0.584,7.54 v 0 c 0,1.764 -0.027,3.174 -0.086,4.251 v 0 c -0.072,1.1 -0.115,1.766 -0.323,2.403 v 0 c -0.59,1.772 -2.035,4.23 -4.419,7.772 v 0 c -2.064,3.014 -3.835,5.379 -5.33,7.106 v 0 c -0.697,0.777 -1.515,1.014 -2.46,1.219 v 0 c -0.956,0.187 -2.103,0.265 -3.5,0.267 v 0 c -2.394,-0.008 -3.882,-0.063 -4.889,-0.288 z m 8.564,-3.147 c 1.391,-1.607 3.113,-3.898 5.13,-6.844 v 0 c 2.318,-3.412 3.694,-5.879 4.06,-7.048 v 0 c 0.006,-0.002 0.127,-0.639 0.168,-1.604 v 0 c 0.054,-0.986 0.083,-2.355 0.083,-4.086 v 0 c 0.009,-3.174 -0.164,-5.417 -0.384,-6.402 v 0 c -0.422,0.015 -1.013,0.051 -1.748,0.11 v 0 c -1.015,0.084 -1.776,0.127 -2.345,0.127 v 0 c -0.51,0 -1.248,-0.008 -2.224,-0.029 v 0 c -0.492,-0.01 -0.922,-0.018 -1.288,-0.023 v 0 c 0.024,0.485 0.077,1.141 0.159,1.941 v 0 c 0.125,1.223 0.193,2.144 0.193,2.834 v 0 c 0,2.105 -0.083,3.912 -0.257,5.454 v 0 c -0.185,1.207 -0.83,2.421 -1.93,4.36 v 0 c -0.588,1.034 -1.102,1.831 -1.605,2.444 v 0 c -0.539,0.563 -0.907,1.18 -2.152,1.289 v 0 c -1.237,-0.104 -1.632,-0.719 -2.185,-1.295 v 0 c -0.518,-0.623 -1.05,-1.435 -1.655,-2.481 v 0 c -1.151,-2.022 -1.817,-3.271 -1.975,-4.545 v 0 c -0.129,-1.42 -0.191,-3.192 -0.191,-5.348 v 0 c 0,-0.658 0.043,-1.552 0.127,-2.726 v 0 c 0.056,-0.794 0.092,-1.447 0.109,-1.939 v 0 c -1.006,-0.011 -2.317,-0.04 -3.944,-0.088 v 0 c -1.815,-0.054 -3.231,-0.084 -4.236,-0.091 v 0 c -0.004,0.766 -0.014,1.748 -0.029,2.948 v 0 c -0.021,1.602 -0.031,2.798 -0.031,3.583 v 0 c -0.006,2.724 0.265,4.719 0.678,5.835 v 0 c 0.341,0.995 1.772,3.445 4.177,6.921 v 0 c 2.245,3.26 3.979,5.544 5.102,6.757 v 0 c 0.088,0.088 0.15,0.129 0.321,0.175 v 0 c 0.384,0.104 1.92,0.213 4.193,0.206 v 0 c 2.075,0.036 3.46,-0.293 3.679,-0.435 z"
   inkscape:connector-curvature="0"
   style="fill:#9fcfff" />
	</g>
	<g
   id="g24">
		<path
   id="path20"
   d="m 184.259,38.618 c 0,2.064 -0.664,3.239 -1.992,3.525 -0.225,0.041 -2.34,0.266 -6.345,0.674 -2.411,0.266 -6.007,0.582 -10.789,0.95 0.286,1.329 1.154,2.34 2.605,3.034 1.185,0.572 2.533,0.858 4.046,0.858 1.818,0 3.647,-0.49 5.486,-1.471 0.776,-0.491 1.553,-0.981 2.33,-1.471 0.429,0.204 1.149,1.247 2.161,3.126 1.011,1.88 1.517,3.076 1.517,3.586 0,0.143 -0.153,0.378 -0.459,0.705 -2.494,2.677 -6.366,4.015 -11.617,4.015 -4.863,0 -8.787,-1.42 -11.77,-4.26 -3.065,-2.881 -4.598,-6.733 -4.598,-11.556 0,-4.7 1.369,-8.552 4.107,-11.556 2.82,-3.106 6.56,-4.659 11.219,-4.659 3.923,0 7.254,1.431 9.992,4.292 2.738,2.861 4.107,6.265 4.107,10.208 z m -10.728,-1.87 c 0,-1.267 -0.45,-2.38 -1.349,-3.341 -0.899,-0.96 -1.972,-1.44 -3.218,-1.44 -1.288,0 -2.35,0.542 -3.188,1.625 -0.777,1.001 -1.165,2.176 -1.165,3.525 0,0.552 0.286,0.828 0.858,0.828 1.512,0 3.862,-0.235 7.05,-0.705 0.675,-0.103 1.012,-0.267 1.012,-0.492 z"
   inkscape:connector-curvature="0"
   style="fill:#fcfcfc" />
		<path
   id="path22"
   d="m 158.404,52.984 c -3.39,-3.167 -5.088,-7.518 -5.071,-12.648 v 0 c -0.01,-4.985 1.484,-9.273 4.496,-12.564 v 0 c 3.092,-3.431 7.345,-5.17 12.33,-5.151 v 0 c 4.291,-0.017 8.102,1.622 11.076,4.755 v 0 c 2.987,3.1 4.537,6.952 4.524,11.245 v 0 c -0.004,1.188 -0.179,2.243 -0.692,3.166 v 0 c -0.502,0.927 -1.452,1.622 -2.533,1.833 v 0 c -0.199,0.034 -0.732,0.095 -1.65,0.193 v 0 c 0.314,0.286 0.521,0.602 0.811,0.989 v 0 c 0.411,0.596 0.863,1.363 1.386,2.333 v 0 c 0.52,0.966 0.917,1.766 1.198,2.432 v 0 c 0.275,0.691 0.473,1.151 0.498,1.865 v 0 c -0.025,0.606 -0.22,0.861 -0.358,1.104 v 0 c -0.152,0.23 -0.316,0.422 -0.503,0.623 v 0 c -2.874,3.085 -7.232,4.5 -12.714,4.494 v 0 c -0.021,0 -0.041,0 -0.061,0 v 0 c -5.12,-0.003 -9.477,-1.553 -12.737,-4.669 z m 1.645,-23.195 c -2.463,2.714 -3.704,6.128 -3.714,10.546 v 0 c 0.014,4.514 1.381,7.865 4.13,10.468 v 0 c 2.687,2.545 6.154,3.836 10.737,3.848 v 0 c 4.986,-0.008 8.36,-1.251 10.48,-3.496 v 0 c -0.042,-0.117 -0.097,-0.259 -0.165,-0.42 v 0 c -0.224,-0.528 -0.586,-1.267 -1.077,-2.181 v 0 c -0.417,-0.798 -0.813,-1.447 -1.11,-1.892 v 0 c -0.42,0.265 -0.839,0.53 -1.258,0.794 v 0 l -0.049,0.031 -0.047,0.024 c -2.017,1.08 -4.101,1.649 -6.192,1.649 v 0 c -1.7,0 -3.287,-0.325 -4.693,-1.005 v 0 c -1.75,-0.81 -3.055,-2.259 -3.425,-4.072 v 0 l -0.36,-1.68 1.712,-0.131 c 4.771,-0.368 8.358,-0.683 10.751,-0.948 v 0 c 3.959,-0.401 6.208,-0.647 6.182,-0.647 v 0 c 0.296,-0.084 0.341,-0.119 0.504,-0.368 v 0 c 0.15,-0.25 0.308,-0.816 0.304,-1.689 v 0 c -0.013,-3.596 -1.201,-6.55 -3.69,-9.171 v 0 c -2.504,-2.59 -5.353,-3.811 -8.91,-3.828 v 0 c -4.334,0.018 -7.559,1.383 -10.11,4.168 z m 21.728,21.69 c 0.001,0 0.001,0 0,0 z M 168.391,45.45 c 0.958,0.462 2.066,0.709 3.392,0.711 v 0 c 1.529,-0.002 3.087,-0.402 4.728,-1.267 v 0 c 0.396,-0.25 0.793,-0.501 1.189,-0.751 v 0 c -0.497,0.051 -1.034,0.106 -1.614,0.166 v 0 c -2,0.221 -4.781,0.473 -8.354,0.759 v 0 c 0.188,0.129 0.406,0.255 0.659,0.382 z m -4.607,-6.634 c -0.524,-0.504 -0.681,-1.186 -0.674,-1.7 v 0 c -0.006,-1.634 0.496,-3.187 1.48,-4.442 v 0 c 1.04,-1.39 2.656,-2.232 4.375,-2.208 v 0 c 1.636,-0.016 3.192,0.693 4.313,1.916 v 0 c 1.13,1.192 1.766,2.74 1.753,4.366 v 0 c -0.019,0.973 -0.744,1.493 -1.098,1.641 v 0 c -0.409,0.193 -0.769,0.265 -1.196,0.335 v 0 c -3.226,0.473 -5.608,0.718 -7.267,0.72 v 0 c -0.008,0 -0.015,0 -0.023,0 v 0 c -0.507,-0.001 -1.149,-0.136 -1.663,-0.628 z m 3.176,-4.306 c -0.439,0.576 -0.701,1.183 -0.802,1.919 v 0 c 1.331,-0.055 3.268,-0.258 5.745,-0.617 v 0 c -0.14,-0.486 -0.399,-0.922 -0.817,-1.381 v 0 c -0.678,-0.697 -1.269,-0.948 -2.122,-0.964 v 0 c -0.857,0.025 -1.367,0.265 -2.004,1.043 z"
   inkscape:connector-curvature="0"
   style="fill:#9fcfff" />
	</g>
	<g
   id="g30">
		<path
   id="path26"
   d="m 218.098,54.373 c 0,0.551 -0.286,0.869 -0.858,0.95 -0.572,0.081 -2.064,0.123 -4.475,0.123 -2.575,0 -4.169,-0.062 -4.782,-0.184 -0.613,-0.123 -0.919,-0.541 -0.919,-1.257 0,-0.96 0.03,-2.411 0.092,-4.353 0.062,-1.941 0.092,-3.402 0.092,-4.383 0,-0.756 -0.021,-1.885 -0.061,-3.387 -0.042,-1.502 -0.062,-2.631 -0.062,-3.387 0,-2.799 -1.216,-4.199 -3.647,-4.199 -0.797,0 -1.727,0.348 -2.789,1.042 -1.145,0.777 -1.717,1.543 -1.717,2.299 v 16.552 c 0,0.674 -0.317,1.053 -0.95,1.134 -0.715,0.081 -2.176,0.123 -4.383,0.123 -2.391,0 -3.944,-0.062 -4.659,-0.184 -0.634,-0.102 -0.95,-0.439 -0.95,-1.012 0,-1.594 0.01,-3.995 0.031,-7.203 0.02,-3.208 0.03,-5.619 0.03,-7.233 0,-5.088 -0.398,-9.083 -1.195,-11.985 -0.041,-0.184 -0.061,-0.337 -0.061,-0.46 0,-0.327 0.153,-0.552 0.459,-0.674 1.288,-0.143 3.004,-0.368 5.149,-0.674 3.249,-0.633 5.078,-0.95 5.487,-0.95 0.225,0 0.398,0.69 0.521,2.069 0.123,1.379 0.296,2.069 0.521,2.069 -0.225,0 0.874,-0.71 3.295,-2.13 2.421,-1.42 4.541,-2.13 6.36,-2.13 2.595,0 4.761,0.613 6.498,1.839 1.941,1.41 2.912,3.372 2.912,5.885 v 9.778 c 0,1.329 0.01,3.316 0.031,5.962 0.019,2.645 0.03,4.632 0.03,5.96 z"
   inkscape:connector-curvature="0"
   style="fill:#fcfcfc" />
		<path
   id="path28"
   d="m 207.688,56.732 c -0.573,-0.103 -1.21,-0.438 -1.605,-0.991 v 0 c -0.4,-0.549 -0.52,-1.174 -0.52,-1.737 v 0 c 0,-0.988 0.031,-2.448 0.093,-4.398 v 0 c 0.062,-1.932 0.092,-3.386 0.092,-4.335 v 0 c 0,-0.729 -0.021,-1.852 -0.062,-3.346 v 0 c -0.041,-1.511 -0.062,-2.647 -0.062,-3.429 v 0 c 0,-1.198 -0.27,-1.86 -0.545,-2.167 v 0 c -0.271,-0.298 -0.654,-0.518 -1.603,-0.532 v 0 c -0.352,-0.01 -1.046,0.189 -1.947,0.783 v 0 c -0.481,0.325 -0.785,0.619 -0.927,0.814 v 0 c -0.148,0.201 -0.129,0.243 -0.131,0.245 v 0 16.551 c 0.002,0.559 -0.138,1.215 -0.588,1.753 v 0 c -0.448,0.541 -1.106,0.804 -1.694,0.872 v 0 c -0.861,0.095 -2.316,0.129 -4.551,0.132 v 0 c -2.436,-0.004 -3.967,-0.052 -4.898,-0.204 v 0 c -0.524,-0.083 -1.108,-0.296 -1.568,-0.783 v 0 c -0.464,-0.483 -0.653,-1.159 -0.643,-1.708 v 0 c 0,-1.602 0.01,-4.002 0.031,-7.213 v 0 c 0.021,-3.207 0.031,-5.616 0.031,-7.225 v 0 c 0.002,-5.007 -0.401,-8.898 -1.143,-11.587 v 0 l -0.008,-0.031 -0.011,-0.039 c -0.055,-0.257 -0.094,-0.502 -0.096,-0.788 v 0 c -0.076,-0.808 0.633,-1.842 1.402,-2.065 v 0 l 0.191,-0.078 0.202,-0.021 c 1.261,-0.14 2.964,-0.363 5.1,-0.669 v 0 c 3.279,-0.628 4.887,-0.94 5.702,-0.964 v 0 c 0.918,0.035 1.319,0.635 1.457,0.88 v 0 c 0.167,0.293 0.23,0.522 0.296,0.771 v 0 c 0.105,0.425 0.175,0.907 0.235,1.507 v 0 c 0.45,-0.271 0.979,-0.585 1.591,-0.943 v 0 c 2.561,-1.497 4.902,-2.331 7.118,-2.337 v 0 c 2.826,-0.004 5.334,0.678 7.379,2.125 v 0 c 2.31,1.64 3.562,4.204 3.531,7.1 v 0 9.778 c 0,1.319 0.01,3.305 0.031,5.949 v 0 c 0.021,2.649 0.031,4.639 0.031,5.975 v 0 c 0.006,0.522 -0.154,1.166 -0.602,1.655 v 0 c -0.442,0.491 -1.036,0.711 -1.546,0.779 v 0 c -0.792,0.107 -2.236,0.134 -4.685,0.138 v 0 c -2.63,-0.012 -4.159,-0.047 -5.078,-0.217 z m 5.077,-2.785 c 1.82,0.003 3.152,-0.029 3.831,-0.07 v 0 c -0.002,-1.304 -0.012,-3.123 -0.028,-5.453 v 0 c -0.022,-2.649 -0.031,-4.639 -0.033,-5.973 v 0 -9.778 c -0.031,-2.131 -0.72,-3.492 -2.275,-4.66 v 0 c -1.445,-1.018 -3.269,-1.562 -5.634,-1.564 v 0 c -1.422,-0.008 -3.318,0.58 -5.602,1.924 v 0 c -1.782,1.036 -2.915,1.759 -3.027,1.866 -0.46004,0.215827 -0.65112,0.428132 -1.582,0.366 v 0 c -0.089,-0.032 -0.171,-0.069 -0.245,-0.111 v 0 c -0.015,-0.008 -0.029,-0.016 -0.044,-0.025 v 0 C 197.784,30.264 197.6,29.98 197.514,29.83 v 0 c -0.167,-0.296 -0.23,-0.524 -0.296,-0.773 v 0 c -0.121,-0.487 -0.195,-1.052 -0.261,-1.784 v 0 c -0.016,-0.202 -0.035,-0.388 -0.056,-0.554 v 0 c -0.122,0.021 -0.253,0.042 -0.394,0.067 v 0 c -0.896,0.156 -2.159,0.393 -3.778,0.707 v 0 l -0.037,0.006 -0.037,0.006 c -1.625,0.232 -3.006,0.418 -4.151,0.558 v 0 c 0.74,3.032 1.084,6.925 1.086,11.75 v 0 c 0,1.622 -0.01,4.035 -0.031,7.244 v 0 c -0.019,2.931 -0.029,5.188 -0.031,6.767 v 0 c 0.686,0.071 2.119,0.126 4.111,0.123 v 0 c 1.805,0 3.123,-0.033 3.832,-0.08 v 0 -16.229 c 0.041,-1.587 1.089,-2.658 2.396,-3.556 v 0 c 1.203,-0.779 2.368,-1.276 3.61,-1.287 v 0 c 1.482,-0.015 2.923,0.466 3.868,1.566 v 0 c 0.941,1.095 1.279,2.532 1.279,4.133 v 0 c 0,0.732 0.021,1.852 0.062,3.347 v 0 c 0.041,1.509 0.062,2.646 0.062,3.428 v 0 c 0,1.009 -0.031,2.479 -0.092,4.43 v 0 c -0.058,1.816 -0.087,3.2 -0.09,4.132 v 0 c 0.633,0.063 2.124,0.122 4.199,0.116 z"
   inkscape:connector-curvature="0"
   style="fill:#9fcfff"
   sodipodi:nodetypes="ccccccccccccccccccccccccccccccccccccccccccccccccccccccccccccccccccccscccccccccccccccccccccccccccccccccccccccccccccccccccccccccccccccccccccccccccc" />
	</g>
	<g
   id="g36">
		<path
   id="path32"
   d="m 243.723,46.281 c 0,0.613 -0.077,1.543 -0.23,2.79 -0.153,1.247 -0.23,2.161 -0.23,2.743 0,0.582 -0.061,0.956 -0.184,1.119 -0.123,0.164 -0.46,0.398 -1.012,0.705 -2.636,1.451 -5.559,2.176 -8.766,2.176 -5.906,0 -8.858,-2.258 -8.858,-6.774 0,-1.349 0.051,-3.376 0.153,-6.084 0.102,-2.708 0.153,-4.735 0.153,-6.084 0,-0.899 -0.521,-1.349 -1.563,-1.349 h -0.398 c -0.184,0.021 -0.317,0.031 -0.398,0.031 -0.777,0 -1.165,-0.276 -1.165,-0.828 0,-0.327 0.025,-0.828 0.077,-1.502 0.051,-0.674 0.077,-1.175 0.077,-1.502 0,-0.429 -0.026,-1.083 -0.077,-1.961 -0.051,-0.878 -0.077,-1.533 -0.077,-1.962 0,-0.408 0.654,-0.633 1.962,-0.674 0.736,-0.02 1.134,-0.225 1.195,-0.613 0.123,-0.776 0.164,-2.002 0.123,-3.678 -0.14376,-2.485421 -0.29491,-5.413358 0.551,-7.326 0.552,0 1.338,0.123 2.36,0.368 1.165,0.266 1.972,0.419 2.421,0.46 1.042,0.143 2.615,0.337 4.72,0.582 0.511,0.042 0.767,0.215 0.767,0.521 0,0.817 -0.067,2.053 -0.199,3.708 -0.133,1.655 -0.199,2.902 -0.199,3.74 0,1.001 0.296,1.502 0.889,1.502 0.715,0 1.798,-0.031 3.249,-0.092 1.451,-0.061 2.544,-0.092 3.28,-0.092 0.449,0 0.674,0.153 0.674,0.46 0,0.47 -0.051,1.175 -0.153,2.115 -0.103,0.94 -0.153,1.645 -0.153,2.115 0,0.491 0.01,1.206 0.031,2.146 0.02,0.94 0.031,1.655 0.031,2.146 0,0.429 -0.296,0.644 -0.889,0.644 -0.409,0 -1.093,-0.015 -2.054,-0.046 -0.961,-0.031 -1.645,-0.046 -2.053,-0.046 h -2.299 c -0.307,0 -0.46,0.45 -0.46,1.349 v 2.176 c 0.02,0.981 0.031,1.707 0.031,2.176 0,1.716 0.194,2.902 0.582,3.556 0.552,0.878 1.635,1.318 3.249,1.318 0.511,0 1.242,-0.117 2.192,-0.353 0.95,-0.235 1.619,-0.353 2.008,-0.353 0.427,-10e-4 0.642,0.224 0.642,0.673 z"
   inkscape:connector-curvature="0"
   style="fill:#fcfcfc"
   sodipodi:nodetypes="sssccssssscsscssscccccccscssssscscsssssscscsccs" />
		<path
   id="path34"
   d="m 233.302,57.313 c -3.133,-0.004 -5.678,-0.58 -7.557,-2.002 v 0 c -1.893,-1.423 -2.826,-3.707 -2.804,-6.272 v 0 c 0.002,-1.385 0.053,-3.422 0.156,-6.14 v 0 c 0.097,-2.596 0.148,-4.561 0.152,-5.875 v 0 c -0.02,-10e-4 -0.041,-10e-4 -0.063,-10e-4 v 0 h -0.328 v 0 c -0.169,0.017 -0.307,0.029 -0.47,0.031 v 0 c -0.557,-0.008 -1.147,-0.076 -1.741,-0.485 v 0 c -0.615,-0.403 -0.954,-1.231 -0.923,-1.844 v 0 c 0,-0.401 0.029,-0.921 0.081,-1.614 v 0 c 0.049,-0.656 0.074,-1.137 0.072,-1.39 v 0 c 0,-0.372 -0.022,-1.011 -0.074,-1.875 v 0 c -0.051,-0.895 -0.078,-1.563 -0.078,-2.048 v 0 c -0.014,-0.514 0.259,-1.064 0.58,-1.35 v 0 c 0.316,-0.302 0.629,-0.44 0.923,-0.545 v 0 c 0.539,-0.178 1.081,-0.241 1.742,-0.272 v 0 c 0.031,-0.429 0.05,-0.978 0.049,-1.625 v 0 c 0,-0.349 -0.004,-0.731 -0.013,-1.126 v 0 c -0.065,-2.119 -0.106,-3.387 -0.117,-3.659 v 0 c -0.002,-0.014 -0.002,-0.021 -0.002,-0.026 v 0 c -0.002,-0.026 -0.004,-0.066 -0.005,-0.132 v 0 h -0.001 c 0.043,-1.893 0.024,-2.96 0.578,-4.076 v 0 c 0.177,-0.362 0.748,-0.98 1.597,-0.979 v 0 c 0.767,0.002 1.624,0.15 2.695,0.403 v 0 c 1.13,0.261 1.93,0.407 2.224,0.43 v 0 l 0.039,0.004 0.029,0.004 c 1.021,0.14 2.59,0.333 4.637,0.574 v 0 c 0.399,0.039 0.82,0.104 1.295,0.415 v 0 c 0.489,0.288 0.884,1.026 0.849,1.602 v 0 c 0,0.894 -0.07,2.15 -0.204,3.827 v 0 c -0.131,1.631 -0.195,2.853 -0.193,3.616 v 0 c 0.65,-0.012 1.512,-0.04 2.573,-0.084 v 0 c 1.462,-0.062 2.568,-0.092 3.343,-0.092 v 0 c 0.388,0.006 0.841,0.039 1.351,0.374 v 0 c 0.532,0.325 0.859,1.077 0.824,1.585 v 0 c -0.002,0.573 -0.058,1.307 -0.163,2.277 v 0 c -0.099,0.909 -0.146,1.585 -0.144,1.953 v 0 c 0,0.468 0.011,1.178 0.031,2.113 v 0 c 0.019,0.946 0.031,1.665 0.031,2.177 v 0 c 0.029,0.542 -0.275,1.317 -0.843,1.698 v 0 c -0.551,0.384 -1.079,0.44 -1.546,0.446 v 0 c -0.444,0 -1.133,-0.016 -2.103,-0.047 v 0 c -0.952,-0.031 -1.632,-0.045 -2.004,-0.045 v 0 h -1.26 v 1.994 0 c 0.021,0.986 0.031,1.716 0.031,2.208 v 0 c -0.021,1.595 0.243,2.633 0.354,2.756 v 0 c 0.158,0.266 0.586,0.601 1.978,0.617 v 0 c 0.29,0.004 0.948,-0.086 1.832,-0.308 v 0 c 1.011,-0.243 1.702,-0.386 2.368,-0.397 v 0 c 0.456,-0.008 1.1,0.138 1.568,0.633 v 0 c 0.467,0.493 0.578,1.096 0.576,1.542 v 0 c -0.002,0.731 -0.084,1.693 -0.241,2.972 v 0 c -0.152,1.215 -0.222,2.101 -0.22,2.562 v 0 c -0.047,0.707 0.055,1.167 -0.483,2.016 v 0 c -0.485,0.582 -0.859,0.742 -1.488,1.121 v 0 c -2.857,1.575 -6.049,2.362 -9.475,2.362 v 0 c -0.006,-0.003 -0.011,-0.003 -0.015,-0.003 z M 222.787,34.021 h 0.399 v 0 c 0.721,0.002 1.497,0.146 2.152,0.703 v 0 c 0.662,0.557 0.927,1.428 0.911,2.146 v 0 c 0,1.385 -0.052,3.422 -0.154,6.142 v 0 c -0.103,2.697 -0.152,4.713 -0.152,6.027 v 0 c 0.025,1.951 0.565,3.055 1.626,3.889 v 0 c 1.075,0.834 2.96,1.39 5.733,1.384 v 0 c 2.982,-0.002 5.63,-0.664 8.037,-1.986 v 0 c 0.168,-0.093 0.311,-0.179 0.417,-0.247 v 0 c 0.004,-0.074 0.007,-0.164 0.007,-0.265 v 0 c 0.002,-0.708 0.084,-1.649 0.24,-2.927 v 0 c 0.079,-0.64 0.136,-1.192 0.172,-1.644 v 0 c -0.219,0.045 -0.47,0.102 -0.743,0.171 v 0 c -1.018,0.247 -1.819,0.393 -2.553,0.397 v 0 c -1.835,0.014 -3.573,-0.526 -4.539,-2.054 v 0 c -0.646,-1.151 -0.771,-2.485 -0.792,-4.321 v 0 c 0,-0.448 -0.01,-1.169 -0.031,-2.177 v 0 -2.175 0 c 0.063,-0.808 -0.074,-1.41 0.709,-2.337 v 0 c 0.286,-0.298 0.802,-0.526 1.25,-0.512 v 0 h 2.3 c 0.442,0 1.13,0.016 2.101,0.045 v 0 c 0.559,0.018 1.023,0.031 1.388,0.039 v 0 c -0.005,-0.356 -0.013,-0.773 -0.023,-1.25 v 0 c -0.021,-0.946 -0.031,-1.667 -0.031,-2.177 v 0 c 0,-0.574 0.056,-1.31 0.161,-2.278 v 0 c 0.037,-0.333 0.066,-0.635 0.088,-0.902 v 0 c -0.623,0.014 -1.403,0.04 -2.333,0.08 v 0 c -1.463,0.062 -2.557,0.092 -3.313,0.092 v 0 c -0.719,0.045 -1.62,-0.454 -1.957,-1.11 v 0 c -0.362,-0.639 -0.423,-1.246 -0.432,-1.891 v 0 c 0.002,-0.913 0.07,-2.183 0.204,-3.858 v 0 c 0.087,-1.087 0.145,-1.989 0.174,-2.689 v 0 c -1.797,-0.211 -3.17,-0.381 -4.131,-0.513 v 0 c -0.604,-0.062 -1.411,-0.223 -2.606,-0.492 v 0 c -0.418,-0.102 -0.789,-0.178 -1.104,-0.231 v 0 c -0.049,0.455 -0.081,1.107 -0.081,1.915 v 0 c 0,0.011 0.001,0.021 0.002,0.033 v 0 c 0.0103,0.292912 0.0205,0.618143 0.03,0.898 v 0 c 0.021,0.633 0.049,1.577 0.091,2.851 v 0 c 0.008,0.425 0.014,0.826 0.014,1.207 v 0 c -0.002,1.131 -0.045,2.017 -0.156,2.738 v 0 c -0.08,0.672 -0.625,1.313 -1.141,1.546 v 0 c -0.521,0.257 -0.997,0.314 -1.488,0.333 v 0 c -0.184,0.003 -0.348,0.013 -0.487,0.026 v 0 c 0.012,0.293 0.029,0.636 0.051,1.024 v 0 c 0.051,0.894 0.08,1.562 0.08,2.047 v 0 c -0.002,0.403 -0.029,0.921 -0.082,1.616 v 0 c -0.02,0.256 -0.035,0.485 -0.046,0.685 v 0 h 0.038 z m 3.047,-14.599 z"
   inkscape:connector-curvature="0"
   style="fill:#9fcfff"
   sodipodi:nodetypes="cccccccccccccccccccccccccccccccccccccccccccccccccccccccccccccccccccccccccccccccccccccccccccccccccccccccccccccccccccccccccccccccccccccccccccccccccccccccccccccsccccccccccccccccccccccccccccccccccccccccccccccccccccccccccccc" />
	</g>
	<g
   id="g42">
		<path
   id="path38"
   d="m 278.481,27.4 c 0,1.513 -0.072,3.781 -0.215,6.805 -0.143,3.024 -0.214,5.292 -0.214,6.805 0,1.471 0.051,3.678 0.153,6.621 0.102,2.943 0.153,5.14 0.153,6.59 0,0.552 -0.255,0.899 -0.766,1.042 -0.777,0.204 -2.421,0.307 -4.935,0.307 -2.228,0 -3.78,-0.062 -4.659,-0.184 -0.389,-0.061 -0.634,-0.307 -0.736,-0.735 -0.061,-0.613 -0.123,-1.226 -0.184,-1.839 -0.102,-0.939 -0.245,-1.41 -0.429,-1.41 0.286,0 -0.747,0.695 -3.096,2.084 -2.35,1.39 -4.485,2.084 -6.406,2.084 -5.416,0 -8.624,-2.442 -9.625,-7.326 -0.45,-2.269 -0.675,-5.558 -0.675,-9.87 0,-4.659 0.378,-8.337 1.134,-11.034 0.225,-0.838 0.644,-1.257 1.257,-1.257 0.939,0 2.37,0.01 4.291,0.031 1.92,0.021 3.351,0.03 4.292,0.03 0.633,0 0.95,0.266 0.95,0.797 0,0.143 -0.021,0.357 -0.062,0.644 -0.429,2.779 -0.644,5.599 -0.644,8.46 0,3.555 0.112,5.987 0.337,7.295 0.368,2.248 1.706,3.372 4.016,3.372 0.899,0 1.875,-0.398 2.927,-1.195 1.052,-0.797 1.599,-1.625 1.64,-2.483 0.041,-0.756 0.062,-5.885 0.062,-15.387 0,-0.674 0.051,-1.073 0.153,-1.195 0.123,-0.204 0.49,-0.307 1.103,-0.307 1.001,0 2.508,0.011 4.521,0.031 2.012,0.021 3.52,0.031 4.521,0.031 0.613,0 0.97,0.153 1.073,0.46 0.042,0.161 0.063,0.406 0.063,0.733 z"
   inkscape:connector-curvature="0"
   style="fill:#fcfcfc" />
		<path
   id="path40"
   d="m 267.765,56.865 c -0.952,-0.082 -1.842,-1.042 -1.961,-1.871 v 0 l -0.024,-0.096 -0.01,-0.101 c -0.027,-0.282 -0.056,-0.564 -0.083,-0.845 v 0 c -0.396,0.243 -0.851,0.516 -1.368,0.823 v 0 c -2.502,1.476 -4.882,2.29 -7.17,2.294 v 0 c -2.925,0.002 -5.439,-0.664 -7.377,-2.14 v 0 c -1.94,-1.47 -3.174,-3.692 -3.718,-6.395 v 0 c -0.483,-2.442 -0.701,-5.794 -0.705,-10.163 v 0 c 0.004,-4.74 0.378,-8.526 1.186,-11.422 v 0 c 0.158,-0.578 0.401,-1.139 0.872,-1.614 v 0 c 0.46,-0.483 1.188,-0.769 1.835,-0.754 v 0 c 0.95,0 2.382,0.01 4.307,0.031 v 0 c 1.917,0.021 3.344,0.031 4.275,0.031 v 0 c 0.512,0.002 1.12,0.095 1.675,0.551 v 0 c 0.565,0.457 0.792,1.203 0.775,1.746 v 0 c -0.002,0.283 -0.033,0.532 -0.08,0.874 v 0 c -0.417,2.703 -0.625,5.445 -0.625,8.23 v 0 c -0.004,3.513 0.119,5.934 0.316,7.052 v 0 c 0.15,0.888 0.434,1.342 0.765,1.622 v 0 c 0.333,0.279 0.847,0.487 1.772,0.491 v 0 c 0.44,0.006 1.125,-0.21 2.021,-0.89 v 0 c 0.876,-0.668 1.044,-1.133 1.048,-1.369 v 0 c 0.035,-0.623 0.06,-5.832 0.058,-15.306 v 0 c 0.002,-0.376 0.015,-0.69 0.051,-0.995 v 0 c 0.062,-0.278 0.032,-0.514 0.32,-0.97 v 0 l -0.003,-0.002 c 0.37,-0.592 0.882,-0.795 1.251,-0.902 v 0 c 0.391,-0.107 0.747,-0.13 1.139,-0.132 v 0 c 1.009,0 2.52,0.01 4.537,0.031 v 0 c 2.008,0.021 3.513,0.031 4.505,0.031 v 0 c 0.43,0.002 0.851,0.041 1.318,0.236 v 0 c 0.458,0.177 0.991,0.645 1.176,1.248 v 0 l 0.021,0.06 0.014,0.056 c 0.088,0.378 0.101,0.701 0.105,1.096 v 0 c 0,1.558 -0.074,3.837 -0.216,6.875 v 0 c -0.144,3.011 -0.214,5.267 -0.214,6.734 v 0 c 0,1.437 0.051,3.636 0.152,6.567 v 0 c 0.103,2.954 0.154,5.16 0.154,6.644 v 0 c 0.004,0.5 -0.123,1.075 -0.483,1.563 v 0 c -0.355,0.489 -0.888,0.792 -1.402,0.929 v 0 c -1.11,0.277 -2.74,0.347 -5.315,0.357 v 0 c -2.265,-0.005 -3.833,-0.059 -4.894,-0.205 z m 9.093,-2.982 c -0.007,-1.418 -0.059,-3.492 -0.151,-6.202 v 0 c -0.103,-2.952 -0.154,-5.169 -0.154,-6.672 v 0 c 0,-1.558 0.072,-3.84 0.216,-6.875 v 0 c 0.132,-2.811 0.204,-4.963 0.211,-6.43 v 0 c -0.997,-0.002 -2.385,-0.012 -4.168,-0.031 v 0 c -1.852,-0.019 -3.277,-0.029 -4.263,-0.03 v 0 10e-4 0 c -0.002,9.53 -0.019,14.58 -0.063,15.46 v 0 c -0.078,1.488 -1.003,2.681 -2.232,3.607 v 0 c -1.208,0.913 -2.477,1.492 -3.832,1.499 v 0 c -1.388,0.004 -2.697,-0.347 -3.702,-1.194 v 0 c -1.007,-0.843 -1.577,-2.074 -1.792,-3.422 v 0 c -0.255,-1.511 -0.355,-3.953 -0.359,-7.55 v 0 c 0,-2.843 0.206,-5.649 0.619,-8.402 v 0 c -0.915,-0.003 -2.137,-0.013 -3.671,-0.03 v 0 c -1.762,-0.019 -3.11,-0.029 -4.037,-0.03 v 0 c -0.015,0.042 -0.032,0.096 -0.049,0.162 v 0 c -0.701,2.483 -1.081,6.053 -1.079,10.629 v 0 c -0.002,4.257 0.228,7.482 0.644,9.569 v 0 c 0.458,2.191 1.33,3.632 2.596,4.602 v 0 c 1.27,0.968 3.067,1.523 5.56,1.525 v 0 c 1.552,0.004 3.443,-0.571 5.641,-1.875 v 0 c 1.569,-0.921 2.618,-1.607 2.789,-1.747 v 0 c 0.014,-0.014 0.021,-0.019 0.023,-0.021 v 0 c 0.47924,-0.280696 0.36587,-0.25066 1.049,-0.526 0.032,0 0.063,0.002 0.093,0.004 v 0 c 0.118,0.004 0.275,0.018 0.509,0.115 v 0 c 0.041,0.017 0.08,0.034 0.117,0.053 v 0 c 0.002,10e-4 0.005,0.002 0.008,0.003 v 0 c 0.084,0.03 0.172,0.087 0.258,0.161 v 0 c 0.182,0.138 0.308,0.289 0.377,0.396 v 0 c 0.185,0.275 0.252,0.481 0.318,0.685 v 0 c 0.119,0.401 0.181,0.81 0.241,1.344 v 0 c 0.043,0.431 0.086,0.862 0.13,1.293 v 0 c 0.831,0.073 2.178,0.117 3.957,0.115 v 0 c 2.018,0.007 3.502,-0.083 4.196,-0.186 z"
   inkscape:connector-curvature="0"
   style="fill:#9fcfff"
   sodipodi:nodetypes="cccccccccccccccccccccccccccccccccccccccccccccccccccccccccccccccccccccccccccccccccccccccccccccccccccccccccccccccccccccccccccccccccccccccccccccccccccccccccc" />
	</g>
	<g
   id="g48">
		<path
   id="path44"
   d="m 303.861,36.166 c 0,0.797 -0.439,1.195 -1.318,1.195 -0.388,0 -0.955,-0.025 -1.701,-0.077 -0.746,-0.051 -1.303,-0.077 -1.67,-0.077 -1.696,0 -2.851,0.266 -3.464,0.797 -0.613,0.532 -0.92,1.604 -0.92,3.218 0,0.879 0.016,2.212 0.047,4 0.03,1.789 0.046,3.122 0.046,4 0,0.593 0.04,1.477 0.122,2.651 0.082,1.175 0.123,2.049 0.123,2.621 0,0.49 -0.338,0.766 -1.012,0.828 -0.98,0.081 -2.482,0.123 -4.506,0.123 -1.941,0 -3.494,-0.062 -4.659,-0.184 -0.674,-0.082 -1.011,-0.418 -1.011,-1.012 0,-1.634 0.01,-4.081 0.031,-7.341 0.02,-3.259 0.03,-5.706 0.03,-7.341 0,-4.802 -0.439,-8.756 -1.318,-11.862 -0.041,-0.184 -0.061,-0.337 -0.061,-0.46 0,-0.306 0.153,-0.51 0.459,-0.613 1.124,-0.123 2.769,-0.347 4.935,-0.674 3.229,-0.633 4.894,-0.95 4.996,-0.95 0.368,0 0.603,0.644 0.705,1.931 0.102,1.287 0.286,1.931 0.552,1.931 -0.286,0 0.552,-0.536 2.514,-1.609 1.961,-1.073 3.852,-1.609 5.67,-1.609 1.145,0 1.717,0.245 1.717,0.736 0,0.593 -0.062,1.43 -0.184,2.513 -0.123,1.165 -0.194,2.003 -0.215,2.514 0,0.593 0.01,1.379 0.03,2.36 0.041,1.206 0.062,2.003 0.062,2.391 z"
   inkscape:connector-curvature="0"
   style="fill:#fcfcfc" />
		<path
   id="path46"
   d="m 284.769,56.751 c -0.54,-0.066 -1.148,-0.255 -1.641,-0.742 v 0 c -0.497,-0.486 -0.703,-1.191 -0.69,-1.758 v 0 c 0,-1.641 0.01,-4.089 0.031,-7.35 v 0 c 0.019,-3.259 0.029,-5.703 0.029,-7.332 v 0 c 0.002,-4.711 -0.435,-8.543 -1.262,-11.456 v 0 l -0.01,-0.037 -0.01,-0.043 c -0.056,-0.258 -0.095,-0.503 -0.097,-0.787 v 0 c -0.089,-0.833 0.726,-1.882 1.484,-2.035 v 0 l 0.148,-0.051 0.165,-0.019 c 1.078,-0.117 2.694,-0.337 4.823,-0.659 v 0 c 2.418,-0.472 3.95,-0.768 4.636,-0.892 v 0 c 0.297,-0.043 0.22,-0.06 0.635,-0.082 v 0 c 0.546,-0.013 1.082,0.291 1.346,0.596 v 0 c 0.28,0.307 0.41,0.595 0.516,0.872 v 0 c 0.161,0.452 0.244,0.914 0.303,1.459 v 0 c 0.267,-0.15 0.562,-0.313 0.886,-0.49 v 0 c 2.13,-1.165 4.273,-1.793 6.392,-1.793 v 0 c 0.681,0.008 1.26,0.051 1.878,0.305 v 0 c 0.604,0.188 1.388,1.035 1.338,1.932 v 0 c 0,0.692 -0.068,1.566 -0.191,2.671 v 0 c -0.122,1.148 -0.19,1.973 -0.206,2.356 v 0 c 0,0.575 0.008,1.354 0.028,2.309 v 0 c 0.041,1.214 0.062,2.01 0.062,2.442 v 0 c 0.013,0.653 -0.208,1.459 -0.82,2.007 v 0 c -0.609,0.544 -1.348,0.688 -1.997,0.687 v 0 c -0.451,0 -1.039,-0.027 -1.804,-0.081 v 0 c -0.728,-0.049 -1.268,-0.072 -1.566,-0.072 v 0 c -1.55,-0.025 -2.424,0.321 -2.481,0.431 v 0 c -0.047,0.002 -0.427,0.631 -0.403,2.084 v 0 c 0,0.863 0.016,2.191 0.047,3.976 v 0 c 0.029,1.793 0.046,3.131 0.046,4.025 v 0 c 0,0.528 0.037,1.392 0.119,2.545 v 0 c 0.082,1.196 0.126,2.086 0.126,2.727 v 0 c 0.022,0.579 -0.272,1.327 -0.804,1.735 v 0 c -0.52,0.413 -1.064,0.534 -1.586,0.587 v 0 c -1.059,0.087 -2.582,0.126 -4.627,0.126 v 0 c -1.979,10e-4 -3.571,-0.059 -4.843,-0.193 z m 4.839,-2.805 c 1.747,0 3.098,-0.031 4.004,-0.089 v 0 c -0.019,-0.486 -0.054,-1.117 -0.106,-1.877 v 0 c -0.084,-1.195 -0.125,-2.098 -0.125,-2.756 v 0 c 0,-0.861 -0.017,-2.191 -0.046,-3.974 v 0 c -0.03,-1.793 -0.047,-3.131 -0.049,-4.027 v 0 c 0.024,-1.773 0.259,-3.261 1.438,-4.351 v 0 c 1.168,-0.953 2.603,-1.138 4.447,-1.163 v 0 c 0.434,0 1.006,0.027 1.772,0.08 v 0 c 0.603,0.042 1.082,0.064 1.413,0.07 v 0 c -0.007,-0.424 -0.026,-1.115 -0.059,-2.053 v 0 c -0.021,-0.989 -0.031,-1.783 -0.028,-2.453 v 0 c 0.022,-0.577 0.097,-1.428 0.223,-2.62 v 0 c 0.069,-0.617 0.118,-1.148 0.146,-1.581 v 0 c -0.058,-0.002 -0.12,-0.003 -0.188,-0.002 v 0 c -1.521,0.002 -3.157,0.447 -4.952,1.429 v 0 c -1.278,0.69 -2.115,1.202 -2.229,1.298 v 0 c -0.69273,0.393389 0.051,-0.04753 0.059,-0.055 -0.67506,0.394202 -0.62183,0.410021 -1.063,0.548 -0.051,0 -0.1,-0.002 -0.148,-0.007 v 0 c -0.071,-0.005 -0.157,-0.016 -0.266,-0.046 v 0 c -0.104,-0.027 -0.203,-0.064 -0.294,-0.107 v 0 c -0.064,-0.022 -0.134,-0.061 -0.204,-0.113 v 0 c -0.24,-0.154 -0.412,-0.345 -0.502,-0.487 v 0 c -0.208,-0.309 -0.288,-0.556 -0.366,-0.81 v 0 c -0.139,-0.499 -0.209,-1.043 -0.267,-1.741 v 0 c -0.009,-0.137 -0.021,-0.265 -0.036,-0.38 v 0 c -0.069,0.013 -0.143,0.027 -0.219,0.042 v 0 c -0.827,0.157 -2.049,0.394 -3.663,0.711 v 0 l -0.035,0.006 -0.028,0.004 c -1.581,0.239 -2.887,0.424 -3.927,0.556 v 0 c 0.803,3.172 1.186,7.017 1.186,11.572 v 0 c 0,1.641 -0.009,4.087 -0.029,7.35 v 0 c -0.019,2.971 -0.029,5.266 -0.03,6.883 v 0 c 1.05,0.092 2.449,0.143 4.171,0.143 z"
   inkscape:connector-curvature="0"
   style="fill:#9fcfff"
   sodipodi:nodetypes="ccccccccccccccccccccccccccccccccccccccccccccccccccccccccccccccccccccccccccsccccccccccccccccccccccccccccccccccccccccccccccccccccccccccccccccs" />
	</g>
	<g
   id="g54">
		<path
   id="path50"
   d="m 335.524,38.618 c 0,2.064 -0.665,3.239 -1.993,3.525 -0.225,0.041 -2.34,0.266 -6.345,0.674 -2.411,0.266 -6.008,0.582 -10.789,0.95 0.286,1.329 1.154,2.34 2.605,3.034 1.185,0.572 2.533,0.858 4.046,0.858 1.818,0 3.647,-0.49 5.486,-1.471 0.776,-0.491 1.553,-0.981 2.33,-1.471 0.429,0.204 1.149,1.247 2.16,3.126 1.012,1.88 1.518,3.076 1.518,3.586 0,0.143 -0.153,0.378 -0.46,0.705 -2.493,2.677 -6.365,4.015 -11.616,4.015 -4.864,0 -8.787,-1.42 -11.771,-4.26 -3.065,-2.881 -4.598,-6.733 -4.598,-11.556 0,-4.7 1.369,-8.552 4.107,-11.556 2.819,-3.106 6.56,-4.659 11.218,-4.659 3.924,0 7.254,1.431 9.993,4.292 2.739,2.862 4.109,6.265 4.109,10.208 z m -10.729,-1.87 c 0,-1.267 -0.449,-2.38 -1.349,-3.341 -0.899,-0.96 -1.973,-1.44 -3.219,-1.44 -1.287,0 -2.35,0.542 -3.188,1.625 -0.776,1.001 -1.165,2.176 -1.165,3.525 0,0.552 0.286,0.828 0.858,0.828 1.512,0 3.862,-0.235 7.05,-0.705 0.676,-0.103 1.013,-0.267 1.013,-0.492 z"
   inkscape:connector-curvature="0"
   style="fill:#fcfcfc" />
		<path
   id="path52"
   d="m 309.668,52.983 c -3.391,-3.166 -5.088,-7.517 -5.071,-12.647 v 0 c -0.01,-4.984 1.483,-9.273 4.496,-12.565 v 0 c 3.091,-3.431 7.345,-5.168 12.329,-5.15 v 0 c 4.291,-0.019 8.103,1.622 11.077,4.754 v 0 c 2.984,3.1 4.536,6.95 4.523,11.243 v 0 c -0.004,1.189 -0.178,2.245 -0.693,3.167 v 0 c -0.501,0.927 -1.452,1.622 -2.53,1.833 v 0 c -0.199,0.034 -0.733,0.095 -1.65,0.193 v 0 c 0.313,0.286 0.521,0.602 0.811,0.989 v 0 c 0.411,0.596 0.864,1.363 1.386,2.334 v 0 c 0.52,0.966 0.915,1.765 1.198,2.431 v 0 c 0.273,0.691 0.474,1.15 0.496,1.866 v 0 c -0.022,0.606 -0.219,0.861 -0.357,1.103 v 0 c -0.151,0.232 -0.316,0.422 -0.503,0.623 v 0 c -2.874,3.085 -7.231,4.5 -12.714,4.494 v 0 c -0.018,0 -0.034,0 -0.051,0 v 0 c -5.126,0 -9.484,-1.548 -12.747,-4.668 z m 1.646,-23.194 c -2.463,2.715 -3.706,6.128 -3.717,10.546 v 0 c 0.017,4.512 1.383,7.866 4.132,10.469 v 0 c 2.686,2.542 6.155,3.833 10.736,3.846 v 0 c 4.986,-0.006 8.361,-1.25 10.48,-3.497 v 0 c -0.042,-0.116 -0.097,-0.257 -0.167,-0.417 v 0 c -0.221,-0.53 -0.583,-1.266 -1.075,-2.183 v 0 c -0.417,-0.798 -0.813,-1.446 -1.11,-1.891 v 0 c -0.419,0.265 -0.839,0.53 -1.259,0.795 v 0 l -0.048,0.031 -0.048,0.025 c -2.017,1.078 -4.101,1.649 -6.19,1.647 v 0 c -1.7,0.002 -3.289,-0.325 -4.694,-1.005 v 0 c -1.748,-0.809 -3.056,-2.257 -3.424,-4.072 v 0 l -0.362,-1.678 1.713,-0.132 c 4.771,-0.368 8.359,-0.683 10.753,-0.948 v 0 c 3.958,-0.401 6.209,-0.647 6.18,-0.647 v 0 c 0.296,-0.085 0.342,-0.12 0.505,-0.368 v 0 c 0.149,-0.252 0.309,-0.815 0.305,-1.69 v 0 c -0.013,-3.596 -1.202,-6.548 -3.691,-9.17 v 0 c -2.503,-2.59 -5.353,-3.811 -8.909,-3.828 v 0 c -4.334,0.015 -7.561,1.383 -10.11,4.167 z m 8.34,15.66 c 0.958,0.464 2.068,0.71 3.395,0.71 v 0 c 1.527,0 3.08,-0.4 4.719,-1.261 v 0 c 0.399,-0.252 0.799,-0.504 1.198,-0.756 v 0 c -0.497,0.051 -1.035,0.106 -1.615,0.166 v 0 c -2.001,0.221 -4.782,0.473 -8.355,0.76 v 0 c 0.187,0.129 0.405,0.255 0.658,0.381 z m -4.606,-6.632 c -0.523,-0.503 -0.681,-1.186 -0.675,-1.701 v 0 c -0.006,-1.635 0.496,-3.187 1.479,-4.442 v 0 c 1.041,-1.39 2.656,-2.232 4.374,-2.208 v 0 c 1.636,-0.017 3.192,0.693 4.313,1.916 v 0 c 1.132,1.191 1.767,2.741 1.753,4.365 v 0 c -0.017,0.973 -0.743,1.492 -1.097,1.641 v 0 c -0.41,0.192 -0.771,0.265 -1.194,0.335 v 0 c -3.228,0.474 -5.611,0.718 -7.269,0.72 v 0 c -0.008,0 -0.015,0 -0.022,0 v 0 c -0.504,0.001 -1.149,-0.133 -1.662,-0.626 z m 3.176,-4.306 c -0.438,0.575 -0.702,1.182 -0.803,1.917 v 0 c 1.33,-0.054 3.269,-0.258 5.746,-0.617 v 0 c -0.139,-0.486 -0.398,-0.922 -0.816,-1.379 v 0 c -0.678,-0.697 -1.27,-0.95 -2.124,-0.966 v 0 c -0.856,0.027 -1.366,0.267 -2.003,1.045 z"
   inkscape:connector-curvature="0"
   style="fill:#9fcfff" />
	</g>
	<g
   id="g60">
		<path
   id="path56"
   d="m 395.141,54.281 c 0.041,0.552 -0.245,0.828 -0.858,0.828 -0.389,0 -1.507,-0.225 -3.356,-0.674 -1.85,-0.449 -2.988,-0.756 -3.417,-0.919 -4.271,1.676 -8.368,2.513 -12.292,2.513 -6.313,0 -11.494,-2.104 -15.54,-6.314 -4.005,-4.148 -6.008,-9.39 -6.008,-15.724 0,-6.478 1.941,-11.852 5.824,-16.123 4.005,-4.414 9.205,-6.621 15.602,-6.621 3.105,0 6.027,0.593 8.767,1.778 2.962,1.308 5.292,3.147 6.988,5.517 0.347,0.491 0.521,0.838 0.521,1.042 0,0.654 -0.914,2.12 -2.743,4.398 -1.829,2.279 -3.009,3.417 -3.54,3.417 -0.122,0 -0.593,-0.418 -1.41,-1.257 -1.001,-1.001 -2.022,-1.777 -3.064,-2.329 -1.554,-0.838 -3.271,-1.257 -5.149,-1.257 -3.065,0 -5.498,1.145 -7.296,3.433 -1.676,2.104 -2.513,4.73 -2.513,7.877 0,3.331 0.868,5.967 2.605,7.908 1.798,2.003 4.342,3.004 7.632,3.004 2.084,0 4.414,-0.521 6.988,-1.563 -0.062,-0.674 -0.245,-2.391 -0.552,-5.149 -0.266,-2.125 -0.398,-3.842 -0.398,-5.149 0,-0.388 0.133,-0.624 0.398,-0.705 0.103,-0.041 0.266,-0.062 0.49,-0.062 0.593,0 1.487,0.057 2.683,0.168 1.195,0.113 2.1,0.169 2.713,0.169 0.653,0 1.634,-0.046 2.942,-0.138 1.308,-0.092 2.288,-0.138 2.942,-0.138 0.511,0 0.767,0.337 0.767,1.011 0,0.981 -0.057,2.463 -0.169,4.445 -0.112,1.982 -0.169,3.463 -0.169,4.444 0,2.636 0.194,6.58 0.583,11.832 z"
   inkscape:connector-curvature="0"
   style="fill:#fcfcfc" />
		<path
   id="path58"
   d="m 358.597,50.757 c -4.284,-4.42 -6.441,-10.122 -6.429,-16.768 v 0 c -0.011,-6.771 2.065,-12.581 6.214,-17.13 v 0 c 4.264,-4.726 9.974,-7.131 16.712,-7.112 v 0 c 3.297,-0.002 6.433,0.633 9.373,1.905 v 0 c 3.17,1.398 5.741,3.414 7.606,6.024 v 0 c 0.38,0.617 0.719,0.923 0.796,1.907 v 0 c -0.05,0.981 -0.421,1.536 -0.912,2.384 v 0 c -0.511,0.817 -1.224,1.786 -2.161,2.953 v 0 c -1.428,1.761 -2.409,2.861 -3.359,3.516 v 0 c -0.338,0.206 -0.68,0.439 -1.351,0.464 v 0 c -0.814,-0.079 -0.821,-0.269 -1.021,-0.354 v 0 c -0.151,-0.108 -0.277,-0.212 -0.421,-0.34 v 0 c -0.281,-0.252 -0.619,-0.583 -1.029,-1.002 v 0 c -0.913,-0.915 -1.819,-1.596 -2.715,-2.069 v 0 c -1.332,-0.717 -2.78,-1.075 -4.438,-1.077 v 0 c -2.696,0.027 -4.56,0.919 -6.122,2.867 v 0 c -1.44,1.815 -2.18,4.056 -2.187,6.944 v 0 c 0.007,3.083 0.784,5.292 2.222,6.904 v 0 c 1.49,1.64 3.514,2.49 6.517,2.507 v 0 c 1.566,0 3.363,-0.34 5.38,-1.057 v 0 c -0.095,-0.903 -0.239,-2.233 -0.433,-3.97 v 0 c -0.271,-2.165 -0.41,-3.928 -0.41,-5.335 v 0 c 0.002,-0.363 0.054,-0.773 0.293,-1.207 v 0 c 0.231,-0.434 0.709,-0.807 1.165,-0.934 v 0 l 10e-4,10e-4 c 0.38,-0.124 0.637,-0.121 0.931,-0.128 v 0 c 0.684,0 1.601,0.06 2.822,0.175 v 0 c 1.169,0.11 2.046,0.163 2.573,0.163 v 0 c 0.586,0 1.546,-0.044 2.836,-0.135 v 0 c 1.328,-0.092 2.326,-0.14 3.049,-0.14 v 0 c 0.565,-0.027 1.351,0.26 1.77,0.846 v 0 c 0.419,0.569 0.49,1.148 0.496,1.665 v 0 c 0,1.036 -0.059,2.532 -0.171,4.529 v 0 c -0.112,1.967 -0.167,3.434 -0.167,4.359 v 0 c 0,2.565 0.189,6.49 0.577,11.697 v 0 l 0.029,0.338 -1.492,0.133 1.497,-0.085 c 0.004,0.06 0.006,0.123 0.004,0.186 v 0 c 0.019,0.519 -0.198,1.244 -0.746,1.692 v 0 c -0.54,0.444 -1.13,0.534 -1.613,0.536 v 0 c -0.8,-0.025 -1.79,-0.263 -3.711,-0.717 v 0 c -1.401,-0.343 -2.367,-0.588 -3.023,-0.786 v 0 c -4.237,1.604 -8.352,2.422 -12.332,2.422 v 0 c -0.023,0 -0.048,0 -0.071,0 v 0 c -6.611,-10e-4 -12.257,-2.285 -16.549,-6.771 z m 2.005,-31.881 c -3.615,3.993 -5.423,8.93 -5.433,15.113 v 0 c 0.013,6.024 1.86,10.807 5.589,14.686 v 0 c 3.78,3.912 8.474,5.837 14.458,5.854 v 0 c 3.71,0 7.617,-0.792 11.746,-2.411 v 0 l 0.539,-0.21 0.542,0.206 c 0.239,0.098 1.419,0.425 3.236,0.863 v 0 c 0.985,0.241 1.763,0.415 2.293,0.519 v 0 c -0.362,-4.992 -0.544,-8.772 -0.544,-11.382 v 0 c 0,-1.036 0.056,-2.532 0.17,-4.528 v 0 c 0.093,-1.642 0.147,-2.936 0.161,-3.856 v 0 c -0.551,0.02 -1.254,0.059 -2.099,0.118 v 0 c -1.327,0.094 -2.328,0.142 -3.047,0.142 v 0 c -0.702,0 -1.634,-0.061 -2.854,-0.175 v 0 c -0.778,-0.073 -1.424,-0.121 -1.916,-0.145 v 0 c 0.039,1.118 0.162,2.533 0.375,4.234 v 0 c 0.307,2.763 0.49,4.474 0.555,5.179 v 0 l 0.101,1.108 -1.032,0.419 c -2.703,1.094 -5.216,1.671 -7.55,1.671 v 0 c -3.58,0.017 -6.644,-1.136 -8.751,-3.503 v 0 c -2.036,-2.267 -2.994,-5.329 -2.988,-8.907 v 0 c -0.006,-3.407 0.928,-6.42 2.834,-8.805 v 0 c 2.038,-2.636 5.042,-4.035 8.476,-4.007 v 0 c 2.101,-0.002 4.085,0.477 5.852,1.432 v 0 c 1.199,0.636 2.335,1.507 3.437,2.607 v 0 c 0.171,0.178 0.33,0.337 0.47,0.474 v 0 c 0.035,-0.032 0.071,-0.066 0.107,-0.103 v 0 c 0.513,-0.492 1.238,-1.313 2.13,-2.424 v 0 c 1.306,-1.591 2.112,-2.867 2.348,-3.364 v 0 c -0.046,-0.073 -0.104,-0.163 -0.176,-0.264 v 0 c -1.531,-2.136 -3.62,-3.799 -6.364,-5.014 v 0 c -2.549,-1.103 -5.256,-1.652 -8.171,-1.655 v 0 c -6.058,0.016 -10.747,2.025 -14.494,6.128 z m 29.276,0.605 c -10e-4,0 -10e-4,-0.001 0,0 z"
   inkscape:connector-curvature="0"
   style="fill:#9fcfff" />
	</g>
	<g
   id="g66">
		<path
   id="path62"
   d="m 430.022,39.936 c 0,1.574 0.092,3.913 0.275,7.019 0.185,3.106 0.276,5.436 0.276,6.989 0,0.817 -0.357,1.256 -1.073,1.318 -2.533,0.184 -5.436,0.276 -8.705,0.276 -0.388,0 -0.648,-0.587 -0.781,-1.763 -0.133,-1.175 -0.291,-1.772 -0.475,-1.793 -0.164,0.082 -0.379,0.256 -0.645,0.521 -2.288,2.31 -4.74,3.464 -7.355,3.464 -3.985,0 -7.285,-1.573 -9.901,-4.72 -2.473,-2.943 -3.708,-6.457 -3.708,-10.544 0,-4.72 1.276,-8.521 3.831,-11.402 2.656,-2.983 6.294,-4.475 10.912,-4.475 3.208,0 5.742,1.124 7.602,3.372 0.081,0.103 0.153,0.153 0.215,0.153 0.184,0 0.393,-0.495 0.628,-1.486 0.234,-0.991 0.516,-1.487 0.843,-1.487 0.756,0 2.196,0.215 4.322,0.644 2.022,0.409 3.474,0.756 4.353,1.042 0.307,0.123 0.46,0.286 0.46,0.49 0,0.082 -0.031,0.296 -0.093,0.644 -0.655,3.697 -0.981,7.611 -0.981,11.738 z m -9.87,0.184 c 0,-1.737 -0.547,-3.173 -1.64,-4.307 -1.094,-1.134 -2.519,-1.701 -4.275,-1.701 -1.758,0 -3.178,0.562 -4.261,1.686 -1.084,1.124 -1.625,2.565 -1.625,4.322 0,1.655 0.572,3.076 1.717,4.26 1.145,1.186 2.533,1.778 4.169,1.778 1.736,0 3.156,-0.567 4.26,-1.701 1.104,-1.134 1.655,-2.579 1.655,-4.337 z"
   inkscape:connector-curvature="0"
   style="fill:#fcfcfc" />
		<path
   id="path64"
   d="m 400.49,52.211 c -2.702,-3.202 -4.069,-7.123 -4.061,-11.509 v 0 c -0.009,-4.981 1.37,-9.205 4.211,-12.399 v 0 c 2.942,-3.328 7.102,-4.998 12.032,-4.979 v 0 c 2.761,-0.018 5.242,0.79 7.216,2.384 v 0 c 0.085,-0.243 0.185,-0.472 0.311,-0.699 v 0 c 0.229,-0.413 0.743,-1.103 1.761,-1.132 v 0 c 1.006,0.006 2.444,0.241 4.619,0.674 v 0 c 2.053,0.415 3.526,0.764 4.521,1.086 v 0 l 0.046,0.015 0.046,0.019 c 0.283,0.115 0.588,0.272 0.881,0.58 v 0 c 0.298,0.297 0.534,0.818 0.521,1.302 v 0 c -0.011,0.368 -0.052,0.51 -0.115,0.906 v 0 c -0.638,3.604 -0.958,7.43 -0.956,11.478 v 0 c -0.002,1.518 0.09,3.841 0.271,6.93 v 0 c 0.187,3.123 0.278,5.469 0.278,7.078 v 0 c 0,0.613 -0.132,1.3 -0.604,1.888 v 0 c -0.473,0.594 -1.214,0.883 -1.858,0.925 v 0 c -2.581,0.188 -5.518,0.28 -8.813,0.28 v 0 c -1.074,-0.015 -1.675,-0.85 -1.858,-1.333 v 0 c -0.133,-0.307 -0.223,-0.615 -0.29,-0.947 v 0 c -2.156,1.755 -4.564,2.716 -7.109,2.709 v 0 c -0.026,0 -0.054,0 -0.081,0 v 0 c -4.353,0 -8.156,-1.834 -10.969,-5.256 z m 2.393,-21.915 c -2.272,2.57 -3.447,5.946 -3.453,10.406 v 0 c 0.009,3.788 1.111,6.896 3.361,9.586 v 0 c 2.395,2.844 5.161,4.157 8.746,4.18 v 0 c 2.156,-0.008 4.187,-0.913 6.296,-3.026 v 0 c 0.329,-0.318 0.595,-0.572 1.034,-0.802 v 0 l 0.397,-0.199 0.439,0.05 c 0.886,0.148 1.141,0.674 1.279,0.889 v 0 c 0.143,0.262 0.201,0.463 0.262,0.68 v 0 c 0.11,0.431 0.186,0.917 0.259,1.547 v 0 c 0.017,0.165 0.037,0.309 0.059,0.429 v 0 c 2.8,-0.013 5.311,-0.097 7.51,-0.249 v 0 c -0.006,-1.499 -0.096,-3.76 -0.273,-6.744 v 0 c -0.185,-3.123 -0.279,-5.478 -0.279,-7.108 v 0 c 0,-4.079 0.313,-7.965 0.944,-11.654 v 0 c -0.816,-0.222 -1.989,-0.49 -3.479,-0.791 v 0 c -1.461,-0.299 -2.607,-0.484 -3.336,-0.566 v 0 c -0.024,0.084 -0.05,0.18 -0.073,0.284 v 0 c -0.227,0.835 -0.291,1.304 -0.771,1.979 v 0 c -0.172,0.208 -0.544,0.637 -1.316,0.662 v 0 c -0.934,-0.067 -1.187,-0.515 -1.371,-0.697 v 0 c -1.599,-1.898 -3.581,-2.805 -6.446,-2.828 v 0 c -4.304,0.02 -7.422,1.334 -9.789,3.972 z m 11.353,17.363 c -1.999,0.015 -3.868,-0.783 -5.247,-2.237 v 0 c -1.398,-1.427 -2.151,-3.301 -2.139,-5.302 v 0 c -0.013,-2.059 0.674,-3.959 2.045,-5.362 v 0 c 1.362,-1.434 3.271,-2.162 5.341,-2.146 v 0 c 2.072,-0.017 3.985,0.72 5.356,2.16 v 0 c 1.372,1.406 2.071,3.3 2.059,5.347 v 0 c 0.013,2.066 -0.692,3.973 -2.08,5.383 v 0 c -1.359,1.418 -3.24,2.156 -5.274,2.156 v 0 c -0.021,10e-4 -0.041,10e-4 -0.061,10e-4 z m -3.182,-10.821 c -0.797,0.844 -1.19,1.825 -1.203,3.282 v 0 c 0.013,1.308 0.404,2.277 1.296,3.219 v 0 c 0.908,0.917 1.816,1.302 3.089,1.318 v 0 c 1.415,-0.015 2.351,-0.41 3.186,-1.247 v 0 c 0.818,-0.858 1.216,-1.842 1.229,-3.291 v 0 c -0.013,-1.427 -0.406,-2.405 -1.218,-3.265 v 0 c -0.818,-0.829 -1.756,-1.227 -3.196,-1.244 v 0 c -1.447,0.019 -2.376,0.414 -3.183,1.228 z"
   inkscape:connector-curvature="0"
   style="fill:#9fcfff" />
	</g>
	<g
   id="g72">
		<path
   id="path68"
   d="m 485.103,54.128 c 0,0.716 -0.307,1.114 -0.92,1.196 -0.613,0.081 -2.126,0.123 -4.536,0.123 -2.494,0 -4.046,-0.062 -4.659,-0.184 -0.613,-0.122 -0.92,-0.623 -0.92,-1.502 0,-0.939 0.031,-2.345 0.092,-4.214 0.062,-1.87 0.092,-3.274 0.092,-4.215 0,-3.576 -0.041,-6.12 -0.122,-7.632 -0.123,-2.431 -1.277,-3.647 -3.464,-3.647 -0.961,0 -1.915,0.404 -2.865,1.211 -0.951,0.808 -1.477,1.701 -1.579,2.682 -0.082,0.858 -0.122,3.372 -0.122,7.54 0,0.961 0.03,2.417 0.092,4.368 0.061,1.952 0.092,3.418 0.092,4.398 0,0.674 -0.297,1.012 -0.889,1.012 h -9.288 c -0.572,0 -0.858,-0.418 -0.858,-1.257 0,-0.96 0.031,-2.401 0.093,-4.322 0.061,-1.92 0.092,-3.372 0.092,-4.353 0,-0.756 -0.021,-1.9 -0.062,-3.433 -0.041,-1.532 -0.062,-2.687 -0.062,-3.463 0,-2.922 -1.113,-4.383 -3.341,-4.383 -0.899,0 -1.87,0.348 -2.912,1.042 -1.145,0.756 -1.716,1.553 -1.716,2.391 0,1.86 0.01,4.639 0.03,8.337 0.02,3.698 0.03,6.467 0.03,8.306 0,0.511 -0.061,0.828 -0.184,0.95 -0.123,0.122 -0.439,0.204 -0.95,0.246 -0.92,0.081 -2.371,0.123 -4.353,0.123 -1.287,0 -2.748,-0.062 -4.383,-0.184 -0.49,-0.041 -0.782,-0.112 -0.874,-0.214 -0.092,-0.102 -0.138,-0.409 -0.138,-0.92 0,-1.634 0.01,-4.081 0.03,-7.341 0.021,-3.259 0.031,-5.706 0.031,-7.341 0,-3.351 -0.245,-7.121 -0.736,-11.31 -0.041,-0.245 -0.061,-0.429 -0.061,-0.552 0,-0.347 0.143,-0.583 0.429,-0.705 0.449,-0.184 1.298,-0.337 2.544,-0.46 1.533,-0.143 2.441,-0.234 2.729,-0.276 0.204,-0.041 1.011,-0.255 2.421,-0.644 1.001,-0.286 1.809,-0.429 2.422,-0.429 0.388,0 0.592,0.71 0.613,2.13 0.02,1.42 0.102,2.13 0.245,2.13 0.204,-0.082 0.438,-0.225 0.705,-0.429 1.839,-1.43 3.289,-2.411 4.353,-2.942 1.573,-0.756 3.279,-1.134 5.118,-1.134 1.88,0 3.556,0.419 5.027,1.257 1.655,0.94 2.728,2.258 3.218,3.954 1.083,-1.471 2.575,-2.708 4.476,-3.709 1.9,-1.001 3.749,-1.502 5.548,-1.502 2.697,0 4.894,0.624 6.59,1.87 1.921,1.41 2.882,3.423 2.882,6.039 0,1.083 -0.031,2.712 -0.093,4.889 -0.061,2.176 -0.092,3.806 -0.092,4.889 0,1.287 0.031,3.224 0.092,5.809 0.062,2.582 0.093,4.518 0.093,5.805 z"
   inkscape:connector-curvature="0"
   style="fill:#fcfcfc" />
		<path
   id="path70"
   d="m 474.693,56.733 c -0.645,-0.112 -1.33,-0.556 -1.675,-1.154 v 0 c -0.356,-0.594 -0.447,-1.211 -0.451,-1.818 v 0 c 0,-0.971 0.031,-2.385 0.093,-4.266 v 0 c 0.062,-1.86 0.091,-3.255 0.091,-4.165 v 0 c 0,-3.562 -0.042,-6.096 -0.12,-7.556 v 0 c -0.051,-1.007 -0.306,-1.53 -0.548,-1.778 v 0 c -0.24,-0.244 -0.586,-0.434 -1.418,-0.446 v 0 c -0.526,0.004 -1.12,0.207 -1.894,0.855 v 0 c -0.748,0.647 -0.996,1.165 -1.058,1.681 v 0 c -0.069,0.695 -0.118,3.259 -0.115,7.398 v 0 c 0,0.931 0.029,2.378 0.092,4.321 v 0 c 0.06,1.961 0.091,3.434 0.093,4.445 v 0 c -0.002,0.541 -0.113,1.188 -0.596,1.748 v 0 c -0.489,0.569 -1.234,0.777 -1.793,0.765 v 0 h -9.29 c -0.638,0.034 -1.489,-0.339 -1.881,-0.969 v 0 c -0.402,-0.609 -0.47,-1.207 -0.476,-1.789 v 0 c 0,-0.99 0.031,-2.439 0.093,-4.369 v 0 c 0.061,-1.913 0.092,-3.356 0.092,-4.306 v 0 c 0,-0.731 -0.021,-1.866 -0.063,-3.391 v 0 c -0.04,-1.542 -0.062,-2.703 -0.062,-3.505 v 0 c 0.005,-1.281 -0.266,-2.05 -0.528,-2.378 v 0 c -0.264,-0.314 -0.508,-0.48 -1.313,-0.505 v 0 c -0.504,-0.002 -1.198,0.202 -2.086,0.796 v 0 c -0.969,0.647 -1.057,1.054 -1.042,1.138 v 0 c 0,1.856 0.01,4.632 0.029,8.329 v 0 c 0.021,3.701 0.031,6.472 0.031,8.314 v 0 c -0.069,0.643 0.114,1.1 -0.625,2.014 v 0 c -0.824,0.678 -1.252,0.566 -1.877,0.676 v 0 c -1.008,0.088 -2.479,0.128 -4.483,0.128 v 0 c -1.335,0 -2.831,-0.063 -4.508,-0.189 v 0 c -0.295,-0.025 -0.552,-0.057 -0.819,-0.123 v 0 c -0.268,-0.088 -0.566,-0.105 -1.045,-0.583 v 0 c -0.426,-0.529 -0.406,-0.813 -0.472,-1.087 v 0 c -0.04,-0.274 -0.051,-0.535 -0.053,-0.836 v 0 c 0.002,-1.639 0.011,-4.088 0.031,-7.35 v 0 c 0.021,-3.259 0.032,-5.702 0.03,-7.333 v 0 c 0.002,-3.27 -0.237,-6.973 -0.722,-11.103 v 0 c -0.044,-0.273 -0.071,-0.496 -0.073,-0.759 v 0 c -0.073,-0.74 0.519,-1.801 1.359,-2.092 v 0 c 0.767,-0.301 1.649,-0.426 2.974,-0.567 v 0 c 1.416,-0.13 2.327,-0.223 2.604,-0.259 v 0 c 0.17,-0.039 1.008,-0.259 2.273,-0.609 v 0 c 1.081,-0.306 1.988,-0.482 2.833,-0.487 v 0 c 0.577,-0.017 1.154,0.335 1.409,0.674 v 0 c 0.276,0.339 0.386,0.646 0.477,0.943 v 0 c 0.123,0.445 0.181,0.902 0.208,1.435 v 0 c 1.225,-0.893 2.263,-1.559 3.173,-2.016 v 0 c 1.778,-0.855 3.723,-1.283 5.768,-1.281 v 0 c 2.101,-0.004 4.058,0.476 5.768,1.451 v 0 c 1.175,0.658 2.15,1.537 2.866,2.587 v 0 c 0.972,-0.902 2.107,-1.69 3.389,-2.364 v 0 c 2.068,-1.091 4.166,-1.677 6.246,-1.674 v 0 c 2.921,-0.004 5.47,0.682 7.478,2.159 v 0 c 2.307,1.66 3.524,4.274 3.495,7.249 v 0 c -0.002,1.11 -0.032,2.747 -0.095,4.929 v 0 c -0.06,2.169 -0.091,3.792 -0.091,4.849 v 0 c 0,1.264 0.031,3.193 0.091,5.772 v 0 c 0.063,2.591 0.093,4.533 0.093,5.843 v 0 c 0.002,0.563 -0.116,1.195 -0.54,1.751 v 0 c -0.421,0.562 -1.102,0.868 -1.683,0.933 v 0 c -0.812,0.101 -2.286,0.133 -4.731,0.135 v 0 c -2.548,-0.007 -4.039,-0.043 -4.953,-0.211 z m 4.954,-2.787 c 1.9,0.002 3.271,-0.03 3.956,-0.074 v 0 c -0.004,-1.263 -0.035,-3.106 -0.093,-5.516 v 0 c -0.061,-2.591 -0.093,-4.533 -0.093,-5.844 v 0 c 0,-1.112 0.032,-2.749 0.093,-4.931 v 0 c 0.062,-2.17 0.093,-3.792 0.093,-4.847 v 0 c -0.031,-2.256 -0.735,-3.667 -2.271,-4.831 v 0 c -1.384,-1.015 -3.228,-1.576 -5.702,-1.578 v 0 c -1.518,0 -3.118,0.419 -4.848,1.329 v 0 c -1.738,0.917 -3.037,2.008 -3.969,3.271 v 0 l -1.806,2.448 -0.842,-2.922 c -0.396,-1.325 -1.148,-2.273 -2.52,-3.067 v 0 c -1.232,-0.699 -2.627,-1.058 -4.285,-1.06 v 0 c -1.633,0.002 -3.101,0.331 -4.449,0.975 v 0 c -0.896,0.447 -2.307,1.386 -4.107,2.792 v 0 c -0.339,0.257 -0.666,0.472 -1.063,0.632 v 0 l -0.268,0.107 h -0.287 c -0.692,-0.004 -1.129,-0.444 -1.268,-0.655 v 0 c -0.166,-0.238 -0.213,-0.392 -0.259,-0.524 v 0 c -0.08,-0.259 -0.105,-0.451 -0.135,-0.683 v 0 c -0.051,-0.449 -0.074,-1.011 -0.085,-1.746 v 0 c 0,-0.204 -0.009,-0.388 -0.021,-0.549 v 0 c -0.319,0.061 -0.694,0.149 -1.117,0.271 v 0 c -1.437,0.396 -2.178,0.596 -2.525,0.67 v 0 l -0.031,0.006 -0.047,0.006 c -0.377,0.053 -1.255,0.141 -2.797,0.285 v 0 c -0.645,0.059 -1.18,0.139 -1.551,0.209 v 0 c 0.484,4.172 0.729,7.944 0.729,11.324 v 0 c 0,1.641 -0.013,4.091 -0.031,7.352 v 0 c -0.02,3.041 -0.03,5.375 -0.031,6.996 v 0 c 1.453,0.104 2.754,0.153 3.896,0.153 v 0 c 1.779,0 3.123,-0.035 3.985,-0.098 v 0 c -0.001,-1.83 -0.011,-4.504 -0.029,-8.018 v 0 c -0.021,-3.701 -0.031,-6.479 -0.031,-8.346 v 0 c 0.017,-1.59 1.068,-2.778 2.383,-3.638 v 0 c 1.202,-0.801 2.449,-1.292 3.745,-1.296 v 0 c 1.424,-0.025 2.85,0.54 3.699,1.688 v 0 c 0.849,1.133 1.135,2.557 1.142,4.196 v 0 c 0,0.752 0.021,1.9 0.061,3.423 v 0 c 0.04,1.54 0.062,2.692 0.062,3.474 v 0 c 0,1.011 -0.031,2.471 -0.091,4.401 v 0 c -0.058,1.752 -0.087,3.102 -0.092,4.03 v 0 l 8.031,0.002 C 464.77,52.828 464.741,51.536 464.69,49.9 v 0 c -0.062,-1.961 -0.093,-3.425 -0.093,-4.416 v 0 c 0.002,-4.196 0.036,-6.661 0.131,-7.697 v 0 c 0.143,-1.43 0.943,-2.7 2.1,-3.667 v 0 c 1.127,-0.964 2.439,-1.571 3.836,-1.569 v 0 c 1.354,-0.01 2.68,0.409 3.594,1.38 v 0 c 0.912,0.967 1.296,2.269 1.367,3.688 v 0 c 0.084,1.572 0.124,4.123 0.124,7.712 v 0 c 0,0.971 -0.029,2.385 -0.092,4.264 v 0 c -0.06,1.86 -0.091,3.259 -0.091,4.167 v 0 c 0,0.025 0,0.048 0.001,0.07 v 0 c 0.626,0.061 2.072,0.119 4.08,0.114 z"
   inkscape:connector-curvature="0"
   style="fill:#9fcfff" />
	</g>
	<g
   id="g78">
		<path
   id="path74"
   d="m 519.004,38.618 c 0,2.064 -0.665,3.239 -1.993,3.525 -0.225,0.041 -2.34,0.266 -6.345,0.674 -2.411,0.266 -6.008,0.582 -10.789,0.95 0.286,1.329 1.154,2.34 2.605,3.034 1.185,0.572 2.533,0.858 4.046,0.858 1.818,0 3.647,-0.49 5.486,-1.471 0.776,-0.491 1.553,-0.981 2.33,-1.471 0.429,0.204 1.149,1.247 2.16,3.126 1.012,1.88 1.518,3.076 1.518,3.586 0,0.143 -0.153,0.378 -0.46,0.705 -2.493,2.677 -6.365,4.015 -11.616,4.015 -4.864,0 -8.787,-1.42 -11.771,-4.26 -3.065,-2.881 -4.598,-6.733 -4.598,-11.556 0,-4.7 1.369,-8.552 4.107,-11.556 2.819,-3.106 6.56,-4.659 11.218,-4.659 3.924,0 7.254,1.431 9.993,4.292 2.739,2.862 4.109,6.265 4.109,10.208 z m -10.728,-1.87 c 0,-1.267 -0.449,-2.38 -1.349,-3.341 -0.899,-0.96 -1.973,-1.44 -3.219,-1.44 -1.287,0 -2.35,0.542 -3.188,1.625 -0.776,1.001 -1.165,2.176 -1.165,3.525 0,0.552 0.286,0.828 0.858,0.828 1.512,0 3.862,-0.235 7.05,-0.705 0.676,-0.103 1.013,-0.267 1.013,-0.492 z"
   inkscape:connector-curvature="0"
   style="fill:#fcfcfc" />
		<path
   id="path76"
   d="m 493.149,52.982 c -3.391,-3.166 -5.087,-7.517 -5.071,-12.648 v 0 c -0.011,-4.983 1.484,-9.272 4.496,-12.563 v 0 c 3.093,-3.43 7.346,-5.169 12.329,-5.152 v 0 c 4.291,-0.017 8.103,1.624 11.076,4.754 v 0 c 2.986,3.101 4.536,6.952 4.523,11.246 v 0 c -0.002,1.189 -0.177,2.244 -0.691,3.167 v 0 c -0.503,0.926 -1.453,1.622 -2.531,1.833 v 0 c -0.2,0.033 -0.733,0.095 -1.649,0.192 v 0 c 0.313,0.286 0.52,0.603 0.81,0.988 v 0 c 0.412,0.597 0.863,1.364 1.386,2.335 v 0 c 0.52,0.964 0.915,1.764 1.199,2.433 v 0 c 0.272,0.689 0.474,1.148 0.497,1.863 v 0 c -0.023,0.607 -0.221,0.861 -0.357,1.104 v 0 c -0.155,0.23 -0.317,0.423 -0.504,0.624 v 0 c -2.874,3.083 -7.231,4.499 -12.714,4.492 v 0 c -0.018,0 -0.034,0 -0.052,0 v 0 c -5.126,0 -9.486,-1.548 -12.747,-4.668 z m 1.645,-23.193 c -2.464,2.716 -3.707,6.129 -3.716,10.545 v 0 c 0.015,4.514 1.383,7.866 4.131,10.47 v 0 c 2.686,2.544 6.154,3.834 10.737,3.845 v 0 c 4.982,-0.006 8.359,-1.248 10.479,-3.494 v 0 c -0.041,-0.117 -0.097,-0.258 -0.165,-0.419 v 0 c -0.223,-0.529 -0.584,-1.267 -1.076,-2.183 v 0 c -0.417,-0.798 -0.813,-1.447 -1.11,-1.892 v 0 c -0.42,0.265 -0.84,0.53 -1.259,0.794 v 0 l -0.049,0.032 -0.047,0.025 c -2.016,1.076 -4.101,1.647 -6.19,1.647 v 0 c -1.7,0 -3.289,-0.326 -4.693,-1.005 v 0 c -1.749,-0.81 -3.056,-2.259 -3.426,-4.073 v 0 l -0.36,-1.68 1.712,-0.131 c 4.771,-0.368 8.36,-0.683 10.752,-0.948 v 0 c 3.96,-0.399 6.21,-0.647 6.181,-0.647 v 0 c 0.296,-0.084 0.343,-0.121 0.506,-0.368 v 0 c 0.149,-0.254 0.307,-0.816 0.304,-1.69 v 0 c -0.013,-3.596 -1.201,-6.55 -3.69,-9.171 v 0 c -2.504,-2.591 -5.354,-3.811 -8.91,-3.828 v 0 c -4.334,0.019 -7.562,1.387 -10.111,4.171 z m 8.34,15.661 c 0.958,0.461 2.068,0.708 3.395,0.708 v 0 c 1.537,0 3.099,-0.405 4.75,-1.278 v 0 c 0.389,-0.247 0.777,-0.493 1.167,-0.738 v 0 c -0.497,0.051 -1.034,0.106 -1.615,0.166 v 0 c -2.001,0.22 -4.783,0.473 -8.356,0.759 v 0 c 0.188,0.13 0.406,0.256 0.659,0.383 z m -4.606,-6.634 c -0.522,-0.501 -0.682,-1.185 -0.673,-1.701 v 0 c -0.009,-1.633 0.495,-3.185 1.479,-4.441 v 0 c 1.041,-1.39 2.656,-2.233 4.374,-2.206 v 0 c 1.637,-0.017 3.193,0.692 4.314,1.914 v 0 c 1.132,1.191 1.767,2.741 1.754,4.366 v 0 c -0.018,0.973 -0.745,1.493 -1.098,1.641 v 0 c -0.411,0.192 -0.771,0.265 -1.195,0.334 v 0 c -3.228,0.474 -5.611,0.719 -7.27,0.722 v 0 c -0.004,0 -0.008,0 -0.013,0 v 0 c -0.505,-10e-4 -1.155,-0.132 -1.672,-0.629 z m 3.177,-4.306 c -0.438,0.577 -0.702,1.184 -0.803,1.92 v 0 c 1.331,-0.055 3.269,-0.259 5.746,-0.618 v 0 c -0.139,-0.485 -0.399,-0.922 -0.817,-1.381 v 0 c -0.677,-0.696 -1.269,-0.948 -2.123,-0.965 v 0 c -0.857,0.026 -1.367,0.267 -2.003,1.044 z"
   inkscape:connector-curvature="0"
   style="fill:#9fcfff" />
	</g>
</g><g
     id="g118">
	<g
   id="g86">
		<path
   id="path82"
   d="m 221.201,95.161 c 0,4.148 -1.747,7.704 -5.241,10.667 -3.065,2.615 -6.794,4.28 -11.188,4.996 -0.164,0.02 -0.296,0.03 -0.398,0.03 -0.47,0 -1.512,-1.436 -3.126,-4.307 -1.614,-2.87 -2.421,-4.623 -2.421,-5.257 0,-0.225 0.153,-0.367 0.46,-0.429 2.962,-0.675 4.924,-1.246 5.885,-1.717 2.125,-1.063 3.188,-2.636 3.188,-4.72 0,-1.328 -0.695,-2.81 -2.084,-4.445 -2.411,-2.778 -3.719,-4.321 -3.923,-4.628 -1.41,-2.125 -2.115,-4.475 -2.115,-7.05 0,-3.739 1.727,-6.846 5.18,-9.318 2.82,-2.043 6.283,-3.371 10.391,-3.984 0.225,-0.021 0.398,-0.03 0.521,-0.03 0.307,0 0.552,0.245 0.736,0.735 0.531,1.492 1.767,4.189 3.708,8.092 0.062,0.123 0.092,0.226 0.092,0.307 0,0.348 -0.184,0.521 -0.552,0.521 -0.164,0 -0.44,-0.031 -0.828,-0.093 -0.389,-0.061 -0.685,-0.092 -0.889,-0.092 -1.471,0 -2.758,0.337 -3.862,1.012 -1.329,0.776 -1.992,1.859 -1.992,3.249 0,1.247 0.735,2.779 2.207,4.598 2.595,3.27 3.954,4.986 4.077,5.149 1.448,2.25 2.174,4.487 2.174,6.714 z"
   inkscape:connector-curvature="0"
   style="fill:#fcfcfc" />
		<path
   id="path84"
   d="m 202.88,111.673 c -0.298,-0.285 -0.563,-0.612 -0.856,-1.016 v 0 c -0.582,-0.801 -1.262,-1.91 -2.086,-3.375 v 0 c -0.817,-1.457 -1.438,-2.639 -1.871,-3.574 v 0 c -0.422,-0.977 -0.701,-1.54 -0.743,-2.417 v 0 c -0.017,-0.451 0.213,-1.043 0.594,-1.374 v 0 c 0.373,-0.34 0.753,-0.46 1.033,-0.518 v 0 c 2.91,-0.656 4.863,-1.25 5.548,-1.596 v 0 c 1.765,-0.947 2.307,-1.84 2.359,-3.379 v 0 c 0.013,-0.784 -0.453,-1.982 -1.717,-3.463 v 0 c -1.209,-1.391 -2.14,-2.475 -2.8,-3.253 v 0 c -0.677,-0.803 -1.014,-1.2 -1.242,-1.527 v 0 c -1.568,-2.356 -2.369,-5.03 -2.363,-7.88 v 0 c -0.027,-4.222 2.055,-7.891 5.799,-10.533 v 0 c 3.046,-2.206 6.754,-3.613 11.051,-4.253 v 0 l 0.017,-0.004 0.068,-0.007 c 0.252,-0.022 0.458,-0.035 0.658,-0.035 v 0 c 0.563,-0.014 1.145,0.273 1.474,0.621 v 0 c 0.341,0.35 0.523,0.716 0.674,1.109 v 0 c 0.48,1.357 1.709,4.054 3.636,7.926 v 0 c 0.116,0.244 0.242,0.516 0.25,0.977 v 0 c 0.01,0.418 -0.13,1.035 -0.606,1.481 v 0 c -0.476,0.443 -1.043,0.543 -1.444,0.538 v 0 c -0.339,-0.002 -0.636,-0.045 -1.058,-0.109 v 0 c -0.35,-0.056 -0.602,-0.076 -0.658,-0.072 v 0 c -1.246,0.002 -2.231,0.275 -3.106,0.807 v 0 c -0.979,0.625 -1.208,1.064 -1.25,1.954 v 0 c -0.027,0.642 0.488,1.966 1.883,3.665 v 0 c 2.605,3.282 3.934,4.96 4.099,5.18 v 0 l 0.038,0.05 0.024,0.039 c 1.573,2.432 2.417,4.967 2.415,7.526 v 0 c 0.021,4.58 -2.005,8.646 -5.767,11.809 v 0 c -3.282,2.804 -7.297,4.583 -11.92,5.335 v 0 l -0.033,0.004 -0.031,0.004 c -0.194,0.022 -0.37,0.041 -0.575,0.041 v 0 c -0.893,-0.06 -1.177,-0.428 -1.494,-0.681 z m -2.088,-9.221 c 0.375,0.814 0.966,1.945 1.761,3.36 v 0 c 0.963,1.762 1.823,3.01 2.21,3.491 v 0 c 4.059,-0.7 7.427,-2.237 10.225,-4.621 v 0 c 3.222,-2.761 4.691,-5.807 4.712,-9.521 v 0 c -0.002,-1.885 -0.601,-3.812 -1.911,-5.859 v 0 c -0.245,-0.313 -1.614,-2.042 -4.009,-5.061 v 0 c -1.556,-1.95 -2.512,-3.69 -2.539,-5.54 v 0 c -0.042,-1.892 1.057,-3.617 2.708,-4.53 v 0 c 1.36,-0.834 2.947,-1.235 4.646,-1.231 v 0 c 0.027,0 0.054,0.001 0.08,0.002 v 0 c -1.421,-2.905 -2.383,-5.021 -2.909,-6.418 v 0 c -3.801,0.602 -6.935,1.837 -9.478,3.679 v 0 c -3.156,2.299 -4.528,4.842 -4.555,8.1 v 0 c 0.006,2.301 0.614,4.325 1.864,6.219 v 0 c 0.002,0 0.015,0.021 0.062,0.082 v 0 c 0.05,0.063 0.12,0.151 0.211,0.261 v 0 c 0.178,0.22 0.432,0.524 0.755,0.905 v 0 c 0.648,0.763 1.575,1.842 2.79,3.24 v 0 c 1.504,1.779 2.427,3.545 2.439,5.416 v 0 c 0.052,2.63 -1.531,4.884 -4.027,6.067 v 0 c -1.079,0.518 -2.735,1.006 -5.201,1.594 v 0 c 0.052,0.112 0.106,0.235 0.166,0.365 z"
   inkscape:connector-curvature="0"
   style="fill:#9fcfff" />
	</g>
	<g
   id="g92">
		<path
   id="path88"
   d="m 246.581,100.281 c 0,0.612 -0.077,1.543 -0.23,2.789 -0.153,1.246 -0.23,2.161 -0.23,2.743 0,0.582 -0.061,0.955 -0.184,1.119 -0.123,0.163 -0.46,0.398 -1.012,0.704 -2.636,1.451 -5.559,2.177 -8.766,2.177 -5.906,0 -8.858,-2.258 -8.858,-6.774 0,-1.349 0.051,-3.376 0.153,-6.084 0.102,-2.707 0.153,-4.735 0.153,-6.084 0,-0.899 -0.521,-1.349 -1.563,-1.349 -0.082,0 -0.214,0 -0.398,0 -0.184,0.021 -0.317,0.03 -0.398,0.03 -0.777,0 -1.165,-0.275 -1.165,-0.827 0,-0.327 0.025,-0.828 0.077,-1.502 0.051,-0.675 0.077,-1.175 0.077,-1.502 0,-0.43 -0.026,-1.083 -0.077,-1.962 -0.051,-0.879 -0.077,-1.532 -0.077,-1.962 0,-0.408 0.654,-0.633 1.962,-0.674 0.736,-0.021 1.134,-0.225 1.195,-0.613 0.123,-0.776 0.164,-2.003 0.123,-3.679 -0.082,-2.636 -0.123,-3.893 -0.123,-3.77 0,-2.37 0.225,-3.556 0.674,-3.556 0.552,0 1.338,0.122 2.36,0.368 1.165,0.266 1.972,0.419 2.421,0.459 1.042,0.144 2.615,0.338 4.72,0.583 0.511,0.041 0.767,0.214 0.767,0.521 0,0.817 -0.067,2.054 -0.199,3.709 -0.133,1.655 -0.199,2.902 -0.199,3.739 0,1.002 0.296,1.502 0.889,1.502 0.715,0 1.798,-0.03 3.249,-0.092 1.451,-0.062 2.544,-0.092 3.28,-0.092 0.449,0 0.674,0.153 0.674,0.46 0,0.47 -0.051,1.175 -0.153,2.115 -0.103,0.939 -0.153,1.645 -0.153,2.114 0,0.49 0.01,1.206 0.031,2.146 0.02,0.94 0.031,1.655 0.031,2.146 0,0.43 -0.296,0.645 -0.889,0.645 -0.409,0 -1.093,-0.016 -2.054,-0.047 -0.96,-0.03 -1.645,-0.046 -2.053,-0.046 h -2.299 c -0.307,0 -0.46,0.45 -0.46,1.349 0,0.491 0,1.217 0,2.177 0.02,0.98 0.031,1.706 0.031,2.176 0,1.717 0.194,2.902 0.582,3.556 0.552,0.879 1.635,1.318 3.249,1.318 0.511,0 1.242,-0.117 2.192,-0.353 0.95,-0.234 1.619,-0.353 2.008,-0.353 0.427,10e-4 0.642,0.226 0.642,0.676 z"
   inkscape:connector-curvature="0"
   style="fill:#fcfcfc" />
		<path
   id="path90"
   d="m 236.159,111.313 c -3.132,-0.006 -5.678,-0.579 -7.554,-2.003 v 0 c -1.894,-1.424 -2.829,-3.706 -2.804,-6.271 v 0 c 0,-1.385 0.052,-3.423 0.155,-6.142 v 0 c 0.097,-2.594 0.147,-4.562 0.15,-5.875 v 0 c -0.02,-0.001 -0.041,-0.001 -0.063,-0.001 v 0 h -0.312 v 0 c -0.176,0.018 -0.315,0.029 -0.485,0.031 v 0 c -0.557,-0.007 -1.146,-0.075 -1.742,-0.484 v 0 c -0.615,-0.403 -0.954,-1.231 -0.923,-1.844 v 0 c 0.002,-0.401 0.029,-0.921 0.081,-1.614 v 0 c 0.05,-0.655 0.075,-1.138 0.073,-1.388 v 0 c 0,-0.375 -0.023,-1.013 -0.073,-1.877 v 0 c -0.054,-0.895 -0.081,-1.563 -0.081,-2.049 v 0 c -0.012,-0.513 0.261,-1.063 0.58,-1.349 v 0 c 0.318,-0.303 0.631,-0.441 0.925,-0.545 v 0 c 0.539,-0.179 1.082,-0.242 1.742,-0.271 v 0 c 0.032,-0.43 0.05,-0.979 0.05,-1.628 v 0 c 0,-0.35 -0.006,-0.73 -0.015,-1.127 v 0 c -0.066,-2.117 -0.107,-3.388 -0.118,-3.658 v 0 c -0.003,-0.022 -0.002,-0.029 -0.001,-0.031 v 0 c -0.004,-0.047 -0.006,-0.096 -0.005,-0.127 v 0 -0.017 0 c -0.001,-0.035 -0.001,-0.078 0.003,-0.13 v 0 c 0.04,-1.802 0.036,-2.841 0.572,-3.927 v 0 c 0.178,-0.362 0.749,-0.983 1.599,-0.981 v 0 c 0.766,0.004 1.625,0.151 2.694,0.405 v 0 c 1.132,0.261 1.931,0.404 2.22,0.429 v 0 l 0.045,0.004 0.027,0.005 c 1.022,0.139 2.588,0.333 4.635,0.572 v 0 c 0.399,0.038 0.822,0.104 1.297,0.414 v 0 c 0.488,0.288 0.884,1.026 0.849,1.602 v 0 c 0,0.895 -0.07,2.152 -0.203,3.83 v 0 c -0.132,1.63 -0.194,2.854 -0.195,3.615 v 0 c 0.649,-0.013 1.511,-0.041 2.574,-0.085 v 0 c 1.463,-0.063 2.568,-0.094 3.344,-0.094 v 0 c 0.387,0.007 0.838,0.042 1.351,0.375 v 0 c 0.53,0.325 0.856,1.078 0.824,1.585 v 0 c -0.002,0.573 -0.058,1.308 -0.164,2.278 v 0 c -0.1,0.908 -0.145,1.585 -0.145,1.951 v 0 c 0,0.47 0.01,1.18 0.031,2.114 v 0 c 0.021,0.943 0.031,1.666 0.031,2.177 v 0 c 0.029,0.545 -0.275,1.316 -0.842,1.697 v 0 c -0.551,0.385 -1.078,0.44 -1.546,0.446 v 0 c -0.445,0 -1.134,-0.014 -2.102,-0.047 v 0 c -0.952,-0.029 -1.633,-0.046 -2.005,-0.046 v 0 h -1.26 v 1.995 0 c 0.021,0.986 0.031,1.715 0.031,2.207 v 0 c -0.021,1.596 0.242,2.635 0.352,2.759 v 0 c 0.159,0.263 0.587,0.6 1.98,0.616 v 0 c 0.288,0.004 0.948,-0.087 1.833,-0.311 v 0 c 1.007,-0.242 1.699,-0.387 2.367,-0.395 v 0 c 0.456,-0.009 1.099,0.139 1.566,0.633 v 0 c 0.466,0.494 0.58,1.095 0.575,1.542 v 0 c 0,0.729 -0.084,1.692 -0.24,2.971 v 0 c -0.151,1.215 -0.222,2.103 -0.219,2.562 v 0 c -0.046,0.706 0.054,1.169 -0.486,2.021 v 0 c -0.482,0.575 -0.857,0.739 -1.486,1.115 v 0 c -2.858,1.575 -6.048,2.363 -9.476,2.363 v 0 c -0.002,0.003 -0.007,0.003 -0.011,0.003 z M 225.646,88.021 h 0.397 v 0 c 0.722,0.002 1.496,0.146 2.152,0.701 v 0 c 0.664,0.559 0.927,1.43 0.913,2.147 v 0 c 0,1.385 -0.052,3.423 -0.155,6.142 v 0 c -0.102,2.696 -0.151,4.713 -0.151,6.027 v 0 c 0.025,1.949 0.565,3.054 1.625,3.888 v 0 c 1.076,0.836 2.961,1.391 5.733,1.385 v 0 c 2.982,-0.002 5.632,-0.664 8.039,-1.989 v 0 c 0.168,-0.091 0.31,-0.176 0.416,-0.243 v 0 c 0.004,-0.074 0.007,-0.164 0.006,-0.266 v 0 c 0.002,-0.707 0.085,-1.648 0.242,-2.928 v 0 c 0.079,-0.64 0.135,-1.192 0.171,-1.645 v 0 c -0.219,0.045 -0.47,0.102 -0.745,0.172 v 0 c -1.016,0.25 -1.819,0.393 -2.551,0.398 v 0 c -1.837,0.015 -3.576,-0.527 -4.54,-2.055 v 0 c -0.646,-1.15 -0.77,-2.482 -0.792,-4.32 v 0 c 0,-0.448 -0.011,-1.169 -0.029,-2.175 v 0 c -0.002,-0.962 -0.002,-1.686 0,-2.177 v 0 c 0.062,-0.809 -0.076,-1.411 0.708,-2.338 v 0 c 0.285,-0.298 0.803,-0.525 1.251,-0.511 v 0 h 2.299 c 0.443,0 1.132,0.015 2.101,0.045 v 0 c 0.559,0.019 1.023,0.032 1.387,0.04 v 0 c -0.005,-0.357 -0.012,-0.774 -0.022,-1.25 v 0 C 244.08,86.124 244.07,85.401 244.07,84.89 v 0 c 0,-0.573 0.056,-1.308 0.161,-2.276 v 0 c 0.037,-0.333 0.066,-0.636 0.088,-0.902 v 0 c -0.624,0.014 -1.403,0.04 -2.333,0.079 v 0 c -1.465,0.064 -2.56,0.093 -3.313,0.093 v 0 c -0.72,0.046 -1.62,-0.453 -1.959,-1.111 v 0 c -0.362,-0.637 -0.422,-1.245 -0.43,-1.889 v 0 c 0,-0.912 0.068,-2.183 0.205,-3.859 v 0 c 0.087,-1.087 0.144,-1.989 0.173,-2.689 v 0 c -1.822,-0.214 -3.208,-0.386 -4.17,-0.518 v 0 -0.001 c -0.602,-0.062 -1.4,-0.221 -2.568,-0.485 v 0 c -0.417,-0.102 -0.788,-0.178 -1.103,-0.23 v 0 c -0.049,0.455 -0.081,1.107 -0.081,1.913 v 0 c 0,0.011 0.001,0.021 0.002,0.033 v 0 c 0,0.045 0.004,0.105 0.006,0.186 v 0 c 0.006,0.16 0.015,0.397 0.025,0.714 v 0 c 0.021,0.632 0.05,1.577 0.089,2.85 v 0 c 0.01,0.427 0.015,0.825 0.015,1.206 v 0 c 0,1.132 -0.043,2.018 -0.155,2.738 v 0 c -0.079,0.674 -0.625,1.315 -1.142,1.547 v 0 c -0.52,0.259 -0.995,0.314 -1.488,0.334 v 0 c -0.184,0.003 -0.347,0.013 -0.486,0.025 v 0 c 0.012,0.294 0.029,0.636 0.052,1.023 v 0 c 0.052,0.894 0.079,1.562 0.079,2.051 v 0 c 0,0.398 -0.029,0.918 -0.081,1.613 v 0 c -0.02,0.256 -0.035,0.485 -0.046,0.686 v 0 z m 3.091,-14.909 c -132.982975,30.59143 -66.49149,15.295713 0,0 z m -0.01,-0.25 c 0.003,0.024 0.005,0.04 0.006,0.052 v 0 c -0.003,-0.056 -0.008,-0.074 -0.01,-0.083 v 0 c 10e-4,0.011 0.002,0.021 0.004,0.031 z"
   inkscape:connector-curvature="0"
   style="fill:#9fcfff"
   sodipodi:nodetypes="ccccccccccccccccccccccccccccccccccccccccccccccccccccccccccccccccccccccccccccccccccccccccccccccccccccccccccccccccccccccccccccccccccccccccccccccccccccccccccccccccscccccccccccccccccccccccccccccccccccccccccccccccccccccccccccccccccccc" />
	</g>
	<g
   id="g98">
		<path
   id="path94"
   d="m 281.339,81.399 c 0,1.513 -0.072,3.781 -0.215,6.805 -0.143,3.024 -0.214,5.293 -0.214,6.805 0,1.472 0.051,3.678 0.153,6.621 0.102,2.942 0.153,5.139 0.153,6.59 0,0.552 -0.255,0.899 -0.766,1.042 -0.777,0.204 -2.421,0.307 -4.935,0.307 -2.228,0 -3.78,-0.062 -4.659,-0.184 -0.389,-0.062 -0.634,-0.307 -0.736,-0.736 -0.061,-0.612 -0.123,-1.226 -0.184,-1.839 -0.102,-0.939 -0.245,-1.41 -0.429,-1.41 0.286,0 -0.747,0.695 -3.096,2.085 -2.35,1.39 -4.485,2.084 -6.406,2.084 -5.416,0 -8.624,-2.441 -9.625,-7.326 -0.45,-2.268 -0.675,-5.558 -0.675,-9.869 0,-4.659 0.378,-8.338 1.134,-11.035 0.225,-0.837 0.644,-1.257 1.257,-1.257 0.939,0 2.37,0.011 4.291,0.031 1.92,0.021 3.351,0.03 4.292,0.03 0.633,0 0.95,0.266 0.95,0.797 0,0.144 -0.021,0.358 -0.062,0.644 -0.429,2.779 -0.644,5.6 -0.644,8.46 0,3.556 0.112,5.988 0.337,7.295 0.368,2.248 1.706,3.372 4.016,3.372 0.899,0 1.875,-0.398 2.927,-1.195 1.052,-0.797 1.599,-1.625 1.64,-2.482 0.041,-0.756 0.062,-5.886 0.062,-15.388 0,-0.674 0.051,-1.072 0.153,-1.195 0.123,-0.204 0.49,-0.307 1.103,-0.307 1.001,0 2.508,0.011 4.521,0.031 2.012,0.021 3.52,0.03 4.521,0.03 0.613,0 0.97,0.153 1.073,0.46 0.042,0.162 0.063,0.408 0.063,0.734 z"
   inkscape:connector-curvature="0"
   style="fill:#fcfcfc" />
		<path
   id="path96"
   d="m 270.622,110.865 c -0.95,-0.083 -1.841,-1.043 -1.961,-1.873 v 0 l -0.023,-0.101 -0.01,-0.096 c -0.027,-0.282 -0.056,-0.564 -0.083,-0.846 v 0 c -0.396,0.243 -0.851,0.517 -1.369,0.823 v 0 c -2.502,1.478 -4.881,2.29 -7.169,2.294 v 0 c -2.924,0 -5.438,-0.664 -7.376,-2.139 v 0 c -1.943,-1.472 -3.174,-3.693 -3.72,-6.397 v 0 c -0.482,-2.44 -0.702,-5.794 -0.704,-10.16 v 0 c 0.004,-4.742 0.376,-8.528 1.186,-11.425 v 0 c 0.159,-0.577 0.401,-1.137 0.871,-1.612 v 0 c 0.459,-0.482 1.188,-0.77 1.835,-0.755 v 0 c 0.95,0 2.383,0.013 4.306,0.031 v 0 c 1.918,0.021 3.346,0.03 4.277,0.03 v 0 c 0.511,0.002 1.119,0.096 1.676,0.549 v 0 c 0.565,0.459 0.791,1.204 0.774,1.748 v 0 c -0.002,0.283 -0.031,0.532 -0.079,0.873 v 0 c -0.418,2.702 -0.627,5.444 -0.627,8.231 v 0 c -0.002,3.513 0.12,5.936 0.317,7.051 v 0 c 0.151,0.89 0.434,1.343 0.765,1.623 v 0 c 0.333,0.279 0.849,0.488 1.771,0.492 v 0 c 0.44,0.006 1.125,-0.211 2.021,-0.892 v 0 c 0.875,-0.667 1.042,-1.132 1.047,-1.368 v 0 c 0.037,-0.623 0.06,-5.831 0.06,-15.305 v 0 c 0,-0.377 0.012,-0.693 0.05,-0.995 v 0 c 0.062,-0.278 0.034,-0.515 0.321,-0.971 v 0 l -0.004,-0.002 c 0.37,-0.592 0.881,-0.797 1.252,-0.904 v 0 c 0.391,-0.105 0.747,-0.129 1.138,-0.131 v 0 c 1.012,0 2.52,0.011 4.538,0.031 v 0 c 2.009,0.021 3.513,0.031 4.504,0.031 v 0 c 0.431,0.002 0.853,0.041 1.32,0.235 v 0 c 0.457,0.177 0.989,0.646 1.175,1.248 v 0 l 0.019,0.056 0.017,0.061 c 0.089,0.378 0.101,0.699 0.103,1.095 v 0 c 0,1.558 -0.072,3.84 -0.215,6.875 v 0 c -0.143,3.013 -0.213,5.269 -0.213,6.735 v 0 c 0,1.438 0.05,3.635 0.153,6.569 v 0 c 0.102,2.95 0.153,5.156 0.153,6.642 v 0 c 0.002,0.499 -0.124,1.076 -0.484,1.563 v 0 c -0.354,0.488 -0.888,0.792 -1.401,0.929 v 0 c -1.111,0.277 -2.739,0.348 -5.315,0.357 v 0 c -2.266,-0.001 -3.834,-0.055 -4.896,-0.2 z m 9.093,-2.984 c -0.007,-1.419 -0.057,-3.492 -0.152,-6.2 v 0 c -0.101,-2.953 -0.153,-5.169 -0.153,-6.673 v 0 c 0,-1.559 0.072,-3.839 0.215,-6.876 v 0 c 0.133,-2.809 0.205,-4.962 0.212,-6.43 v 0 c -0.996,-0.003 -2.384,-0.012 -4.169,-0.03 v 0 c -1.853,-0.019 -3.275,-0.03 -4.262,-0.032 v 0 0.004 0 c -0.002,9.528 -0.019,14.581 -0.064,15.458 v 0 c -0.079,1.489 -1.001,2.682 -2.232,3.606 v 0 c -1.208,0.914 -2.477,1.494 -3.832,1.5 v 0 c -1.386,0.004 -2.696,-0.348 -3.702,-1.194 v 0 c -1.008,-0.844 -1.577,-2.075 -1.792,-3.424 v 0 c -0.256,-1.509 -0.356,-3.95 -0.36,-7.548 v 0 c 0,-2.844 0.208,-5.651 0.619,-8.404 v 0 c -0.915,-0.003 -2.136,-0.011 -3.671,-0.027 v 0 c -1.762,-0.02 -3.11,-0.029 -4.038,-0.031 v 0 c -0.016,0.043 -0.033,0.096 -0.051,0.161 v 0 c -0.699,2.483 -1.08,6.055 -1.078,10.631 v 0 c -0.002,4.257 0.228,7.482 0.646,9.568 v 0 c 0.455,2.19 1.328,3.631 2.594,4.602 v 0 c 1.271,0.968 3.069,1.522 5.56,1.526 v 0 c 1.552,0.002 3.443,-0.573 5.64,-1.876 v 0 c 1.57,-0.92 2.62,-1.609 2.792,-1.749 v 0 c 0.49834,-0.37501 0.78269,-0.48211 1.069,-0.544 0.035,0 0.069,0.002 0.103,0.004 v 0 c 0.115,0.006 0.266,0.021 0.487,0.109 v 0 c 0.03,0.012 0.06,0.024 0.088,0.038 v 0 c 0.013,0.006 0.026,0.012 0.04,0.019 v 0 c 0.086,0.029 0.178,0.088 0.267,0.166 v 0 c 0.182,0.138 0.308,0.289 0.376,0.396 v 0 c 0.187,0.273 0.252,0.478 0.319,0.683 v 0 c 0.12,0.401 0.182,0.812 0.242,1.345 v 0 c 0.042,0.431 0.085,0.862 0.129,1.293 v 0 c 0.831,0.073 2.178,0.118 3.958,0.116 v 0 c 2.023,0.006 3.506,-0.083 4.2,-0.187 z"
   inkscape:connector-curvature="0"
   style="fill:#9fcfff"
   sodipodi:nodetypes="cccccccccccccccccccccccccccccccccccccccccccccccccccccccccccccccccccccccccccccccccccccccccccccccccccccccccccccccccccccccccccccccccccccccccccccccccccccccc" />
	</g>
	<g
   id="g104">
		<path
   id="path100"
   d="m 318.887,65.767 c 0,-0.449 -0.082,0.225 -0.245,2.022 -0.226,2.269 -0.398,5.17 -0.521,8.705 -0.164,4.006 -0.245,8.563 -0.245,13.671 0,8.439 0.234,14.447 0.705,18.022 0.041,0.389 0.062,0.634 0.062,0.736 0,0.225 -0.153,0.357 -0.46,0.398 -0.735,0.102 -3.443,0.153 -8.123,0.153 -1.104,0 -1.737,-0.215 -1.9,-0.644 -0.041,-0.776 -0.082,-1.553 -0.122,-2.33 -0.021,-0.163 -0.103,-0.326 -0.245,-0.49 -0.123,0.062 -0.276,0.184 -0.46,0.368 -2.207,2.166 -4.966,3.249 -8.276,3.249 -4.312,0 -7.765,-1.513 -10.36,-4.537 -2.473,-2.881 -3.708,-6.518 -3.708,-10.911 0,-4.455 1.215,-8.123 3.647,-11.004 2.574,-3.065 6.048,-4.599 10.421,-4.599 3.086,0 5.487,0.981 7.203,2.943 0.286,0.327 0.49,0.49 0.613,0.49 0.184,0 0.275,-0.266 0.275,-0.797 0,-1.573 -0.041,-3.924 -0.122,-7.05 -0.082,-3.127 -0.123,-5.466 -0.123,-7.02 0,-0.593 0.164,-0.93 0.491,-1.012 1.307,-0.061 3.105,-0.184 5.395,-0.367 4.087,-0.511 5.895,-0.767 5.425,-0.767 0.448,0.004 0.673,0.26 0.673,0.771 z m -11.555,28.168 c 0,-1.613 -0.563,-3.028 -1.686,-4.245 -1.125,-1.215 -2.483,-1.823 -4.077,-1.823 -1.676,0 -3.009,0.608 -4,1.823 -0.991,1.217 -1.486,2.672 -1.486,4.368 0,1.655 0.5,3.055 1.502,4.199 1.021,1.227 2.35,1.839 3.984,1.839 1.634,0 3.004,-0.612 4.107,-1.839 1.104,-1.226 1.656,-2.667 1.656,-4.322 z"
   inkscape:connector-curvature="0"
   style="fill:#fcfcfc" />
		<path
   id="path102"
   d="m 287.555,106.07 c -2.729,-3.17 -4.078,-7.222 -4.07,-11.89 v 0 c -0.006,-4.72 1.312,-8.796 4,-11.968 v 0 c 2.834,-3.408 6.853,-5.158 11.57,-5.134 v 0 c 2.502,-0.015 4.755,0.61 6.571,1.872 v 0 c -0.019,-1.304 -0.053,-2.887 -0.102,-4.746 v 0 c -0.082,-3.135 -0.124,-5.48 -0.124,-7.06 v 0 c 0.004,-0.433 0.046,-0.869 0.273,-1.354 v 0 c 0.209,-0.481 0.759,-0.984 1.354,-1.112 v 0 l 0.143,-0.038 0.153,-0.006 c 1.268,-0.06 3.04,-0.181 5.299,-0.36 v 0 c 3.061,-0.381 4.95,-0.646 5.226,-0.7 v 0 c 0.017,-0.005 0.023,-0.005 0.029,-0.007 v 0 c 0.334,-0.068 0.25218,-0.04003 0.334,-0.068 0.018,-0.001 0.036,-0.001 0.055,-0.001 v 0 h 0.017 v 0 c 0.482,0.005 1.129,0.2 1.561,0.702 v 0 c 0.363,0.42 0.493,0.883 0.53,1.288 v 0 c 0.002,0.021 0.004,0.038 0.006,0.055 v 0 c 0.006,0.098 0.006,0.153 0.006,0.224 v 0 c -0.0188,0.123127 0.0117,0 -0.0346,0.249222 -0.0442,0.198221 -0.041,0.194978 -0.0624,0.315778 v 0 c -0.037,0.342 -0.089,0.876 -0.155,1.604 v 0 c -0.22,2.221 -0.392,5.097 -0.516,8.62 v 0 c -0.163,3.979 -0.244,8.517 -0.242,13.608 v 0 c -0.002,8.407 0.236,14.394 0.695,17.865 v 0 c 0.042,0.418 0.066,0.635 0.07,0.896 v 0 c 0.021,0.445 -0.219,1.066 -0.633,1.401 v 0 c -0.405,0.341 -0.805,0.437 -1.121,0.482 v 0 c -1,0.128 -3.601,0.161 -8.328,0.167 v 0 c -0.65,-0.004 -1.219,-0.054 -1.784,-0.24 v 0 c -0.544,-0.174 -1.223,-0.592 -1.519,-1.369 v 0 l -0.085,-0.222 -0.01,-0.233 c -10e-4,-0.011 -0.002,-0.021 -0.002,-0.032 v 0 c -2.175,1.5 -4.765,2.262 -7.604,2.25 v 0 h -0.091 v 0 c -4.618,-0.001 -8.572,-1.725 -11.409,-5.059 z m 2.224,-21.927 c -2.174,2.588 -3.285,5.848 -3.292,10.037 v 0 c 0.009,4.12 1.13,7.341 3.347,9.934 v 0 c 2.336,2.692 5.255,3.994 9.222,4.015 v 0 c 2.985,-0.015 5.28,-0.93 7.213,-2.808 v 0 c 0.25,-0.244 0.474,-0.453 0.853,-0.65 v 0 l 1.039,-0.521 0.763,0.878 c 0.275,0.314 0.532,0.747 0.601,1.287 v 0 l 0.008,0.056 0.002,0.054 c 0.026,0.513 0.053,1.023 0.08,1.534 v 0 c 0.124,0.012 0.274,0.02 0.446,0.018 v 0 c 3.325,0.004 5.714,-0.03 6.974,-0.079 v 0 c -0.446,-3.747 -0.657,-9.619 -0.659,-17.732 v 0 c 0.002,-5.123 0.083,-9.699 0.246,-13.722 v 0 c 0.124,-3.557 0.298,-6.484 0.527,-8.786 v 0 c 0.032,-0.363 0.062,-0.682 0.088,-0.956 v 0 c -0.039,0.006 -0.079,0.012 -0.12,0.018 v 0 c -0.928,0.128 -2.306,0.308 -4.143,0.537 v 0 l -0.037,0.005 -0.029,0.002 c -1.798,0.144 -3.297,0.251 -4.504,0.32 v 0 c 0.007,1.523 0.046,3.708 0.121,6.545 v 0 c 0.081,3.133 0.122,5.489 0.122,7.089 v 0 c -0.063,0.531 0.11,0.968 -0.612,1.825 v 0 c -0.263,0.274 -0.751,0.483 -1.162,0.47 v 0 c -0.729,-0.04 -0.954,-0.299 -1.182,-0.449 v 0 c -0.214,-0.174 -0.381,-0.348 -0.561,-0.553 v 0 c -1.422,-1.602 -3.292,-2.412 -6.073,-2.432 v 0 c -4.032,0.021 -6.961,1.338 -9.278,4.064 z m 6.676,15.1 c -1.25,-1.411 -1.883,-3.232 -1.873,-5.186 v 0 c -0.008,-1.986 0.608,-3.836 1.823,-5.317 v 0 c 1.241,-1.557 3.13,-2.398 5.164,-2.373 v 0 c 1.98,-0.02 3.826,0.816 5.18,2.305 v 0 c 1.354,1.45 2.094,3.298 2.081,5.262 v 0 h 0.002 c 0.011,1.988 -0.703,3.856 -2.042,5.326 v 0 c -1.335,1.515 -3.209,2.354 -5.221,2.334 v 0 h -0.085 v 0 c -1.979,0 -3.812,-0.852 -5.029,-2.351 z m 2.275,-8.607 c -0.766,0.953 -1.14,2.013 -1.148,3.422 v 0 c 0.011,1.355 0.377,2.334 1.155,3.238 v 0 c 0.781,0.906 1.57,1.276 2.832,1.3 v 0 c 1.256,-0.02 2.121,-0.404 2.992,-1.344 v 0 c 0.869,-0.982 1.258,-1.996 1.269,-3.318 v 0 h 0.002 c -0.013,-1.263 -0.397,-2.245 -1.287,-3.226 v 0 c -0.9,-0.946 -1.77,-1.324 -2.976,-1.343 v 0 c -1.318,0.025 -2.098,0.4 -2.839,1.271 z"
   inkscape:connector-curvature="0"
   style="fill:#9fcfff"
   sodipodi:nodetypes="cccccccccccccccccccccccccccccccccccccccccccccccccccccccccccccccccccccccccccccccccccccccccccccccccccccccccccccccccccccccccccccccccccccccccccccccccccccccccccccccc" />
	</g>
	<g
   id="g110">
		<path
   id="path106"
   d="m 334.764,95.192 c 0,1.492 0.031,3.715 0.092,6.667 0.062,2.953 0.092,5.165 0.092,6.636 0,0.43 -0.255,0.686 -0.766,0.767 -0.695,0.123 -2.259,0.184 -4.689,0.184 -2.452,0 -4.026,-0.061 -4.721,-0.184 -0.45,-0.081 -0.726,-0.215 -0.828,-0.398 -0.041,-0.081 -0.061,-0.388 -0.061,-0.92 0,-1.409 0.03,-3.529 0.092,-6.359 0.062,-2.83 0.092,-4.961 0.092,-6.392 0,-5.803 -0.225,-10.421 -0.674,-13.854 -0.042,-0.326 -0.062,-0.541 -0.062,-0.644 0,-0.408 0.275,-0.613 0.827,-0.613 0.572,0 1.445,0.062 2.621,0.185 1.175,0.122 2.059,0.184 2.651,0.184 0.592,0 1.481,-0.051 2.666,-0.153 1.186,-0.102 2.074,-0.153 2.667,-0.153 0.49,0 0.735,0.205 0.735,0.613 0,0.082 -0.021,0.275 -0.061,0.582 -0.448,3.983 -0.673,8.601 -0.673,13.852 z m 0.797,-22.774 c 0,3.556 -2.003,5.333 -6.008,5.333 -1.716,0 -3.137,-0.449 -4.26,-1.349 -1.227,-0.98 -1.84,-2.309 -1.84,-3.984 0,-1.594 0.634,-2.901 1.9,-3.924 1.165,-0.939 2.564,-1.41 4.199,-1.41 1.594,0 2.974,0.48 4.139,1.441 1.247,1.022 1.87,2.32 1.87,3.893 z"
   inkscape:connector-curvature="0"
   style="fill:#fcfcfc" />
		<path
   id="path108"
   d="m 324.504,110.736 c -0.592,-0.141 -1.281,-0.229 -1.899,-1.195 v 0 c -0.238,-0.563 -0.164,-0.625 -0.205,-0.871 v 0 c -0.013,-0.209 -0.017,-0.441 -0.019,-0.727 v 0 c 0.002,-1.43 0.031,-3.557 0.093,-6.394 v 0 c 0.063,-2.824 0.092,-4.947 0.092,-6.358 v 0 c 0,-5.762 -0.226,-10.333 -0.662,-13.662 v 0 c -0.044,-0.362 -0.07,-0.571 -0.073,-0.836 v 0 c -0.026,-0.523 0.257,-1.28 0.813,-1.665 v 0 c 0.538,-0.385 1.062,-0.443 1.515,-0.447 v 0 c 0.565,0 1.292,0.047 2.225,0.137 v 0 c -0.736,-0.273 -1.419,-0.653 -2.028,-1.145 v 0 c -1.574,-1.227 -2.429,-3.118 -2.402,-5.153 v 0 c -0.024,-1.999 0.88,-3.851 2.458,-5.093 v 0 c 1.431,-1.164 3.222,-1.752 5.143,-1.742 v 0 c 1.893,-0.01 3.67,0.601 5.087,1.779 v 0 c 1.555,1.244 2.444,3.079 2.421,5.056 v 0 h -0.002 c 0.015,2.037 -0.606,3.888 -2.005,5.12 v 0 c -0.589,0.519 -1.267,0.903 -2.021,1.177 v 0 c 0.698,-0.05 1.268,-0.075 1.729,-0.075 v 0 c 0.441,0.002 0.993,0.078 1.513,0.502 v 0 c 0.53,0.427 0.741,1.128 0.723,1.612 v 0 c -0.005,0.279 -0.031,0.435 -0.068,0.749 v 0 c -0.443,3.912 -0.666,8.479 -0.666,13.687 v 0 c 0,1.472 0.03,3.689 0.091,6.636 v 0 c 0.062,2.959 0.093,5.177 0.093,6.666 v 0 c 0.013,0.501 -0.187,1.146 -0.629,1.575 v 0 c -0.437,0.43 -0.952,0.602 -1.376,0.67 v 0 c -0.941,0.157 -2.475,0.201 -4.949,0.207 v 0 c -2.5,-0.007 -4.044,-0.051 -4.992,-0.21 z m 8.941,-2.897 c -0.007,-1.43 -0.036,-3.417 -0.089,-5.951 v 0 c -0.061,-2.958 -0.092,-5.185 -0.092,-6.697 v 0 h -0.002 c 0.002,-5.066 0.209,-9.564 0.63,-13.522 v 0 c -0.455,0.024 -1.015,0.064 -1.666,0.121 v 0 c -1.211,0.104 -2.123,0.157 -2.795,0.157 v 0 c -0.693,0 -1.604,-0.066 -2.809,-0.19 v 0 c -0.668,-0.07 -1.234,-0.119 -1.684,-0.147 v 0 c 0.422,3.48 0.627,7.992 0.627,13.582 v 0 c 0,1.45 -0.031,3.588 -0.091,6.425 v 0 c -0.061,2.748 -0.092,4.822 -0.094,6.213 v 0 c 0.697,0.067 2.134,0.119 4.111,0.114 v 0 c 1.839,0.004 3.206,-0.042 3.954,-0.105 z m 0.501,-0.058 c 0,0 0,-0.001 0,-0.003 v 0 z M 326.294,69.66 c -0.954,0.803 -1.316,1.566 -1.344,2.759 v 0 c 0.027,1.313 0.399,2.077 1.279,2.812 v 0 c 0.827,0.656 1.86,1.014 3.323,1.02 v 0 c 1.796,0 2.9,-0.405 3.509,-0.955 v 0 c 0.604,-0.545 0.984,-1.359 0.999,-2.876 v 0 h -0.002 c -0.022,-1.174 -0.381,-1.935 -1.322,-2.738 v 0 c -0.908,-0.738 -1.891,-1.088 -3.184,-1.099 v 0 c -1.35,0.008 -2.358,0.362 -3.258,1.077 z"
   inkscape:connector-curvature="0"
   style="fill:#9fcfff" />
	</g>
	<g
   id="g116">
		<path
   id="path112"
   d="m 370.167,94.181 c 0,4.658 -1.425,8.439 -4.275,11.341 -2.85,2.902 -6.596,4.353 -11.234,4.353 -4.495,0 -8.194,-1.431 -11.096,-4.291 -2.901,-2.861 -4.353,-6.539 -4.353,-11.035 0,-4.74 1.39,-8.587 4.169,-11.54 2.778,-2.953 6.539,-4.43 11.279,-4.43 4.618,0 8.357,1.446 11.219,4.338 2.86,2.891 4.291,6.646 4.291,11.264 z m -10.054,0 c 0,-1.614 -0.501,-3.04 -1.502,-4.276 -1.001,-1.236 -2.299,-1.854 -3.893,-1.854 -1.614,0 -2.942,0.634 -3.984,1.9 -0.981,1.186 -1.472,2.596 -1.472,4.23 0,1.654 0.49,3.075 1.472,4.26 1.042,1.268 2.37,1.9 3.984,1.9 1.594,0 2.912,-0.633 3.954,-1.9 0.96,-1.185 1.441,-2.606 1.441,-4.26 z"
   inkscape:connector-curvature="0"
   style="fill:#fcfcfc" />
		<path
   id="path114"
   d="m 354.656,111.374 c -4.808,0.013 -8.974,-1.577 -12.148,-4.725 v 0 c -3.197,-3.133 -4.813,-7.288 -4.8,-12.103 v 0 c -0.012,-5.026 1.509,-9.32 4.577,-12.568 v 0 c 3.069,-3.282 7.33,-4.917 12.371,-4.903 v 0 c 4.924,-0.012 9.142,1.59 12.285,4.785 v 0 c 3.158,3.175 4.739,7.398 4.725,12.321 v 0 c 0.013,4.953 -1.559,9.201 -4.706,12.391 v 0 c -3.121,3.194 -7.323,4.802 -12.237,4.802 v 0 c -0.023,0 -0.046,0 -0.067,0 z m -10.188,-27.34 c -2.49,2.659 -3.75,6.059 -3.762,10.513 v 0 c 0.017,4.179 1.302,7.378 3.907,9.967 v 0 c 2.627,2.574 5.859,3.846 10.042,3.858 v 0 c 4.334,-0.015 7.598,-1.31 10.164,-3.902 v 0 c 2.554,-2.615 3.833,-5.93 3.846,-10.288 v 0 C 368.65,89.865 367.37,86.579 364.809,83.97 v 0 c -2.58,-2.587 -5.84,-3.879 -10.153,-3.892 v 0 c -4.441,0.015 -7.7,1.334 -10.188,3.956 z m 5.11,15.363 c -1.209,-1.448 -1.826,-3.269 -1.815,-5.215 v 0 c -0.011,-1.935 0.608,-3.744 1.812,-5.185 v 0 c 1.266,-1.576 3.133,-2.472 5.145,-2.447 v 0 c 1.984,-0.024 3.829,0.854 5.057,2.41 v 0 c 1.212,1.479 1.845,3.295 1.837,5.222 v 0 c 0.008,1.94 -0.592,3.754 -1.783,5.21 v 0 c -1.261,1.573 -3.116,2.471 -5.11,2.448 v 0 c -0.027,0 -0.055,0 -0.082,0 v 0 c -1.982,0 -3.817,-0.892 -5.061,-2.443 z m 2.31,-8.49 c -0.756,0.926 -1.118,1.936 -1.128,3.274 v 0 c 0.01,1.358 0.374,2.379 1.132,3.305 v 0 c 0.818,0.958 1.606,1.33 2.826,1.354 v 0 c 1.19,-0.023 1.972,-0.391 2.788,-1.345 v 0 c 0.735,-0.921 1.097,-1.949 1.105,-3.313 v 0 c -0.009,-1.306 -0.376,-2.342 -1.168,-3.335 v 0 c -0.772,-0.916 -1.522,-1.273 -2.726,-1.297 v 0 c -1.217,0.023 -2.007,0.395 -2.829,1.357 z"
   inkscape:connector-curvature="0"
   style="fill:#9fcfff" />
	</g>
</g></g>
<rect
   style="opacity:1;fill:#9fcfff;fill-opacity:1;stroke:#000000;stroke-width:0.5;stroke-linecap:round;stroke-linejoin:round;stroke-miterlimit:4;stroke-dasharray:none;stroke-opacity:1;paint-order:stroke fill markers"
   id="rect933"
   width="37.821148"
   height="239.3576"
   x="556.53131"
   y="-62.058975"
   ry="3.4801099" /><rect
   style="opacity:1;fill:#5eaeff;fill-opacity:1;stroke:#000000;stroke-width:0.5;stroke-linecap:round;stroke-linejoin:round;stroke-miterlimit:4;stroke-dasharray:none;stroke-opacity:1;paint-order:stroke fill markers"
   id="rect933-3"
   width="37.821148"
   height="239.3576"
   x="594.35248"
   y="-62.058975"
   ry="3.4801099" /><rect
   style="opacity:1;fill:#bbddff;fill-opacity:1;stroke:#000000;stroke-width:0.5;stroke-linecap:round;stroke-linejoin:round;stroke-miterlimit:4;stroke-dasharray:none;stroke-opacity:1;paint-order:stroke fill markers"
   id="rect933-3-6"
   width="37.821148"
   height="239.3576"
   x="632.17365"
   y="-62.058983"
   ry="3.4801099" /><rect
   style="opacity:1;fill:#0482ff;fill-opacity:1;stroke:#000000;stroke-width:0.5;stroke-linecap:round;stroke-linejoin:round;stroke-miterlimit:4;stroke-dasharray:none;stroke-opacity:1;paint-order:stroke fill markers"
   id="rect933-3-6-7"
   width="37.821148"
   height="239.3576"
   x="669.99481"
   y="-62.058983"
   ry="3.4801099" /></svg>