<?xml version="1.0" encoding="utf-8"?>
<!-- Generator: Adobe Illustrator 19.0.0, SVG Export Plug-In . SVG Version: 6.00 Build 0)  -->
<svg version="1.1" baseProfile="tiny"
	 id="svg7148" inkscape:version="0.48.4 r9939" sodipodi:docname="Commodore_logo.svg" xmlns:rdf="http://www.w3.org/1999/02/22-rdf-syntax-ns#" xmlns:dc="http://purl.org/dc/elements/1.1/" xmlns:svg="http://www.w3.org/2000/svg" xmlns:inkscape="http://www.inkscape.org/namespaces/inkscape" xmlns:cc="http://creativecommons.org/ns#" xmlns:sodipodi="http://sodipodi.sourceforge.net/DTD/sodipodi-0.dtd"
	 xmlns="http://www.w3.org/2000/svg" xmlns:xlink="http://www.w3.org/1999/xlink" x="0px" y="0px" viewBox="-54.3 345.6 482 105.2"
	 xml:space="preserve">
<g>
	<g id="Logo">
		<path id="path3002" fill="#002255" d="M-1.6,345.6c-29.1,0-52.6,23.6-52.6,52.6c0,29.1,23.6,52.6,52.6,52.6c5.6,0,11-0.9,16-2.5
			v-26.3c-4.4,2.5-9.5,4-14.9,4c-16,0-28.9-12.5-28.9-27.8s13-27.8,28.9-27.8c5.5,0,10.6,1.5,14.9,4v-26.3
			C9.4,346.5,4,345.6-1.6,345.6z"/>
		<polygon id="polygon9367" fill="#002255" points="14.9,378.2 14.9,378.2 54.1,378.2 36.5,396.5 14.9,396.5 		"/>
		<polygon id="polygon9369" fill="#FF0000" points="14.9,418.4 14.9,418.4 54.1,418.4 36.5,400.2 14.9,400.2 		"/>
	</g>
	<g id="Commodore">
		<path id="path3067" inkscape:connector-curvature="0" fill="#002255" d="M120.4,391.9c5,0,9-1.4,12.2-4c3.2-2.7,4.8-6.4,4.9-11.3
			c-0.1-4.9-1.7-8.7-4.9-11.4s-7.2-4-12.2-4c-5,0-9,1.4-12.2,4s-4.8,6.5-4.9,11.4c0.1,4.9,1.7,8.7,4.9,11.3
			C111.4,390.5,115.4,391.9,120.4,391.9z M120.4,384.8c-2.3-0.1-4-0.9-5.1-2.5s-1.6-3.5-1.5-5.8c0-2.3,0.5-4.2,1.5-5.8
			c1-1.6,2.7-2.4,5.1-2.5c2.3,0.1,4,0.9,5.1,2.5s1.6,3.5,1.5,5.8c0,2.2-0.5,4.2-1.5,5.8C124.4,383.9,122.7,384.7,120.4,384.8z"/>
		<path id="path3069" inkscape:connector-curvature="0" fill="#002255" d="M141.6,391.2h10.2v-12.4c0-3.1,0.5-5.5,1.5-7
			c1-1.5,2.4-2.2,4.2-2.2c1.4,0,2.5,0.6,3.1,1.7c0.6,1.1,1,2.5,1,4.2v15.8h10.2v-12.4c0-3.1,0.5-5.5,1.5-7c1-1.5,2.4-2.2,4.2-2.2
			c1.4,0,2.5,0.6,3.1,1.7c0.6,1.1,1,2.5,1,4.2v15.8h10.2v-17.3c0.1-4-0.6-7.1-2-9.4c-1.4-2.2-4.2-3.4-8.4-3.4
			c-2.1,0-4.1,0.4-5.9,1.3c-1.8,0.9-3.3,2.3-4.5,4.3c-0.8-1.9-2-3.3-3.6-4.3c-1.6-0.9-3.5-1.4-5.6-1.4c-2.3,0-4.5,0.5-6.3,1.5
			c-1.9,1-3.3,2.5-4.4,4.6h-0.1v-5.4h-9.3L141.6,391.2L141.6,391.2z"/>
		<path id="path3071" inkscape:connector-curvature="0" fill="#002255" d="M197.3,391.2h10.2v-12.4c0-3.1,0.5-5.5,1.5-7
			c1-1.5,2.4-2.2,4.2-2.2c1.4,0,2.5,0.6,3.1,1.7c0.6,1.1,1,2.5,1,4.2v15.8h10.2v-12.4c0-3.1,0.5-5.5,1.5-7c1-1.5,2.4-2.2,4.2-2.2
			c1.4,0,2.5,0.6,3.1,1.7c0.6,1.1,1,2.5,1,4.2v15.8h10.2v-17.3c0.1-4-0.6-7.1-2-9.4c-1.4-2.2-4.2-3.4-8.4-3.4
			c-2.1,0-4.1,0.4-5.9,1.3c-1.8,0.9-3.3,2.3-4.5,4.3c-0.8-1.9-2-3.3-3.6-4.3c-1.6-0.9-3.5-1.4-5.6-1.4c-2.4,0-4.5,0.5-6.3,1.5
			c-1.9,1-3.3,2.5-4.4,4.6h-0.1v-5.4h-9.3L197.3,391.2L197.3,391.2z"/>
		<path id="path3073" inkscape:connector-curvature="0" fill="#002255" d="M268.6,391.9c5,0,9-1.4,12.2-4c3.2-2.7,4.8-6.4,4.9-11.3
			c-0.1-4.9-1.7-8.7-4.9-11.4c-3.2-2.7-7.2-4-12.2-4c-5,0-9,1.4-12.2,4s-4.8,6.5-4.9,11.4c0.1,4.9,1.7,8.7,4.9,11.3
			C259.6,390.5,263.7,391.9,268.6,391.9z M268.6,384.8c-2.3-0.1-4-0.9-5.1-2.5c-1.1-1.6-1.6-3.5-1.5-5.8c0-2.3,0.5-4.2,1.5-5.8
			c1-1.6,2.7-2.4,5.1-2.5c2.3,0.1,4,0.9,5.1,2.5c1.1,1.6,1.6,3.5,1.6,5.8c0,2.2-0.5,4.2-1.6,5.8C272.6,383.9,271,384.7,268.6,384.8z
			"/>
		<path id="path3075" inkscape:connector-curvature="0" fill="#002255" d="M321.5,348.9h-10.2v16.7h-0.1c-1.3-1.7-2.8-2.8-4.5-3.5
			c-1.7-0.7-3.6-1-5.6-1c-4.1,0.2-7.2,1.7-9.3,4.7c-2.1,3-3.2,6.4-3.2,10.1c0,4.5,1.2,8.2,3.4,11.2c2.3,3,5.6,4.6,10,4.7
			c2.4,0,4.5-0.6,6.3-1.7c1.8-1.1,3.1-2.5,3.8-4.2h0.1v5.3h9.4L321.5,348.9L321.5,348.9z M298.9,376.2c0-2,0.5-3.7,1.6-5.1
			c1.1-1.4,2.6-2.1,4.6-2.2c1.9,0,3.4,0.8,4.5,2.2c1.1,1.4,1.7,3.2,1.7,5.5c0,2.2-0.7,4-1.8,5.4c-1.2,1.4-2.6,2.1-4.4,2.1
			c-1.9,0-3.4-0.8-4.5-2.2C299.5,380.5,298.9,378.6,298.9,376.2L298.9,376.2z"/>
		<path id="path3077" inkscape:connector-curvature="0" fill="#002255" d="M342.4,391.9c5,0,9-1.4,12.2-4c3.2-2.7,4.8-6.4,4.9-11.3
			c-0.1-4.9-1.7-8.7-4.9-11.4c-3.2-2.7-7.2-4-12.2-4c-5,0-9,1.4-12.2,4c-3.2,2.7-4.8,6.5-4.9,11.4c0.1,4.9,1.7,8.7,4.9,11.3
			C333.4,390.5,337.5,391.9,342.4,391.9z M342.4,384.8c-2.3-0.1-4-0.9-5.1-2.5c-1-1.6-1.6-3.5-1.5-5.8c0-2.3,0.5-4.2,1.5-5.8
			c1-1.6,2.7-2.4,5.1-2.5c2.3,0.1,4,0.9,5.1,2.5c1,1.6,1.6,3.5,1.5,5.8c0,2.2-0.5,4.2-1.5,5.8C346.5,383.9,344.8,384.7,342.4,384.8z
			"/>
		<path id="path3079" inkscape:connector-curvature="0" fill="#002255" d="M385.2,361.5c-0.5-0.1-1.1-0.2-1.7-0.2
			c-0.6-0.1-1.2-0.1-1.8-0.1c-2.2,0-4,0.6-5.3,1.7c-1.4,1.1-2.5,2.6-3.4,4.4h-0.1v-5.4h-9.3v29.4h10.2v-12.4c0-2.9,0.6-5.2,1.9-6.8
			c1.3-1.6,3.1-2.4,5.5-2.4c0.6,0,1.2,0,1.7,0c0.6,0,1.1,0.1,1.7,0.3L385.2,361.5z"/>
		<path id="path3081" inkscape:connector-curvature="0" fill="#002255" d="M417.1,379.5v-1.9c0.1-4.5-1.1-8.4-3.3-11.5
			c-2.3-3.2-6.1-4.8-11.5-5c-4.7,0-8.4,1.4-11.3,4c-2.9,2.7-4.4,6.4-4.4,11.3c0.1,4.9,1.7,8.7,4.9,11.3c3.2,2.7,7.2,4,12.2,4.1
			c1.9,0,3.8-0.1,5.6-0.4c1.8-0.3,3.6-0.8,5.2-1.4v-7.2c-1.5,0.8-3.1,1.4-4.6,1.7c-1.5,0.4-3,0.5-4.4,0.5c-2.5,0-4.5-0.4-6-1.3
			c-1.5-0.9-2.4-2.3-2.7-4.3L417.1,379.5L417.1,379.5z M396.6,373.7c0.1-1.7,0.6-3.2,1.5-4.3c0.9-1.2,2.3-1.8,4.1-1.8
			c2,0,3.5,0.6,4.3,1.8c0.9,1.2,1.3,2.6,1.3,4.3H396.6z"/>
		<path id="path3064" sodipodi:nodetypes="sssssccsssssccss" inkscape:connector-curvature="0" fill="#002255" d="M81.6,391.5
			c-4.4-1.2-7.8-3.2-10.6-6.3c-2.8-3.1-4.1-5.9-4.9-10.9c-1.5-9.8,2.7-18.8,10.8-22.7c4.1-2,9.6-3,15.1-3c3.4,0,6.4,0.6,9.2,1.1
			l-0.9,8.8c0,0-0.7-0.2-2.7-0.7c-1.9-0.5-3.8-0.7-5.7-0.7c-3.8,0-7.5,1-9.9,2.9c-5.7,4.4-5.7,15.9,0.2,20.7c3.6,3,10.1,4,15.9,2.5
			l2.7-0.7l0.8,8.9c-1.7,0.4-5.3,1.1-9.7,1.1C86.1,392.5,84.3,392.3,81.6,391.5z"/>
	</g>
	<rect id="Line" x="58.8" y="396.6" fill="#002255" width="369" height="3"/>
	<g id="Amiga">
		<path id="path6187" fill="#FF0000" d="M119.5,444.7c0-0.5-0.1-0.9-0.4-1c-0.3-0.2-0.6-0.3-1.1-0.3c-1.6-0.3-2.5-0.9-2.8-1.8
			c-0.3-1-0.4-2.2-0.4-3.7l-1.6-30.8c0-1.1-0.1-2-0.3-2.8c-0.2-0.7-0.9-1.1-2.2-1.2c-1.1,0-1.9,0.4-2.4,1c-0.5,0.6-1,1.4-1.6,2.2
			l-19.8,27.8l-3.3,4.7c-0.7,1-1.4,1.9-2.1,2.8c-0.8,0.9-1.8,1.4-3,1.6c-0.7,0.1-1.3,0.2-1.9,0.4c-0.6,0.2-0.9,0.7-1,1.5
			c0,0.5,0.2,0.8,0.5,0.9c0.3,0.1,0.7,0.2,1.1,0.2c1.1,0,2.3-0.1,3.5-0.2c1.2-0.1,2.3-0.2,3.5-0.2c1.1,0,2.1,0.1,3.1,0.2
			c1,0.1,2.1,0.1,3.1,0.2c0.5,0,0.9-0.1,1.3-0.3c0.4-0.2,0.6-0.6,0.6-1.1c-0.1-0.8-0.5-1.2-1.4-1.3s-1.7-0.3-2.6-0.5
			c-0.9-0.2-1.3-0.8-1.4-1.9c0.2-1.1,0.9-2.7,2.2-4.7c1.3-2,2.2-3.5,2.8-4.3h12.3c0.1,1.3,0.1,2.6,0.2,3.9c0.1,1.3,0.1,2.6,0.1,3.9
			c-0.1,1.8-0.5,2.9-1.4,3.2c-0.9,0.3-1.8,0.5-2.6,0.5c-0.9,0-1.4,0.6-1.4,1.5c0,0.4,0.1,0.7,0.4,0.9c0.3,0.2,0.6,0.2,1,0.2
			c1.7,0,3.4-0.1,5.1-0.2c1.7-0.1,3.4-0.2,5.1-0.2c1.1,0,2.3,0.1,3.4,0.1c1.1,0.1,2.3,0.1,3.4,0.1c0.5,0,1-0.1,1.3-0.2
			C119.3,445.6,119.5,445.2,119.5,444.7L119.5,444.7z M104.3,428.9H94l9.8-14.3L104.3,428.9z"/>
		<path id="path4766" fill="#FF0000" d="M208.9,405.5c0-0.4-0.1-0.6-0.4-0.8c-0.2-0.2-0.5-0.3-0.9-0.3c-0.6,0-1.1,0-1.6,0.1
			c-0.5,0-1.1,0.1-1.6,0.2c-1.4,0.1-2.7,0.2-4.1,0.3c-1.4,0-2.8,0.1-4.2,0c-1,0-2-0.1-3.1-0.1c-1-0.1-2-0.1-3.1-0.1
			c-0.5,0-0.9,0.1-1.3,0.4c-0.4,0.3-0.6,0.7-0.6,1.2c0.2,0.9,0.9,1.4,2.1,1.3c1.2-0.1,1.9,0.5,2.1,1.6c0,0.3,0,0.6-0.1,1
			c-0.1,0.3-0.2,0.6-0.3,1l-7.8,27c-0.3,1.3-0.6,2.4-1,3.3c-0.4,0.9-1.2,1.5-2.5,1.8c-0.6,0.1-1.3,0.2-2.1,0.4
			c-0.8,0.2-1.3,0.7-1.3,1.4c0,0.4,0.2,0.7,0.5,0.9c0.3,0.2,0.7,0.3,1.1,0.3c1.3,0,2.7-0.1,4-0.2c1.4-0.1,2.7-0.2,4.1-0.2
			c1.5,0,2.9,0.1,4.4,0.2c1.5,0.1,2.9,0.1,4.4,0.1c0.6,0,1.3,0,2.1-0.1c0.8-0.1,1.2-0.5,1.3-1.3c-0.1-0.8-0.5-1.2-1.2-1.3
			c-0.7-0.1-1.5-0.2-2.2-0.4c-0.7-0.2-1.1-0.9-1.2-2.1c0-0.5,0.1-1,0.2-1.5c0.1-0.5,0.3-1,0.4-1.5l7.8-27.1c0.3-1.1,0.6-1.9,1-2.4
			c0.4-0.5,1.2-0.9,2.3-1.1c0.6-0.1,1.2-0.2,1.9-0.5C208.5,406.6,208.8,406.1,208.9,405.5L208.9,405.5z"/>
		<path id="path4768" fill="#FF0000" d="M249.5,405.8c-0.1-0.7-0.8-1.1-2-1.4c-1.3-0.3-2.6-0.4-4-0.5c-1.4-0.1-2.3-0.1-2.8-0.1
			c-5.2,0-10.6,1.1-16.2,3.1c-5.6,2.1-10.4,5.1-14.4,9.1c-4,4-6.1,8.9-6.2,14.7c0.1,3.7,1.1,6.7,3.2,9.1c2.1,2.4,4.6,4.2,7.8,5.4
			c3.1,1.2,6.3,1.8,9.7,1.8c2,0,4-0.1,6.1-0.4c2-0.2,4-0.6,6-1.1c0.7-0.1,1.4-0.3,1.9-0.6c0.5-0.2,0.9-0.7,1.2-1.5
			c0.5-1.5,1-3.1,1.5-4.7c0.4-1.6,0.9-3.2,1.3-4.7c0.7-2.2,1.6-3.6,2.6-4c1-0.4,1.9-0.6,2.7-0.6c0.8,0,1.2-0.5,1.2-1.5
			c0-0.4-0.2-0.7-0.5-0.9c-0.3-0.2-0.7-0.3-1-0.3c-1.5,0-3.1,0.1-4.6,0.2c-1.6,0.1-3.1,0.2-4.7,0.2c-1.5,0-3-0.1-4.4-0.2
			c-1.5-0.1-3-0.2-4.4-0.2c-0.5,0-1,0.1-1.4,0.3c-0.5,0.2-0.7,0.6-0.7,1.1c0.1,0.7,0.5,1.1,1.2,1.2c0.8,0.1,1.5,0.2,2.3,0.5
			c0.8,0.2,1.2,0.9,1.2,2c-0.1,1.2-0.4,2.7-1.1,4.8c-0.6,2-1.2,3.6-1.6,4.9c-0.2,0.9-0.6,1.6-1,2c-0.4,0.4-1.1,0.6-2.1,0.6
			c-3.6-0.1-6.4-1.2-8.2-3.5c-1.9-2.3-2.8-5.1-2.8-8.6c0-3.2,0.7-6.4,2-9.4c1.3-3,3.1-5.7,5.3-8c2.2-2.2,5-4.1,8.2-5.7
			c3.3-1.6,6.5-2.4,9.7-2.5c1.5,0,2.4,0.3,2.8,0.9c0.3,0.6,0.5,1.6,0.4,3c0,0.4,0,0.7-0.1,1.1c0,0.4-0.1,0.7-0.1,1.1
			c0,0.6,0.1,1.2,0.3,1.7c0.2,0.5,0.7,0.8,1.4,0.8c0.8-0.1,1.3-0.4,1.7-1.1c0.4-0.7,0.6-1.4,0.8-2c0.2-0.5,0.5-1.5,1-3.1
			C249.1,407.2,249.4,406.2,249.5,405.8L249.5,405.8L249.5,405.8z"/>
		<path id="path4770" fill="#FF0000" d="M284.9,444.7c0-0.5-0.1-0.9-0.4-1c-0.3-0.2-0.6-0.3-1.1-0.3c-1.6-0.3-2.5-0.9-2.8-1.8
			c-0.3-1-0.4-2.2-0.4-3.7l-1.6-30.8c0-1.1-0.1-2-0.3-2.8c-0.2-0.7-0.9-1.1-2.2-1.2c-1.1,0-1.9,0.4-2.4,1c-0.5,0.6-1,1.4-1.6,2.2
			l-19.8,27.8l-3.3,4.7c-0.7,1-1.4,1.9-2.1,2.8c-0.8,0.9-1.8,1.4-3,1.6c-0.7,0.1-1.3,0.2-1.9,0.4c-0.6,0.2-0.9,0.7-1,1.5
			c0,0.5,0.2,0.8,0.5,0.9c0.3,0.1,0.7,0.2,1.1,0.2c1.1,0,2.3-0.1,3.5-0.2c1.2-0.1,2.3-0.2,3.5-0.2c1.1,0,2.1,0.1,3.1,0.2
			c1.1,0.1,2.1,0.1,3.1,0.2c0.5,0,0.9-0.1,1.3-0.3c0.4-0.2,0.6-0.6,0.6-1.1c-0.1-0.8-0.5-1.2-1.4-1.3c-0.9-0.1-1.7-0.3-2.6-0.5
			c-0.9-0.2-1.3-0.8-1.4-1.9c0.2-1.1,0.9-2.7,2.2-4.7c1.3-2,2.2-3.5,2.8-4.3h12.4c0.1,1.3,0.1,2.6,0.2,3.9c0.1,1.3,0.1,2.6,0.1,3.9
			c-0.1,1.8-0.5,2.9-1.4,3.2c-0.9,0.3-1.8,0.5-2.6,0.5c-0.9,0-1.4,0.6-1.4,1.5c0,0.4,0.1,0.7,0.4,0.9c0.3,0.2,0.6,0.2,1,0.2
			c1.7,0,3.4-0.1,5.1-0.2c1.7-0.1,3.4-0.2,5.1-0.2c1.1,0,2.3,0.1,3.4,0.1c1.1,0.1,2.3,0.1,3.4,0.1c0.5,0,1-0.1,1.3-0.2
			C284.7,445.6,284.9,445.2,284.9,444.7L284.9,444.7z M269.6,428.9h-10.3l9.8-14.3L269.6,428.9z"/>
		<path id="path4764" fill="#FF0000" d="M182.7,405.7c0-0.4-0.1-0.7-0.4-0.9c-0.2-0.2-0.5-0.3-0.9-0.3c-1.3,0-2.6,0-3.9,0.1
			c-1.3,0.1-2.6,0.1-3.9,0.1c-0.7,0-1.7-0.1-3.1-0.1c-1.4,0-2.3,0.1-2.8,0.5c-0.1,0.1-0.2,0.3-0.2,0.4c-0.1,0.2-0.2,0.3-0.2,0.4
			l-17,25.7l-0.7-25.3c0-0.5,0-0.9-0.1-1.2c-0.1-0.4-0.4-0.5-0.9-0.6c-1.4,0-2.9,0-4.3,0.1c-1.4,0-2.9,0-4.3,0
			c-0.8,0-1.6-0.1-2.4-0.1c-0.8-0.1-1.6-0.1-2.4-0.1c-0.5,0-1,0.1-1.5,0.2c-0.5,0.2-0.7,0.5-0.8,1.1c0.2,1,1,1.5,2.3,1.4
			c1.4,0,2.1,0.5,2.3,1.4c0,0.7-0.2,1.4-0.4,2.1c-0.3,0.7-0.5,1.4-0.7,2c-1.5,4.2-3,8.3-4.5,12.5c-1.5,4.2-3,8.3-4.6,12.5
			c-0.6,1.8-1.2,3-1.8,3.7c-0.6,0.7-1.8,1.2-3.7,1.5c-0.5,0.1-1,0.2-1.4,0.5c-0.4,0.2-0.6,0.6-0.6,1.2c0,0.5,0.2,0.8,0.5,1
			c0.3,0.1,0.7,0.2,1.2,0.2c1.1,0,2.2,0,3.3-0.1c1.1-0.1,2.2-0.1,3.3-0.1c1,0,2,0.1,3,0.2s2,0.1,3,0.2c0.5,0,0.9-0.1,1.3-0.4
			c0.4-0.2,0.6-0.6,0.7-1.1c-0.1-0.9-0.5-1.3-1.4-1.4s-1.8-0.2-2.7-0.4c-0.9-0.2-1.4-1-1.4-2.4c0.1-1.9,0.8-4.8,2.1-8.7
			c1.3-3.8,2.6-7.6,4.1-11.2c1.4-3.6,2.4-6,2.9-7.3l0.7,29.4c0,0.9,0.1,1.6,0.3,2.2c0.2,0.5,0.8,0.8,1.8,0.8c1,0,1.8-0.4,2.4-1.1
			c0.6-0.7,1.1-1.4,1.6-2.2l19.8-29.1l-6.5,24.6c-0.2,1.1-0.5,2.1-0.9,3.2c-0.4,1.1-1.2,1.7-2.3,2c-0.7,0-1.4,0.2-2.2,0.3
			c-0.8,0.2-1.3,0.7-1.4,1.5c0,0.5,0.2,0.8,0.5,1c0.3,0.2,0.7,0.3,1.1,0.3c1.4,0,2.9-0.1,4.3-0.2c1.4-0.1,2.9-0.2,4.3-0.2
			c1.5,0,3,0.1,4.4,0.2c1.5,0.1,3,0.2,4.4,0.2c0.6,0,1-0.1,1.5-0.3c0.4-0.2,0.7-0.6,0.7-1.2c-0.1-0.7-0.4-1.2-1.1-1.3
			c-0.7-0.1-1.4-0.3-2.1-0.5c-0.7-0.2-1.1-0.8-1.1-1.9c0-0.7,0.1-1.5,0.3-2.3c0.2-0.8,0.3-1.5,0.5-2.2l6.3-25.3
			c0.2-1.1,0.5-2,0.9-2.6c0.4-0.6,1.1-1,2.3-1.2c0.6,0,1.2-0.2,1.8-0.4C182.3,406.9,182.7,406.4,182.7,405.7L182.7,405.7z"/>
	</g>
	<g>
		<path fill="none" d="M385.3,410.6c-10.2-0.3-8.5,19.7-5.7,25c1.2,2.3,2.9,3.5,5.7,3.5c2.8,0,4.8-1.1,6.1-3.4
			C394.3,430.6,395.6,410.9,385.3,410.6z M391.9,430.4c-0.2,1.4-0.7,3.4-1.4,4.7c-1.1,2-2.8,2.8-5.1,2.8c-2.3,0-3.6-0.9-4.7-2.9
			c-0.7-1.3-1.1-3.2-1.4-4.6c-0.4-2.2-0.6-4.5-0.6-6.7c0-3.4,0.6-9,3.7-11.1c0.9-0.6,1.9-0.8,3-0.8c5.6,0.1,6.8,7.4,7,11.8
			C392.4,425.8,392.2,428.1,391.9,430.4z"/>
		<path fill="none" d="M396.6,409.7c-2.7-3.9-6.5-5.8-11.2-5.8c-4.7,0-8.4,1.9-11.1,5.8c-3.1,4.3-3.9,9.9-3.9,15.2
			c0,5.2,0.9,10.8,3.9,15.2c2.7,3.8,6.5,5.8,11.1,5.8c4.7,0,8.4-1.9,11.1-5.7c3.1-4.3,3.9-9.8,3.9-14.9
			C400.5,419.9,399.7,414.1,396.6,409.7z M395.6,439.4c-2.5,3.5-5.9,5.2-10.2,5.2c-4.3,0-7.7-1.8-10.2-5.3
			c-2.5-3.5-3.7-8.4-3.7-14.5c0-6.1,1.2-11,3.7-14.5c2.5-3.5,5.9-5.3,10.2-5.3c4.4,0,7.8,1.8,10.2,5.3c2.4,3.5,3.6,8.5,3.6,14.8
			C399.3,431.2,398.1,436,395.6,439.4z"/>
		<path fill="#002255" d="M397.6,409c-2.9-4.2-7-6.3-12.1-6.3c-5.1,0-9.2,2.1-12.1,6.2c-3.2,4.5-4.1,10.4-4.1,15.8
			c0,5.5,0.9,11.3,4.1,15.9c2.9,4.1,7,6.3,12.1,6.3c5,0,9.1-2.1,12-6.2c3.2-4.5,4.1-10.2,4.1-15.6
			C401.6,419.7,400.8,413.6,397.6,409z M396.5,440.1c-2.7,3.8-6.5,5.7-11.1,5.7c-4.7,0-8.4-1.9-11.1-5.8c-3.1-4.4-3.9-10-3.9-15.2
			c0-5.2,0.9-10.8,3.9-15.2c2.7-3.8,6.5-5.8,11.1-5.8c4.7,0,8.5,1.9,11.2,5.8c3.1,4.4,3.9,10.2,3.9,15.5
			C400.5,430.3,399.6,435.8,396.5,440.1z"/>
		<path fill="#002255" d="M385.3,411.7c-1.1,0-2.1,0.2-3,0.8c-3.1,2.1-3.7,7.7-3.7,11.1c0,2.2,0.2,4.5,0.6,6.7
			c0.3,1.4,0.7,3.3,1.4,4.6c1.1,2,2.4,2.9,4.7,2.9c2.3,0,4-0.8,5.1-2.8c0.7-1.3,1.2-3.2,1.4-4.7c0.4-2.3,0.5-4.6,0.4-6.9
			C392.1,419.1,390.9,411.9,385.3,411.7z M389.5,433.8c-1,2.1-2.6,2.7-4.1,2.7c-1.6,0-3-0.3-4-2.6c-0.9-2.1-1.5-6-1.5-9.1
			c0-3.8,0.4-7.5,1.7-9.6c0.9-1.5,2.5-2.1,3.7-2.1c1.3,0,2.8,0.9,3.7,2.5c1.2,2.1,1.7,5.5,1.7,9.2
			C390.8,428.1,390.5,431.7,389.5,433.8z"/>
		<path fill="#002255" d="M395.7,410.3c-2.4-3.5-5.8-5.3-10.2-5.3c-4.3,0-7.7,1.8-10.2,5.3c-2.5,3.5-3.7,8.3-3.7,14.5
			c0,6.2,1.2,11,3.7,14.5c2.5,3.5,5.9,5.3,10.2,5.3c4.3,0,7.7-1.7,10.2-5.2c2.5-3.5,3.7-8.2,3.7-14.3
			C399.3,418.8,398.1,413.8,395.7,410.3z M391.5,435.6c-1.3,2.3-3.3,3.4-6.1,3.4c-2.8,0-4.5-1.2-5.7-3.5c-2.8-5.2-4.5-25.2,5.7-25
			C395.6,410.9,394.3,430.6,391.5,435.6z"/>
	</g>
	<g>
		<path fill="none" d="M348.8,410.6c-10.2-0.3-8.5,19.7-5.7,25c1.2,2.3,2.9,3.5,5.7,3.5c2.8,0,4.8-1.1,6.1-3.4
			C357.8,430.6,359,410.9,348.8,410.6z M355.3,430.4c-0.2,1.4-0.7,3.4-1.4,4.7c-1.1,2-2.8,2.8-5.1,2.8h0c0,0-0.1,0-0.1,0
			c-0.1,0-0.2,0-0.3,0c-2-0.1-3.2-1-4.2-2.9c-0.7-1.3-1.1-3.2-1.4-4.6c-0.4-2.2-0.6-4.5-0.6-6.7c0-3.4,0.6-9,3.7-11.1
			c0.9-0.6,1.9-0.8,3-0.8c5.6,0.2,6.8,7.4,7,11.8C355.9,425.8,355.7,428.1,355.3,430.4z"/>
		<path fill="none" d="M360.1,409.7c-2.7-3.9-6.5-5.8-11.2-5.8c-4.7,0-8.4,1.9-11.1,5.8c-3.1,4.3-3.9,9.9-3.9,15.2
			c0,5.2,0.9,10.8,3.9,15.2c2.7,3.8,6.5,5.8,11.1,5.8c4.7,0,8.4-1.9,11.1-5.7c3.1-4.3,3.9-9.8,3.9-14.9
			C363.9,419.9,363.1,414.1,360.1,409.7z M359.1,439.4c-2.5,3.5-5.9,5.2-10.2,5.2c-4.3,0-7.7-1.8-10.2-5.3
			c-2.5-3.5-3.7-8.4-3.7-14.5c0-6.1,1.2-11,3.7-14.5c2.5-3.5,5.9-5.3,10.2-5.3c4.4,0,7.8,1.8,10.2,5.3c2.4,3.5,3.6,8.5,3.6,14.8
			C362.8,431.2,361.5,436,359.1,439.4z"/>
		<path fill="#002255" d="M348.8,411.7c-1.1,0-2.1,0.2-3,0.8c-3.1,2.1-3.7,7.7-3.7,11.1c0,2.2,0.2,4.5,0.6,6.7
			c0.3,1.4,0.7,3.3,1.4,4.6c1,1.9,2.2,2.8,4.2,2.9c0.1,0,0.2,0,0.3,0c0,0,0.1,0,0.1,0h0c2.3,0,4-0.8,5.1-2.8
			c0.7-1.3,1.2-3.2,1.4-4.7c0.4-2.3,0.5-4.6,0.4-6.9C355.6,419.1,354.4,411.9,348.8,411.7z M353.1,433.8c-1,2.1-2.6,2.7-4.1,2.7
			c-1.6,0-3-0.3-4-2.6c-0.9-2.1-1.5-6-1.5-9.1c0-3.8,0.4-7.5,1.7-9.6c0.9-1.5,2.5-2.1,3.7-2.1c1.3,0,2.8,0.9,3.7,2.5
			c1.2,2.1,1.7,5.5,1.7,9.2C354.4,428.1,354.1,431.7,353.1,433.8z"/>
		<path fill="#002255" d="M361,409c-2.9-4.2-7-6.3-12.1-6.3c-5.1,0-9.2,2.1-12.1,6.2c-3.2,4.5-4.1,10.4-4.1,15.8
			c0,5.5,0.9,11.3,4.1,15.9c2.9,4.1,7,6.3,12.1,6.3c5,0,9.1-2.1,12-6.2c3.2-4.5,4.1-10.2,4.1-15.6C365.1,419.7,364.2,413.6,361,409z
			 M360,440.1c-2.7,3.8-6.5,5.7-11.1,5.7c-4.7,0-8.4-1.9-11.1-5.8c-3.1-4.4-3.9-10-3.9-15.2c0-5.2,0.9-10.8,3.9-15.2
			c2.7-3.8,6.5-5.8,11.1-5.8c4.7,0,8.5,1.9,11.2,5.8c3.1,4.4,3.9,10.2,3.9,15.5C363.9,430.3,363.1,435.8,360,440.1z"/>
		<path fill="#002255" d="M359.1,410.3c-2.4-3.5-5.8-5.3-10.2-5.3c-4.3,0-7.7,1.8-10.2,5.3c-2.5,3.5-3.7,8.3-3.7,14.5
			c0,6.2,1.2,11,3.7,14.5c2.5,3.5,5.9,5.3,10.2,5.3c4.3,0,7.7-1.7,10.2-5.2c2.5-3.5,3.7-8.2,3.7-14.3
			C362.8,418.8,361.6,413.8,359.1,410.3z M354.9,435.6c-1.3,2.3-3.3,3.4-6.1,3.4c-2.8,0-4.5-1.2-5.7-3.5c-2.8-5.2-4.5-25.2,5.7-25
			C359,410.9,357.8,430.6,354.9,435.6z"/>
	</g>
	<g>
		<path fill="none" d="M313.3,424.2c-4.2-0.2-7.7,3.1-7.9,7.3c-0.2,4.2,3.1,7.7,7.3,7.9c4.2,0.2,7.7-3.1,7.9-7.3
			C320.7,427.9,317.5,424.4,313.3,424.2z M312.7,438.4c-3.6-0.1-6.4-3.2-6.3-6.8c0.1-3.6,3.2-6.4,6.8-6.3c3.6,0.1,6.4,3.2,6.3,6.8
			C319.4,435.7,316.3,438.5,312.7,438.4z"/>
		<path fill="none" d="M322.7,421.5c-1.6-1.4-3.5-2.5-5.5-3.1c-1.2-0.4-2.5-0.6-3.8-0.7c-0.6,0-1.2,0-1.8,0c-0.1,0-0.1,0-0.2,0
			c0.7-1.5,1.6-3,2.4-4.4c0.8-1.3,1.6-2.5,2.4-3.7c0.7-1,1.4-1.9,2.2-2.8l1.3-1.4l-7.9-1.3l-0.4,0.4c-1.5,1.6-2.9,3.5-4.1,5.3
			c-1.6,2.4-3,4.9-4.3,7.5c-2,4-4.7,10.4-4.3,14.9c0.2,7.4,6.1,13.4,13.5,13.7c1.9,0.1,3.8-0.2,5.5-0.9c1.7-0.6,3.3-1.6,4.6-2.8
			c2.7-2.5,4.3-5.9,4.5-9.6c0-0.4,0.1-0.7,0.1-1.1c0.1-2.1-0.3-4.1-1.2-5.9C325.1,424.1,324,422.7,322.7,421.5z M325.9,432.5
			c-0.4,7.1-6.4,12.7-13.6,12.4c-6.9-0.3-12.4-5.9-12.5-12.7c-0.7-7.4,7.9-22.3,12.4-26.9l5.5,0.9c-2.5,2.8-6.4,9.1-8.1,13
			c0.7-0.2,1.4-0.3,2.1-0.4c0.6-0.1,1.1-0.1,1.7,0c1.2,0.1,2.4,0.3,3.5,0.6c1.9,0.6,3.7,1.6,5.1,2.9c2.6,2.3,4.1,5.6,4,9.2
			C326,431.9,326,432.2,325.9,432.5z"/>
		<path fill="#002255" d="M326.8,425.1c-0.8-1.7-2-3.2-3.4-4.5c-1.7-1.5-3.7-2.7-5.9-3.4c-1.3-0.4-2.7-0.7-4.1-0.7
			c-0.1,0-0.1,0-0.2,0c0.5-0.9,1-1.8,1.5-2.6c0.7-1.2,1.5-2.4,2.4-3.6c0.7-0.9,1.3-1.9,2.1-2.7l2.6-3l-10.6-1.7l-0.8,0.8
			c-1.6,1.6-3,3.6-4.2,5.5c-1.6,2.4-3.1,5-4.4,7.6c-2.1,4.3-4.8,10.7-4.4,15.5c0.3,8,6.6,14.4,14.6,14.7c2,0.1,4.1-0.2,6-1
			c1.8-0.7,3.5-1.7,5-3.1c2.9-2.7,4.7-6.4,4.9-10.3c0-0.4,0.1-0.8,0.1-1.1C328.3,429.4,327.8,427.2,326.8,425.1z M327,432.6
			c-0.2,3.7-1.8,7.1-4.5,9.6c-1.3,1.2-2.9,2.2-4.6,2.8c-1.8,0.7-3.6,1-5.5,0.9c-7.4-0.3-13.3-6.3-13.5-13.7
			c-0.4-4.6,2.3-10.9,4.3-14.9c1.3-2.6,2.7-5.1,4.3-7.5c1.2-1.8,2.6-3.8,4.1-5.3l0.4-0.4l7.9,1.3l-1.3,1.4c-0.8,0.9-1.5,1.9-2.2,2.8
			c-0.8,1.2-1.6,2.4-2.4,3.7c-0.9,1.4-1.7,2.9-2.4,4.4c0.1,0,0.1,0,0.2,0c0.6-0.1,1.2-0.1,1.8,0c1.3,0.1,2.6,0.3,3.8,0.7
			c2,0.6,3.9,1.7,5.5,3.1c1.3,1.2,2.3,2.6,3.1,4.1c0.9,1.8,1.3,3.9,1.2,5.9C327,431.9,327,432.3,327,432.6z"/>
		<path fill="#002255" d="M316.9,419.4c-1.1-0.4-2.3-0.6-3.5-0.6c-0.6,0-1.1,0-1.7,0c-0.7,0.1-1.4,0.2-2.1,0.4
			c1.6-4,5.6-10.2,8.1-13l-5.5-0.9c-4.5,4.7-13.1,19.5-12.4,26.9c0.2,6.8,5.6,12.4,12.5,12.7c7.2,0.3,13.2-5.2,13.6-12.4
			c0-0.3,0.1-0.7,0.1-1c0.1-3.6-1.4-6.9-4-9.2C320.6,421,318.9,420,316.9,419.4z M312.6,439.4c-4.2-0.2-7.5-3.7-7.3-7.9
			c0.2-4.2,3.7-7.5,7.9-7.3c4.2,0.2,7.5,3.7,7.3,7.9C320.4,436.3,316.8,439.6,312.6,439.4z"/>
		<path fill="#002255" d="M313.2,425.3c-3.6-0.1-6.7,2.7-6.8,6.3c-0.1,3.6,2.7,6.7,6.3,6.8c3.6,0.1,6.7-2.7,6.8-6.3
			C319.7,428.5,316.8,425.4,313.2,425.3z M312.9,437.1c-2.9,0-5.2-2.3-5.2-5.2c0-2.9,2.3-5.2,5.2-5.2c2.9,0,5.2,2.3,5.2,5.2
			C318.1,434.8,315.7,437.1,312.9,437.1z"/>
	</g>
</g>
</svg>
