<?xml version="1.0" encoding="UTF-8" standalone="no"?>
<svg
   xmlns:dc="http://purl.org/dc/elements/1.1/"
   xmlns:cc="http://creativecommons.org/ns#"
   xmlns:rdf="http://www.w3.org/1999/02/22-rdf-syntax-ns#"
   xmlns:svg="http://www.w3.org/2000/svg"
   xmlns="http://www.w3.org/2000/svg"
   viewBox="0 0 2221.8999 685.15503"
   height="685.15503"
   width="2221.8999"
   xml:space="preserve"
   version="1.1"
   id="svg2"><metadata
     id="metadata8"><rdf:RDF><cc:Work
         rdf:about=""><dc:format>image/svg+xml</dc:format><dc:type
           rdf:resource="http://purl.org/dc/dcmitype/StillImage" /><dc:title></dc:title></cc:Work></rdf:RDF></metadata><defs
     id="defs6"><clipPath
       id="clipPath16"
       clipPathUnits="userSpaceOnUse"><path
         id="path18"
         d="m 0,548.124 1777.518,0 L 1777.518,0 0,0 0,548.124 Z" /></clipPath></defs><g
     transform="matrix(1.25,0,0,-1.25,0,685.155)"
     id="g10"><g
       id="g12"><g
         clip-path="url(#clipPath16)"
         id="g14"><g
           transform="translate(25.5057,349.2907)"
           id="g20"><path
             id="path22"
             style="fill:#61bb46;fill-opacity:1;fill-rule:nonzero;stroke:none"
             d="m 0,0 c 0.164,0.271 0.338,0.537 0.511,0.799 28.075,43.407 72.362,68.813 114.008,68.813 42.407,0 69.065,-23.344 104.119,-23.344 34.012,0 54.729,23.378 103.758,23.378 37.043,0 76.318,-20.257 104.292,-55.283 C 418.953,10.11 411.976,5.28 405.74,-0.028 L 0,0 Z" /></g><g
           transform="translate(25.5057,349.2907)"
           id="g24"><path
             id="path26"
             style="fill:none;stroke:#61bb46;stroke-width:2.9849999;stroke-linecap:butt;stroke-linejoin:miter;stroke-miterlimit:2.61299992;stroke-dasharray:none;stroke-opacity:1"
             d="m 0,0 c 0.164,0.271 0.338,0.537 0.511,0.799 28.075,43.407 72.362,68.813 114.008,68.813 42.407,0 69.065,-23.344 104.119,-23.344 34.012,0 54.729,23.378 103.758,23.378 37.043,0 76.318,-20.257 104.292,-55.283 C 418.953,10.11 411.976,5.28 405.74,-0.028 L 0,0 0,0 Z" /></g><g
           transform="translate(310.7118,458.0467)"
           id="g28"><path
             id="path30"
             style="fill:#61bb46;fill-opacity:1;fill-rule:nonzero;stroke:none"
             d="M 0,0 C 17.796,22.952 31.333,55.36 26.427,88.494 -2.67,86.491 -36.702,67.889 -56.58,43.673 -74.617,21.674 -89.507,-10.951 -83.71,-42.643 -51.944,-43.635 -19.083,-24.588 0,0 Z" /></g><g
           transform="translate(310.7118,458.0467)"
           id="g32"><path
             id="path34"
             style="fill:none;stroke:#61bb46;stroke-width:2.9849999;stroke-linecap:butt;stroke-linejoin:miter;stroke-miterlimit:2.61299992;stroke-dasharray:none;stroke-opacity:1"
             d="M 0,0 C 17.796,22.952 31.333,55.36 26.427,88.494 -2.67,86.491 -36.702,67.889 -56.58,43.673 -74.617,21.674 -89.507,-10.951 -83.71,-42.643 -51.944,-43.635 -19.083,-24.588 0,0 l 0,0 z" /></g><g
           transform="translate(24.0574,349.9303)"
           id="g36"><path
             id="path38"
             style="fill:#fdb827;fill-opacity:1;fill-rule:nonzero;stroke:none"
             d="m 0,0 c -12.09,-19.021 -20.456,-46.284 -22.676,-70.197 l 392.241,0.01 c 4.241,26.161 18.343,51.156 40.694,70.158 L 0,0 0.023,0 0,0 Z" /></g><g
           transform="translate(4.943,210.1598)"
           id="g40"><path
             id="path42"
             style="fill:#f5821f;fill-opacity:1;fill-rule:nonzero;stroke:none"
             d="m 0,0 c -3.812,24.424 -4.428,47.97 -2.034,69.572 l 389.186,0.01 C 383.345,46.156 386.54,21.777 396.168,-0.015 L 0,0 Z" /></g><g
           transform="translate(4.943,210.1598)"
           id="g44"><path
             id="path46"
             style="fill:none;stroke:#f5821f;stroke-width:2.9849999;stroke-linecap:butt;stroke-linejoin:miter;stroke-miterlimit:2.61299992;stroke-dasharray:none;stroke-opacity:1"
             d="m 0,0 c -3.812,24.424 -4.428,47.97 -2.034,69.572 l 389.186,0.01 C 383.345,46.156 386.54,21.777 396.168,-0.015 L 0,0 0,0 Z" /></g><g
           transform="translate(23.9631,140.5923)"
           id="g48"><path
             id="path50"
             style="fill:#e03a3e;fill-opacity:1;fill-rule:nonzero;stroke:none"
             d="M 0,0 C -9.19,23.373 -15.483,46.848 -19.02,69.567 L 377.148,69.553 C 389.413,41.785 412.11,18.195 444.07,6.072 443.12,3.952 442.205,1.925 441.323,-0.03 L 0,0 Z" /></g><g
           transform="translate(23.9631,140.5923)"
           id="g52"><path
             id="path54"
             style="fill:none;stroke:#e03a3e;stroke-width:2.9849999;stroke-linecap:butt;stroke-linejoin:miter;stroke-miterlimit:2.61299992;stroke-dasharray:none;stroke-opacity:1"
             d="M 0,0 C -9.19,23.373 -15.483,46.848 -19.02,69.567 L 377.148,69.553 C 389.413,41.785 412.11,18.195 444.07,6.072 443.12,3.952 442.205,1.925 441.323,-0.03 L 0,0 0,0 Z" /></g><g
           transform="translate(465.2853,140.5636)"
           id="g56"><path
             id="path58"
             style="fill:#963d97;fill-opacity:1;fill-rule:nonzero;stroke:none"
             d="m 0,0 c -10.973,-24.224 -17.333,-36.797 -32.518,-60.006 -2.043,-3.117 -4.154,-6.305 -6.352,-9.523 l -365.683,-0.034 c -1.172,1.753 -2.332,3.504 -3.475,5.241 -13.672,20.911 -24.74,42.59 -33.294,64.352 L 0,0 Z" /></g><g
           transform="translate(465.2853,140.5636)"
           id="g60"><path
             id="path62"
             style="fill:none;stroke:#963d97;stroke-width:2.9849999;stroke-linecap:butt;stroke-linejoin:miter;stroke-miterlimit:2.61299992;stroke-dasharray:none;stroke-opacity:1"
             d="m 0,0 c -10.973,-24.224 -17.333,-36.797 -32.518,-60.006 -2.043,-3.117 -4.154,-6.305 -6.352,-9.523 l -365.683,-0.034 c -1.172,1.753 -2.332,3.504 -3.475,5.241 -13.672,20.911 -24.74,42.59 -33.294,64.352 L 0,0 Z" /></g><g
           transform="translate(426.4152,71.0348)"
           id="g64"><path
             id="path66"
             style="fill:#009ddc;fill-opacity:1;fill-rule:nonzero;stroke:none"
             d="m 0,0 c -22.37,-32.906 -52.402,-69.118 -88.843,-69.461 -35.559,-0.325 -44.681,23.237 -92.924,22.971 -48.243,-0.27 -58.315,-23.383 -93.874,-23.049 -38.017,0.353 -67.538,35.916 -90.042,69.505 L 0,0 Z" /></g><g
           transform="translate(426.4152,71.0348)"
           id="g68"><path
             id="path70"
             style="fill:none;stroke:#009ddc;stroke-width:2.9849999;stroke-linecap:butt;stroke-linejoin:miter;stroke-miterlimit:2.61299992;stroke-dasharray:none;stroke-opacity:1"
             d="m 0,0 c -22.37,-32.906 -52.402,-69.118 -88.843,-69.461 -35.559,-0.325 -44.681,23.237 -92.924,22.971 -48.243,-0.27 -58.315,-23.383 -93.874,-23.049 -38.017,0.353 -67.538,35.916 -90.042,69.505 L 0,0 Z" /></g><g
           transform="translate(1411.5178,332.828)"
           id="g72"><path
             id="path74"
             style="fill:#808080;fill-opacity:1;fill-rule:nonzero;stroke:none"
             d="m 0,0 c -28.983,0 -53.697,-8.797 -75.101,-26.678 -21.45,-17.92 -31.366,-37.266 -31.366,-59.408 0,-26.673 10.189,-47.396 31.788,-64.162 20.238,-15.655 44.76,-23.517 74.362,-23.517 l 108.684,0 0,41.247 -103.174,0 c -13.464,0 -25.559,4.537 -35.135,13.255 -9.631,8.78 -14.859,20.582 -14.859,33.779 0,12.58 5.039,23.795 14.275,31.967 9.314,8.236 21.587,12.279 35.719,12.279 l 35.034,0 c 2.485,0.006 4.769,-1.462 5.841,-3.767 1.078,-2.307 0.767,-5.045 -0.793,-7.038 l -39.704,-51.396 60.666,0 42.145,57.722 0,45.717 L 0,0 Z m -426.818,0 0,-228.319 55.197,0 0,180.426 c -0.003,1.758 0.671,3.458 1.886,4.708 1.22,1.249 2.857,1.947 4.592,1.944 l 35.065,0 c 14.589,0 27.612,-5.057 37.841,-14.839 9.457,-9.064 14.705,-20.407 14.708,-32.735 -0.003,-12.775 -5.734,-24.133 -15.923,-32.029 -10.081,-7.808 -22.534,-11.685 -36.629,-11.685 l -13.016,0 0,-41.236 36.992,0 c 25.449,0 46.423,8.202 64.115,24.941 17.687,16.696 26.109,36.266 26.109,60.271 0,24.873 -8.445,45.286 -26.059,62.682 -17.623,17.429 -38.14,25.862 -62.84,25.862 L -426.818,0 Z m -237.717,0 0,-228.319 55.252,0 0,180.426 c -0.006,1.758 0.674,3.458 1.889,4.708 1.214,1.249 2.865,1.947 4.583,1.944 l 35.027,0 c 14.578,0 27.612,-5.057 37.841,-14.839 9.46,-9.064 14.706,-20.407 14.706,-32.735 0,-12.752 -5.67,-24.127 -15.868,-32.029 -10.084,-7.811 -22.584,-11.685 -36.676,-11.685 l -13.005,0 0,-41.236 36.993,0 c 25.446,0 46.472,8.207 64.168,24.941 17.681,16.696 26.108,36.266 26.108,60.271 0,24.873 -8.454,45.286 -26.059,62.682 -17.626,17.423 -38.193,25.862 -62.892,25.862 L -664.535,0 Z m -153.86,0 c -25.839,0 -46.9,-8.495 -64.485,-25.969 -17.698,-17.583 -26.112,-37.126 -26.112,-59.841 0,-22.415 8.82,-42.218 27.548,-60.677 18.675,-18.402 39.526,-27.278 63.688,-27.278 l 35.4,0 0,41.233 -14.964,0 c -13.624,0 -25.786,4.426 -35.295,13.095 -9.506,8.657 -14.65,20.195 -14.65,32.996 0,12.956 5.042,24.488 14.438,32.799 9.34,8.271 21.322,12.389 34.868,12.389 l 37.628,0 c 1.721,0.003 3.372,-0.694 4.583,-1.944 1.215,-1.25 1.898,-2.95 1.892,-4.708 l 0,-125.874 55.197,0 0,173.779 -119.736,0 z m 1097.778,54.56 0,-71.087 0,-157.348 86.618,0 0,31.863 -32.32,0 c -1.72,-0.006 -3.371,0.692 -4.586,1.941 -1.214,1.259 -1.894,2.95 -1.874,4.711 l 0,151.451 c -0.023,1.767 0.665,3.467 1.874,4.717 1.215,1.25 2.866,1.947 4.586,1.941 l 32.32,0 0,31.811 -86.618,0 z m -111.939,0 0,-31.808 32.325,0 c 1.72,0.003 3.371,-0.694 4.586,-1.941 1.214,-1.25 1.895,-2.95 1.889,-4.717 l 0,-151.448 c 0.006,-1.755 -0.675,-3.453 -1.889,-4.711 -1.215,-1.25 -2.866,-1.947 -4.586,-1.941 l -32.325,0 0,-31.866 86.623,0 0,228.432 -86.623,0 z m -356.544,-228.325 55.197,0 0,228.325 -55.197,0 0,-228.325 z" /></g></g></g></g></svg>