<?xml version="1.0" encoding="UTF-8" standalone="no"?>
<!-- Generator: Adobe Illustrator 16.0.3, SVG Export Plug-In . SVG Version: 6.00 Build 0)  -->

<svg
   xmlns:osb="http://www.openswatchbook.org/uri/2009/osb"
   xmlns:dc="http://purl.org/dc/elements/1.1/"
   xmlns:cc="http://creativecommons.org/ns#"
   xmlns:rdf="http://www.w3.org/1999/02/22-rdf-syntax-ns#"
   xmlns:svg="http://www.w3.org/2000/svg"
   xmlns="http://www.w3.org/2000/svg"
   xmlns:xlink="http://www.w3.org/1999/xlink"
   xmlns:sodipodi="http://sodipodi.sourceforge.net/DTD/sodipodi-0.dtd"
   xmlns:inkscape="http://www.inkscape.org/namespaces/inkscape"
   version="1.1"
   id="Ebene_1"
   x="0px"
   y="0px"
   width="505"
   height="132"
   viewBox="0 0 504.99999 132"
   enable-background="new 0 0 566.929 458.929"
   xml:space="preserve"
   inkscape:version="0.92.5 (2060ec1f9f, 2020-04-08)"
   sodipodi:docname="logo.svg"><metadata
     id="metadata3367"><rdf:RDF><cc:Work
         rdf:about=""><dc:format>image/svg+xml</dc:format><dc:type
           rdf:resource="http://purl.org/dc/dcmitype/StillImage" /><dc:title></dc:title></cc:Work></rdf:RDF></metadata><defs
     id="defs3365"><linearGradient
       id="linearGradient5671"
       osb:paint="solid"><stop
         style="stop-color:#000000;stop-opacity:1;"
         offset="0"
         id="stop5673" /></linearGradient><linearGradient
       inkscape:collect="always"
       id="linearGradient5651"><stop
         style="stop-color:#ff8800;stop-opacity:1;"
         offset="0"
         id="stop5653" /><stop
         style="stop-color:#ff8800;stop-opacity:0;"
         offset="1"
         id="stop5655" /></linearGradient><radialGradient
       inkscape:collect="always"
       xlink:href="#linearGradient5651"
       id="radialGradient5657"
       cx="286.58636"
       cy="312.82358"
       fx="286.58636"
       fy="312.82358"
       r="250.29474"
       gradientTransform="matrix(1,0,0,0.27059769,0,228.17424)"
       gradientUnits="userSpaceOnUse" /><linearGradient
       inkscape:collect="always"
       xlink:href="#linearGradient5671"
       id="linearGradient5675"
       x1="36.291626"
       y1="312.82358"
       x2="536.8811"
       y2="312.82358"
       gradientUnits="userSpaceOnUse" /></defs><sodipodi:namedview
     pagecolor="#ffffff"
     bordercolor="#666666"
     borderopacity="1"
     objecttolerance="10"
     gridtolerance="10"
     guidetolerance="10"
     inkscape:pageopacity="0"
     inkscape:pageshadow="2"
     inkscape:window-width="3840"
     inkscape:window-height="2065"
     id="namedview3363"
     showgrid="false"
     showguides="false"
     borderlayer="false"
     inkscape:zoom="4.1915278"
     inkscape:cx="155.87915"
     inkscape:cy="92.360286"
     inkscape:window-x="0"
     inkscape:window-y="0"
     inkscape:window-maximized="1"
     inkscape:current-layer="Ebene_1"
     inkscape:snap-global="false"><inkscape:grid
       type="xygrid"
       id="grid5695" /></sodipodi:namedview><g
     id="g878"
     transform="translate(0,-8.3163243)"><g
       transform="translate(0.19770161,0.25040275)"
       id="g959"><path
         style="fill:#000000;fill-opacity:0.98989898;stroke:none;stroke-width:0.58851516;stroke-linecap:round;stroke-linejoin:round;stroke-miterlimit:4;stroke-dasharray:none;stroke-opacity:1;paint-order:stroke fill markers"
         d="m 480.00976,47.552639 v 82.876951 c 11.31485,-2.2893 22.48695,-12.94025 23.22657,-40.681639 0.55625,-20.863408 -9.38946,-35.116035 -23.22657,-42.195312 z"
         id="path897"
         inkscape:connector-curvature="0"
         sodipodi:nodetypes="ccsc" /><path
         inkscape:connector-curvature="0"
         id="path3364"
         style="font-style:normal;font-variant:normal;font-weight:bold;font-stretch:normal;font-size:170.94393921px;line-height:7.00000003%;font-family:Aharoni;-inkscape-font-specification:'Aharoni, Bold';text-align:start;letter-spacing:-10.96000004px;word-spacing:-12.86999989px;writing-mode:lr-tb;text-anchor:start;fill:#000000;fill-opacity:1;stroke:#000000;stroke-width:7;stroke-linecap:round;stroke-linejoin:round;stroke-miterlimit:4;stroke-dasharray:none;stroke-opacity:1"
         d="m 97.056307,131.22446 h -27.37774 v -9.10747 c -2.615353,3.28311 -5.25853,5.67588 -7.929529,7.17831 -4.674248,2.61535 -9.988423,3.92303 -15.942525,3.92303 -9.626726,0 -18.196181,-3.31093 -25.708366,-9.93278 -8.958976,-7.9017 -13.4384642,-18.36311 -13.4384642,-31.384236 0,-13.243703 4.5907802,-23.816408 13.7723392,-31.718113 7.289601,-6.287978 15.664296,-9.431967 25.124084,-9.431967 5.508936,0 10.683997,1.168562 15.525182,3.505687 2.782291,1.335499 5.64805,3.533509 8.597279,6.59403 v -7.595655 h 27.37774 z M 70.513254,91.984784 c 0,-4.896829 -1.72502,-9.042443 -5.175061,-12.43684 -3.450041,-3.450041 -7.623477,-5.175061 -12.520308,-5.175061 -5.45329,0 -9.932778,2.058895 -13.438464,6.176686 -2.837937,3.338747 -4.256905,7.150486 -4.256905,11.435215 0,4.284727 1.418968,8.096466 4.256905,11.435216 3.450041,4.11779 7.929529,6.17668 13.438464,6.17668 4.952477,0 9.125913,-1.6972 12.520308,-5.09159 3.450041,-3.39439 5.175061,-7.567826 5.175061,-12.520306 z"
         sodipodi:nodetypes="ccccscscscccccscscscscs" /><path
         inkscape:connector-curvature="0"
         id="path3366"
         style="font-style:normal;font-variant:normal;font-weight:bold;font-stretch:normal;font-size:170.94393921px;line-height:7.00000003%;font-family:Aharoni;-inkscape-font-specification:'Aharoni, Bold';text-align:start;letter-spacing:-10.96000004px;word-spacing:-12.86999989px;writing-mode:lr-tb;text-anchor:start;fill:#000000;fill-opacity:1;stroke:#000000;stroke-width:7;stroke-linecap:round;stroke-linejoin:round;stroke-miterlimit:4;stroke-dasharray:none;stroke-opacity:1"
         d="m 161.94132,79.102895 c -3.83957,-1.836312 -7.73478,-2.754468 -11.68563,-2.754468 -9.01462,0 -14.85743,3.672623 -17.52843,11.017869 -1.00162,2.671 -1.50243,6.260158 -1.50243,10.767474 l 0.41743,33.13708 H 103.84709 V 53.811872 h 27.37774 v 12.687246 c 2.89358,-4.507311 6.00974,-7.762591 9.34849,-9.76584 4.50731,-2.670999 9.84931,-4.006498 16.026,-4.006498 1.44679,0 3.22745,0.08347 5.342,0.250406 z"
         sodipodi:nodetypes="cscsccccccscc" /><path
         inkscape:connector-curvature="0"
         id="path3368"
         style="font-style:normal;font-variant:normal;font-weight:bold;font-stretch:normal;font-size:170.94393921px;line-height:7.00000003%;font-family:Aharoni;-inkscape-font-specification:'Aharoni, Bold';text-align:start;letter-spacing:-10.96000004px;word-spacing:-12.86999989px;writing-mode:lr-tb;text-anchor:start;fill:#000000;fill-opacity:1;stroke:#000000;stroke-width:7;stroke-linecap:round;stroke-linejoin:round;stroke-miterlimit:4;stroke-dasharray:none;stroke-opacity:1"
         d="m 222.2266,129.50872 c -5.67587,2.83793 -12.09378,4.34966 -18.32611,4.34966 -14.13404,0 -25.34667,-4.78554 -33.6379,-14.35662 -6.67749,-7.73477 -9.54765,-16.70453 -10.01624,-26.87693 -0.83486,-18.123659 3.33875,-19.197809 10.01624,-26.87693 8.29123,-9.571081 19.50386,-14.356621 33.6379,-14.356621 6.34362,0 12.29772,1.446791 17.8623,4.340374 v 23.287773 c -4.84119,-3.394395 -9.57108,-5.091592 -14.18968,-5.091592 -5.45329,0 -9.9606,1.752843 -13.52193,5.258529 -3.56133,3.505688 -5.342,7.985177 -5.342,13.438467 0,5.453293 1.78067,9.93278 5.342,13.43847 3.56133,3.50569 8.06864,5.25853 13.52193,5.25853 4.56296,0 9.29285,-1.66938 14.18968,-5.00813 z"
         sodipodi:nodetypes="cscscsccssssscc" /><path
         inkscape:connector-curvature="0"
         id="path3370"
         style="font-style:normal;font-variant:normal;font-weight:bold;font-stretch:normal;font-size:170.94393921px;line-height:7.00000003%;font-family:Aharoni;-inkscape-font-specification:'Aharoni, Bold';text-align:start;letter-spacing:-10.96000004px;word-spacing:-12.86999989px;writing-mode:lr-tb;text-anchor:start;fill:#000000;fill-opacity:1;stroke:#000000;stroke-width:7;stroke-linecap:round;stroke-linejoin:round;stroke-miterlimit:4;stroke-dasharray:none;stroke-opacity:1"
         d="m 314.12786,131.78104 h -27.70241 v -9.10747 c -2.61535,3.28311 -5.25853,5.67588 -7.92953,7.17831 -4.67425,2.61535 -9.98842,3.92303 -15.94253,3.92303 -9.62673,0 -18.19618,-3.31093 -25.70836,-9.93278 -8.95898,-7.9017 -13.43847,-18.36311 -13.43847,-31.38424 0,-13.243703 4.59078,-23.816408 13.77234,-31.718113 7.2896,-6.287978 15.6643,-9.431967 25.12409,-9.431967 5.50893,0 10.68399,1.168562 15.52518,3.505687 2.78229,1.335499 5.64805,3.533509 8.59728,6.59403 v -7.595655 h 27.37774 z M 287.26013,92.54136 c 0,-4.896829 -1.72502,-9.042443 -5.17506,-12.43684 -3.45004,-3.450041 -7.62347,-5.175061 -12.5203,-5.175061 -5.45329,0 -9.93278,2.058895 -13.43847,6.176686 -2.83793,3.338747 -4.2569,7.150486 -4.2569,11.435215 0,4.284727 1.41897,8.09647 4.2569,11.43522 3.45004,4.11779 7.92953,6.17668 13.43847,6.17668 4.95247,0 9.12591,-1.6972 12.5203,-5.09159 3.45004,-3.39439 5.17506,-7.56783 5.17506,-12.52031 z"
         sodipodi:nodetypes="ccccscscscccccscscscscs" /><path
         inkscape:connector-curvature="0"
         id="path3372"
         style="font-style:normal;font-variant:normal;font-weight:bold;font-stretch:normal;font-size:170.94393921px;line-height:7.00000003%;font-family:Aharoni;-inkscape-font-specification:'Aharoni, Bold';text-align:start;letter-spacing:-10.96000004px;word-spacing:-12.86999989px;writing-mode:lr-tb;text-anchor:start;fill:#000000;fill-opacity:1;stroke:#000000;stroke-width:7.00289488;stroke-linecap:round;stroke-linejoin:round;stroke-miterlimit:4;stroke-dasharray:none;stroke-opacity:1"
         d="m 409.45457,132.03621 -27.70466,0.0463 v -9.51605 c -2.61995,3.28006 -5.26778,5.6706 -7.94348,7.17164 -4.68246,2.61291 -10.00598,3.91938 -15.97055,3.91938 -9.64366,0 -18.22817,-3.30785 -25.75357,-9.92355 -8.97473,-7.89436 -13.46209,-18.34604 -13.46209,-31.35507 0,-13.231394 4.59885,-23.794273 13.79655,-31.688634 7.30242,-6.282134 15.69184,-9.423201 25.16826,-9.423201 5.51862,0 10.70278,1.167476 15.55248,3.502429 2.78718,1.334258 5.65798,3.530225 8.6124,6.587902 l -0.25305,-43.899195 h 27.42588 z m -26.8685,-39.573928 c 0,-4.892277 -1.72806,-9.034038 -5.18416,-12.425281 -3.45611,-3.446834 -7.63689,-5.170251 -12.54233,-5.170251 -5.46288,0 -9.95024,2.056982 -13.46209,6.170945 -2.84293,3.335644 -4.26439,7.143841 -4.26439,11.424587 0,4.280745 1.42146,8.088948 4.26439,11.424588 3.45611,4.11397 7.94347,6.17094 13.46209,6.17094 4.96119,0 9.14197,-1.69562 12.54233,-5.08685 3.4561,-3.39124 5.18416,-7.560801 5.18416,-12.508678 z"
         sodipodi:nodetypes="ccccscscscccccscscscscs" /><path
         inkscape:connector-curvature="0"
         id="path3374"
         style="font-style:normal;font-variant:normal;font-weight:bold;font-stretch:normal;font-size:170.94393921px;line-height:7.00000003%;font-family:Aharoni;-inkscape-font-specification:'Aharoni, Bold';text-align:start;letter-spacing:-10.96000004px;word-spacing:-12.86999989px;writing-mode:lr-tb;text-anchor:start;fill:#000000;fill-opacity:1;stroke:#000000;stroke-width:7.02531195;stroke-linecap:round;stroke-linejoin:round;stroke-miterlimit:4;stroke-dasharray:none;stroke-opacity:1"
         d="m 499.12336,95.908478 h -57.57633 c 0,11.717712 5.61857,17.576562 16.85568,17.576562 5.72982,0 10.12454,-2.46689 13.18415,-7.40066 l 26.40705,-1.86728 c -2.11391,7.06426 -5.18447,14.39795 -9.30104,18.26647 -7.45433,7.00821 -17.43978,10.5123 -29.95638,10.5123 -15.90999,0 -27.87029,-4.87771 -35.8809,-14.63312 -6.00797,-7.28853 -9.01194,-16.17493 -9.01194,-26.659197 0,-12.446568 3.75497,-22.566412 11.26492,-30.359531 7.50996,-7.793121 18.10735,-11.689681 31.79216,-11.689681 16.85567,0 28.89942,6.167218 36.13122,18.501653 4.06095,6.952135 6.09141,15.025584 6.09141,24.220347 z m -25.53385,-15.81051 c -1.94703,-8.634103 -7.14837,-12.951156 -15.60402,-12.951156 -4.67286,0 -8.45565,1.373607 -11.34838,4.120822 -2.28079,2.186559 -3.72715,5.130004 -4.33908,8.830334 z"
         sodipodi:nodetypes="ccscccscssscsccsccc" /><path
         inkscape:connector-curvature="0"
         id="path3351"
         style="color:#000000;font-style:normal;font-variant:normal;font-weight:bold;font-stretch:normal;font-size:170.94393921px;line-height:7.00000003%;font-family:Aharoni;-inkscape-font-specification:'Aharoni, Bold';text-align:start;letter-spacing:-10.96000004px;word-spacing:-12.86999989px;writing-mode:lr-tb;text-anchor:start;clip-rule:nonzero;display:inline;overflow:visible;visibility:visible;isolation:auto;mix-blend-mode:normal;color-interpolation:sRGB;color-interpolation-filters:linearRGB;solid-color:#000000;solid-opacity:1;fill:#fccd0a;fill-opacity:1;fill-rule:nonzero;stroke:#000000;stroke-width:7;stroke-linecap:round;stroke-linejoin:round;stroke-miterlimit:4;stroke-dasharray:none;stroke-dashoffset:0;stroke-opacity:1;color-rendering:auto;image-rendering:auto;shape-rendering:auto;text-rendering:auto;enable-background:accumulate"
         d="m 95.943155,123.27085 h -27.37774 v -8.59728 q -3.92303,4.92466 -7.929529,7.17831 -7.011372,3.92303 -15.942525,3.92303 -14.440089,0 -25.708366,-9.93278 Q 5.5465308,103.98958 5.5465308,84.45789 q 0,-19.865555 13.7723392,-31.718114 10.934402,-9.431966 25.124084,-9.431966 8.263404,0 15.525182,3.505687 4.173436,2.003249 8.597279,6.594029 v -7.595654 h 27.37774 z M 69.400102,84.541358 q 0,-7.345247 -5.175061,-12.436839 -5.175061,-5.175061 -12.520308,-5.175061 -8.179935,0 -13.438464,6.176686 -4.256905,5.008123 -4.256905,11.435214 0,6.427093 4.256905,11.435217 5.175061,6.176685 13.438464,6.176685 7.428716,0 12.520308,-5.091594 5.175061,-5.091591 5.175061,-12.520308 z" /><path
         inkscape:connector-curvature="0"
         id="path3353"
         style="color:#000000;font-style:normal;font-variant:normal;font-weight:bold;font-stretch:normal;font-size:170.94393921px;line-height:7.00000003%;font-family:Aharoni;-inkscape-font-specification:'Aharoni, Bold';text-align:start;letter-spacing:-10.96000004px;word-spacing:-12.86999989px;writing-mode:lr-tb;text-anchor:start;clip-rule:nonzero;display:inline;overflow:visible;visibility:visible;isolation:auto;mix-blend-mode:normal;color-interpolation:sRGB;color-interpolation-filters:linearRGB;solid-color:#000000;solid-opacity:1;fill:#fccd0a;fill-opacity:1;fill-rule:nonzero;stroke:#000000;stroke-width:7;stroke-linecap:round;stroke-linejoin:round;stroke-miterlimit:4;stroke-dasharray:none;stroke-dashoffset:0;stroke-opacity:1;color-rendering:auto;image-rendering:auto;shape-rendering:auto;text-rendering:auto;enable-background:accumulate"
         d="m 161.94132,71.102895 q -5.75935,-2.754468 -11.68563,-2.754468 -13.52193,0 -17.52843,11.017871 -1.50243,4.006498 -1.50243,10.767465 V 123.27085 H 103.84709 V 45.811872 h 27.37774 v 12.687246 q 4.34037,-6.760966 9.34849,-9.76584 6.76097,-4.006498 16.026,-4.006498 2.17018,0 5.342,0.250406 z" /><path
         inkscape:connector-curvature="0"
         id="path3355"
         style="color:#000000;font-style:normal;font-variant:normal;font-weight:bold;font-stretch:normal;font-size:170.94393921px;line-height:7.00000003%;font-family:Aharoni;-inkscape-font-specification:'Aharoni, Bold';text-align:start;letter-spacing:-10.96000004px;word-spacing:-12.86999989px;writing-mode:lr-tb;text-anchor:start;clip-rule:nonzero;display:inline;overflow:visible;visibility:visible;isolation:auto;mix-blend-mode:normal;color-interpolation:sRGB;color-interpolation-filters:linearRGB;solid-color:#000000;solid-opacity:1;fill:#fccd0a;fill-opacity:1;fill-rule:nonzero;stroke:#000000;stroke-width:7;stroke-linecap:round;stroke-linejoin:round;stroke-miterlimit:4;stroke-dasharray:none;stroke-dashoffset:0;stroke-opacity:1;color-rendering:auto;image-rendering:auto;shape-rendering:auto;text-rendering:auto;enable-background:accumulate"
         d="m 221.76279,121.60148 q -8.51381,4.2569 -17.8623,4.2569 -21.20106,0 -33.6379,-14.35662 -10.01624,-11.602154 -10.01624,-26.876932 0,-15.358245 10.01624,-26.876928 12.43684,-14.35662 33.6379,-14.35662 9.51543,0 17.8623,4.340374 v 23.287773 q -7.26178,-5.091592 -14.18968,-5.091592 -8.17993,0 -13.52193,5.258528 -5.342,5.258529 -5.342,13.438464 0,8.179939 5.342,13.438468 5.342,5.258535 13.52193,5.258535 6.84444,0 14.18968,-5.008135 z" /><path
         inkscape:connector-curvature="0"
         id="path3357"
         style="color:#000000;font-style:normal;font-variant:normal;font-weight:bold;font-stretch:normal;font-size:170.94393921px;line-height:7.00000003%;font-family:Aharoni;-inkscape-font-specification:'Aharoni, Bold';text-align:start;letter-spacing:-10.96000004px;word-spacing:-12.86999989px;writing-mode:lr-tb;text-anchor:start;clip-rule:nonzero;display:inline;overflow:visible;visibility:visible;isolation:auto;mix-blend-mode:normal;color-interpolation:sRGB;color-interpolation-filters:linearRGB;solid-color:#000000;solid-opacity:1;fill:#fccd0a;fill-opacity:1;fill-rule:nonzero;stroke:#000000;stroke-width:7;stroke-linecap:round;stroke-linejoin:round;stroke-miterlimit:4;stroke-dasharray:none;stroke-dashoffset:0;stroke-opacity:1;color-rendering:auto;image-rendering:auto;shape-rendering:auto;text-rendering:auto;enable-background:accumulate"
         d="m 313.80319,123.27085 h -27.37774 v -8.59728 q -3.92303,4.92466 -7.92953,7.17831 -7.01137,3.92303 -15.94253,3.92303 -14.44009,0 -25.70836,-9.93278 -13.43847,-11.85255 -13.43847,-31.38424 0,-19.865555 13.77234,-31.718113 10.9344,-9.431966 25.12409,-9.431966 8.2634,0 15.52518,3.505687 4.17343,2.003249 8.59728,6.594029 v -7.595654 h 27.37774 z M 287.26013,84.541358 q 0,-7.345247 -5.17506,-12.436839 -5.17506,-5.175061 -12.5203,-5.175061 -8.17994,0 -13.43847,6.176686 -4.2569,5.008123 -4.2569,11.435214 0,6.427093 4.2569,11.435217 5.17506,6.176685 13.43847,6.176685 7.42871,0 12.5203,-5.091594 5.17506,-5.091591 5.17506,-12.520308 z" /><path
         sodipodi:nodetypes="ccccscscscccccscscscscs"
         inkscape:connector-curvature="0"
         id="path3359"
         style="color:#000000;font-style:normal;font-variant:normal;font-weight:bold;font-stretch:normal;font-size:170.94393921px;line-height:7.00000003%;font-family:Aharoni;-inkscape-font-specification:'Aharoni, Bold';text-align:start;letter-spacing:-10.96000004px;word-spacing:-12.86999989px;writing-mode:lr-tb;text-anchor:start;clip-rule:nonzero;display:inline;overflow:visible;visibility:visible;isolation:auto;mix-blend-mode:normal;color-interpolation:sRGB;color-interpolation-filters:linearRGB;solid-color:#000000;solid-opacity:1;fill:#fccd0a;fill-opacity:1;fill-rule:nonzero;stroke:#000000;stroke-width:7;stroke-linecap:round;stroke-linejoin:round;stroke-miterlimit:4;stroke-dasharray:none;stroke-dashoffset:0;stroke-opacity:1;color-rendering:auto;image-rendering:auto;shape-rendering:auto;text-rendering:auto;enable-background:accumulate"
         d="m 409.01539,123.27085 h -27.37774 v -8.59728 c -2.61535,3.28311 -5.25853,5.67588 -7.92953,7.17831 -4.67425,2.61535 -9.98842,3.92303 -15.94252,3.92303 -9.62673,0 -18.19618,-3.31093 -25.70837,-9.93278 -8.95897,-7.9017 -13.43846,-18.363114 -13.43846,-31.38424 0,-13.243703 4.59078,-23.816408 13.77234,-31.718113 7.2896,-6.287977 15.66429,-9.431966 25.12408,-9.431966 5.50893,0 10.68399,1.168562 15.52518,3.505687 2.78229,1.335499 5.64805,3.533509 8.59728,6.594029 L 381.3846,14.328816 h 27.37774 z M 382.47234,84.541358 c 0,-4.896831 -1.72502,-9.042444 -5.17506,-12.436839 -3.45004,-3.450041 -7.62348,-5.175061 -12.52031,-5.175061 -5.45329,0 -9.93278,2.058896 -13.43846,6.176686 -2.83794,3.33875 -4.25691,7.150487 -4.25691,11.435214 0,4.284729 1.41897,8.096468 4.25691,11.435217 3.45004,4.117795 7.92953,6.176685 13.43846,6.176685 4.95248,0 9.12592,-1.6972 12.52031,-5.091594 3.45004,-3.39439 5.17506,-7.56783 5.17506,-12.520308 z" /><path
         inkscape:connector-curvature="0"
         id="path3361"
         style="color:#000000;font-style:normal;font-variant:normal;font-weight:bold;font-stretch:normal;font-size:170.94393921px;line-height:7.00000003%;font-family:Aharoni;-inkscape-font-specification:'Aharoni, Bold';text-align:start;letter-spacing:-10.96000004px;word-spacing:-12.86999989px;writing-mode:lr-tb;text-anchor:start;clip-rule:nonzero;display:inline;overflow:visible;visibility:visible;isolation:auto;mix-blend-mode:normal;color-interpolation:sRGB;color-interpolation-filters:linearRGB;solid-color:#000000;solid-opacity:1;fill:#fccd0a;fill-opacity:1;fill-rule:nonzero;stroke:#000000;stroke-width:7;stroke-linecap:round;stroke-linejoin:round;stroke-miterlimit:4;stroke-dasharray:none;stroke-dashoffset:0;stroke-opacity:1;color-rendering:auto;image-rendering:auto;shape-rendering:auto;text-rendering:auto;enable-background:accumulate"
         d="M 499.13602,89.549481 H 441.5426 q 0,17.444969 16.86068,17.444969 8.59728,0 13.18806,-7.345255 h 26.45958 q -3.17181,10.517065 -9.34849,16.276405 -11.18481,10.43359 -29.96527,10.43359 -23.87206,0 -35.89155,-14.52356 -9.01462,-10.85093 -9.01462,-26.459585 0,-18.530056 11.26827,-30.132208 11.26828,-11.602152 31.80159,-11.602152 25.29102,0 36.14195,18.363119 6.09322,10.350121 6.09322,24.038991 z M 473.59459,73.857363 q -2.92141,-12.854184 -15.60865,-12.854184 -7.01137,0 -11.35175,4.089968 -3.42221,3.25528 -4.34037,8.764216 z" /><path
         inkscape:connector-curvature="0"
         id="path3351-9"
         d="m 45.409444,40.081711 c -10.235278,0 -19.553552,3.506131 -27.410156,10.283203 C 8.0877408,58.896966 1.2567518,69.670734 1.3469278,84.740059 1.4883458,108.37244 12.765704,124.90455 17.313291,120.1333 c 8.068521,7.11226 17.918875,9.41716 28.348106,9.41716 6.466563,0 12.423506,-1.44458 17.650391,-4.36914 0.0026,-0.001 0.0052,-0.003 0.0078,-0.004 0.938726,-0.52803 1.814756,-1.29819 2.712891,-1.98242 v 0.34961 c 1.93e-4,1.93292 1.567083,3.49981 3.5,3.5 h 27.376953 c 1.93292,-1.9e-4 3.499818,-1.56708 3.500008,-3.5 V 46.085527 c -1.9e-4,-1.93292 -1.567088,-3.499811 -3.500008,-3.5 H 69.532479 c -1.932917,1.93e-4 -3.499807,1.567083 -3.5,3.5 v 0.08008 C 64.84925,45.345949 63.667942,44.51919 62.456319,43.937179 57.147055,41.374086 51.41333,40.081711 45.409444,40.081711 Z m 0,7 c 5.013987,0 9.6308,1.047047 14.003906,3.158203 l 0.0078,0.0039 c 2.276918,1.09292 4.84766,3.019498 7.591797,5.867187 2.186051,2.266034 6.019013,0.718921 6.019531,-2.429687 V 49.585611 H 93.409431 V 120.04459 H 73.032478 v -5.0957 c 7.41e-4,-3.3129 -4.174201,-4.77296 -6.238281,-2.18165 -2.413632,3.02989 -4.754882,5.09658 -6.900391,6.30469 -5.26e-4,3e-4 -0.0014,-2.9e-4 -0.002,0 -4.121225,2.30556 -8.789523,3.47852 -14.230469,3.47852 -8.824221,0 -16.438683,-2.92714 -23.394531,-9.0586 C 14.023169,106.22103 10.01296,96.950524 10.01296,84.732101 c 0,-12.43488 4.107864,-21.793385 12.55664,-29.064453 l 0.002,-0.002 c 6.722598,-5.798883 14.153593,-8.583985 22.83789,-8.583984 z m 7.261719,16.623045 c -6.334242,0 -12.017143,2.608336 -16.103516,7.408204 l -0.002,0.002 c -3.31644,3.901694 -5.089843,8.643717 -5.089844,13.701171 1e-6,5.054187 1.771681,9.793098 5.083985,13.693353 4.038458,4.813816 9.735117,7.417976 16.111328,7.417976 5.747785,0 10.991244,-2.11703 14.986328,-6.107416 4.049511,-3.9899 6.208984,-9.243949 6.208985,-15.003913 0,-5.713584 -2.166274,-10.936778 -6.208985,-14.919921 -4.034283,-4.029708 -9.271784,-6.191407 -14.986328,-6.191407 z m 0,7 c 4.074862,0 7.182288,1.283851 10.046875,4.148438 0.0065,0.0072 0.01299,0.01435 0.01953,0.02148 2.850251,2.804279 4.128907,5.866545 4.128907,9.941406 0,4.139744 -1.285472,7.227819 -4.128907,10.025389 -0.0065,0.0065 -0.01305,0.01297 -0.01953,0.0195 -2.792581,2.792575 -5.894023,4.066405 -10.046875,4.066405 -4.636882,0 -7.894773,-1.50898 -10.755859,-4.923824 -0.0052,-0.0065 -0.0104,-0.01302 -0.01563,-0.0195 -2.359434,-2.775804 -3.423829,-5.655968 -3.423829,-9.167969 0,-3.511064 1.063761,-6.390896 3.421876,-9.166015 l 0.002,-0.002 c 2.924516,-3.434132 6.200139,-4.94336 10.771484,-4.94336 z"
         style="color:#000000;font-style:normal;font-variant:normal;font-weight:normal;font-stretch:normal;font-size:medium;line-height:7.00000003%;font-family:Aharoni;-inkscape-font-specification:'Aharoni, Bold';text-indent:0;text-align:start;text-decoration:none;text-decoration-line:none;text-decoration-style:solid;text-decoration-color:#000000;letter-spacing:-10.96000004px;word-spacing:-12.86999989px;text-transform:none;writing-mode:lr-tb;direction:ltr;baseline-shift:baseline;text-anchor:start;white-space:normal;clip-rule:nonzero;display:inline;overflow:visible;visibility:visible;opacity:1;isolation:auto;mix-blend-mode:normal;color-interpolation:sRGB;color-interpolation-filters:linearRGB;solid-color:#000000;solid-opacity:1;fill:#000000;fill-opacity:1;fill-rule:nonzero;stroke:none;stroke-width:7;stroke-linecap:round;stroke-linejoin:round;stroke-miterlimit:4;stroke-dasharray:none;stroke-dashoffset:0;stroke-opacity:1;color-rendering:auto;image-rendering:auto;shape-rendering:auto;text-rendering:auto;enable-background:accumulate"
         sodipodi:nodetypes="scscscccccccccccccscccccccccccccscscccccccscscsccccccsccsccscccc" /><path
         inkscape:connector-curvature="0"
         id="path3353-9"
         d="m 156.91636,41.687158 c -6.68119,0 -12.69806,1.46763 -17.8086,4.496094 a 3.50035,3.50035 0 0 0 -0.0176,0.0098 c -1.43574,0.861444 -2.7366,2.084867 -4.04687,3.285156 v -3.207031 a 3.50035,3.50035 0 0 0 -3.5,-3.5 h -27.37891 a 3.50035,3.50035 0 0 0 -3.5,3.5 v 77.458983 a 3.50035,3.50035 0 0 0 3.5,3.5 h 27.37891 a 3.50035,3.50035 0 0 0 3.5,-3.5 V 90.593442 c 0,-4.248052 0.50494,-7.472157 1.2793,-9.537109 a 3.50035,3.50035 0 0 0 0.0117,-0.0332 c 2.23883,-6.156787 6.17427,-8.714844 14.23828,-8.714844 3.4086,0 6.75775,0.777401 10.17578,2.412109 a 3.50035,3.50035 0 0 0 5.01172,-3.15625 V 45.437195 a 3.50035,3.50035 0 0 0 -3.22461,-3.488281 c -2.17698,-0.171866 -4.03774,-0.261719 -5.61914,-0.261719 z m 0,7 c 0.47752,0 1.26483,0.06702 1.84375,0.08789 v 17.851561 c -2.69563,-0.783287 -5.42279,-1.318359 -8.1875,-1.318359 -9.95803,0 -17.70096,4.782573 -20.8086,13.304688 -1.22501,3.274273 -1.7207,7.220756 -1.7207,11.980468 V 120.23013 H 107.6644 V 49.771142 h 20.37891 v 9.1875 a 3.50035,3.50035 0 0 0 6.44531,1.890625 c 2.68823,-4.187438 5.47109,-7.010939 8.19727,-8.648438 3.90227,-2.310073 8.56262,-3.513672 14.23047,-3.513671 z"
         style="color:#000000;font-style:normal;font-variant:normal;font-weight:normal;font-stretch:normal;font-size:medium;line-height:7.00000003%;font-family:Aharoni;-inkscape-font-specification:'Aharoni, Bold';text-indent:0;text-align:start;text-decoration:none;text-decoration-line:none;text-decoration-style:solid;text-decoration-color:#000000;letter-spacing:-10.96000004px;word-spacing:-12.86999989px;text-transform:none;writing-mode:lr-tb;direction:ltr;baseline-shift:baseline;text-anchor:start;white-space:normal;clip-rule:nonzero;display:inline;overflow:visible;visibility:visible;opacity:1;isolation:auto;mix-blend-mode:normal;color-interpolation:sRGB;color-interpolation-filters:linearRGB;solid-color:#000000;solid-opacity:1;fill:#000000;fill-opacity:1;fill-rule:nonzero;stroke:none;stroke-width:7;stroke-linecap:round;stroke-linejoin:round;stroke-miterlimit:4;stroke-dasharray:none;stroke-dashoffset:0;stroke-opacity:1;color-rendering:auto;image-rendering:auto;shape-rendering:auto;text-rendering:auto;enable-background:accumulate" /><path
         inkscape:connector-curvature="0"
         id="path3355-0"
         d="m 204.21909,40.351221 c -14.92407,0 -27.34753,5.249444 -36.2832,15.564453 -7.18051,8.25951 -10.8711,18.17209 -10.8711,29.169922 0,10.948214 3.69321,20.854194 10.86719,29.164064 a 3.50035,3.50035 0 0 0 0.004,0.004 c 8.93567,10.315 21.35913,15.56445 36.2832,15.56445 6.76358,0 13.29354,-1.55791 19.42774,-4.625 a 3.50035,3.50035 0 0 0 1.93359,-3.13086 V 98.77319 a 3.50035,3.50035 0 0 0 -5.4707,-2.890634 c -4.47876,3.053714 -8.50945,4.400394 -12.21875,4.400394 -4.70329,0 -8.14156,-1.37475 -11.06641,-4.2539 -2.91475,-2.869214 -4.29688,-6.251977 -4.29688,-10.943364 0,-4.691385 1.38213,-8.07611 4.29688,-10.945313 2.92485,-2.879148 6.36312,-4.251953 11.06641,-4.251953 3.76117,0 7.76688,1.362998 12.17968,4.457031 a 3.50035,3.50035 0 0 0 5.50977,-2.865234 V 48.191155 a 3.50035,3.50035 0 0 0 -1.88486,-3.103606 c -6.04757,-3.144742 -12.60078,-4.736328 -19.47656,-4.736328 z m 0,7 c 5.10302,0 9.83837,1.067497 14.36133,3.101562 v 15.029296 c -3.52495,-1.642189 -7.09964,-2.59375 -10.68945,-2.59375 -6.20329,0 -11.77875,2.131449 -15.97657,6.263672 -4.20792,4.142169 -6.38672,9.7184 -6.38672,15.933594 0,6.215197 2.1788,11.789465 6.38672,15.931645 4.19782,4.13222 9.77328,6.26562 15.97657,6.26562 3.57039,0 7.14427,-0.94232 10.68945,-2.57031 v 14.92773 c -4.6204,2.00884 -9.35254,3.17774 -14.36133,3.17774 -13.34401,0 -23.34736,-4.32129 -30.99414,-13.14844 -6.17778,-7.15827 -9.16016,-15.168245 -9.16016,-24.583985 0,-9.477961 2.98418,-17.482186 9.15625,-24.580078 a 3.50035,3.50035 0 0 0 0.004,-0.0059 c 7.64678,-8.827151 17.65013,-13.148437 30.99414,-13.148437 z"
         style="color:#000000;font-style:normal;font-variant:normal;font-weight:normal;font-stretch:normal;font-size:medium;line-height:7.00000003%;font-family:Aharoni;-inkscape-font-specification:'Aharoni, Bold';text-indent:0;text-align:start;text-decoration:none;text-decoration-line:none;text-decoration-style:solid;text-decoration-color:#000000;letter-spacing:-10.96000004px;word-spacing:-12.86999989px;text-transform:none;writing-mode:lr-tb;direction:ltr;baseline-shift:baseline;text-anchor:start;white-space:normal;clip-rule:nonzero;display:inline;overflow:visible;visibility:visible;opacity:1;isolation:auto;mix-blend-mode:normal;color-interpolation:sRGB;color-interpolation-filters:linearRGB;solid-color:#000000;solid-opacity:1;fill:#000000;fill-opacity:1;fill-rule:nonzero;stroke:none;stroke-width:7;stroke-linecap:round;stroke-linejoin:round;stroke-miterlimit:4;stroke-dasharray:none;stroke-dashoffset:0;stroke-opacity:1;color-rendering:auto;image-rendering:auto;shape-rendering:auto;text-rendering:auto;enable-background:accumulate" /><path
         inkscape:connector-curvature="0"
         id="path3357-6"
         d="m 262.62143,40.267237 c -10.23528,0 -19.55355,3.506131 -27.41015,10.283203 l 0.002,-0.0039 c -9.91434,8.532342 -14.98828,20.318566 -14.98828,34.371093 0,13.823827 4.94879,25.477207 14.62305,34.009767 8.06851,7.11226 17.5942,10.8086 28.02343,10.8086 6.46657,0 12.42351,-1.44458 17.6504,-4.36914 a 3.50035,3.50035 0 0 0 0.008,-0.004 c 0.93872,-0.52803 1.81475,-1.29819 2.71289,-1.98242 v 0.34961 a 3.50035,3.50035 0 0 0 3.5,3.5 h 27.3789 a 3.50035,3.50035 0 0 0 3.5,-3.5 V 46.27106 a 3.50035,3.50035 0 0 0 -3.5,-3.5 h -27.3789 a 3.50035,3.50035 0 0 0 -3.5,3.5 v 0.08008 c -1.18278,-0.819423 -2.36309,-1.646639 -3.57422,-2.228516 l -0.004,-0.002 c -5.30816,-2.561828 -11.04057,-3.853515 -17.04297,-3.853515 z m 0,7 c 5.01399,0 9.6308,1.047047 14.00391,3.158203 a 3.50035,3.50035 0 0 0 0.006,0.0039 c 2.27691,1.09292 4.84765,3.019497 7.5918,5.867187 a 3.50035,3.50035 0 0 0 6.01953,-2.429687 v -4.095703 h 20.3789 v 70.458983 h -20.3789 v -5.0957 a 3.50035,3.50035 0 0 0 -6.23633,-2.18165 c -2.41363,3.02989 -4.75683,5.09658 -6.90234,6.30469 -5.3e-4,3e-4 -10e-4,-2.9e-4 -0.002,0 -4.12122,2.30556 -8.78951,3.47852 -14.23047,3.47852 -8.8237,0 -16.43706,-2.92788 -23.39257,-9.0586 -8.2437,-7.27083 -12.25391,-16.54134 -12.25391,-28.759759 0,-12.43488 4.10591,-21.793385 12.55469,-29.064453 a 3.50035,3.50035 0 0 0 0.004,-0.002 c 6.7226,-5.798883 14.15359,-8.583985 22.83789,-8.583984 z m 7.26172,16.623045 c -6.33424,0 -12.01714,2.608336 -16.10351,7.408204 a 3.50035,3.50035 0 0 0 -0.002,0.002 c -3.31643,3.901694 -5.08984,8.643718 -5.08984,13.701171 0,5.054187 1.77168,9.793098 5.08399,13.693353 4.03845,4.81382 9.73511,7.41798 16.11132,7.41798 5.74778,0 10.9893,-2.11703 14.98438,-6.10742 4.04951,-3.9899 6.21094,-9.243948 6.21094,-15.003913 0,-5.713584 -2.16823,-10.936778 -6.21094,-14.919921 -4.03428,-4.029706 -9.26984,-6.191407 -14.98438,-6.191407 z m 0,7 c 4.07486,0 7.18034,1.283851 10.04492,4.148438 a 3.50035,3.50035 0 0 0 0.0195,0.02148 c 2.85025,2.804279 4.13086,5.866545 4.13086,9.941406 0,4.139744 -1.28743,7.227819 -4.13086,10.025389 a 3.50035,3.50035 0 0 0 -0.0195,0.0195 c -2.79258,2.792575 -5.89207,4.066405 -10.04492,4.066405 -4.63688,0 -7.89477,-1.50898 -10.75586,-4.923824 a 3.50035,3.50035 0 0 0 -0.0156,-0.0195 c -2.35943,-2.775804 -3.42383,-5.655967 -3.42383,-9.167969 0,-3.511065 1.06376,-6.390896 3.42188,-9.166015 l 0.002,-0.002 c 2.92452,-3.434131 6.20013,-4.94336 10.77148,-4.94336 z"
         style="color:#000000;font-style:normal;font-variant:normal;font-weight:normal;font-stretch:normal;font-size:medium;line-height:7.00000003%;font-family:Aharoni;-inkscape-font-specification:'Aharoni, Bold';text-indent:0;text-align:start;text-decoration:none;text-decoration-line:none;text-decoration-style:solid;text-decoration-color:#000000;letter-spacing:-10.96000004px;word-spacing:-12.86999989px;text-transform:none;writing-mode:lr-tb;direction:ltr;baseline-shift:baseline;text-anchor:start;white-space:normal;clip-rule:nonzero;display:inline;overflow:visible;visibility:visible;opacity:1;isolation:auto;mix-blend-mode:normal;color-interpolation:sRGB;color-interpolation-filters:linearRGB;solid-color:#000000;solid-opacity:1;fill:#000000;fill-opacity:1;fill-rule:nonzero;stroke:none;stroke-width:7;stroke-linecap:round;stroke-linejoin:round;stroke-miterlimit:4;stroke-dasharray:none;stroke-dashoffset:0;stroke-opacity:1;color-rendering:auto;image-rendering:auto;shape-rendering:auto;text-rendering:auto;enable-background:accumulate" /><path
         inkscape:connector-curvature="0"
         id="path3359-3"
         d="m 381.61802,10.773553 c -1.93292,1.94e-4 -3.49981,1.567084 -3.5,3.5 l 0.3374,32.077668 c -1.18324,-0.819746 -2.36455,-1.646505 -3.57617,-2.228516 -5.30927,-2.563093 -11.04299,-3.855468 -17.04688,-3.855468 -10.23528,0 -19.55355,3.506131 -27.41015,10.283203 -9.91155,8.532052 -14.98633,20.316665 -14.98633,34.367187 0,13.823833 4.95075,25.477203 14.625,34.009763 8.06852,7.11226 17.5942,10.8086 28.02344,10.8086 6.46656,0 12.4235,-1.44458 17.65039,-4.36914 0.003,-0.001 0.005,-0.003 0.008,-0.004 0.93872,-0.52803 1.81475,-1.29819 2.71289,-1.98242 v 0.34961 c 1.9e-4,1.93292 1.56708,3.49981 3.5,3.5 h 27.37695 c 1.93292,-1.9e-4 3.49981,-1.56708 3.5,-3.5 l -0.3374,-109.456577 c -1.9e-4,-1.932916 -1.56708,-3.499806 -3.5,-3.5 h -27.37695 z m 3.5,7.000001 h 20.37695 l 0.3374,102.456576 h -20.37695 v -5.0957 c 7.4e-4,-3.3129 -4.1742,-4.77296 -6.23828,-2.18165 -2.41363,3.02989 -4.75488,5.09658 -6.90039,6.30469 -5.3e-4,3e-4 -0.001,-2.9e-4 -0.002,0 -4.12122,2.30556 -8.78952,3.47852 -14.23046,3.47852 -8.82423,0 -16.43869,-2.92714 -23.39454,-9.0586 -8.24369,-7.27083 -12.2539,-16.54135 -12.2539,-28.759764 0,-12.43488 4.10786,-21.793385 12.55664,-29.064453 l 0.002,-0.002 c 6.7226,-5.798883 14.1536,-8.583984 22.83789,-8.583984 5.01399,0 9.6308,1.047047 14.00391,3.158203 0.003,0.0013 0.005,0.0026 0.008,0.0039 2.27692,1.09292 4.84766,3.019499 7.5918,5.867187 2.18605,2.266033 6.01901,0.71892 6.01953,-2.429687 l -0.3374,-36.093291 z m -20.02393,46.116729 c -6.33424,0 -12.01715,2.608334 -16.10352,7.408204 l -0.002,0.002 c -3.31644,3.901694 -5.08984,8.643716 -5.08984,13.701171 0,5.054188 1.77168,9.793098 5.08398,13.693362 4.03846,4.81381 9.73512,7.41797 16.11133,7.41797 5.74779,0 10.99125,-2.11703 14.98633,-6.10742 4.04951,-3.9899 6.20898,-9.243948 6.20898,-15.003912 0,-5.713584 -2.16627,-10.936778 -6.20898,-14.919921 -4.03428,-4.029709 -9.27178,-6.191407 -14.98633,-6.191407 z m 0,7 c 4.07486,0 7.18229,1.283852 10.04688,4.148438 0.006,0.0072 0.013,0.01435 0.0195,0.02148 2.85025,2.804279 4.1289,5.866545 4.1289,9.941406 0,4.139744 -1.28547,7.227819 -4.1289,10.025389 -0.007,0.006 -0.013,0.013 -0.0195,0.0195 -2.79258,2.792584 -5.89402,4.066414 -10.04688,4.066414 -4.63688,0 -7.89477,-1.50899 -10.75586,-4.923834 -0.005,-0.007 -0.0104,-0.013 -0.0156,-0.0195 -2.35944,-2.775805 -3.42383,-5.655969 -3.42383,-9.167969 0,-3.511063 1.06376,-6.390896 3.42187,-9.166015 l 0.002,-0.002 c 2.92451,-3.43413 6.20013,-4.94336 10.77148,-4.94336 z"
         style="color:#000000;font-style:normal;font-variant:normal;font-weight:normal;font-stretch:normal;font-size:medium;line-height:7.00000003%;font-family:Aharoni;-inkscape-font-specification:'Aharoni, Bold';text-indent:0;text-align:start;text-decoration:none;text-decoration-line:none;text-decoration-style:solid;text-decoration-color:#000000;letter-spacing:-10.96000004px;word-spacing:-12.86999989px;text-transform:none;writing-mode:lr-tb;direction:ltr;baseline-shift:baseline;text-anchor:start;white-space:normal;clip-rule:nonzero;display:inline;overflow:visible;visibility:visible;opacity:1;isolation:auto;mix-blend-mode:normal;color-interpolation:sRGB;color-interpolation-filters:linearRGB;solid-color:#000000;solid-opacity:1;fill:#000000;fill-opacity:1;fill-rule:nonzero;stroke:none;stroke-width:7;stroke-linecap:round;stroke-linejoin:round;stroke-miterlimit:4;stroke-dasharray:none;stroke-dashoffset:0;stroke-opacity:1;color-rendering:auto;image-rendering:auto;shape-rendering:auto;text-rendering:auto;enable-background:accumulate"
         sodipodi:nodetypes="ccccscscscccccccccccccccccccscsccscccccccccscscsccccccsccsccscccc" /><path
         inkscape:connector-curvature="0"
         id="path3361-8"
         d="m 457.21909,40.601221 c -14.34809,0 -26.06005,4.1671 -34.3125,12.664062 -8.161,8.402809 -12.25781,19.507483 -12.25781,32.570313 0,11.079564 3.2854,20.828824 9.82226,28.697264 8.73867,10.55556 21.96233,15.78711 38.58399,15.78711 13.16783,0 24.18064,-3.75348 32.35156,-11.375 4.67642,-4.36044 8.06761,-10.38063 10.3125,-17.82422 a 3.50035,3.50035 0 0 0 -3.34961,-4.51172 h -26.46094 a 3.50035,3.50035 0 0 0 -2.96679,1.64454 c -2.54009,4.06413 -5.48595,5.70117 -10.22071,5.70117 -5.01667,0 -8.12911,-1.22388 -10.1289,-3.29297 -1.51236,-1.56477 -2.58033,-3.8594 -3.01367,-7.152344 h 53.875 a 3.50035,3.50035 0 0 0 3.5,-3.500002 v -3.505859 c 0,-9.645223 -2.1718,-18.333043 -6.57618,-25.814454 a 3.50035,3.50035 0 0 0 -0.004,-0.0039 c -7.83973,-13.267418 -21.44643,-20.08399 -39.1542,-20.08399 z m 0,7 c 16.0136,0 26.50083,5.427785 33.12891,16.644531 3.71757,6.317394 5.60547,13.653937 5.60547,22.257813 v 0.0059 h -54.09375 a 3.50035,3.50035 0 0 0 -3.5,3.5 c 0,6.378785 1.57878,11.769735 5.19921,15.515625 3.62044,3.74589 8.93834,5.42969 15.16211,5.42969 6.00443,0 11.20968,-2.71482 14.82618,-7.34571 h 19.85937 c -1.80924,4.33403 -4.08487,7.70989 -6.77344,10.2168 -6.74203,6.28921 -15.70596,9.49414 -27.57812,9.49414 -15.20492,0 -25.90795,-4.45029 -33.19531,-13.25586 a 3.50035,3.50035 0 0 0 -0.004,-0.004 c -5.48263,-6.59946 -8.20703,-14.492645 -8.20703,-24.224614 0,-11.643912 3.41593,-20.626632 10.27929,-27.693359 6.77193,-6.972574 16.26136,-10.541016 29.29102,-10.541016 z m 1.08398,10.361328 c -5.3548,0 -10.17377,1.671228 -13.75195,5.042969 a 3.50035,3.50035 0 0 0 -0.0117,0.01172 c -2.88259,2.741984 -4.6712,6.466694 -5.38086,10.724609 a 3.50035,3.50035 0 0 0 3.45313,4.076172 h 31.30078 a 3.50035,3.50035 0 0 0 3.41211,-4.275391 c -1.09514,-4.818592 -3.2309,-8.834337 -6.55078,-11.568359 -3.31989,-2.734022 -7.65062,-4.011719 -12.47071,-4.011719 z m 0,6.999999 c 3.63808,0 6.13849,0.86531 8.02149,2.416016 1.02325,0.842677 1.88478,2.011191 2.62305,3.439453 h -21.58594 c 0.53818,-1.052713 1.19297,-1.955344 1.99609,-2.720703 2.20811,-2.0783 4.95477,-3.134766 8.94531,-3.134766 z"
         style="color:#000000;font-style:normal;font-variant:normal;font-weight:normal;font-stretch:normal;font-size:medium;line-height:7.00000003%;font-family:Aharoni;-inkscape-font-specification:'Aharoni, Bold';text-indent:0;text-align:start;text-decoration:none;text-decoration-line:none;text-decoration-style:solid;text-decoration-color:#000000;letter-spacing:-10.96000004px;word-spacing:-12.86999989px;text-transform:none;writing-mode:lr-tb;direction:ltr;baseline-shift:baseline;text-anchor:start;white-space:normal;clip-rule:nonzero;display:inline;overflow:visible;visibility:visible;opacity:1;isolation:auto;mix-blend-mode:normal;color-interpolation:sRGB;color-interpolation-filters:linearRGB;solid-color:#000000;solid-opacity:1;fill:#000000;fill-opacity:1;fill-rule:nonzero;stroke:none;stroke-width:7;stroke-linecap:round;stroke-linejoin:round;stroke-miterlimit:4;stroke-dasharray:none;stroke-dashoffset:0;stroke-opacity:1;color-rendering:auto;image-rendering:auto;shape-rendering:auto;text-rendering:auto;enable-background:accumulate" /></g></g></svg>