<?xml version="1.0" encoding="UTF-8" standalone="no"?>
<!-- Created with Inkscape (http://www.inkscape.org/) -->

<svg
   xmlns:dc="http://purl.org/dc/elements/1.1/"
   xmlns:cc="http://creativecommons.org/ns#"
   xmlns:rdf="http://www.w3.org/1999/02/22-rdf-syntax-ns#"
   xmlns:svg="http://www.w3.org/2000/svg"
   xmlns="http://www.w3.org/2000/svg"
   xmlns:sodipodi="http://sodipodi.sourceforge.net/DTD/sodipodi-0.dtd"
   xmlns:inkscape="http://www.inkscape.org/namespaces/inkscape"
   width="274.24991"
   height="49.612206"
   viewBox="0 0 72.561952 13.126563"
   version="1.1"
   id="svg9136"
   inkscape:version="0.92.5 (2060ec1f9f, 2020-04-08)"
   sodipodi:docname="logo.svg">
  <defs
     id="defs9130" />
  <sodipodi:namedview
     id="base"
     pagecolor="#ffffff"
     bordercolor="#666666"
     borderopacity="1.0"
     inkscape:pageopacity="0.0"
     inkscape:pageshadow="2"
     inkscape:zoom="5.6"
     inkscape:cx="117.57968"
     inkscape:cy="46.630726"
     inkscape:document-units="px"
     inkscape:current-layer="text4594"
     showgrid="false"
     units="px"
     inkscape:window-width="3840"
     inkscape:window-height="2065"
     inkscape:window-x="0"
     inkscape:window-y="0"
     inkscape:window-maximized="1"
     fit-margin-top="0"
     fit-margin-left="0"
     fit-margin-right="0"
     fit-margin-bottom="0" />
  <metadata
     id="metadata9133">
    <rdf:RDF>
      <cc:Work
         rdf:about="">
        <dc:format>image/svg+xml</dc:format>
        <dc:type
           rdf:resource="http://purl.org/dc/dcmitype/StillImage" />
        <dc:title />
      </cc:Work>
    </rdf:RDF>
  </metadata>
  <g
     inkscape:label="Layer 1"
     inkscape:groupmode="layer"
     id="layer1"
     transform="translate(-15.007203,-270.97123)">
    <g
       aria-label="All Games"
       style="font-style:normal;font-variant:normal;font-weight:normal;font-stretch:normal;font-size:20.44046021px;line-height:12.77528667px;font-family:'namco regular';-inkscape-font-specification:'namco regular, ';letter-spacing:0px;word-spacing:0px;fill:#fbe01b;fill-opacity:1;stroke:none;stroke-width:0.51101148px;stroke-linecap:butt;stroke-linejoin:miter;stroke-opacity:1"
       id="text4594">
      <path
         style="font-style:normal;font-variant:normal;font-weight:normal;font-stretch:normal;font-family:'Bauhaus 93';-inkscape-font-specification:'Bauhaus 93, ';fill:#0f0f0f;fill-opacity:1;stroke-width:0.41777995px"
         d="m 19.999699,270.97107 c -1.490608,0 -2.764926,0.43916 -3.668421,1.35575 -0.898501,0.91162 -1.324063,2.19153 -1.324063,3.69377 v 7.08251 4.3e-4 c 3.25e-4,0.37495 0.341166,0.71579 0.716109,0.71611 h 4.33e-4 3.313113 4.22e-4 c 0.374943,-4.3e-4 0.715784,-0.34116 0.716109,-0.71611 v -4.3e-4 -1.93539 h 0.05197 v 1.93539 4.3e-4 c 3.26e-4,0.37495 0.341166,0.71579 0.716109,0.71611 h 4.22e-4 3.312682 4.32e-4 c 0.374943,-4.3e-4 0.715784,-0.34116 0.716109,-0.71611 v -4.3e-4 -7.19658 c 0,-1.53917 -0.332249,-2.79605 -1.124228,-3.66462 -0.793064,-0.87519 -1.994162,-1.27083 -3.427184,-1.27083 z m 24.642601,0 c -1.77541,0 -3.339297,0.63517 -4.542961,1.86315 -4.33e-4,5.7e-4 -8.44e-4,10e-4 -0.0013,0.002 -0.02072,0.0212 -0.03926,0.0444 -0.05535,0.0693 -1.157271,1.21979 -1.755418,2.78126 -1.755417,4.55986 -1e-6,1.80285 0.599688,3.4045 1.771894,4.67942 1.172556,1.27531 2.682769,1.95315 4.379038,1.95315 1.317609,0 2.501107,-0.44132 3.424651,-1.30083 0.514213,-0.47586 0.881776,-1.04258 1.120848,-1.66289 0.238472,0.5303 0.56024,1.02054 0.989032,1.44362 0.945527,0.93292 2.180062,1.41363 3.563646,1.41363 0.256902,0 0.525351,-0.0264 0.808211,-0.0756 h 4.32e-4 c 0.08942,-0.0156 0.162883,-0.0726 0.239548,-0.12083 0.03736,0.006 0.07194,0.0249 0.109847,0.0249 h 4.33e-4 3.052017 4.33e-4 c 0.374943,-4.3e-4 0.715783,-0.34117 0.716108,-0.71611 v -4.3e-4 -3.98992 c 0,-1.46968 -0.440231,-2.73632 -1.34772,-3.65195 -0.903226,-0.92205 -2.162035,-1.37307 -3.620259,-1.37307 -1.349478,0 -2.566481,0.49665 -3.516328,1.44025 -6.49e-4,5.6e-4 -0.0011,10e-4 -0.0017,0.002 l -4.32e-4,8.4e-4 c -2.17e-4,2.8e-4 -6.49e-4,5.6e-4 -8.66e-4,8.4e-4 -0.01817,0.0184 -0.03472,0.0383 -0.04943,0.0596 -0.537064,0.55392 -0.907989,1.20286 -1.133946,1.91005 -0.183213,-0.37568 -0.399155,-0.74298 -0.679351,-1.09043 l -4.33e-4,-4.3e-4 c -0.13391,-0.16559 -0.344723,-0.26625 -0.557679,-0.26617 h -3.158062 -4.33e-4 c -0.374943,3.3e-4 -0.715783,0.34117 -0.71611,0.71611 v 4.4e-4 2.14832 c -0.02604,-0.0234 -0.06192,-0.0316 -0.08703,-0.057 -0.317003,-0.32078 -0.479098,-0.71937 -0.479098,-1.37307 0,-0.62474 0.16398,-1.02056 0.521345,-1.37434 0.364057,-0.35522 0.773867,-0.5205 1.406025,-0.5205 0.292232,0 0.670158,0.0873 1.123804,0.29996 2.17e-4,1.5e-4 6.49e-4,2.8e-4 8.66e-4,4.4e-4 0.217196,0.10136 0.485545,0.0838 0.687803,-0.0448 0.202258,-0.12861 0.331737,-0.36446 0.33207,-0.60415 v -4.3e-4 -3.31311 -4.3e-4 c -1.6e-4,-0.29831 -0.207098,-0.58498 -0.490079,-0.67935 -0.724723,-0.24158 -1.407969,-0.37137 -2.054115,-0.37137 z m -19.745175,0.99411 v 11.13792 4.3e-4 c 3.24e-4,0.37495 0.341166,0.71579 0.716109,0.71611 h 4.33e-4 3.051596 4.33e-4 c 0.374942,-4.3e-4 0.715783,-0.34116 0.716109,-0.71611 v -4.3e-4 -11.13792 -4.4e-4 c -3.25e-4,-0.37494 -0.341167,-0.71578 -0.716109,-0.71611 h -4.33e-4 c -1.654449,0 -2.561854,0 -3.103064,0 -0.670032,0 -0.665074,0.31469 -0.665074,0.71655 z m 5.546782,-0.71654 c -0.325602,0 -0.716109,0.0481 -0.716109,0.71654 v 11.13792 4.3e-4 c 3.25e-4,0.37495 0.341166,0.71579 0.716109,0.71611 h 4.33e-4 3.051596 4.33e-4 c 0.374943,-4.3e-4 0.715783,-0.34116 0.716109,-0.71611 v -4.3e-4 -11.13792 -4.4e-4 c -3.25e-4,-0.37494 -0.341166,-0.71578 -0.716109,-0.71611 h -4.33e-4 -3.051606 -4.33e-4 z m 45.89055,2.82346 c -1.345708,0 -2.553496,0.48009 -3.502809,1.38912 -0.02152,0.0145 -0.04175,0.0309 -0.06041,0.049 -6.49e-4,5.7e-4 -0.0011,10e-4 -0.0017,0.002 -0.759779,0.75478 -1.216994,1.69045 -1.37645,2.72713 -0.02857,-1.11921 -0.288711,-2.07644 -0.880033,-2.78248 l -4.32e-4,-4.3e-4 c -0.742061,-0.89281 -1.803148,-1.368 -2.998786,-1.368 -0.841559,0 -1.641025,0.35677 -2.385763,0.93538 -0.718306,-0.58464 -1.546246,-0.93538 -2.44491,-0.93538 -1.054527,0 -2.017471,0.41549 -2.752478,1.18253 -0.73566,0.76218 -1.121694,1.74538 -1.121694,2.82261 v 5.00981 4.3e-4 c 4.33e-4,0.37494 0.341167,0.71579 0.71611,0.71611 h 4.33e-4 3.051596 4.32e-4 c 0.18921,-1.6e-4 0.368984,-0.0875 0.501488,-0.2218 0.132501,0.13425 0.312276,0.22164 0.501488,0.2218 h 4.32e-4 3.051596 4.33e-4 c 0.18921,-1.6e-4 0.368986,-0.0875 0.501487,-0.2218 0.132502,0.13425 0.312278,0.22164 0.501488,0.2218 h 4.33e-4 3.051596 4.32e-4 c 0.374944,-4.3e-4 0.715783,-0.34117 0.71611,-0.71611 v -4.3e-4 -3.12891 c 0.176595,0.98571 0.63233,1.87052 1.358282,2.58686 0.948435,0.93587 2.176956,1.42208 3.547592,1.42208 1.145457,0 2.220043,-0.3828 3.143275,-1.10775 0.299946,-0.23587 0.352176,-0.72744 0.108579,-1.02114 -1.44e-4,-2.2e-4 -2.16e-4,-6.5e-4 -4.32e-4,-8.7e-4 l -1.337159,-1.60755 h 2.03637 v 3.07779 4.3e-4 c 2.17e-4,0.37495 0.341165,0.71579 0.716108,0.71611 h 4.33e-4 0.424171 c 1.125568,0 2.0618,-0.17164 2.796418,-0.60541 0.0015,-10e-4 0.0031,-0.002 0.0046,-0.003 l 4.33e-4,-4.3e-4 c 1.287646,-0.77414 2.01634,-2.15018 2.171985,-3.87797 v -4.4e-4 c 0.01789,-0.19382 0.05114,-0.34083 0.08112,-0.43389 0.01679,-0.0521 0.0011,-0.0277 0.0076,-0.0393 0.0445,-0.0128 0.174721,-0.0659 0.388684,-0.0659 h 4.32e-4 c 0.374941,-3.3e-4 0.715783,-0.34117 0.716108,-0.71611 v -4.4e-4 -3.21503 -4.4e-4 c -4.33e-4,-0.37494 -0.341167,-0.71578 -0.716108,-0.7161 h -4.32e-4 -0.921859 c -1.193468,0 -2.236416,0.3442 -2.988223,1.07522 -0.400734,0.38816 -0.704364,0.81317 -0.865246,1.28815 -0.0011,0.003 -0.0019,0.006 -0.003,0.009 -1.45e-4,4.3e-4 -2.17e-4,8.4e-4 -4.33e-4,10e-4 -0.150583,0.46681 -0.216748,1.07815 -0.261518,1.93117 -0.02677,0.41258 -0.154408,0.60935 -0.151671,0.60668 0.009,-0.009 -0.190945,0.0573 -0.453748,0.0824 0.0096,-0.14186 0.02239,-0.29852 0.02239,-0.40136 0,-1.34009 -0.486715,-2.54266 -1.416586,-3.46774 -4.33e-4,-5e-4 -8.66e-4,-10e-4 -0.0013,-0.002 -0.02066,-0.0206 -0.0433,-0.0392 -0.0676,-0.0553 -2.17e-4,-1.4e-4 -6.49e-4,-2.8e-4 -8.66e-4,-4.3e-4 -0.917084,-0.88976 -2.094303,-1.36082 -3.408594,-1.36082 z m -56.532902,1.74401 c 0.0073,0.027 0.02507,0.14224 0.02662,0.1728 -0.01482,0.0444 -0.02252,0.0909 -0.02281,0.13773 v 0.67048 h -0.05196 v -0.67048 c 0,-0.19883 0.02651,-0.23731 0.04816,-0.31053 z m 34.504628,2.46181 c -0.01661,0.0403 -0.05014,0.12111 -0.05028,0.12125 0.02357,-0.0551 0.05038,-0.12169 0.05028,-0.12125 z m -0.792156,0.3701 c 0.077,0.0231 0.159612,0.0327 0.237858,0.0334 0.0303,0.0343 0.03195,0.0363 0.07351,0.0828 0.08854,0.10699 0.152939,0.25517 0.152939,0.56908 v 0.082 c -0.04332,0.0154 -0.09365,0.002 -0.133081,0.0262 -2.16e-4,1.4e-4 -6.49e-4,2.2e-4 -8.65e-4,4.3e-4 -0.125868,0.0779 -0.221932,0.1052 -0.365448,0.1052 -0.180832,0 -0.199977,-0.0129 -0.294471,-0.10984 -0.09201,-0.0944 -0.114915,-0.13434 -0.114915,-0.33208 0,-0.15982 0.01425,-0.19804 0.141532,-0.32531 0.118509,-0.11851 0.168732,-0.12958 0.302921,-0.13181 z m 30.723402,4.76096 -0.03169,0.0211 c 0.01086,-0.007 0.02144,-0.0136 0.03169,-0.0211 z"
         id="path4625"
         inkscape:connector-curvature="0"
         sodipodi:nodetypes="scsccccccccccccccccccscssccccscscccscccccccccscscccccccccccccccscsccsccccccccccccccccccccsccccccccccccccccccccccccscscsccccccccccccccccccccscccccccccscccccccscccccccscccccccscccccccccccscccccccscccscsccccccc" />
      <path
         id="path4621"
         style="font-style:normal;font-variant:normal;font-weight:normal;font-stretch:normal;font-family:'Bauhaus 93';-inkscape-font-specification:'Bauhaus 93, ';fill:#f6ce44;fill-opacity:1;stroke-width:0.41777995px;stroke:none"
         d="m 86.852601,275.0822 v 3.21495 q -0.644621,0 -0.889414,0.24479 -0.236633,0.23664 -0.301912,0.94654 -0.212153,2.35817 -1.827787,3.32918 -0.856775,0.5059 -2.43161,0.5059 H 80.97757 v -3.23126 h 0.138716 q 0.734379,0 1.044451,-0.30192 0.31823,-0.31006 0.367189,-1.07708 0.06527,-1.24844 0.228473,-1.75435 0.171355,-0.50591 0.68542,-1.00365 0.897575,-0.8731 2.488729,-0.8731 z m -6.372775,4.44707 h -4.626587 q -0.106077,-0.35087 -0.106077,-0.64461 0,-0.408 0.146876,-0.79966 h 1.550355 q -0.163195,-0.90574 -1.01997,-0.90574 -0.571184,0 -0.930213,0.48958 -0.359031,0.48143 -0.359031,1.24029 0,0.7915 0.342711,1.28109 0.35087,0.48958 0.913894,0.48958 0.456947,0 0.881254,-0.45695 l 1.738031,2.08891 q -1.215806,0.95469 -2.700883,0.95469 -1.811468,0 -3.043593,-1.2158 -1.232124,-1.21582 -1.232124,-3.01096 0,-1.78699 1.240284,-3.01912 1.248444,-1.23212 3.059912,-1.23212 1.77067,0 2.970155,1.20764 1.207645,1.19949 1.207645,2.962 0,0.17952 -0.03264,0.57118 z m -9.79172,3.57399 h -3.051751 v -4.38996 q 0,-0.50591 -0.106077,-0.70174 -0.106077,-0.19583 -0.38351,-0.19583 -0.514065,0 -0.514065,0.90572 v 4.38181 h -3.051752 v -4.38996 q 0,-0.50591 -0.114237,-0.70174 -0.106077,-0.19583 -0.383509,-0.19583 -0.505905,0 -0.505905,0.90572 v 4.38181 h -3.051753 v -5.0101 q 0,-1.37085 0.922054,-2.32554 0.922053,-0.96285 2.235776,-0.96285 1.354521,0 2.431609,1.14237 1.199486,-1.14237 2.398972,-1.14237 1.525876,0 2.447929,1.10972 0.726219,0.86494 0.726219,2.52138 z M 54.2217,280.0515 v 3.15782 q -0.375348,0.0653 -0.68542,0.0653 -1.835947,0 -3.059912,-1.20765 -1.223964,-1.20765 -1.223964,-3.02727 0,-1.77067 1.232124,-3.0028 1.240284,-1.23212 3.010954,-1.23212 1.974663,0 3.10887,1.15869 1.142367,1.15053 1.142367,3.14967 v 3.99013 h -3.051752 v -3.76982 q 0,-0.64462 -0.31823,-1.02813 -0.310072,-0.38351 -0.840457,-0.38351 -0.481426,0 -0.832295,0.35087 -0.35087,0.35087 -0.35087,0.8323 0,0.5059 0.318231,0.8323 0.31823,0.32638 0.807816,0.32638 0.399828,0 0.742538,-0.21215 z m -9.824357,-3.19047 h 3.15783 q 1.01997,1.26476 1.01997,2.66824 0,1.63196 -1.199486,2.74168 -1.191325,1.10973 -2.937515,1.10973 -2.268415,0 -3.85141,-1.72171 -1.582994,-1.7217 -1.582994,-4.19411 0,-2.48057 1.607474,-4.12885 1.615634,-1.64827 4.030924,-1.64827 0.824136,0 1.827787,0.33455 v 3.31286 q -0.783337,-0.36719 -1.427959,-0.36719 -1.166846,0 -1.909384,0.72623 -0.73438,0.72622 -0.73438,1.8849 0,1.18317 0.685421,1.87675 0.68542,0.69357 1.852267,0.69357 0.742538,0 0.742538,-0.43246 0,-0.32639 -0.489586,-0.32639 h -0.791497 z m -10.901447,-4.89586 v 11.13809 h -3.051752 v -11.13809 z m -4.830581,0 v 11.13809 h -3.051753 v -11.13809 z m -8.67383,5.54864 v 2.93752 h -0.954693 v 2.65193 h -3.312865 v -7.08269 q 0,-2.05625 1.117888,-3.19047 1.126048,-1.14236 3.157829,-1.14236 1.958344,0 2.896717,1.03629 0.938373,1.02813 0.938373,3.18231 v 7.19692 h -3.312865 v -6.97661 q 0,-0.65278 -0.155036,-0.90573 -0.155035,-0.25296 -0.554864,-0.25296 -0.775177,0 -0.775177,1.15869 v 1.38716 z"
         inkscape:connector-curvature="0" />
    </g>
  </g>
</svg>
