<?xml version="1.0" encoding="utf-8"?>
<!-- Generator: Adobe Illustrator 19.0.0, SVG Export Plug-In . SVG Version: 6.00 Build 0)  -->
<svg version="1.1" baseProfile="tiny" id="Layer_1" xmlns:svg="http://www.w3.org/2000/svg"
	 xmlns="http://www.w3.org/2000/svg" xmlns:xlink="http://www.w3.org/1999/xlink" x="0px" y="0px" viewBox="94 357.6 800 79.4"
	 xml:space="preserve">
<g id="g3">
	<path id="path5" fill="#4E4E4E" d="M133.7,357.6h720.6c21.8,0,39.7,17.9,39.7,39.7l0,0c0,21.8-17.9,39.7-39.7,39.7H133.7
		c-21.8,0-39.7-17.9-39.7-39.7l0,0C94,375.4,111.9,357.6,133.7,357.6L133.7,357.6z"/>
	<polygon id="polygon7" fill="#FF0000" points="535.5,371.1 753.1,371.1 753.1,377 535.5,377 	"/>
	<polygon id="polygon9" fill="#FD4120" points="535.5,382.8 753.1,382.8 753.1,388.6 535.5,388.6 	"/>
	<polygon id="polygon11" fill="#FFCC00" points="535.5,394.4 753.1,394.4 753.1,400.2 535.5,400.2 	"/>
	<polygon id="polygon13" fill="#4DAC26" points="535.5,406 753.1,406 753.1,411.8 535.5,411.8 	"/>
	<polygon id="polygon15" fill="#00A0C6" points="535.5,417.6 753.1,417.6 753.1,423.4 535.5,423.4 	"/>
	<path id="path17" fill="#FFFFFF" d="M817,405.7c0,7.4-6.5,11-19.4,11h-6.6c-7.3,0-12.4-1.3-15.2-3.8c-2.8-2.5-4.2-6.9-4.2-13.1
		v-8.3c0-6.2,1.4-10.5,4.2-13c2.8-2.5,7.9-3.8,15.2-3.8h6.6c6,0,10.5,0.8,13.6,2.4c3,1.6,4.5,4,4.5,7.1v3h-15.6v-1.1
		c0-1-0.3-1.6-0.8-1.9c-0.6-0.3-1.7-0.5-3.4-0.5h-3.7c-2.1,0-3.5,0.2-4,0.5c-0.6,0.3-0.9,1.1-0.9,2.4v5.7c2.3-1.2,5.1-1.9,8.4-1.9
		h5.5c5.5,0,9.5,0.9,12.1,2.8c2.5,1.9,3.8,4.7,3.8,8.6L817,405.7L817,405.7z M467.8,385.6h-7.5v21.5h7.8v-11.2
		c0-2.9,1.8-4.4,5.1-4.4c3.3,0,4.1,1,4.2,3.7h7.3c0-7.3-1-10.1-8.8-10.1c-4.7,0-6.4,1-8.1,4.6L467.8,385.6L467.8,385.6z
		 M160.2,398.5h-12.6v10.3h22.6L160.2,398.5L160.2,398.5z M170.2,386h-22.6v10.3H160L170.2,386L170.2,386z M503.8,402.8
		c-7.5,0-8.6-0.7-8.6-4.4h20.5c-0.3-10.4-0.3-12.9-14.2-12.9c-11.7,0-14.3,2.1-14.3,11.4c0,8.6,3.4,10.8,12.9,10.9
		c10.6,0,15.6-0.5,15.6-7.5H508C507.7,402,507.1,402.8,503.8,402.8L503.8,402.8z M495,393.9c0.3-2.3,1-3.1,6.2-3.1
		c5.7,0,6.5,0.3,6.9,3.1H495L495,393.9z M203.6,394.7h7.8c-0.7-7.3-2.8-9.1-13.7-9.1c-12.4,0-15.2,2-15.2,11.1
		c0,9.1,2.6,11.2,14.2,11.2c12.2,0,14.7-1.6,14.7-9.3h-7.8c0,2.1-0.8,3.1-6.8,3.1c-5.2,0-6.4-1.3-6.4-5.5c0-4.1,1.1-4.1,7.3-4.1
		C202.3,392.1,203.1,392.6,203.6,394.7L203.6,394.7z M385.3,396c0-8.8-2.6-10.6-15.2-10.6c-13.5,0-15.2,2.3-15.2,11.4
		c0,9.1,2.3,11.1,15.2,11.1C383.8,407.9,385.3,405.6,385.3,396L385.3,396z M363,396.5c0-4.4,1-4.9,6.7-4.9c6.4,0,7.5,0.2,7.5,4.9
		c0,4.4-0.8,5.2-6.8,5.2C363.8,401.7,363,401,363,396.5L363,396.5z M455.6,396c0-8.8-2.4-10.6-15-10.6c-13.4,0-15,2.1-15,11.2
		c0,9.3,2.3,11.2,15,11.2C454.3,407.9,455.6,405.6,455.6,396L455.6,396z M433.4,396.5c0-4.4,1-4.9,6.7-4.9c6.4,0,7.5,0.2,7.5,4.9
		c0,4.4-0.8,5.2-6.8,5.2C434.2,401.7,433.4,401,433.4,396.5L433.4,396.5z M246.1,396c0-8.8-2.4-10.6-15-10.6
		c-13.5,0-15.2,2.1-15.2,11.2c0,9.3,2.3,11.2,15.2,11.2C244.8,407.9,246.1,405.6,246.1,396L246.1,396z M224.1,396.5
		c0-4.4,1-4.9,6.5-4.9c6.4,0,7.5,0.2,7.5,4.9c0,4.4-0.8,5.2-6.8,5.2C224.9,401.7,224.1,401,224.1,396.5L224.1,396.5z M412.5,376.4
		V389c-1.8-2.4-3.4-3.7-9.9-3.7c-10.4,0-12.4,2.8-12.4,11.2c0,8.6,2.8,11.1,12.9,11.1c6.4,0,8.3-1.6,9.8-4.4v3.9h7.8v-30.6H412.5
		L412.5,376.4z M406.8,391.4c4.4,0,5.9,0.6,5.9,4.1c0,5.2-0.3,5.7-6.5,5.7c-6.2,0-7.8-0.2-7.8-4.6
		C398.4,391.6,400.3,391.4,406.8,391.4L406.8,391.4z M146.9,385.3V372c-2.7-0.7-4.5-1-7.2-1c-14,0-26.3,11.7-26.3,26.3
		c0,15,12.4,26.2,26.4,26.2c2.5,0,4-0.3,7.1-1.1v-13.6c-3.1,1.6-4.7,2-7.2,2c-7.8,0-13.7-6.5-13.7-13.7c0-7.5,5.8-13.9,13.6-13.9
		C142.2,383.2,144.5,383.9,146.9,385.3L146.9,385.3z M258.5,385.6h-7.3v21.5h7.8V396c0-3.3,1.6-4.4,6-4.4c4.1,0,5.2,1.5,5.2,5.5v9.9
		h8v-11.4c0-3.1,2.4-4.1,6.2-4.1c3.6,0,5.2,1,5.2,4.1v11.4h7.8v-12.7c0-6.4-3.9-9.3-11.1-9.3c-6.2,0-8.5,2.3-9.3,4.7
		c-1.6-2.8-3.9-4.7-10.1-4.7c-5.9,0-7.5,2-8.5,5.5L258.5,385.6L258.5,385.6z M311.2,385.6h-7.3v21.5h7.8V396c0-3.3,2-4.4,5.9-4.4
		c4.1,0,5.2,1.3,5.2,5.5v9.9h8v-11.4c0-3.1,2.3-4.1,6-4.1c3.6,0,5.4,1.1,5.4,4.1v11.4h7.8v-12.7c0-6.4-3.9-9.3-11.1-9.3
		c-6.2,0-8.3,2.1-9.3,4.7c-1.6-2.8-3.9-4.7-10.1-4.7c-5.7,0-7.2,2-8.3,5.5V385.6L311.2,385.6z M873.3,408.6h-6.6v7.7h-15.6v-7.7H823
		l0.1-11.2l22.3-22.1h21.3v24.2h6.6V408.6L873.3,408.6z M851.2,399.5V386l-13.5,13.6H851.2L851.2,399.5z M801.4,405.1v-3
		c0-1.1-0.3-1.7-1-2c-0.7-0.3-2.2-0.4-4.5-0.4h-3c-2.3,0-3.8,0.1-4.5,0.4c-0.7,0.3-1.1,0.9-1.1,2v3c0,1.1,0.4,1.8,1.1,2.1
		c0.7,0.3,2.2,0.4,4.5,0.4h3c2.4,0,3.9-0.1,4.5-0.4C801.1,407,801.4,406.2,801.4,405.1L801.4,405.1z"/>
</g>
</svg>
