<?xml version="1.0" encoding="UTF-8" standalone="no"?>
<!-- Generator: Adobe Illustrator 13.0.0, SVG Export Plug-In . SVG Version: 6.00 Build 14948)  -->

<svg
   xmlns:dc="http://purl.org/dc/elements/1.1/"
   xmlns:cc="http://creativecommons.org/ns#"
   xmlns:rdf="http://www.w3.org/1999/02/22-rdf-syntax-ns#"
   xmlns:svg="http://www.w3.org/2000/svg"
   xmlns="http://www.w3.org/2000/svg"
   xmlns:sodipodi="http://sodipodi.sourceforge.net/DTD/sodipodi-0.dtd"
   xmlns:inkscape="http://www.inkscape.org/namespaces/inkscape"
   version="1.1"
   x="0px"
   y="0px"
   width="373.831px"
   height="120.104px"
   viewBox="0 0 373.831 120.104"
   enable-background="new 0 0 373.831 120.104"
   xml:space="preserve"
   id="svg2"
   inkscape:version="0.91 r13725"
   sodipodi:docname="system.svg"><metadata
     id="metadata59"><rdf:RDF><cc:Work
         rdf:about=""><dc:format>image/svg+xml</dc:format><dc:type
           rdf:resource="http://purl.org/dc/dcmitype/StillImage" /><dc:title></dc:title></cc:Work></rdf:RDF></metadata><defs
     id="defs57" /><sodipodi:namedview
     pagecolor="#ffffff"
     bordercolor="#666666"
     borderopacity="1"
     objecttolerance="10"
     gridtolerance="10"
     guidetolerance="10"
     inkscape:pageopacity="0"
     inkscape:pageshadow="2"
     inkscape:window-width="1366"
     inkscape:window-height="706"
     id="namedview55"
     showgrid="false"
     inkscape:zoom="2.1790248"
     inkscape:cx="178.37905"
     inkscape:cy="104.29902"
     inkscape:window-x="-8"
     inkscape:window-y="-8"
     inkscape:window-maximized="1"
     inkscape:current-layer="svg2" /><g
     id="Layer_10" /><g
     id="Layer_9"><circle
       cx="114.279"
       cy="10.335"
       r="10"
       id="circle6"
       style="fill:#0080e8" /><circle
       cx="139.612"
       cy="10"
       r="10"
       id="circle8"
       style="fill:#0080e8" /></g><g
     id="Layer_2" /><g
     id="Layer_1" /><g
     id="Layer_3"><g
       id="g13"><g
         id="g15"><path
           fill="none"
           d="M126.419,29.906c-55.287,0-55.475,85.041-0.353,85.041C181.106,114.947,181.92,29.906,126.419,29.906"
           id="path17" /><path
           d="M126.419,24.906c-16.061,0.162-30.552,7.196-39.236,20.915c-7.67,12.116-9.111,27.837-5.282,41.478     c4.06,14.461,14.838,25.804,29.094,30.463c15.53,5.076,33.615,1.679,46.006-8.884c14.374-12.252,18.58-33.677,13.679-51.324     C165.053,37.291,147.043,25.113,126.419,24.906c-6.451-0.065-6.445,9.935,0,10c14.639,0.147,27.712,7.472,33.298,21.396     c5.004,12.474,3.672,27.057-3.529,38.379c-8.21,12.908-24.446,17.367-38.892,14.402c-14.073-2.889-23.502-13.993-26.563-27.657     c-2.375-10.605-0.264-22.11,5.525-31.254c6.572-10.381,18.226-15.146,30.161-15.266     C132.864,34.841,132.871,24.841,126.419,24.906L126.419,24.906z"
           id="path19"
           style="fill:#0080e8" /></g></g><g
       id="g21"><g
         id="g23"><path
           fill="none"
           d="M178.397,29.906c48.716,110.468,51.349,116.265,104.041,0"
           id="path25" /><path
           d="M174.08,32.43c9.586,21.736,18.656,43.999,30.382,64.701c5.241,9.255,12.593,21.893,24.465,22.801     c11.569,0.885,20.021-12.921,25.149-21.195c12.939-20.876,22.563-43.995,32.68-66.306c2.642-5.825-5.975-10.913-8.635-5.047     c-9.592,21.154-18.926,42.655-30.574,62.786c-3.169,5.476-6.566,10.959-10.974,15.536c-1.543,1.604-2.545,2.424-4.268,3.411     c-1.201,0.688-2.065,0.857-3.379,0.815c-0.582-0.051-0.556-0.041,0.08,0.027c-0.424-0.069-0.837-0.193-1.248-0.316     c-0.165-0.049-0.753-0.289-1.728-0.876c-1.604-0.966-2.992-2.424-4.532-4.152c-4.226-4.744-7.359-10.551-10.383-16.096     c-10.744-19.703-19.356-40.625-28.401-61.135C180.117,21.493,171.503,26.587,174.08,32.43L174.08,32.43z"
           id="path27"
           style="fill:#0080e8" /></g></g></g><g
     id="Layer_4" /><g
     id="Layer_5" /><g
     id="Layer_6"><g
       id="g32"><g
         id="g34"><path
           fill="none"
           d="M332.958,87.255c57.148-12.938,36.661-53.914,3.234-57.148s-51.756,33.427-40.974,59.305     c10.782,25.879,32.349,26.958,51.756,24.801"
           id="path36" /><path
           d="M334.288,92.076c16.119-3.771,37.565-12.266,39.429-31.426c1.37-14.087-9.762-25.941-21.77-31.407     c-17.438-7.938-37.938-4.605-51.258,9.353c-13.145,13.773-17.356,35.85-9.787,53.338c4.761,10.999,12.667,20.207,24.025,24.604     c10.208,3.952,21.323,3.826,32.048,2.674c6.342-0.682,6.408-10.688,0-10c-9.54,1.025-19.151,1.334-28.321-1.903     c-10.214-3.605-17.066-13.445-20.092-23.452c-5.278-17.456,3.682-39.335,20.828-46.488c13.844-5.774,32.803-1.287,41.323,11.511     c9.107,13.679-4.028,24.854-16.167,29.692c-4.179,1.665-8.544,2.838-12.917,3.862C325.351,83.902,328.014,93.544,334.288,92.076     L334.288,92.076z"
           id="path38"
           style="fill:#0080e8" /></g></g></g><g
     id="Layer_7" /><g
     id="Layer_8"><g
       id="g42"><g
         id="g44"><path
           fill="none"
           d="M10.822,29.224c-19.854,55.69,12.757,96.622,61.59,83.698"
           id="path46" /><path
           d="M6,27.895c-8.2,23.498-9.661,51.774,6.323,72.444c14.666,18.965,39.169,23.091,61.417,17.404     c6.244-1.596,3.594-11.24-2.658-9.643c-18.687,4.776-39.448,1.689-51.529-14.664C6.14,75.279,8.629,50.654,15.643,30.553     C17.773,24.448,8.111,21.847,6,27.895L6,27.895z"
           id="path48"
           style="fill:#0080e8" /></g></g><g
       id="g50"><path
         d="M364.519,100.526c5.073,0,9.115,4.124,9.115,9.28c0,5.238-4.042,9.32-9.156,9.32c-5.073,0-9.197-4.082-9.197-9.32    c0-5.156,4.124-9.28,9.197-9.28H364.519z M364.478,101.969c-4.083,0-7.424,3.506-7.424,7.837c0,4.412,3.341,7.877,7.465,7.877    c4.125,0.041,7.424-3.465,7.424-7.836c0-4.372-3.299-7.878-7.424-7.878H364.478z M362.746,115.208h-1.649v-10.352    c0.866-0.124,1.69-0.248,2.928-0.248c1.567,0,2.599,0.33,3.218,0.783c0.618,0.454,0.948,1.155,0.948,2.146    c0,1.36-0.907,2.186-2.021,2.516v0.083c0.907,0.164,1.525,0.989,1.731,2.516c0.248,1.608,0.495,2.227,0.66,2.557h-1.732    c-0.247-0.33-0.494-1.278-0.701-2.639c-0.247-1.32-0.907-1.815-2.227-1.815h-1.155V115.208z M362.746,109.476h1.196    c1.361,0,2.516-0.495,2.516-1.773c0-0.908-0.659-1.814-2.516-1.814c-0.536,0-0.907,0.041-1.196,0.082V109.476z"
         id="path52"
         style="fill:#0080e8" /></g></g><g
     id="Layer_11" /></svg>