<?xml version="1.0" encoding="UTF-8" standalone="no"?>
<!-- Generator: Adobe Illustrator 19.0.0, SVG Export Plug-In . SVG Version: 6.00 Build 0)  -->

<svg
   xmlns:dc="http://purl.org/dc/elements/1.1/"
   xmlns:cc="http://creativecommons.org/ns#"
   xmlns:rdf="http://www.w3.org/1999/02/22-rdf-syntax-ns#"
   xmlns:svg="http://www.w3.org/2000/svg"
   xmlns="http://www.w3.org/2000/svg"
   xmlns:sodipodi="http://sodipodi.sourceforge.net/DTD/sodipodi-0.dtd"
   xmlns:inkscape="http://www.inkscape.org/namespaces/inkscape"
   version="1.1"
   id="Layer_1"
   x="0px"
   y="0px"
   viewBox="-131 270 820 254"
   enable-background="new -131 270 1150 254"
   xml:space="preserve"
   sodipodi:docname="logo.svg"
   width="820"
   height="254"
   inkscape:version="0.92.5 (2060ec1f9f, 2020-04-08)"><metadata
   id="metadata26"><rdf:RDF><cc:Work
       rdf:about=""><dc:format>image/svg+xml</dc:format><dc:type
         rdf:resource="http://purl.org/dc/dcmitype/StillImage" /><dc:title></dc:title></cc:Work></rdf:RDF></metadata><defs
   id="defs24" /><sodipodi:namedview
   pagecolor="#ffffff"
   bordercolor="#666666"
   borderopacity="1"
   objecttolerance="10"
   gridtolerance="10"
   guidetolerance="10"
   inkscape:pageopacity="0"
   inkscape:pageshadow="2"
   inkscape:window-width="3840"
   inkscape:window-height="2065"
   id="namedview22"
   showgrid="false"
   inkscape:zoom="1.4998879"
   inkscape:cx="464.18809"
   inkscape:cy="153.04193"
   inkscape:window-x="0"
   inkscape:window-y="0"
   inkscape:window-maximized="1"
   inkscape:current-layer="Layer_1" />
<path
   d="m 30.15,401.3 c 3.7,2.6 7.8,4.9 12.5,6.3 l -23.1,34 -17.5,-32.5 h 15.9 c 3.3,0 6.9,-0.8 9.5,-3.4 1.3,-1.3 2.1,-2.8 2.7,-4.4 z m -97.2,-131.2 c -15.5,0 -27,6.4 -34,14.8 -7,8.3 -10,18.2 -10,26.3 v 55 0 c 0,9.9 3.7,20 10.3,28 5.8,7.2 14.3,12.7 24.3,13.7 l 68.4,113.3 1.8,2.9 h 3.4 44 3.3 l 1.8,-2.8 44.9,-71.4 v 58.2 0 c 0,3.7 0.8,7.5 3.4,10.8 2.6,3.3 7,5.2 11.6,5.2 h 147 c 5.3,0 10.5,-1.7 15.1,-3.9 1.3,-0.6 2.5,-1.4 3.7,-2.2 2.1,3.2 6.3,6 11.2,6 h 37.9 c 0,0 0,0 0.1,0 4.9,0 9.3,-2 12,-5.1 0.4,-0.5 0.7,-1 1.1,-1.5 6.4,3.7 14.2,6.6 21.9,6.6 h 84 0.4 0.3 c 13.8,-1.7 19.2,-4.3 22.9,-6.6 2.8,3.9 6.7,6.6 11.4,6.6 h 38 c 3.4,0 6.2,-1 9.4,-3.2 3.2,-2.2 6.6,-6.3 6.6,-11.8 v -62 h 25 c 1.6,0 3.6,0.7 4.9,1.8 1.3,1.1 2.1,2.3 2.1,4.2 v 56 0 c 0,3.7 1.4,6.5 3.8,9.3 2.4,2.8 6,5.8 11,5.8 h 39 c 4.4,0 7.6,-2.1 10.2,-4.6 2.6,-2.5 4.8,-5.9 4.8,-10.4 v -77 -0.4 l -0.1,-0.4 c -0.7,-5.6 -1.2,-13 -6.8,-22.3 h 4.6 c 0.1,0 0.2,0 0.3,0 11.5,0.5 21.5,-5.8 28.8,-13.5 7.3,-7.8 12.3,-17.3 12.3,-26.5 v -58 0 c 0,-9.2 -3.9,-19.1 -11.2,-27.1 -7.3,-8 -18.3,-13.9 -31.8,-13.9 h -85 c -9.2,0 -17.2,3.4 -23.7,7.8 -0.4,-0.9 -0.8,-1.7 -1.4,-2.6 -2,-2.7 -5.6,-5.3 -9.9,-5.3 h -86 c -7.8,0 -14.2,2.3 -19,5 v -5 h -6 -137.1 -6 v 6 71 h -19 v 0 0 c -1.2,0 -3.6,-0.5 -5,-1.4 -1.4,-0.9 -2,-1.5 -2,-3.6 v -58 c 0,-8.5 -7.4,-14 -15,-14 h -38 c -4.5,0 -8.2,2.3 -10.7,5 -0.4,0.4 -0.6,0.9 -0.9,1.3 -5.4,-3.1 -11.7,-6.1 -19.4,-6.1 h -90 c -9,0 -16.2,3.7 -21.8,7.8 -0.6,-1.3 -1.5,-2.5 -2.6,-3.7 -2.1,-2.2 -5.6,-4.1 -9.6,-4.1 z"
   id="path2"
   inkscape:connector-curvature="0"
   style="fill:#ffffff" />
<path
   d="m 24.95,290.1 c 5,-4.9 14.8,-14 27,-14 h 90 c 8.3,0 15.2,4.7 22,9 0.3,-4 4,-9 9,-9 h 38 c 4.5,0 9,3.4 9,8 v 58 c 0,8.1 8.1,11.1 13,11 h 25 v -77 h 137 v 11 c 3,-2.9 10.9,-11 25,-11 h 86 c 4.5,0 6.8,4.8 7,8 v 5 c 6,-6.3 16.4,-13 28,-13 h 85 c 23.8,0 37,20.1 37,35 v 58 c 0,13.4 -16.7,35 -35,34 h -17 c 12.3,13.3 12,20.8 13,29 v 77 c 0,4.3 -5,9 -9,9 h -39 c -5.6,0 -9,-6.1 -9,-9 v -56 c 0,-7.6 -7,-12 -13,-12 h -31 v 68 c 0,6.2 -7.3,9 -10,9 h -38 c -3.5,0 -7.3,-3.2 -9,-9 -6.5,3.1 -6.1,6.5 -26,9 h -84 c -8.4,0 -19.4,-5.2 -25,-10 0,5 -3.3,10.1 -10,10 h -38 c -6.5,0 -8,-6.5 -8,-10 -3.8,4.5 -14.1,10 -22,10 h -147 c -6.5,0 -9,-4.4 -9,-10 v -79 l -56,89 h -44 l -70,-116 c -19,0 -32,-19.3 -32,-36 v -55 c 0,-13 10.1,-35 38,-35 h 85 c 4.6,0 7,3.9 7,6 z m 28,113 c -11.9,0 -21.5,-7 -28,-14 v 7 c -0.1,4.9 -2.2,7 -7,7 h -26 l 27,50 z"
   id="path4"
   inkscape:connector-curvature="0" />
<linearGradient
   id="SVGID_1_"
   gradientUnits="userSpaceOnUse"
   x1="69"
   y1="399"
   x2="819"
   y2="399"
   gradientTransform="matrix(1,0,0,-1,-165.05,796.1)">
	<stop
   offset="0"
   style="stop-color:#F090A7"
   id="stop6" />
	<stop
   offset="0.1495"
   style="stop-color:#EF7B75"
   id="stop8" />
	<stop
   offset="0.2564"
   style="stop-color:#EE6E5E"
   id="stop10" />
	<stop
   offset="0.5894"
   style="stop-color:#FCE72C"
   id="stop12" />
	<stop
   offset="0.8131"
   style="stop-color:#ACDEE4"
   id="stop14" />
	<stop
   offset="1"
   style="stop-color:#A3DDF2"
   id="stop16" />
</linearGradient>
<path
   d="m 272.95,400.1 v 31 h -88 c -10.1,0 -9.5,10 0,10 0,0 38.7,0 58,0 45.2,0 45.2,67 0,67 -30.3,0 -91,0 -91,0 v -30 c 0,0 58,0 87,0 10.4,0 9.7,-10 0,-10 -18,0 -54,0 -54,0 -46.4,0 -46.3,-68 0,-68 29.3,0 88,0 88,0 z m 202,0 h 103 c 18.5,0 35,14.4 35,34 v 74 h -37 v -64 c 0,-10.7 -6.4,-12.8 -14,-13 h -50 v 77 h -37 z m -97,30.1 c -9.8,0.1 -14,6.2 -14,13.9 v 20 c 0,8.3 7.1,14 14,14 h 41 c 4.9,0 13,-3.3 13,-14 v -20 c 0,-6.7 -4.1,-14.2 -13,-14.1 z m -14,-30.1 h 69 c 21.9,0 36,14.9 36,33 v 40 c 0,28.4 -24.5,35 -36,35 h -69 c -25.9,0 -37,-20.9 -37,-35 v -40 c 0,-23 20.6,-33 37,-33 z m -81,0 h 37 v 108 h -37 z m -178,0 h 37 v 108 h -37 z m -168,0 h 41 l 40,70 47,-70 h 34 l -64,108 H 1.35 Z m 330,-114 h 117 v 27 h -81 v 10 h 81 v 27 h -81 c 0,9.9 7.3,14 15,14 h 66 v 29 h -85 c -19,0 -32.1,-15.8 -32.1,-33 z m -94,0 h 36 v 64 c 0,9.2 6.9,14.1 15,14 h 39 v 29 h -56 c -15.9,0 -34,-7.1 -34,-33 z m 332,0 h -81 c -23.3,0 -32.9,21.4 -33,33 v 40 c 0,25.9 21.3,35.2 33,35 h 81 v -30 h -62 c -4.4,0 -15,-3.3 -15,-13 v -21 c 0,-10 7.5,-14 15,-14 h 62 z m 58,30.1 c -9.8,0.1 -14,6.2 -14,13.9 v 20 c 0,8.3 7.1,14 14,14 h 41 c 4.9,0 13,-3.3 13,-14 v -20 c 0,-6.7 -4.1,-14.2 -13,-14.1 z m -14,-30.1 h 69 c 21.9,0 36,14.9 36,33 v 40 c 0,28.4 -24.5,35 -36,35 h -69 c -25.9,0 -37,-20.9 -37,-35 v -40 c 0,-23 20.6,-33 37,-33 z m -474,30.1 c -9.8,0.1 -14,6.2 -14,13.9 v 20 c 0,8.3 7.1,14 14,14 h 41 c 4.9,0 13,-3.3 13,-14 v -20 c 0,-6.7 -4.1,-14.2 -13,-14.1 z m -14,-30.1 h 69 c 21.9,0 36,14.9 36,33 v 40 c 0,28.4 -24.5,35 -36,35 h -69 c -25.9,0 -36,-20.9 -36,-35 v -40 c 0,-23 19.6,-33 36,-33 z m -43,0 h -81 c -23.3,0 -32.9,21.4 -33,33 v 40 c 0,25.9 21.3,35.2 33,35 h 81 v -30 h -63 c -4.4,0 -15,-3.3 -15,-13 v -21 c 0,-10 7.5,-14 15,-14 h 63 z"
   id="path19"
   inkscape:connector-curvature="0"
   style="fill:url(#SVGID_1_)" />
</svg>