<?xml version="1.0" encoding="UTF-8" standalone="no"?>
<svg
   viewBox="0 0 1758.6 493.19999"
   version="1.1"
   id="svg45"
   sodipodi:docname="logo.svg"
   inkscape:version="1.1.2 (0a00cf5339, 2022-02-04)"
   width="1758.6"
   height="493.20001"
   inkscape:export-filename="/home/leon/Leon/Programmering/EmulationStation-DE/emulationstation-de/themes/slate-DE/cps/images/logo.png"
   inkscape:export-xdpi="32.700729"
   inkscape:export-ydpi="32.700729"
   xmlns:inkscape="http://www.inkscape.org/namespaces/inkscape"
   xmlns:sodipodi="http://sodipodi.sourceforge.net/DTD/sodipodi-0.dtd"
   xmlns="http://www.w3.org/2000/svg"
   xmlns:svg="http://www.w3.org/2000/svg">
  <defs
     id="defs49" />
  <sodipodi:namedview
     id="namedview47"
     pagecolor="#ffffff"
     bordercolor="#666666"
     borderopacity="1.0"
     inkscape:pageshadow="2"
     inkscape:pageopacity="0.0"
     inkscape:pagecheckerboard="0"
     showgrid="false"
     inkscape:zoom="0.31347975"
     inkscape:cx="-322.18988"
     inkscape:cy="-208.94492"
     inkscape:window-width="3840"
     inkscape:window-height="2065"
     inkscape:window-x="0"
     inkscape:window-y="0"
     inkscape:window-maximized="1"
     inkscape:current-layer="svg45"
     width="17595px" />
  <linearGradient
     id="a"
     gradientUnits="userSpaceOnUse"
     x1="317.84"
     y1="224.944"
     x2="317.84"
     y2="60.902">
    <stop
       offset="0"
       stop-color="#eb6101"
       id="stop2" />
    <stop
       offset="1"
       stop-color="#9a4400"
       id="stop4" />
  </linearGradient>
  <linearGradient
     id="b"
     gradientUnits="userSpaceOnUse"
     x1="216.145"
     y1="254.308"
     x2="216.145"
     y2="30.393">
    <stop
       offset="0"
       stop-color="#eb6101"
       id="stop9" />
    <stop
       offset="1"
       stop-color="#9a4400"
       id="stop11" />
  </linearGradient>
  <linearGradient
     id="c"
     gradientUnits="userSpaceOnUse"
     x1="80.224998"
     y1="306.48001"
     x2="80.224998">
    <stop
       offset="0"
       stop-color="#eb6101"
       id="stop16" />
    <stop
       offset="1"
       stop-color="#9a4400"
       id="stop18" />
  </linearGradient>
  <linearGradient
     id="d"
     gradientUnits="userSpaceOnUse"
     x1="270.914"
     y1="224.944"
     x2="270.914"
     y2="30.393">
    <stop
       offset="0"
       stop-color="#029205"
       id="stop23" />
    <stop
       offset="1"
       stop-color="#d6edd9"
       id="stop25" />
  </linearGradient>
  <linearGradient
     id="e"
     gradientUnits="userSpaceOnUse"
     x1="153.621"
     y1="254.308"
     x2="153.621">
    <stop
       offset="0"
       stop-color="#029205"
       id="stop30" />
    <stop
       offset="1"
       stop-color="#d6edd9"
       id="stop32" />
  </linearGradient>
  <g
     id="g887">
    <path
       id="rect4789_00000023279678385123697860000008904562164264106648_"
       class="st0"
       d="M 206.18618,350.3304 H 1552.2764 c 39.44,0 71.4134,31.97342 71.4134,71.41342 v 0 c 0,39.43999 -31.9734,71.3676 -71.3676,71.3676 H 206.18618 c -39.43999,0 -71.36761,-31.97342 -71.36761,-71.3676 v 0 c 0.0458,-39.44 31.97342,-71.41342 71.36761,-71.41342 z"
       style="clip-rule:evenodd;fill:#034ea2;fill-rule:evenodd;stroke-width:0.458072" />
    <g
       id="g25"
       transform="matrix(0.45807194,0,0,0.45807194,0.00799029,0.08859535)"
       style="fill:#fdfdfd;fill-opacity:1">
      <path
         class="st1"
         d="m 907.1,849.5 h 60.8 c 35.9,0 59,18.4 59,49.9 v 0.4 c 0,33.5 -25.7,51.1 -61,51.1 h -19.5 v 40.6 h -39.3 z m 58,70.6 c 14,0 22.5,-7.3 22.5,-18.5 v -0.4 c 0,-12.2 -8.5,-18.7 -22.7,-18.7 H 946.5 V 920 Z"
         id="path5"
         style="fill:#fdfdfd;fill-opacity:1" />
      <path
         class="st1"
         d="m 1104.4,849.5 h 39.3 V 957 h 68.7 v 34.5 h -108.1 z"
         id="path7"
         style="fill:#fdfdfd;fill-opacity:1" />
      <path
         class="st1"
         d="m 1339.1,848.5 h 37.9 l 60.4,142.9 h -42.2 l -10.3,-25.3 h -54.7 l -10.1,25.3 h -41.4 z m 34.5,87 -15.8,-40.4 -16,40.4 z"
         id="path9"
         style="fill:#fdfdfd;fill-opacity:1" />
      <path
         class="st1"
         d="m 1530.8,938.3 -53.9,-88.8 h 44.8 l 29.2,51.7 29.4,-51.7 h 44 l -53.9,88.2 v 53.7 h -39.5 z"
         id="path11"
         style="fill:#fdfdfd;fill-opacity:1" />
      <path
         class="st1"
         d="m 1803.4,970.4 21.9,-26.2 c 14,11.2 29.6,17 46,17 10.5,0 16.2,-3.6 16.2,-9.7 v -0.4 c 0,-5.9 -4.7,-9.1 -23.9,-13.6 -30.2,-6.9 -53.5,-15.4 -53.5,-44.6 v -0.4 c 0,-26.4 20.9,-45.4 54.9,-45.4 24.1,0 43,6.5 58.4,18.9 l -19.7,27.8 c -13,-9.1 -27.2,-14 -39.7,-14 -9.5,0 -14.2,4.1 -14.2,9.1 v 0.4 c 0,6.5 4.9,9.3 24.5,13.8 32.6,7.1 52.9,17.6 52.9,44.2 v 0.4 c 0,29 -22.9,46.2 -57.4,46.2 -25,0 -49,-7.9 -66.4,-23.5 z"
         id="path13"
         style="fill:#fdfdfd;fill-opacity:1" />
      <path
         class="st1"
         d="m 2042,938.3 -53.9,-88.8 h 44.8 l 29.2,51.7 29.4,-51.7 h 44 l -53.9,88.2 v 53.7 h -39.5 z"
         id="path15"
         style="fill:#fdfdfd;fill-opacity:1" />
      <path
         class="st1"
         d="m 2190.6,970.4 21.9,-26.2 c 14,11.2 29.6,17 46,17 10.5,0 16.2,-3.6 16.2,-9.7 v -0.4 c 0,-5.9 -4.7,-9.1 -23.9,-13.6 -30.2,-6.9 -53.5,-15.4 -53.5,-44.6 v -0.4 c 0,-26.4 20.9,-45.4 54.9,-45.4 24.1,0 43,6.5 58.4,18.9 l -19.7,27.8 c -13,-9.1 -27.2,-14 -39.7,-14 -9.5,0 -14.2,4.1 -14.2,9.1 v 0.4 c 0,6.5 4.9,9.3 24.5,13.8 32.6,7.1 52.9,17.6 52.9,44.2 v 0.4 c 0,29 -22.9,46.2 -57.4,46.2 -25,0 -48.9,-7.9 -66.4,-23.5 z"
         id="path17"
         style="fill:#fdfdfd;fill-opacity:1" />
      <path
         class="st1"
         d="m 2425,884 h -42.6 v -34.5 h 124.5 V 884 h -42.6 V 991.5 H 2425 Z"
         id="path19"
         style="fill:#fdfdfd;fill-opacity:1" />
      <path
         class="st1"
         d="m 2585,849.5 h 114.2 V 883 H 2624 v 21.5 h 68.1 v 31 H 2624 V 958 h 76.2 v 33.5 H 2585 Z"
         id="path21"
         style="fill:#fdfdfd;fill-opacity:1" />
      <path
         class="st1"
         d="m 2781,849.5 h 41.6 l 33.9,54.9 33.9,-54.9 h 41.6 v 141.9 h -39.1 v -81.5 l -36.3,55.6 h -0.8 l -36.1,-55.2 v 81.1 h -38.5 V 849.5 Z"
         id="path23"
         style="fill:#fdfdfd;fill-opacity:1" />
    </g>
    <path
       class="st2"
       d="M 690.45979,76.861452 V 186.29484 c 0,0 73.7038,-30.69082 73.7038,-74.02443 0,-53.548606 -73.7038,-35.408958 -73.7038,-35.408958"
       id="path27"
       style="fill:#231f20;stroke-width:0.458072" />
    <path
       class="st2"
       d="m 1260.5762,71.318782 c -32.1567,0 -75.307,18.918367 -75.307,94.500238 0,75.58187 38.4322,94.50024 75.307,94.50024 36.829,0 76.0857,-23.63651 76.0857,-94.50024 0,-70.863731 -43.9291,-94.500238 -76.0857,-94.500238"
       id="path29"
       style="fill:#231f20;stroke-width:0.458072" />
    <polyline
       class="st2"
       points="887.6,363.5 1000.5,363.5 942.4,200.2 887.6,363.5   "
       id="polyline31"
       style="fill:#231f20"
       transform="matrix(0.45807194,0,0,0.45807194,0.00799029,0.08859535)" />
    <path
       class="st2"
       d="m 261.52127,294.21659 h -81.58261 c -97.24868,0 -151.34698,-76.4064 -151.34698,-131.51246 0,-84.51427 73.19991,-131.420836 139.57453,-131.420836 64.3133,0 103.11199,49.334344 103.11199,49.334344 l -44.29555,46.677532 c 0,0 -2.33617,1.19099 -4.30588,1.19099 -1.96971,0 -4.71814,-1.96971 -4.71814,-1.96971 l -5.49686,-4.71814 c 0,0 -1.55745,-0.36646 -1.55745,-1.96971 0,-1.55745 4.30588,-5.49686 4.30588,-12.96344 0,-7.466572 -1.55744,-38.569654 -49.38016,-38.569654 -47.82271,0 -69.03145,44.891054 -69.03145,81.903264 0,37.01221 22.76619,104.76105 97.24869,104.76105 43.3336,0 52.54085,-24.41523 52.54085,-24.41523 h 14.88734 v 63.672 z m 319.13872,0.77872 h -98.4397 v -18.91837 c 0,0 6.2756,0.77872 9.4363,-4.71814 3.1607,-5.49687 3.1607,-9.84855 0.7787,-15.34541 -2.3361,-5.49686 -18.8267,-49.24274 -18.8267,-49.24274 h -80.34583 c 0,0 -16.49059,44.06653 -18.04803,48.05175 -1.55745,3.93942 -1.55745,10.26081 0,14.15442 2.61101,6.55043 11.77244,7.51238 11.77244,7.51238 v 18.50611 H 308.1988 V 276.4892 c 0,0 7.14592,-2.47358 12.50537,-7.87883 5.90912,-5.90913 7.83303,-12.18472 7.83303,-12.18472 L 408.51656,38.291795 h 67.06173 l 81.5368,214.148635 c 2.3362,5.90913 6.3214,11.4518 10.215,16.12413 3.8936,4.71814 13.3299,7.87884 13.3299,7.87884 z m 186.6185,-100.82163 c -33.48511,15.48283 -77.5974,27.57593 -77.5974,27.57593 v 40.95163 c 0,0 0.3665,2.74843 4.3059,7.51238 3.9394,4.71814 8.2453,5.90913 8.2453,5.90913 v 18.91837 h -90.9731 v -18.50611 c 0,0 5.4969,-1.19099 9.4363,-5.1304 3.9394,-3.93942 4.7181,-8.65756 4.7181,-8.65756 V 77.685982 c 0,0 0.3665,-7.878837 -2.7484,-11.039534 -3.1607,-3.160696 -10.5815,-7.466572 -10.5815,-7.466572 V 38.291795 c 0,0 79.2007,0 125.4659,0 46.2653,0 92.5306,16.536397 92.5306,70.085005 0,53.54861 -33.7599,72.42118 -62.8017,85.79688 z m 229.036,-125.511715 c -47.8227,0 -69.0315,44.891045 -69.0315,81.903265 0,37.01221 22.7662,104.76105 97.24871,104.76105 43.3794,0 52.5409,-24.41523 52.5409,-24.41523 h 14.8873 v 63.7178 h -81.5826 c -97.24871,0 -151.34701,-76.36059 -151.34701,-131.51245 0,-84.514277 73.1999,-131.420842 139.5745,-131.420842 64.31331,0 103.11201,49.33435 103.11201,49.33435 l -44.2955,46.677532 c 0,0 -2.3362,1.14518 -4.3059,1.14518 -1.9697,0 -4.7181,-1.96971 -4.7181,-1.96971 l -5.4969,-4.71814 c 0,0 -1.5575,-0.41227 -1.5575,-1.96971 0,-1.55745 4.3059,-5.49687 4.3059,-12.96344 0.046,-7.466572 -1.5116,-38.569655 -49.33431,-38.569655 z M 1260.5762,302.37027 c -84.6975,0 -145.5753,-62.11456 -145.5753,-137.69643 0,-75.581871 62.4352,-134.169268 145.5753,-134.169268 83.0942,0 145.5752,58.587397 145.5752,134.169268 0,75.58187 -60.8777,137.69643 -145.5752,137.69643 z m 470.8979,-7.23754 h -93.7215 v -17.04027 c 0,0 8.2453,-1.19099 10.9937,-5.13041 2.7485,-3.93942 3.9395,-6.32139 3.1607,-12.59698 -0.7787,-6.32139 -23.1326,-149.6063 -23.1326,-149.6063 l -40.8142,126.74851 H 1538.58 l -40.4019,-118.86967 -20.3842,140.12421 c 0,0 -0.7787,8.42852 2.382,13.00924 4.3058,6.3214 12.1389,6.3214 12.1389,6.3214 v 16.94866 h -81.1704 v -18.13965 c 0,0 6.4588,-1.00776 11.177,-6.45882 4.7181,-5.49686 5.4968,-12.59697 5.4968,-12.59697 l 29.5915,-184.87784 c 0,0 1.7407,-6.871079 -0.1832,-10.031776 -2.0614,-3.298117 -13.1467,-6.092356 -13.1467,-6.092356 V 38.520831 h 93.3551 l 33.7141,104.577819 36.0502,-104.761048 h 97.661 v 15.34541 c 0,0 -6.5505,2.748432 -9.4363,6.321393 -3.5272,4.305876 -3.5272,7.466573 -2.7485,13.787965 0.7788,6.321389 25.8811,177.18223 26.6598,183.45781 0.7787,6.3214 1.5575,9.84855 3.1149,14.20023 1.5575,4.30588 9.024,7.83303 9.024,7.83303 z"
       id="path33"
       style="fill:#231f20;stroke-width:0.458072" />
    <path
       class="st1"
       d="M 690.45979,76.861452 V 186.29484 c 0,0 73.7038,-30.69082 73.7038,-74.02443 0,-53.548606 -73.7038,-35.408958 -73.7038,-35.408958"
       id="path35"
       style="fill:#ffffff;stroke-width:0.458072" />
    <path
       class="st1"
       d="m 1260.5762,71.318782 c -32.1567,0 -75.307,18.918367 -75.307,94.500238 0,75.58187 38.4322,94.50024 75.307,94.50024 36.829,0 76.0857,-23.63651 76.0857,-94.50024 0,-70.863731 -43.9291,-94.500238 -76.0857,-94.500238"
       id="path37"
       style="fill:#ffffff;stroke-width:0.458072" />
    <polyline
       class="st1"
       points="887.6,363.5 1000.5,363.5 942.4,200.2 887.6,363.5   "
       id="polyline39"
       style="fill:#ffffff"
       transform="matrix(0.45807194,0,0,0.45807194,0.00799029,0.08859535)" />
    <path
       class="st3"
       d="m 310.90143,79.243425 -83.14006,88.178845 -54.87702,-37.79093 c 0,0 18.04804,-17.31512 1.55745,-29.912101 -12.87183,-9.80274 -48.87628,11.039531 -47.36464,51.991171 1.83228,47.22721 30.91985,73.97862 63.0307,73.97862 29.77467,0 37.6077,-24.1404 37.6077,-24.1404 h 66.8327 v 55.65575 L 388.54462,8.3338894 H 495.96249 L 582.21738,231.96461 c 0,0 6.2756,11.81826 12.55121,14.97895 0,0 0.3665,-146.72044 0.3665,-150.843091 0,-4.12264 -0.5497,-8.65756 -3.1149,-11.58922 -4.21431,-4.90137 -11.3602,-6.871074 -11.3602,-6.871074 V 8.3338894 c 0,0 99.539,0 150.56819,0 78.0555,0 98.1191,21.3003466 120.74781,62.2061706 31.2863,-42.28004 74.29929,-70.08500765 135.6809,-70.08500765 63.16811,0 107.83021,23.36166965 133.34481,62.20616965 35.638,-42.738111 92.9886,-62.57262665 145.4836,-62.57262665 64.4965,0 118.3658,31.33212065 146.2624,79.93355365 V 8.3338894 h 145.0714 l 15.2996,38.9819226 11.3601,-38.9819226 h 149.7896 V 76.036923 c -10.5815,5.130406 -14.8416,10.352426 -12.9635,22.445526 l 20.9339,133.848621 c 0.8704,4.35168 2.382,8.88659 6.1382,12.23052 4.3517,3.89361 10.215,3.1607 10.215,3.1607 v 77.18512 h -150.5683 v -58.31256 h -86.3007 v 58.44998 h -141.5442 v -37.97416 c 0,0 -51.7164,45.66977 -118.4116,45.66977 -85.293,0 -142.323,-62.98489 -142.323,-62.98489 v 55.10605 c 0,0 -6.2756,0 -100.4094,0 -89.32402,0 -166.00521,-49.10531 -187.44301,-138.56676 -10.1692,9.71112 -54.9228,41.82197 -108.6088,53.91507 -4.1685,0.91614 -6.2756,2.51939 -6.2756,7.10011 0,8.2911 17.6815,11.22276 17.6815,11.22276 v 66.32882 c 0,0 -464.25587,0 -550.51081,0 C 81.91125,324.9074 0.00799029,254.8224 0.00799029,165.86483 0.00799029,76.90726 63.86322,1.2337743 169.72365,1.2337743 c 101.1881,0 141.17778,78.0096497 141.17778,78.0096497"
       id="path41"
       style="fill:#034ea2;stroke-width:0.458072" />
    <path
       class="st4"
       d="m 408.51656,38.245988 h 67.06173 l 81.5826,214.194442 c 2.33619,5.90913 6.27559,11.40599 10.21499,16.12413 3.89361,4.71814 13.3299,7.87884 13.3299,7.87884 v 18.5061 h -98.4397 v -18.91837 c 0,0 6.2756,0.82453 9.43631,-4.71814 3.16069,-5.49686 3.16069,-9.84855 0.7788,-15.34541 -2.3362,-5.49686 -18.8268,-49.24273 -18.8268,-49.24273 h -80.39163 c 0,0 -16.49059,44.11233 -18.04803,48.05174 -1.55745,3.93942 -1.55745,10.26082 0,14.15443 2.61101,6.55043 11.77244,7.51238 11.77244,7.51238 v 18.5061 H 308.1988 v -18.5061 c 0,0 7.14592,-2.47359 12.50536,-7.87884 5.90913,-5.90913 7.87883,-12.23052 7.87883,-12.23052 L 408.51656,38.245988 m -1.92391,128.351752 h 51.76214 L 431.695,91.794599 Z"
       id="path43"
       style="fill:#ffcb04;stroke-width:0.458072" />
    <path
       class="st4"
       d="m 612.03789,38.245988 c 0,0 79.2007,0 125.4659,0 46.2653,0 92.5306,16.536397 92.5306,70.085002 0,53.54861 -33.7141,72.42118 -62.7559,85.79688 -33.4851,15.48283 -77.6432,27.57593 -77.6432,27.57593 v 40.90582 c 0,0 0.3665,2.74844 4.3059,7.51238 3.8936,4.71814 8.2453,5.90913 8.2453,5.90913 v 18.91837 h -90.9731 v -18.5061 c 0,0 5.4969,-1.19099 9.4363,-5.13041 3.9394,-3.93942 4.7181,-8.65756 4.7181,-8.65756 V 77.594367 c 0,0 0.3665,-7.878837 -2.7484,-11.039533 -3.1607,-3.160697 -10.5815,-7.466573 -10.5815,-7.466573 V 38.245988 m 78.4219,38.615464 V 186.29484 c 0,0 73.7038,-30.69082 73.7038,-74.02443 0,-53.548606 -73.7038,-35.408958 -73.7038,-35.408958 z"
       id="path45"
       style="fill:#ffcb04;stroke-width:0.458072" />
    <path
       class="st4"
       d="m 1260.5762,302.37027 c -84.6975,0 -145.5753,-62.11456 -145.5753,-137.69643 0,-75.581871 62.4352,-134.215075 145.5753,-134.215075 83.14,0 145.5752,58.587404 145.5752,134.215075 0,75.62768 -60.8777,137.69643 -145.5752,137.69643 M 1185.315,165.86483 c 0,75.58187 38.4322,94.50024 75.307,94.50024 36.829,0 76.0857,-23.63651 76.0857,-94.50024 0,-70.863732 -43.9291,-94.500242 -76.0857,-94.500242 -32.2025,0 -75.307,18.87256 -75.307,94.500242 z"
       id="path47"
       style="fill:#ffcb04;stroke-width:0.458072" />
    <path
       class="st4"
       d="m 1444.0798,38.429217 h 93.3092 l 33.7141,104.577823 36.0503,-104.761052 h 97.6151 v 15.34541 c 0,0 -6.5046,2.748432 -9.4362,6.321393 -3.5272,4.305876 -3.5272,7.512379 -2.7485,13.787965 0.7787,6.321393 25.8811,177.182224 26.6598,183.457814 0.7787,6.32139 1.6033,9.84854 3.1607,14.20023 1.5574,4.30587 9.024,7.87884 9.024,7.87884 v 15.84928 h -93.7215 v -17.04027 c 0,0 8.2453,-1.19099 10.9479,-5.13041 2.7485,-3.93942 3.9394,-6.32139 3.1149,-12.59698 -0.7787,-6.32139 -23.1326,-149.60629 -23.1326,-149.60629 l -40.7684,126.79431 h -49.3802 l -40.4019,-118.91547 -20.3842,140.17001 c 0,0 -0.7787,8.38272 2.3361,12.96344 4.3059,6.32139 12.1389,6.32139 12.1389,6.32139 v 16.90285 h -81.1703 v -18.09384 c 0,0 6.4588,-1.00776 11.177,-6.50462 4.7181,-5.49686 5.4968,-12.59698 5.4968,-12.59698 l 29.5915,-184.832026 c 0,0 1.7864,-6.916887 -0.1833,-10.031776 -2.0613,-3.298118 -13.1466,-6.138164 -13.1466,-6.138164 V 38.429217"
       id="path49"
       style="fill:#ffcb04;stroke-width:0.458072" />
    <path
       class="st4"
       d="m 271.2782,80.571829 -43.74587,46.082041 c -2.29035,2.42778 -6.09235,2.65682 -8.65755,0.54969 l -7.42077,-6.09236 c -0.32065,-0.27484 -0.50388,-0.73291 -0.50388,-1.32841 0,-1.55744 4.30588,-5.49686 4.30588,-12.96343 0,-7.512381 -1.55745,-38.569661 -49.38016,-38.569661 -47.82271,0 -69.03145,44.891051 -69.03145,81.903261 0,37.01222 22.76618,104.76106 97.24868,104.76106 43.33361,0 52.54085,-24.41524 52.54085,-24.41524 h 14.88734 v 63.672 h -81.58261 c -97.24868,0 -151.34698,-76.36059 -151.34698,-131.46665 0,-84.51427 73.19991,-131.420836 139.57453,-131.420836 64.3133,0 103.11199,49.288534 103.11199,49.288534"
       id="path51"
       style="fill:#ffcb04;stroke-width:0.458072" />
    <path
       class="st4"
       d="m 1101.8084,81.029909 -43.7458,46.082031 c -2.2904,2.42778 -6.0924,2.65682 -8.6576,0.54969 l -7.4208,-6.09236 c -0.3206,-0.27484 -0.5038,-0.73291 -0.5038,-1.32841 0,-1.55744 4.3058,-5.49686 4.3058,-12.96343 0,-7.512382 -1.5574,-38.569658 -49.38011,-38.569658 -47.8227,0 -69.0315,44.891048 -69.0315,81.903258 0,37.01222 22.7662,104.76106 97.24871,104.76106 43.3336,0 52.5409,-24.41524 52.5409,-24.41524 h 14.8873 v 63.672 h -81.5826 c -97.24871,0 -151.34701,-76.36059 -151.34701,-131.51245 0,-84.514277 73.1999,-131.420842 139.5746,-131.420842 64.26741,0.04581 103.11191,49.33435 103.11191,49.33435"
       id="path53"
       style="fill:#ffcb04;stroke-width:0.458072" />
  </g>
</svg>
