<?xml version="1.0" encoding="UTF-8" standalone="no"?>
<!-- Generator: Adobe Illustrator 13.0.0, SVG Export Plug-In . SVG Version: 6.00 Build 14948)  -->

<svg
   xmlns:dc="http://purl.org/dc/elements/1.1/"
   xmlns:cc="http://creativecommons.org/ns#"
   xmlns:rdf="http://www.w3.org/1999/02/22-rdf-syntax-ns#"
   xmlns:svg="http://www.w3.org/2000/svg"
   xmlns="http://www.w3.org/2000/svg"
   xmlns:sodipodi="http://sodipodi.sourceforge.net/DTD/sodipodi-0.dtd"
   xmlns:inkscape="http://www.inkscape.org/namespaces/inkscape"
   version="1.1"
   id="Layer_1"
   x="0px"
   y="0px"
   width="504"
   height="116.145"
   viewBox="-1 -1 503.99999 116.145"
   enable-background="new -1 -1 568.929 116.145"
   xml:space="preserve"
   sodipodi:docname="logo.svg"
   inkscape:version="0.92.5 (2060ec1f9f, 2020-04-08)"><metadata
   id="metadata23"><rdf:RDF><cc:Work
       rdf:about=""><dc:format>image/svg+xml</dc:format><dc:type
         rdf:resource="http://purl.org/dc/dcmitype/StillImage" /><dc:title></dc:title></cc:Work></rdf:RDF></metadata><defs
   id="defs21" /><sodipodi:namedview
   pagecolor="#ffffff"
   bordercolor="#666666"
   borderopacity="1"
   objecttolerance="10"
   gridtolerance="10"
   guidetolerance="10"
   inkscape:pageopacity="0"
   inkscape:pageshadow="2"
   inkscape:window-width="3840"
   inkscape:window-height="2065"
   id="namedview19"
   showgrid="false"
   inkscape:zoom="3.0317861"
   inkscape:cx="208.77633"
   inkscape:cy="66.005714"
   inkscape:window-x="0"
   inkscape:window-y="0"
   inkscape:window-maximized="1"
   inkscape:current-layer="Layer_1" />
<g
   id="g16"
   transform="translate(-33.0915,-2.3965017)">
	<path
   d="M 34.216,86.073 V 32.865 h 47.952 c 3.215,0 5.951,0.313 8.208,0.936 2.255,0.625 4.068,1.548 5.436,2.772 1.368,1.224 2.363,2.736 2.988,4.536 0.624,1.8 0.936,3.876 0.936,6.228 V 71.6 c 0,2.354 -0.313,4.429 -0.936,6.229 -0.625,1.801 -1.62,3.313 -2.988,4.536 -1.368,1.224 -3.181,2.149 -5.436,2.772 -2.257,0.624 -4.993,0.936 -8.208,0.936 H 34.216 Z m 10.44,-10.44 H 82.24 c 2.352,0 4.068,-0.371 5.148,-1.117 1.08,-0.743 1.62,-1.859 1.62,-3.348 v -23.4 c 0,-1.487 -0.54,-2.603 -1.62,-3.348 -1.08,-0.744 -2.796,-1.116 -5.148,-1.116 H 44.656 Z"
   id="path2"
   inkscape:connector-curvature="0"
   style="stroke:#ffffff;stroke-width:2" />
	<path
   d="M 108.952,86.073 V 32.865 H 174.4 v 10.44 h -55.008 v 6.984 h 45 v 9.72 h -45 v 15.625 h 55.152 v 10.439 z"
   id="path4"
   inkscape:connector-curvature="0"
   style="stroke:#ffffff;stroke-width:2" />
	<path
   d="m 182.175,86.073 v -10.44 h 46.08 c 2.352,0 4.068,-0.371 5.148,-1.117 1.08,-0.743 1.619,-1.859 1.619,-3.348 v -5.472 c 0,-1.487 -0.539,-2.604 -1.619,-3.349 -1.08,-0.743 -2.797,-1.115 -5.148,-1.115 h -30.672 c -10.272,0 -15.408,-3.816 -15.408,-11.448 v -6.696 c 0,-6.815 5.087,-10.224 15.264,-10.224 h 46.152 v 10.44 H 197.08 c -1.584,0 -2.664,0.156 -3.24,0.468 -0.576,0.313 -0.864,0.804 -0.864,1.476 v 3.168 c 0,0.864 0.288,1.476 0.864,1.836 0.576,0.36 1.68,0.54 3.312,0.54 h 31.032 c 3.216,0 5.951,0.313 8.208,0.936 2.256,0.625 4.068,1.548 5.437,2.772 1.368,1.224 2.363,2.736 2.987,4.536 0.624,1.8 0.937,3.877 0.937,6.228 V 71.6 c 0,2.354 -0.313,4.429 -0.937,6.229 -0.624,1.801 -1.619,3.313 -2.987,4.536 -1.368,1.223 -3.181,2.149 -5.437,2.772 -2.257,0.624 -4.992,0.936 -8.208,0.936 z"
   id="path6"
   inkscape:connector-curvature="0"
   style="stroke:#ffffff;stroke-width:2" />
	<path
   d="M 254.823,86.073 V 32.865 h 10.44 v 20.016 h 6.336 l 32.328,-20.016 h 19.871 L 282.11,57.489 326.318,86.073 H 307.022 L 271.598,62.096 h -6.336 v 23.977 z"
   id="path8"
   inkscape:connector-curvature="0"
   style="stroke:#ffffff;stroke-width:2" />
	<path
   d="M 351.302,86.073 V 43.304 h -27.575 v -10.44 h 65.592 v 10.44 h -27.576 v 42.768 h -10.441 z"
   id="path10"
   inkscape:connector-curvature="0"
   style="stroke:#ffffff;stroke-width:2" />
	<path
   d="m 411.135,86.073 c -3.265,0 -6.013,-0.312 -8.244,-0.936 -2.232,-0.623 -4.032,-1.549 -5.4,-2.772 -1.368,-1.223 -2.364,-2.735 -2.987,-4.536 -0.625,-1.8 -0.937,-3.875 -0.937,-6.229 V 47.337 c 0,-2.352 0.312,-4.428 0.937,-6.228 0.623,-1.8 1.619,-3.312 2.987,-4.536 1.368,-1.224 3.168,-2.147 5.4,-2.772 2.231,-0.623 4.979,-0.936 8.244,-0.936 h 30.456 c 3.215,0 5.951,0.313 8.208,0.936 2.255,0.625 4.067,1.548 5.436,2.772 1.369,1.224 2.364,2.736 2.988,4.536 0.623,1.8 0.936,3.876 0.936,6.228 V 71.6 c 0,2.354 -0.313,4.429 -0.936,6.229 -0.624,1.801 -1.62,3.313 -2.988,4.536 -1.368,1.223 -3.181,2.149 -5.436,2.772 -2.257,0.624 -4.993,0.936 -8.208,0.936 z m -6.84,-14.905 c 0,1.488 0.54,2.604 1.619,3.348 1.08,0.746 2.796,1.117 5.148,1.117 h 30.6 c 2.352,0 4.068,-0.371 5.148,-1.117 1.08,-0.743 1.62,-1.859 1.62,-3.348 v -23.4 c 0,-1.487 -0.54,-2.603 -1.62,-3.348 -1.08,-0.744 -2.797,-1.116 -5.148,-1.116 h -30.6 c -2.353,0 -4.068,0.373 -5.148,1.116 -1.079,0.745 -1.619,1.861 -1.619,3.348 z"
   id="path12"
   inkscape:connector-curvature="0"
   style="stroke:#ffffff;stroke-width:2" />
	<path
   d="M 468.375,86.073 V 32.865 h 48.024 c 3.215,0 5.951,0.313 8.208,0.936 2.255,0.625 4.067,1.548 5.436,2.772 1.369,1.224 2.363,2.736 2.988,4.536 0.623,1.8 0.936,3.876 0.936,6.228 v 6.912 c 0,2.353 -0.313,4.428 -0.936,6.229 -0.625,1.8 -1.62,3.312 -2.988,4.535 -1.368,1.225 -3.181,2.149 -5.436,2.772 -2.257,0.624 -4.993,0.937 -8.208,0.937 h -37.584 v 17.352 h -10.44 z M 478.815,59 h 37.655 c 2.352,0 4.068,-0.371 5.148,-1.116 1.08,-0.744 1.62,-1.86 1.62,-3.348 v -6.768 c 0,-1.487 -0.54,-2.603 -1.62,-3.348 -1.08,-0.744 -2.797,-1.116 -5.148,-1.116 h -37.655 z"
   id="path14"
   inkscape:connector-curvature="0"
   style="stroke:#ffffff;stroke-width:2" />
</g>
</svg>