<?xml version="1.0" encoding="UTF-8" standalone="no"?>
<svg
   xmlns:dc="http://purl.org/dc/elements/1.1/"
   xmlns:cc="http://creativecommons.org/ns#"
   xmlns:rdf="http://www.w3.org/1999/02/22-rdf-syntax-ns#"
   xmlns:svg="http://www.w3.org/2000/svg"
   xmlns="http://www.w3.org/2000/svg"
   viewBox="0 0 1013.9837 200.2225"
   height="200.2225"
   width="1013.9837"
   xml:space="preserve"
   version="1.1"
   id="svg2"><metadata
     id="metadata8"><rdf:RDF><cc:Work
         rdf:about=""><dc:format>image/svg+xml</dc:format><dc:type
           rdf:resource="http://purl.org/dc/dcmitype/StillImage" /><dc:title></dc:title></cc:Work></rdf:RDF></metadata><defs
     id="defs6"><clipPath
       id="clipPath16"
       clipPathUnits="userSpaceOnUse"><path
         id="path18"
         d="m 0,160.178 811.187,0 L 811.187,0 0,0 0,160.178 Z" /></clipPath></defs><g
     transform="matrix(1.25,0,0,-1.25,0,200.2225)"
     id="g10"><g
       id="g12"><g
         clip-path="url(#clipPath16)"
         id="g14"><g
           transform="translate(451.1852,42.2087)"
           id="g20"><path
             id="path22"
             style="fill:#000000;fill-opacity:1;fill-rule:nonzero;stroke:none"
             d="m 0,0 c -0.59,-0.288 -2.376,-1.771 -2.997,-2.089 -2.377,-0.605 -3.875,-1.498 -5.358,-1.786 -1.771,-0.318 -3.891,-0.59 -5.692,-0.59 -2.982,0 -5.358,0.893 -7.175,2.089 -2.104,1.18 -2.104,0.605 -3.602,2.709 -1.181,1.756 -3.27,4.768 -3.27,7.16 -0.318,1.801 -0.318,3.3 0.287,5.101 0.303,1.196 0.924,2.376 1.802,3.587 1.181,1.196 2.407,2.695 4.178,3.891 1.801,0.923 3.3,1.195 6.281,2.376 1.499,0.606 3.603,0.923 6.903,1.211 1.771,0.288 5.358,0.288 6.569,0.878 1.196,0.318 2.407,0.318 3.3,0.938 0.893,0.591 2.089,0.893 2.695,1.196 0.59,0.576 1.498,0.893 2.982,2.377 L 6.6,14.698 c 0,0 -0.288,-5.994 -2.392,-9.279 C 2.104,1.801 0,0 0,0 m -32.59,47.893 c 3.285,1.484 5.692,2.392 7.765,3.285 2.12,0.606 4.496,1.181 7.478,1.801 2.997,0.606 5.101,0.893 8.098,0.893 2.982,0 6.6,-1.165 8.977,-1.771 2.104,-0.62 3.875,-2.997 5.101,-4.798 C 6.327,45.805 6.6,44.896 6.6,42.52 l 0,-2.407 C 6.312,39.22 5.707,38.932 5.101,38.039 4.496,37.131 3.905,36.238 3.012,35.648 2.407,35.042 1.484,34.437 0.606,33.846 -0.59,33.241 -1.771,32.953 -2.997,32.348 -4.178,31.742 -5.979,32.03 -7.75,31.44 c -5.994,-0.909 -10.777,-1.181 -13.472,-2.089 -2.694,-0.893 -4.495,-1.499 -6.297,-2.407 -2.074,-0.893 -2.982,-1.801 -4.783,-3.285 -1.802,-1.498 -2.377,-2.679 -3.27,-4.193 -0.923,-1.483 -1.816,-2.997 -2.407,-4.768 -0.317,-1.801 -0.893,-4.178 -0.893,-6.282 0,-3.602 0.576,-6.599 2.377,-9.869 1.498,-2.982 4.496,-5.676 7.795,-7.205 3.27,-1.499 7.478,-3.27 13.472,-3.27 l 5.677,0 c 1.801,0.288 3.572,0.893 6.902,1.484 1.499,1.211 3.572,2.391 5.964,4.193 2.104,2.088 3.3,3.284 3.3,3.284 l 0,-7.477 5.994,0 6.872,0 c -1.195,5.388 -1.786,5.994 -1.483,9.869 0,6.6 -0.606,20.965 -0.318,28.73 0,7.795 -0.303,5.676 -0.303,8.976 0,2.694 -1.196,7.19 -2.089,9.567 -0.923,2.406 -2.406,3.905 -3.905,6.599 -1.801,2.104 -5.994,5.101 -9.279,5.995 -3.572,0.923 -5.994,1.498 -9.854,1.498 -3.603,0 -8.976,-0.303 -12.866,-0.575 -3.603,-0.606 -6.6,-1.529 -11.686,-3.012 -0.015,-3.936 -0.015,-7.236 -0.288,-9.31" /></g><g
           transform="translate(695.677,43.1168)"
           id="g24"><path
             id="path26"
             style="fill:#000000;fill-opacity:1;fill-rule:nonzero;stroke:none"
             d="m 0,0 c -0.893,-0.318 -2.392,-1.801 -3.285,-2.119 -2.104,-0.575 -3.587,-1.499 -5.086,-1.786 -2.119,-0.288 -3.89,-0.591 -5.691,-0.591 -2.982,0 -5.677,0.893 -7.478,2.104 -1.801,1.196 -1.801,0.591 -3.3,2.695 -1.498,1.801 -3.587,4.783 -3.587,7.19 0,1.771 0,3.3 0.303,5.101 0.59,1.181 0.923,2.376 2.088,3.542 1.211,1.211 2.407,2.71 4.208,3.936 1.499,0.893 3.27,1.18 6.252,2.376 1.226,0.575 3.603,0.893 6.902,1.166 1.499,0.318 5.389,0.318 6.6,0.938 0.893,0.288 2.089,0.591 2.982,0.893 1.196,0.591 2.089,0.893 2.967,1.196 0.605,0.606 1.211,0.923 2.725,2.377 l 0,-14.35 c 0,0 -0.318,-5.677 -2.392,-9.279 C 2.089,1.771 0,0 0,0 m -32.62,47.878 c 2.982,1.499 5.389,2.377 7.478,3.3 2.073,0.606 4.783,1.181 7.477,1.771 2.982,0.575 5.389,0.908 8.083,0.908 2.982,0 6.872,-1.181 8.961,-1.786 2.392,-0.621 3.906,-2.997 5.389,-4.798 1.499,-1.499 1.499,-2.952 1.802,-5.359 0,-0.923 0,-1.513 -0.318,-2.391 C 5.949,38.584 5.646,38.917 5.056,38.009 4.451,37.116 3.845,36.223 2.952,35.617 2.346,35.042 1.453,34.437 0.258,33.816 c -0.909,-0.575 -2.105,-0.893 -3.3,-1.498 -1.499,-0.606 -2.982,-0.288 -4.753,-0.894 -6.297,-0.908 -11.08,-1.18 -13.472,-2.088 -2.725,-0.909 -4.496,-1.514 -6.6,-2.392 -1.801,-0.923 -2.997,-1.801 -4.783,-3.33 -1.801,-1.484 -2.407,-2.362 -3.3,-3.86 -0.893,-1.499 -1.514,-3.3 -2.119,-5.101 -0.575,-1.786 -1.181,-4.178 -1.181,-6.282 0.303,-3.572 0.605,-6.6 2.407,-9.869 1.771,-2.982 4.48,-5.677 7.78,-7.175 3.573,-1.499 7.796,-3.3 13.775,-3.3 l 5.359,0 c 2.119,0.318 3.89,0.893 6.872,1.498 1.513,1.196 3.905,2.407 5.994,4.163 2.407,2.134 3.602,3.315 3.602,3.315 l 0,-7.478 5.995,0 6.857,0 c -1.181,5.374 -1.771,5.995 -1.771,9.885 0.287,6.584 -0.318,20.934 -0.318,28.7 0.318,7.795 0,5.676 0,8.991 -0.288,2.679 -1.166,7.205 -2.089,9.551 -0.908,2.407 -2.377,4.208 -4.178,6.6 -1.498,2.119 -5.676,5.101 -9.279,6.009 -3.285,0.893 -5.676,1.741 -9.551,1.741 -3.603,0 -9.279,-0.575 -12.897,-0.863 -3.875,-0.605 -6.57,-1.498 -11.671,-2.694 -0.257,-4.193 0.046,-7.463 -0.257,-9.567" /></g><g
           transform="translate(481.111,31.7339)"
           id="g28"><path
             id="path30"
             style="fill:#000000;fill-opacity:1;fill-rule:nonzero;stroke:none"
             d="M 0,0 1.499,5.071 1.816,19.163 0.908,59.564 c 0,3.602 -2.089,7.765 -2.089,9.566 2.089,0 6.57,0.606 8.644,1.529 1.498,0.575 3.602,0.575 5.101,0.575 l 0,-9.278 c 1.498,2.694 3.875,2.966 5.101,4.495 0.893,1.499 2.104,1.499 4.178,2.982 1.801,1.226 2.982,1.226 5.388,1.801 2.998,0.318 5.071,0.591 7.766,0.591 1.801,0 3.602,-0.288 5.388,-0.893 1.802,-0.288 3.573,-1.196 5.086,-2.089 1.499,-0.606 2.982,-1.801 3.875,-2.71 1.211,-1.226 2.407,-1.801 3.603,-3.89 0.303,-0.605 2.982,3.27 6.872,5.374 3.906,2.104 8.386,3.905 13.185,3.905 2.981,0 9.854,-0.318 12.851,-1.498 2.997,-1.196 7.19,-2.725 8.991,-4.799 1.786,-2.074 2.377,-2.982 3.875,-4.783 2.104,-2.089 2.725,-7.478 2.725,-9.567 0,-2.391 0.287,-5.994 0.287,-10.49 l 0,-33.18 c 0,-3.3 0.909,-3.602 1.514,-7.205 l -6.6,0 -7.175,0 c 1.771,5.676 1.499,3.905 1.499,7.205 l 0.288,30.198 c 0,4.208 0,6.6 -0.288,9.885 0,2.664 -0.893,5.994 -1.499,7.478 -0.605,1.483 -3.299,4.495 -4.495,5.676 -1.211,1.196 -2.982,1.498 -4.783,2.119 -1.499,0.893 -4.496,0.893 -6.57,0.893 -1.514,0 -3.905,-0.287 -5.404,-0.621 -1.18,-0.575 -2.694,-0.893 -3.905,-1.771 -1.181,-0.908 -2.377,-1.21 -3.572,-2.694 -0.909,-1.211 -1.787,-2.679 -2.695,-4.48 -0.605,-1.529 -0.605,-4.208 -0.893,-6.903 0,-2.982 0.288,-6.872 0,-11.05 L 57.157,6.6 59.246,0 51.768,0 44.866,0 c 0,5.994 0.923,0.605 0.923,6.887 l 0,27.232 0,13.744 c -0.303,2.407 -0.575,3.3 -0.923,5.101 -0.575,1.499 -1.468,3.89 -2.664,5.071 -1.211,1.529 -3.906,3.905 -5.707,4.526 -1.498,0.893 -3.875,1.499 -5.979,1.499 -2.392,0 -3.603,-0.318 -5.691,-1.227 -1.802,-0.893 -3.573,-1.18 -5.071,-2.981 -1.529,-1.484 -2.71,-1.802 -3.906,-4.148 -0.923,-2.407 -1.801,-1.801 -2.089,-5.737 -0.605,-3.86 -0.908,-17.937 -0.908,-27.504 0.303,-5.691 0.303,-10.762 0.303,-15.545 0,-2.982 1.498,-4.178 1.498,-6.888 l -6.872,0 C 6.585,0 2.71,0 0,0" /></g><g
           transform="translate(651.0836,44.6154)"
           id="g32"><path
             id="path34"
             style="fill:#000000;fill-opacity:1;fill-rule:nonzero;stroke:none"
             d="m 0,0 c 0,-0.923 -0.318,-2.407 -0.59,-4.496 -0.318,-2.104 -0.909,-3.905 -1.211,-5.994 -2.982,-0.893 -6.267,-1.786 -9.249,-2.104 -2.725,-0.303 -10.475,-0.575 -12.897,-0.575 -4.48,0 -9.884,0.893 -13.759,2.074 -3.89,1.528 -8.976,4.208 -11.973,7.477 -2.982,2.997 -6.6,6.297 -8.084,11.081 -1.483,4.783 -2.664,9.278 -2.664,14.349 -0.318,7.19 0.893,9.582 2.664,15.849 2.105,6.297 7.206,11.08 11.686,14.683 4.753,3.602 15.561,6.584 23.644,6.584 5.994,0 13.154,-0.893 19.148,-2.694 0.303,-4.208 0.606,-6.57 0.924,-9.279 -4.193,1.529 -8.099,3.33 -10.49,3.905 -2.68,0.318 -5.995,0.893 -8.068,0.893 -3.89,0 -11.671,-1.801 -14.668,-3.269 -2.982,-1.529 -5.358,-3.603 -7.478,-6.6 -1.801,-2.695 -3.3,-6.585 -4.177,-10.475 -0.909,-3.905 -1.181,-4.178 -0.909,-8.371 0.303,-5.388 1.181,-10.172 2.71,-14.365 1.771,-3.89 4.496,-8.068 8.371,-10.172 3.602,-2.391 8.083,-4.495 12.866,-4.495 4.465,0 14.032,0.59 24.204,5.994" /></g><g
           transform="translate(723.7862,34.4434)"
           id="g36"><path
             id="path38"
             style="fill:#000000;fill-opacity:1;fill-rule:nonzero;stroke:none"
             d="m 0,0 -1.181,4.768 c 0,0.606 -1.195,3.588 -1.786,6.888 8.068,-4.496 16.469,-7.781 22.736,-7.781 2.982,0 6.282,1.181 8.37,1.786 2.105,0.893 4.193,2.407 5.389,4.163 0.924,1.529 2.089,3.315 2.407,4.813 0.288,0.909 0.575,2.377 0.288,3.27 -0.288,0.923 -0.606,3.603 -1.499,4.511 -0.605,0.893 -2.997,2.967 -4.178,4.178 -1.196,0.893 -4.495,2.694 -8.991,4.495 -4.178,1.771 -9.884,3.573 -11.958,5.374 -2.119,1.514 -5.692,3.587 -7.19,5.389 -1.499,1.801 -2.407,3.587 -3.3,5.358 -0.575,1.817 0,4.511 -0.303,6.63 0,2.982 1.786,5.994 3.587,8.659 1.772,2.997 4.784,4.495 8.371,5.994 3.603,1.165 7.796,2.119 12.579,2.119 5.373,0 10.475,-1.226 17.074,-2.407 0.288,-3.602 -0.62,-6.297 -0.317,-9.279 -4.511,2.982 -9.885,4.784 -14.956,4.784 -2.724,0 -5.389,-0.591 -7.795,-1.196 -2.407,-0.908 -4.784,-2.982 -5.995,-4.481 -0.893,-1.498 -1.498,-2.724 -1.498,-4.495 0,-1.196 0.318,-2.982 0.893,-4.178 0.318,-0.923 2.997,-3.89 4.496,-4.496 2.104,-0.908 1.211,-0.605 2.982,-1.181 2.119,-0.317 6.902,-2.997 11.67,-5.101 5.102,-2.376 9.597,-5.373 11.08,-6.902 1.499,-1.499 3.3,-3.557 4.496,-7.175 0.908,-1.801 1.181,-3.89 1.181,-5.374 0,-2.694 -0.606,-2.982 -0.606,-4.783 0.318,-3.3 -0.575,-4.511 -2.376,-7.19 -1.771,-2.982 -5.101,-5.676 -8.976,-7.175 -3.89,-1.498 -7.765,-2.709 -12.564,-2.709 -2.104,0 -6.6,-0.288 -9.264,0 -2.694,0.302 -5.101,1.211 -7.205,1.513 C 3.906,-0.923 2.725,-0.923 0,0" /></g><g
           transform="translate(811.1719,40.4376)"
           id="g40"><path
             id="path42"
             style="fill:#000000;fill-opacity:1;fill-rule:nonzero;stroke:none"
             d="m 0,0 c -0.59,-2.407 -1.196,-3.618 -1.514,-7.478 -2.982,-0.923 -4.178,-1.211 -5.979,-1.211 -1.514,-0.287 -3.3,0.303 -4.798,0.303 -3.875,0 -6.873,0.318 -9.249,1.499 -2.407,1.195 -4.193,2.694 -5.389,5.101 -1.498,2.376 -2.406,8.37 -2.406,12.548 l 0,2.725 c 0,1.498 -0.288,2.694 0,10.747 l -0.288,31.152 -8.689,0 0,6.267 8.689,0.318 c 0.288,1.74 0,7.765 0,12.245 0,2.119 -1.211,4.178 -2.104,5.404 4.178,0.893 10.187,2.695 12.851,3.27 0,-6.872 0.621,-17.044 0.621,-20.919 l 17.952,-0.318 c -0.287,-2.997 0,-4.178 0.318,-6.872 l -5.101,0.605 -13.169,0 -0.288,-39.205 0,-3.299 c 0.288,-3.603 0.575,-8.068 1.499,-9.87 0.575,-1.801 1.771,-2.407 3.269,-3.3 1.499,-0.605 2.997,-0.908 4.496,-0.908 l 3.905,0 C -4.178,-1.226 -3.285,-0.923 0,0" /></g><g
           transform="translate(403.3071,44.2824)"
           id="g44"><path
             id="path46"
             style="fill:#000000;fill-opacity:1;fill-rule:nonzero;stroke:none"
             d="m 0,0 c -0.288,-2.679 -1.196,-5.964 -1.483,-10.157 -4.178,-1.181 -10.778,-3.587 -13.76,-4.193 -2.982,-0.287 -5.994,-0.287 -8.976,-0.287 -5.374,0 -10.778,1.18 -15.273,2.694 -4.178,1.499 -8.401,4.465 -11.671,8.083 -3.3,3.572 -6.297,7.478 -7.795,11.943 -1.499,4.783 -1.802,9.279 -2.104,14.35 -0.288,7.205 0.923,9.884 3.012,16.166 2.376,5.995 6.872,10.475 11.67,14.078 4.784,3.602 10.778,5.086 18.543,5.086 3.905,0 8.371,-0.288 11.973,-1.484 3.588,-1.211 6.6,-2.709 8.977,-5.101 2.376,-2.694 4.495,-5.374 5.994,-8.976 1.498,-3.89 1.801,-3.89 2.407,-8.371 0.575,-2.119 0.575,-5.404 0.575,-7.205 l -51.148,-0.288 0,-5.101 c 0.288,-5.101 0.893,-10.172 2.967,-14.38 2.104,-4.178 4.783,-7.175 8.673,-9.248 3.906,-2.105 8.689,-4.178 13.487,-4.178 C -18.225,-6.539 -8.371,-4.163 0,0 m -46.955,33.861 37.404,0 c 0,2.967 0,2.089 -0.303,3.875 -0.288,1.499 -0.893,2.997 -1.786,4.784 -0.893,1.786 -2.392,2.966 -3.906,4.193 -1.498,1.498 -2.982,2.376 -5.071,3.299 -1.816,0.606 -4.813,0.894 -7.205,0.894 -2.391,0 -4.495,-0.621 -6.599,-1.514 -2.377,-0.893 -4.178,-1.786 -5.662,-3.3 -1.816,-1.211 -2.982,-2.679 -4.192,-4.481 -1.196,-1.801 -2.089,-3.602 -2.392,-5.373 l -0.303,-0.591 c 0,0 0.303,0 0.015,-1.786" /></g><g
           transform="translate(298.5746,29.9325)"
           id="g48"><path
             id="path50"
             style="fill:#000000;fill-opacity:1;fill-rule:nonzero;stroke:none"
             d="m 0,0 c 0,1.529 1.211,3.315 1.211,4.511 0.318,22.72 0,40.082 -0.606,54.447 l -0.287,6.297 -2.104,5.086 c 2.104,0.318 5.101,0.591 6.6,0.893 1.483,0.318 5.373,0.909 7.159,0.909 l 0,-12.897 c 1.529,3.012 1.802,2.725 2.982,4.208 0.924,1.529 2.997,3.27 4.496,4.496 1.529,0.908 2.982,2.104 5.101,2.709 1.786,0.575 3.587,1.484 5.691,1.484 1.787,0 3.285,0.317 7.493,0 4.148,-0.591 6.57,-1.484 7.478,-1.787 0.288,-1.786 -2.997,-9.581 -2.997,-9.581 0,0 -3.3,0.318 -5.994,1.498 -2.695,0.606 -4.466,0.606 -6.585,0.606 -2.376,0 -5.358,-0.606 -7.478,-1.499 -1.786,-0.923 -3.875,-2.134 -5.358,-3.875 -1.514,-1.801 -2.407,-3.92 -3.3,-6.599 -0.923,-2.12 -0.605,-0.318 -0.923,-3.603 -0.288,-3.588 0,-35.617 0.318,-43.095 l 1.18,-3.875 -7.174,0 C 5.707,0.333 2.407,0 0,0" /></g><g
           transform="translate(192.9642,29.6601)"
           id="g52"><path
             id="path54"
             style="fill:#000000;fill-opacity:1;fill-rule:nonzero;stroke:none"
             d="m 0,0 2.407,6.872 0,84.964 c -0.318,2.724 -1.196,5.086 -2.71,9.597 5.994,-0.318 15.864,0.302 20.041,0.302 2.392,0 6.297,-0.302 11.671,-0.302 5.389,0 10.187,0 12.564,-0.318 7.477,-0.575 9.597,-0.893 14.97,-2.377 3.875,-0.893 11.353,-5.101 14.955,-7.477 3.3,-2.407 6.873,-5.102 9.582,-8.977 2.664,-3.89 3.89,-5.101 5.964,-9.566 2.407,-6.312 3.905,-12.897 3.905,-18.876 C 93.97,45.153 93.047,38.887 90.64,31.106 87.976,23.311 82.572,17.634 77.501,12.533 72.4,7.145 66.724,4.163 60.139,2.361 53.57,0.863 46.092,-0.621 37.706,-0.621 l -19.451,0 L 0,0 Z m 17.68,8.083 c 5.646,-0.318 10.46,-0.318 15.243,-0.318 3.905,0 8.688,0.318 12.866,0.606 4.481,0.605 7.478,2.104 10.793,3.3 3.285,1.211 6.584,2.966 9.566,5.994 3.3,2.982 5.677,6.6 7.796,10.187 1.771,3.89 3.3,8.068 3.875,12.866 0.893,4.784 1.211,9.582 1.211,14.35 -0.318,5.389 -1.786,9.597 -3.315,14.078 -1.483,4.768 -4.163,10.474 -8.068,13.774 -4.178,3.27 -7.175,5.964 -11.671,7.16 -4.177,1.211 -10.459,3.012 -17.347,3.012 -4.495,0 -10.202,-0.318 -12.896,-0.62 -2.982,-0.303 -5.389,-0.606 -9.279,-0.606 L 17.68,8.083 Z" /></g><g
           transform="translate(91.5573,62.656)"
           id="g56"><path
             id="path58"
             style="fill:#3e649f;fill-opacity:1;fill-rule:nonzero;stroke:none"
             d="m 0,0 c 0,5.689 -2.708,5.129 -4.547,5.402 -1.983,0.287 -6.681,-0.711 -10.926,0.287 -5.115,0.992 -7.823,8.089 -6.969,11.501 2.558,9.806 8.951,11.084 13.348,10.79 3.419,-0.144 9.805,-0.424 17.614,-7.241 3.548,-3.125 5.682,-11.365 5.826,-16.041 0.15,-5.819 -0.144,-12.363 -3.549,-16.041 -5.539,-5.969 -20.172,-11.07 -28.397,-10.797 -32.24,3.412 -31.097,33.792 -31.097,33.792 0,0 -2.565,13.067 8.376,26.988 0.854,1.135 2.27,3.836 3.405,4.964 1.135,1.279 1.982,1.566 3.412,2.708 1.278,0.992 2.694,1.696 4.116,2.551 3.549,2.126 7.385,4.101 11.07,5.244 5.546,1.702 11.084,2.126 15.488,1.989 13.339,-0.423 27.829,-7.672 35.077,-18.892 1.128,-1.552 1.983,-2.694 2.974,-4.116 0.998,-1.567 2.27,-4.26 3.549,-7.522 1.709,-4.834 1.127,-2.844 2.981,-10.229 1.278,-5.251 1.86,-8.534 2.133,-11.925 0.151,-1.566 0.28,-3.261 0.438,-5.114 0.137,-5.826 0.841,-7.249 -0.438,-11.789 -1.982,-7.657 -6.824,-15.207 -10.797,-19.165 -7.097,-6.969 -13.62,-9.102 -17.463,-11.078 -3.836,-1.989 -5.395,-2.27 -10.359,-3.979 -4.963,-1.846 -7.672,-2.134 -16.486,-2.134 -8.656,0.137 -15.753,0.568 -17.88,1.128 -15.487,4.267 -21.019,7.105 -27.692,12.507 -17.327,13.62 -20.876,40.321 -20.876,40.321 0,0 -1.846,13.62 1.128,27.829 1.71,7.528 9.245,21.299 13.649,26.845 3.685,4.677 12.197,11.508 17.312,14.633 5.115,3.261 12.363,7.521 20.739,10.071 4.116,1.401 7.248,1.983 16.609,2.414 10.796,0.424 26.708,-2.414 36.068,-5.251 9.806,-2.989 18.742,-9.382 23.297,-14.339 4.676,-5.121 15.056,-20.308 16.752,-23.44 1.853,-3.124 6.817,-19.74 7.241,-22.01 0.438,-2.126 1.278,-9.655 8.67,-9.231 6.81,0.582 4.82,8.376 4.677,9.806 -0.288,1.422 -2.694,14.338 -3.836,17.887 -0.992,3.548 -6.236,12.923 -7.522,14.769 -0.567,1.142 -5.394,8.951 -10.071,15.057 -3.556,4.547 -6.975,9.101 -10.811,11.371 -7.234,4.67 -16.465,8.8 -16.465,8.8 0,0 -15.761,5.402 -24.007,6.394 -7.098,0.855 -14.755,2.406 -27.398,1.566 -12.636,-0.855 -19.597,-4.267 -24.274,-6.106 -4.554,-1.997 -15.056,-6.545 -22.879,-12.924 -7.816,-6.407 -5.395,-3.275 -9.655,-7.952 -4.116,-4.691 -5.395,-5.969 -8.232,-9.956 -2.845,-4.116 -8.937,-16.041 -11.228,-24.13 -0.841,-3.268 -2.407,-8.239 -3.118,-13.067 -0.567,-4.109 -0.718,-8.096 -0.28,-11.357 0.711,-6.961 0.424,-7.097 0.424,-7.097 0,0 3.261,-13.491 4.971,-18.893 1.839,-5.244 4.26,-13.06 15.193,-25.279 11.07,-12.076 21.156,-15.33 24.992,-16.896 3.836,-1.422 16.752,-5.962 33.798,-6.249 19.741,-0.431 24.855,3.972 28.404,5.394 3.685,1.566 15.761,6.681 25.415,15.761 9.655,9.08 12.78,18.886 13.067,19.597 2.687,7.665 3.549,19.891 1.128,31.816 -1.702,8.089 -2.981,15.064 -4.547,20.028 -2.845,8.512 -6.25,13.347 -8.8,17.176 -2.27,3.548 -9.382,8.95 -13.778,11.651 -2.133,1.265 -4.116,2.838 -6.961,3.98 -2.845,1.279 -6.537,2.119 -10.933,3.125 -4.116,0.991 -9.518,1.983 -14.058,2.27 -3.973,0.28 -7.378,0.136 -8.815,0.136 -1.982,0 -8.8,-1.142 -17.88,-5.955 -5.114,-2.701 -10.516,-5.84 -16.615,-11.925 -1.854,-1.997 -3.549,-4.403 -4.971,-6.393 -13.491,-18.462 -8.52,-39.057 -8.52,-39.057 0,0 2.407,-27.836 26.831,-35.788 8.67,-2.694 16.199,-2.845 22.592,-2.127 10.653,1.415 18.462,5.826 23.713,8.52 5.402,2.83 9.375,7.385 11.508,12.363 2.126,4.54 2.55,9.367 2.407,13.34 -0.137,2.421 -0.137,5.395 -0.704,8.527 -1.416,7.937 -4.26,15.897 -11.228,21.852 l -2.134,1.429 c -1.279,0.855 -2.406,1.423 -3.405,1.983 -5.955,3.132 -11.795,4.267 -19.884,4.691 -2.988,-0.144 -7.378,-0.718 -9.798,-1.99 C -29.553,33.094 -34.797,24.56 -34.381,13.361 -33.957,2.852 -24.151,-2.687 -22.456,-4.246 -22.298,-4.396 -0.575,-9.928 0,0" /></g></g></g></g></svg>