<svg width="648" height="987" viewBox="0 0 648 987" fill="none" xmlns="http://www.w3.org/2000/svg">
<g clip-path="url(#clip0)">
<path fill-rule="evenodd" clip-rule="evenodd" d="M58.771 986.977L588.396 986.977C631.324 986.977 647.167 971.135 647.167 928.187L647.167 409.952C647.167 405.092 646.971 400.577 646.542 396.395C645.564 387.02 645.38 377.936 636.662 367.593C635.81 366.58 626.908 359.956 626.908 359.956C622.12 357.608 618.851 355.879 613.451 353.705L352.656 244.441C339.118 238.235 333.456 235.816 323.623 236.011V236.009C323.61 236.009 323.598 236.009 323.584 236.009C323.571 236.009 323.559 236.009 323.546 236.009V236.011C313.712 235.816 308.051 238.235 294.511 244.441L33.7177 353.705C28.3164 355.879 25.0484 357.608 20.259 359.956C20.259 359.956 11.3577 366.58 10.507 367.593C1.78837 377.936 1.60437 387.02 0.627032 396.395C0.197699 400.577 0.000364095 405.092 0.000364095 409.952L0.000364095 928.187C0.000364095 971.135 15.8444 986.977 58.771 986.977Z" fill="#666666"/>
<path d="M94.2451 465.961L94.3651 464.765L94.4837 463.451L94.7237 462.255L95.0811 461.061L95.3131 459.985L95.6731 458.789L96.1504 457.713L96.6291 456.755L97.0997 455.681L97.697 454.725L98.2944 453.767L99.0051 452.811L99.6037 451.855L100.313 451.019L101.15 450.182L101.861 449.465L102.816 448.627L103.646 447.91L104.602 447.193L105.552 446.603L106.501 445.886L107.577 445.289L108.646 444.81L109.714 444.213L110.91 443.734L112.098 443.255L113.286 442.898L114.474 442.538L115.55 442.181L116.738 441.941L117.808 441.702L118.876 441.463L120.072 441.223L121.261 441.105L122.329 440.985L123.525 440.865L124.832 440.745L126.021 440.626H127.209H128.517H129.832H131.02L132.209 440.745H133.516L134.705 440.865L135.9 440.985L137.208 441.105L138.396 441.343L139.584 441.463L140.78 441.702L141.969 441.941L143.157 442.181L144.345 442.419L145.54 442.777L146.609 443.017L147.797 443.375L148.986 443.734L150.061 444.213L151.249 444.571L152.318 444.929L153.508 445.407L154.582 445.886L155.652 446.365L156.721 446.954L157.796 447.433L158.865 448.031L159.814 448.627L160.89 449.226L161.84 449.823L162.796 450.421L163.745 451.138L164.694 451.855L165.65 452.573L166.601 453.29L167.437 454.007L168.386 454.843L167.669 455.799L166.84 456.637L166.122 457.594L165.292 458.55L164.574 459.386L163.865 460.342L163.028 461.299L162.318 462.135L161.481 463.091L160.77 463.929L159.934 464.885L159.224 465.842L158.506 466.678L157.677 467.634L156.96 468.591L156.13 469.427L155.413 470.383L154.464 469.666L153.394 468.949L152.438 468.231L151.369 467.514L150.413 466.917L149.344 466.201L148.396 465.602L147.318 465.125L146.37 464.526L145.301 464.047L144.225 463.57L143.157 463.091L142.086 462.733L141.012 462.255L139.824 461.897L138.634 461.538L137.566 461.179L136.37 460.939L135.182 460.701L133.994 460.462L132.686 460.342L131.492 460.103H130.302L128.996 459.985H127.806H126.38L125.072 460.103L123.876 460.342L122.808 460.582L121.738 460.821L120.782 461.179L119.952 461.657L118.996 462.374L118.286 463.211L117.808 464.169L117.448 465.243L117.33 466.439V466.678L117.448 468.113L117.926 469.309L118.525 470.145L119.354 470.862L120.312 471.579L121.261 472.057L122.329 472.535L123.525 473.014L124.952 473.61L125.782 473.85L126.73 474.089L127.806 474.449L128.876 474.687L130.064 475.046L131.26 475.285L132.566 475.643L133.756 475.882L135.064 476.241L136.252 476.479L137.448 476.838L138.634 477.078L139.824 477.437L140.9 477.794L142.086 478.034L143.157 478.393L144.225 478.751L145.301 479.11L146.609 479.589L147.797 480.067L148.986 480.545L150.181 481.023L151.249 481.621L152.438 482.218L153.394 482.815L154.464 483.413L155.413 484.13L156.369 484.727L157.198 485.446L158.034 486.282L158.865 487.119L159.582 487.957L160.292 488.793L160.89 489.629L161.481 490.586L162.078 491.661L162.557 492.49L162.916 493.447L163.266 494.523L163.625 495.479L163.865 496.675L164.104 497.751L164.224 498.946L164.342 500.142L164.462 501.455V502.771V503.01V504.206L164.342 505.401L164.224 506.477L164.104 507.673L163.865 508.747L163.625 509.823L163.266 510.901L163.028 511.975L162.557 513.051L162.078 514.127L161.601 515.202L161.009 516.279L160.413 517.354L159.702 518.311L158.984 519.267L158.154 520.223L157.318 521.059L156.488 522.017L155.532 522.854L154.702 523.451L153.746 524.169L152.796 524.886L151.848 525.483L150.772 526.081L149.702 526.559L148.634 527.156L147.558 527.634L146.37 527.994L145.182 528.471L144.106 528.83L143.157 529.07L142.086 529.309L141.012 529.547L139.824 529.786L138.754 530.026L137.566 530.145L136.37 530.265L135.182 530.385L133.994 530.503H132.806H131.492H130.182H128.876L127.568 530.385L126.26 530.265H125.072L123.757 530.145L122.569 529.906L121.261 529.786L120.072 529.547L118.996 529.309L117.808 529.07L116.62 528.83L115.55 528.591L114.356 528.233L113.286 527.874L112.217 527.634L111.022 527.156L109.953 526.798L108.885 526.321L107.816 525.842L106.621 525.363L105.552 524.766L104.602 524.287L103.526 523.69L102.457 523.093L101.508 522.494L100.433 521.777L99.4824 521.181L98.5264 520.462L97.5771 519.745L96.6291 519.029L97.3384 518.071L97.9357 517.115L98.6464 516.159L99.3637 515.202L100.073 514.127L100.672 513.171L101.389 512.214L102.1 511.258L102.696 510.302L103.408 509.345L104.124 508.389L104.722 507.433L105.432 506.357L106.15 505.401L106.86 504.445L107.457 503.489L108.168 502.533L109.124 503.249L110.192 503.847L111.142 504.445L112.098 505.162L113.166 505.639L114.124 506.238L115.192 506.717L116.141 507.194L117.217 507.673L118.166 508.15L119.234 508.509L120.19 508.987L121.5 509.345L122.688 509.705L123.876 510.062L125.072 510.302L126.26 510.541L127.448 510.781L128.636 510.901L129.832 511.019L130.9 511.139H132.089H133.516L134.824 510.901L136.02 510.661L137.088 510.422L138.037 509.943L138.874 509.466L139.944 508.509L140.661 507.433L141.13 506.357L141.252 505.162V504.922L141.13 503.369L140.541 502.054L140.062 501.337L139.233 500.499L138.157 499.902L137.208 499.305L136.02 498.826L134.705 498.347L133.277 497.87L132.328 497.631L131.378 497.273L130.302 497.034L129.234 496.675L128.046 496.435L126.73 496.077L125.422 495.719L124.114 495.359L122.808 495.121L121.62 494.762L120.312 494.403L119.116 494.165L117.926 493.806L116.738 493.447L115.67 493.089L114.474 492.73L113.405 492.371L112.337 492.013L111.022 491.542L109.834 490.943L108.646 490.466L107.457 489.869L106.381 489.27L105.312 488.673L104.364 488.075L103.408 487.358L102.457 486.761L101.508 485.923L100.552 485.087L99.7224 484.13L98.8864 483.294L98.1757 482.337L97.4584 481.262L96.8677 480.306L96.2691 479.229L95.7917 478.273L95.4331 477.198L95.0811 476.122L94.8424 475.046L94.6037 473.85L94.3651 472.654L94.2451 471.459L94.1251 470.145V468.83V468.591V467.275L94.2451 465.961ZM177.704 442.059H178.898H180.086H181.274H182.462H183.658H184.848H186.034H187.224H188.538H189.726H190.914H192.102H193.3H194.486H195.676H196.864H198.06H199.248H200.436H201.624H202.813H204.008H205.196H206.384H207.573H208.769H209.957H211.145H212.453H213.648H214.837H216.025H217.213H218.408H219.597H220.785H221.974H223.169H224.357H225.545H226.734H227.93H229.117H230.306H231.494H232.689H233.878H235.186H236.374H237.562H238.758H239.946H241.136H242.322H243.517H244.706H245.894V443.255V444.451V445.646V446.835V448.031V449.226V450.421V451.615V452.811V454.007V455.202V456.398V457.594V458.789V459.985V461.179V462.374V463.57V464.646V465.842V467.037V468.231V469.427V470.623V471.818V473.014V474.21V475.405V476.599V477.794V478.99V480.186V481.381V482.577V483.773V484.967V486.163V487.358V488.553V489.749V490.943V492.133V493.327V494.523V495.719V496.914V498.109V499.305V500.499V501.695V502.891V504.086V505.282V506.477V507.553V508.747V509.943V511.139V512.334V513.53V514.725V515.921V517.115V518.311V519.506V520.702V521.898V523.093V524.287V525.483V526.678V527.874V529.07H244.706H243.517H242.322H241.136H239.946H238.758H237.562H236.374H235.186H233.997H232.802H231.613H230.426H229.237H228.162H226.973H225.785H224.596H223.401H222.213H221.025H219.836H218.641H217.453H216.265H215.076H213.88H212.692H211.504H210.316H209.12H207.93H206.744H205.556H204.366H203.17H201.982H200.794H199.606H198.41H197.222H196.034H194.846H193.769H192.581H191.393H190.204H189.009H187.821H186.633H185.445H184.249H183.061H181.873H180.684H179.489H178.3H177.112V527.874V526.798V525.603V524.407V523.213V522.137V520.941V519.745V518.67V517.474V516.279V515.202V514.007V512.813V511.617V510.541V509.345H178.3H179.489H180.684H181.873H183.061H184.249H185.325H186.513H187.701H188.89H190.085H191.273H192.462H193.65H194.846H196.034H197.222H198.41H199.606H200.674H201.864H203.052H204.248H205.434H206.624H207.812H209.008H210.196H211.384L212.572 509.345H213.768H214.957H216.025H217.213H218.408H219.597H220.785H221.974H223.169V508.15V506.955V505.761V504.565V503.369V502.293V501.098V499.902V498.707V497.511V496.317V495.121H221.974H220.785H219.597H218.408H217.213H216.025H214.837H213.648H212.572H211.384H210.196H209.008H207.812H206.624H205.434H204.248H203.052H201.864H200.674H199.486H198.292H197.104H195.914H194.725H193.53H192.342H191.273H190.085H188.89H187.701H186.513H185.325H184.13H182.941H181.753V493.926V492.85V491.661V490.466V489.39V488.195V486.999V485.923V484.727V483.533V482.337V481.262V480.067V478.871V477.794V476.599H182.941H184.13H185.325H186.513H187.701H188.89H190.085H191.273H192.342H193.53H194.725H195.914H197.104H198.292H199.486H200.674H201.864H203.052H204.248H205.434H206.624H207.812H209.008H210.196H211.384H212.572H213.648H214.837H216.025H217.213H218.408H219.597H220.785H221.974H223.169V475.405V474.089V472.894V471.698V470.383V469.187V467.993V466.678V465.483V464.287V462.973V461.778H221.974H220.785H219.597H218.408H217.213H216.025H214.837H213.648H212.453H211.145H209.957H208.769H207.573H206.384H205.196H204.008H202.813H201.624H200.436H199.248H198.06H196.864H195.676H194.486H193.3H192.102H190.914H189.726H188.538H187.224H186.034H184.848H183.658H182.462H181.274H180.086H178.898H177.704H176.514V460.582V459.506V458.31V457.115V455.919V454.843V453.649V452.454V451.377V450.182V448.987V447.91V446.722V445.527V444.333V443.255V442.059H177.704ZM264.656 442.059H265.844H267.033H268.346H269.534H270.724H271.912H273.108H274.296H275.604H276.792H277.981L279.176 442.059H280.364H281.552H282.86H284.056H285.244H286.433V443.255V444.451V445.646V446.842V448.045V449.239V450.435V451.631V452.826V454.021V455.217V456.418V457.614V458.81V460.005V461.201V462.403V463.599V464.794V465.989V467.185V468.379V469.582V470.777V471.973V473.169V474.363V475.559V476.762V477.958V479.153V480.347V481.542V482.738V483.941V485.135V486.331V487.526V488.722V489.925V491.119V492.315V493.511L287.029 492.555L287.74 491.471L288.338 490.515L289.048 489.558L289.645 488.483L290.364 487.526L290.953 486.57L291.552 485.487L292.261 484.531L292.86 483.575L293.576 482.618L294.166 481.535L294.884 480.579L295.474 479.623L296.073 478.547L296.79 477.585L297.381 476.627L298.098 475.553L298.688 474.595L299.405 473.639L299.996 472.557L300.594 471.599L301.31 470.643L301.901 469.567L302.618 468.605L303.209 467.649L303.926 466.691L304.525 465.617L305.116 464.654L305.832 463.697L306.422 462.621L307.14 461.665L307.737 460.709L308.448 459.625L309.045 458.669H309.517L310.233 459.745L310.832 460.709L311.542 461.785L312.14 462.741L312.85 463.815L313.448 464.779L314.157 465.855L314.756 466.813L315.473 467.887L316.064 468.843L316.781 469.927L317.37 470.883L318.088 471.959L318.686 472.915L319.396 473.998L319.994 474.954L320.704 476.03L321.421 476.986L322.018 478.069L322.729 479.025L323.326 480.101L324.037 481.057L324.634 482.141L325.345 483.097L325.942 484.173L326.66 485.129L327.25 486.205L327.968 487.169L328.558 488.243L329.276 489.201L329.873 490.277L330.582 491.231L331.182 492.315L331.892 493.271V492.077V490.881V489.685V488.483V487.287V486.093V484.897V483.701V482.499V481.303V480.227V479.033V477.837V476.642V475.439V474.243V473.049V471.854V470.658V469.462V468.261V467.065V465.869V464.674V463.478V462.283V461.081V459.886V458.69V457.495V456.299V455.098V454.021V452.826V451.631V450.435V449.239V448.045V446.842V445.646V444.451V443.255V442.059H333.08H334.274H335.464H336.652H337.84H339.034H340.224H341.412H342.601H343.796H344.984H346.173H347.361H348.556H349.744H350.933H352.122H353.317H354.505V443.255V444.451V445.646V446.835V448.031V449.226V450.421V451.615V452.811V454.007V455.202V456.398V457.594V458.789V459.985V461.179V462.374V463.57V464.646V465.842V467.037V468.231V469.427V470.623V471.818V473.014V474.21V475.405V476.599V477.794V478.99V480.186V481.381V482.577V483.773V484.967V486.163V487.358V488.553V489.749V490.943V492.133V493.327V494.523V495.719V496.914V498.109V499.305V500.499V501.695V502.891V504.086V505.282V506.477V507.553V508.747V509.943V511.139V512.334V513.53V514.725V515.921V517.115V518.311V519.506V520.702V521.898V523.093V524.287V525.483V526.678V527.874V529.07H353.317H352.122H351.052H349.865H348.676H347.481H346.412H345.224H344.028H342.84H341.77H340.582H339.386H338.198H337.13H335.942H334.746H333.557H332.489H331.301H330.105L329.514 528.113L328.917 527.038L328.208 526.089L327.609 525.013L327.012 524.057L326.421 522.979L325.824 522.031L325.112 520.954L324.516 519.998L323.917 519.042L323.326 517.974L322.729 517.017L322.018 515.942L321.421 514.985L320.824 513.917L320.233 512.961L319.516 512.005L318.917 510.934L318.328 509.979L317.73 508.903L317.138 507.946L316.421 506.878L315.824 505.921L315.234 504.846L314.636 503.897L314.045 502.941L313.328 501.865L312.73 500.907L312.14 499.831L311.542 498.882L310.952 497.806L310.233 496.85L309.636 495.782L309.045 494.825L308.448 495.782L307.85 496.85L307.14 497.806L306.544 498.882L305.952 499.831L305.354 500.907L304.644 501.865L304.046 502.941L303.448 503.897L302.858 504.846L302.141 505.921L301.55 506.878L300.952 507.946L300.356 508.903L299.645 509.979L299.048 510.934L298.449 512.005L297.86 512.961L297.26 513.917L296.55 514.985L295.953 515.942L295.356 517.017L294.764 517.974L294.048 519.042L293.456 519.998L292.86 520.954L292.261 522.031L291.552 522.979L290.953 524.057L290.364 525.013L289.765 526.089L289.048 527.038L288.457 528.113L287.86 529.07H286.672H285.482H284.408H283.218H282.03H280.842H279.766H278.577H277.39H276.201H275.125H273.937H272.749H271.56H270.485H269.296H268.108H266.92H265.844H264.656H263.468V527.874V526.678V525.483V524.287V523.093V521.898V520.702V519.506V518.311V517.115V515.921V514.725V513.53V512.334V511.139V509.943V508.747V507.553V506.477V505.282V504.086V502.891V501.695V500.499V499.305V498.109V496.914V495.719V494.523V493.327V492.133V490.943V489.749V488.553V487.358V486.163V484.967V483.773V482.577V481.381V480.186V478.99V477.794V476.599V475.405V474.21V473.014V471.818V470.623V469.427V468.231V467.037V465.842V464.646V463.57V462.374V461.179V459.985V458.789V457.594V456.398V455.202V454.007V452.811V451.615V450.421V449.226V448.031V446.835V445.646V444.451V443.255V442.059H264.656ZM402.734 477.914L403.093 478.997L403.564 480.193L404.042 481.269L404.401 482.351L404.872 483.427L405.349 484.623L405.709 485.706L406.188 486.782L406.657 487.857L407.017 488.939L407.496 490.135L407.846 491.211L408.325 492.294L408.804 493.37L409.161 494.446L409.633 495.647L410.11 496.725L410.469 497.799L410.948 498.882L411.418 500.078L411.777 501.161L412.256 502.237L412.726 501.161L413.084 500.078L413.562 498.882L414.041 497.799L414.393 496.725L414.87 495.647L415.349 494.446L415.82 493.37L416.18 492.294L416.657 491.211L417.136 490.135L417.488 488.939L417.965 487.857L418.444 486.782L418.801 485.706L419.273 484.623L419.752 483.427L420.229 482.351L420.58 481.269L421.058 480.193L421.537 478.997L421.896 477.914L422.366 476.838H421.178H419.99H418.801H417.606H416.418H415.23H414.041H412.845H411.777H410.589H409.393H408.205H407.017H405.828H404.64H403.445H402.257L402.734 477.914ZM365.361 442.059H366.556H367.626H368.813H370.009H371.197H372.386H373.454H374.65H375.838H377.026H378.216H379.41H380.48H381.668H382.857H384.052H385.24H386.309H387.497H388.692L389.164 443.137L389.522 444.213L390 445.289L390.478 446.483L390.83 447.553L391.308 448.627L391.786 449.703L392.138 450.779L392.616 451.855L393.094 452.931L393.452 454.007L393.924 455.202L394.402 456.278L394.761 457.354L395.24 458.43H396.428H397.616H398.804H399.992H401.068H402.257H403.445H404.64H405.828H407.017H408.205H409.393H410.589H411.777H412.845H414.041H415.23H416.418H417.606H418.801H419.99H421.178H422.366H423.554H424.632H425.818H427.008H428.204H429.392L429.862 457.354L430.221 456.278L430.7 455.202L431.177 454.007L431.529 452.931L432.006 451.855L432.485 450.779L432.844 449.703L433.314 448.627L433.793 447.553L434.152 446.483L434.624 445.289L435.101 444.213L435.46 443.137L435.938 442.059H437.126H438.314H439.502H440.698H441.886H443.194H444.382H445.572H446.766H447.954H449.142H450.332H451.528H452.714H453.902H455.21H456.406H457.594H458.784H459.972L459.501 443.137L459.022 444.213L458.545 445.289L458.073 446.483L457.714 447.553L457.236 448.627L456.758 449.703L456.288 450.779L455.809 451.855L455.33 453.051L454.86 454.127L454.381 455.202L454.024 456.278L453.545 457.354L453.074 458.43L452.596 459.625L452.118 460.701L451.646 461.778L451.168 462.853L450.69 463.929L450.332 465.005L449.861 466.201L449.382 467.275L448.904 468.351L448.433 469.427L447.954 470.503L447.476 471.579L447.005 472.775L446.646 473.85L446.168 474.926L445.69 476.002L445.218 477.078L444.741 478.154L444.264 479.349L443.792 480.425L443.314 481.501L442.956 482.577L442.477 483.651L442.006 484.727L441.528 485.923L441.049 486.999L440.578 488.075L440.101 489.151L439.622 490.226L439.264 491.303L438.792 492.371L438.314 493.567L437.837 494.642L437.365 495.719L436.888 496.795L436.409 497.87L435.938 498.946L435.58 500.142L435.101 501.217L434.624 502.293L434.152 503.369L433.673 504.445L433.196 505.521L432.724 506.717L432.246 507.791L431.888 508.867L431.41 509.943L430.938 511.019L430.461 512.095L429.982 513.29L429.512 514.366L429.033 515.442L428.554 516.518L428.204 517.593L427.725 518.67L427.246 519.865L426.768 520.941L426.297 522.017L425.818 523.093L425.341 524.169L424.87 525.243L424.51 526.439L424.033 527.515L423.554 528.591L423.084 529.667H421.896H420.82H419.632H418.444H417.248H416.18H414.992H413.802H412.606H411.537H410.35H409.161H407.966H406.897H405.709H404.521H403.325H402.257H401.068L400.59 528.591L400.112 527.515L399.64 526.439L399.162 525.243L398.804 524.169L398.333 523.093L397.854 522.017L397.377 520.941L396.898 519.865L396.428 518.67L395.949 517.593L395.47 516.518L395.12 515.442L394.641 514.366L394.162 513.29L393.684 512.095L393.213 511.019L392.736 509.943L392.257 508.867L391.786 507.791L391.428 506.717L390.95 505.521L390.478 504.445L390 503.369L389.522 502.293L389.044 501.217L388.573 500.142L388.096 498.946L387.736 497.87L387.265 496.795L386.788 495.719L386.309 494.642L385.83 493.567L385.36 492.371L384.881 491.303L384.404 490.226L384.052 489.151L383.574 488.075L383.096 486.999L382.624 485.923L382.146 484.727L381.668 483.651L381.189 482.577L380.718 481.501L380.36 480.425L379.882 479.349L379.41 478.154L378.933 477.078L378.454 476.002L377.977 474.926L377.505 473.85L377.026 472.775L376.669 471.579L376.197 470.503L375.72 469.427L375.241 468.351L374.77 467.275L374.292 466.201L373.813 465.005L373.334 463.929L372.984 462.853L372.505 461.778L372.026 460.701L371.556 459.625L371.078 458.43L370.6 457.354L370.122 456.278L369.652 455.202L369.292 454.127L368.813 453.051L368.342 451.855L367.865 450.779L367.388 449.703L366.916 448.627L366.438 447.553L365.96 446.483L365.6 445.289L365.13 444.213L364.652 443.137L364.174 442.059H365.361ZM469.618 453.171L470.574 452.454L471.405 451.855L472.361 451.138L473.31 450.541L474.26 449.823L475.216 449.226L476.165 448.627L477.241 448.031L478.31 447.433L479.38 446.835L480.454 446.365L481.524 445.766L482.712 445.289L483.78 444.81L484.976 444.333L486.044 443.854L487.114 443.495L488.189 443.137L489.258 442.777L490.446 442.419L491.514 442.059L492.71 441.821L493.78 441.582L494.968 441.343L496.162 441.105L497.352 440.985L498.66 440.865L499.848 440.745L501.156 440.626L502.352 440.506L503.658 440.387H504.966H506.276H507.582H508.778L509.966 440.506L511.274 440.626L512.462 440.745L513.65 440.865L514.846 440.985L516.034 441.223L517.224 441.463L518.292 441.702L519.486 441.941L520.556 442.299L521.744 442.538L522.82 442.898L523.889 443.375L524.958 443.734L526.145 444.213L527.221 444.69L528.29 445.167L529.358 445.646L530.436 446.243L531.384 446.835L532.453 447.433L533.409 448.031L534.358 448.627L535.314 449.346L536.264 450.062L537.214 450.779L538.05 451.497L538.88 452.214L539.717 453.051L540.546 453.767L541.384 454.605L542.213 455.442L542.93 456.278L543.641 457.234L544.358 458.071L544.956 459.027L545.666 459.985L546.262 460.939L546.854 461.897L547.452 462.973L548.049 463.929L548.52 465.005L548.998 466.081L549.476 467.157L549.948 468.231L550.306 469.187L550.785 470.265L551.024 471.341L551.376 472.415L551.614 473.61L551.973 474.687L552.212 475.882L552.332 476.958L552.572 478.154L552.689 479.229L552.81 480.425L552.922 481.621L553.041 482.815V484.13V485.326V485.565V486.761L552.922 488.075V489.27L552.81 490.466L552.689 491.781L552.45 492.969L552.332 494.165L552.093 495.241L551.734 496.435L551.494 497.631L551.144 498.707L550.785 499.902L550.426 500.978L549.948 502.174L549.476 503.249L548.998 504.325L548.52 505.401L548.049 506.477L547.452 507.553L546.854 508.509L546.262 509.466L545.666 510.422L545.068 511.378L544.358 512.334L543.641 513.29L542.93 514.246L542.213 515.085L541.384 515.921L540.666 516.758L539.836 517.593L539 518.431L538.17 519.147L537.214 519.985L536.384 520.702L535.434 521.419L534.478 522.017L533.529 522.734L532.572 523.331L531.624 523.929L530.554 524.527L529.478 525.125L528.41 525.722L527.341 526.201L526.266 526.678L525.077 527.277L524.128 527.634L522.94 527.994L521.862 528.471L520.794 528.711L519.726 529.07L518.532 529.309L517.462 529.667L516.274 529.906L515.085 530.026L513.89 530.265L512.701 530.385L511.514 530.503L510.325 530.623L509.129 530.743H507.821H506.633H505.326H504.018L502.702 530.623L501.394 530.503H500.206L499.018 530.385L497.71 530.145L496.634 530.026L495.446 529.786L494.257 529.547L493.182 529.309L492.114 529.07L491.044 528.83L489.968 528.471L488.9 528.233L487.95 527.874L486.874 527.515L485.805 527.038L484.737 526.559L483.661 526.081L482.592 525.483L481.524 525.005L480.566 524.407L479.498 523.81L478.549 523.213L477.473 522.614L476.524 521.898L475.574 521.299L474.618 520.582L473.669 519.865L472.713 519.029L471.764 518.311L472.481 517.354L473.31 516.518L474.028 515.562L474.857 514.606L475.574 513.649L476.285 512.813L477.122 511.857L477.832 510.901L478.549 510.062L479.38 509.106L480.096 508.15L480.926 507.194L481.644 506.357L482.353 505.401L483.189 504.445L483.901 503.489L484.737 502.651L485.448 501.695L486.404 502.413L487.353 503.249L488.309 503.847L489.258 504.565L490.208 505.162L491.164 505.761L492.114 506.357L493.182 506.955L494.138 507.433L495.088 507.911L496.044 508.27L497.113 508.629L498.181 508.987L499.257 509.226L500.445 509.466L501.633 509.705L502.822 509.823L504.13 509.943L505.445 510.062H506.753H507.941L509.129 509.943L510.205 509.823L511.393 509.585L512.462 509.345L513.538 508.987L514.606 508.629L515.676 508.15L516.745 507.673L517.701 507.075L518.649 506.477L519.606 505.878L520.436 505.162L521.273 504.445L522.102 503.727L522.82 502.891L523.649 502.054L524.366 501.098L524.958 500.261L525.556 499.305L526.145 498.229L526.744 497.273L527.221 496.197L527.58 495.121L528.052 494.045L528.41 492.85L528.649 491.661L528.888 490.586L529.128 489.27L529.246 488.075L529.358 486.881V485.565V485.326V484.13L529.246 482.935L529.128 481.859L529.008 480.663L528.769 479.589L528.529 478.511L528.29 477.437L527.932 476.361L527.58 475.405L527.101 474.21L526.624 473.133L526.033 472.057L525.436 471.101L524.838 470.145L524.128 469.187L523.41 468.351L522.581 467.514L521.862 466.678L521.034 465.961L520.077 465.243L519.128 464.526L518.18 463.929L517.224 463.331L516.153 462.853L515.085 462.374L514.01 461.897L512.821 461.538L511.633 461.179L510.437 460.939L509.249 460.701L508.061 460.582L506.753 460.462H505.445H504.018L502.702 460.582L501.394 460.701L500.206 460.821L499.018 461.061L497.822 461.299L496.634 461.657L495.566 461.897L494.496 462.374L493.54 462.853L492.472 463.331L491.636 463.809L490.685 464.407V465.602V466.797V467.993V469.187V470.503V471.698V472.894V474.089V475.285H491.874H492.949H494.138H495.326H496.514H497.59H498.78H499.968H501.156H502.23H503.42H504.608H505.797H506.872H508.061V476.479V477.555V478.751V479.946V481.142V482.218V483.413V484.609V485.803V486.881V488.075V489.27V490.466V491.542V492.73H506.872H505.677H504.488H503.301H502.112H500.924H499.728H498.54H497.352H496.162H494.968H493.78H492.592H491.404H490.208H489.018H487.83H486.642H485.448H484.258H483.07H481.882H480.688H479.498H478.31H477.122H475.926H474.738H473.549H472.361H471.166H469.978H468.789V491.542V490.347V489.151V488.075V486.881V485.685V484.49V483.294V482.098V481.023V479.827V478.631V477.437V476.241V475.046V473.85V472.775V471.579V470.383V469.187V467.993V466.797V465.602V464.526V463.331V462.135V460.939V459.745V458.55V457.473V456.278V455.083V453.887L469.618 453.171Z" fill="#666666"/>
<path d="M507.893 725.94H456.315V765.836H507.893V847.284H454.262V887.18H551.691V599.245H453.446V639.142H507.893V725.94Z" fill="#666666"/>
<path d="M138.459 717.297V652.305C138.459 640.786 143.783 635.442 154.83 635.442H163.022C174.482 635.442 179.806 640.786 179.806 652.305L179.806 834.121C179.806 845.638 174.482 850.982 163.022 850.982H155.652C144.599 850.982 139.275 845.638 139.275 834.121L139.275 777.762H96.2976L96.2976 836.589C96.2976 872.372 113.491 889.649 149.098 889.649H170.39C205.998 889.649 223.606 871.964 223.606 836.174L223.606 650.252C223.606 614.461 205.998 596.777 170.39 596.777H148.691C113.075 596.777 95.4763 614.461 95.4763 650.252V717.297H138.459Z" fill="#666666"/>
<path d="M290.559 599.245H246.754L246.754 887.181H290.559L290.559 599.245Z" fill="#666666"/>
<path d="M354.118 759.255C354.118 747.737 359.434 742.386 370.487 742.386H388.502V848.514H370.487C359.434 848.514 354.118 843.169 354.118 831.653V759.255ZM363.532 887.181H432.302L432.302 599.245H388.502V703.727H363.532C327.918 703.727 310.318 721.411 310.318 757.194V833.706C310.318 869.495 327.918 887.181 363.532 887.181" fill="#666666"/>
<path fill-rule="evenodd" clip-rule="evenodd" d="M448.362 338.894H197.623L325.605 296.688L448.362 338.894Z" fill="#666666"/>
</g>
<g clip-path="url(#clip1)">
<path fill-rule="evenodd" clip-rule="evenodd" d="M588.396 -0.000423174H58.7707C15.8427 -0.000423174 0 15.8423 0 58.7903V577.025C0 581.885 0.195992 586.4 0.625325 590.582C1.60266 599.957 1.78666 609.041 10.5053 619.384C11.3573 620.397 20.2587 627.021 20.2587 627.021C25.0467 629.369 28.316 631.098 33.716 633.272L294.511 742.536C308.049 748.742 313.711 751.161 323.544 750.966V750.968C323.557 750.968 323.569 750.968 323.583 750.968C323.596 750.968 323.608 750.968 323.621 750.968V750.966C333.455 751.161 339.116 748.742 352.656 742.536L613.449 633.272C618.851 631.098 622.119 629.369 626.908 627.021C626.908 627.021 635.809 620.397 636.66 619.384C645.379 609.041 645.563 599.957 646.54 590.582C646.969 586.4 647.167 581.885 647.167 577.025V58.7903C647.167 15.8423 631.323 -0.000423174 588.396 -0.000423174Z" fill="white"/>
<path d="M552.922 521.016L552.802 522.212L552.683 523.526L552.443 524.722L552.086 525.916L551.854 526.992L551.494 528.188L551.017 529.264L550.538 530.222L550.067 531.296L549.47 532.252L548.873 533.21L548.162 534.166L547.563 535.122L546.854 535.958L546.017 536.795L545.306 537.512L544.351 538.35L543.521 539.067L542.565 539.784L541.615 540.374L540.666 541.091L539.59 541.688L538.521 542.167L537.453 542.764L536.257 543.243L535.069 543.722L533.881 544.079L532.693 544.439L531.617 544.796L530.429 545.036L529.359 545.275L528.291 545.514L527.095 545.754L525.906 545.872L524.838 545.992L523.642 546.112L522.335 546.232L521.146 546.351H519.958H518.65H517.335H516.147L514.958 546.232H513.651L512.462 546.112L511.267 545.992L509.959 545.872L508.771 545.634L507.583 545.514L506.387 545.275L505.198 545.036L504.01 544.796L502.822 544.558L501.627 544.2L500.558 543.96L499.37 543.602L498.181 543.243L497.106 542.764L495.918 542.406L494.849 542.048L493.659 541.57L492.585 541.091L491.515 540.612L490.446 540.023L489.371 539.544L488.302 538.946L487.353 538.35L486.277 537.751L485.327 537.154L484.371 536.556L483.422 535.839L482.473 535.122L481.517 534.404L480.566 533.687L479.73 532.97L478.781 532.134L479.498 531.178L480.327 530.34L481.045 529.383L481.875 528.427L482.593 527.591L483.302 526.635L484.139 525.678L484.849 524.842L485.686 523.886L486.397 523.048L487.233 522.092L487.943 521.135L488.661 520.299L489.49 519.343L490.207 518.386L491.037 517.55L491.754 516.594L492.703 517.311L493.773 518.028L494.729 518.746L495.798 519.463L496.754 520.06L497.823 520.776L498.771 521.375L499.849 521.852L500.797 522.451L501.866 522.93L502.942 523.407L504.01 523.886L505.081 524.244L506.155 524.722L507.343 525.08L508.533 525.439L509.601 525.798L510.797 526.038L511.985 526.276L513.173 526.515L514.481 526.635L515.675 526.874H516.865L518.171 526.992H519.361H520.787L522.095 526.874L523.291 526.635L524.359 526.395L525.429 526.156L526.385 525.798L527.215 525.32L528.171 524.603L528.881 523.766L529.359 522.808L529.719 521.734L529.837 520.538V520.299L529.719 518.864L529.241 517.668L528.642 516.832L527.813 516.115L526.855 515.398L525.906 514.92L524.838 514.442L523.642 513.963L522.215 513.367L521.385 513.127L520.437 512.888L519.361 512.528L518.291 512.29L517.103 511.931L515.907 511.692L514.601 511.334L513.411 511.095L512.103 510.736L510.915 510.498L509.719 510.139L508.533 509.899L507.343 509.54L506.267 509.183L505.081 508.943L504.01 508.584L502.942 508.226L501.866 507.867L500.558 507.388L499.37 506.91L498.181 506.432L496.986 505.954L495.918 505.356L494.729 504.759L493.773 504.162L492.703 503.564L491.754 502.847L490.798 502.25L489.969 501.531L489.133 500.695L488.302 499.858L487.585 499.02L486.875 498.184L486.277 497.348L485.686 496.391L485.089 495.316L484.61 494.487L484.251 493.53L483.901 492.454L483.542 491.498L483.302 490.302L483.063 489.226L482.943 488.031L482.825 486.835L482.705 485.522V484.206V483.967V482.771L482.825 481.576L482.943 480.5L483.063 479.304L483.302 478.23L483.542 477.154L483.901 476.076L484.139 475.002L484.61 473.926L485.089 472.85L485.566 471.775L486.158 470.698L486.754 469.623L487.465 468.666L488.183 467.71L489.013 466.754L489.849 465.918L490.679 464.96L491.635 464.123L492.465 463.526L493.421 462.808L494.371 462.091L495.319 461.494L496.395 460.896L497.465 460.418L498.533 459.82L499.609 459.343L500.797 458.983L501.985 458.506L503.061 458.147L504.01 457.907L505.081 457.668L506.155 457.43L507.343 457.191L508.413 456.951L509.601 456.832L510.797 456.712L511.985 456.592L513.173 456.474H514.361H515.675H516.985H518.291L519.599 456.592L520.907 456.712H522.095L523.41 456.832L524.598 457.071L525.906 457.191L527.095 457.43L528.171 457.668L529.359 457.907L530.547 458.147L531.617 458.386L532.811 458.744L533.881 459.103L534.95 459.343L536.145 459.82L537.214 460.179L538.282 460.656L539.351 461.135L540.546 461.614L541.615 462.211L542.565 462.69L543.641 463.287L544.71 463.884L545.659 464.483L546.734 465.2L547.685 465.796L548.641 466.515L549.59 467.232L550.538 467.948L549.829 468.906L549.231 469.862L548.521 470.818L547.803 471.775L547.094 472.85L546.495 473.806L545.778 474.763L545.067 475.719L544.471 476.675L543.759 477.632L543.043 478.588L542.445 479.544L541.735 480.62L541.017 481.576L540.307 482.532L539.71 483.488L538.999 484.444L538.043 483.728L536.975 483.13L536.025 482.532L535.069 481.815L534.001 481.338L533.043 480.739L531.975 480.26L531.026 479.783L529.95 479.304L529.001 478.827L527.933 478.468L526.977 477.99L525.667 477.632L524.479 477.272L523.291 476.915L522.095 476.675L520.907 476.436L519.719 476.196L518.531 476.076L517.335 475.958L516.267 475.838H515.078H513.651L512.343 476.076L511.147 476.316L510.079 476.555L509.13 477.034L508.293 477.511L507.223 478.468L506.506 479.544L506.037 480.62L505.915 481.815V482.055L506.037 483.608L506.626 484.923L507.105 485.64L507.934 486.478L509.01 487.075L509.959 487.672L511.147 488.151L512.462 488.63L513.89 489.107L514.839 489.346L515.789 489.704L516.865 489.943L517.933 490.302L519.121 490.542L520.437 490.9L521.745 491.258L523.053 491.618L524.359 491.856L525.547 492.215L526.855 492.574L528.051 492.812L529.241 493.171L530.429 493.53L531.497 493.888L532.693 494.247L533.762 494.606L534.83 494.964L536.145 495.435L537.333 496.034L538.521 496.511L539.71 497.108L540.786 497.707L541.855 498.304L542.803 498.902L543.759 499.619L544.71 500.216L545.659 501.054L546.615 501.89L547.445 502.847L548.281 503.683L548.991 504.64L549.709 505.715L550.299 506.671L550.898 507.748L551.375 508.704L551.734 509.779L552.086 510.855L552.325 511.931L552.563 513.127L552.802 514.323L552.922 515.518L553.042 516.832V518.147V518.386V519.702L552.922 521.016ZM469.463 544.918H468.269H467.081H465.893H464.705H463.509H462.319H461.133H459.943H458.629H457.441H456.253H455.065H453.867H452.681H451.491H450.303H449.107H447.919H446.731H445.543H444.354H443.159H441.971H440.783H439.594H438.398H437.21H436.022H434.714H433.519H432.33H431.142H429.954H428.759H427.57H426.382H425.193H423.998H422.81H421.622H420.433H419.237H418.05H416.861H415.673H414.478H413.289H411.981H410.793H409.605H408.409H407.221H406.031H404.845H403.65H402.461H401.273V543.722V542.526V541.331V540.142V538.946V537.751V536.556V535.362V534.166V532.97V531.775V530.579V529.383V528.188V526.992V525.798V524.603V523.407V522.331V521.135V519.94V518.746V517.55V516.354V515.159V513.963V512.767V511.572V510.378V509.183V507.987V506.791V505.596V504.4V503.204V502.01V500.814V499.619V498.424V497.228V496.034V494.844V493.65V492.454V491.258V490.063V488.868V487.672V486.478V485.282V484.086V482.891V481.695V480.5V479.424V478.23V477.034V475.838V474.643V473.447V472.252V471.056V469.862V468.666V467.471V466.275V465.079V463.884V462.69V461.494V460.299V459.103V457.907H402.461H403.65H404.845H406.031H407.221H408.409H409.605H410.793H411.981H413.17H414.365H415.554H416.741H417.93H419.005H420.194H421.382H422.571H423.766H424.954H426.142H427.331H428.526H429.714H430.902H432.091H433.287H434.475H435.663H436.851H438.047H439.237H440.423H441.611H442.801H443.997H445.185H446.373H447.561H448.757H449.945H451.133H452.321H453.398H454.586H455.774H456.963H458.158H459.346H460.534H461.722H462.918H464.106H465.294H466.483H467.678H468.867H470.055V459.103V460.179V461.374V462.57V463.764V464.84V466.036V467.232V468.307V469.503V470.698V471.775V472.97V474.164V475.36V476.436V477.632H468.867H467.678H466.483H465.294H464.106H462.918H461.842H460.654H459.466H458.277H457.082H455.894H454.705H453.517H452.321H451.133H449.945H448.757H447.561H446.493H445.303H444.115H442.919H441.733H440.543H439.355H438.159H436.971H435.783H434.595H433.399H432.21H431.142H429.954H428.759H427.57H426.382H425.193H423.998V478.827V480.022V481.216V482.412V483.608V484.684V485.879V487.075V488.27V489.466V490.66V491.856H425.193H426.382H427.57H428.759H429.954H431.142H432.33H433.519H434.595H435.783H436.971H438.159H439.355H440.543H441.733H442.919H444.115H445.303H446.493H447.681H448.875H450.063H451.253H452.442H453.637H454.825H455.894H457.082H458.277H459.466H460.654H461.842H463.037H464.226H465.414V493.051V494.127V495.316V496.511V497.587V498.782V499.978V501.054V502.25V503.444V504.64V505.715V506.91V508.106V509.183V510.378H464.226H463.037H461.842H460.654H459.466H458.277H457.082H455.894H454.825H453.637H452.442H451.253H450.063H448.875H447.681H446.493H445.303H444.115H442.919H441.733H440.543H439.355H438.159H436.971H435.783H434.595H433.519H432.33H431.142H429.954H428.759H427.57H426.382H425.193H423.998V511.572V512.888V514.083V515.279V516.594V517.79V518.984V520.299V521.494V522.69V524.004V525.199H425.193H426.382H427.57H428.759H429.954H431.142H432.33H433.519H434.714H436.022H437.21H438.398H439.594H440.783H441.971H443.159H444.354H445.543H446.731H447.919H449.107H450.303H451.491H452.681H453.867H455.065H456.253H457.441H458.629H459.943H461.133H462.319H463.509H464.705H465.893H467.081H468.269H469.463H470.653V526.395V527.471V528.667V529.862V531.058V532.134V533.328V534.523V535.6V536.795V537.99V539.067V540.255V541.45V542.644V543.722V544.918H469.463ZM382.511 544.918H381.323H380.134H378.821H377.633H376.443H375.255H374.059H372.871H371.563H370.375H369.186H367.991H366.803H365.615H364.307H363.111H361.923H360.734V543.722V542.526V541.331V540.135V538.932V537.738V536.542V535.346V534.151V532.956V531.76V530.559V529.363V528.167V526.972V525.776V524.574V523.378V522.183V520.988V519.792V518.598V517.395V516.2V515.004V513.808V512.614V511.418V510.215V509.019V507.824V506.63V505.435V504.239V503.036V501.842V500.646V499.451V498.255V497.052V495.858V494.662V493.466L360.138 494.422L359.427 495.506L358.829 496.462L358.119 497.419L357.522 498.494L356.803 499.451L356.214 500.407L355.615 501.49L354.906 502.446L354.307 503.402L353.591 504.359L353.001 505.442L352.283 506.398L351.693 507.354L351.094 508.43L350.377 509.392L349.786 510.35L349.069 511.424L348.479 512.382L347.762 513.338L347.171 514.42L346.573 515.378L345.857 516.334L345.266 517.41L344.549 518.372L343.958 519.328L343.241 520.286L342.642 521.36L342.051 522.323L341.335 523.28L340.745 524.356L340.027 525.312L339.43 526.268L338.719 527.352L338.122 528.308H337.65L336.934 527.232L336.335 526.268L335.625 525.192L335.027 524.236L334.317 523.162L333.719 522.198L333.01 521.122L332.411 520.164L331.694 519.09L331.103 518.134L330.386 517.05L329.797 516.094L329.079 515.018L328.481 514.062L327.771 512.979L327.173 512.023L326.463 510.947L325.746 509.991L325.149 508.908L324.438 507.952L323.841 506.876L323.13 505.92L322.533 504.836L321.822 503.88L321.225 502.804L320.507 501.848L319.917 500.772L319.199 499.808L318.609 498.734L317.891 497.776L317.294 496.7L316.585 495.746L315.985 494.662L315.275 493.706V494.9V496.096V497.292V498.494V499.69V500.884V502.08V503.276V504.478V505.674V506.75V507.944V509.14V510.335V511.538V512.734V513.928V515.123V516.319V517.515V518.716V519.912V521.108V522.303V523.499V524.694V525.896V527.091V528.287V529.482V530.678V531.879V532.956V534.151V535.346V536.542V537.738V538.932V540.135V541.331V542.526V543.722V544.918H314.087H312.893H311.703H310.515H309.327H308.133H306.943H305.755H304.566H303.371H302.183H300.994H299.806H298.611H297.423H296.234H295.045H293.85H292.662V543.722V542.526V541.331V540.142V538.946V537.751V536.556V535.362V534.166V532.97V531.775V530.579V529.383V528.188V526.992V525.798V524.603V523.407V522.331V521.135V519.94V518.746V517.55V516.354V515.159V513.963V512.767V511.572V510.378V509.183V507.987V506.791V505.596V504.4V503.204V502.01V500.814V499.619V498.424V497.228V496.034V494.844V493.65V492.454V491.258V490.063V488.868V487.672V486.478V485.282V484.086V482.891V481.695V480.5V479.424V478.23V477.034V475.838V474.643V473.447V472.252V471.056V469.862V468.666V467.471V466.275V465.079V463.884V462.69V461.494V460.299V459.103V457.907H293.85H295.045H296.115H297.302H298.491H299.686H300.755H301.943H303.139H304.327H305.397H306.585H307.781H308.969H310.037H311.225H312.421H313.61H314.678H315.866H317.062L317.653 458.864L318.25 459.939L318.959 460.888L319.558 461.964L320.155 462.92L320.746 463.998L321.343 464.946L322.055 466.023L322.651 466.979L323.25 467.935L323.841 469.003L324.438 469.96L325.149 471.035L325.746 471.992L326.343 473.06L326.934 474.016L327.651 474.972L328.25 476.043L328.839 476.998L329.437 478.074L330.029 479.031L330.746 480.099L331.343 481.056L331.933 482.131L332.531 483.08L333.122 484.036L333.839 485.112L334.437 486.07L335.027 487.146L335.625 488.095L336.215 489.171L336.934 490.127L337.531 491.195L338.122 492.152L338.719 491.195L339.317 490.127L340.027 489.171L340.623 488.095L341.215 487.146L341.813 486.07L342.523 485.112L343.121 484.036L343.719 483.08L344.309 482.131L345.026 481.056L345.617 480.099L346.215 479.031L346.811 478.074L347.522 476.998L348.119 476.043L348.718 474.972L349.307 474.016L349.907 473.06L350.617 471.992L351.214 471.035L351.811 469.96L352.403 469.003L353.119 467.935L353.711 466.979L354.307 466.023L354.906 464.946L355.615 463.998L356.214 462.92L356.803 461.964L357.402 460.888L358.119 459.939L358.71 458.864L359.307 457.907H360.495H361.685H362.759H363.949H365.137H366.325H367.401H368.59H369.777H370.966H372.042H373.23H374.418H375.607H376.682H377.871H379.059H380.247H381.323H382.511H383.699V459.103V460.299V461.494V462.69V463.884V465.079V466.275V467.471V468.666V469.862V471.056V472.252V473.447V474.643V475.838V477.034V478.23V479.424V480.5V481.695V482.891V484.086V485.282V486.478V487.672V488.868V490.063V491.258V492.454V493.65V494.844V496.034V497.228V498.424V499.619V500.814V502.01V503.204V504.4V505.596V506.791V507.987V509.183V510.378V511.572V512.767V513.963V515.159V516.354V517.55V518.746V519.94V521.135V522.331V523.407V524.603V525.798V526.992V528.188V529.383V530.579V531.775V532.97V534.166V535.362V536.556V537.751V538.946V540.142V541.331V542.526V543.722V544.918H382.511ZM244.433 509.063L244.074 507.98L243.603 506.784L243.125 505.708L242.766 504.626L242.295 503.55L241.818 502.354L241.458 501.271L240.979 500.195L240.51 499.12L240.15 498.038L239.671 496.842L239.321 495.766L238.842 494.683L238.363 493.607L238.006 492.531L237.534 491.33L237.057 490.252L236.698 489.178L236.219 488.095L235.749 486.899L235.39 485.816L234.911 484.74L234.441 485.816L234.083 486.899L233.605 488.095L233.126 489.178L232.774 490.252L232.297 491.33L231.818 492.531L231.347 493.607L230.987 494.683L230.51 495.766L230.031 496.842L229.679 498.038L229.202 499.12L228.723 500.195L228.366 501.271L227.894 502.354L227.415 503.55L226.938 504.626L226.587 505.708L226.109 506.784L225.63 507.98L225.271 509.063L224.801 510.139H225.989H227.177H228.366H229.561H230.749H231.937H233.126H234.322H235.39H236.578H237.774H238.962H240.15H241.339H242.527H243.722H244.91L244.433 509.063ZM281.806 544.918H280.611H279.541H278.354H277.158H275.97H274.781H273.713H272.517H271.329H270.141H268.951H267.757H266.687H265.499H264.31H263.115H261.927H260.858H259.67H258.475L258.003 543.84L257.645 542.764L257.167 541.688L256.689 540.494L256.337 539.424L255.859 538.35L255.381 537.274L255.029 536.198L254.551 535.122L254.073 534.046L253.715 532.97L253.243 531.775L252.765 530.699L252.406 529.623L251.927 528.547H250.739H249.551H248.363H247.175H246.099H244.91H243.722H242.527H241.339H240.15H238.962H237.774H236.578H235.39H234.322H233.126H231.937H230.749H229.561H228.366H227.177H225.989H224.801H223.613H222.535H221.349H220.159H218.963H217.775L217.305 529.623L216.946 530.699L216.467 531.775L215.99 532.97L215.638 534.046L215.161 535.122L214.682 536.198L214.323 537.274L213.853 538.35L213.374 539.424L213.015 540.494L212.543 541.688L212.066 542.764L211.707 543.84L211.229 544.918H210.041H208.853H207.665H206.469H205.281H203.973H202.785H201.595H200.401H199.213H198.025H196.835H195.639H194.453H193.265H191.957H190.761H189.573H188.383H187.195L187.666 543.84L188.145 542.764L188.622 541.688L189.094 540.494L189.453 539.424L189.931 538.35L190.409 537.274L190.879 536.198L191.358 535.122L191.837 533.926L192.307 532.85L192.786 531.775L193.143 530.699L193.622 529.623L194.093 528.547L194.571 527.352L195.049 526.276L195.521 525.199L195.999 524.124L196.477 523.048L196.835 521.972L197.306 520.776L197.785 519.702L198.263 518.626L198.734 517.55L199.213 516.474L199.691 515.398L200.162 514.202L200.521 513.127L200.999 512.051L201.477 510.975L201.949 509.899L202.426 508.823L202.903 507.628L203.375 506.552L203.853 505.476L204.211 504.4L204.69 503.326L205.161 502.25L205.639 501.054L206.118 499.978L206.589 498.902L207.066 497.826L207.545 496.751L207.903 495.674L208.375 494.606L208.853 493.41L209.33 492.335L209.802 491.258L210.279 490.182L210.758 489.107L211.229 488.031L211.587 486.835L212.066 485.76L212.543 484.684L213.015 483.608L213.494 482.532L213.971 481.456L214.443 480.26L214.921 479.186L215.279 478.11L215.757 477.034L216.229 475.958L216.706 474.882L217.185 473.687L217.655 472.611L218.134 471.535L218.613 470.459L218.963 469.384L219.442 468.307L219.921 467.112L220.399 466.036L220.87 464.96L221.349 463.884L221.826 462.808L222.297 461.734L222.657 460.538L223.134 459.462L223.613 458.386L224.083 457.31H225.271H226.347H227.535H228.723H229.919H230.987H232.175H233.365H234.561H235.63H236.817H238.006H239.201H240.27H241.458H242.646H243.842H244.91H246.099L246.577 458.386L247.055 459.462L247.527 460.538L248.005 461.734L248.363 462.808L248.834 463.884L249.313 464.96L249.79 466.036L250.269 467.112L250.739 468.307L251.218 469.384L251.697 470.459L252.047 471.535L252.526 472.611L253.005 473.687L253.483 474.882L253.954 475.958L254.431 477.034L254.91 478.11L255.381 479.186L255.739 480.26L256.217 481.456L256.689 482.532L257.167 483.608L257.645 484.684L258.123 485.76L258.594 486.835L259.071 488.031L259.431 489.107L259.902 490.182L260.379 491.258L260.858 492.335L261.337 493.41L261.807 494.606L262.286 495.674L262.763 496.751L263.115 497.826L263.593 498.902L264.071 499.978L264.543 501.054L265.021 502.25L265.499 503.326L265.978 504.4L266.449 505.476L266.807 506.552L267.285 507.628L267.757 508.823L268.234 509.899L268.713 510.975L269.19 512.051L269.662 513.127L270.141 514.202L270.498 515.398L270.97 516.474L271.447 517.55L271.926 518.626L272.397 519.702L272.875 520.776L273.354 521.972L273.833 523.048L274.183 524.124L274.662 525.199L275.141 526.276L275.611 527.352L276.089 528.547L276.567 529.623L277.045 530.699L277.515 531.775L277.875 532.85L278.354 533.926L278.825 535.122L279.302 536.198L279.779 537.274L280.251 538.35L280.729 539.424L281.207 540.494L281.567 541.688L282.037 542.764L282.515 543.84L282.993 544.918H281.806ZM177.549 533.806L176.593 534.523L175.762 535.122L174.806 535.839L173.857 536.436L172.907 537.154L171.951 537.751L171.002 538.35L169.926 538.946L168.857 539.544L167.787 540.142L166.713 540.612L165.643 541.211L164.455 541.688L163.387 542.167L162.191 542.644L161.123 543.123L160.053 543.482L158.978 543.84L157.909 544.2L156.721 544.558L155.653 544.918L154.457 545.156L153.387 545.395L152.199 545.634L151.005 545.872L149.815 545.992L148.507 546.112L147.319 546.232L146.011 546.351L144.815 546.471L143.509 546.59H142.201H140.891H139.585H138.389L137.201 546.471L135.893 546.351L134.705 546.232L133.517 546.112L132.321 545.992L131.133 545.754L129.943 545.514L128.875 545.275L127.681 545.036L126.611 544.678L125.423 544.439L124.347 544.079L123.278 543.602L122.209 543.243L121.022 542.764L119.946 542.287L118.877 541.81L117.809 541.331L116.731 540.734L115.783 540.142L114.714 539.544L113.758 538.946L112.809 538.35L111.853 537.631L110.903 536.915L109.953 536.198L109.117 535.48L108.287 534.763L107.45 533.926L106.621 533.21L105.783 532.372L104.954 531.535L104.237 530.699L103.526 529.743L102.809 528.906L102.211 527.95L101.501 526.992L100.905 526.038L100.313 525.08L99.7153 524.004L99.118 523.048L98.6473 521.972L98.1686 520.896L97.6913 519.82L97.2193 518.746L96.8606 517.79L96.382 516.712L96.1433 515.636L95.7913 514.562L95.5526 513.367L95.194 512.29L94.9553 511.095L94.8353 510.019L94.5953 508.823L94.4779 507.748L94.3566 506.552L94.2446 505.356L94.126 504.162V502.847V501.651V501.412V500.216L94.2446 498.902V497.707L94.3566 496.511L94.4779 495.196L94.7166 494.008L94.8353 492.812L95.074 491.736L95.4326 490.542L95.6726 489.346L96.0233 488.27L96.382 487.075L96.7406 485.999L97.2193 484.803L97.6913 483.728L98.1686 482.652L98.6473 481.576L99.118 480.5L99.7153 479.424L100.313 478.468L100.905 477.511L101.501 476.555L102.099 475.599L102.809 474.643L103.526 473.687L104.237 472.731L104.954 471.892L105.783 471.056L106.501 470.219L107.331 469.384L108.167 468.546L108.997 467.83L109.953 466.992L110.783 466.275L111.733 465.558L112.689 464.96L113.638 464.243L114.595 463.646L115.543 463.048L116.613 462.45L117.689 461.852L118.757 461.255L119.826 460.776L120.901 460.299L122.09 459.7L123.039 459.343L124.227 458.983L125.305 458.506L126.373 458.266L127.441 457.907L128.635 457.668L129.705 457.31L130.893 457.071L132.082 456.951L133.277 456.712L134.466 456.592L135.653 456.474L136.842 456.354L138.038 456.234H139.346H140.534H141.841H143.149L144.465 456.354L145.773 456.474H146.961L148.149 456.592L149.457 456.832L150.533 456.951L151.721 457.191L152.91 457.43L153.985 457.668L155.053 457.907L156.123 458.147L157.199 458.506L158.267 458.744L159.217 459.103L160.293 459.462L161.362 459.939L162.43 460.418L163.506 460.896L164.575 461.494L165.643 461.972L166.601 462.57L167.669 463.167L168.618 463.764L169.694 464.363L170.643 465.079L171.593 465.678L172.549 466.395L173.498 467.112L174.454 467.948L175.403 468.666L174.686 469.623L173.857 470.459L173.139 471.415L172.31 472.371L171.593 473.328L170.882 474.164L170.045 475.12L169.335 476.076L168.618 476.915L167.787 477.871L167.071 478.827L166.241 479.783L165.523 480.62L164.814 481.576L163.978 482.532L163.266 483.488L162.43 484.326L161.719 485.282L160.763 484.564L159.814 483.728L158.858 483.13L157.909 482.412L156.959 481.815L156.003 481.216L155.053 480.62L153.985 480.022L153.029 479.544L152.079 479.066L151.123 478.707L150.054 478.348L148.986 477.99L147.91 477.751L146.722 477.511L145.534 477.272L144.345 477.154L143.037 477.034L141.722 476.915H140.414H139.226L138.038 477.034L136.962 477.154L135.774 477.392L134.705 477.632L133.629 477.99L132.561 478.348L131.491 478.827L130.422 479.304L129.466 479.902L128.518 480.5L127.561 481.099L126.731 481.815L125.894 482.532L125.065 483.25L124.347 484.086L123.518 484.923L122.801 485.879L122.209 486.716L121.611 487.672L121.022 488.748L120.423 489.704L119.946 490.78L119.587 491.856L119.115 492.932L118.757 494.127L118.518 495.316L118.279 496.391L118.039 497.707L117.921 498.902L117.809 500.096V501.412V501.651V502.847L117.921 504.042L118.039 505.118L118.159 506.314L118.398 507.388L118.638 508.466L118.877 509.54L119.235 510.616L119.587 511.572L120.066 512.767L120.543 513.844L121.134 514.92L121.731 515.876L122.329 516.832L123.039 517.79L123.757 518.626L124.586 519.463L125.305 520.299L126.133 521.016L127.09 521.734L128.039 522.451L128.987 523.048L129.943 523.646L131.014 524.124L132.082 524.603L133.157 525.08L134.346 525.439L135.534 525.798L136.73 526.038L137.918 526.276L139.106 526.395L140.414 526.515H141.722H143.149L144.465 526.395L145.773 526.276L146.961 526.156L148.149 525.916L149.345 525.678L150.533 525.32L151.601 525.08L152.671 524.603L153.627 524.124L154.695 523.646L155.531 523.168L156.482 522.57V521.375V520.18V518.984V517.79V516.474V515.279V514.083V512.888V511.692H155.293H154.218H153.029H151.841H150.653H149.577H148.387H147.199H146.011H144.937H143.747H142.559H141.37H140.295H139.106V510.498V509.422V508.226V507.031V505.835V504.759V503.564V502.368V501.174V500.096V498.902V497.707V496.511V495.435V494.247H140.295H141.49H142.679H143.866H145.055H146.243H147.439H148.627H149.815H151.005H152.199H153.387H154.575H155.763H156.959H158.149H159.337H160.525H161.719H162.909H164.097H165.285H166.479H167.669H168.857H170.045H171.241H172.429H173.618H174.806H176.001H177.189H178.378V495.435V496.63V497.826V498.902V500.096V501.292V502.487V503.683V504.879V505.954V507.15V508.346V509.54V510.736V511.931V513.127V514.202V515.398V516.594V517.79V518.984V520.18V521.375V522.451V523.646V524.842V526.038V527.232V528.427V529.504V530.699V531.894V533.09L177.549 533.806Z" fill="#343434"/>
<path d="M139.274 261.037H190.852V221.141H139.274V139.693H192.905V99.7973H95.4757V387.732H193.721V347.835H139.274V261.037Z" fill="#343434"/>
<path d="M508.708 269.68V334.672C508.708 346.191 503.384 351.535 492.337 351.535H484.145C472.685 351.535 467.361 346.191 467.361 334.672V152.856C467.361 141.339 472.685 135.995 484.145 135.995H491.515C502.568 135.995 507.892 141.339 507.892 152.856V209.215H550.869V150.388C550.869 114.605 533.676 97.3281 498.069 97.3281H476.777C441.169 97.3281 423.561 115.013 423.561 150.803V336.725C423.561 372.516 441.169 390.2 476.777 390.2H498.476C534.092 390.2 551.691 372.516 551.691 336.725V269.68H508.708Z" fill="#343434"/>
<path d="M356.608 387.732H400.413V99.7964H356.608V387.732Z" fill="#343434"/>
<path d="M293.049 227.722C293.049 239.24 287.733 244.591 276.68 244.591H258.665V138.463H276.68C287.733 138.463 293.049 143.808 293.049 155.324V227.722ZM283.635 99.7964H214.865V387.732H258.665V283.25H283.635C319.249 283.25 336.849 265.566 336.849 229.783V153.271C336.849 117.482 319.249 99.7964 283.635 99.7964" fill="#343434"/>
<path fill-rule="evenodd" clip-rule="evenodd" d="M198.805 648.083H449.544L321.562 690.289L198.805 648.083Z" fill="#343434"/>
</g>
<path d="M194.584 798.501L270.439 798.507V820.837H244.754V898.148H220.177V820.836H194.584V798.501Z" fill="white"/>
<path d="M161.599 831.997H183.959C183.959 823.138 184.969 813.441 167.781 803.145C154.416 795.139 134.776 799.093 127.229 803.329C114.294 810.59 110.962 820.433 111.245 831.02C111.716 848.621 124.637 852.558 136.726 857.061C144.571 859.983 153.449 861.736 159.197 867.022C161.4 869.048 162.318 873.034 157.534 874.878C150.728 877.5 143.431 877.801 135.849 872.932C133.254 871.266 132.403 868.644 132.403 865.821L108.73 865.517C108.73 873.717 110.214 880.462 115.403 886.337C122.877 894.801 133.118 897.303 144.229 898.074C158.154 899.04 166.319 896.604 173.056 892.252C179.91 887.824 184.242 881.083 185.529 871.92C186.31 866.362 186.921 860.913 180.54 852.975C174.815 847.447 165.034 841.978 152.637 838.189C146.7 835.944 137.931 833.523 136.362 829.699C134.755 826.407 137.23 823.118 139.321 821.906C142.709 820.006 147.608 819.986 151.889 821.604C156.865 823.484 161.599 827.111 161.599 831.997H161.599Z" fill="white"/>
<path d="M280.475 830.615L280.259 863.422C280.259 908.972 359.163 910.231 359.163 863.422V830.615C359.163 786.049 280.475 789.412 280.475 830.615ZM319.771 819.073C327.447 819.203 335.121 824.187 335.121 833.636V862.389C335.121 881.027 304.416 880.72 304.416 862.389V833.636C304.416 823.667 312.094 818.943 319.771 819.073V819.073Z" fill="white"/>
<path d="M378.446 798.289V897.84H402.65V862.334H412.076L431.377 897.71H456.054V888.854L438.236 858.983C463.377 844.464 457.25 798.4 425.396 798.4L378.446 798.289ZM402.706 819.571L416.428 819.834C432.059 819.834 431.197 840.737 416.428 840.837H402.706V819.571Z" fill="white"/>
<path d="M472.501 798.058L535.883 797.993V819.054H496.523V837.566H530.155V858.451H496.154V876.934H537.177V897.576H472.501V798.058Z" fill="white"/>
<defs>
<clipPath id="clip0">
<rect width="647.167" height="750.977" fill="white" transform="translate(647.167 986.977) rotate(-180)"/>
</clipPath>
<clipPath id="clip1">
<rect width="647.167" height="750.977" fill="white"/>
</clipPath>
</defs>
<script xmlns=""/></svg>