<?xml version="1.0" encoding="utf-8"?>
<!-- Generator: Adobe Illustrator 19.0.0, SVG Export Plug-In . SVG Version: 6.00 Build 0)  -->
<svg version="1.1" baseProfile="tiny" id="Layer_1" xmlns="http://www.w3.org/2000/svg" xmlns:xlink="http://www.w3.org/1999/xlink"
	 x="0px" y="0px" viewBox="0 0 824.4 121.8" xml:space="preserve">
<g>
	<polygon fill="#EA2C27" points="184,0 218,0 218,11.9 195.9,11.9 195.9,26.2 218,26.2 218,38.5 195.9,38.5 195.9,64 184,64 	"/>
	<path fill="#EA2C27" d="M256.7,64h-11.6V54h-22.4L216,64h-13.6l44.9-64h9.4V64z M245.1,41.9V23.3l-13.7,18.7H245.1z"/>
	<polygon fill="#EA2C27" points="261.2,0 274.6,0 293.6,43 312.7,0 326.2,0 326.2,64 314.3,64 314.3,31.7 299.5,64 287.4,64 
		273.2,31.7 273.2,64 261.2,64 	"/>
	<polygon fill="#EA2C27" points="549.2,0 562.6,0 581.5,43 600.6,0 614.2,0 614.2,64 602.2,64 602.2,31.7 587.5,64 575.4,64 
		561.1,31.7 561.1,64 549.2,64 	"/>
	<rect x="330" fill="#EA2C27" width="12.4" height="64"/>
	<polygon fill="#EA2C27" points="345.8,0 358.2,0 358.2,52.3 374.3,52.3 374.3,64 345.8,64 	"/>
	<polygon fill="#EA2C27" points="360.5,0 374.3,0 387.3,26.2 399.9,0 413.5,0 393,40.7 393,64 381,64 381,40.7 	"/>
	<path fill="#EA2C27" d="M481,47.5"/>
	<path fill="#EA2C27" d="M480.8,17.7C475.4,7.3,464.5,0.2,452,0.2c-17.9,0-32.5,14.6-32.5,32.5S434,65.2,452,65.2
		c12.6,0,23.5-7.2,28.9-17.6l-14.7,0.1c-3.6,3.3-8.5,5.4-13.8,5.4c-11.3,0-20.4-9.1-20.4-20.4c0-11.3,9.1-20.4,20.4-20.4
		c5.3,0,10,2,13.7,5.3L480.8,17.7z"/>
	<path fill="#EA2C27" d="M513,65.4c-18,0-32.7-14.6-32.7-32.7c0-18,14.6-32.7,32.7-32.7c18,0,32.7,14.6,32.7,32.7
		C545.6,50.8,531,65.4,513,65.4z M533.7,32.7c0-11.4-9.3-20.7-20.7-20.7c-11.4,0-20.7,9.3-20.7,20.7c0,11.4,9.3,20.7,20.7,20.7
		C524.5,53.4,533.7,44.1,533.7,32.7z"/>
	<path fill="#EA2C27" d="M639.7,0C650.5,0.9,659,9.9,659,21c0,11.1-8.5,20.1-19.3,21l-9.4,0V64h-12V0h12L639.7,0z M630.3,12.3v17.4
		l9.4,0c4.1-0.8,7.2-4.4,7.2-8.7c0-4.3-3.1-7.9-7.2-8.7L630.3,12.3z"/>
	<path fill="#EA2C27" d="M790.9,64.8H779V0.6l16.5,0l9.4,0c10.8,0.9,19.3,9.9,19.3,21c0,9-5.7,16.7-13.7,19.7l13.8,23.6h-13
		L792,31.7h-1.1V64.8z M783.5,64.5 M795.5,64.5 M804.9,30.2c4.1-0.8,7.2-4.4,7.2-8.7c0-4.3-3.1-7.9-7.2-8.7l-14,0v17.4L804.9,30.2z"
		/>
	<path fill="#EA2C27" d="M692.1,25 M692.1,25 M674.7,25 M674.7,37 M674.7,37l0,9.4c0.8,4.1,4.4,7.2,8.7,7.2c4.3,0,7.9-3.1,8.7-7.2
		l0-9.4l0-36.4h12.3V37l0,9.4c-0.9,10.8-9.9,19.3-21,19.3c-11.1,0-20.1-8.5-21-19.3l0-9.4l0-36.4h12.3L674.7,37z"/>
	<polygon fill="#EA2C27" points="716.6,64.8 728.7,64.8 728.7,12.7 739.6,12.7 739.6,0.6 706.1,0.6 706.1,12.7 716.6,12.7 	"/>
	<polygon fill="#EA2C27" points="775.9,64.8 742.6,64.8 742.6,0.6 775.9,0.6 775.9,12.3 754.5,12.3 754.5,27.6 775.9,27.6 
		775.9,39.6 754.5,39.6 754.5,53 775.9,53 	"/>
	<path fill="#EA2C27" d="M790.9,31.7"/>
	<polygon fill="#EA2C27" points="184,74.2 184,80.4 811.4,80.4 824.4,74.2 	"/>
	<g>
		<path fill="#EA2C27" d="M223.9,89c0,7.3,1.2,16.8-3,23.4c-1.9,3.6-5.6,5.5-9.1,7.1c-7.8,0-15.7,0-23.5,0l0-7.4h20.5
			c3.6-0.5,6.7-3.7,7.9-7.2c0.6-2.3,0.7-4.8,0.7-7.2l-33.1,0V89H223.9z"/>
		<path fill="#EA2C27" d="M305.8,112.2c5.8-0.1,11.9,0.1,17.8,0c2.9-0.1,5.3-2.5,6.9-4.8c1.6-1.9,2-4.1,2.2-6.8
			c0.1-3.9,0-7.7,0.1-11.6h5.6v15.6c0,4.1-1.4,7.3-4.1,10.3c-0.9,1.4-3.3,3-5.3,3.9c-1.5,0.4-3.1,0.8-4.7,0.7c-6.2,0-12.4,0-18.6,0
			L305.8,112.2z"/>
		<path fill="#EA2C27" d="M593,98.4c-1.3,4.7-4.9,9.9-10.3,9.9v-8.7c1.5-0.7,3.2-1.5,4.1-2.9c1.1-2.1,1.1-4.8,1-7.6
			c11.1-0.1,22.5,0,33.6,0v19.8c0,6.9-7.7,10.7-9.5,10.7c-8.8-0.1-17.7,0-26.5,0l0-7.4c6.3-0.1,15.4,0,21.7,0c2.9,0,6-1,6.9-2.4
			l-20.2,0.1l0.1-8.6h21c0.2-3.2-2-2.7-3.9-2.9H593z"/>
		<path fill="#EA2C27" d="M225.6,119.5l0-7.3l11.4-0.1c1.6,0,1.5-3.8,1.5-6.4h13c0-1.2-1.4-1.9-3.4-1.9l-22.6,0v-7.9h32.1
			c-0.1,4.7,0.4,10.9-1.5,14.2c-2.6,3.7-9.7,2.5-12.2,2.9c0,3-2.1,6.4-4.3,6.4H225.6z"/>
	</g>
	<polygon fill="#EA2C27" points="259.3,97.3 298.1,101.6 298.1,93.6 259.3,89.4 	"/>
	<polygon fill="#EA2C27" points="259.3,106.2 298.1,110.4 298.1,102.4 259.3,98.2 	"/>
	<polygon fill="#EA2C27" points="259.3,115.3 298.1,119.5 298.1,111.6 259.3,107.3 	"/>
	<rect x="299.9" y="89" fill="#EA2C27" width="7" height="19.5"/>
	<rect x="340.8" y="100.7" fill="#EA2C27" width="37.4" height="7.7"/>
	<polygon fill="#EA2C27" points="431.2,89 393.3,89 393.3,97.8 424.7,97.8 424.7,112.1 392.2,112.1 392.2,119.5 431.2,119.5 	"/>
	<path fill="#EA2C27" d="M433.6,112.2c5.8-0.1,18.5,0.1,24.3,0c2.9-0.1,5.3-2.5,6.9-4.8c1.6-1.9,2-4.1,2.2-6.8
		c0.1-3.9,0-7.7,0.1-11.6h5.6v15.6c0,4.1-1.4,7.3-4.1,10.3c-0.9,1.4-3.3,3-5.3,3.9c-1.5,0.4-3.1,0.8-4.7,0.7c-6.2,0-18.9,0-25.1,0
		L433.6,112.2z"/>
	<rect x="433.7" y="89" fill="#EA2C27" width="22.8" height="8.6"/>
	<path fill="#EA2C27" d="M480.5,105.7h33.2c0.1-2.1,0-4.4,0-6.4h-4.1c1.6-0.8,2.8-2.5,2.8-4.5c0-2.8-2.3-5.1-5.1-5.1
		s-5.1,2.3-5.1,5.1c0,2,1.1,3.7,2.8,4.5h-2.3c-0.8,0-0.7-2.2-2.3-2.2h-20l0-8l-5.7,0c0,7.4-0.1,15.4,0,22.8c0,3.3,2.9,7.3,5.3,7.7
		h33.6v-7.4l-29.7-0.1C481.3,111.5,480.5,108.2,480.5,105.7z M507.4,92.1c1.5,0,2.7,1.2,2.7,2.7s-1.2,2.7-2.7,2.7s-2.7-1.2-2.7-2.7
		S506,92.1,507.4,92.1z"/>
	<polygon fill="#EA2C27" points="540.8,97.1 518.1,97.1 518.1,105.1 535.1,105.1 535.1,112.2 515.2,112.2 515.2,119.5 547.1,119.5 
		547.1,112.2 540.8,112.2 	"/>
	<rect x="543.2" y="100.7" fill="#EA2C27" width="37.4" height="7.7"/>
	<circle stroke="#000000" cx="76.4" cy="15.6" r="16.2"/>
	<path stroke="#000000" stroke-width="0.6383" d="M53.5,12.2c0.2-0.7,0.3-1.5,0.3-2.3c0-5.7-4.6-10.3-10.3-10.3
		c-4.6,0-8.5,3-9.8,7.1l-33,101.3C0.2,109,0,110.2,0,111.5c0,5.7,4.6,10.3,10.3,10.3c4.6,0,8.5-3,9.8-7.1L53.5,12.2z"/>
	<circle stroke="#000000" cx="64" cy="53.5" r="16.2"/>
	<circle stroke="#000000" cx="147.7" cy="15.6" r="16.2"/>
	<path stroke="#000000" stroke-width="0.6383" d="M124.8,12.2c0.2-0.7,0.3-1.5,0.3-2.3c0-5.7-4.6-10.3-10.3-10.3
		c-4.6,0-8.5,3-9.8,7.1l-33,101.3c-0.4,1.1-0.6,2.3-0.6,3.5c0,5.7,4.6,10.3,10.3,10.3c4.6,0,8.5-3,9.8-7.1L124.8,12.2z"/>
	<circle stroke="#000000" cx="135.3" cy="53.5" r="16.2"/>
</g>
</svg>
