<?xml version="1.0" encoding="UTF-8" standalone="no"?>
<!-- Generator: Adobe Illustrator 19.0.0, SVG Export Plug-In . SVG Version: 6.00 Build 0)  -->

<svg
   xmlns:dc="http://purl.org/dc/elements/1.1/"
   xmlns:cc="http://creativecommons.org/ns#"
   xmlns:rdf="http://www.w3.org/1999/02/22-rdf-syntax-ns#"
   xmlns:svg="http://www.w3.org/2000/svg"
   xmlns="http://www.w3.org/2000/svg"
   xmlns:sodipodi="http://sodipodi.sourceforge.net/DTD/sodipodi-0.dtd"
   xmlns:inkscape="http://www.inkscape.org/namespaces/inkscape"
   version="1.1"
   id="Ebene_1"
   x="0px"
   y="0px"
   viewBox="23.6 167.1 1400 458.9"
   xml:space="preserve"
   sodipodi:docname="logo.svg"
   inkscape:version="0.92.5 (2060ec1f9f, 2020-04-08)"
   width="1400"
   height="458.89999"><metadata
   id="metadata33"><rdf:RDF><cc:Work
       rdf:about=""><dc:format>image/svg+xml</dc:format><dc:type
         rdf:resource="http://purl.org/dc/dcmitype/StillImage" /><dc:title></dc:title></cc:Work></rdf:RDF></metadata><defs
   id="defs31" /><sodipodi:namedview
   pagecolor="#ffffff"
   bordercolor="#666666"
   borderopacity="1"
   objecttolerance="10"
   gridtolerance="10"
   guidetolerance="10"
   inkscape:pageopacity="0"
   inkscape:pageshadow="2"
   inkscape:window-width="3840"
   inkscape:window-height="2065"
   id="namedview29"
   showgrid="false"
   inkscape:zoom="0.74459835"
   inkscape:cx="743.14667"
   inkscape:cy="563.39959"
   inkscape:window-x="0"
   inkscape:window-y="0"
   inkscape:window-maximized="1"
   inkscape:current-layer="Ebene_1" />

<g
   id="g872"
   transform="translate(-200.70001)"><g
     transform="matrix(0.94528816,0,0,0.94528816,-348.01754,9.1423448)"
     id="g26">
	<g
   id="g6">
		<path
   style="fill:#cf8a61"
   inkscape:connector-curvature="0"
   id="path2"
   d="m 1205.8,349.8 c 0.1,-1.4 0,-2.7 0,-3.9 0,-25.8 0,-51.6 0,-77.5 0,-1.3 -0.1,-2.7 -0.4,-4 -7.5,-28 -20.9,-52.4 -43.3,-71.2 -18.4,-15.5 -39.4,-24.1 -63.7,-24.1 -64,0 -128,0 -192.1,0 -86.2,0 -172.3,0 -258.5,0 -1.6,0 -3.2,-0.1 -4.9,0 0,19.7 0,39.3 0,58.7 1.2,0.5 2.3,0.9 3.3,1.3 7.9,2.5 15.8,5 23.8,7.5 79.8,25.3 159.6,50.5 239.5,75.8 37.7,11.9 75.4,23.9 113.1,35.8 2.4,0.7 4.9,1.4 7.3,1.4 57.3,0.1 114.7,0.1 172,0.1 1.2,0.1 2.6,0.2 3.9,0.1 z M 983.6,346 c -51.4,-16.3 -102.4,-32.5 -154,-48.8 0,76 0,151.3 0,226.7 -22.2,11.2 -44.1,22.3 -65.9,33.2 0,22.5 0,44.6 0,66.9 89.9,0 179.6,0 269.5,0 0,-43.3 0,-86.4 0,-130 -16.6,0 -33,0 -49.6,0 0,-49.5 0,-98.5 0,-148 z m 17.4,17.8 c 0,38.1 0,75.9 0,114 68.3,0 136.3,0 204.5,0 0,-38.1 0,-75.9 0,-114 -68.2,0 -136.2,0 -204.5,0 z" />
		<path
   inkscape:connector-curvature="0"
   id="path4"
   d="M 1035.2,626 H 761.7 v -70.1 l 65.9,-33.2 V 294.5 l 158,50.1 V 492 h 49.6 z m -269.5,-4 h 265.5 V 496 H 981.6 V 347.5 L 831.5,299.9 v 225.2 l -65.9,33.2 z M 1207.6,479.8 H 999.1 v -118 h 208.5 z m -204.6,-4 h 200.6 v -110 H 1003 Z m 201.5,-124 c -0.5,0 -1,0 -1.4,0 -0.4,0 -0.8,0 -1.1,0 h -8.1 c -19.9,0 -39.8,0 -59.7,0 -41.7,0 -73.8,0 -104.3,-0.1 -2.7,0 -5.4,-0.7 -7.9,-1.5 -24.3,-7.7 -48.6,-15.4 -72.9,-23.1 -13.4,-4.2 -26.8,-8.5 -40.2,-12.7 C 852.6,296.6 796.3,278.7 740,260.9 l -74.2,-23.5 c -6.7,-2.1 -13.4,-4.2 -20.1,-6.4 -0.8,-0.3 -1.6,-0.6 -2.3,-0.9 -0.4,-0.1 -0.7,-0.3 -1.1,-0.4 l -1.3,-0.5 v -61.9 l 1.9,-0.1 c 1.2,-0.1 2.3,0 3.4,0 0.5,0 1,0 1.5,0 72.7,0 145.4,0 218,0 h 151.4 c 27,0 54.1,0 81.1,0 23.8,0 45.7,8.3 65,24.6 21.4,18.1 35.8,41.7 43.9,72.2 0.4,1.6 0.5,3.3 0.5,4.5 0,25.8 0,51.6 0,77.5 0,0.3 0,0.7 0,1.1 0,0.9 0.1,1.9 0,2.9 l -0.1,1.7 -1.7,0.1 c -0.4,0 -0.9,0 -1.4,0 z m -2.5,-4 c 0.4,0 0.8,0 1.2,0 0.2,0 0.5,0 0.7,0 0,-0.2 0,-0.5 0,-0.7 0,-0.4 0,-0.8 0,-1.2 0,-25.8 0,-51.6 0,-77.5 0,-1 0,-2.3 -0.3,-3.5 -7.9,-29.7 -21.9,-52.7 -42.7,-70.2 -18.6,-15.7 -39.6,-23.6 -62.4,-23.6 -27.1,0 -54.1,0 -81.2,0 H 865.9 c -72.7,0 -145.3,0 -218,0 -0.5,0 -1.1,0 -1.6,0 -0.4,0 -0.9,0 -1.3,0 v 55.4 c 0.7,0.3 1.3,0.5 2,0.7 6.7,2.1 13.4,4.3 20.1,6.4 l 74.2,23.5 c 56.3,17.8 112.6,35.7 168.9,53.5 13.4,4.2 26.8,8.5 40.2,12.7 24.3,7.7 48.6,15.4 72.9,23.1 2.2,0.7 4.6,1.3 6.7,1.4 30.5,0 62.6,0.1 104.3,0.1 19.9,0 39.8,0 59.7,0 z" />
	</g>
	<g
   id="g12">
		<path
   style="fill:#cf8a61"
   inkscape:connector-curvature="0"
   id="path8"
   d="M 1205.8,349.8 1027,349.7 642.9,228 c 0,0 0,-39.1 0,-58.9 1.7,-0.1 177.2,0 263.4,0 64,0 128,0 192.1,0 24.3,0 45.4,8.6 63.7,24.1 22.4,18.9 35.8,43.2 43.3,71.2 0.3,1.3 0.4,2.7 0.4,4 0.1,25.9 0,81.4 0,81.4 z" />
		<path
   inkscape:connector-curvature="0"
   id="path10"
   d="m 1207.8,351.8 -181.1,-0.1 -0.3,-0.1 -385.5,-122.2 v -62.2 l 1.9,-0.1 c 0.4,0 7.4,0 58,0 30.3,0 68.8,0 106.6,0 36.3,0 72,0 98.9,0 h 110.9 c 27.1,0 54.1,0 81.1,0 23.8,0 45.7,8.3 65,24.6 21.4,18.1 35.8,41.7 43.9,72.2 0.4,1.6 0.5,3.3 0.5,4.5 0,25.8 0,81.3 0,81.3 z m -180.4,-4.1 176.5,0.1 c 0,-10.1 0,-56.4 0,-79.4 0,-1 0,-2.3 -0.3,-3.5 -7.9,-29.7 -21.9,-52.7 -42.7,-70.2 -18.6,-15.7 -39.6,-23.6 -62.4,-23.6 -27.1,0 -54.1,0 -81.2,0 H 906.4 c -26.9,0 -62.6,0 -98.9,0 -37.8,0 -76.3,0 -106.6,0 -12.4,0 -47.3,0 -55.9,0 v 55.5 z" />
	</g>
	<g
   id="g18">
		<path
   style="fill:#cf8a61"
   inkscape:connector-curvature="0"
   id="path14"
   d="m 983.6,346 c 0,49.4 0,98.4 0,148 16.7,0 33,0 49.6,0 0,43.6 0,86.7 0,130 -89.9,0 -179.6,0 -269.5,0 0,-22.3 0,-44.4 0,-66.9 21.7,-11 43.6,-22 65.9,-33.2 0,-75.4 0,-150.7 0,-226.7 51.6,16.4 102.6,32.5 154,48.8 z" />
		<path
   inkscape:connector-curvature="0"
   id="path16"
   d="M 1035.2,626 H 761.7 v -70.1 l 65.9,-33.2 V 294.5 l 158,50.1 V 492 h 49.6 z m -269.5,-4 h 265.5 V 496 H 981.6 V 347.5 L 831.5,299.9 v 225.2 l -65.9,33.2 z" />
	</g>
	<g
   id="g24">
		<path
   style="fill:#cf8a61"
   inkscape:connector-curvature="0"
   id="path20"
   d="m 1001,363.8 c 68.3,0 136.3,0 204.5,0 0,38.1 0,75.9 0,114 -68.3,0 -136.3,0 -204.5,0 0,-38.1 0,-75.9 0,-114 z" />
		<path
   inkscape:connector-curvature="0"
   id="path22"
   d="M 1207.6,479.8 H 999.1 v -118 h 208.5 z m -204.6,-4 h 200.6 v -110 H 1003 Z" />
	</g>
</g><g
     id="text845"
     style="font-style:normal;font-variant:normal;font-weight:normal;font-stretch:normal;font-size:292.61712646px;line-height:1.25;font-family:Impact;-inkscape-font-specification:Impact;letter-spacing:0px;word-spacing:0px;fill:#0f0f0f;fill-opacity:1;stroke:none;stroke-width:1.52404749"
     transform="matrix(1.0947177,0,0,0.91347751,3.2346516e-5,-1.4368242e-6)"
     aria-label="Alpha"><path
       inkscape:connector-curvature="0"
       id="path905"
       style="fill:#0f0f0f;fill-opacity:1;stroke-width:1.52404749"
       d="m 897.19995,426.96722 34.43395,231.32184 h -61.58105 l -3.00047,-41.57792 h -21.5748 l -3.57198,41.57792 h -62.29545 l 30.57621,-231.32184 z m -31.86212,148.73752 q -4.57215,-39.29185 -9.14429,-97.01515 -9.14428,66.29606 -11.43035,97.01515 z" /><path
       inkscape:connector-curvature="0"
       id="path907"
       style="fill:#0f0f0f;fill-opacity:1;stroke-width:1.52404749"
       d="M 999.64452,426.96722 V 658.28906 H 940.20666 V 426.96722 Z" /><path
       inkscape:connector-curvature="0"
       id="path909"
       style="fill:#0f0f0f;fill-opacity:1;stroke-width:1.52404749"
       d="m 1079.0855,468.68802 -1.0002,16.7169 q 7.7155,-10.14444 17.0027,-15.14522 9.2871,-5.00078 20.2889,-5.00078 13.4306,0 23.1464,7.28685 9.8587,7.14397 12.2877,16.57402 2.4289,9.43004 2.4289,32.00499 v 79.86962 q 0,25.86118 -3.1433,36.8629 -3.0005,10.85884 -12.5734,17.43129 -9.4301,6.42958 -22.8607,6.42958 -10.716,0 -19.8603,-5.00078 -9.1443,-5.00078 -16.7169,-14.85946 v 43.43535 H 1020.362 V 468.68802 Z m 16.4311,55.15147 q 0,-17.57417 -1.2859,-21.28903 -1.2859,-3.71487 -7.144,-3.71487 -5.7151,0 -7.4297,4.28638 -1.5717,4.28639 -1.5717,20.71752 v 78.58371 q 0,17.14553 1.7146,21.43191 1.7145,4.28639 7.4297,4.28639 5.5723,0 6.8582,-3.85775 1.4288,-4.00062 1.4288,-19.14585 z" /><path
       inkscape:connector-curvature="0"
       id="path911"
       style="fill:#0f0f0f;fill-opacity:1;stroke-width:1.52404749"
       d="m 1229.9662,426.96722 v 52.00812 q 7.4297,-6.85821 16.0025,-10.28732 8.7156,-3.4291 18.5743,-3.4291 15.1452,0 25.7183,7.71549 10.716,7.71549 13.002,17.85993 2.429,10.00156 2.429,36.72002 v 130.7347 H 1247.969 V 524.83965 q 0,-16.57402 -1.7146,-21.28904 -1.5716,-4.71502 -7.2868,-4.71502 -5.2865,0 -7.144,4.8579 -1.8574,4.8579 -1.8574,19.28873 v 135.30684 h -57.7233 V 426.96722 Z" /><path
       inkscape:connector-curvature="0"
       id="path913"
       style="fill:#0f0f0f;fill-opacity:1;stroke-width:1.52404749"
       d="m 1377.1321,542.12806 h -54.1514 v -12.71627 q 0,-22.00343 5.0008,-33.86243 5.1437,-12.00187 20.4318,-21.14616 15.2881,-9.14428 39.7205,-9.14428 29.2903,0 44.1497,10.4302 14.8595,10.28732 17.86,25.43254 3.0004,15.00234 3.0004,62.00968 v 95.15772 h -56.1516 v -16.85977 q -5.2865,10.14444 -13.7164,15.2881 -8.287,5.00078 -19.8603,5.00078 -15.1452,0 -27.8615,-8.42989 -12.5734,-8.57277 -12.5734,-37.29154 v -15.57386 q 0,-21.28904 6.7154,-29.00453 6.7153,-7.71549 33.2909,-18.00281 28.433,-11.1446 30.4333,-15.00234 2.0003,-3.85775 2.0003,-15.71674 0,-14.85946 -2.286,-19.28873 -2.1432,-4.57214 -7.2869,-4.57214 -5.858,0 -7.2868,3.85774 -1.4288,3.71487 -1.4288,19.57449 z m 18.2885,26.00407 q -13.8593,10.14444 -16.1453,17.00265 -2.1432,6.85821 -2.1432,19.71737 0,14.71658 1.8574,19.00296 2.0003,4.28639 7.7155,4.28639 5.4294,0 7.0011,-3.28623 1.7145,-3.42911 1.7145,-17.71705 z" /></g><g
     id="text845-6"
     style="font-style:normal;font-variant:normal;font-weight:normal;font-stretch:normal;font-size:129.25238037px;line-height:1.25;font-family:Impact;-inkscape-font-specification:Impact;letter-spacing:0px;word-spacing:0px;fill:#0f0f0f;fill-opacity:1;stroke:none;stroke-width:2.05194569"
     transform="matrix(1.0947177,0,0,0.91347751,-1.9999677,-1.4368242e-6)"
     aria-label="FinalBurn"><path
       inkscape:connector-curvature="0"
       id="path886"
       style="fill:#0f0f0f;fill-opacity:1;stroke-width:2.05194569"
       d="m 812.95194,278.24482 h 44.99851 v 20.44813 h -18.42856 v 19.37524 h 16.40899 v 19.43834 h -16.40899 v 42.91583 h -26.56995 z" /><path
       inkscape:connector-curvature="0"
       id="path888"
       style="fill:#0f0f0f;fill-opacity:1;stroke-width:2.05194569"
       d="m 889.88488,278.24482 v 13.31653 h -26.25439 v -13.31653 z m 0,18.42856 v 83.74898 h -26.25439 v -83.74898 z" /><path
       inkscape:connector-curvature="0"
       id="path890"
       style="fill:#0f0f0f;fill-opacity:1;stroke-width:2.05194569"
       d="m 924.97488,296.67338 -0.44178,7.69961 q 2.77691,-4.60714 6.75293,-6.87916 4.03914,-2.33512 9.27739,-2.33512 6.5636,0 10.72896,3.09246 4.16536,3.09247 5.36448,7.82583 1.19912,4.67025 1.19912,15.65166 v 58.6937 h -25.49705 v -57.99948 q 0,-8.64628 -0.56801,-10.53962 -0.568,-1.89335 -3.15557,-1.89335 -2.7138,0 -3.40802,2.20891 -0.69423,2.14579 -0.69423,11.61252 v 56.61102 h -25.49705 v -83.74898 z" /><path
       inkscape:connector-curvature="0"
       id="path892"
       style="fill:#0f0f0f;fill-opacity:1;stroke-width:2.05194569"
       d="m 989.41173,329.1127 h -23.91927 v -5.61692 q 0,-9.71918 2.20891,-14.95743 2.27201,-5.30137 9.02494,-9.34051 6.75294,-4.03913 17.545,-4.03913 12.93789,0 19.50149,4.60714 6.5636,4.54403 7.8889,11.23385 1.3254,6.62671 1.3254,27.3904 v 42.03226 h -24.80287 v -7.44716 q -2.33513,4.48092 -6.05871,6.75294 -3.66047,2.2089 -8.7725,2.2089 -6.68982,0 -12.30674,-3.72358 -5.55382,-3.78669 -5.55382,-16.4721 v -6.87916 q 0,-9.40362 2.96625,-12.81164 2.96624,-3.40802 14.70498,-7.95205 12.55919,-4.9227 13.44275,-6.62671 0.88356,-1.70401 0.88356,-6.94226 0,-6.5636 -1.00978,-8.52006 -0.94668,-2.01957 -3.21869,-2.01957 -2.58757,0 -3.21869,1.70401 -0.63111,1.6409 -0.63111,8.64628 z M 997.49,340.599 q -6.12182,4.48092 -7.1316,7.51027 -0.94667,3.02935 -0.94667,8.70939 0,6.50048 0.82045,8.39383 0.88356,1.89334 3.40802,1.89334 2.39824,0 3.09246,-1.45156 0.75734,-1.51468 0.75734,-7.82583 z" /><path
       inkscape:connector-curvature="0"
       id="path894"
       style="fill:#0f0f0f;fill-opacity:1;stroke-width:2.05194569"
       d="m 1058.0139,278.24482 v 102.17754 h -26.2543 V 278.24482 Z" /><path
       inkscape:connector-curvature="0"
       id="path896"
       style="fill:#0f0f0f;fill-opacity:1;stroke-width:2.05194569"
       d="m 1067.9225,278.24482 h 26.5068 q 12.5592,0 18.9966,1.95646 6.5004,1.95646 10.4765,7.95205 3.976,5.93248 3.976,19.1859 0,8.96184 -2.84,12.49608 -2.7769,3.53424 -11.0445,5.42759 9.2142,2.08268 12.496,6.94227 3.2818,4.79647 3.2818,14.76809 v 9.46673 q 0,10.35029 -2.3982,15.3361 -2.3351,4.98581 -7.5103,6.81604 -5.1751,1.83023 -21.2054,1.83023 h -30.7353 z m 26.5699,17.48189 v 22.72015 q 1.704,-0.0631 2.6507,-0.0631 3.9129,0 4.9858,-1.89335 1.0729,-1.95646 1.0729,-11.04452 0,-4.79647 -0.8836,-6.68982 -0.8835,-1.95645 -2.3351,-2.46134 -1.3884,-0.5049 -5.4907,-0.56801 z m 0,38.62425 v 28.58951 q 5.6169,-0.18933 7.1316,-1.76712 1.5778,-1.57779 1.5778,-7.76271 v -9.52984 q 0,-6.5636 -1.3885,-7.95205 -1.3884,-1.38846 -7.3209,-1.57779 z" /><path
       inkscape:connector-curvature="0"
       id="path898"
       style="fill:#0f0f0f;fill-opacity:1;stroke-width:2.05194569"
       d="m 1196.9224,296.67338 v 83.74898 h -25.9388 l 0.4417,-6.94226 q -2.6506,4.22847 -6.5636,6.37426 -3.8498,2.08268 -8.8987,2.08268 -5.7431,0 -9.5298,-2.01957 -3.7867,-2.01957 -5.6169,-5.36448 -1.7672,-3.34491 -2.2089,-6.94226 -0.4418,-3.66047 -0.4418,-14.45254 v -56.48481 h 25.497 v 56.9897 q 0,9.78229 0.568,11.61252 0.6311,1.83023 3.2818,1.83023 2.84,0 3.3449,-1.89334 0.568,-1.89335 0.568,-12.18052 v -56.35859 z" /><path
       inkscape:connector-curvature="0"
       id="path900"
       style="fill:#0f0f0f;fill-opacity:1;stroke-width:2.05194569"
       d="m 1231.5706,296.67338 -1.0098,10.98141 q 5.5539,-11.80186 16.0935,-12.49608 v 29.47308 q -7.0054,0 -10.2872,1.89334 -3.2818,1.89335 -4.0391,5.30137 -0.7574,3.34491 -0.7574,15.52543 v 33.07043 h -25.497 v -83.74898 z" /><path
       inkscape:connector-curvature="0"
       id="path902"
       style="fill:#0f0f0f;fill-opacity:1;stroke-width:2.05194569"
       d="m 1278.2731,296.67338 -0.4418,7.69961 q 2.7769,-4.60714 6.753,-6.87916 4.0391,-2.33512 9.2774,-2.33512 6.5636,0 10.7289,3.09246 4.1654,3.09247 5.3645,7.82583 1.1991,4.67025 1.1991,15.65166 v 58.6937 h -25.497 v -57.99948 q 0,-8.64628 -0.568,-10.53962 -0.568,-1.89335 -3.1556,-1.89335 -2.7138,0 -3.408,2.20891 -0.6943,2.14579 -0.6943,11.61252 v 56.61102 h -25.497 v -83.74898 z" /></g></g></svg>