<?xml version="1.0" encoding="UTF-8" standalone="no"?>
<!-- Created with Inkscape (http://www.inkscape.org/) -->

<svg
   xmlns:svg="http://www.w3.org/2000/svg"
   xmlns="http://www.w3.org/2000/svg"
   version="1.1"
   width="745"
   height="150"
   viewBox="0 0 745 150"
   id="Layer_1"
   xml:space="preserve"><defs
   id="defs167" />
<g
   transform="translate(-24.5,-231.5)"
   id="g3">
	<path
   d="m 24.5,301.5 v 53 l 48,27 h 649 l 48,-27 v -53 l -48,-27 h -240 l -25,-43 h -118 l -25,43 h -241 l -48,27 z m 252,-9 h 25 l 45,25.14 V 292.5 h 24 v 70 h -24 v -25.86 l -46,-25.709 V 362.5 h -24 v -70 z m 313,70 v -70 h 24 v 70 h -24 z m -207,0 v -54 l 24,-16 h 63 l -23,14 h -40 v 14 h 48 l -23,14 h -25 v 14 h 65 l -23,14 h -66 z m -212,0 v -54 l 24,-16 h 63 l -23,14 h -40 v 14 h 48 l -23,14 h -25 v 14 h 65 l -23,14 h -66 z m -16,-45 v 29 l -24,16 h -69 v -54 l 24,-16 h 73 l -23,14 h -50 v 42 h 45 v -17 h -28 l 23,-14 h 29 z m 418,31 -23,14 h -71 l 23,-14 h 45 v -14 h -68 v -27 l 23,-14 h 72 l -23,14 h -47 v 13 h 69 v 28 z m 153,0 -23,14 h -71 l 23,-14 h 45 v -14 h -68 v -27 l 23,-14 h 72 l -23,14 h -47 v 13 h 69 v 28 z"
   id="path5"
   style="fill:#c2c4d2" />
	<linearGradient
   x1="397.33499"
   y1="237.5"
   x2="397.33499"
   y2="375.50049"
   id="SVGID_1_"
   gradientUnits="userSpaceOnUse">
		<stop
   id="stop8"
   style="stop-color:#d9dde9;stop-opacity:1"
   offset="0" />
		<stop
   id="stop10"
   style="stop-color:#777489;stop-opacity:1"
   offset="0.38999999" />
		<stop
   id="stop12"
   style="stop-color:#d9dde9;stop-opacity:1"
   offset="0.98000002" />
	</linearGradient>
	<path
   d="m 477.5,280.5 -25,-43 h -0.33 -109.67 -0.33 l -25,43 H 72.83 L 30.5,304.25 v 47.5 l 42.33,23.75 h 649.01 l 42.33,-23.75 v -47.5 L 721.84,280.5 H 477.5 z m -201,12 h 25 l 45,25.14 V 292.5 h 24 v 70 h -24 v -25.86 l -46,-25.709 V 362.5 h -24 v -70 z m 313,70 v -70 h 24 v 70 h -24 z m -207,0 v -54 l 24,-16 h 63 l -23,14 h -40 v 14 h 48 l -23,14 h -25 v 14 h 65 l -23,14 h -66 z m -212,0 v -54 l 24,-16 h 63 l -23,14 h -40 v 14 h 48 l -23,14 h -25 v 14 h 65 l -23,14 h -66 z m -16,-45 v 29 l -24,16 h -69 v -54 l 24,-16 h 73 l -23,14 h -50 v 42 h 45 v -17 h -28 l 23,-14 h 29 z m 418,31 -23,14 h -71 l 23,-14 h 45 v -14 h -68 v -27 l 23,-14 h 72 l -23,14 h -47 v 13 h 69 v 28 z m 153,0 -23,14 h -71 l 23,-14 h 45 v -14 h -68 v -27 l 23,-14 h 72 l -23,14 h -47 v 13 h 69 v 28 z"
   id="path14"
   style="fill:url(#SVGID_1_)" />
	<path
   d="m 431.16,249.2 -9.37,28.55 h 4.63 l 9.391,-27.57 c 0.34,-1.26 1.369,-2.18 2.579,-2.18 1.221,0 2.25,0.92 2.591,2.18 l 7.939,23.32 h -12.46 v 4.25 H 455 l -9.37,-28.55 c -0.899,-3.15 -3.8,-5.45 -7.24,-5.45 -3.43,0 -6.329,2.3 -7.23,5.45 z m 5.49,17.73 1.64,-4.87 1.71,4.87 h -3.35 z m -0.68,-13.98 -8.39,24.8 h 5.41 l 3.47,-10.28 v 4.86 h 10.9 l -6.471,-19.38 c -0.329,-1.08 -1.31,-4.18 -2.46,-4.18 -1.159,0 -2.139,3.1 -2.459,4.18 z m -29.63,-3.79 h 16.221 v -4.64 h -16.61 c -4.48,0 -8.11,3.64 -8.11,8.12 v 17 c 0,4.48 3.63,8.11 8.11,8.11 h 16.61 V 256.11 H 409.43 v 4.25 h 8.49 v 12.75 h -11.58 c -2.14,0 -3.859,-1.73 -3.859,-3.86 v -16.23 c -10e-4,-2.13 1.719,-3.86 3.859,-3.86 z m 3.09,12.36 v 4.64 h 2.7 v 1.16 h -2.7 c -0.64,0 -1.16,-0.52 -1.16,-1.16 v -10.05 c 0,-0.64 0.521,-1.16 1.16,-1.16 h 13.131 v -4.63 H 407.5 c -2.14,0 -3.87,1.73 -3.87,3.86 v 13.91 c 0,2.13 1.73,3.86 3.87,3.86 h 9.27 v -10.43 h -7.34 z m -29.74,-12.36 h 16.22 v -4.64 H 379.3 c -4.48,0 -8.11,3.64 -8.11,8.12 v 16.81 c 0,4.48 3.63,8.12 8.11,8.12 h 16.61 v -4.64 h -16.22 c -2.13,0 -3.86,-1.73 -3.86,-3.86 v -16.05 c 0,-2.13 1.73,-3.86 3.86,-3.86 z m 12.74,11.2 v -4.25 h -10.81 c 0,-0.64 0.52,-1.16 1.16,-1.16 h 13.13 v -4.63 h -15.06 c -2.13,0 -3.86,1.73 -3.86,3.86 v 6.18 h 15.44 z m 0,1.55 v 4.25 h -10.81 c 0,0.64 0.52,1.16 1.16,1.16 h 13.13 v 4.63 h -15.06 c -2.13,0 -3.86,-1.73 -3.86,-3.86 v -6.18 h 15.44 z m -39.69,5.79 H 343 v 4.25 h 14.87 0.19 c 2.79,-0.1 5.02,-2.4 5.02,-5.21 0,-2.88 -2.33,-5.22 -5.21,-5.22 h -5.86 c -2.37,-0.9 -4.38,-3.25 -4.38,-5.99 0,-3.52 3.24,-6.37 6.76,-6.37 h 14.49 v -4.64 h -15.07 c -5.97,0 -10.81,4.85 -10.81,10.82 0,5.98 5.23,10.82 11.2,10.82 v -0.05 l 0.03,0.05 h 3.45 c 0.42,0 0.77,0.34 0.77,0.77 0,0.43 -0.35,0.77 -0.77,0.77 h -4.94 z m 6.39,-13.13 h 9.75 v -4.25 h -14.87 -0.2 c -2.79,0.1 -5.02,2.4 -5.02,5.21 0,2.89 2.34,5.22 5.22,5.22 h 5.86 c 2.37,0.91 4.37,3.25 4.37,5.99 0,3.52 -3.24,6.37 -6.76,6.37 H 343 v 4.64 h 15.06 c 5.97,0 10.82,-4.84 10.82,-10.82 0,-5.97 -5.23,-10.82 -11.2,-10.82 v 0.06 l -0.04,-0.06 h -3.44 c -0.43,0 -0.77,-0.34 -0.77,-0.77 0,-0.42 0.34,-0.77 0.77,-0.77 h 4.93 z"
   id="path16"
   style="fill:#181c4e" />
</g>
<linearGradient
   x1="282.97659"
   y1="286.97659"
   x2="350.0932"
   y2="354.0932"
   id="SVGID_2_"
   gradientUnits="userSpaceOnUse">
	<stop
   id="stop19"
   style="stop-color:#000000;stop-opacity:1"
   offset="0" />
	<stop
   id="stop21"
   style="stop-color:#181c4e;stop-opacity:1"
   offset="0.11" />
	<stop
   id="stop23"
   style="stop-color:#181818;stop-opacity:1"
   offset="0.22" />
	<stop
   id="stop25"
   style="stop-color:#181c4e;stop-opacity:1"
   offset="0.34" />
	<stop
   id="stop27"
   style="stop-color:#000000;stop-opacity:1"
   offset="0.47" />
	<stop
   id="stop29"
   style="stop-color:#181c4e;stop-opacity:1"
   offset="0.58999997" />
	<stop
   id="stop31"
   style="stop-color:#000000;stop-opacity:1"
   offset="0.72000003" />
	<stop
   id="stop33"
   style="stop-color:#181c4e;stop-opacity:1"
   offset="0.83999997" />
	<stop
   id="stop35"
   style="stop-color:#000000;stop-opacity:1"
   offset="0.98000002" />
</linearGradient>
<polygon
   points="370.5,292.5 370.5,362.5 346.5,362.5 346.5,336.64 300.5,310.931 300.5,362.5 276.5,362.5 276.5,292.5 301.5,292.5 346.5,317.64 346.5,292.5 "
   transform="translate(-24.5,-231.5)"
   id="polygon37"
   style="fill:url(#SVGID_2_)" />
<linearGradient
   x1="578.51947"
   y1="303.0542"
   x2="645.26678"
   y2="374.05829"
   id="SVGID_3_"
   gradientUnits="userSpaceOnUse"
   gradientTransform="translate(-24.5,-231.5)">
	<stop
   id="stop40"
   style="stop-color:#000000;stop-opacity:1"
   offset="0" />
	<stop
   id="stop42"
   style="stop-color:#181c4e;stop-opacity:1"
   offset="0.11" />
	<stop
   id="stop44"
   style="stop-color:#181818;stop-opacity:1"
   offset="0.22" />
	<stop
   id="stop46"
   style="stop-color:#181c4e;stop-opacity:1"
   offset="0.34" />
	<stop
   id="stop48"
   style="stop-color:#000000;stop-opacity:1"
   offset="0.47" />
	<stop
   id="stop50"
   style="stop-color:#181c4e;stop-opacity:1"
   offset="0.58999997" />
	<stop
   id="stop52"
   style="stop-color:#000000;stop-opacity:1"
   offset="0.72000003" />
	<stop
   id="stop54"
   style="stop-color:#181c4e;stop-opacity:1"
   offset="0.83999997" />
	<stop
   id="stop56"
   style="stop-color:#000000;stop-opacity:1"
   offset="0.98000002" />
</linearGradient>
<rect
   width="24"
   height="70"
   x="565"
   y="61"
   id="rect58"
   style="fill:url(#SVGID_3_)" />
<linearGradient
   x1="386.7139"
   y1="288.2139"
   x2="453.11661"
   y2="354.61661"
   id="SVGID_4_"
   gradientUnits="userSpaceOnUse">
	<stop
   id="stop61"
   style="stop-color:#000000;stop-opacity:1"
   offset="0" />
	<stop
   id="stop63"
   style="stop-color:#181c4e;stop-opacity:1"
   offset="0.11" />
	<stop
   id="stop65"
   style="stop-color:#181818;stop-opacity:1"
   offset="0.22" />
	<stop
   id="stop67"
   style="stop-color:#181c4e;stop-opacity:1"
   offset="0.34" />
	<stop
   id="stop69"
   style="stop-color:#000000;stop-opacity:1"
   offset="0.47" />
	<stop
   id="stop71"
   style="stop-color:#181c4e;stop-opacity:1"
   offset="0.58999997" />
	<stop
   id="stop73"
   style="stop-color:#000000;stop-opacity:1"
   offset="0.72000003" />
	<stop
   id="stop75"
   style="stop-color:#181c4e;stop-opacity:1"
   offset="0.83999997" />
	<stop
   id="stop77"
   style="stop-color:#000000;stop-opacity:1"
   offset="0.98000002" />
</linearGradient>
<polygon
   points="446.5,306.5 406.5,306.5 406.5,320.5 454.5,320.5 431.5,334.5 406.5,334.5 406.5,348.5 471.5,348.5 448.5,362.5 382.5,362.5 382.5,308.5 406.5,292.5 469.5,292.5 "
   transform="translate(-24.5,-231.5)"
   id="polygon79"
   style="fill:url(#SVGID_4_)" />
<linearGradient
   x1="174.7144"
   y1="288.21439"
   x2="241.1171"
   y2="354.6171"
   id="SVGID_5_"
   gradientUnits="userSpaceOnUse">
	<stop
   id="stop82"
   style="stop-color:#000000;stop-opacity:1"
   offset="0" />
	<stop
   id="stop84"
   style="stop-color:#181c4e;stop-opacity:1"
   offset="0.11" />
	<stop
   id="stop86"
   style="stop-color:#181818;stop-opacity:1"
   offset="0.22" />
	<stop
   id="stop88"
   style="stop-color:#181c4e;stop-opacity:1"
   offset="0.34" />
	<stop
   id="stop90"
   style="stop-color:#000000;stop-opacity:1"
   offset="0.47" />
	<stop
   id="stop92"
   style="stop-color:#181c4e;stop-opacity:1"
   offset="0.58999997" />
	<stop
   id="stop94"
   style="stop-color:#000000;stop-opacity:1"
   offset="0.72000003" />
	<stop
   id="stop96"
   style="stop-color:#181c4e;stop-opacity:1"
   offset="0.83999997" />
	<stop
   id="stop98"
   style="stop-color:#000000;stop-opacity:1"
   offset="0.98000002" />
</linearGradient>
<polygon
   points="234.5,306.5 194.5,306.5 194.5,320.5 242.5,320.5 219.5,334.5 194.5,334.5 194.5,348.5 259.5,348.5 236.5,362.5 170.5,362.5 170.5,308.5 194.5,292.5 257.5,292.5 "
   transform="translate(-24.5,-231.5)"
   id="polygon100"
   style="fill:url(#SVGID_5_)" />
<linearGradient
   x1="76.250504"
   y1="293.75049"
   x2="141.7504"
   y2="359.2504"
   id="SVGID_6_"
   gradientUnits="userSpaceOnUse">
	<stop
   id="stop103"
   style="stop-color:#000000;stop-opacity:1"
   offset="0" />
	<stop
   id="stop105"
   style="stop-color:#181c4e;stop-opacity:1"
   offset="0.11" />
	<stop
   id="stop107"
   style="stop-color:#181818;stop-opacity:1"
   offset="0.22" />
	<stop
   id="stop109"
   style="stop-color:#181c4e;stop-opacity:1"
   offset="0.34" />
	<stop
   id="stop111"
   style="stop-color:#000000;stop-opacity:1"
   offset="0.47" />
	<stop
   id="stop113"
   style="stop-color:#181c4e;stop-opacity:1"
   offset="0.58999997" />
	<stop
   id="stop115"
   style="stop-color:#000000;stop-opacity:1"
   offset="0.72000003" />
	<stop
   id="stop117"
   style="stop-color:#181c4e;stop-opacity:1"
   offset="0.83999997" />
	<stop
   id="stop119"
   style="stop-color:#000000;stop-opacity:1"
   offset="0.98000002" />
</linearGradient>
<polygon
   points="61.5,308.5 85.5,292.5 158.5,292.5 135.5,306.5 85.5,306.5 85.5,348.5 130.5,348.5 130.5,331.5 102.5,331.5 125.5,317.5 154.5,317.5 154.5,346.5 130.5,362.5 61.5,362.5 "
   transform="translate(-24.5,-231.5)"
   id="polygon121"
   style="fill:url(#SVGID_6_)" />
<linearGradient
   x1="485.45901"
   y1="287.4595"
   x2="552.35858"
   y2="354.3591"
   id="SVGID_7_"
   gradientUnits="userSpaceOnUse">
	<stop
   id="stop124"
   style="stop-color:#000000;stop-opacity:1"
   offset="0" />
	<stop
   id="stop126"
   style="stop-color:#181c4e;stop-opacity:1"
   offset="0.11" />
	<stop
   id="stop128"
   style="stop-color:#181818;stop-opacity:1"
   offset="0.22" />
	<stop
   id="stop130"
   style="stop-color:#181c4e;stop-opacity:1"
   offset="0.34" />
	<stop
   id="stop132"
   style="stop-color:#000000;stop-opacity:1"
   offset="0.47" />
	<stop
   id="stop134"
   style="stop-color:#181c4e;stop-opacity:1"
   offset="0.58999997" />
	<stop
   id="stop136"
   style="stop-color:#000000;stop-opacity:1"
   offset="0.72000003" />
	<stop
   id="stop138"
   style="stop-color:#181c4e;stop-opacity:1"
   offset="0.83999997" />
	<stop
   id="stop140"
   style="stop-color:#000000;stop-opacity:1"
   offset="0.98000002" />
</linearGradient>
<polygon
   points="546.5,348.5 546.5,334.5 478.5,334.5 478.5,307.5 501.5,293.5 573.5,293.5 550.5,307.5 503.5,307.5 503.5,320.5 572.5,320.5 572.5,348.5 549.5,362.5 478.5,362.5 501.5,348.5 "
   transform="translate(-24.5,-231.5)"
   id="polygon142"
   style="fill:url(#SVGID_7_)" />
<linearGradient
   x1="638.46002"
   y1="287.4595"
   x2="705.35962"
   y2="354.3591"
   id="SVGID_8_"
   gradientUnits="userSpaceOnUse">
	<stop
   id="stop145"
   style="stop-color:#000000;stop-opacity:1"
   offset="0" />
	<stop
   id="stop147"
   style="stop-color:#181c4e;stop-opacity:1"
   offset="0.11" />
	<stop
   id="stop149"
   style="stop-color:#181818;stop-opacity:1"
   offset="0.22" />
	<stop
   id="stop151"
   style="stop-color:#181c4e;stop-opacity:1"
   offset="0.34" />
	<stop
   id="stop153"
   style="stop-color:#000000;stop-opacity:1"
   offset="0.47" />
	<stop
   id="stop155"
   style="stop-color:#181c4e;stop-opacity:1"
   offset="0.58999997" />
	<stop
   id="stop157"
   style="stop-color:#000000;stop-opacity:1"
   offset="0.72000003" />
	<stop
   id="stop159"
   style="stop-color:#181c4e;stop-opacity:1"
   offset="0.83999997" />
	<stop
   id="stop161"
   style="stop-color:#000000;stop-opacity:1"
   offset="0.98000002" />
</linearGradient>
<polygon
   points="699.5,348.5 699.5,334.5 631.5,334.5 631.5,307.5 654.5,293.5 726.5,293.5 703.5,307.5 656.5,307.5 656.5,320.5 725.5,320.5 725.5,348.5 702.5,362.5 631.5,362.5 654.5,348.5 "
   transform="translate(-24.5,-231.5)"
   id="polygon163"
   style="fill:url(#SVGID_8_)" />
</svg>