<svg enable-background="new 0 0 322.364 102" viewBox="0 0 322.364 102" xmlns="http://www.w3.org/2000/svg"><g fill="#070308"><path d="m206.365 21.779c.524.033 1.049.065 1.573.102 4.025.278 7.871 1.222 11.466 3.089 2.567 1.335 4.843 3.062 6.875 5.122 2.205 2.237 4.029 4.744 5.403 7.573 1.008 2.076 1.707 4.255 2.192 6.508.594 2.762.789 5.559.672 8.373-.19 4.514-1.189 8.83-3.317 12.847-1.485 2.802-3.421 5.261-5.725 7.436-3.693 3.487-8.02 5.761-12.992 6.815-1.84.389-3.696.633-5.576.693-.086.003-.17.027-.255.042h-2.212c-.481-.035-.962-.067-1.442-.103-5.759-.417-11.014-2.197-15.569-5.82-3.595-2.86-6.409-6.35-8.33-10.538-.976-2.129-1.629-4.36-2.064-6.659-.493-2.599-.649-5.224-.517-7.86.278-5.552 1.74-10.735 4.961-15.329 3.769-5.374 8.699-9.196 15.062-11.044 1.94-.563 3.916-.938 5.931-1.093.639-.05 1.28-.075 1.918-.114.105-.006.208-.026.312-.04zm-.874 51.065c2.047-.017 4.028-.184 5.971-.665 4.231-1.045 7.751-3.24 10.548-6.588 2.856-3.416 4.342-7.386 4.744-11.787.138-1.506.154-3.015.064-4.526-.098-1.639-.313-3.262-.748-4.848-1.359-4.952-4.14-8.904-8.413-11.763-3.197-2.136-6.773-3.115-10.587-3.304-2.085-.102-4.157-.008-6.212.365-3.592.652-6.787 2.135-9.541 4.547-2.67 2.34-4.6 5.182-5.794 8.524-.905 2.529-1.267 5.147-1.304 7.82-.031 2.077.115 4.14.567 6.168.819 3.662 2.465 6.894 5.035 9.65 2.269 2.43 4.968 4.179 8.111 5.25 2.468.844 5.017 1.13 7.559 1.157"/><path d="m310.495 79.061c-.217.523-.382.629-.974.629-1.932 0-3.864.001-5.797 0-.68 0-.931-.252-.931-.937v-55.33c0-.71.25-.958.97-.958 1.932 0 3.865-.007 5.795.01.239.002.499.096.703.222.123.077.16.295.235.451v55.913z"/><path d="m152.903 45.677c.975 1.294 1.94 2.577 2.905 3.86 2.046 2.72 4.094 5.44 6.141 8.162 2.633 3.5 5.264 6.998 7.898 10.496 2.58 3.429 5.158 6.858 7.741 10.284.192.252.274.51.137.802-.139.296-.409.391-.714.409-.139.008-.28.001-.421.001-2.38 0-4.76-.002-7.14.003-.407.001-.705-.136-.96-.475-4.489-5.999-8.987-11.992-13.485-17.987-2.554-3.403-5.109-6.806-7.665-10.209-.02-.029-.045-.053-.081-.096-.31.289-.618.576-.925.861-2.072 1.936-4.142 3.874-6.213 5.812-1.142 1.066-2.284 2.134-3.432 3.193-.148.136-.209.272-.209.474.005 5.796.004 11.593.004 17.389 0 .07.002.14 0 .211-.015.531-.285.82-.816.822-2.029.008-4.057.006-6.086.001-.515-.002-.786-.292-.796-.808-.001-.06 0-.123 0-.184v-55.225-.053c0-.699.252-.954.946-.954 1.853-.001 3.706-.001 5.559-.001.122 0 .246-.004.369.001.537.025.8.289.824.823.004.08.001.159.001.237v26.77.371c.46-.429.875-.814 1.288-1.202 2.446-2.295 4.89-4.591 7.338-6.885 3.209-3.007 6.42-6.013 9.63-9.021 2.69-2.523 5.378-5.047 8.067-7.57 1.134-1.064 2.271-2.124 3.401-3.19.236-.223.505-.332.828-.332 2.836.001 5.674 0 8.511.001.483 0 .756.176.858.537.085.299-.03.531-.239.73-.822.781-1.642 1.561-2.465 2.338-1.456 1.373-2.917 2.744-4.373 4.117-2.02 1.903-4.038 3.804-6.055 5.71-2.069 1.952-4.135 3.907-6.204 5.858-1.382 1.301-2.764 2.599-4.167 3.919"/><path d="m243.349 51.085v-27.56c0-.08 0-.159.001-.238.011-.52.273-.791.789-.821.035-.002.071-.001.105-.001 7.88.001 15.757-.019 23.636.012 3.624.013 7.091.828 10.398 2.306 2.878 1.287 5.406 3.081 7.601 5.339 3.578 3.674 5.955 8.01 7.123 13.01.673 2.879.95 5.794.889 8.744-.082 3.962-.77 7.809-2.272 11.49-1.254 3.074-3.049 5.802-5.312 8.225-3.472 3.719-7.691 6.164-12.634 7.362-2.133.516-4.293.746-6.488.744-7.632-.012-15.264-.004-22.898-.005-.131 0-.263-.009-.391-.029-.282-.046-.457-.215-.507-.495-.027-.146-.038-.296-.038-.443-.002-9.214-.002-18.427-.002-27.64m7.708 21.24h.34c5.13 0 10.258.004 15.387-.006.92-.002 1.843-.04 2.76-.111 1.906-.15 3.722-.655 5.46-1.45 2.271-1.04 4.179-2.555 5.822-4.426 1.532-1.744 2.742-3.684 3.633-5.823.949-2.278 1.46-4.654 1.648-7.112.173-2.243.104-4.474-.234-6.695-.4-2.624-1.254-5.1-2.573-7.406-1.466-2.564-3.359-4.76-5.789-6.456-2.909-2.031-6.176-2.976-9.702-2.993-5.49-.026-10.979-.008-16.468-.009h-.285v42.488h.001z"/></g><path d="m102.394 51.849c-.33 1.072-1.054 1.856-1.829 2.629-5.194 5.176-10.371 10.37-15.554 15.556-1.867 1.868-3.863 1.864-5.738-.013-5.349-5.353-10.699-10.706-16.045-16.06-1.822-1.823-1.821-3.815.005-5.643 5.377-5.386 10.756-10.769 16.135-16.151 1.75-1.752 3.807-1.753 5.557-.002 5.215 5.216 10.422 10.439 15.646 15.646.775.772 1.497 1.56 1.823 2.632z" fill="#36a2cd"/><path d="m50.836 101.999c-1.067-.339-1.839-1.077-2.608-1.85-5.172-5.199-10.359-10.38-15.542-15.569-1.854-1.857-1.856-3.837-.006-5.69 5.363-5.367 10.726-10.735 16.092-16.102 1.783-1.784 3.827-1.791 5.601-.016 5.364 5.366 10.728 10.735 16.09 16.104 1.842 1.845 1.847 3.866.013 5.701-5.227 5.234-10.462 10.46-15.678 15.704-.746.75-1.514 1.425-2.554 1.719z" fill="#36a2cd"/><path d="m32.012 38.284c0-5.969.054-11.937-.035-17.905-.025-1.727.387-3.076 1.707-4.215 1.06-.917 2.001-1.975 2.995-2.971 3.932-3.936 7.863-7.871 11.796-11.806 1.849-1.849 3.845-1.848 5.693.001 5.35 5.351 10.698 10.703 16.047 16.056 1.838 1.84 1.836 3.862-.001 5.701-6.325 6.334-12.654 12.666-18.981 18.998-5.587 5.594-11.174 11.187-16.762 16.779-1.035 1.037-1.953.795-2.329-.641-.116-.444-.126-.925-.126-1.389-.006-6.203-.004-12.406-.004-18.608" fill="#36a2cd"/><path d="m19.22 51.215c0 5.477.008 10.955-.012 16.432-.002.52-.085 1.071-.271 1.554-.365.95-1.051 1.068-1.769.352-2.519-2.514-5.031-5.037-7.545-7.555-2.906-2.911-5.813-5.822-8.718-8.734-1.202-1.206-1.207-2.878-.01-4.09 5.349-5.41 10.7-10.82 16.052-16.229.354-.357.687-.842 1.289-.615.575.217.802.736.883 1.31.052.356.092.719.092 1.078.005 5.499.003 10.997.003 16.497z" fill="#36a2cd"/><path d="m317.903 23.376h-1.394v3.561h-.453v-3.561h-1.394v-.435h3.241z" fill="#070308"/><path d="m322.364 22.941v3.996h-.453v-3.308l-1.479 1.901-1.502-1.901v3.308h-.453v-3.996h.525l1.43 1.895 1.406-1.895z" fill="#070308"/></svg>