<?xml version="1.0" encoding="UTF-8" standalone="no"?>
<!-- Generator: Adobe Illustrator 19.0.0, SVG Export Plug-In . SVG Version: 6.00 Build 0)  -->

<svg
   xmlns:dc="http://purl.org/dc/elements/1.1/"
   xmlns:cc="http://creativecommons.org/ns#"
   xmlns:rdf="http://www.w3.org/1999/02/22-rdf-syntax-ns#"
   xmlns:svg="http://www.w3.org/2000/svg"
   xmlns="http://www.w3.org/2000/svg"
   xmlns:sodipodi="http://sodipodi.sourceforge.net/DTD/sodipodi-0.dtd"
   xmlns:inkscape="http://www.inkscape.org/namespaces/inkscape"
   version="1.1"
   id="Ebene_2"
   x="0px"
   y="0px"
   viewBox="159.3 374.4 84.999998 46"
   xml:space="preserve"
   sodipodi:docname="logo.svg"
   width="85"
   height="46"
   inkscape:version="0.92.5 (2060ec1f9f, 2020-04-08)"><metadata
   id="metadata39"><rdf:RDF><cc:Work
       rdf:about=""><dc:format>image/svg+xml</dc:format><dc:type
         rdf:resource="http://purl.org/dc/dcmitype/StillImage" /><dc:title></dc:title></cc:Work></rdf:RDF></metadata><defs
   id="defs37" /><sodipodi:namedview
   pagecolor="#ffffff"
   bordercolor="#666666"
   borderopacity="1"
   objecttolerance="10"
   gridtolerance="10"
   guidetolerance="10"
   inkscape:pageopacity="0"
   inkscape:pageshadow="2"
   inkscape:window-width="3840"
   inkscape:window-height="2065"
   id="namedview35"
   showgrid="false"
   inkscape:zoom="13.900268"
   inkscape:cx="57.129135"
   inkscape:cy="17.640271"
   inkscape:window-x="0"
   inkscape:window-y="0"
   inkscape:window-maximized="1"
   inkscape:current-layer="Ebene_2" />
<g
   id="g32"
   transform="translate(-36.200008,6.1035156e-6)">
	<rect
   x="196.10001"
   y="374.39999"
   width="83.800003"
   height="46"
   id="rect2" />
	<path
   d="M 237.5,409.7 249,398.3 c 0,-0.1 0.1,-0.2 0.1,-0.3 l -11.6,8.8 11.8,-12.3 -11.8,9 11.3,-12 -11.3,9.2 10.9,-12.3 c -3.9,-3.3 -13.2,-0.4 -21.3,6.8 -8.4,7.6 -12.4,16.9 -8.8,21 3.6,4 13.4,1.2 21.8,-6.4 2.3,-2 4.2,-4.2 5.8,-6.4 z"
   id="path4"
   inkscape:connector-curvature="0"
   style="fill:#5a97d0" />
	<path
   d="m 232.4,399.9 h -4 v 10 h 4 v -2.7 h 3.8 v 6.1 h -9.7 c -1,0 -1.9,-1 -1.9,-1.9 v -12.8 c 0,-1.4 0.7,-1.9 1.8,-1.9 h 9.7 v 6.6 h -3.8 v -3.4 z"
   id="path6"
   inkscape:connector-curvature="0"
   style="fill:#010101" />
	<path
   d="m 257.6,384.8 -11.5,11.4 c 0,0.1 -0.1,0.2 -0.1,0.3 l 11.6,-8.8 -11.8,12.3 11.8,-9 -11.3,12 11.3,-9.2 -10.9,12.3 c 3.9,3.3 13.2,0.4 21.3,-6.8 8.4,-7.6 12.4,-16.9 8.8,-21 -3.6,-4 -13.4,-1.2 -21.8,6.4 -2.3,2 -4.2,4.2 -5.8,6.4 z"
   id="path8"
   inkscape:connector-curvature="0"
   style="fill:#dead2c" />
	<g
   id="g12">
		<path
   d="m 270.7,396.2 c 0,0.9 -1,1.9 -1.9,1.9 h -9.7 v -16.5 h 9.7 c 0.9,0.1 1.9,0.9 1.9,1.9 z m -7.7,-1.5 h 4 v -10 h -4 z"
   id="path10"
   inkscape:connector-curvature="0"
   style="fill:#010101" />
	</g>
	<g
   id="g24">
		<path
   d="m 203.7,377.8 c 0.3,-0.5 0.8,-0.9 1.4,-0.9 1.1,0 2.3,0 3.5,0 0,0.4 0,0.8 0,1.2 0.5,-0.5 1,-1.2 1.7,-1.1 1.6,0 3.2,0 4.8,0 0,3.1 0,6.2 0,9.3 -1.1,0 -2.2,0 -3.2,0 0,-2.2 0,-4.5 0,-6.7 -0.6,-0.1 -0.9,0.5 -1.2,1 -1.2,1.9 -2.4,3.8 -3.5,5.7 -1.1,0 -2.3,0 -3.4,0 1.4,-2.3 2.8,-4.5 4.2,-6.8 -0.7,0 -1.6,-0.2 -2.2,0.4 -1.3,2.1 -2.6,4.3 -4,6.4 -1.1,0 -2.3,0 -3.4,0 1.7,-2.9 3.5,-5.7 5.3,-8.5 z"
   id="path14"
   inkscape:connector-curvature="0"
   style="fill:#ffffff" />
		<path
   d="m 216.4,378 c 0.4,-0.6 1.3,-1.2 2.1,-1.1 2.4,0 4.8,0 7.2,0 0,0.7 0,1.4 0,2.1 -1.8,0.1 -3.6,0 -5.3,0 -0.7,0.2 -0.8,1.1 -1.2,1.6 2.2,0 4.5,0 6.7,0 -0.4,0.6 -0.9,1.2 -1.3,1.8 -1.8,0 -3.6,0 -5.4,0 0,0.6 0,1.2 0,1.8 2.2,0 4.4,0 6.6,0 0,0.7 0,1.4 0,2 -3.3,0 -6.6,0 -9.9,0 0,-1.9 0,-3.8 0,-5.7 -0.2,-1 0,-1.8 0.5,-2.5 z"
   id="path16"
   inkscape:connector-curvature="0"
   style="fill:#ffffff" />
		<path
   d="m 227.2,377.7 c 0.3,-0.4 1.1,-0.9 1.7,-0.9 2.6,0 5.1,0 7.7,0 0,0.7 0,1.4 0,2.1 -1.7,0 -3.3,0 -5,0 -1.1,-0.1 -1.6,1.2 -1.9,2.1 0,1.4 -0.3,1.4 -0.1,3.1 1.9,0.1 2.3,0.1 4.7,0 0.1,-0.5 0,-1 0.1,-1.5 -0.8,-0.1 -0.6,-0.1 -2.2,-0.1 0.4,-0.7 0.8,-1.3 1.1,-2 1.3,0 2.7,0 4,0 0,1.6 0,3.1 0,4.7 0,0.3 -0.1,0.6 -0.2,0.9 -3.1,0.1 -6.1,0 -9.2,0.1 -0.8,0.1 -1.3,-0.7 -1.3,-1.4 0,-1.7 0,-3.4 0,-5.1 -0.2,-0.9 0.2,-1.4 0.6,-2 z"
   id="path18"
   inkscape:connector-curvature="0"
   style="fill:#ffffff" />
		<g
   id="g22">
			<path
   d="m 238,376.8 c 1.7,0 3.5,0 5.2,0 0.9,-0.1 1.6,0.7 2,1.4 1.6,2.7 3.3,5.3 4.9,8 -1.2,0 -2.4,0 -3.5,0 -0.5,-0.6 -0.8,-1.3 -1.4,-1.8 -1,0 -2.1,0 -3.1,0 -0.3,-0.5 -0.6,-1 -0.9,-1.5 0,1.1 0,2.2 0,3.3 -1.1,0 -2.1,0 -3.2,0 0,-3.1 0,-6.3 0,-9.4 z m 3.3,2.1 c 0,1.2 0,2.3 0,3.5 0.9,0 1.9,0 2.8,0 -0.6,-0.9 -1.1,-2 -1.7,-2.9 -0.3,-0.4 -0.7,-0.5 -1.1,-0.6 z"
   id="path20"
   inkscape:connector-curvature="0"
   style="fill:#ffffff" />
		</g>
	</g>
	<g
   id="g30">
		<path
   d="m 267.9,418.3 v -5.4 H 266 v -1.1 h 5.1 v 1.1 h -1.9 v 5.4 z"
   id="path26"
   inkscape:connector-curvature="0"
   style="fill:#ffffff" />
		<path
   d="m 271.9,418.3 v -6.4 h 1.9 l 1.2,4.4 1.2,-4.4 h 2 v 6.4 H 277 v -5.1 l -1.3,5.1 h -1.3 l -1.3,-5.1 v 5.1 z"
   id="path28"
   inkscape:connector-curvature="0"
   style="fill:#ffffff" />
	</g>
</g>
</svg>