<?xml version="1.0" encoding="UTF-8" standalone="no"?>
<!-- Generator: Adobe Illustrator 13.0.0, SVG Export Plug-In . SVG Version: 6.00 Build 14948)  -->

<svg
   xmlns:i="&amp;ns_ai;"
   xmlns:dc="http://purl.org/dc/elements/1.1/"
   xmlns:cc="http://creativecommons.org/ns#"
   xmlns:rdf="http://www.w3.org/1999/02/22-rdf-syntax-ns#"
   xmlns:svg="http://www.w3.org/2000/svg"
   xmlns="http://www.w3.org/2000/svg"
   xmlns:sodipodi="http://sodipodi.sourceforge.net/DTD/sodipodi-0.dtd"
   xmlns:inkscape="http://www.inkscape.org/namespaces/inkscape"
   version="1.1"
   id="Layer_4"
   x="0px"
   y="0px"
   width="1480"
   height="460"
   viewBox="0 0 1480 460"
   enable-background="new 0 0 1897.3 456.5"
   xml:space="preserve"
   sodipodi:docname="logo.svg"
   inkscape:version="0.92.5 (2060ec1f9f, 2020-04-08)"><metadata
   id="metadata32"><rdf:RDF><cc:Work
       rdf:about=""><dc:format>image/svg+xml</dc:format><dc:type
         rdf:resource="http://purl.org/dc/dcmitype/StillImage" /><dc:title></dc:title></cc:Work></rdf:RDF></metadata><defs
   id="defs30">
	
	
</defs><sodipodi:namedview
   pagecolor="#ffffff"
   bordercolor="#666666"
   borderopacity="1"
   objecttolerance="10"
   gridtolerance="10"
   guidetolerance="10"
   inkscape:pageopacity="0"
   inkscape:pageshadow="2"
   inkscape:window-width="3840"
   inkscape:window-height="2065"
   id="namedview28"
   showgrid="false"
   inkscape:zoom="1.2856881"
   inkscape:cx="801.37963"
   inkscape:cy="147.95326"
   inkscape:window-x="0"
   inkscape:window-y="0"
   inkscape:window-maximized="1"
   inkscape:current-layer="Layer_4" />
<g
   id="g863"><g
     transform="translate(-208.4044,1.028)"
     i:extraneous="self"
     id="g23">
		<path
   d="m 521.207,296.791 -119.258,115.497 -1.333,1.289 H 243.996 L 597.305,37.552 V 207.648 L 740.917,47.444 v 247.694 h 6.193 L 850.673,65.13 h 246.362 l -37.186,82.886 H 915.145 l -22.517,51.715 h 78.993 l -37.025,85.89 -65.831,-0.002 -22.399,49.998 h 300.364 l 22.399,-49.996 h -139.158 l 96.45,-220.491 h 248.204 l -36.022,82.886 h -149.392 l -22.52,51.715 h 138.53 l -59.478,135.886 h 176.389 l 22.396,-49.996 H 1305.372 L 1401.821,65.13 h 244.391 l -36.022,82.886 h -143.482 l -22.515,51.715 h 136.643 L 1486.88,413.577 H 639.07 v -116.2 L 521.207,420.392 Z m -122.444,112.21 v -4.578 z"
   id="path2"
   inkscape:connector-curvature="0"
   style="fill:#ffe5c0" />
		<path
   d="m 512.875,329.448 -95.974,92.947 -5.324,5.157 H 217.654 L 616.438,3.126 V 172.001 L 760.049,11.797 V 245.198 L 847.196,51.643 h 275.646 275.399 274.314 l -47.957,110.348 h -143.491 l -10.557,24.252 h 136.717 l -106.02,241.31 H 630.739 v -95.75 L 512.875,454.818 Z m -108.711,79.795 v -18.309 z m 788.885,-223 h 138.575 l -59.48,135.889 h 146.493 l 10.095,-22.537 h -138.954 l 60.194,-137.604 H 1203.608 Z M 872.964,322.13 h 270.271 l 10.096,-22.535 h -138.957 l 76.997,-176.014 -17.232,38.41 H 929.543 l -10.559,24.252 h 78.912 L 949.027,299.595 H 883.06 Z"
   id="path4"
   inkscape:connector-curvature="0"
   style="fill:#f7f7f7" />
		<path
   d="m 520.474,313.116 -107.617,104.226 -3.331,3.224 H 234.257 L 610.304,20.342 610.301,189.825 753.916,29.622 V 277.047 L 852.367,58.384 h 261.409 l -43.348,96.62 -144.651,-0.002 -16.537,37.984 h 78.951 l -42.946,99.622 -65.9,-0.002 -16.249,36.269 h 285.321 l 16.249,-36.267 H 1025.612 L 1128.066,58.383 h 263.165 l -41.99,96.62 -149.4,-0.002 -16.536,37.984 h 138.555 l -59.482,135.889 h 161.441 l 16.249,-36.267 H 1301.01 L 1403.466,58.382 h 259.351 l -41.988,96.62 h -143.49 l -16.535,37.986 h 136.683 l -99.988,227.576 H 638.339 V 314.589 L 520.474,437.604 Z m -115.578,96.006 v -11.445 z"
   id="path6"
   inkscape:connector-curvature="0"
   style="fill:#a05f00" />
		<path
   d="m 528.753,292.56 -121.495,117.378 -1.002,0.967 H 252.368 L 602.742,38.915 V 209.113 L 746.709,48.905 v 245.85 h 8.1 L 858.626,64.746 h 244.453 l -36.25,80.598 h -145.07 l -23.566,54.003 h 79.192 l -36.129,83.599 h -65.98 l -23.482,52.29 h 303.617 l 23.482,-52.287 h -139.519 l 95.683,-218.203 h 246.315 l -35.112,80.598 H 1196.5 l -23.569,54.003 h 138.864 l -59.624,135.889 h 179.315 l 23.482,-52.287 h -139.516 l 95.682,-218.203 h 242.493 l -35.115,80.598 H 1474.68 l -23.571,54.003 h 136.972 l -93.18,211.558 H 646.908 V 293.001 L 528.753,416.016 Z M 404.865,407.472 v -3.435 z"
   id="path8"
   inkscape:connector-curvature="0"
   style="fill:#f7f7f7" />
		<polygon
   points="1613.484,143.356 1645.526,69.625 1413.23,69.625 1322.91,278.84 1462.133,278.84 1433.51,340.116 1245.036,340.116 1304.516,204.227 1166.002,204.227 1192.503,143.356 1341.898,143.356 1373.939,69.625 1137.829,69.625 1047.507,278.84 1184.613,278.84 1155.989,340.116 845.591,340.116 873.153,278.84 938.936,278.84 970.956,204.227 891.936,204.227 918.437,143.356 1063.179,143.356 1096.259,69.625 862.046,69.625 758.484,299.636 742.631,299.636 742.631,59.326 599.019,219.533 599.019,49.027 262.993,404.674 407.177,404.674 533.136,283.781 533.136,402.553 652.063,280.599 652.063,406.796 1490.185,406.796 1580.118,204.227 1443.5,204.227 1470.003,143.356 "
   id="polygon10"
   style="fill:#ffa102" />
		<g
   id="g21">
			<g
   id="g19">
				
					<linearGradient
   id="SVGID_1_"
   gradientUnits="userSpaceOnUse"
   x1="921.69531"
   y1="54.286598"
   x2="921.69531"
   y2="211.8199"
   gradientTransform="translate(-7)">
					<stop
   offset="0"
   style="stop-color:#FFFFFF"
   id="stop12" />
					<stop
   offset="0.7908"
   style="stop-color:#FFA102"
   id="stop14" />
				</linearGradient>
				<path
   d="m 852.921,87.534 c 66.592,-5.182 146.623,8.831 212.502,53.187 L 1097.32,69.625 H 860.985 Z m 559.247,-17.909 -17.37,39.711 c 69.873,-7.504 164.834,-8.357 222.567,27.529 l 29.221,-67.24 z m -307.723,73.894 c 107.86,0.172 145.137,-5.329 208.041,-20.736 8.031,-1.967 23.235,-5.135 42.997,-8.247 L 1375,69.625 H 1136.768 Z M 600.079,100.285 V 49.027 l -51.871,55.206 c 16.723,-3.139 33.296,-5.365 51.871,-3.948 z m 120.433,50.79 c 3.55,-10.763 11.608,-20.671 23.18,-29.33 V 59.326 l -61.2,68.271 c 11.723,6.407 24.336,14.156 38.02,23.478 z"
   id="path17"
   inkscape:connector-curvature="0"
   style="fill:url(#SVGID_1_)" />
			</g>
		</g>
	</g></g>

</svg>