<?xml version="1.0" encoding="UTF-8" standalone="no"?>
<!-- Generator: Adobe Illustrator 25.4.1, SVG Export Plug-In . SVG Version: 6.00 Build 0)  -->

<svg
   version="1.1"
   id="Layer_1"
   x="0px"
   y="0px"
   viewBox="0 0 3839 1424.2"
   style="enable-background:new 0 0 3839 1424.2;"
   xml:space="preserve"
   sodipodi:docname="logo.svg"
   inkscape:version="1.1.2 (0a00cf5339, 2022-02-04)"
   xmlns:inkscape="http://www.inkscape.org/namespaces/inkscape"
   xmlns:sodipodi="http://sodipodi.sourceforge.net/DTD/sodipodi-0.dtd"
   xmlns="http://www.w3.org/2000/svg"
   xmlns:svg="http://www.w3.org/2000/svg"><defs
   id="defs55">
	
	

		
		
	
		
		
		
		
		
		
		
		
			
	</defs><sodipodi:namedview
   id="namedview53"
   pagecolor="#ffffff"
   bordercolor="#666666"
   borderopacity="1.0"
   inkscape:pageshadow="2"
   inkscape:pageopacity="0.0"
   inkscape:pagecheckerboard="0"
   showgrid="false"
   inkscape:zoom="0.44334462"
   inkscape:cx="1920.6278"
   inkscape:cy="711.63602"
   inkscape:window-width="3840"
   inkscape:window-height="2065"
   inkscape:window-x="0"
   inkscape:window-y="0"
   inkscape:window-maximized="1"
   inkscape:current-layer="Layer_1" />
<style
   type="text/css"
   id="style2">
	.st0{fill:#FFFFFF;}
	.st1{fill:#034693;}
	.st2{fill:url(#SVGID_00000016042719088936992700000006641448084361090709_);}
	.st3{fill:url(#SVGID_00000101789374204619143040000014445831795175031991_);}
	.st4{fill:url(#SVGID_00000129920774963497664940000010893398917311055502_);}
	.st5{fill:url(#SVGID_00000072257516248094525170000000409915194605385647_);}
	.st6{fill:url(#SVGID_00000034067596166124557190000017379601553999004051_);}
	.st7{fill:url(#SVGID_00000056411293791704506560000009951532148621470622_);}
	.st8{fill:url(#SVGID_00000174600683499446026630000000369096495517985695_);}
	.st9{fill:url(#SVGID_00000115516516017843436870000004920251271369417869_);}
	.st10{fill:url(#SVGID_00000118354825193383111320000007112920519586220472_);}
	.st11{fill:url(#SVGID_00000153705971080186763990000008610984275252267143_);}
	.st12{fill:url(#SVGID_00000000199044718173783020000005748785436549816502_);}
	.st13{clip-path:url(#SVGID_00000147943211303792465200000005928833673599789983_);}
	.st14{fill:url(#SVGID_00000080900850467920427770000014750089424650953361_);}
	.st15{fill:url(#SVGID_00000124152136002095371630000011932007613013411754_);}
	.st16{fill:url(#SVGID_00000014594276673601480560000004092007426849724075_);}
	.st17{fill:url(#SVGID_00000044885358475606323680000011386445110985604993_);}
	.st18{fill:url(#SVGID_00000124144442152023603630000011067497266923883172_);}
	.st19{fill:url(#SVGID_00000004518786283162528120000000922452504712208038_);}
	.st20{fill:url(#SVGID_00000010286992621704662010000010719782676488758703_);}
	.st21{fill:none;}
	.st22{clip-path:url(#SVGID_00000064339360676471740080000006578870131176530565_);}
	.st23{fill:url(#SVGID_00000165193474487684561900000009600669500310659974_);}
	.st24{fill:url(#SVGID_00000139259804882312292310000002983741857655455370_);}
	.st25{fill:url(#SVGID_00000047027623522394609430000011794097718416377737_);}
	.st26{fill:url(#SVGID_00000135692756589110251290000009626859036983543202_);}
	.st27{fill:url(#SVGID_00000097458765397832595940000003833127517447296176_);}
	.st28{fill:url(#SVGID_00000029038399784327893120000015463262356752227765_);}
	.st29{fill:url(#SVGID_00000007399685791870654880000004307221264678211500_);}
	.st30{fill:url(#SVGID_00000037660985471751918120000009312579606483299988_);}
	.st31{fill:url(#SVGID_00000130641460967631664910000011552378657139401143_);}
	.st32{fill:url(#SVGID_00000178908639444021135390000013449564446256308157_);}
	.st33{fill:url(#SVGID_00000097466454759181763850000010919269758743883702_);}
	.st34{fill:url(#SVGID_00000058555068675793658930000000027548939307004317_);}
	.st35{clip-path:url(#SVGID_00000091728892572571060550000010506406862827071644_);}
	.st36{fill:url(#SVGID_00000114063394605395275530000007363341698162887817_);}
	.st37{fill:url(#SVGID_00000108287284868546015710000008313708970628329906_);}
	.st38{fill:url(#SVGID_00000175320567877572688630000008701894174264020887_);}
	.st39{fill:url(#SVGID_00000165234245842204065790000009606410803163536001_);}
	.st40{fill:url(#SVGID_00000101811397102674033870000006106715985206444441_);}
	.st41{fill:url(#SVGID_00000179622096723256495700000018114291736002843799_);}
	.st42{fill:url(#SVGID_00000165206383429926057520000012936413951797293197_);}
	.st43{clip-path:url(#SVGID_00000081609144332387325520000016701782216315235759_);}
	.st44{fill:url(#SVGID_00000157284671309340777690000006431417590364208046_);}
	.st45{fill:url(#SVGID_00000034058308298263498000000010175236772944620185_);}
	.st46{fill:url(#SVGID_00000005224614691704291140000003095215127698743224_);}
	.st47{fill:url(#SVGID_00000099632429211327677470000007584891880944192411_);}
	.st48{fill:url(#SVGID_00000050629816285067122400000009026199905015186100_);}
	.st49{fill:url(#SVGID_00000134935359442498149060000004573494249579452544_);}
	.st50{fill:url(#SVGID_00000063591369567424582530000001646045136682855042_);}
	.st51{fill:url(#SVGID_00000109709961696960734540000005811503435440771246_);}
	.st52{fill:url(#SVGID_00000093862209813526878820000000208134495237626038_);}
	.st53{fill:url(#SVGID_00000056394168655409071390000010473103026666484353_);}
	.st54{fill:url(#SVGID_00000143584311489247646010000000798498144161424805_);}
	.st55{fill:url(#SVGID_00000022523937228492324440000017935517820745395348_);}
	.st56{clip-path:url(#SVGID_00000134209594792919680850000017731455651531798926_);}
	.st57{fill:url(#SVGID_00000075131152918163253950000004621696545196405911_);}
	.st58{fill:url(#SVGID_00000083053982748277891750000002905281509409541515_);}
	.st59{fill:url(#SVGID_00000145021772268807357180000013486782431127225791_);}
	.st60{fill:url(#SVGID_00000005256665648636471210000013063137609342553748_);}
	.st61{fill:url(#SVGID_00000160161471243143405640000012279645020347667390_);}
	.st62{fill:url(#SVGID_00000001654534466902140960000004475059550184338094_);}
	.st63{fill:url(#SVGID_00000170993536167755329480000006517627872613420167_);}
	.st64{clip-path:url(#SVGID_00000018919002060834952060000006462039073744258975_);}
	.st65{fill:url(#SVGID_00000166670911175084235570000000290910579081760904_);}
	.st66{fill:url(#SVGID_00000103228347216069750800000014595951962164517514_);}
	.st67{fill:url(#SVGID_00000067932884987889092880000003104224595268418230_);}
	.st68{fill:url(#SVGID_00000014594867035501272250000008369022857470844553_);}
	.st69{fill:url(#SVGID_00000000903910253785520260000003336139369710280074_);}
	.st70{fill:url(#SVGID_00000130631963573864594960000015629305286025446553_);}
	.st71{fill:url(#SVGID_00000081638086853399969280000016678216926668053638_);}
	.st72{fill:url(#SVGID_00000078731580053806387430000009409518368561248432_);}
	.st73{fill:url(#SVGID_00000036933590927838639110000002808129517339447724_);}
	.st74{fill:url(#SVGID_00000059299942443089029850000001731835275408587429_);}
	.st75{fill:url(#SVGID_00000059279035576438989600000002411141320303064202_);}
	.st76{fill:url(#SVGID_00000172413304320089457170000017163611414518444708_);}
	.st77{fill:url(#SVGID_00000107582491194897920050000001485590678239498923_);}
	.st78{fill:url(#SVGID_00000139987793629425027880000007039995810958801297_);}
	.st79{fill:url(#SVGID_00000115475471886022800570000009724081317909949593_);}
	.st80{fill:url(#SVGID_00000129168825320132684400000000185514110069713811_);}
	.st81{fill:url(#SVGID_00000027604683908610089360000004028530803551355550_);}
	.st82{fill:url(#SVGID_00000103987789179179522100000004792145906653422725_);}
	.st83{fill:url(#SVGID_00000128445122544182226410000006997371938522041513_);}
	.st84{fill:url(#SVGID_00000030464037261173724510000009254775830482555537_);}
	.st85{fill:url(#SVGID_00000159449992767478297610000009306374752133090707_);}
	.st86{fill:url(#SVGID_00000014607255667896138120000000479306919971500176_);}
	.st87{fill:url(#SVGID_00000048484442211740689310000004743499125184805510_);}
	.st88{fill:url(#SVGID_00000127728142361409079510000012037760429688573115_);}
	.st89{fill:url(#SVGID_00000132060286072391065940000008359980353953324469_);}
	.st90{fill:url(#SVGID_00000103239024865146617560000017546659774339646645_);}
	.st91{fill:url(#SVGID_00000133508674217071707330000000844505975689429147_);}
	.st92{clip-path:url(#SVGID_00000025431021642249962680000009647031610959367308_);}
	.st93{fill:url(#SVGID_00000084532385132469644640000001027376224804168382_);}
	.st94{fill:url(#SVGID_00000026869604511714207780000003758826772951094400_);}
	.st95{fill:url(#SVGID_00000123419289582462517600000009824563902230830256_);}
	.st96{fill:url(#SVGID_00000156568534980809377070000009306576044465099423_);}
	.st97{fill:url(#SVGID_00000150795094910268095920000008783684199025387396_);}
	.st98{fill:url(#SVGID_00000034069040310687923750000001208281369898079900_);}
	.st99{fill:url(#SVGID_00000149357565368521006060000006038797171140368023_);}
	.st100{clip-path:url(#SVGID_00000030464493039778732140000015288675915223812758_);}
	.st101{fill:url(#SVGID_00000134220656724906904370000005257424227173382289_);}
	.st102{fill:url(#SVGID_00000181810031883676319600000015940361515225551524_);}
	.st103{fill:url(#SVGID_00000183216360060080928730000012256820137001226901_);}
	.st104{fill:url(#SVGID_00000035523200276938991350000010719127584827784355_);}
	.st105{fill:url(#SVGID_00000008835799279473827550000017274044891749956006_);}
	.st106{fill:url(#SVGID_00000149363819986068346000000017169208839897327292_);}
	.st107{fill:url(#SVGID_00000079467157225644421250000006028741002054503593_);}
	.st108{fill:url(#SVGID_00000060747803685616747540000006758669137294707847_);}
	.st109{fill:url(#SVGID_00000045606683631974189710000005914916135776353172_);}
	.st110{fill:url(#SVGID_00000122703444114709992860000002705612230252671397_);}
	.st111{fill:url(#SVGID_00000047755918306145769770000015258878261451717296_);}
	.st112{fill:url(#SVGID_00000013155764979626167320000007095095201929104554_);}
	.st113{fill:url(#SVGID_00000167357951484647189040000011711196757483691417_);}
	.st114{fill:url(#SVGID_00000105391742986149673350000017257757350403634822_);}
	.st115{fill:url(#SVGID_00000045616642656725962090000001754901049474153381_);}
	.st116{clip-path:url(#SVGID_00000029731914211959141020000018261560573309158843_);}
	.st117{fill:url(#SVGID_00000079480440503817729160000015935602341463421076_);}
	.st118{fill:url(#SVGID_00000020372031489486363290000012368915287803053985_);}
	.st119{fill:url(#SVGID_00000114760566871031545260000003503252508021215646_);}
	.st120{fill:url(#SVGID_00000062875570915627787780000017727441175452188842_);}
	.st121{fill:url(#SVGID_00000083804078830431889390000015646279283534593724_);}
	.st122{fill:url(#SVGID_00000022541845058792156980000018172684127378774422_);}
	.st123{fill:url(#SVGID_00000028297141318623201030000010474885471617593252_);}
	.st124{clip-path:url(#SVGID_00000160150471800461467600000014376985201344126596_);}
	.st125{fill:url(#SVGID_00000030449201458978303750000015295948979053544620_);}
	.st126{fill:url(#SVGID_00000085950591631851729700000012438338277165917582_);}
	.st127{fill:url(#SVGID_00000105393169061498337570000004869097193382293938_);}
	.st128{fill:url(#SVGID_00000032618517364343044490000008330849162880875401_);}
	.st129{fill:url(#SVGID_00000096026725606956506290000017361032177845852095_);}
	.st130{fill:url(#SVGID_00000078003339420803031150000010016957618561309887_);}
	.st131{fill:url(#SVGID_00000093870156401389138760000001891124737158020786_);}
	.st132{clip-path:url(#SVGID_00000137119113486809677200000017782348746951657394_);}
	.st133{fill:url(#SVGID_00000156558783761218189020000016114711885168731281_);}
	.st134{fill:url(#SVGID_00000183216539808412666120000011892252054463916970_);}
	.st135{fill:url(#SVGID_00000065073586219304577180000014858732139052110518_);}
	.st136{fill:url(#SVGID_00000119820903667166186840000011604725003673618615_);}
	.st137{fill:url(#SVGID_00000032610945046358675730000001281921629717122465_);}
	.st138{fill:url(#SVGID_00000150813828287906381640000009493857598522592439_);}
	.st139{fill:url(#SVGID_00000029745012150986071580000011751598787986370207_);}
	.st140{clip-path:url(#SVGID_00000016067311775278941470000008268951293574492054_);}
	.st141{fill:url(#SVGID_00000155857750508845040890000015665059303382566042_);}
	.st142{fill:url(#SVGID_00000085948023893225479940000001002757273479614080_);}
	.st143{fill:url(#SVGID_00000152986111531135878500000003374378903507804330_);}
	.st144{fill:url(#SVGID_00000106838172894338067240000004211357087319014575_);}
	.st145{fill:url(#SVGID_00000046316908318140310320000001746149979097058222_);}
	.st146{fill:url(#SVGID_00000004513978878445890320000011578496172470751621_);}
	.st147{fill:url(#SVGID_00000029007230052742188920000017175254199826379967_);}
	.st148{clip-path:url(#SVGID_00000060722949220444237340000005443954989104531350_);}
	.st149{fill:url(#SVGID_00000110464868158123483180000001560606746467493555_);}
	.st150{fill:url(#SVGID_00000061460363784169479260000007541450083067496608_);}
	.st151{fill:url(#SVGID_00000105405258428027112480000015526770132174015116_);}
	.st152{fill:url(#SVGID_00000085240961845624424570000015445893261621735055_);}
	.st153{fill:url(#SVGID_00000132789315415114391660000000998648897456664200_);}
	.st154{fill:url(#SVGID_00000142139714958200009280000010519045174310961311_);}
	.st155{fill:url(#SVGID_00000093878187869551109070000016382986186306868103_);}
	.st156{clip-path:url(#SVGID_00000181788040584417651180000005707680390926749855_);}
	.st157{fill:url(#SVGID_00000000211742288633533940000003648731922900276408_);}
	.st158{fill:url(#SVGID_00000006672703471056877560000002438986050591786420_);}
	.st159{fill:url(#SVGID_00000027580849311203522420000013045269178842532518_);}
	.st160{fill:url(#SVGID_00000155123780168823816010000006153422914248521636_);}
	.st161{fill:url(#SVGID_00000157295831206232246030000008781538198784384952_);}
	.st162{fill:url(#SVGID_00000052822701834958902440000000521178721718610613_);}
	.st163{fill:url(#SVGID_00000008855853527483239010000016235379612248443286_);}
	.st164{fill:url(#SVGID_00000145038079598662340540000017063898582983326869_);}
	.st165{fill:url(#SVGID_00000140006251840381535940000003005588500139219645_);}
	.st166{fill:url(#SVGID_00000033345038097511683530000007853270628012187829_);}
	.st167{fill:url(#SVGID_00000100379283665740791990000014461903468278841480_);}
	.st168{fill:url(#SVGID_00000174561467056829283040000008371211799208115882_);}
	.st169{fill:url(#SVGID_00000181805430505585250750000000978544293456487582_);}
	.st170{fill:url(#SVGID_00000029017260046170237020000011289399877863187107_);}
	.st171{clip-path:url(#SVGID_00000015316508934987827170000017399808924189843119_);}
	.st172{fill:url(#SVGID_00000099621155305138102320000017603418621903318679_);}
	.st173{fill:url(#SVGID_00000057146187983868297780000010148525076800051855_);}
	.st174{fill:url(#SVGID_00000041258097010631656630000006315429547390622092_);}
	.st175{fill:url(#SVGID_00000023990908935006838060000004560010701805650321_);}
	.st176{fill:url(#SVGID_00000149351835903525655050000016253533975570947974_);}
	.st177{fill:url(#SVGID_00000177475457184199112530000010525254728866584494_);}
	.st178{fill:url(#SVGID_00000058577594288891317480000005130276785851056272_);}
	.st179{clip-path:url(#SVGID_00000121274026650117600780000001015701641753696646_);}
	.st180{fill:url(#SVGID_00000119835413356722076680000014610761345948730018_);}
	.st181{fill:url(#SVGID_00000160878405207564546200000015839313003902345627_);}
	.st182{fill:url(#SVGID_00000126325530010415406280000002061646117962295684_);}
	.st183{fill:url(#SVGID_00000145043268240945955830000010406329453585352581_);}
	.st184{fill:url(#SVGID_00000090274226285122893170000016852120326042326173_);}
	.st185{fill:url(#SVGID_00000144332607254653151110000016571309408148704161_);}
	.st186{fill:url(#SVGID_00000016043653942425705470000015199511396903666821_);}
	.st187{fill:url(#SVGID_00000163758240113793247400000013382649726199321993_);}
	.st188{fill:url(#SVGID_00000085245795970423803780000014856382409255042182_);}
	.st189{fill:url(#SVGID_00000044866255581707873070000013122577038800907910_);}
	.st190{fill:url(#SVGID_00000137092873756292303410000002681733267096229309_);}
	.st191{fill:url(#SVGID_00000038396184841988836670000013982124174414990756_);}
	.st192{clip-path:url(#SVGID_00000096747231763791974430000010169294928825861011_);}
	.st193{fill:url(#SVGID_00000109020367106213020130000006045457189073405856_);}
	.st194{fill:url(#SVGID_00000060708990984357795420000007167144728531221890_);}
	.st195{fill:url(#SVGID_00000173849142367829937300000018139935708466901948_);}
	.st196{fill:url(#SVGID_00000018231338273872246770000011140305880138745768_);}
	.st197{fill:url(#SVGID_00000057111851134064955520000014798565919131718575_);}
	.st198{fill:url(#SVGID_00000013162862317018077370000001568076441087182005_);}
	.st199{fill:url(#SVGID_00000122693226030691524160000014322166957059466391_);}
	.st200{clip-path:url(#SVGID_00000086671933088727745990000005980709743189458836_);}
	.st201{fill:url(#SVGID_00000110437137665113036830000004657027003133025953_);}
	.st202{fill:url(#SVGID_00000116953387059592012390000000488718435101914802_);}
	.st203{fill:url(#SVGID_00000090252926414072967410000011165994420488276623_);}
	.st204{fill:url(#SVGID_00000038402337089166038990000006491948677469264008_);}
	.st205{fill:url(#SVGID_00000085935979529989023030000010420397426356008604_);}
	.st206{fill:url(#SVGID_00000075855721746224781760000014396076419340479377_);}
	.st207{fill:url(#SVGID_00000078014641257194918580000001283023589839751302_);}
	.st208{fill:url(#SVGID_00000062151190541428564770000015978928017220686484_);}
	.st209{fill:url(#SVGID_00000008118007859801070150000012055610815066823867_);}
	.st210{fill:url(#SVGID_00000162352513824438939210000005219683690846959775_);}
</style>
<path
   class="st0"
   d="m 3817.5,744.6 c -14.1,-34 -33.3,-63.9 -57.2,-89 -23.9,-25.2 -52.1,-45.4 -83.5,-60.1 -32.4,-15.1 -66.6,-22.7 -101.5,-22.7 h -556.4 v 0 H 2733.7 2682.2 2393 c -34.9,0 -69,7.7 -101.5,22.7 -31.5,14.7 -59.6,34.9 -83.5,60 -16.8,17.7 -31.3,37.8 -43.3,60 -10.5,-29.3 -25.3,-54.4 -44.5,-74.8 -23.4,-24.8 -53.2,-42.8 -88.5,-53.6 -31.5,-9.6 -68.7,-14.4 -110.8,-14.4 h -345.3 v 83.5 c -4.1,-5.4 -8.4,-10.6 -12.9,-15.4 -23.4,-24.8 -53.2,-42.9 -88.5,-53.6 -31.5,-9.6 -68.7,-14.4 -110.8,-14.4 h -97.6 c -41.6,0 -78.5,4.9 -109.8,14.5 -34.8,10.7 -64.5,28.6 -88.1,53.3 -23.3,24.3 -40.6,55.6 -51.3,92.8 -9.7,33.7 -14.6,74.6 -14.6,121.4 v 157 L 888.4,690.7 c -5.1,-15.1 -12.5,-29.7 -22,-43.4 -9.7,-14 -21.6,-26.7 -35.5,-37.7 -14.5,-11.5 -31.6,-20.7 -50.6,-27.2 -18.8,-6.4 -39.6,-9.6 -62,-9.6 -23.2,0 -44.2,3.3 -62.5,9.9 -18.4,6.6 -34.8,15.9 -48.9,27.7 -12.3,10.3 -23.2,22.1 -32.4,35 -9.3,-13.1 -20.5,-25 -33.3,-35.5 -14.2,-11.5 -30.5,-20.7 -48.7,-27.3 -18.3,-6.6 -39.3,-9.9 -62.5,-9.9 -23,0 -44.1,3.3 -62.6,9.7 -18.7,6.5 -35.5,15.6 -50,27.1 -14.1,11.2 -26.1,24.2 -35.6,38.5 -8.7,13.1 -15.9,26.9 -21.3,41.2 L 0,1424.2 h 340.8 l 92.4,-280.4 105.2,280.4 H 610 l 105.9,-282.4 95.8,282.4 h 336.7 l -7.3,-20.7 c 4.6,1.9 9.4,3.6 14.2,5.2 31.5,10.3 68.7,15.5 110.6,15.5 h 97.6 c 42.4,0 79.9,-5.2 111.6,-15.5 35,-11.3 64.6,-29.8 87.9,-54.7 4.5,-4.8 8.7,-10 12.7,-15.3 v 85.5 H 1921 c 42.4,0 79.9,-5.2 111.6,-15.5 35,-11.3 64.6,-29.8 87.9,-54.7 18.7,-20.1 33.4,-44.8 43.7,-73.5 12.1,22.6 26.8,43 43.8,60.9 24,25.2 52.1,45.4 83.5,60.1 32.4,15.1 66.6,22.8 101.5,22.8 h 340.7 v -116.5 c 8.3,12 17.3,23.3 27.2,33.6 24,25.2 52.1,45.4 83.5,60.1 32.4,15.1 66.6,22.8 101.5,22.8 h 202.8 v 0 h 426.7 c 34.9,0 69.1,-7.7 101.5,-22.7 31.5,-14.6 59.6,-34.8 83.5,-60.1 23.9,-25.1 43.1,-55.1 57.2,-89 14.3,-34.4 21.5,-71.4 21.5,-110.2 V 854.8 C 3839,816 3831.8,779 3817.5,744.6 Z m -524.9,346 h -6 v 0 h -253.2 v -0.8 h -14.5 V 906.4 h 273.7 z"
   id="path4"
   style="fill:#ffffff;fill-opacity:1" /><path
   class="st1"
   d="M 1627.3,854.7 V 753.3 h 293.6 c 17.8,0 32.4,2.4 43.8,7.2 11.4,4.8 20.5,11.6 27.1,20.2 6.6,8.7 11.2,18.8 13.7,30.5 2.5,11.7 3.8,24.2 3.8,37.4 v 299.7 c 0,17.8 -1.3,32.7 -3.8,44.6 -2.5,12 -7,21.7 -13.3,29.4 -6.4,7.6 -15.3,13.1 -26.7,16.4 -11.4,3.3 -26.1,5 -43.8,5 H 1750.9 V 879.2 h 106.8 v 243.3 c 0,13.2 6.4,19.8 19.1,19.8 h 16.8 c 6.1,0 11.1,-1.8 14.9,-5.3 3.8,-3.6 5.7,-8.4 5.7,-14.5 V 874.6 c 0,-6.1 -1.9,-10.9 -5.7,-14.5 -3.8,-3.5 -8.8,-5.3 -14.9,-5.3 h -266.3 z m 353.1,408.4 c 13.2,-5.3 24,-12.8 32.4,-22.5 8.4,-9.7 14.5,-21.1 18.3,-34.3 3.8,-13.2 5.7,-27.5 5.7,-42.7 V 833.4 c 0,-15.3 -1.9,-29.5 -5.7,-42.7 -3.8,-13.2 -9.9,-24.7 -18.3,-34.3 -8.4,-9.7 -19.3,-17.2 -32.8,-22.5 -13.5,-5.3 -29.9,-8 -49.2,-8 H 1627.3 V 624.4 h 293.6 c 37.1,0 69,4.1 95.7,12.2 26.7,8.1 48.7,21.4 66,39.7 17.3,18.3 30,42.1 38.1,71.3 8.1,29.2 12.2,65 12.2,107.1 v 287.5 c 0,40.7 -4.1,75.6 -12.2,104.9 -8.1,29.2 -20.9,53.1 -38.1,71.7 -17.3,18.6 -39.3,32.2 -66,40.8 -26.7,8.7 -58.6,13 -95.7,13 H 1627.3 V 879.2 h 96.1 v 392 h 208.2 c 19.3,-0.1 35.6,-2.7 48.8,-8.1 z"
   id="path6"
   style="fill:#034693;fill-opacity:1" /><path
   d="m 3787.3,1142.3 c 0,32 -5.8,62.2 -17.5,90.4 -11.7,28.2 -27.3,52.6 -46.9,73.2 -19.6,20.6 -42.2,36.9 -67.9,48.8 -25.7,12 -52.2,17.9 -79.7,17.9 h -311 v -101.4 h 298.8 c 19.3,0 36.6,-3.8 51.9,-11.4 15.3,-7.6 28.1,-17.5 38.5,-29.7 10.4,-12.2 18.4,-26 24,-41.6 5.6,-15.5 8.4,-30.9 8.4,-46.1 V 854.8 c 0,-15.3 -2.8,-30.6 -8.4,-46.1 -5.6,-15.5 -13.6,-29.4 -24,-41.6 -10.4,-12.2 -23.3,-22.1 -38.5,-29.7 -15.3,-7.6 -32.5,-11.4 -51.9,-11.4 H 3019 V 624.4 h 556.3 c 27.5,0 54,6 79.7,17.9 25.7,12 48.3,28.2 67.9,48.8 19.6,20.6 35.2,45 46.9,73.2 11.7,28.2 17.5,58.3 17.5,90.4 z m -443,-156.4 V 885.3 h 221.2 v -10.7 c 0,-6.1 -1.6,-10.9 -5,-14.5 -3.3,-3.5 -6.5,-5.3 -9.5,-5.3 H 3019.1 V 753.3 h 534.1 c 17.8,0 33.3,3.6 46.5,10.7 13.2,7.1 24.2,16.3 32.8,27.5 8.7,11.2 15.1,23.8 19.4,37.7 4.3,14 6.5,27.6 6.5,40.8 v 115.9 z m 314.1,141.1 c 0,13.2 -2.2,26.8 -6.5,40.8 -4.3,14 -10.8,26.6 -19.4,37.7 -8.6,11.2 -19.6,20.3 -32.8,27.5 -13.2,7.1 -28.7,10.7 -46.5,10.7 h -291.6 v -101.4 h 289.3 c 3.1,0 6.2,-1.8 9.5,-5.3 3.3,-3.6 5,-8.4 5,-14.5 v -9.9 h -221.2 v -101.4 h 314.2 z"
   id="path8" /><path
   class="st1"
   d="M 574.2,1037.8 465.1,745.7 c -2,-5.1 -6.4,-9.7 -13,-13.7 -6.6,-4.1 -14,-6.1 -22.1,-6.1 -7.1,0 -14.5,2 -22.1,6.1 -7.6,4.1 -12.2,8.7 -13.7,13.7 L 174.6,1372.6 H 73.1 l 235.6,-665 c 4.1,-10.7 9.4,-21 16,-30.9 6.6,-9.9 14.9,-18.8 24.8,-26.7 9.9,-7.9 21.5,-14.1 34.7,-18.7 13.2,-4.6 28.5,-6.9 45.8,-6.9 17.3,0 32.3,2.3 45,6.9 12.7,4.6 23.9,10.8 33.6,18.7 9.7,7.9 17.9,16.8 24.8,26.7 6.9,9.9 12.8,20.2 17.9,30.9 l 22.9,45.8 22.9,-45.8 c 5.6,-10.7 11.8,-21 18.7,-30.9 6.9,-9.9 15,-18.8 24.4,-26.7 9.4,-7.9 20.5,-14.1 33.2,-18.7 12.7,-4.6 27.7,-6.9 45,-6.9 16.8,0 31.9,2.3 45.4,6.9 13.5,4.6 25.2,10.8 35.1,18.7 9.9,7.9 18.3,16.8 25.2,26.7 6.9,9.9 12.1,20.2 15.6,30.9 l 235.6,665 H 973.8 L 754.1,745.7 c -1.5,-5.1 -6.1,-9.7 -13.7,-13.7 -7.6,-4.1 -15,-6.1 -22.1,-6.1 -8.1,0 -15.5,2 -22.1,6.1 -6.6,4.1 -10.9,8.7 -13,13.7 z m 0,334.8 L 430,988.2 303.4,1372.6 H 202 L 411,764.8 c 1,-3.1 3.6,-5.7 7.6,-8 4.1,-2.3 7.9,-3.4 11.4,-3.4 3.6,0 7.2,1.1 11.1,3.4 3.8,2.3 6.2,5 7.2,8 l 125.8,347 125.8,-347 c 1,-3.1 3.4,-5.7 7.2,-8 3.8,-2.3 7.5,-3.4 11.1,-3.4 3.5,0 7.4,1.1 11.4,3.4 4.1,2.3 6.6,5 7.6,8 l 209,607.8 H 848.6 L 718.3,988.2 Z"
   id="path10"
   style="fill:#034693;fill-opacity:1" /><path
   class="st1"
   d="m 1171.3,1359.6 c -26.4,-8.6 -48.4,-22.2 -66,-40.8 -17.5,-18.6 -30.5,-42.4 -38.9,-71.7 -8.4,-29.2 -12.6,-64.2 -12.6,-104.9 V 854.7 c 0,-42.2 4.2,-77.9 12.6,-107.1 8.4,-29.2 21.4,-53 38.9,-71.3 17.5,-18.3 39.5,-31.5 66,-39.7 26.4,-8.1 58,-12.2 94.6,-12.2 h 97.6 c 37.1,0 69,4.1 95.7,12.2 26.7,8.1 48.7,21.4 66,39.7 17.3,18.3 30,42.1 38.1,71.3 8.1,29.2 12.2,65 12.2,107.1 v 287.5 c 0,40.7 -4.1,75.6 -12.2,104.9 -8.1,29.2 -20.9,53.1 -38.1,71.7 -17.3,18.6 -39.3,32.2 -66,40.8 -26.7,8.7 -58.6,13 -95.7,13 h -97.6 c -36.7,0 -68.2,-4.4 -94.6,-13 z m 202.8,-88.5 c 19.3,0 35.6,-2.7 48.8,-8 13.2,-5.3 24,-12.8 32.4,-22.5 8.4,-9.7 14.5,-21.1 18.3,-34.3 3.8,-13.2 5.7,-27.5 5.7,-42.7 V 833.4 c 0,-15.3 -1.9,-29.5 -5.7,-42.7 -3.8,-13.2 -9.9,-24.7 -18.3,-34.3 -8.4,-9.7 -19.3,-17.2 -32.8,-22.5 -13.5,-5.3 -29.9,-8 -49.2,-8 h -117.4 c -19.3,0 -35.7,2.7 -49.2,8 -13.5,5.3 -24.4,12.8 -32.8,22.5 -8.4,9.7 -14.5,21.1 -18.3,34.3 -3.8,13.2 -5.7,27.5 -5.7,42.7 v 330.2 c 0,15.3 1.9,29.5 5.7,42.7 3.8,13.2 9.9,24.7 18.3,34.3 8.4,9.7 19.2,17.2 32.4,22.5 13.2,5.3 29.5,8 48.8,8 h 59.5 z m -109,-27.4 c -17.8,0 -32.4,-1.6 -43.8,-5 -11.4,-3.3 -20.3,-8.8 -26.7,-16.4 -6.4,-7.6 -10.8,-17.4 -13.3,-29.4 -2.5,-11.9 -3.8,-26.8 -3.8,-44.6 V 848.6 c 0,-13.2 1.3,-25.7 3.8,-37.4 2.5,-11.7 7.1,-21.9 13.7,-30.5 6.6,-8.6 15.6,-15.4 27.1,-20.2 11.4,-4.8 26,-7.2 43.8,-7.2 h 48.8 48.8 c 17.8,0 32.4,2.4 43.8,7.2 11.4,4.8 20.5,11.6 27.1,20.2 6.6,8.7 11.2,18.8 13.7,30.5 2.5,11.7 3.8,24.2 3.8,37.4 v 299.7 c 0,17.8 -1.3,32.7 -3.8,44.6 -2.6,12 -7,21.7 -13.3,29.4 -6.4,7.6 -15.3,13.1 -26.7,16.4 -11.4,3.3 -26.1,5 -43.8,5 z m 74,-101.4 c 6.1,0 10,-1.8 11.8,-5.3 1.8,-3.6 2.7,-8.4 2.7,-14.5 V 874.6 c 0,-6.1 -0.9,-10.9 -2.7,-14.5 -1.8,-3.5 -5.7,-5.3 -11.8,-5.3 h -48.8 c -6.1,0 -10,1.8 -11.8,5.3 -1.8,3.6 -2.7,8.4 -2.7,14.5 v 247.8 c 0,6.1 0.9,10.9 2.7,14.5 1.8,3.6 5.7,5.3 11.8,5.3 h 48.8 z"
   id="path12"
   style="fill:#034693;fill-opacity:1" /><path
   class="st1"
   d="m 2181,854.7 c 0,-32 5.8,-62.2 17.5,-90.4 11.7,-28.2 27.3,-52.6 46.9,-73.2 19.6,-20.6 42.2,-36.9 67.9,-48.8 25.7,-11.9 52.2,-17.9 79.7,-17.9 h 289 v 101.4 h -276.8 c -19.3,0 -36.6,3.8 -51.9,11.4 -15.3,7.6 -28.1,17.5 -38.5,29.7 -10.4,12.2 -18.4,26.1 -24,41.6 -5.6,15.5 -8.4,30.9 -8.4,46.1 v 287.5 c 0,15.3 2.8,30.6 8.4,46.1 5.6,15.5 13.6,29.4 24,41.6 10.4,12.2 23.3,22.1 38.5,29.7 15.3,7.6 32.5,11.4 51.9,11.4 H 2682 v 101.4 h -289 c -27.5,0 -54,-6 -79.7,-17.9 -25.7,-11.9 -48.3,-28.2 -67.9,-48.8 -19.6,-20.6 -35.2,-45 -46.9,-73.2 -11.7,-28.2 -17.5,-58.3 -17.5,-90.4 z m 128.8,131.2 V 870 c 0,-13.2 2.2,-26.8 6.5,-40.8 4.3,-14 10.8,-26.6 19.4,-37.7 8.6,-11.2 19.6,-20.3 32.8,-27.5 13.2,-7.1 28.7,-10.7 46.5,-10.7 h 267 v 101.4 h -264.6 c -3.1,0 -6.2,1.8 -9.5,5.3 -3.3,3.6 -5,8.4 -5,14.5 v 10.7 H 2624 v 100.7 z m 0,25.2 H 2624 v 101.4 h -221.2 v 9.9 c 0,6.1 1.6,10.9 5,14.5 3.3,3.6 6.5,5.3 9.5,5.3 H 2682 v 101.4 h -266.9 c -17.8,0 -33.3,-3.6 -46.5,-10.7 -13.2,-7.1 -24.2,-16.3 -32.8,-27.5 -8.7,-11.2 -15.1,-23.8 -19.4,-37.7 -4.3,-14 -6.5,-27.6 -6.5,-40.8 v -115.8 z"
   id="path14"
   style="fill:#034693;fill-opacity:1" /><path
   class="st1"
   d="m 3255.3,1372.6 h -309.4 c -27.5,0 -54,-6 -79.7,-17.9 -25.7,-11.9 -48.3,-28.2 -67.9,-48.8 -19.6,-20.6 -35.2,-45 -46.9,-73.2 -11.7,-28.2 -17.5,-58.3 -17.5,-90.4 V 624.4 h 101.4 v 517.8 c 0,15.3 2.8,30.6 8.4,46.1 5.6,15.5 13.6,29.4 24,41.6 10.4,12.2 23.3,22.1 38.5,29.7 15.3,7.6 32.5,11.4 51.9,11.4 h 297.2 z m -273.6,-230.3 h 269 v 101.4 H 2968 c -17.8,0 -33.3,-3.6 -46.5,-10.7 -13.2,-7.1 -24.2,-16.3 -32.8,-27.5 -8.7,-11.2 -15.1,-23.8 -19.4,-37.7 -4.3,-14 -6.5,-27.6 -6.5,-40.8 V 624.4 h 104.5 v 498 c 0,6.1 1.6,10.8 5,14.1 3.3,3.3 6.5,5 9.5,5 v 0.8 z"
   id="path16"
   style="fill:#034693;fill-opacity:1" /><rect
   x="1117.3529"
   y="-3292.5808"
   transform="rotate(90)"
   class="st0"
   width="290.60001"
   height="51.700001"
   id="rect18"
   style="fill:#ffffff;fill-opacity:1" /><path
   class="st0"
   d="M 2486.1,81.5 C 2471.1,34 2426.3,0 2374.6,0 2323,0 2278.1,34 2263.2,81.5 l -39.4,116.9 V 6.8 h -206.6 c -36.7,0 -70.7,14.9 -96.5,39.4 V 6.8 h -212 c -39.4,0 -74.7,16.3 -100.6,43.5 V 6.8 H 1407 c -85.6,0 -156.3,70.7 -156.3,156.3 0,40.8 16.3,78.8 42.1,106 h -42.1 v 182.1 h 201.1 c 57.1,0 106,-29.9 134.5,-76.1 23.1,44.8 69.3,76.1 123.7,76.1 h 213.4 v -39.4 c 24.5,24.5 58.4,39.4 96.5,39.4 h 589.8 z"
   id="path22"
   style="fill:#ffffff;fill-opacity:1" /><g
   id="g46"
   style="fill:#034693;fill-opacity:1">
			<g
   id="g28"
   style="fill:#034693;fill-opacity:1">
				<path
   class="st1"
   d="M 1451.9,301.7 H 1282 v 53 h 169.9 c 32.6,0 59.8,-27.2 59.8,-59.8 0,-32.6 -27.2,-59.8 -59.8,-59.8 h -43.5 c -39.4,0 -72,-32.6 -72,-72 0,-39.4 32.6,-72 72,-72 h 168.5 v -53 H 1407 c -69.3,0 -125,55.7 -125,125 0,69.3 55.7,125 125,125 h 43.5 c 4.1,0 6.8,2.7 6.8,6.8 0,4.1 -2.7,6.8 -5.4,6.8 z"
   id="path24"
   style="fill:#034693;fill-opacity:1" />
				<path
   class="st1"
   d="m 1407,157.6 h 169.9 V 103.2 H 1407 c -32.6,0 -59.8,27.2 -59.8,59.8 0,32.6 27.2,59.8 59.8,59.8 h 43.5 c 39.4,0 72,32.6 72,72 0,39.4 -32.6,72 -72,72 H 1282 v 53 h 169.9 c 69.3,0 125,-55.7 125,-125 0,-69.3 -55.7,-125 -125,-125 h -43.5 c -4.1,0 -6.8,-2.7 -6.8,-6.8 0,-2.6 2.7,-5.4 5.4,-5.4 z"
   id="path26"
   style="fill:#034693;fill-opacity:1" />
			</g>
			<g
   id="g36"
   style="fill:#034693;fill-opacity:1">
				<path
   class="st1"
   d="m 2017.2,103.3 c -23.1,0 -40.8,17.7 -40.8,40.8 V 314 c 0,23.1 17.7,40.8 40.8,40.8 h 110.1 V 235.1 H 2043 v 53 h 31.3 v 12.2 H 2043 c -6.8,0 -12.2,-5.4 -12.2,-12.2 V 168.5 c 0,-6.8 5.4,-12.2 12.2,-12.2 h 150.9 v -53 z"
   id="path30"
   style="fill:#034693;fill-opacity:1" />
				<path
   class="st1"
   d="m 2351.5,354.7 h 123.7 l -84.3,-250.1 c -2.7,-6.8 -8.2,-12.2 -16.3,-12.2 -6.8,0 -13.6,5.4 -16.3,10.9 L 2249.6,420 h 62.5 l 38.1,-112.8 v 47.6 h 1.3 z m 21.8,-114.2 17.7,54.4 h -36.7 z"
   id="path32"
   style="fill:#034693;fill-opacity:1" />
				<path
   class="st1"
   d="m 2456.2,93.8 c -10.9,-35.3 -43.5,-62.5 -82.9,-62.5 -39.4,0 -72,25.8 -81.5,61.2 l -99.2,290.8 V 169.9 H 2043 v 53 h 97.8 V 367 h -122.3 c -29.9,0 -53,-24.5 -53,-53 V 144.1 c 0,-29.9 24.5,-53 53,-53 h 175.3 v -53 h -176.7 c -58.4,0 -106,47.6 -106,106 V 314 c 0,58.4 47.6,106 106,106 H 2236 l 110.1,-319.4 c 4.1,-12.2 14.9,-20.4 28.5,-20.4 13.6,0 24.5,8.2 28.5,20.4 l 89.7,266.4 h -141.3 v 53 h 214.7 v 0 z"
   id="path34"
   style="fill:#034693;fill-opacity:1" />
			</g>
			<g
   id="g44"
   style="fill:#034693;fill-opacity:1">
				<path
   class="st1"
   d="m 1708.7,366.9 c -29.9,0 -53,-24.5 -53,-53 V 144.1 c 0,-29.9 24.5,-53 53,-53 h 182.1 v -53 h -182.1 c -58.4,0 -106,47.6 -106,106 V 314 c 0,58.4 47.6,106 106,106 h 182.1 v -53 h -182.1 z"
   id="path38"
   style="fill:#034693;fill-opacity:1" />
				<path
   class="st1"
   d="m 1720.9,289.5 h 131.8 v -53 h -184.8 v 78.8 c 0,23.1 17.7,40.8 40.8,40.8 h 182.1 v -53 h -157.6 c -6.8,-1.4 -12.3,-6.8 -12.3,-13.6 z"
   id="path40"
   style="fill:#034693;fill-opacity:1" />
				<path
   class="st1"
   d="M 1852.8,169.9 H 1721 c 0,-6.8 5.4,-12.2 12.2,-12.2 h 156.3 v -54.4 h -180.8 c -23.1,0 -40.8,17.7 -40.8,40.8 v 78.8 h 184.8 c 0.1,0 0.1,-53 0.1,-53 z"
   id="path42"
   style="fill:#034693;fill-opacity:1" />
			</g>
		</g>
</svg>
