<?xml version="1.0" encoding="UTF-8" standalone="no"?>
<!-- Generator: Adobe Illustrator 25.0.0, SVG Export Plug-In . SVG Version: 6.00 Build 0)  -->

<svg
   version="1.1"
   id="Layer_1"
   x="0px"
   y="0px"
   viewBox="0 0 3839 2037.4"
   style="enable-background:new 0 0 3839 2037.4;"
   xml:space="preserve"
   sodipodi:docname="logo.svg"
   inkscape:version="1.1.2 (0a00cf5339, 2022-02-04)"
   xmlns:inkscape="http://www.inkscape.org/namespaces/inkscape"
   xmlns:sodipodi="http://sodipodi.sourceforge.net/DTD/sodipodi-0.dtd"
   xmlns="http://www.w3.org/2000/svg"
   xmlns:svg="http://www.w3.org/2000/svg"><defs
   id="defs123">
	
	

		
		
	
			
			
			
			
			
			
			
			
			
			
			
		
				
				
			
					<defs
   id="defs93">
						<path
   id="SVGID_33_"
   d="m 1593.5,434.6 c -28.8,113.1 -62.9,288.3 -64.4,426.3 -1.2,102.7 -6,287.9 0.5,385.5 35.8,6 59.1,27.1 60.1,49.9 1.9,39 -30.9,47.1 -53.6,56.1 4.9,109.7 14.6,191 57.4,283.1 17.3,30.3 17.6,61.1 -17.3,80.2 -47.7,26 -49.9,-15.2 -112.7,-6.5 -18.2,2.5 -65,-4.3 -97.5,-56.4 -43.2,-69.1 -47.7,-177.7 -75.9,-296.9 -147.4,0 -208.1,69.4 -461.7,43.3 -41.2,54.2 -68.8,96.3 -138.7,195.1 -99.7,140.9 -143.7,209.1 -205.9,244.9 -71.5,41.2 -130,32.5 -174.5,27.4 -18.6,-2.2 -42.2,-38.2 -24.9,-62 119.2,-163.9 221.1,-275.3 318.6,-405.3 0,0 -218.9,30.3 -240.1,-43.9 -19.2,-67.5 71,-77.5 105.7,-118.7 50.6,-60.1 136.6,-23.8 247.1,-26 C 834.9,1063.3 969.3,911.6 1095,772.9 1255.8,595.5 1502.4,297 1550.2,300.4 c 60.6,4.1 57.3,78.9 43.3,134.2 z m -253.6,323 c -138.7,151.7 -273.1,307.8 -396.7,466 114.9,-4.3 184.2,21.7 338.1,15.2 4.3,-166.5 23.9,-320.8 58.6,-481.2" />
					</defs>
					
					
						<linearGradient
   id="path2852_2_"
   gradientUnits="userSpaceOnUse"
   x1="5518.937"
   y1="1962.7261"
   x2="5524.644"
   y2="1962.7261"
   gradientTransform="matrix(0,125.8848,239.3265,0,-468793.38,-693992.44)">
						<stop
   offset="0"
   style="stop-color:#F7ED18"
   id="stop98" />
						<stop
   offset="1"
   style="stop-color:#F4134B"
   id="stop100" />
					</linearGradient>
					
				
				
				
			
					<defs
   id="defs43">
						<path
   id="SVGID_36_"
   d="m 1260.4,1212.3 c 404.8,-63.4 590.1,-82.9 1350.9,-126.8 760.3,-43.9 1097.3,53.6 1146.1,63.4 48.8,9.8 68.3,35.8 30.7,43.6 -134.7,28.1 -806.1,73.4 -1347.5,195.4 -197.9,44.6 -741.3,156.1 -1107.1,248.7 -423.1,107.2 -897.3,297.5 -970.5,326.8 -73.2,29.3 -136.6,63.4 -158.8,27 -49.8,-81.3 -187.4,-241.6 -171.7,-445.9 2.7,-34.8 236.7,-96.9 335.4,-127.3 253.6,-78.1 487.7,-141.5 892.5,-204.9" />
					</defs>
					
					
						<linearGradient
   id="path2694_2_"
   gradientUnits="userSpaceOnUse"
   x1="5504.2856"
   y1="1974.3208"
   x2="5509.9927"
   y2="1974.3208"
   gradientTransform="matrix(661.2057,0,0,-176.4121,-3639432.7,349830.31)">
						<stop
   offset="0"
   style="stop-color:#002F9E"
   id="stop48" />
						<stop
   offset="0.4013"
   style="stop-color:#2B89A2"
   id="stop50" />
						<stop
   offset="1"
   style="stop-color:#FFFFFF"
   id="stop52" />
					</linearGradient>
					
				
				<defs
   id="defs77">
					<path
   id="SVGID_34_"
   d="m 2164.1,865.9 c 7.6,15.2 5.6,34.2 14.6,50.4 8.1,14.6 -31.3,115.2 -43.9,162.6 -14.6,55.3 -36.3,132.8 -36.3,132.8 0,0 81.1,-108 117.6,-153.9 43.9,-55.3 120.1,-132.2 151.2,-126.8 65,11.4 5.7,150.2 -8.3,215.3 -15.9,40.6 -54.7,132.9 -30.9,135.7 29.5,3.5 35.8,-41.6 54.9,-24.6 33.1,29.7 -74.8,113.8 -93.7,101.2 -17.1,-11.4 -40.6,17.9 -63.4,-13 -20.1,-27.2 -14.9,-65.3 21.9,-152 36.8,-86.7 63.1,-170.4 63.1,-170.4 0,0 -51.9,55.7 -112.7,143.1 -69.4,99.7 -110.5,158.2 -156.1,169.1 -7.3,1.7 -14.7,-0.8 -21.4,-5.1 -17.4,-11.1 -25.6,-32.3 -22.4,-52.7 5,-31.4 14.2,-85.8 24.3,-126.5 15.2,-60.7 32.5,-125.7 52,-177.7 -156.8,171.6 -301.2,401.2 -372.4,512.7 -3.1,4.9 -7.9,8.4 -13.6,9.8 -11.9,3.1 -23,5.6 -34.8,7.5 -14.1,2.3 -27.3,-8.2 -27.4,-22.4 -0.2,-50.4 23.8,-31.2 42.8,-65.5 35,-63.1 351.1,-480.1 437.8,-549.5 30.7,-24.5 47.3,-19.6 57.1,-0.1" />
				</defs>
				
				
					<linearGradient
   id="path2824_2_"
   gradientUnits="userSpaceOnUse"
   x1="5519.0312"
   y1="1956.2438"
   x2="5524.7378"
   y2="1956.2438"
   gradientTransform="matrix(0,125.8851,146.2225,0,-284020.94,-693994.5)">
					<stop
   offset="0"
   style="stop-color:#F7ED18"
   id="stop82" />
					<stop
   offset="1"
   style="stop-color:#F4134B"
   id="stop84" />
				</linearGradient>
				
			
				<defs
   id="defs63">
					<path
   id="SVGID_35_"
   d="m 2856.4,801.2 c 14.6,113.8 -30.9,173.9 -102.4,279.6 -39,57.6 -141.4,159.3 -141.4,159.3 0,0 212.9,-91.2 373.9,-143.1 141.4,-45.5 338.1,-82.9 360.9,-84.5 69.9,-4.9 63.4,17.9 6.5,42.3 -34.5,14.8 -269.9,107.3 -442.2,177.2 -189.7,77 -383.6,185.3 -419.4,172.3 -4.7,-1.7 -9.3,-4.1 -13.7,-7 -39.8,-26.1 -44,-83.1 -12.3,-118.5 37.4,-41.8 104.7,-95.1 203.2,-212.6 90.4,-107.8 95.7,-233.7 -19.5,-216.2 -74.8,11.4 -120.3,97.5 -144.7,107.3 -27.5,11 -55.5,-11.6 -52,-35.8 3.3,-22.8 52,-56.9 69.9,-99.2 C 2539.8,783 2598,703.6 2715,702 c 86.1,-1.1 133.9,40.8 141.4,99.2" />
				</defs>
				
				
					<linearGradient
   id="path2796_2_"
   gradientUnits="userSpaceOnUse"
   x1="5519.0342"
   y1="1964.8627"
   x2="5524.7412"
   y2="1964.8627"
   gradientTransform="matrix(0,125.8848,175.5626,0,-342029.31,-693992.44)">
					<stop
   offset="0"
   style="stop-color:#F7ED18"
   id="stop68" />
					<stop
   offset="1"
   style="stop-color:#F4134B"
   id="stop70" />
				</linearGradient>
				
			
			
			
			
			
			
			
			
			
			
			
			
			
			
			
			
		</defs><sodipodi:namedview
   id="namedview121"
   pagecolor="#ffffff"
   bordercolor="#666666"
   borderopacity="1.0"
   inkscape:pageshadow="2"
   inkscape:pageopacity="0.0"
   inkscape:pagecheckerboard="true"
   showgrid="false"
   inkscape:zoom="0.45254834"
   inkscape:cx="1859.4699"
   inkscape:cy="1293.7844"
   inkscape:window-width="3840"
   inkscape:window-height="2065"
   inkscape:window-x="0"
   inkscape:window-y="0"
   inkscape:window-maximized="1"
   inkscape:current-layer="Layer_1"
   inkscape:snap-global="false" />
<style
   type="text/css"
   id="style2">
	.st0{fill:#FFFFFF;}
	.st1{fill:#F4134B;}
	.st2{fill:#AA9644;}
	.st3{fill:#199A40;}
	.st4{fill:#D4BF7C;}
	.st5{clip-path:url(#SVGID_53_);fill:url(#path2694_2_);}
	.st6{clip-path:url(#SVGID_54_);fill:url(#path2796_2_);}
	.st7{clip-path:url(#SVGID_55_);fill:url(#path2824_2_);}
	.st8{clip-path:url(#SVGID_56_);fill:url(#path2852_2_);}
	.st9{clip-path:url(#SVGID_57_);fill:url(#path2694_3_);}
	.st10{clip-path:url(#SVGID_58_);fill:url(#path2796_3_);}
	.st11{clip-path:url(#SVGID_59_);fill:url(#path2824_3_);}
	.st12{clip-path:url(#SVGID_60_);fill:url(#path2852_3_);}
	.st13{clip-path:url(#SVGID_61_);fill:url(#path2694_5_);}
	.st14{clip-path:url(#SVGID_62_);fill:url(#path2796_5_);}
	.st15{clip-path:url(#SVGID_63_);fill:url(#path2824_5_);}
	.st16{clip-path:url(#SVGID_64_);fill:url(#path2852_5_);}
	.st17{clip-path:url(#SVGID_65_);fill:url(#path2694_6_);}
	.st18{clip-path:url(#SVGID_66_);fill:url(#path2796_6_);}
	.st19{clip-path:url(#SVGID_67_);fill:url(#path2824_6_);}
	.st20{clip-path:url(#SVGID_68_);fill:url(#path2852_6_);}
	.st21{clip-path:url(#SVGID_69_);fill:url(#path2694_7_);}
	.st22{clip-path:url(#SVGID_70_);fill:url(#path2796_7_);}
	.st23{clip-path:url(#SVGID_71_);fill:url(#path2824_7_);}
	.st24{clip-path:url(#SVGID_72_);fill:url(#path2852_7_);}
	.st25{clip-path:url(#SVGID_73_);fill:url(#path2694_8_);}
	.st26{clip-path:url(#SVGID_74_);fill:url(#path2796_8_);}
	.st27{clip-path:url(#SVGID_75_);fill:url(#path2824_8_);}
	.st28{clip-path:url(#SVGID_76_);fill:url(#path2852_8_);}
	.st29{clip-path:url(#SVGID_77_);fill:url(#path2694_9_);}
	.st30{clip-path:url(#SVGID_86_);fill:url(#path2796_9_);}
	.st31{clip-path:url(#SVGID_87_);fill:url(#path2824_9_);}
	.st32{clip-path:url(#SVGID_88_);fill:url(#path2852_9_);}
	.st33{clip-path:url(#SVGID_89_);fill:url(#path2694_10_);}
	.st34{clip-path:url(#SVGID_90_);fill:url(#path2796_10_);}
	.st35{clip-path:url(#SVGID_91_);fill:url(#path2824_10_);}
	.st36{clip-path:url(#SVGID_92_);fill:url(#path2852_10_);}
	.st37{clip-path:url(#SVGID_93_);fill:url(#path2694_11_);}
	.st38{clip-path:url(#SVGID_94_);fill:url(#path2796_11_);}
	.st39{clip-path:url(#SVGID_95_);fill:url(#path2824_11_);}
	.st40{clip-path:url(#SVGID_96_);fill:url(#path2852_11_);}
	.st41{clip-path:url(#SVGID_97_);fill:url(#path2694_12_);}
	.st42{clip-path:url(#SVGID_98_);fill:url(#path2796_12_);}
	.st43{clip-path:url(#SVGID_99_);fill:url(#path2824_12_);}
	.st44{clip-path:url(#SVGID_100_);fill:url(#path2852_12_);}
</style>

						
					
					
				
					
				
						
					
<g
   id="g896"><path
     class="st0"
     d="m 3607.9,939.1 h -28.6 v -14.3 h 78.1 v 14.3 h -28.6 v 63.1 h -21 v -63.1 z"
     id="path10"
     style="fill:#010101;fill-opacity:1" /><path
     class="st0"
     d="m 3668.3,924.8 h 29.5 l 22.3,53.2 h 0.3 l 21.1,-53.2 h 29.5 v 77.4 h -19.6 v -54.8 h -0.3 l -23.4,54.8 h -16.2 l -23.4,-54.3 h -0.3 v 54.3 h -19.6 v -77.4 z"
     id="path12"
     style="fill:#010101;fill-opacity:1" /><g
     id="g3449"
     transform="translate(-23.295403,68.940926)"><path
       d="M 1384.0404,620.48138 H 811.87859 c -51.46273,0 -90.58616,-15.1793 -115.70546,-44.16688 v 44.16688 H 507.607 c -68.84548,0 -115.3627,-27.22482 -136.17304,-77.9041 -6.70827,11.45792 -15.0324,22.1324 -24.9724,32.12136 -30.21171,30.45654 -64.97721,45.78274 -103.36616,45.78274 H 41.455493 V 442.05112 H 86.209955 C 56.4879,411.83941 41.455493,375.11528 41.455493,332.90703 c 0,-42.40412 15.3262,-79.27514 45.53791,-109.58478 30.162747,-30.5055 64.977207,-45.78274 103.170297,-45.78274 h 201.78681 v 44.11791 C 417.0698,192.66985 456.19324,177.53951 507.607,177.53951 h 188.56613 v 44.11791 c 25.1193,-28.98757 64.24273,-44.11791 115.70546,-44.11791 h 188.51711 v 207.85853 l 53.0786,-145.86821 0.7835,-1.46897 c 25.1193,-50.14066 64.1938,-60.52135 92.7406,-60.52135 46.2724,0 79.7159,22.5731 94.1607,63.89997 z"
       style="fill:#ffffff;fill-opacity:1;fill-rule:nonzero;stroke:none;stroke-width:48.9655"
       id="path94" /><g
       id="g96"
       transform="matrix(48.965495,0,0,-48.965495,137.32417,332.85331)"><path
         d="M 0,0 C 0,0.33 0.119,0.615 0.356,0.855 0.593,1.096 0.924,1.216 1.351,1.216 H 4.592 V 0.135 H 1.351 C 1.171,0.135 1.081,0.09 1.081,0 c 0,-0.09 0.09,-0.135 0.27,-0.135 h 0.81 c 0.618,0 1.178,-0.251 1.679,-0.752 0.502,-0.501 0.752,-1.106 0.752,-1.814 0,-0.703 -0.25,-1.306 -0.752,-1.81 C 3.339,-5.016 2.779,-5.268 2.161,-5.268 h -3.512 v 1.081 h 3.242 c 0.498,0 0.893,0.147 1.184,0.441 0.291,0.294 0.437,0.642 0.437,1.045 0,0.408 -0.146,0.758 -0.437,1.049 -0.291,0.291 -0.686,0.436 -1.184,0.436 h -0.54 c -0.427,0 -0.758,0.119 -0.995,0.356 C 0.119,-0.623 0,-0.336 0,0 m -1.351,0 c 0,0.702 0.251,1.306 0.752,1.81 0.501,0.504 1.061,0.756 1.68,0.756 H 4.592 V 1.486 H 1.351 C 0.852,1.486 0.458,1.339 0.167,1.045 -0.125,0.75 -0.27,0.402 -0.27,0 c 0,-0.408 0.145,-0.758 0.437,-1.049 0.291,-0.291 0.685,-0.437 1.184,-0.437 h 0.54 c 0.426,0 0.758,-0.118 0.995,-0.355 0.237,-0.238 0.356,-0.524 0.356,-0.86 0,-0.331 -0.119,-0.616 -0.356,-0.856 -0.237,-0.24 -0.569,-0.36 -0.995,-0.36 h -3.242 v 1.081 h 3.242 c 0.18,0 0.27,0.045 0.27,0.135 0,0.09 -0.09,0.135 -0.27,0.135 h -0.81 c -0.619,0 -1.179,0.25 -1.68,0.752 C -1.1,-1.313 -1.351,-0.708 -1.351,0"
         style="fill:#174b9a;fill-opacity:1;fill-rule:nonzero;stroke:none"
         id="path98" /></g><g
       id="g100"
       transform="matrix(48.965495,0,0,-48.965495,454.77719,405.60625)"><path
         d="M 0,0 H 3.512 V -1.081 H 1.081 c 0,-0.18 0.09,-0.27 0.27,-0.27 h 2.971 v -1.08 H 1.081 C 0.36,-2.431 0,-2.071 0,-1.351 Z m 0,0.27 v 1.351 c 0,0.72 0.36,1.08 1.081,1.08 H 4.322 V 1.621 H 1.351 c -0.18,0 -0.27,-0.09 -0.27,-0.27 H 3.512 V 0.27 Z m -1.351,1.351 c 0,1.621 0.811,2.431 2.432,2.431 H 4.322 V 2.971 H 1.081 c -0.901,0 -1.351,-0.45 -1.351,-1.35 v -2.972 c 0,-0.9 0.45,-1.35 1.351,-1.35 H 4.322 V -3.782 H 1.081 c -1.621,0 -2.432,0.811 -2.432,2.431 z"
         style="fill:#174b9a;fill-opacity:1;fill-rule:nonzero;stroke:none"
         id="path102" /></g><g
       id="g104"
       transform="matrix(48.965495,0,0,-48.965495,759.00555,326.23788)"><path
         d="M 0,0 C 0,0.72 0.36,1.081 1.081,1.081 H 4.322 V 0 H 1.351 c -0.18,0 -0.27,-0.09 -0.27,-0.27 v -2.431 c 0,-0.18 0.09,-0.27 0.27,-0.27 h 0.54 v 0.27 h -0.54 v 1.08 h 1.62 V -4.052 H 1.081 C 0.36,-4.052 0,-3.692 0,-2.971 Z m -1.351,0 c 0,1.621 0.811,2.431 2.432,2.431 H 4.322 V 1.351 H 1.081 C 0.18,1.351 -0.27,0.9 -0.27,0 v -2.971 c 0,-0.901 0.45,-1.351 1.351,-1.351 h 2.161 v 2.971 H 1.351 V -0.27 H 4.322 V -5.403 H 1.081 c -1.621,0 -2.432,0.811 -2.432,2.432 z"
         style="fill:#174b9a;fill-opacity:1;fill-rule:nonzero;stroke:none"
         id="path106-3" /></g><g
       id="g108"
       transform="matrix(48.965495,0,0,-48.965495,1147.0082,410.01315)"><path
         d="m 0,0 -0.495,-1.261 h 0.99 z m -0.675,-2.341 v 0.585 l -0.766,-1.936 h -1.08 l 2.341,6.303 c 0.03,0.12 0.09,0.18 0.18,0.18 0.09,0 0.15,-0.06 0.18,-0.18 l 1.891,-4.952 z m 0,-0.27 H 2.521 L 0.36,2.881 C 0.3,3.002 0.18,3.062 0,3.062 c -0.15,0 -0.27,-0.06 -0.36,-0.181 l -2.431,-6.573 h -1.081 l 2.521,6.934 c 0.3,0.6 0.751,0.9 1.351,0.9 0.69,0 1.141,-0.3 1.351,-0.9 l 2.611,-6.934 h -4.637 z"
         style="fill:#174b9a;fill-opacity:1;fill-rule:nonzero;stroke:none"
         id="path110-6" /></g></g><path
     id="path2658_17_"
     class="st2"
     d="m 2228.6,435.7 c 75.1,77.4 255.6,344.6 294.6,520.1 43.2,194.3 13,628.6 13,628.6 l 99.3,30.5 93.6,-30.5 c 0,0 -32.5,-470.3 -119.2,-697.9 -44,-115.5 -121.4,-288.3 -314.2,-450.8 -54.2,-55.8 -62.8,-31.5 -67.1,0 z"
     style="fill:#aa9644;fill-opacity:1" /><path
     id="path2660_17_"
     class="st3"
     d="m 2367.1,91 c 58.5,-4.3 145.2,10.8 166.9,104 62.9,30.3 114.3,55.9 154.4,110 49.8,67.2 32,147.9 21,185 l -51.9,-68 c 4.9,-29.3 -10.9,-60.4 -10.9,-60.4 0,0 -20,24.7 -29.6,36.1 -22.4,-16.6 -67.8,-44.6 -68.4,-43.9 24.4,118.7 43.9,203.2 -8.1,274.7 l -11.4,-37.4 c 1.6,-26 8.1,-69.9 8.1,-69.9 l -35.8,32.5 -17.9,-21.1 c 14.6,-29.3 9.2,-73.2 9.2,-73.2 l -46.6,35.8 -22.8,-23.8 c 5.4,-31.4 -8.7,-67.2 -8.7,-67.2 l -34.7,42.3 c -34.7,-14.1 -87.8,-17.3 -155,-4.3 -35.4,6.8 -108.4,31.4 -137.6,44.4 l -37.9,-36.8 c 0,0 -4.3,33.6 3.2,70.4 l -32.7,52.5 -39.3,-23.1 c 0,0 0.5,54 23.2,79 l -3.7,26.4 -32,-17.7 c 0,0 0,46.6 26,75.9 l -2.2,63.9 c -48.8,-9.8 -101.2,-70.1 -107.3,-160.4 -7.6,-111.6 59.6,-195.1 59.6,-195.1 0,0 -39,4.3 -79.1,39 l -45.5,-32.5 c 0,0 -6.5,27.1 8.7,69.4 l -36.8,70.4 -42.3,-32.5 c 0,0 -10.8,24.9 20.6,83.5 l -16.7,65.7 C 1692,623.8 1667.5,520 1699.4,429.2 c 28.2,-80.2 65,-136.6 140.9,-190.7 -4.3,-43.4 21.7,-78 58.5,-93.2 81.9,-33.7 143.1,-6.5 186.4,28.2 2.2,-39 -13,-123.6 114.9,-138.7 138.7,-16.6 164.9,30.2 167,56.2 z"
     style="fill:#199a40;fill-opacity:1" /><path
     id="path2662_17_"
     class="st4"
     d="M 3086.1,1742.6 H 1781.5 c 246,-107.4 509,-164.2 763.6,-172.6 h 187.3 c 120,10.4 263.1,100.9 353.7,172.6 z"
     style="fill:#d4bf7c;fill-opacity:1" /><path
     id="path2664_17_"
     class="st1"
     d="m 2236.5,441.6 c 26,11.4 53.6,81.3 34.1,133.3 -11.5,30.6 -35.9,62.7 -86.2,52 -53.6,-11.4 -79.3,-62.8 -66.7,-105.7 16.4,-55.2 78.3,-97.3 118.8,-79.6 z"
     style="fill:#f4134b;fill-opacity:1" /><path
     d="m 2253.3,31.3 c 92.5,0 112,37.5 113.8,59.8 5.7,-0.4 11.6,-0.7 17.8,-0.7 57,0 129.6,20.5 149.1,104.7 62.9,30.3 114.3,55.9 154.4,110 49.9,67.2 32,147.9 21,185 l -51.9,-68 c 4.9,-29.3 -10.9,-60.4 -10.9,-60.4 0,0 -20,24.7 -29.6,36.1 -22.2,-16.4 -66.7,-43.9 -68.4,-43.9 0,0 0,0 0,0 24.4,118.7 43.9,203.2 -8.1,274.7 l -11.4,-37.4 c 1.6,-26 8.1,-69.9 8.1,-69.9 l -35.8,32.5 -17.9,-21.1 c 14.6,-29.3 9.2,-73.2 9.2,-73.2 l -46.6,35.8 -22.8,-23.8 c 5.4,-31.4 -8.7,-67.2 -8.7,-67.2 l -34.7,42.3 c -19.7,-8 -45.4,-12.5 -76.3,-12.5 -3.2,0 -6.4,0 -9.7,0.1 0.6,0.6 1.1,1 1.6,1.6 192.8,162.5 270.2,335.3 314.2,450.8 77.7,204.1 111.9,603 118.1,683.4 h 4.4 c 120,10.5 263,101 353.7,172.6 H 1781.5 c 243.4,-106.3 503.5,-162.9 755.6,-172.3 4.7,-75.7 24.7,-440.8 -13.9,-614.4 -33.6,-151.3 -172.3,-370.5 -258,-477.7 11.8,27.6 17.3,65.4 5.5,96.8 -9.9,26.5 -29.6,54.1 -67.3,54.1 -5.8,0 -12.1,-0.7 -18.9,-2.1 -53.6,-11.4 -79.3,-62.8 -66.6,-105.7 7.1,-24.2 22.9,-45.8 41.9,-61.1 -28.3,9.1 -56.6,19.4 -72.3,26.4 l -37.9,-36.8 c 0,0 -4.3,33.6 3.3,70.4 l -32.7,52.5 -39.3,-23.1 c 0,0 0.5,54 23.2,79 l -3.7,26.4 -32,-17.7 c 0,0 0,46.6 26,75.9 l -2.2,63.9 C 1943.4,767.3 1891,707 1884.9,616.7 c -7.6,-111.6 59.6,-195.1 59.6,-195.1 0,0 -39,4.3 -79.1,39 l -45.5,-32.5 c 0,0 -6.5,27.1 8.7,69.4 l -36.8,70.4 -42.3,-32.5 c 0,0 -10.8,24.9 20.6,83.4 l -16.7,65.7 c -61.1,-60.8 -85.6,-164.6 -53.7,-255.4 28.2,-80.2 65,-136.5 140.9,-190.7 -4.3,-43.3 21.7,-78 58.5,-93.2 26.4,-10.9 50.6,-15.4 72.8,-15.4 46.7,0 84.2,20.1 113.6,43.6 2.2,-39 -13,-123.6 114.9,-138.7 19.8,-2.4 37.4,-3.4 52.9,-3.4 m 0,-31.3 v 0 c -17.3,0 -36.4,1.2 -56.8,3.6 -59.6,7.1 -101,29.4 -123.1,66.4 -9.5,16 -14.2,32.7 -16.6,48.4 -27.5,-13.2 -56,-19.9 -85.1,-19.9 -27.6,0 -56.1,6 -84.7,17.8 -46.6,19.2 -75.8,59.8 -78.2,106.6 -33.5,25.6 -60.5,52.8 -82.1,82.9 -22.6,31.5 -40.6,67.4 -56.7,113 -17.4,49.5 -20.5,103.4 -9.1,155.9 11.1,51.1 36.1,98 70.2,132 5.9,5.9 13.9,9.1 22,9.1 2.8,0 5.6,-0.4 8.3,-1.1 10.8,-3 19.2,-11.5 22,-22.4 l 16.7,-65.7 c 1.9,-7.6 1,-15.6 -2.8,-22.5 -0.9,-1.7 -1.8,-3.4 -2.6,-5 1.2,-0.1 2.3,-0.3 3.5,-0.6 9,-2 16.7,-7.9 21,-16 l 36.8,-70.4 c 3.3,-6.4 4.4,-13.7 2.9,-20.7 2,0.4 4.1,0.6 6.2,0.6 2.4,0 4.8,-0.3 7.1,-0.8 -12.7,35.2 -22.1,78.9 -18.8,127.7 3.3,48 18.3,91.7 43.5,126.6 24.3,33.6 55.9,55.7 88.8,62.3 2,0.4 4.1,0.6 6.1,0.6 7,0 13.8,-2.3 19.4,-6.8 7.2,-5.7 11.5,-14.3 11.8,-23.4 l 2.2,-63.9 c 0.3,-8 -2.5,-15.8 -7.9,-21.8 -2.2,-2.5 -4.2,-5.3 -5.9,-8.3 0.9,-0.3 1.7,-0.7 2.5,-1.1 9.2,-4.6 15.6,-13.4 17,-23.6 l 3.7,-26.4 c 1.3,-9.2 -1.6,-18.6 -7.9,-25.5 -1,-1.1 -1.9,-2.4 -2.8,-3.8 8.9,-1.2 17.3,-6.2 22.4,-14.5 l 32.7,-52.5 c 3.6,-5.7 5.2,-12.4 4.6,-19.1 0.8,0.1 1.6,0.2 2.4,0.2 -6.8,28.3 -2,58.9 13.3,84.6 17,28.4 44.7,48 78.2,55.1 8.7,1.8 17.2,2.8 25.4,2.8 25,0 47.7,-8.8 65.5,-25.6 13.1,-12.3 23.6,-28.7 31.1,-48.8 0.6,-1.7 1.3,-3.5 1.8,-5.3 78,113.8 166,269.9 190.9,382 34.1,153.6 21,466.5 14.9,577.6 -119.8,6.1 -240.2,22.6 -358.4,49.3 -130.9,29.5 -258.8,71.3 -380.1,124.3 -13.6,5.9 -21.1,20.5 -18.1,35 3,14.5 15.8,24.9 30.6,24.9 h 1304.6 c 13.3,0 25.2,-8.4 29.5,-21 4.4,-12.6 0.3,-26.5 -10.1,-34.8 -59.7,-47.2 -208.8,-155 -348.4,-176.6 -4.7,-55.9 -14.4,-157.8 -30.3,-271.2 -24.4,-173.4 -53.9,-306.3 -87.6,-394.9 -24.6,-64.4 -56.8,-138.6 -106,-216.4 0.7,0.2 1.5,0.3 2.3,0.5 1.7,0.3 3.5,0.4 5.2,0.4 9.9,0 19.3,-4.7 25.3,-12.9 47.9,-65.9 44,-139.4 27.8,-227.6 1.7,1.2 3.4,2.4 4.9,3.5 5.6,4.1 12.1,6.1 18.6,6.1 3.3,0 6.6,-0.5 9.7,-1.5 0.9,4.9 2.9,9.6 5.9,13.6 l 51.9,68 c 6,7.8 15.2,12.3 24.9,12.3 1.9,0 3.8,-0.2 5.6,-0.5 11.6,-2.1 21,-10.6 24.3,-21.9 24.6,-83.1 15.7,-156.6 -25.8,-212.6 -42.4,-57.2 -96,-85.6 -153.2,-113.4 -12.5,-39.1 -37,-69.7 -71.5,-89.1 C 2454.6,64.5 2417,59.5 2389.8,59 2383.7,46.9 2374.4,36.1 2362.5,27.4 2337.6,9.3 2300.8,0 2253.3,0 Z M 2387,477 c 1.9,-0.4 3.7,-1 5.4,-1.8 0.5,3.7 1.5,7.2 3.2,10.5 -2.8,-2.9 -5.7,-5.8 -8.6,-8.7 z m 116.7,138 c -21.8,-30.9 -46.5,-62.2 -74.6,-93.6 5.2,3.4 11.1,5.1 17.1,5.1 2.3,0 4.6,-0.3 6.9,-0.8 -2.1,9.4 0.2,19.5 6.6,27.1 l 17.9,21.1 c 5.2,6.2 12.6,10.1 20.6,10.9 -0.1,1.5 -0.2,2.9 -0.3,4.4 -0.2,3.7 0.2,7.5 1.3,11.1 z"
     id="path40" /><path
     id="path2694_17_"
     clip-path="url(#SVGID_53_)"
     style="fill:url(#path2694_2_)"
     class="st5"
     d="M 2995.2148 1074.209 C 2881.5313 1074.0082 2753.857 1077.2687 2611.3008 1085.5 C 1850.5008 1129.4 1665.2004 1148.9008 1260.4004 1212.3008 C 855.60039 1275.7008 621.50039 1339.0992 367.90039 1417.1992 C 269.20039 1447.5992 35.2 1509.7 32.5 1544.5 C 16.8 1748.8 154.39922 1909.1004 204.19922 1990.4004 C 226.39922 2026.8004 289.8 1992.7004 363 1963.4004 C 436.2 1934.1004 910.4 1743.7996 1333.5 1636.5996 C 1699.3 1543.9996 2242.6996 1432.5004 2440.5996 1387.9004 C 2981.9996 1265.9004 3653.3996 1220.6 3788.0996 1192.5 C 3825.6996 1184.7 3806.2004 1158.7004 3757.4004 1148.9004 C 3717.7504 1140.9379 3487.8434 1075.0789 2995.2148 1074.209 z " /><path
     d="m 2985.1,1074.2 c 499.5,0 732.4,66.7 772.3,74.7 48.8,9.8 68.3,35.8 30.7,43.6 -134.7,28.1 -806.1,73.4 -1347.5,195.4 -197.9,44.6 -741.3,156.1 -1107.1,248.7 -423.1,107.2 -897.3,297.5 -970.5,326.8 -50.6,20.2 -96.4,42.8 -127.3,42.8 -13.8,0 -24.6,-4.5 -31.5,-15.8 -49.8,-81.3 -187.4,-241.6 -171.7,-445.9 2.7,-34.8 236.6,-97 335.4,-127.3 253.6,-78 487.7,-141.4 892.5,-204.8 404.8,-63.4 590.1,-82.9 1350.9,-126.8 138.4,-8.1 262.6,-11.4 373.8,-11.4 m 0,-31.2 c -118.9,0 -245.2,3.8 -375.6,11.3 -407.4,23.5 -626.9,38.7 -810.1,56.2 -194.8,18.6 -341.4,39.3 -543.8,71 -388.2,60.8 -622.8,121.5 -896.8,205.8 -16.1,4.9 -36.3,10.9 -57.7,17.2 -55.8,16.4 -125.3,36.9 -181.3,57 -31.7,11.4 -55.6,21.3 -73.1,30.5 -21.3,11.2 -43.4,25.9 -45.3,50.1 -3.3,43.2 -0.4,87.5 8.8,131.6 7.8,37.7 20.4,76.6 37.5,115.4 30.9,70.4 71.8,130.6 101.6,174.6 11.2,16.5 20.9,30.7 28.3,42.9 8.6,14 25.6,30.7 58.2,30.7 30.7,0 66.8,-15.1 108.5,-32.5 9.9,-4.1 20.1,-8.4 30.4,-12.5 l 2.1,-0.9 c 164.5,-65.8 587.9,-229.2 964.4,-324.6 264.5,-67 617.3,-142.8 874.8,-198.2 94.9,-20.4 176.8,-38 231.4,-50.3 368.5,-83 794.6,-130 1076.5,-161.1 131.5,-14.5 226.5,-25 270.5,-34.2 41.5,-8.7 44.6,-36.4 44.5,-44.7 -0.1,-28.2 -28.4,-50.7 -75.5,-60.1 -3.4,-0.7 -8.9,-2 -16,-3.6 -36.6,-8.5 -112.7,-26.3 -237.9,-42.1 -154.5,-19.6 -331,-29.5 -524.4,-29.5 z"
     id="path58" /><path
     id="path2796_17_"
     clip-path="url(#SVGID_54_)"
     style="fill:url(#path2796_2_)"
     class="st6"
     d="M 2715 702 C 2598 703.6 2539.7992 783.00078 2523.1992 822.30078 C 2505.2992 864.60078 2456.6008 898.7 2453.3008 921.5 C 2449.8008 945.7 2477.8008 968.30078 2505.3008 957.30078 C 2529.7008 947.50078 2575.2 861.4 2650 850 C 2765.2 832.5 2759.9 958.39922 2669.5 1066.1992 C 2571 1183.6992 2503.7008 1237.0008 2466.3008 1278.8008 C 2434.6008 1314.2008 2438.7996 1371.2008 2478.5996 1397.3008 C 2482.9996 1400.2008 2487.6008 1402.6008 2492.3008 1404.3008 C 2528.1008 1417.3008 2721.9992 1309 2911.6992 1232 C 3083.9992 1162.1 3319.4004 1069.6008 3353.9004 1054.8008 C 3410.8004 1030.4008 3417.3004 1007.6 3347.4004 1012.5 C 3324.6004 1014.1 3127.9 1051.5 2986.5 1097 C 2825.5 1148.9 2612.5996 1240.0996 2612.5996 1240.0996 C 2612.5996 1240.0996 2715 1138.4008 2754 1080.8008 C 2825.5 975.10078 2871.0004 914.99922 2856.4004 801.19922 C 2848.9004 742.79922 2801.1 700.9 2715 702 z " /><path
     id="path2824_17_"
     clip-path="url(#SVGID_55_)"
     style="fill:url(#path2824_2_)"
     class="st7"
     d="M 2143.3867 849.44922 C 2134.1742 848.84922 2122.35 853.75 2107 866 C 2020.3 935.4 1704.1992 1352.4 1669.1992 1415.5 C 1650.1992 1449.8 1626.2004 1430.6 1626.4004 1481 C 1626.5004 1495.2 1639.7008 1505.7004 1653.8008 1503.4004 C 1665.6008 1501.5004 1676.6996 1499.0004 1688.5996 1495.9004 C 1694.2996 1494.5004 1699.0992 1490.9996 1702.1992 1486.0996 C 1773.3992 1374.5996 1917.7996 1145.0004 2074.5996 973.40039 C 2055.0996 1025.4004 2037.7996 1090.3996 2022.5996 1151.0996 C 2012.4996 1191.7996 2003.3008 1246.1996 1998.3008 1277.5996 C 1995.1008 1297.9996 2003.2992 1319.2008 2020.6992 1330.3008 C 2027.3992 1334.6008 2034.7996 1337.1004 2042.0996 1335.4004 C 2087.6996 1324.5004 2128.7992 1266.0008 2198.1992 1166.3008 C 2258.9992 1078.9008 2310.9004 1023.1992 2310.9004 1023.1992 C 2310.9004 1023.1992 2284.6008 1106.8996 2247.8008 1193.5996 C 2211.0008 1280.2996 2205.8004 1318.3996 2225.9004 1345.5996 C 2248.7004 1376.4996 2272.2008 1347.1996 2289.3008 1358.5996 C 2308.2008 1371.1996 2416.1 1287.1004 2383 1257.4004 C 2363.9 1240.4004 2357.5996 1285.5 2328.0996 1282 C 2304.2996 1279.2 2343.1 1186.9008 2359 1146.3008 C 2373 1081.2008 2432.3008 942.4 2367.3008 931 C 2336.2008 925.6 2259.9996 1002.5008 2216.0996 1057.8008 C 2179.5996 1103.7008 2098.5 1211.6992 2098.5 1211.6992 C 2098.5 1211.6992 2120.2008 1134.2004 2134.8008 1078.9004 C 2147.4008 1031.5004 2186.7992 930.90078 2178.6992 916.30078 C 2169.6992 900.10078 2171.6996 881.10039 2164.0996 865.90039 C 2159.1996 856.15039 2152.5992 850.04922 2143.3867 849.44922 z " /><path
     d="m 2141.9,849.4 c 10,0 17.1,6.2 22.2,16.5 7.6,15.2 5.6,34.2 14.6,50.4 8.1,14.6 -31.4,115.2 -43.9,162.6 -14.6,55.3 -36.3,132.8 -36.3,132.8 0,0 81.1,-108 117.6,-153.9 42.4,-53.4 115,-127.1 147.9,-127.1 1.1,0 2.2,0.1 3.3,0.3 47.4,8.3 28.7,84.3 9.7,150.1 -11.8,40.7 -25.1,80.9 -39.5,120.8 -13.9,38.7 -24.9,78.3 -9.5,80.1 1.1,0.1 2.2,0.2 3.2,0.2 22.3,0 30.6,-28.6 43.4,-28.6 2.5,0 5.3,1.1 8.3,3.9 30.8,27.6 -60.6,102.5 -88.6,102.5 -2.1,0 -3.8,-0.4 -5.1,-1.3 -3.1,-2.1 -6.4,-2.8 -9.8,-2.8 -8.5,0 -18.1,4.5 -28.1,4.5 -8.4,0 -17,-3.1 -25.5,-14.7 -20.1,-27.2 -14.9,-65.3 21.9,-152 36.8,-86.7 63.1,-170.4 63.1,-170.4 0,0 -51.9,55.7 -112.7,143.1 -69.4,99.7 -110.5,158.2 -156.1,169.1 -1.6,0.4 -3.2,0.6 -4.8,0.6 -5.7,0 -11.4,-2.3 -16.6,-5.6 -17.4,-11.1 -25.6,-32.3 -22.4,-52.7 5,-31.4 14.2,-85.8 24.3,-126.5 15.2,-60.7 32.5,-125.7 52,-177.7 -156.8,171.6 -301.2,401.3 -372.4,512.7 -3.1,4.9 -8,8.4 -13.6,9.8 -11.9,3.1 -23,5.6 -34.8,7.5 -1.3,0.2 -2.6,0.3 -3.9,0.3 -12.5,0 -23.4,-9.8 -23.5,-22.8 -0.2,-50.4 23.8,-31.2 42.8,-65.5 35,-63.1 351.1,-480.1 437.8,-549.5 14.7,-11.8 26,-16.7 35,-16.7 m 0,-31.3 v 0 c -16.8,0 -34.6,7.6 -54.2,23.4 -53.7,43 -175.6,195.3 -243.4,282.3 -94.8,121.5 -183.6,242.9 -202.2,276.4 -3.6,6.5 -6.4,8.2 -12.3,11.8 -6.8,4.1 -17,10.4 -24.5,23 -6.8,11.6 -10,26.2 -9.9,45.9 0.1,29.7 24.7,53.9 54.8,53.9 3,0 6,-0.2 8.9,-0.7 11.8,-1.9 23.4,-4.4 37.6,-8.1 13.3,-3.4 24.7,-11.7 32.1,-23.3 3.1,-4.8 6.3,-9.8 9.6,-15 57.4,-90 153.3,-240.4 262.9,-379.1 -3.1,11.8 -6,23.4 -8.8,34.8 -10.6,42.5 -20.2,99.2 -24.9,129.2 -5.3,33.5 9,66.4 36.5,83.9 10.9,7 22.2,10.5 33.5,10.5 4.1,0 8.1,-0.5 12,-1.4 53.7,-12.8 95.5,-68.5 159.8,-160.6 -28.7,72 -37.1,120.2 -8.5,159 16.7,22.7 36.8,27.4 50.7,27.4 8.8,0 16.3,-1.8 22.3,-3.2 1.1,-0.3 2.4,-0.6 3.5,-0.8 5.2,2.4 11.1,3.6 17.2,3.6 24.3,0 53.7,-20.6 69,-32.8 15.1,-12.1 42.1,-36.4 52.6,-64 8.8,-23 4.2,-45.5 -12.2,-60.3 -10.9,-9.8 -21.9,-11.8 -29.2,-11.8 -4.3,0 -8.2,0.6 -11.7,1.7 6.5,-19.1 34.4,-100.9 39.6,-118.9 8.2,-27.8 17.4,-59.4 22.3,-88.4 6.7,-39.6 4,-67.5 -8.6,-87.7 -9.7,-15.6 -24.8,-25.6 -43.6,-28.9 -2.8,-0.5 -5.7,-0.7 -8.7,-0.7 0,0 0,0 0,0 -14.9,0 -40.6,5.4 -91.4,51.7 -26.4,24 -56.6,56.6 -81,87.2 -5.7,7.1 -12.4,15.7 -19.6,25.1 3.3,-10.3 7,-21.8 10.9,-33.6 26.6,-80.8 34.3,-108.6 23.1,-128.7 -2.2,-4 -3.4,-10.2 -4.7,-17.4 -1.7,-9.7 -3.7,-20.6 -9.3,-31.8 -14.7,-29.2 -37.8,-33.6 -50.2,-33.6 z"
     id="path90" /><path
     id="path2852_17_"
     clip-path="url(#SVGID_56_)"
     style="fill:url(#path2852_2_)"
     class="st8"
     d="M 1550.1992 300.40039 C 1502.3992 297.00039 1255.8 595.50039 1095 772.90039 C 969.3 911.60039 834.89922 1063.2992 715.69922 1210.6992 C 605.19922 1212.8992 519.19961 1176.5992 468.59961 1236.6992 C 433.89961 1277.8992 343.70039 1287.9004 362.90039 1355.4004 C 384.10039 1429.6004 603 1399.3008 603 1399.3008 C 505.5 1529.3008 403.60039 1640.6996 284.40039 1804.5996 C 267.10039 1828.3996 290.70078 1864.3996 309.30078 1866.5996 C 353.80078 1871.6996 412.30078 1880.3992 483.80078 1839.1992 C 546.00078 1803.3992 589.99922 1735.2008 689.69922 1594.3008 C 759.59922 1495.5008 787.20039 1453.3992 828.40039 1399.1992 C 1082.0004 1425.2992 1142.6996 1355.9004 1290.0996 1355.9004 C 1318.2996 1475.1004 1322.8 1583.7008 1366 1652.8008 C 1398.5 1704.9008 1445.3 1711.6992 1463.5 1709.1992 C 1526.3 1700.4992 1528.4992 1741.6992 1576.1992 1715.6992 C 1611.0992 1696.5992 1610.8 1665.8 1593.5 1635.5 C 1550.7 1543.4 1540.9996 1462.1004 1536.0996 1352.4004 C 1558.7996 1343.4004 1591.5992 1335.3008 1589.6992 1296.3008 C 1588.6992 1273.5008 1565.3996 1252.4004 1529.5996 1246.4004 C 1523.0996 1148.8004 1527.8996 963.60039 1529.0996 860.90039 C 1530.5996 722.90039 1564.7 547.69961 1593.5 434.59961 C 1607.5 379.29961 1610.7992 304.50039 1550.1992 300.40039 z M 1339.9004 757.59961 C 1305.2004 917.99961 1285.6008 1072.3008 1281.3008 1238.8008 C 1127.4008 1245.3008 1058.0992 1219.2996 943.19922 1223.5996 C 1066.7992 1065.3996 1201.2004 909.29961 1339.9004 757.59961 z " /><path
     d="m 1549.3,300.2 c 0.3,0 0.6,0 0.8,0 60.7,4.3 57.4,79.1 43.3,134.4 -28.8,113.1 -62.9,288.3 -64.4,426.3 -1.2,102.7 -6,287.9 0.5,385.4 35.8,6 59.1,27.1 60.1,49.9 1.9,39 -30.9,47.1 -53.7,56.1 4.9,109.7 14.6,191 57.4,283.1 17.3,30.3 17.6,61.1 -17.3,80.2 -11.8,6.4 -20.7,8.7 -28.6,8.7 -20.8,0 -33.2,-16.5 -67.3,-16.5 -5.1,0 -10.7,0.4 -16.9,1.2 -2,0.3 -4.4,0.4 -7.1,0.4 -21.4,0 -61.6,-10.5 -90.5,-56.8 -43.2,-69.1 -47.7,-177.7 -75.9,-296.9 -124.1,0 -186.7,49.2 -354.9,49.2 -31.5,0 -66.8,-1.7 -106.8,-5.8 -41.2,54.2 -68.8,96.3 -138.7,195.1 -99.7,140.9 -143.7,209.1 -205.9,244.9 -44.1,25.4 -83.3,31.8 -117.2,31.8 -21.1,0 -40.3,-2.5 -57.3,-4.5 -18.6,-2.2 -42.2,-38.2 -24.9,-62 119.2,-163.9 221.1,-275.3 318.6,-405.3 0,0 -44.3,6.1 -94.9,6.1 -62,0 -133.5,-9.2 -145.1,-50 -19.2,-67.5 71,-77.5 105.7,-118.7 23.3,-27.6 54,-34.9 91.1,-34.9 41.3,0 90.5,9 146.1,9 3.2,0 6.5,0 9.8,-0.1 119.2,-147.4 253.6,-299.1 379.3,-437.8 160.2,-176.4 405,-472.5 454.7,-472.5 m -606.1,923.4 c 8.9,-0.3 17.6,-0.5 26,-0.5 88,0 152.7,16.7 263.3,16.7 15.3,0 31.5,-0.3 48.8,-1 4.2,-166.5 23.8,-320.8 58.5,-481.2 -138.7,151.7 -273,307.7 -396.6,466 m 606.1,-954.7 c -24.4,0 -56.6,18.9 -149,115.7 -60.6,63.5 -133.6,146.6 -204.2,226.9 -44.5,50.6 -86.5,98.4 -124.3,140.2 -98.4,108.6 -242.8,269.8 -371.1,427.6 -26.6,-0.3 -51.6,-2.6 -75.9,-4.8 -22.9,-2.1 -44.6,-4.1 -65.1,-4.1 -35.5,0 -80.7,5.2 -115,46 -8.3,9.9 -24.6,19.1 -40.3,28 -19.4,11 -39.4,22.3 -54.3,39.1 -19.9,22.4 -25.8,50.2 -17.3,80.3 8.5,29.7 33.9,50.5 75.5,61.9 26.2,7.2 59.8,10.8 99.7,10.8 9.4,0 18.5,-0.2 27.2,-0.5 -28.3,36 -57.1,71.3 -87,108.1 -59.6,73.1 -121.2,148.6 -189.1,242 -13.9,19.2 -15.9,43.9 -5.4,67.9 10.5,24 30.9,41.2 52,43.6 l 4.7,0.5 c 16.5,1.9 35.2,4.1 56.2,4.1 47.3,0 90.7,-11.8 132.8,-36 62,-35.7 104,-95.3 187.7,-214.1 8.9,-12.6 18.2,-25.9 28.1,-39.8 24.2,-34.2 43.1,-61.3 59.8,-85.2 27,-38.6 46,-65.9 67.9,-95.2 32.4,2.9 63.4,4.3 92.3,4.3 94.1,0 157.2,-15 212.9,-28.2 39.8,-9.4 75,-17.8 117.1,-20.2 6.2,29 11.2,57.2 16.1,84.8 13.8,77.7 25.7,144.9 58.1,196.8 15.9,25.4 36.1,44.5 60.3,57 24.5,12.6 46.1,14.5 56.7,14.5 4,0 7.8,-0.2 11.3,-0.7 4.5,-0.6 8.7,-0.9 12.6,-0.9 12.8,0 20.4,3.2 30.1,7.3 9.7,4.1 21.8,9.2 37.2,9.2 13.8,0 28,-4.1 43.5,-12.5 27.6,-15.1 38.2,-35.3 42.3,-49.6 6.2,-22 2.1,-47 -12.1,-72.3 -36.4,-78.7 -47.6,-149.8 -52.9,-247.9 9,-3.9 18.5,-9 27.1,-16.4 17.9,-15.4 26.7,-36.9 25.5,-62.1 -1,-20 -10.9,-39 -28,-53.6 -9.4,-8 -20.7,-14.5 -33.4,-19.1 -3.6,-79.7 -1.6,-201.9 -0.2,-293.4 0.4,-24.4 0.8,-47.5 1,-67.4 1.5,-131.1 33.8,-302.4 63.5,-418.9 4.4,-17.1 9.6,-43.1 9.5,-69.5 -0.1,-29.3 -6.6,-53.2 -19.3,-70.9 -14.2,-19.7 -35.5,-31 -61.6,-32.9 -1.2,-0.3 -2.2,-0.4 -3.2,-0.4 z m -542,923.9 c 84.9,-106.5 177.4,-215.7 280.2,-330.7 -20.4,116.6 -32.3,229.2 -36.5,346.3 -6.2,0.1 -12.4,0.2 -18.4,0.2 -56.9,0 -101.2,-4.5 -144,-8.9 -27.3,-2.9 -53.4,-5.5 -81.3,-6.9 z"
     id="path106" /><path
     d="m 2718.5,702 c 83.9,0 130.5,41.6 137.9,99.2 14.6,113.8 -30.9,173.9 -102.4,279.6 -39,57.6 -141.4,159.3 -141.4,159.3 0,0 212.9,-91.2 373.9,-143.1 141.4,-45.5 338.1,-82.9 360.9,-84.5 6.5,-0.5 12.3,-0.7 17.4,-0.7 50.8,0 40.7,20.8 -10.9,42.9 -34.5,14.8 -269.9,107.3 -442.2,177.2 -179.2,72.7 -362.1,173.4 -412,173.4 -2.9,0 -5.4,-0.3 -7.4,-1.1 -4.7,-1.7 -9.3,-4.1 -13.7,-7 -39.8,-26.1 -44,-83.1 -12.3,-118.5 37.4,-41.8 104.7,-95.1 203.2,-212.6 84.7,-101 94.7,-217.9 1,-217.9 -6.3,0 -13.2,0.5 -20.5,1.6 -74.8,11.4 -120.3,97.5 -144.7,107.3 -4.9,2 -9.9,2.9 -14.7,2.9 -21.9,0 -40.2,-18.8 -37.4,-38.6 3.3,-22.8 52,-56.9 69.9,-99.2 16.6,-39.3 74.8,-118.7 191.8,-120.3 1.2,0.1 2.4,0.1 3.6,0.1 m 0,-31.2 v 0 c -1.3,0 -2.6,0 -4,0 -57.6,0.8 -110.4,19.1 -152.6,52.9 -42.2,33.7 -61.3,71.7 -67.5,86.5 -7.3,17.2 -22.9,34.7 -36.6,50.1 -17.4,19.6 -32.5,36.5 -35.4,56.8 -2.5,17.7 3.1,36 15.3,50.1 13.3,15.4 32.6,24.2 53,24.2 9,0 17.8,-1.7 26.3,-5.1 14.8,-5.9 26.6,-19.1 43,-37.3 23.5,-26.2 55.8,-62.2 94.8,-68.1 5.6,-0.9 10.9,-1.3 15.8,-1.3 24.5,0 29.5,10.7 31.3,14.8 6.1,13.1 5,34.9 -3,59.9 -9.6,29.7 -28.5,62.3 -53.2,91.8 -64.4,76.8 -115.7,126.2 -153.2,162.3 -19.3,18.6 -36.1,34.7 -49.4,49.6 -22.1,24.7 -32.3,57.7 -28,90.6 4,30.9 21,58.2 46.5,75 6.5,4.3 13.3,7.7 20.2,10.2 5.5,2 11.4,3 18.1,3 35,0 98,-28.5 215.6,-83.1 64.1,-29.8 136.7,-63.5 208.2,-92.5 90.6,-36.8 198.8,-79.8 285.8,-114.5 78.3,-31.2 140.2,-55.8 156.9,-63 17.1,-7.3 30.7,-14.8 40.5,-22.2 22.5,-17.1 24.4,-34.5 22,-46.1 -1.4,-6.9 -7.2,-23.6 -30.6,-30.7 -8.7,-2.7 -19.6,-3.9 -33.3,-3.9 -6,0 -12.6,0.2 -19.6,0.7 -25,1.7 -224.6,39.7 -368.3,85.9 -78.6,25.3 -169.9,60.1 -243,89.2 17.9,-20.6 34.4,-41.1 46,-58.2 3.4,-5.1 6.8,-10.1 10.1,-15 34.2,-50.3 61.2,-90.1 79,-133.6 19.7,-48.2 25.6,-96.6 18.4,-152.5 -4.9,-37.8 -22.9,-69.7 -52.3,-92.1 -30.1,-22.8 -69.4,-34.4 -116.8,-34.4 z"
     id="path110" /><rect
     x="2380.2"
     y="463.29999"
     width="22.1"
     height="32.799999"
     id="rect116" /><path
     id="path1897"
     class="st1"
     d="m 2236.5,441.6 c 26,11.4 53.6,81.3 34.1,133.3 -11.5,30.6 -35.9,62.7 -86.2,52 -53.6,-11.4 -79.3,-62.8 -66.7,-105.7 16.4,-55.2 78.3,-97.3 118.8,-79.6 z"
     style="fill:#f4134b;fill-opacity:1" /></g></svg>
