<?xml version="1.0" encoding="UTF-8" standalone="no"?>
<!-- Generator: Adobe Illustrator 19.0.0, SVG Export Plug-In . SVG Version: 6.00 Build 0)  -->

<svg
   xmlns:dc="http://purl.org/dc/elements/1.1/"
   xmlns:cc="http://creativecommons.org/ns#"
   xmlns:rdf="http://www.w3.org/1999/02/22-rdf-syntax-ns#"
   xmlns:svg="http://www.w3.org/2000/svg"
   xmlns="http://www.w3.org/2000/svg"
   xmlns:sodipodi="http://sodipodi.sourceforge.net/DTD/sodipodi-0.dtd"
   xmlns:inkscape="http://www.inkscape.org/namespaces/inkscape"
   version="1.1"
   id="svg2"
   x="0px"
   y="0px"
   viewBox="241 249.1 759.99997 373.1"
   xml:space="preserve"
   sodipodi:docname="logo.svg"
   width="760"
   height="373.10001"
   inkscape:version="0.92.5 (2060ec1f9f, 2020-04-08)"><metadata
   id="metadata47"><rdf:RDF><cc:Work
       rdf:about=""><dc:format>image/svg+xml</dc:format><dc:type
         rdf:resource="http://purl.org/dc/dcmitype/StillImage" /><dc:title></dc:title></cc:Work></rdf:RDF></metadata><defs
   id="defs45" /><sodipodi:namedview
   pagecolor="#ffffff"
   bordercolor="#666666"
   borderopacity="1"
   objecttolerance="10"
   gridtolerance="10"
   guidetolerance="10"
   inkscape:pageopacity="0"
   inkscape:pageshadow="2"
   inkscape:window-width="3840"
   inkscape:window-height="2065"
   id="namedview43"
   showgrid="false"
   inkscape:zoom="1.5769528"
   inkscape:cx="463.60575"
   inkscape:cy="167.83885"
   inkscape:window-x="0"
   inkscape:window-y="0"
   inkscape:window-maximized="1"
   inkscape:current-layer="svg2" />
<g
   id="g40"
   transform="translate(-166.9,-0.65)">
	<g
   id="g6">
		<rect
   x="420.39999"
   y="249.10001"
   width="735"
   height="297.5"
   id="rect2"
   style="fill:#231f20" />
		<path
   d="m 1097.3,290.8 -69.8,102 76,111.6 H 1033 L 991.3,444.7 949,504.4 h -69.3 c 1.6,-3.9 76,-111.6 76,-111.6 l -31.6,-44 H 789.5 c -6.2,0.5 -14,-1.6 -17,5.7 -1.1,2.3 -1.6,5.7 -0.5,7.8 1.1,2.8 3.4,5.1 6.2,6.2 l 4.6,0.5 H 837 c 24.8,0.5 47.9,16.3 58.6,38.8 9.6,18.6 8.5,44.5 -2.3,62.6 -13.5,22.5 -37.8,35.5 -63.6,34.4 h -150 L 656.6,422 633.4,504.9 h -54.7 l -22,-83.4 -23.7,82.9 h -60.8 c 0,0 55.8,-200.1 59.2,-213 h 51.2 l 23.7,89.1 24.3,-89.1 h 50.2 l 43,155.6 h 99.7 c 6.7,-0.5 16.3,1.6 19.1,-6.7 1.1,-3.9 0,-7.8 -2.3,-10.1 -2.3,-2.3 -5.7,-2.8 -9,-2.8 h -53.5 c -25.3,-0.5 -50.7,-17.5 -60.3,-41.7 -10.1,-24.3 -4.6,-54.1 14.7,-72.7 12.9,-12.9 28.7,-19.7 47.3,-20.9 H 956 l 35.5,51.2 36.7,-51.2 z"
   id="path4"
   inkscape:connector-curvature="0"
   style="fill:#ffffff" />
	</g>
	<g
   id="g18">
		<g
   id="g14">
			<g
   id="g12">
				<rect
   x="658.90002"
   y="560.20001"
   width="152.7"
   height="62"
   id="rect8"
   style="fill:#231f20" />
				<path
   d="m 799.8,569.3 -14.7,21.4 15.8,23.2 h -14.7 l -8.5,-12.4 -9,12.4 H 754 c 0.5,-0.5 15.8,-23.2 15.8,-23.2 l -6.7,-9 h -28.3 c -1.1,0 -2.8,-0.5 -3.4,1.1 0,0.5 -0.5,1.1 0,1.6 0,0.5 0.5,1.1 1.1,1.1 h 1.1 11.4 c 5.1,0 10.1,3.4 12.4,7.8 2.3,3.9 1.6,9 -0.5,12.9 -2.8,4.6 -7.8,7.3 -12.9,7.3 h -31 c 0,0 -4.6,-17.5 -5.1,-17.5 l -5.1,17.5 h -11.3 l -4.6,-17.5 -5.1,17.5 h -12.4 c 0,0 11.9,-41.7 12.4,-44.5 h 10.8 l 5.1,18.6 5.1,-18.6 h 10.8 l 9,32.1 h 20.9 c 1.6,0 3.4,0.5 3.9,-1.6 0,-0.5 0,-1.6 -0.5,-2.3 -0.5,-0.5 -1.1,-0.5 -1.6,-0.5 H 734 c -5.1,0 -10.8,-3.4 -12.4,-8.5 -2.3,-5.1 -1.1,-11.3 2.8,-15.2 2.8,-2.8 6.2,-3.9 9.6,-4.6 h 36.7 l 7.3,10.8 7.8,-10.8 z"
   id="path10"
   inkscape:connector-curvature="0"
   style="fill:#ffffff" />
			</g>
		</g>
		<path
   d="m 829.6,613.8 c 0.5,-5.1 14,-8.5 14,-19.7 0,-10.8 -7.8,-13.5 -14,-13.5 -6.7,0 -13.5,5.1 -13.5,13.5 v 3.4 h 10.1 c 0,-0.5 0,-1.1 0,-2.3 0,-2.8 1.1,-4.6 3.9,-4.6 2.8,0 3.4,1.6 3.4,4.6 0,6.7 -11.3,9.6 -15.8,17.5 -2.3,3.4 -2.3,10.8 -2.3,10.8 h 28.2 V 615 h -14 z"
   id="path16"
   inkscape:connector-curvature="0"
   style="fill:#231f20" />
	</g>
	<g
   id="g24">
		<rect
   x="420.39999"
   y="560.20001"
   width="152.7"
   height="62"
   id="rect20"
   style="fill:#231f20" />
		<path
   d="m 561.3,569.3 -14.7,21.4 15.8,23.2 h -14.7 l -8.5,-12.4 -9,12.4 h -14 c 0.5,-0.5 15.8,-23.2 15.8,-23.2 l -6.7,-9 H 497 c -1.1,0 -2.8,-0.5 -3.4,1.1 0,0.5 -0.5,1.1 0,1.6 0,0.5 0.5,1.1 1.1,1.1 h 1.1 11.3 c 5.1,0 10.1,3.4 12.4,7.8 2.3,3.9 1.6,9 -0.5,12.9 -2.8,4.6 -7.8,7.3 -12.9,7.3 h -31.6 c 0,0 -4.6,-17.5 -5.1,-17.5 l -5.1,17.5 H 453 l -4.6,-17.5 -5.1,17.5 h -12.4 c 0,0 11.9,-41.7 12.4,-44.5 h 10.8 l 5.1,18.6 5.1,-18.6 h 10.8 l 9,32.1 H 505 c 1.6,0 3.4,0.5 3.9,-1.6 0,-0.5 0,-1.6 -0.5,-2.3 -0.5,-0.6 -1.1,-0.5 -1.6,-0.5 h -11.3 c -5.1,0 -10.8,-3.4 -12.4,-8.5 -2.3,-5.1 -1.1,-11.3 2.8,-15.2 2.8,-2.8 6.2,-3.9 9.6,-4.6 h 36.7 l 7.3,10.8 7.8,-10.8 z"
   id="path22"
   inkscape:connector-curvature="0"
   style="fill:#ffffff" />
	</g>
	<g
   id="g38">
		<polygon
   points="1131.7,597.4 1115.9,597.4 1115.9,605.3 1131.7,605.3 1131.7,622.2 1139.6,622.2 1139.6,605.3 1155.4,605.3 1155.4,597.4 1139.6,597.4 1139.6,579.9 1131.7,579.9 "
   id="polygon26"
   style="fill:#231f20" />
		<g
   id="g34">
			<g
   id="g32">
				<rect
   x="926"
   y="560.20001"
   width="152.7"
   height="62"
   id="rect28"
   style="fill:#231f20" />
				<path
   d="m 1067.5,569.3 -14.7,21.4 15.8,23.2 h -14.7 l -8.5,-12.4 -9,12.4 h -14.7 c 0.5,-0.5 15.8,-23.2 15.8,-23.2 l -6.7,-9 h -28.2 c -1.1,0 -2.8,-0.5 -3.4,1.1 0,0.5 -0.5,1.1 0,1.6 0,0.5 0.5,1.1 1.1,1.1 h 1.1 11.3 c 5.1,0 10.1,3.4 12.4,7.8 2.3,3.9 1.6,9 -0.5,12.9 -2.8,4.6 -7.8,7.3 -12.9,7.3 h -31 c 0,0 -4.6,-17.5 -5.1,-17.5 l -5.1,17.5 h -11.3 l -4.6,-17.5 -5.1,17.5 H 937 c 0,0 11.9,-41.7 12.4,-44.5 h 10.8 l 5.1,18.6 5.1,-18.6 h 10.8 l 9,32.1 h 20.9 c 1.6,0 3.4,0.5 3.9,-1.6 0,-0.5 0,-1.6 -0.5,-2.3 -0.5,-0.5 -1.1,-0.5 -1.6,-0.5 h -11.3 c -5.1,0 -10.8,-3.4 -12.4,-8.5 -2.3,-5.1 -1.1,-11.3 2.8,-15.2 2.8,-2.8 6.2,-3.9 9.6,-4.6 h 36.7 l 7.3,10.8 7.8,-10.8 z"
   id="path30"
   inkscape:connector-curvature="0"
   style="fill:#ffffff" />
			</g>
		</g>
		<path
   d="m 1097.3,613.8 c 0.5,-5.1 14,-8.5 14,-19.7 0,-10.8 -7.8,-13.5 -14,-13.5 -6.7,0 -13.5,5.1 -13.5,13.5 v 3.4 h 10.1 c 0,-0.5 0,-1.1 0,-2.3 0,-2.8 1.1,-4.6 3.9,-4.6 2.8,0 3.4,1.6 3.4,4.6 0,6.7 -11.3,9.6 -15.8,17.5 -2.3,3.4 -2.3,10.8 -2.3,10.8 h 28.2 V 615 h -14 z"
   id="path36"
   inkscape:connector-curvature="0"
   style="fill:#231f20" />
	</g>
</g>
</svg>