<?xml version="1.0" encoding="UTF-8" standalone="no"?>
<svg
   xmlns:dc="http://purl.org/dc/elements/1.1/"
   xmlns:cc="http://creativecommons.org/ns#"
   xmlns:rdf="http://www.w3.org/1999/02/22-rdf-syntax-ns#"
   xmlns:svg="http://www.w3.org/2000/svg"
   xmlns="http://www.w3.org/2000/svg"
   viewBox="0 0 1093.8239 295.90125"
   height="295.90125"
   width="1093.8239"
   xml:space="preserve"
   version="1.1"
   id="svg2"><metadata
     id="metadata8"><rdf:RDF><cc:Work
         rdf:about=""><dc:format>image/svg+xml</dc:format><dc:type
           rdf:resource="http://purl.org/dc/dcmitype/StillImage" /><dc:title></dc:title></cc:Work></rdf:RDF></metadata><defs
     id="defs6"><clipPath
       id="clipPath22"
       clipPathUnits="userSpaceOnUse"><path
         id="path24"
         d="m 0,236.721 875.059,0 L 875.059,0 0,0 0,236.721 Z" /></clipPath></defs><g
     transform="matrix(1.25,0,0,-1.25,0,295.90125)"
     id="g10"><g
       transform="translate(785.5353,162.9918)"
       id="g12"><path
         id="path14"
         style="fill:#221f1f;fill-opacity:1;fill-rule:nonzero;stroke:none"
         d="m 0,0 0,-66.47 -60.73,0 0,-30.051 60.73,0 0,-66.471 28.795,0 0,66.471 60.729,0 0,30.051 -60.729,0 0,66.47 L 0,0 Z" /></g><path
       id="path16"
       style="fill:#221f1f;fill-opacity:1;fill-rule:nonzero;stroke:none"
       d="m 0,0 584.507,0 0,236.721 L 0,236.721 0,0 Z" /><g
       id="g18"><g
         clip-path="url(#clipPath22)"
         id="g20"><g
           transform="translate(538.2623,203.3989)"
           id="g26"><path
             id="path28"
             style="fill:#ffffff;fill-opacity:1;fill-rule:nonzero;stroke:none"
             d="m 0,0 -55.568,-81.16 60.44,-88.672 -55.813,0 -33.213,47.47 -33.48,-47.584 -55.446,0 c 1.506,3.126 60.695,88.786 60.695,88.786 l -25.228,35.099 -107.02,-0.122 c -4.991,-0.394 -11.11,1.121 -13.614,-4.509 -0.876,-1.865 -1.252,-4.614 -0.246,-6.496 0.867,-2.119 2.872,-4.115 5.113,-4.737 l 3.371,-0.254 42.837,0 c 19.848,-0.499 38.216,-12.852 46.822,-30.713 7.626,-14.989 6.501,-35.467 -1.996,-49.711 -10.734,-18.097 -29.846,-28.218 -50.569,-27.474 l -119.138,0 c 0,0 -18.237,65.821 -18.36,65.935 l -18.359,-65.935 -43.452,-0.008 -17.484,66.197 -19.112,-66.058 -48.074,0 c 0,0 44.204,159.09 47.076,169.587 l 40.597,0 19.104,-70.934 19.48,70.934 39.836,0.009 34.092,-123.526 79.425,0 c 5.48,0.262 13.106,-1.234 15.356,5.498 0.876,3.012 0.132,6.129 -1.996,8.248 -2.005,1.751 -4.5,2.241 -7.118,2.241 l -42.705,0.008 c -20.233,0.622 -40.335,13.86 -47.829,33.331 -8.117,19.489 -3.371,42.848 11.486,57.933 10.489,10.515 22.974,15.759 37.595,16.381 l 140.11,0.122 28.231,-40.702 L -54.947,0.009 0,0 Z" /></g><g
           transform="translate(653.6779,33.2585)"
           id="g30"><path
             id="path32"
             style="fill:#221f1f;fill-opacity:1;fill-rule:nonzero;stroke:none"
             d="m 0,0 c 2.856,20.12 54.579,32.427 54.579,76.371 0,41.86 -29.125,52.521 -54.579,52.521 -25.445,0 -52.563,-19.28 -52.563,-50.9 l 0,-11.904 38.197,0 0,8.62 c 0,10.874 5.327,17.666 14.778,17.666 9.451,0 13.936,-5.557 13.936,-16.835 0,-25.454 -43.104,-35.719 -61.148,-67.752 -7.736,-13.67 -8.225,-41.045 -8.225,-41.045 l 107.16,0 L 52.135,0 0,0 Z" /></g></g></g></g></svg>