<?xml version="1.0" encoding="UTF-8" standalone="no"?>
<svg
   xmlns:dc="http://purl.org/dc/elements/1.1/"
   xmlns:cc="http://creativecommons.org/ns#"
   xmlns:rdf="http://www.w3.org/1999/02/22-rdf-syntax-ns#"
   xmlns:svg="http://www.w3.org/2000/svg"
   xmlns="http://www.w3.org/2000/svg"
   xmlns:sodipodi="http://sodipodi.sourceforge.net/DTD/sodipodi-0.dtd"
   xmlns:inkscape="http://www.inkscape.org/namespaces/inkscape"
   viewBox="0 0 132 49.729"
   version="1.1"
   id="svg16"
   sodipodi:docname="logo.svg"
   width="132"
   height="49.729"
   inkscape:version="0.92.5 (2060ec1f9f, 2020-04-08)">
  <metadata
     id="metadata22">
    <rdf:RDF>
      <cc:Work
         rdf:about="">
        <dc:format>image/svg+xml</dc:format>
        <dc:type
           rdf:resource="http://purl.org/dc/dcmitype/StillImage" />
        <dc:title></dc:title>
      </cc:Work>
    </rdf:RDF>
  </metadata>
  <defs
     id="defs20" />
  <sodipodi:namedview
     pagecolor="#ffffff"
     bordercolor="#666666"
     borderopacity="1"
     objecttolerance="10"
     gridtolerance="10"
     guidetolerance="10"
     inkscape:pageopacity="0"
     inkscape:pageshadow="2"
     inkscape:window-width="3840"
     inkscape:window-height="2065"
     id="namedview18"
     showgrid="false"
     inkscape:zoom="11.85525"
     inkscape:cx="71.13391"
     inkscape:cy="34.166983"
     inkscape:window-x="0"
     inkscape:window-y="0"
     inkscape:window-maximized="1"
     inkscape:current-layer="svg16" />
  <g
     id="g836"
     transform="translate(-36.88)">
    <text
       id="text2"
       font-size="1"
       transform="translate(136.552,8.268)"
       style="font-size:1px;font-family:ArialMT;fill:#c23435">I don’t like bugs!</text>
    <path
       id="path4"
       d="M 37.683,0 H 168.077 V 49.729 H 37.683 Z"
       inkscape:connector-curvature="0"
       style="fill:#070308" />
    <path
       id="path6"
       d="M 164.043,24.924 V 4.243 h -46.296 v 41.362 h 46.296 z"
       inkscape:connector-curvature="0"
       style="fill:#ffffff" />
    <path
       id="path8"
       d="M 127.811,25.259 V 8.268 h 17.227 l 7.822,5.868 v 8.217 h -6.573 l 8.351,6.148 0.006,6.875 0.006,6.875 h -7.821 L 146.77,35.6 146.711,28.949 135.417,28.83 v 13.422 h -7.604 z m 16.998,-6.707 v -3.13 h -9.393 v 6.26 h 9.393 z"
       inkscape:connector-curvature="0"
       style="fill:#070308" />
    <g
       id="g12"
       style="fill:#ffffff">
      <path
         id="path10"
         d="m 57.583,41.589 v -0.885 l -3.69,-0.13 -0.064,-2.292 -0.064,-2.292 h 3.818 V 34.201 H 53.781 V 31.277 L 49.867,31.406 49.8,32.803 49.733,34.2 H 47.07 v 1.789 h 2.684 l 0.003,2.403 c 0.002,1.322 0.067,2.641 0.144,2.931 0.238,0.887 1.222,1.131 4.605,1.141 l 3.075,0.009 z m 12.748,-3.251 v -4.136 h -4.026 v 6.26 h -2.46 v -6.26 h -3.802 v 3.654 c 0,3.201 0.049,3.697 0.391,3.995 0.643,0.56 0.883,0.587 5.48,0.605 l 4.417,0.018 z m 6.884,0.839 0.062,-3.186 h 3.79 v -1.789 l -2.516,0.005 c -3.051,0.007 -4.147,0.235 -4.809,1.001 -0.471,0.546 -0.503,0.787 -0.503,3.775 0,1.756 0.071,3.263 0.157,3.349 0.087,0.087 0.967,0.128 1.957,0.093 l 1.8,-0.064 z m 15.176,2.677 c 0.806,-0.652 1.009,-1.341 1.009,-3.424 0,-3.77 -0.477,-4.282 -4.114,-4.414 l -2.404,-0.087 v -2.651 l -3.914,0.129 -0.12,10.844 4.533,-0.005 c 3.957,-0.005 4.594,-0.055 5.01,-0.392 z M 86.882,38.226 V 35.99 h 2.46 v 4.471 h -2.46 z m 18.19,3.567 c 0.706,-0.555 1.042,-1.668 1.042,-3.455 0,-1.84 -0.334,-2.886 -1.139,-3.563 -0.664,-0.558 -0.767,-0.573 -3.969,-0.573 -3.67,0 -4.079,0.13 -4.641,1.475 -0.378,0.905 -0.421,4.6 -0.062,5.303 0.595,1.163 0.956,1.261 4.696,1.266 3.183,0.004 3.543,-0.036 4.073,-0.453 z M 99.854,38.226 V 35.99 h 2.46 v 4.471 h -2.46 z"
         inkscape:connector-curvature="0" />
    </g>
    <path
       id="path14"
       d="m 54.068,24.588 c 0.604,-2.029 1.17,-3.766 1.259,-3.86 0.089,-0.094 0.439,0.761 0.777,1.9 0.338,1.14 0.867,2.905 1.175,3.924 l 0.56,1.852 4.293,-0.128 0.621,-1.9 c 0.342,-1.045 0.912,-2.854 1.268,-4.02 l 0.647,-2.12 1.34,4.02 1.34,4.02 7.238,0.059 c 8.419,0.069 8.876,-0.001 10.688,-1.629 1.449,-1.302 1.947,-2.541 1.93,-4.802 -0.019,-2.583 -1.141,-4.631 -3.091,-5.639 -0.771,-0.399 -1.492,-0.503 -4.389,-0.637 -1.907,-0.088 -3.643,-0.232 -3.858,-0.32 -0.547,-0.223 -0.519,-1.369 0.041,-1.669 0.269,-0.144 2.827,-0.231 6.765,-0.231 h 6.333 l 1.789,2.269 c 0.984,1.248 1.765,2.353 1.735,2.455 -0.03,0.102 -1.522,2.313 -3.317,4.913 -1.795,2.6 -3.315,4.866 -3.38,5.035 -0.096,0.251 0.41,0.307 2.759,0.307 h 2.877 l 2.123,-2.795 c 1.167,-1.537 2.178,-2.795 2.245,-2.795 0.067,0 1.022,1.258 2.12,2.795 l 1.998,2.795 h 2.969 c 1.633,0 2.969,-0.042 2.969,-0.094 0,-0.052 -1.56,-2.327 -3.467,-5.056 -1.907,-2.729 -3.467,-5.105 -3.467,-5.279 0,-0.175 1.409,-2.323 3.131,-4.774 1.722,-2.451 3.131,-4.561 3.131,-4.688 0,-0.147 -1.051,-0.231 -2.892,-0.231 h -2.892 l -1.19,1.669 c -0.654,0.918 -1.465,2.075 -1.802,2.571 -0.337,0.496 -0.689,0.9 -0.783,0.896 -0.093,-0.004 -0.81,-0.902 -1.593,-1.997 -2.35,-3.287 -1.045,-2.951 -11.129,-2.872 -8.513,0.067 -8.715,0.079 -9.633,0.569 -1.838,0.982 -2.825,2.884 -2.814,5.424 0.009,2.085 0.317,3.246 1.174,4.429 1.092,1.507 1.625,1.674 5.82,1.823 3.848,0.136 4.697,0.339 4.697,1.121 0,0.996 -0.67,1.123 -5.936,1.123 H 71.305 L 67.072,8.602 62.372,8.476 61.277,12.06 c -0.602,1.971 -1.158,3.584 -1.236,3.584 -0.077,0 -0.417,-0.931 -0.755,-2.068 -0.338,-1.137 -0.82,-2.75 -1.07,-3.584 L 57.76,8.476 53.006,8.602 52.267,11.285 c -1.093,3.971 -4.3,16.536 -4.3,16.849 0,0.198 0.663,0.253 2.502,0.207 l 2.502,-0.063 z"
       inkscape:connector-curvature="0"
       style="fill:#ffffff" />
  </g>
</svg>
