<?xml version="1.0" encoding="UTF-8" standalone="no"?>
<!-- Generator: Adobe Illustrator 25.2.1, SVG Export Plug-In . SVG Version: 6.00 Build 0)  -->

<svg
   version="1.1"
   id="Layer_1"
   x="0px"
   y="0px"
   viewBox="0 0 1152.5 162"
   xml:space="preserve"
   sodipodi:docname="logo.svg"
   inkscape:version="1.1.2 (0a00cf5339, 2022-02-04)"
   width="1152.5"
   height="162"
   xmlns:inkscape="http://www.inkscape.org/namespaces/inkscape"
   xmlns:sodipodi="http://sodipodi.sourceforge.net/DTD/sodipodi-0.dtd"
   xmlns:xlink="http://www.w3.org/1999/xlink"
   xmlns="http://www.w3.org/2000/svg"
   xmlns:svg="http://www.w3.org/2000/svg"><defs
   id="defs71"><linearGradient
   inkscape:collect="always"
   id="linearGradient2048"><stop
     style="stop-color:#7b94da;stop-opacity:1"
     offset="0"
     id="stop2044" /><stop
     style="stop-color:#e5f5fe;stop-opacity:1"
     offset="0.13365868"
     id="stop14229" /><stop
     style="stop-color:#e5f5fe;stop-opacity:1"
     offset="0.55100513"
     id="stop36112" /><stop
     style="stop-color:#b5b8f1;stop-opacity:1"
     offset="1"
     id="stop2046" /></linearGradient>
	
	

		
		
		
		
		
		
		
		
		
		
		
		
	<linearGradient
   inkscape:collect="always"
   xlink:href="#linearGradient2048"
   id="linearGradient2050"
   x1="1726.0842"
   y1="70.576698"
   x2="1727.9491"
   y2="672.05444"
   gradientUnits="userSpaceOnUse"
   gradientTransform="matrix(1,0,0,0.73476821,0,110.162)" /></defs><sodipodi:namedview
   id="namedview69"
   pagecolor="#ffffff"
   bordercolor="#666666"
   borderopacity="1.0"
   inkscape:pageshadow="2"
   inkscape:pageopacity="0.0"
   inkscape:pagecheckerboard="0"
   showgrid="false"
   inkscape:zoom="3.5092472"
   inkscape:cx="664.38751"
   inkscape:cy="137.49388"
   inkscape:window-width="3840"
   inkscape:window-height="2065"
   inkscape:window-x="0"
   inkscape:window-y="0"
   inkscape:window-maximized="1"
   inkscape:current-layer="Layer_1"
   inkscape:snap-global="false" />
<style
   type="text/css"
   id="style2">
	.st0{fill:#00A336;}
	.st1{fill:#FF0000;}
	.st2{fill:#FFFFFF;}
	.st3{fill:#00FFFE;}
</style>

<g
   id="g52950"
   transform="matrix(0.32920702,0,0,0.32920702,-67.701347,-54.687195)"><path
     id="rect1682"
     style="fill:url(#linearGradient2050);fill-opacity:1;stroke:none;stroke-width:1.077;stroke-linecap:square;stroke-miterlimit:4;stroke-dasharray:none;stroke-opacity:0.998405;stop-color:#000000"
     d="m 1516.7695,166.28516 c -19.3045,0.0829 -38.7066,1.26913 -40.9218,3.48437 -2.8318,2.83185 -3.1641,22.85333 -3.1641,190.20117 0,119.0185 -0.7285,188.95128 -2.002,192.30078 -4.037,10.6182 -8.4408,11.10938 -99.1425,11.10938 -93.1571,0 -93.7706,-0.089 -100.7676,-14.0957 -3.2757,-6.5573 -3.5235,-19.93882 -3.5235,-191.69922 0,-165.17543 -0.3367,-184.9852 -3.1679,-187.81641 -2.7766,-2.77659 -13.5247,-3.16406 -87.5684,-3.16406 h -84.4023 l -3.1992,4.88476 c -2.881,4.397 -3.1222,23.17158 -2.4043,187.81446 0.7658,175.6202 0.9634,183.65394 4.9277,201.05664 12.6609,55.5783 39.7282,85.15371 86.6113,94.63281 10.9331,2.2106 41.5004,2.67749 152.6446,2.33398 125.4671,-0.38779 140.1464,-0.77101 151.0566,-3.94531 40.0264,-11.6456 59.9932,-33.34433 71.8809,-78.11523 4.4743,-16.8512 4.4958,-17.70431 5.1542,-209.97461 0.4946,-144.3854 0.072,-193.76483 -1.6757,-195.87109 -1.8241,-2.19792 -21.0315,-3.21958 -40.336,-3.13672 z m 2145.9512,0.1289 c -19.6394,0.0705 -39.2031,1.05956 -40.7324,2.90235 -1.6111,1.94111 -2.3954,53.41093 -2.7637,181.27343 l -0.5137,178.56446 -80.4316,-178.48047 c -44.2372,-98.164 -81.6894,-179.73642 -83.2266,-181.27344 -2.3148,-2.31484 -21.5937,-2.79492 -112.3047,-2.79492 h -109.5097 l -3.1367,4.47656 c -2.7945,3.98994 -3.1348,30.25211 -3.1348,241.69141 0,234.5306 0.045,237.26154 4.0273,241.24414 3.7267,3.7266 6.715,4.02929 39.8985,4.0293 27.7967,0 36.7475,-0.64428 39.7773,-2.85938 3.8062,-2.7829 3.9376,-7.60981 4.918,-182.56641 l 1.0059,-179.70898 81.4746,180.69922 c 47.4704,105.2846 82.9293,181.478 84.9628,182.5664 2.0193,1.0806 48.4847,1.86914 110.2266,1.86915 94.3473,0 107.1026,-0.36842 109.9004,-3.16602 2.8419,-2.8419 3.166,-27.68024 3.166,-243.30274 0,-184.089 -0.565,-240.70383 -2.418,-242.55664 -1.8305,-1.83072 -21.546,-2.67788 -41.1855,-2.60742 z m -1384.625,0.1875 -174.791,0.004 c -166.2271,0 -175.5369,0.19097 -190.0254,3.89648 -20.7389,5.30412 -34.4483,12.6534 -46.9824,25.1875 -17.3577,17.35765 -28.885,45.1355 -33.0449,79.625 -2.6986,22.3789 -2.7209,251.67417 -0.025,273.16797 3.9863,31.7912 14.1084,58.8529 28.4746,76.125 12.3761,14.8796 36.2176,27.41368 59.6504,31.35938 v -0.01 c 14.8288,2.5017 364.5235,2.4972 369.1894,0 3.7969,-2.0321 3.8965,-5.81205 3.8965,-149.09375 V 359.85547 l -5.168,-1.96485 c -3.1543,-1.1992 -53.575,-1.96484 -129.4609,-1.96484 -109.2371,0 -124.8375,0.38122 -128.7715,3.13672 -4.3814,3.0687 -4.4766,4.02396 -4.4766,44.91406 0,29.8094 0.6936,42.47081 2.418,44.19532 1.7249,1.72489 14.4104,2.41796 44.3086,2.41796 h 41.8945 v 50.24024 c 0,50.1923 -0.01,50.24492 -4.8574,55.89062 l -4.8554,5.65235 -39.3262,0.62109 c -43.6543,0.6905 -50.1989,-0.69252 -53.1485,-11.23242 -2.0106,-7.1848 -2.0106,-271.69606 0,-278.88086 3.2911,-11.7604 1.593,-11.61719 138.3418,-11.61719 122.289,0 125.0604,-0.0859 129.002,-4.02734 3.7497,-3.7496 4.0273,-6.71407 4.0273,-42.85547 0,-31.8817 -0.5603,-39.6271 -3.1347,-43.30274 z m -2066.01367,0.004 -3.13476,4.47656 c -2.79466,3.98994 -3.13477,30.25211 -3.13477,241.69141 0,234.5306 0.0447,237.26154 4.02734,241.24414 3.72662,3.7266 6.71307,4.02929 39.89649,4.0293 27.79614,0 36.74961,-0.64428 39.77929,-2.85938 3.79936,-2.7777 3.93738,-7.43373 4.91602,-165.07812 l 1.00781,-162.22071 50.09375,162.56055 c 28.91494,93.8322 51.43135,163.62688 53.25586,165.08008 2.36263,1.8818 17.71806,2.51757 60.80078,2.51758 42.99458,0 58.48376,-0.63968 60.96485,-2.51758 2.04295,-1.5464 23.36563,-65.63032 55.26953,-166.10742 L 627.76562,325.83398 628.77344,490 c 0.87717,142.9917 1.3978,164.41112 4.02929,166.07422 1.77547,1.1221 37.27617,1.92341 86.10157,1.9414 80.41785,0.03 83.21229,-0.099 87.11132,-3.99804 3.98262,-3.9826 4.02735,-6.71354 4.02735,-241.24414 0,-211.4393 -0.34012,-237.70147 -3.13477,-241.69141 l -3.13672,-4.47656 H 698.19336 592.61328 l -2.91601,4.53125 c -1.60312,2.49246 -20.33078,58.45959 -41.61719,124.37109 -21.28641,65.9116 -39.2983,120.51711 -40.02735,121.34571 -0.72904,0.8287 -17.98675,-53.35671 -38.34961,-120.41211 -20.36281,-67.0554 -38.26994,-123.69973 -39.79492,-125.87696 -2.69759,-3.85133 -5.68628,-3.95898 -110.29882,-3.95898 z m 2364.55857,0 -3.1367,4.47656 c -2.7946,3.98994 -3.1348,30.25211 -3.1348,241.69141 0,234.5306 0.045,237.26154 4.0274,241.24414 3.9702,3.9702 6.7153,4.02929 190.4668,4.0293 124.6641,0 187.7271,-0.69174 190.332,-2.08594 3.6642,-1.961 3.8965,-4.63106 3.8965,-44.91406 0,-30.6264 -0.6897,-43.5178 -2.418,-45.2461 -1.8157,-1.8157 -27.6158,-2.41797 -103.7265,-2.41797 h -101.3086 v -56.39453 -56.39453 h 93.7051 93.705 l 2.0801,-5.4707 c 3.123,-8.2144 1.588,-82.21327 -1.7754,-85.57227 -2.0517,-2.0493 -22.5989,-2.73508 -95.166,-3.17578 l -92.5488,-0.56055 v -47.27343 -47.27344 h 99.8301 c 64.9637,0 101.1913,-0.72719 103.7265,-2.08399 3.6642,-1.961 3.8965,-4.63301 3.8965,-44.91601 0,-30.62646 -0.6897,-43.51781 -2.418,-45.2461 -1.8455,-1.84545 -47.0589,-2.41601 -191.2246,-2.41601 z M 699.5957,182.7168 h 94.33399 v 0.0273 h -93.58203 z m 248.41407,334.34179 c -71.20858,0 -81.6765,0.39322 -84.44922,3.16602 -2.74482,2.7448 -3.16407,11.68302 -3.16407,67.32812 0,55.645 0.41925,64.58323 3.16407,67.32813 2.77272,2.7727 13.24064,3.16601 84.44922,3.16602 71.20853,0 81.67443,-0.39332 84.44723,-3.16602 2.7448,-2.7449 3.166,-11.68313 3.166,-67.32813 0,-55.6451 -0.4212,-64.58332 -3.166,-67.32812 -2.7728,-2.7728 -13.2387,-3.16602 -84.44723,-3.16602 z m 751.25973,0 c -71.2085,0 -81.6765,0.39322 -84.4492,3.16602 -2.7448,2.7448 -3.1641,11.68302 -3.1641,67.32812 0,55.645 0.4193,64.58323 3.1641,67.32813 2.7727,2.7727 13.2407,3.16601 84.4492,3.16602 71.2086,0 81.6765,-0.39332 84.4493,-3.16602 2.7444,-2.7449 3.164,-11.68313 3.164,-67.32813 0,-55.6451 -0.4194,-64.58332 -3.164,-67.32812 -2.7732,-2.7728 -13.2407,-3.16602 -84.4493,-3.16602 z m 733.1328,0 c -71.2086,0 -81.6744,0.39322 -84.4472,3.16602 -2.7448,2.7448 -3.166,11.68302 -3.166,67.32812 0,55.645 0.4212,64.58323 3.166,67.32813 2.7728,2.7727 13.2386,3.16601 84.4472,3.16602 71.2087,0 81.6764,-0.39332 84.4493,-3.16602 2.7448,-2.7449 3.164,-11.68313 3.164,-67.32813 0,-55.6451 -0.4192,-64.58332 -3.164,-67.32812 -2.7729,-2.7728 -13.2406,-3.16602 -84.4493,-3.16602 z m 656.5977,0 c -71.2086,0 -81.6745,0.39322 -84.4473,3.16602 -2.7449,2.7448 -3.166,11.68302 -3.166,67.32812 0,55.645 0.4211,64.58323 3.166,67.32813 2.7728,2.7727 13.2387,3.16601 84.4473,3.16602 71.2086,0 81.6764,-0.39332 84.4492,-3.16602 2.7448,-2.7449 3.166,-11.68313 3.166,-67.32813 0,-55.6451 -0.4212,-64.58332 -3.166,-67.32812 -2.7728,-2.7728 -13.2406,-3.16602 -84.4492,-3.16602 z" /><path
     style="fill:#000000;stroke-width:2.0141"
     d="m 209.84018,654.018 c -3.9826,-3.9826 -4.0282,-6.7137 -4.0282,-241.2443 0,-211.4393 0.3407,-237.7025 3.13536,-241.6924 l 3.13536,-4.4764 h 107.5261 c 104.61257,0 107.60123,0.1073 110.29882,3.9586 1.52498,2.1772 19.43318,58.8221 39.796,125.8775 20.36283,67.0554 37.61979,121.241 38.34883,120.4123 0.72905,-0.8286 18.7417,-55.4342 40.02811,-121.3458 21.28641,-65.9115 40.01421,-121.8784 41.61733,-124.3708 l 2.91477,-4.5318 h 105.57978 105.57978 l 3.13537,4.4764 c 2.79465,3.9899 3.13536,30.2531 3.13536,241.6924 0,234.5306 -0.0456,237.2617 -4.02821,241.2443 -3.89904,3.899 -6.69212,4.0272 -87.10997,3.9974 -48.8254,-0.018 -84.32744,-0.8182 -86.10291,-1.9403 -2.63149,-1.6631 -3.15104,-23.0832 -4.02821,-166.0749 L 627.7666,325.8346 575.8235,489.4228 c -31.9039,100.4771 -53.22632,164.5594 -55.26927,166.1058 -2.48109,1.8779 -17.97067,2.5176 -60.96525,2.5176 -43.08272,0 -58.43735,-0.6358 -60.79998,-2.5176 -1.82451,-1.4532 -24.34023,-71.247 -53.25517,-165.0792 l -50.09427,-162.5615 -1.00705,162.2208 c -0.97864,157.6444 -1.11735,162.3014 -4.91669,165.0791 -3.02972,2.2151 -11.9824,2.8584 -39.77854,2.8584 -33.18342,0 -36.17048,-0.3016 -39.8971,-4.0282 z m 68.4795,-195.9723 c 0,-140.3383 0.57239,-184.46 2.41693,-186.3046 3.59641,-3.5964 11.60456,-2.9253 13.22002,1.1078 0.77649,1.9386 26.82912,85.549 57.89475,185.801 l 56.48294,182.2764 51.48866,0.5369 51.48865,0.5369 4.14346,-13.6286 c 2.27889,-7.4957 28.70131,-90.668 58.71647,-184.8273 34.80541,-109.1867 55.80949,-172.1089 57.98655,-173.7113 2.74738,-2.0221 4.22414,-1.9742 7.56741,0.2456 4.13918,2.7482 4.15572,3.4119 4.66797,187.3064 l 0.51408,184.5484 h 74.51126 74.51129 V 412.3256 182.7178 H 697.3553 600.7805 l -22.09705,67.9759 c -12.15338,37.3868 -31.48217,96.8838 -42.95287,132.2156 -21.79906,67.1449 -24.60992,72.943 -32.54817,67.1384 -2.30599,-1.6861 -15.75383,-42.7762 -39.71336,-121.3445 C 443.54433,263.3659 425.36856,203.7903 423.07842,196.313 l -4.16385,-13.5952 H 320.41968 221.9248 v 229.6078 229.6078 h 28.19744 28.19744 z m 585.24087,196.8355 c -2.74482,-2.7449 -3.16502,-11.6836 -3.16502,-67.3286 0,-55.6451 0.4202,-64.5838 3.16502,-67.3286 2.77272,-2.7728 13.23989,-3.1651 84.44847,-3.1651 71.20858,0 81.67568,0.3923 84.44848,3.1651 2.7448,2.7448 3.165,11.6835 3.165,67.3286 0,55.645 -0.4202,64.5837 -3.165,67.3286 -2.7728,2.7727 -13.2399,3.165 -84.44848,3.165 -71.20858,0 -81.67575,-0.3923 -84.44847,-3.165 z m 155.94915,-67.3286 v -54.3808 h -71.50068 -71.50066 v 54.3808 54.3807 h 71.50066 71.50068 z m 158.5352,67.4415 c -46.8831,-9.4791 -73.9512,-39.0536 -86.6121,-94.6319 -3.9643,-17.4027 -4.1612,-25.4365 -4.927,-201.0567 -0.7179,-164.6428 -0.4776,-183.4182 2.4034,-187.8152 l 3.2011,-4.8854 h 84.402 c 74.0437,0 84.7905,0.3884 87.5671,3.165 2.8312,2.8312 3.1653,22.6396 3.1681,187.8152 0,171.7604 0.249,185.1422 3.5247,191.6995 6.997,14.0064 7.6096,14.0921 100.7667,14.0956 90.7017,0 95.1057,-0.49 99.1427,-11.1082 1.2735,-3.3495 2.0013,-73.2819 2.0013,-192.3004 0,-167.3478 0.3332,-187.3698 3.165,-190.2017 4.4305,-4.4304 77.6091,-4.7445 81.2573,-0.3487 1.7481,2.1062 2.1706,51.4861 1.676,195.8715 -0.6585,192.2703 -0.6795,193.1242 -5.1538,209.9754 -11.8877,44.7709 -31.8546,66.4694 -71.881,78.115 -10.9102,3.1743 -25.5907,3.5577 -151.0578,3.9455 -111.1442,0.3435 -141.7106,-0.1239 -152.6437,-2.3345 z m 290.6098,-15.1327 c 17.5448,-2.7359 40.2085,-13.9828 49.0932,-24.3625 15.0123,-17.5385 22.5044,-41.6074 25.4394,-81.726 1.0372,-14.1776 1.9123,-98.9649 1.9446,-188.4163 l 0.059,-162.6389 h -28.1974 -28.1975 v 180.9038 c 0,199.3712 0.1872,196.1761 -12.0976,206.513 -10.3309,8.693 -21.2921,9.5762 -110.9874,8.943 -81.7191,-0.5768 -83.5253,-0.6765 -91.7301,-5.064 -10.6442,-5.6918 -16.0365,-12.5903 -19.8321,-25.3715 -2.5804,-8.689 -3.0169,-35.8989 -3.0169,-188.0417 V 182.7177 h -74.6303 -74.6302 l 0.7579,180.7658 c 0.8424,200.9249 0.4933,195.527 14.5888,225.611 12.5002,26.6788 35.603,45.3554 62.4336,50.4718 13.8784,2.6466 272.2321,2.9104 289.0033,0.2951 z m 146.1664,15.0198 c -2.7448,-2.7449 -3.1651,-11.6836 -3.1651,-67.3286 0,-55.6451 0.4203,-64.5838 3.1651,-67.3286 2.7727,-2.7728 13.2399,-3.1651 84.4484,-3.1651 71.2086,0 81.6758,0.3923 84.4485,3.1651 2.7448,2.7448 3.165,11.6835 3.165,67.3286 0,55.645 -0.4202,64.5837 -3.165,67.3286 -2.7727,2.7727 -13.2399,3.165 -84.4485,3.165 -71.2085,0 -81.6757,-0.3923 -84.4484,-3.165 z m 155.9491,-67.3286 v -54.3808 h -71.5007 -71.5006 v 54.3808 54.3807 h 71.5006 71.5007 z m 150.5812,68.4134 c -23.4328,-3.9457 -47.2745,-16.4796 -59.6506,-31.3592 -14.3662,-17.2721 -24.4883,-44.3328 -28.4746,-76.124 -2.6951,-21.4938 -2.6736,-250.7902 0.025,-273.1691 4.1599,-34.4895 15.688,-62.2667 33.0457,-79.6244 12.5341,-12.5341 26.2434,-19.8839 46.9823,-25.188 14.4885,-3.7055 23.7984,-3.8964 190.0255,-3.8964 h 174.7906 l 3.1354,4.4764 c 2.5744,3.6756 3.1353,11.4216 3.1353,43.3032 0,36.1414 -0.2785,39.1055 -4.0282,42.8551 -3.9416,3.9416 -6.7136,4.0282 -129.0026,4.0282 -136.7488,0 -135.0493,-0.1427 -138.3404,11.6177 -2.0106,7.1848 -2.0106,271.6953 0,278.8801 2.9496,10.5399 9.4942,11.9231 53.1485,11.2326 l 39.3245,-0.6219 4.8568,-5.6511 c 4.8521,-5.6457 4.8568,-5.6991 4.8568,-55.8914 v -50.2403 h -41.8934 c -29.8982,0 -42.5854,-0.692 -44.3103,-2.4169 -1.7244,-1.7245 -2.4169,-14.3867 -2.4169,-44.1961 0,-40.8901 0.095,-41.8458 4.4764,-44.9145 3.934,-2.7555 19.5344,-3.1354 128.7715,-3.1354 75.8859,0 126.3072,0.7651 129.4615,1.9643 l 5.1664,1.9643 v 147.0085 c 0,143.2817 -0.099,147.0614 -3.8959,149.0935 -4.6659,2.4972 -354.361,2.5017 -369.1898,0 z m 357.655,-54.8182 c 0.7267,-22.4321 1.3237,-83.1573 1.3267,-134.945 V 372.0435 H 2161.501 2042.6689 v 32.2256 32.2257 h 42.2253 c 39.6856,0 42.3507,0.2343 44.3103,3.8958 1.2891,2.4088 2.0681,24.1264 2.0407,56.8984 -0.039,47.2368 -0.4501,53.8963 -3.7751,61.2174 -8.3876,18.4676 -18.4963,21.515 -68.4656,20.6394 -43.1249,-0.7555 -49.9934,-2.7593 -58.0951,-16.9476 l -4.4934,-7.8784 -0.033,-141.0639 -0.033,-141.0641 4.5317,-8.87 c 3.0848,-6.0379 7.1041,-10.1934 12.5882,-13.0149 7.8362,-4.0316 11.4281,-4.1603 131.4202,-4.7078 l 123.3638,-0.5628 V 213.877 182.7178 h -168.9098 c -105.0386,0 -172.9564,0.7674 -179.6113,2.0295 -35.0491,6.6469 -58.2066,31.3591 -67.85,72.4051 -3.2378,13.7815 -3.5694,28.2913 -3.5694,156.1802 0,155.8186 -0.1694,153.4832 13.1613,181.4153 10.8829,22.8031 33.3244,40.0515 58.5575,45.007 4.8649,0.9554 87.327,1.8364 183.2491,1.9578 l 174.4039,0.2207 z m 68.9482,53.7334 c -2.7448,-2.7449 -3.165,-11.6836 -3.165,-67.3286 0,-55.6451 0.4202,-64.5838 3.165,-67.3286 2.7728,-2.7728 13.2399,-3.1651 84.4485,-3.1651 71.2087,0 81.6757,0.3923 84.4486,3.1651 2.7448,2.7448 3.1649,11.6835 3.1649,67.3286 0,55.645 -0.4201,64.5837 -3.1649,67.3286 -2.7729,2.7727 -13.2399,3.165 -84.4486,3.165 -71.2086,0 -81.6757,-0.3923 -84.4485,-3.165 z m 155.9492,-67.3286 v -54.3808 h -71.5007 -71.5006 v 54.3808 54.3807 h 71.5006 71.5007 z m 70.4936,66.4654 c -3.9827,-3.9826 -4.0282,-6.7137 -4.0282,-241.2443 0,-211.4393 0.3408,-237.7025 3.1354,-241.6924 l 3.1353,-4.4764 h 188.8087 c 144.1657,0 189.3801,0.5715 191.2256,2.4169 1.7283,1.7283 2.4169,14.6201 2.4169,45.2465 0,40.283 -0.2316,42.9535 -3.8958,44.9145 -2.5352,1.3568 -38.7623,2.085 -103.7264,2.085 h -99.8304 v 47.2729 47.2728 l 92.5495,0.5621 c 72.5671,0.4407 93.1146,1.1264 95.1663,3.1757 3.3634,3.359 4.8983,77.3576 1.7753,85.572 l -2.0798,5.4702 h -93.7055 -93.7058 v 56.3949 56.3949 h 101.3094 c 76.1107,0 101.9106,0.6012 103.7263,2.4169 1.7283,1.7283 2.4169,14.6201 2.4169,45.2465 0,40.283 -0.2316,42.9535 -3.8958,44.9145 -2.6049,1.3942 -65.6687,2.085 -190.3328,2.085 -183.7515,0 -186.4949,-0.058 -190.4651,-4.0282 z m 368.5809,-43.3032 V 579.4962 H 2842.417 c -88.7338,0 -100.9336,-0.3723 -103.7264,-3.1651 -2.7482,-2.7483 -3.1649,-11.8431 -3.1649,-69.0837 0,-48.5847 0.6356,-66.5543 2.4169,-68.3357 1.8103,-1.8102 25.8252,-2.4169 95.6699,-2.4169 h 93.253 v -32.2257 -32.2256 h -93.253 c -69.8447,0 -93.8596,-0.6067 -95.6699,-2.4169 -1.7676,-1.7677 -2.4169,-17.9607 -2.4169,-60.2793 0,-49.9166 0.4346,-58.2969 3.1649,-61.0273 2.794,-2.7939 15.1102,-3.165 105.0204,-3.165 h 101.8552 l -1.2938,-12.3801 c -0.7118,-6.8091 -1.2941,-20.8574 -1.2941,-31.2186 V 182.7178 H 2764.7302 2586.482 v 229.6078 229.6078 h 178.2482 178.2481 z m 61.574,44.1664 c -2.7449,-2.7449 -3.165,-11.6836 -3.165,-67.3286 0,-55.6451 0.4201,-64.5838 3.165,-67.3286 2.7728,-2.7728 13.2399,-3.1651 84.4485,-3.1651 71.2086,0 81.6757,0.3923 84.4485,3.1651 2.7448,2.7448 3.165,11.6835 3.165,67.3286 0,55.645 -0.4202,64.5837 -3.165,67.3286 -2.7728,2.7727 -13.2399,3.165 -84.4485,3.165 -71.2086,0 -81.6757,-0.3923 -84.4485,-3.165 z m 155.9492,-67.3286 v -54.3808 h -71.5007 -71.5007 v 54.3808 54.3807 h 71.5007 71.5007 z m 70.4936,66.4654 c -3.9827,-3.9826 -4.0282,-6.7137 -4.0282,-241.2443 0,-211.4393 0.3408,-237.7025 3.1353,-241.6924 l 3.1354,-4.4764 h 109.5106 c 90.711,0 109.9902,0.4798 112.305,2.7946 1.5372,1.537 38.9886,83.1106 83.2258,181.2746 l 80.431,178.48 0.5144,-178.5638 c 0.3683,-127.8625 1.1532,-179.3335 2.7643,-181.2746 3.0586,-3.6855 78.2564,-3.9553 81.9178,-0.2939 1.8528,1.8528 2.417,58.4666 2.417,242.5556 0,215.6225 -0.3231,240.4619 -3.165,243.3038 -2.7978,2.7976 -15.5539,3.165 -109.9012,3.165 -61.7419,0 -108.2073,-0.7875 -110.2264,-1.8681 -2.0336,-1.0884 -37.4931,-77.2823 -84.9635,-182.5669 l -81.4729,-180.6988 -1.0071,179.7084 c -0.9804,174.9566 -1.1104,179.7841 -4.9166,182.567 -3.0298,2.2151 -11.9819,2.8584 -39.7786,2.8584 -33.1835,0 -36.1704,-0.3016 -39.8971,-4.0282 z m 68.4795,-206.199 c 0,-209.5823 -0.5011,-199.8852 10.2461,-198.2869 3.7249,0.5539 10.3108,13.7292 41.6074,83.2364 20.45,45.418 60.1774,133.3336 88.2832,195.368 l 51.1014,112.7898 99.7491,0.5223 99.7488,0.5224 V 412.3444 182.7178 h -27.1904 -27.1904 v 189.4581 c 0,126.7466 -0.6902,190.7477 -2.085,193.3539 -2.865,5.3535 -11.2024,4.9971 -14.8769,-0.6359 -2.3237,-3.5624 -117.2023,-256.9729 -163.8931,-361.5316 l -9.2187,-20.6446 h -101.3382 -101.3382 v 229.6079 229.6077 h 28.1974 28.1975 z"
     id="path1124-3" /></g></svg>
