<?xml version="1.0" encoding="UTF-8" standalone="no"?>
<!-- Generator: Adobe Illustrator 19.0.0, SVG Export Plug-In . SVG Version: 6.00 Build 0)  -->

<svg
   xmlns:dc="http://purl.org/dc/elements/1.1/"
   xmlns:cc="http://creativecommons.org/ns#"
   xmlns:rdf="http://www.w3.org/1999/02/22-rdf-syntax-ns#"
   xmlns:svg="http://www.w3.org/2000/svg"
   xmlns="http://www.w3.org/2000/svg"
   xmlns:sodipodi="http://sodipodi.sourceforge.net/DTD/sodipodi-0.dtd"
   xmlns:inkscape="http://www.inkscape.org/namespaces/inkscape"
   version="1.1"
   id="Ebene_1"
   sodipodi:docname="logo.svg"
   inkscape:version="0.92.5 (2060ec1f9f, 2020-04-08)"
   x="0px"
   y="0px"
   viewBox="-22 283.2 566.9 226.8"
   xml:space="preserve"><metadata
   id="metadata8"><rdf:RDF><cc:Work
       rdf:about=""><dc:format>image/svg+xml</dc:format><dc:type
         rdf:resource="http://purl.org/dc/dcmitype/StillImage" /></cc:Work></rdf:RDF></metadata><defs
   id="defs6" />
<sodipodi:namedview
   inkscape:cy="140.561"
   inkscape:cx="88.337832"
   borderopacity="1"
   pagecolor="#ffffff"
   gridtolerance="10"
   objecttolerance="10"
   bordercolor="#666666"
   id="namedview4058"
   guidetolerance="10"
   inkscape:zoom="1.0865558"
   showgrid="false"
   inkscape:window-y="0"
   inkscape:pageopacity="0"
   inkscape:window-x="0"
   inkscape:window-height="1141"
   inkscape:window-width="1920"
   inkscape:pageshadow="2"
   inkscape:snap-grids="false"
   inkscape:current-layer="Ebene_1"
   inkscape:window-maximized="1">
	<inkscape:grid
   type="xygrid"
   id="grid3869"
   snapvisiblegridlinesonly="true"
   enabled="true"
   empspacing="5"
   visible="true">
		</inkscape:grid>
</sodipodi:namedview>
<path
   id="path4056"
   d="m 3.3048674,293.32373 v 14.11625 H 103.84896 v -14.11625 z m 114.7514126,0 v 14.11625 h 143.25711 c 0,0 -14.66268,-14.11625 -33.97006,-14.11625 z m 171.30746,0 v 14.11625 h 86.60999 l -5.10007,-14.11625 z m 148.72146,0 -5.10006,14.11625 h 85.88141 V 293.32373 Z M 3.3048674,320.82764 v 14.11625 H 103.84896 v -14.11625 z m 114.7514126,0 v 14.11625 h 159.83231 c 0,0 -1.91252,-10.83764 -5.10006,-14.11625 z m 171.30746,0 v 14.11625 h 96.1726 l -4.73577,-14.11625 z m 138.43027,0 -4.73578,14.11625 h 95.71725 V 320.82764 Z M 32.174865,348.33155 v 14.11625 h 43.532677 v -14.11625 z m 114.751405,0 v 14.11625 h 43.53268 v -14.11625 z m 85.88141,0 v 14.11625 h 43.53268 c 0,0 2.73218,-7.46795 2.73218,-14.11625 z m 85.42605,0 v 14.11625 h 77.13845 l -5.10006,-14.11625 z m 100.08873,0 -5.19113,14.11625 h 77.59381 V 348.33155 Z M 32.174865,375.83546 v 14.11624 h 43.532677 v -14.11624 z m 114.751405,0 v 14.11624 h 111.19958 c 0,0 9.2894,-7.2858 12.2948,-14.11624 z m 171.30746,0 v 14.11624 h 43.53268 v -7.83223 l 2.73218,7.83223 h 79.68847 l 3.0054,-7.83223 v 7.83223 h 43.53268 v -14.11624 h -81.69208 l -4.37148,11.9305 -4.37148,-11.9305 z M 32.174865,403.2483 v 14.11624 H 75.707542 V 403.2483 Z m 114.751405,0 v 14.11624 h 123.4033 C 267.32418,410.5341 258.03478,403.2483 258.03478,403.2483 Z m 171.30746,0 v 14.11624 h 43.53268 V 403.2483 Z m 51.45599,0 5.28221,14.11624 h 59.74359 l 5.00899,-14.11624 z m 77.50274,0 v 14.11624 h 43.53268 V 403.2483 Z M 32.174865,430.7522 v 14.11625 H 75.707542 V 430.7522 Z m 114.751405,0 v 14.11625 h 43.53268 V 430.7522 Z m 85.88141,0 v 14.11625 h 46.26486 c 0,-6.6483 -2.73218,-14.11625 -2.73218,-14.11625 z m 85.42605,0 v 14.11625 h 43.53268 V 430.7522 Z m 61.29183,0 5.10006,14.11625 h 40.07192 l 5.10006,-14.11625 z m 67.6669,0 v 14.11625 h 43.53268 V 430.7522 Z M 4.1245203,458.25611 v 14.11625 H 104.57754 v -14.11625 z m 113.9317597,0 v 14.11625 h 154.73225 c 3.27861,-3.27861 5.10006,-14.11625 5.10006,-14.11625 z m 172.12711,0 v 14.11625 h 71.58302 v -14.11625 z m 99.26907,0 5.28221,14.11625 h 20.40025 l 4.91792,-14.11625 z m 57.74,0 v 14.11625 h 72.40267 V 458.25611 Z M 4.1245203,485.76002 v 14.11625 H 104.57754 v -14.11625 z m 113.9317597,0 v 14.11625 h 109.19598 c 19.39845,0 33.97006,-14.11625 33.97006,-14.11625 z m 172.12711,0 v 14.11625 h 71.58302 v -14.11625 z m 109.19598,0 5.00899,14.11625 h 0.91073 l 5.10006,-14.11625 z m 47.81309,0 v 14.11625 h 72.40267 v -14.11625 z"
   inkscape:connector-curvature="0"
   style="fill:#1f70c1;stroke-width:0.91072547" />
</svg>