<?xml version="1.0" encoding="UTF-8" standalone="no"?>
<!-- Generator: Adobe Illustrator 19.0.0, SVG Export Plug-In . SVG Version: 6.00 Build 0)  -->

<svg
   xmlns:dc="http://purl.org/dc/elements/1.1/"
   xmlns:cc="http://creativecommons.org/ns#"
   xmlns:rdf="http://www.w3.org/1999/02/22-rdf-syntax-ns#"
   xmlns:svg="http://www.w3.org/2000/svg"
   xmlns="http://www.w3.org/2000/svg"
   xmlns:sodipodi="http://sodipodi.sourceforge.net/DTD/sodipodi-0.dtd"
   xmlns:inkscape="http://www.inkscape.org/namespaces/inkscape"
   version="1.1"
   id="Layer_1"
   x="0px"
   y="0px"
   viewBox="-201 259.7 620 274.3"
   xml:space="preserve"
   sodipodi:docname="logo.svg"
   width="620"
   height="274.29999"
   inkscape:version="0.92.5 (2060ec1f9f, 2020-04-08)"><metadata
   id="metadata33"><rdf:RDF><cc:Work
       rdf:about=""><dc:format>image/svg+xml</dc:format><dc:type
         rdf:resource="http://purl.org/dc/dcmitype/StillImage" /><dc:title></dc:title></cc:Work></rdf:RDF></metadata><defs
   id="defs31" /><sodipodi:namedview
   pagecolor="#ffffff"
   bordercolor="#666666"
   borderopacity="1"
   objecttolerance="10"
   gridtolerance="10"
   guidetolerance="10"
   inkscape:pageopacity="0"
   inkscape:pageshadow="2"
   inkscape:window-width="3840"
   inkscape:window-height="2065"
   id="namedview29"
   showgrid="false"
   inkscape:zoom="1.4691342"
   inkscape:cx="-140.72757"
   inkscape:cy="268.16867"
   inkscape:window-x="0"
   inkscape:window-y="0"
   inkscape:window-maximized="1"
   inkscape:current-layer="Layer_1" />
<g
   id="g26"
   transform="translate(-146.44424,0.01072886)">
	<g
   id="g4">
		<path
   d="m 29.9,461.3 c -0.4,0 -0.8,-0.1 -1.2,-0.3 -38,-18.4 -57.6,-39.9 -56.7,-62.1 0.7,-18.3 15.6,-35.6 43.2,-50 26.1,-13.6 63,-24.5 106.6,-31.3 1.5,-0.2 2.8,0.8 3,2.2 0.2,1.5 -0.8,2.8 -2.2,3 -88.3,14 -143.9,43.2 -145.2,76.3 -0.8,19.7 18.3,40 53.7,57.1 1.3,0.6 1.9,2.2 1.2,3.6 -0.4,1 -1.4,1.5 -2.4,1.5 z"
   id="path2"
   inkscape:connector-curvature="0"
   style="fill:#ff0000" />
	</g>
	<g
   id="g8">
		<path
   d="m 361,324.8 c -0.1,0 -0.3,0 -0.4,0 -28.1,-4.6 -57.7,-7.7 -88,-9.1 -1.5,-0.1 -2.6,-1.3 -2.5,-2.8 0.1,-1.5 1.3,-2.6 2.8,-2.5 30.6,1.5 60.4,4.6 88.6,9.2 1.4,0.2 2.4,1.6 2.2,3.1 -0.3,1.2 -1.4,2.1 -2.7,2.1 z"
   id="path6"
   inkscape:connector-curvature="0"
   style="fill:#ff0000" />
	</g>
	<g
   id="g12">
		<path
   d="m 277.2,506.7 c -0.7,0 -1.5,0 -2.2,0 -1.5,0 -2.7,-1.2 -2.7,-2.7 0,-1.5 1.2,-2.7 2.7,-2.7 0,0 0,0 0,0 0.7,0 1.5,0 2.2,0 142.5,0 255,-37 256.4,-84.6 0.5,-16.7 -12.9,-33.6 -38.7,-48.9 -25.7,-15.3 -62.6,-28.3 -106.7,-37.6 -1.4,-0.3 -2.4,-1.7 -2.1,-3.2 0.3,-1.4 1.7,-2.4 3.2,-2.1 44.6,9.5 82,22.7 108.3,38.2 27.6,16.4 41.9,34.9 41.3,53.6 -0.8,25.3 -28.8,48.4 -78.7,65 -48.3,16.2 -113.3,25 -183,25 z"
   id="path10"
   inkscape:connector-curvature="0"
   style="fill:#ff0000" />
	</g>
	<polygon
   points="309.6,377.4 332.8,401.5 325.4,368.1 395.7,314.5 313.1,347.4 289.9,323.3 297.3,356.8 227,410.3 "
   id="polygon14"
   style="fill:#ff0000" />
	<g
   id="g24">
		<path
   d="m 237.4,435 c 1,-5 2.8,-4.2 7.9,-5 l 4.7,-0.7 -1.5,7.8 -4.7,0.7 c -5,0.7 -7.3,2.1 -6.4,-2.8 z m -10.2,-7.2 -3.6,19.6 c -1,5.4 0.6,7.1 5.8,6.3 l 29.8,-4.7 6.4,-34.4 -29.8,4.7 c -5.2,0.8 -7.6,3.2 -8.6,8.5 z m 189.4,-30.9 -0.3,1.9 30.8,-4.9 c 2.4,-0.4 4.8,-2.8 5.3,-5.5 0.5,-2.7 -1.1,-4.5 -3.5,-4.1 l -7.9,1.2 -12.6,2 -3.2,0.5 c -3.8,0.6 -7.9,4.8 -8.6,8.9 z m -215.9,88.6 0.3,-1.4 c 1.1,0.1 2.5,0.5 3.7,0.3 l 32,-5 c -1.2,6.4 -9.6,8 -22.5,10 l -14.6,2.3 -7.8,42.2 19.2,-3 c 47.3,-4.7 65.4,-29.1 71.1,-58.3 l 57.7,-9.2 9.3,-50 4.7,-0.8 c 5.1,-0.8 4.4,-1.7 3.4,3.6 l -8.5,45.8 41.4,-6.6 0.6,-3 c 3.1,1.4 6.8,1.9 10.6,1.3 l 71.6,-11.4 6.7,-36 -4.6,-3.3 c 4,-4.8 7.2,-10.6 8.1,-15.5 l 1.1,-5.7 c 3.6,-21.2 -16,-26.8 -24.9,-25.4 l -41.1,6.5 c -7.3,1.2 -15.3,6.2 -21.1,12.9 -5.4,-5.3 -13.7,-7.4 -18.6,-6.6 l -45.8,7.3 5.1,11.3 41.3,-6.5 c 6,-0.9 9.9,1.4 11,6.1 -0.4,1.2 -11,57.6 -11,57.6 l -14.8,2.3 7.9,-42.6 c 1,-5.3 -0.6,-7.1 -5.8,-6.3 l -28.4,4.5 -9.3,50 -16.3,2.6 10.6,-57.3 -13.4,-15.8 -48.1,17.6 22.8,-3.6 0.4,-0.1 -14.5,78.2 c -3.7,19.9 -24.9,38.8 -43.7,41.8 l -19.2,3 2.9,-15.6 14.6,-2.3 c 12.9,-2 27.3,-14.9 29.8,-28.4 l 1.6,-8.5 -38.1,6 c -8.2,1.3 -12.6,-3.7 -11,-12.3 l 6.8,-36.7 c 1.2,-6.5 5.3,-12 10.7,-14.8 l 0.1,-1 19.1,-14.7 -11.2,1.9 c -5.9,0.9 -17,5.4 -24,14.3 -5.3,-6.3 -14.5,-8.8 -19.8,-8 l -41.1,6.5 6.7,-36 30,-4.8 c 15.9,-2.5 33.6,-20.5 36.7,-37.3 l 4.5,-24.2 c 3.1,-16.9 -8.7,-30.1 -24.7,-27.6 l -65.5,10.4 -13.9,75 -60.3,9.6 c -5.1,0.8 -10.1,5.8 -11.1,11.2 L 28,503.5 c -1,5.4 2.3,9.1 7.4,8.3 l 115,-18.3 9.3,-50 4.7,-0.7 c 5.2,-0.8 4.4,-1.7 3.4,3.6 l -8.5,45.8 z m -85.3,-27.4 -38.5,6.1 1.4,-7.8 31.1,-4.9 7.6,-40.6 -31.1,4.9 1.4,-7.8 38.5,-6.1 z m -2.4,12.5 -3.2,17.2 -68,10.8 21.2,-114.1 56.2,-8.9 -2.9,15.6 -39.9,6.3 -6.1,32.8 32.5,-5.2 -2.9,15.6 -32.5,5.3 -6.1,32.8 z m 78.2,4.3 -16.3,2.6 7.9,-42.6 c 1,-5.3 -0.6,-7.1 -5.8,-6.3 l -28.4,4.5 -9.3,50 -16.3,2.6 12.2,-65.7 0.4,-0.1 54,-8.6 c 8.2,-1.3 12.6,3.7 11,12.3 z m 105.7,-80.5 15.9,-2.5 -12.2,65.7 -16.3,2.6 12.2,-65.6 z m 98.7,31 5.6,-30.4 c 1.8,-9.6 12.1,-19 20.9,-20.4 l 38,-6 c 6.4,-1 10.9,6.1 9.6,13.1 l -1.9,9.8 c -1.3,7 -8.5,14.5 -14.9,15.5 l -39.5,6.3 -0.6,3.5 c -0.8,4 1.9,7.2 5.6,6.6 l 44.1,-7 -3,16 -49.8,7.9 c -8.5,1.3 -15.8,-5.3 -14.1,-14.9 z m -235.4,-85.2 5.5,-29.7 20.7,-3.3 c 2.7,-0.4 4.1,1.1 3.6,4 l -3.8,20.3 c -0.5,2.9 -2.6,5 -5.3,5.4 z"
   id="path16"
   inkscape:connector-curvature="0"
   style="fill:#ff0000" />
		<g
   id="g22">
			<path
   d="m 292.6,354.1 -4.4,-17.4 -2.5,0.3 -0.8,4.3 c -0.6,3 -2.9,5.4 -5.8,5.9 l -17,2.7 c -2.8,0.4 -4.4,-1.3 -3.9,-4.3 l 8.6,-46.1 c 0.5,-3 2.9,-5.4 5.7,-5.8 l 17,-2.7 c 2.8,-0.4 4.4,1.3 3.9,4.3 l -1.1,5.9 34.4,-5.5 1.3,-7 c 3.3,-17.7 -8.8,-31.2 -25.6,-28.6 l -32.9,5.2 c -16.8,2.7 -34.8,20.9 -38,38.7 l -9.2,49.2 c -3.3,17.7 8.8,31.2 25.6,28.6 l 11,-1.7 z"
   id="path18"
   inkscape:connector-curvature="0"
   style="fill:#ff0000" />
			<path
   d="m 317,343.6 c 0.9,-2.4 1.5,-3.3 2,-5.8 l 1.2,-6.3 -13.7,2.2 z"
   id="path20"
   inkscape:connector-curvature="0"
   style="fill:#ff0000" />
		</g>
	</g>
</g>
</svg>