<?xml version="1.0" encoding="UTF-8" standalone="no"?>
<!-- Generator: Adobe Illustrator 13.0.0, SVG Export Plug-In . SVG Version: 6.00 Build 14948)  -->

<svg
   xmlns:dc="http://purl.org/dc/elements/1.1/"
   xmlns:cc="http://creativecommons.org/ns#"
   xmlns:rdf="http://www.w3.org/1999/02/22-rdf-syntax-ns#"
   xmlns:svg="http://www.w3.org/2000/svg"
   xmlns="http://www.w3.org/2000/svg"
   xmlns:sodipodi="http://sodipodi.sourceforge.net/DTD/sodipodi-0.dtd"
   xmlns:inkscape="http://www.inkscape.org/namespaces/inkscape"
   version="1.1"
   id="Layer_1"
   x="0px"
   y="0px"
   width="240"
   height="116"
   viewBox="169.102 12.001 240 116"
   enable-background="new 169.102 12.001 246.295 124.395"
   xml:space="preserve"
   sodipodi:docname="logo.svg"
   inkscape:version="0.92.5 (2060ec1f9f, 2020-04-08)"><metadata
   id="metadata101"><rdf:RDF><cc:Work
       rdf:about=""><dc:format>image/svg+xml</dc:format><dc:type
         rdf:resource="http://purl.org/dc/dcmitype/StillImage" /><dc:title></dc:title></cc:Work></rdf:RDF></metadata><defs
   id="defs99" /><sodipodi:namedview
   pagecolor="#ffffff"
   bordercolor="#666666"
   borderopacity="1"
   objecttolerance="10"
   gridtolerance="10"
   guidetolerance="10"
   inkscape:pageopacity="0"
   inkscape:pageshadow="2"
   inkscape:window-width="3840"
   inkscape:window-height="2065"
   id="namedview97"
   showgrid="false"
   inkscape:zoom="3.8756722"
   inkscape:cx="105.61814"
   inkscape:cy="81.878227"
   inkscape:window-x="0"
   inkscape:window-y="0"
   inkscape:window-maximized="1"
   inkscape:current-layer="Layer_1" />
<linearGradient
   id="SVGID_1_"
   gradientUnits="userSpaceOnUse"
   x1="-458.33011"
   y1="157.1563"
   x2="-458.33011"
   y2="230.7196"
   gradientTransform="matrix(1,0,0,-1,654,245.8398)">
	<stop
   offset="0"
   style="stop-color:#9B9B9B"
   id="stop2" />
	<stop
   offset="1"
   style="stop-color:#5B5C60"
   id="stop4" />
</linearGradient>

<linearGradient
   id="SVGID_2_"
   gradientUnits="userSpaceOnUse"
   x1="-408.3584"
   y1="157.1563"
   x2="-408.3584"
   y2="230.7195"
   gradientTransform="matrix(1,0,0,-1,654,245.8398)">
	<stop
   offset="0"
   style="stop-color:#9B9B9B"
   id="stop9" />
	<stop
   offset="1"
   style="stop-color:#5B5C60"
   id="stop11" />
</linearGradient>

<linearGradient
   id="SVGID_3_"
   gradientUnits="userSpaceOnUse"
   x1="-360.36331"
   y1="157.1563"
   x2="-360.36331"
   y2="230.7198"
   gradientTransform="matrix(1,0,0,-1,654,245.8398)">
	<stop
   offset="0"
   style="stop-color:#9B9B9B"
   id="stop16" />
	<stop
   offset="1"
   style="stop-color:#5B5C60"
   id="stop18" />
</linearGradient>

<linearGradient
   id="SVGID_4_"
   gradientUnits="userSpaceOnUse"
   x1="-310.68549"
   y1="157.1563"
   x2="-310.68549"
   y2="230.7196"
   gradientTransform="matrix(1,0,0,-1,654,245.8398)">
	<stop
   offset="0"
   style="stop-color:#9B9B9B"
   id="stop23" />
	<stop
   offset="1"
   style="stop-color:#5B5C60"
   id="stop25" />
</linearGradient>

<linearGradient
   id="SVGID_5_"
   gradientUnits="userSpaceOnUse"
   x1="-263.42239"
   y1="157.1563"
   x2="-263.42239"
   y2="230.7195"
   gradientTransform="matrix(1,0,0,-1,654,245.8398)">
	<stop
   offset="0"
   style="stop-color:#9B9B9B"
   id="stop30" />
	<stop
   offset="1"
   style="stop-color:#5B5C60"
   id="stop32" />
</linearGradient>

<linearGradient
   id="SVGID_6_"
   gradientUnits="userSpaceOnUse"
   x1="-457.4707"
   y1="112.8584"
   x2="-457.4707"
   y2="189.39571"
   gradientTransform="matrix(1,0,0,-1,654,245.8398)">
	<stop
   offset="0"
   style="stop-color:#F9DA55"
   id="stop37" />
	<stop
   offset="1"
   style="stop-color:#E04305"
   id="stop39" />
</linearGradient>

<linearGradient
   id="SVGID_7_"
   gradientUnits="userSpaceOnUse"
   x1="-408.3779"
   y1="112.8594"
   x2="-408.3779"
   y2="189.3956"
   gradientTransform="matrix(1,0,0,-1,654,245.8398)">
	<stop
   offset="0"
   style="stop-color:#F9DA55"
   id="stop44" />
	<stop
   offset="1"
   style="stop-color:#E04305"
   id="stop46" />
</linearGradient>

<linearGradient
   id="SVGID_8_"
   gradientUnits="userSpaceOnUse"
   x1="-359.7236"
   y1="112.8584"
   x2="-359.7236"
   y2="189.39841"
   gradientTransform="matrix(1,0,0,-1,654,245.8398)">
	<stop
   offset="0"
   style="stop-color:#F9DA55"
   id="stop51" />
	<stop
   offset="1"
   style="stop-color:#E04305"
   id="stop53" />
</linearGradient>

<linearGradient
   id="SVGID_9_"
   gradientUnits="userSpaceOnUse"
   x1="-310.99661"
   y1="112.8594"
   x2="-310.99661"
   y2="189.396"
   gradientTransform="matrix(1,0,0,-1,654,245.8398)">
	<stop
   offset="0"
   style="stop-color:#F9DA55"
   id="stop58" />
	<stop
   offset="1"
   style="stop-color:#E04305"
   id="stop60" />
</linearGradient>

<linearGradient
   id="SVGID_10_"
   gradientUnits="userSpaceOnUse"
   x1="-262.5625"
   y1="112.8584"
   x2="-262.5625"
   y2="189.397"
   gradientTransform="matrix(1,0,0,-1,654,245.8398)">
	<stop
   offset="0"
   style="stop-color:#F9DA55"
   id="stop65" />
	<stop
   offset="1"
   style="stop-color:#E04305"
   id="stop67" />
</linearGradient>












<g
   id="g930"
   transform="matrix(0.92034648,0,0,0.92034648,20.131662,1.7122115)"><path
     id="path7"
     d="m 174.233,127.865 1.17,-2.779 V 17.825 l -2.926,-3.659 h 36.438 l 9.95,6 v 49.898 l -27.071,15.071 v 25.462 h 3.659 z M 191.5,66.845 203.207,59.822 V 31.433 H 191.5 Z"
     style="fill:url(#SVGID_1_)"
     inkscape:connector-curvature="0" /><path
     id="path14"
     d="m 261.152,14.166 6.439,7.463 v 85.166 l -23.852,20.192 -20.047,-18.585 V 22.214 l 6.146,-8.048 z M 240.227,29.97 v 65.848 l 9.805,8.634 V 29.969 Z"
     style="fill:url(#SVGID_2_)"
     inkscape:connector-curvature="0" /><path
     id="path21"
     d="M 272.857,125.378 V 17.825 l -2.926,-3.659 h 36.436 l 9.95,6 v 30.876 l -15.364,8.78 15.364,8.193 v 28.242 l 1.025,0.879 -16.975,12.437 v -34.68 l -11.12,-5.854 v 44.046 l 2.195,3.22 -20.196,14.926 z m 16.096,-74.629 11.706,-7.024 V 31.433 h -11.706 z"
     style="fill:url(#SVGID_3_)"
     inkscape:connector-curvature="0" /><path
     id="path28"
     d="M 334.608,31.433 H 321.584 V 17.824 l -2.926,-3.659 h 49.313 l -2.926,3.659 v 13.609 h -14.196 v 83.553 l 2.342,3.513 -20.341,14.633 1.756,-7.902 V 31.433 Z"
     style="fill:url(#SVGID_4_)"
     inkscape:connector-curvature="0" /><path
     id="path35"
     d="m 403.82,14.166 9.951,6 v 14.78 h -17.56 v -3.512 h -9.805 v 21.803 l 27.364,14.778 v 24.146 l -44.632,35.704 1.172,-2.779 V 77.088 h 16.096 v 10.39 l 9.805,-7.17 v -6 L 370.312,59.674 V 17.825 l -2.928,-3.659 z"
     style="fill:url(#SVGID_5_)"
     inkscape:connector-curvature="0" /><path
     id="path42"
     d="m 218.845,60.32 v 9.688 l -27.072,15.071 v 25.461 h 3.659 l -21.218,17.268 1.171,-2.779 V 85.201"
     style="fill:url(#SVGID_6_)"
     inkscape:connector-curvature="0" /><path
     id="path49"
     d="m 267.572,84.119 v 22.616 L 243.72,126.928 223.673,108.343 V 59.869 l 16.535,9.014 V 95.76 l 9.804,8.634 V 74.475 Z"
     style="fill:url(#SVGID_7_)"
     inkscape:connector-curvature="0" /><path
     id="path56"
     d="m 289.227,76.907 v 36.121 l 2.195,3.219 -20.193,14.927 1.609,-5.853 V 84.66 m 39.232,-18.957 4.229,2.256 V 96.2 l 1.025,0.878 -16.976,12.438 v -34.68 l -3.292,-1.732"
     style="fill:url(#SVGID_8_)"
     inkscape:connector-curvature="0" /><path
     id="path63"
     d="m 350.833,74.203 v 40.727 l 2.341,3.512 -20.34,14.633 1.756,-7.902 V 64.017"
     style="fill:url(#SVGID_9_)"
     inkscape:connector-curvature="0" /><path
     id="path70"
     d="m 403.894,62.633 9.859,5.326 v 24.145 l -44.632,35.704 1.171,-2.779 V 77.031 h 16.096 v 10.391 l 9.805,-7.171 v -5.999 l -8.329,-4.708"
     style="fill:url(#SVGID_10_)"
     inkscape:connector-curvature="0" /><polygon
     id="polygon72"
     points="218.364,61.898 176.986,85.834 175.901,83.96 217.281,60.023 "
     style="fill:#542209" /><polygon
     id="polygon74"
     points="240.721,67.934 239.693,69.834 224.338,61.506 225.372,59.604 "
     style="fill:#542209" /><polygon
     id="polygon76"
     points="267.461,83.153 266.36,85.018 250.54,75.686 251.64,73.821 "
     style="fill:#542209" /><polygon
     id="polygon78"
     points="289.441,77.885 273.89,85.727 272.914,83.797 288.465,75.953 "
     style="fill:#542209" /><polygon
     id="polygon80"
     points="310.551,67.059 298.246,73.549 297.238,71.634 309.542,65.143 "
     style="fill:#542209" /><polygon
     id="polygon82"
     points="349.724,72.229 348.532,74.035 335.008,65.109 336.201,63.305 "
     style="fill:#542209" /><polygon
     id="polygon84"
     points="402.721,63.839 388.793,70.195 387.895,68.225 401.821,61.869 "
     style="fill:#542209" /><path
     id="path86"
     d="M 173.778,124.217 V 17.852 l -4.677,-5.849 h 40.263 l 11.12,6.705 v 51.77 l -27.071,15.07 v 22.886 h 6.599 l -24.756,20.146 -5.048,4.107 z m 1.949,3.735 -1.496,-0.629 z m 1.298,-111.24 v 106.244 l 13.857,-11.277 h -0.714 V 83.641 l 27.068,-15.072 v -48.03 l -8.775,-5.291 -32.612,-0.002 z m 12.85,12.558 h 14.953 v 30.929 l -12.496,7.495 -0.835,-1.391 0.835,1.391 -2.458,1.479 V 29.27 Z m 3.245,34.167 8.46,-5.075 V 32.515 l -8.46,-0.002 z"
     inkscape:connector-curvature="0" /><path
     id="path88"
     d="M 222.067,108.567 V 21.124 l 6.965,-9.121 h 32.118 v 1.622 -1.622 h 0.741 l 7.321,8.48 v 86.52 l -25.525,21.61 z m 3.245,-86.344 v 84.932 l 18.474,17.124 22.18,-18.776 V 21.689 l -5.56,-6.442 h -29.767 z m 13.291,73.786 v -66.58 -1.623 h 13.049 v 79.7 z m 3.245,-1.465 6.558,5.775 V 31.052 h -6.558 z m -1.622,-63.492 v -1.623 z"
     inkscape:connector-curvature="0" /><path
     id="path90"
     d="m 271.232,124.612 -0.002,-106.76 -4.678,-5.85 h 40.263 l 11.123,6.707 v 32.734 l -13.632,7.788 13.632,7.271 -0.002,28.469 2.014,1.724 -21.208,15.534 V 75.331 l -7.875,-4.145 v 40.857 l 2.794,4.095 -25.226,18.644 z m 3.246,0.443 -0.425,1.541 15.167,-11.209 -1.598,-2.346 V 65.812 l 14.365,7.56 -0.002,32.458 12.744,-9.337 -0.039,-0.031 V 68.448 L 297.592,59.33 314.69,49.559 V 20.54 l -8.779,-5.293 h -32.606 l 1.174,1.466 V 124.835 Z M 287.329,29.27 h 14.952 V 44.1 l -12.494,7.499 -0.836,-1.392 0.836,1.392 -2.458,1.475 z m 3.245,18.071 8.461,-5.078 v -9.75 h -8.461 z"
     inkscape:connector-curvature="0" /><path
     id="path92"
     d="M 332.982,124.512 V 32.514 H 319.96 V 17.852 l -4.677,-5.849 h 56.064 l -4.681,5.851 v 14.66 h -14.195 v 81.442 l 2.938,4.403 -25.068,18.037 z M 336.23,29.27 v 95.597 l -0.874,3.924 15.613,-11.234 -1.743,-2.619 V 29.27 H 363.42 V 16.713 l 1.173,-1.465 h -42.562 l 1.174,1.465 V 29.27 h 11.4 v 1.623 -1.623 z"
     inkscape:connector-curvature="0" /><path
     id="path94"
     d="M 368.687,124.216 V 74.923 h 19.341 v 8.813 l 6.559,-4.794 V 74.71 L 368.689,60.08 V 17.853 l -4.678,-5.851 h 39.81 v 1.623 -1.623 h 0.453 l 11.123,6.706 V 36.027 H 394.59 v -3.512 h -6.561 v 19.212 l 27.367,14.781 V 92.4 l -50.234,40.179 z m 3.246,-1.206 40.212,-32.17 V 68.441 L 384.782,53.662 V 29.269 h 13.051 l -0.002,3.511 h 14.315 V 20.539 l -8.775,-5.291 -32.613,-0.002 1.176,1.468 -0.003,41.471 25.902,14.633 v 7.769 l -13.051,9.546 V 78.169 h -12.849 z"
     inkscape:connector-curvature="0" /></g>
</svg>