<?xml version="1.0" encoding="UTF-8" standalone="no"?>
<!-- Generator: Adobe Illustrator 14.0.0, SVG Export Plug-In . SVG Version: 6.00 Build 43363)  -->

<svg
   xmlns:dc="http://purl.org/dc/elements/1.1/"
   xmlns:cc="http://creativecommons.org/ns#"
   xmlns:rdf="http://www.w3.org/1999/02/22-rdf-syntax-ns#"
   xmlns:svg="http://www.w3.org/2000/svg"
   xmlns="http://www.w3.org/2000/svg"
   xmlns:sodipodi="http://sodipodi.sourceforge.net/DTD/sodipodi-0.dtd"
   xmlns:inkscape="http://www.inkscape.org/namespaces/inkscape"
   version="1.0"
   id="Ebene_1"
   x="0px"
   y="0px"
   width="322"
   height="66"
   viewBox="0 0 322 66"
   enable-background="new 0 0 667 279.5"
   xml:space="preserve"
   sodipodi:docname="logo.svg"
   inkscape:version="0.92.5 (2060ec1f9f, 2020-04-08)"><metadata
   id="metadata47"><rdf:RDF><cc:Work
       rdf:about=""><dc:format>image/svg+xml</dc:format><dc:type
         rdf:resource="http://purl.org/dc/dcmitype/StillImage" /><dc:title></dc:title></cc:Work></rdf:RDF></metadata><defs
   id="defs45" /><sodipodi:namedview
   pagecolor="#ffffff"
   bordercolor="#666666"
   borderopacity="1"
   objecttolerance="10"
   gridtolerance="10"
   guidetolerance="10"
   inkscape:pageopacity="0"
   inkscape:pageshadow="2"
   inkscape:window-width="3840"
   inkscape:window-height="2065"
   id="namedview43"
   showgrid="false"
   inkscape:zoom="2.2804397"
   inkscape:cx="58.068174"
   inkscape:cy="167.39551"
   inkscape:window-x="0"
   inkscape:window-y="0"
   inkscape:window-maximized="1"
   inkscape:current-layer="Ebene_1" />

<g
   transform="translate(-30.7665,-26.62)"
   id="g12"><polygon
     points="349.669,91.934 348.698,91.934 346.746,86.045 346.746,91.934 345.765,91.934 345.765,84.686 347.116,84.686 349.219,90.877 351.251,84.686 352.603,84.686 352.603,91.934 351.622,91.934 351.622,86.045 "
     id="polygon2" /><polygon
     points="344.863,85.516 342.54,85.516 342.54,91.934 341.56,91.934 341.56,85.516 339.236,85.516 339.236,84.686 344.863,84.686 "
     id="polygon4" /><path
     inkscape:connector-curvature="0"
     d="m 331.947,78.118 v 0 h -13.367 0.451 c -0.221,0 -0.451,-0.227 -0.451,-0.453 V 34.1 c 0,-6.645 -4.586,-8.835 -11.113,-4.908 L 229.81,77.136 c -3.004,1.887 -4.056,4.001 -3.305,5.587 0.601,1.359 2.323,2.34 5.707,2.34 h 72.101 c 0.221,0 0.37,0.152 0.37,0.303 v 6.115 c 0,0.303 0.23,0.453 0.451,0.453 h 12.996 c 0.23,0 0.45,-0.15 0.45,-0.453 v -5.965 c 0,-0.227 0.23,-0.453 0.451,-0.453 h 12.916 c 0.3,0 0.45,-0.227 0.45,-0.452 v -6.04 c 0,-0.227 -0.15,-0.453 -0.45,-0.453 z m -27.184,-0.453 v 0 c 0,0.227 -0.229,0.453 -0.45,0.453 h -60.466 c -0.521,0 -0.751,-0.151 -0.821,-0.303 -0.08,-0.301 0.07,-0.527 0.451,-0.754 l 60.155,-37.224 c 0.38,-0.302 1.131,-0.226 1.131,0.604 z"
     id="path6" /><path
     inkscape:connector-curvature="0"
     d="m 231.981,27.229 v 0 l -42.133,0.076 c -12.235,0 -18.172,7.475 -18.172,17.29 V 74.57 c 0,6.115 -2.934,10.494 -8.941,10.494 h -39.652 c -0.225,0 -0.451,0.152 -0.451,0.453 v 5.965 c 0,0.303 0.226,0.529 0.451,0.529 h 44.157 c 12.246,0 18.253,-7.626 18.253,-17.441 V 44.594 c 0,-6.115 2.854,-10.494 8.941,-10.494 h 37.547 c 0.23,0 0.451,-0.228 0.451,-0.454 v -5.964 c 0.001,-0.227 -0.22,-0.453 -0.451,-0.453 z"
     id="path8" /><path
     inkscape:connector-curvature="0"
     d="m 107.537,27.304 v 0 H 31.381 c -0.301,0 -0.451,0.151 -0.451,0.378 v 5.964 c 0,0.302 0.15,0.454 0.451,0.454 h 71.574 c 6.084,0 8.938,4.379 8.938,10.494 0,6.116 -2.854,10.495 -8.938,10.495 H 46.326 c -8.787,0 -15.396,7.475 -15.396,17.291 v 19.102 c 0,0.303 0.15,0.529 0.451,0.529 h 12.918 c 0.225,0 0.451,-0.227 0.451,-0.529 V 72.379 c 0,-6.115 3.454,-10.344 8.486,-10.344 h 54.301 c 12.241,0 18.175,-7.55 18.175,-17.441 0,-9.815 -5.934,-17.29 -18.175,-17.29 z"
     id="path10" /></g></svg>