<?xml version="1.0" encoding="utf-8"?>
<!-- Generator: Adobe Illustrator 19.0.0, SVG Export Plug-In . SVG Version: 6.00 Build 0)  -->
<svg version="1.1" baseProfile="tiny"
	 id="svg2" xmlns:inkscape="http://www.inkscape.org/namespaces/inkscape" xmlns:ns="ns_sfw;" xmlns:sodipodi="http://sodipodi.sourceforge.net/DTD/sodipodi-0.dtd" xmlns:svg="http://www.w3.org/2000/svg" xmlns:cc="http://creativecommons.org/ns#" xmlns:dc="http://purl.org/dc/elements/1.1/" xmlns:rdf="http://www.w3.org/1999/02/22-rdf-syntax-ns#" inkscape:version="0.91 r13725" sodipodi:docname="system_svg carbon_new.svg"
	 xmlns="http://www.w3.org/2000/svg" xmlns:xlink="http://www.w3.org/1999/xlink" x="0px" y="0px" viewBox="-23 340 564 113"
	 xml:space="preserve">
<sodipodi:namedview  inkscape:window-y="0" inkscape:window-x="0" inkscape:window-maximized="0" inkscape:window-height="901" objecttolerance="10" borderopacity="1" pagecolor="#ffffff" inkscape:zoom="0.90391815" guidetolerance="10" showgrid="false" inkscape:cy="180.77778" inkscape:cx="244.49234" gridtolerance="10" bordercolor="#666666" id="namedview19" inkscape:pageshadow="2" inkscape:window-width="1611" inkscape:pageopacity="0" inkscape:current-layer="svg2">
	</sodipodi:namedview>
<g>
	<g id="g4209">
		<g id="g4783">
			<path id="path7" inkscape:connector-curvature="0" fill="#DE1528" d="M57.4,363.5L57.3,453l-24-7.8V340l30.6,8.1
				c19.6,5.3,31.6,15.5,31.4,33.4c-0.2,20.9-9.8,29.3-28.7,23.8v-41.2C66.7,359.2,57.4,358.9,57.4,363.5L57.4,363.5z"/>
			<path id="path9" inkscape:connector-curvature="0" fill="#F4CB0E" d="M22.3,427.8L11,431.6c-7.3,2.5-13.6-3.4-6.8-5.9l5.5-1.9
				l-20.6-6.5c-6.3,2.1-12.3,6.7-11.9,13.2c0.4,6.5,15.3,8.1,26.8,9.9c10.7,1.8,20.5,0.8,29.4-2.3v-6.7L22.3,427.8L22.3,427.8
				L22.3,427.8z M57.5,453l21-7.3L57.3,439v13.6L57.5,453L57.5,453z"/>
			<path id="path16" inkscape:connector-curvature="0" fill="#4177B3" d="M113.3,433.4l0.4-0.1c9.2-3.2,13.1-7.7,12.1-11.9
				c-1.6-7-12.8-10.8-30-12.1c-12.4-0.9-24.6,1.9-36.5,5.9l-1.9,0.7l21.4,6.6l12.5-4.2c13.1-2.4,18.3,1.9,5.8,5.9l-6.2,2.1
				L113.3,433.4L113.3,433.4L113.3,433.4z M33.3,402.4l-9.5,3.2l9.5,2.9V402.4L33.3,402.4z"/>
			<path id="path13" inkscape:connector-curvature="0" fill="#1BA0A5" d="M78.5,445.7l34.8-12.3l-22.6-7l-33.3,11.4v1.2L78.5,445.7
				L78.5,445.7z M33.3,424.1l-11,3.7l11,3.5V424.1L33.3,424.1z M57.3,429.9V416l21.4,6.6L57.3,429.9L57.3,429.9z M9.6,423.8
				l23.7-8.5v-6.8l-9.5-2.9l-34.3,11.6c-0.1,0-0.3,0.1-0.5,0.1L9.6,423.8L9.6,423.8z"/>
		</g>
	</g>
	<g id="g4781" transform="matrix(1.2243408,0,0,1.2243408,61.37105,-612.11356)">
		<path id="path3003" inkscape:connector-curvature="0" d="M64.9,801.3V847H72v-41.3h6.6c0,0,4.8,0,6.4,2.1c1.4,1.8,1.7,5.1,1.7,7.4
			c0,2.4-0.2,6.1-1,7.4c-1.2,2.1-3.2,2.5-5,2.5h-4.4v4.1h6.3c0,0,5.7,0.2,8.1-2.2c3-3,3.7-7.1,3.7-12.6c0-5-1.8-10-5.5-11.7
			c-3-1.4-8.5-1.4-8.5-1.4H64.9"/>
		<path id="path3005" inkscape:connector-curvature="0" d="M100.1,847h7.1v-45.7h-7.1V847z"/>
		<path id="path3007" inkscape:connector-curvature="0" d="M145.2,812l13.1,34.2l-7.5,18.4h5.9l21.6-52.6h-6.6l-9.4,25.6l-8.7-25.6
			L145.2,812"/>
		<path id="path3009" inkscape:connector-curvature="0" d="M183.6,846.7v-4.3c0,0,7.5,0.3,9.1,0.3c3.5,0,5.2-0.7,6.5-2.1
			c0.8-0.8,1.5-4.6,1.5-5.9c0-1.3-0.3-4.2-0.8-5.4c-0.5-1.1-1.8-2.2-3.6-2.4c-1.3-0.1-3.3-0.4-5.7-0.5c-3.3-0.2-5.5-1.9-6.5-3.1
			c-1-1.2-2.4-3.1-2.4-8.8s1.5-8.9,3-10.4s3.6-2.1,5.3-2.4c1.9-0.3,5-0.3,5-0.3l10,0.3v4.3c0,0-7.3-0.3-8.9-0.3
			c-3.5,0-4.5,0.7-5.8,2.1c-0.8,0.8-1.4,3.1-1.4,4.5c0,1.3,0.2,4,0.7,5.2c0.5,1.1,1.7,2.2,3.6,2.4c1.3,0.1,3.3,0.4,5.7,0.5
			c3.3,0.2,5.5,1.9,6.5,3.1c1,1.2,2.4,3.9,2.4,9.5c0,5.7-1.5,9.8-3,11.3s-3.6,2.1-5.3,2.4c-1.9,0.3-5,0.4-5,0.4L183.6,846.7"/>
		<path id="path3011" inkscape:connector-curvature="0" d="M222.5,805.7h-7.1v33.5c0,0,0.2,3.1,0.3,4.1c0.2,1.1,1.7,3.6,5.8,3.6
			l7.4-0.1v-4.3c0,0-2,0.1-3.2,0.1s-2.7-0.1-3-2.1c-0.3-2.1-0.3-4.5-0.3-4.5v-19.8h8.1v-4.3h-8.1L222.5,805.7"/>
		<path id="path3013" inkscape:connector-curvature="0" d="M291.4,847h7.1v-35h-7.1V847z"/>
		<path id="path3015" inkscape:connector-curvature="0" d="M291.4,807.7h7.1v-6.4h-7.1V807.7z"/>
		<path id="path3017" inkscape:connector-curvature="0" d="M321.1,811.7c4.9,0,8.6,1.1,10.6,2.7c2,1.6,4.6,5.1,4.6,15.1
			s-2.5,13.5-4.6,15.1c-2,1.6-5.8,2.7-10.6,2.7c-4.9,0-8.6-1.1-10.7-2.7c-2-1.6-4.5-5.1-4.5-15.1s2.5-13.5,4.5-15.1
			C312.5,812.7,316.2,811.7,321.1,811.7z M316.2,818.4c-1,1.2-2.2,3.7-2.2,11.1c0,7.4,1.2,9.9,2.2,11.1c1,1.2,2.8,2,5.1,2
			c2.3,0,4.1-0.8,5.1-2s2.2-3.7,2.2-11.1c0-7.4-1.2-9.9-2.2-11.1c-1-1.2-2.8-2-5.1-2C319,816.4,317.2,817.2,316.2,818.4"/>
		<path id="path3019" inkscape:connector-curvature="0" d="M351,816.9l7-0.3c1.8,0,4,0.5,5,1.8c1,1.2,1.6,2.7,1.6,5.1v23.4h7.1v-24
			c0-4.5-1.4-7.2-3.5-8.8c-3-2.4-8.4-2.1-8.4-2.1l-16,0.3V847h7.1L351,816.9"/>
		<path id="path3021" inkscape:connector-curvature="0" d="M277.2,805.7h-7.1v33.5c0,0,0.2,3.1,0.3,4.1c0.2,1.1,1.7,3.6,5.8,3.6
			l7.4-0.1v-4.3c0,0-2,0.1-3.2,0.1s-2.7-0.1-3-2.1c-0.3-2.1-0.3-4.5-0.3-4.5v-19.8h8v-4.3h-8v-6.2"/>
		<path id="path3023" inkscape:connector-curvature="0" d="M134.3,823.5c0-2.4-0.6-3.9-1.6-5.1c-1-1.3-3.2-1.8-5-1.8l-9.4,0.3v-4.7
			l11.3-0.3c0,0,5.4-0.2,8.4,2.1c2.1,1.7,3.5,4.3,3.5,8.8v23.7l-13.7,0.3c0,0-6.2,0-9.3-1.2c-3-1.2-4.7-4.6-4.7-9.3
			c0-4.5,1.4-7.2,3.5-8.8c3-2.4,8.4-2.1,8.4-2.1h4.4v4h-2.4c-1.8,0-3.7,0.3-4.8,1.7c-1,1.2-1.5,2.3-1.5,4.7c0,3.1,0.6,4.6,2.1,5.6
			c1.3,1,3.6,1.2,6.3,1.2l4.7-0.3L134.3,823.5"/>
		<path id="path3025" inkscape:connector-curvature="0" d="M254.6,823.5c0-2.4-0.6-3.9-1.6-5.1c-1.1-1.3-3.2-1.8-5-1.8l-9.4,0.3
			v-4.7l11.3-0.3c0,0,5.4-0.2,8.3,2.1c2.1,1.7,3.5,4.3,3.5,8.8v23.7l-13.7,0.3c0,0-6.2,0-9.3-1.2c-3-1.2-4.7-4.6-4.7-9.3
			c0-4.5,1.4-7.2,3.5-8.8c3-2.4,8.4-2.1,8.4-2.1h4.4v4h-2.5c-1.8,0-3.7,0.3-4.8,1.7c-1,1.2-1.5,2.3-1.5,4.7c0,3.1,0.6,4.6,2.1,5.6
			c1.3,1,3.7,1.2,6.3,1.2l4.7-0.3V823.5"/>
		<path id="path3027" inkscape:connector-curvature="0" d="M384.7,847.3c1.9,0,3.6-0.7,4.9-2s2-3.1,2-4.9c0-1.9-0.7-3.6-2-4.9
			c-1.3-1.3-3.1-2-4.9-2c-3.8,0-7,3.1-7,7c0,1.9,0.7,3.6,2,4.9C381.1,846.6,382.9,847.3,384.7,847.3L384.7,847.3z M378.9,840.3
			c0-1.5,0.6-3,1.7-4.1s2.5-1.7,4.1-1.7s3,0.6,4.1,1.7c1.1,1.1,1.7,2.5,1.7,4.1c0,3.2-2.6,5.8-5.8,5.8c-1.5,0-3-0.6-4.1-1.7
			C379.5,843.3,378.9,841.9,378.9,840.3"/>
		<path id="path3029" inkscape:connector-curvature="0" d="M388.2,843.6c-0.1,0-0.2-0.2-0.2-0.3s-0.1-0.3-0.1-0.6v-1
			c0-0.5-0.1-0.8-0.3-1c-0.1-0.2-0.3-0.3-0.5-0.4c0.2-0.2,0.4-0.3,0.6-0.6s0.3-0.7,0.3-1.2c0-0.9-0.4-1.6-1.1-1.9
			c-0.4-0.2-0.9-0.3-1.5-0.3h-3.6v7.8h1.3v-3.2h2.1c0.4,0,0.7,0,0.8,0.1c0.3,0.1,0.4,0.4,0.4,0.8l0.1,1.2c0,0.3,0,0.5,0.1,0.6
			c0,0.1,0.1,0.2,0.1,0.3l0.1,0.1h1.5L388.2,843.6L388.2,843.6L388.2,843.6z M386.6,838.6c0,0.4-0.1,0.7-0.3,0.9
			c-0.2,0.2-0.6,0.3-1,0.3h-2.2v-2.2h2.3c0.3,0,0.6,0,0.7,0.1C386.5,837.8,386.6,838.1,386.6,838.6"/>
	</g>
</g>
</svg>
