<?xml version="1.0" encoding="utf-8"?>
<!-- Generator: Adobe Illustrator 19.0.0, SVG Export Plug-In . SVG Version: 6.00 Build 0)  -->
<svg version="1.1" baseProfile="tiny" id="Ebene_2" xmlns="http://www.w3.org/2000/svg" xmlns:xlink="http://www.w3.org/1999/xlink"
	 x="0px" y="0px" viewBox="-22 358.8 566.9 77.2" xml:space="preserve">
<g>
	<rect x="-17.1" y="363.7" width="536.6" height="67.4"/>
	<g>
		<g>
			<path fill="#B2AE85" d="M54.5,385.4l-1.6-0.7c0.1-0.3,0.2-0.7,0.2-1.1c0-1-9.1-6.6-25-6.6c-15.1,0-21.7,3.8-21.7,8.8
				c0,13.1,57.2-6.1,57.2,22.9c0,10.5-12.4,18.7-37.3,18.7c-23.7,0-30.5-6.2-32.7-6.2c-0.6,0-0.9,0.4-1.4,0.6l-1.3-0.2l8.1-13.6
				l1.6,0.6c0,0.3-0.2,0.6-0.2,1.3c0,4.7,12.5,8.1,25,8.1c17.7,0,23.7-4.2,23.7-8.5c0-15.7-56.4,3.8-56.4-22.8c0-13.4,17.2-19,36-19
				c16.9,0,28.7,6.1,29.9,6.1c1.3,0,1.5-0.3,1.7-0.6l1.6,0.4L54.5,385.4z"/>
			<path fill="#B2AE85" d="M71.2,425.4c2.1,0,2.5-0.6,2.5-2.4v-51.1c0-1.8-0.4-2.4-2.5-2.4v-1.1h63c2.3,0,3.3-0.6,3.3-1.8h1.4v13.3
				h-1.4c0-1.4-1-2.1-3.3-2.1H87.5V392H118c2.3,0,3.3-0.6,3.3-2.1h1.4v13.4h-1.4c0-0.6-0.2-1.1-0.8-1.4c-0.5-0.3-1.4-0.5-2.5-0.5
				H87.5v15.7h47.6c2.3,0,3.3-0.6,3.3-1.9h1.4v13.1h-1.4c0-1.1-1-1.8-3.3-1.8H71.2V425.4z"/>
			<path fill="#B2AE85" d="M225.9,395.8v1.1c-1,0.2-1.8,0.8-1.8,2.6v15.7c0,1.3,0.5,1.8,1.7,2v1.1c-6.1,2.9-21.1,9-37.9,9
				c-22.3,0-41.9-9.1-41.9-29.9c0-20.8,22.9-29.9,43.1-29.9c8,0,15.5,1.5,21.1,3c5.1,1.8,8.9,3.3,9.6,3.3c0.9,0,1.7-0.4,2.1-0.9
				l1.4,0.5l-9.4,13.1l-1.4-0.7c0.1-0.3,0.2-0.8,0.2-1.4c0-2.5-10.5-7.4-23.4-7.4c-16.3,0-29.5,6.6-29.5,20.1
				c0,14.1,13.2,20.8,28.2,20.8c12.2,0,19.4-3.4,22.3-5.2V406h-16.7c-1.9,0-3.1,0.8-3.1,1.9h-1.4v-14.1h1.4c0,1.1,1.2,1.9,3.1,1.9
				H225.9z"/>
			<path fill="#B2AE85" d="M230.7,426.5v-1.1c1.7-0.1,2.3-0.5,3.7-3l26.5-49.1c0.5-0.8,1.1-1.7,1.1-2.4c0-0.9-0.8-1.3-2-1.4v-1.1
				h21.2v1.1c-1.5,0.2-2,0.6-2,1.2c0,0.6,0.4,1.3,0.9,2.1l28.2,49.6c1.4,2.5,1.7,3,3.8,3v1.1h-19.3v-1.1c1.3,0,1.7-0.4,1.7-0.8
				c0-0.9-0.9-2-7.4-13.4h-33.3c-5.6,10.4-7.1,12-7.1,13c0,0.7,0.6,1.1,1.5,1.2v1.1L230.7,426.5L230.7,426.5z M281.3,402l-11.7-20.9
				L258.2,402H281.3z"/>
		</g>
		<g>
			<path fill="#B2AE85" d="M524.5,436H-22v-77.2h546.5V436z M-17.1,431.1h536.6v-67.4H-17.1V431.1z"/>
		</g>
		<g>
			<polygon fill="#B2AE85" points="526.2,360.2 529.5,360.2 529.5,369.1 531.1,369.1 531.1,360.2 534.5,360.2 534.5,358.8 
				526.2,358.8 			"/>
			<polygon fill="#B2AE85" points="542.9,358.8 539.8,366.9 536.8,358.8 534.7,358.8 534.7,369.1 536.3,369.1 536.3,361.4 
				539.1,369.1 540.5,369.1 543.4,361.4 543.4,369.1 544.9,369.1 544.9,358.8 			"/>
		</g>
		<path fill="#B2AE85" d="M328.7,368.3v58.2h186.9v-58.2H328.7z M336.7,409.1c-1.6-10.4,32.9-24.2,77.7-31.4c-1,0.3-3,0.8-3,0.8
			s-4.4,1.1-5.6,1.4c-22.9,5.6-38.9,15.7-37.5,24.6c1.4,9.1,20.5,14.1,44.8,12.4c1.4-0.1,6.1-0.3,7.2-0.4
			C375.1,422.6,338.2,419.5,336.7,409.1z M448.7,411.4c-9.9,2.3-22.3,4.2-22.3,4.2v-26l6.4,21.1c0,0,15.2-2.5,26.8-7.3
			c10.1-4.2,16.3-9.5,15.9-15.1c-0.7-9.1-20.1-14-44-12.4c-1.6,0.1-6.9,0.4-7.9,0.4c45-6.2,81.9-3.1,83.5,7.3
			C508.4,392.4,483.7,403.7,448.7,411.4z"/>
	</g>
</g>
</svg>
