<?xml version="1.0" encoding="UTF-8" standalone="no"?>
<!-- Generator: Adobe Illustrator 19.0.0, SVG Export Plug-In . SVG Version: 6.00 Build 0)  -->

<svg
   xmlns:dc="http://purl.org/dc/elements/1.1/"
   xmlns:cc="http://creativecommons.org/ns#"
   xmlns:rdf="http://www.w3.org/1999/02/22-rdf-syntax-ns#"
   xmlns:svg="http://www.w3.org/2000/svg"
   xmlns="http://www.w3.org/2000/svg"
   xmlns:sodipodi="http://sodipodi.sourceforge.net/DTD/sodipodi-0.dtd"
   xmlns:inkscape="http://www.inkscape.org/namespaces/inkscape"
   version="1.1"
   id="Layer_1"
   x="0px"
   y="0px"
   viewBox="0 0 146 39.999998"
   xml:space="preserve"
   sodipodi:docname="logo.svg"
   width="146"
   height="40"
   inkscape:version="0.92.5 (2060ec1f9f, 2020-04-08)"><metadata
   id="metadata58"><rdf:RDF><cc:Work
       rdf:about=""><dc:format>image/svg+xml</dc:format><dc:type
         rdf:resource="http://purl.org/dc/dcmitype/StillImage" /><dc:title></dc:title></cc:Work></rdf:RDF></metadata><defs
   id="defs56" /><sodipodi:namedview
   pagecolor="#ffffff"
   bordercolor="#666666"
   borderopacity="1"
   objecttolerance="10"
   gridtolerance="10"
   guidetolerance="10"
   inkscape:pageopacity="0"
   inkscape:pageshadow="2"
   inkscape:window-width="3840"
   inkscape:window-height="2065"
   id="namedview54"
   showgrid="false"
   inkscape:zoom="9.3085325"
   inkscape:cx="79.514585"
   inkscape:cy="28.12814"
   inkscape:window-x="0"
   inkscape:window-y="0"
   inkscape:window-maximized="1"
   inkscape:current-layer="Layer_1" />
<g
   id="g51"
   transform="translate(-19.65,2.05)">
	<g
   id="g4">
		<polygon
   points="154.6,20.5 29.2,20.5 45.2,35.9 161.1,35.9 161.1,34.9 161.1,26.1 "
   id="polygon2" />
	</g>
	<g
   id="g8">
		<path
   d="m 50.5,0 v 4.1 c 0,0.8 -0.5,1.4 -1.6,1.7 -1,0.3 -2.4,0.5 -4.1,0.5 C 43,6.3 41.6,6.1 40.5,5.8 39.5,5.5 39,5 39,4.3 V 0 h 4.4 v 4 c 0,0.3 0.1,0.5 0.4,0.7 0.3,0.1 0.7,0.2 1.4,0.2 0.5,0 0.9,0 1.3,-0.1 C 46.8,4.6 47,4.5 47,4.4 47.1,4.3 47.1,4 47.1,3.7 V 0 Z"
   id="path6"
   inkscape:connector-curvature="0" />
	</g>
	<g
   id="g12">
		<path
   d="M 56.3,4 V 6.3 H 52.4 V 0 h 5.3 c 1.3,0 2.3,0.1 3,0.2 0.7,0.2 1.2,0.4 1.6,0.7 C 62.7,1.2 63,1.6 63,2 63,2.6 62.6,3.1 61.8,3.4 60.9,3.8 59.8,4 58.4,4 Z M 56.2,2.6 h 1.3 c 1.1,0 1.7,-0.2 1.7,-0.6 0,-0.4 -0.5,-0.6 -1.6,-0.6 h -1.4 z"
   id="path10"
   inkscape:connector-curvature="0" />
	</g>
	<g
   id="g16">
		<path
   d="M 73.4,4.8 V 6.3 H 64 V 0 h 9.4 v 1.4 h -5.6 v 0.9 h 4.6 v 1.4 h -4.6 v 1 h 5.6 z"
   id="path14"
   inkscape:connector-curvature="0" />
	</g>
	<g
   id="g20">
		<path
   d="M 85,6.3 H 80.8 L 79,3.9 H 77.8 V 6.3 H 74 V 0 h 6.4 c 1.4,0 2.5,0.2 3.3,0.5 0.9,0.3 1.3,0.8 1.3,1.3 0,0.4 -0.1,0.7 -0.4,1 -0.3,0.3 -0.9,0.5 -1.7,0.7 z M 77.9,2.5 h 1.6 C 80,2.5 80.4,2.4 80.6,2.3 80.9,2.3 81,2.1 81,1.9 81,1.5 80.5,1.3 79.6,1.3 h -1.7 z"
   id="path18"
   inkscape:connector-curvature="0" />
	</g>
	<g
   id="g24">
		<path
   d="M 32.1,6.4 C 31.1,6.4 30.3,6.3 29.5,6.2 28.7,6.1 28.2,5.9 27.7,5.7 27.2,5.5 26.8,5.2 26.6,5 26.3,4.7 26.2,4.4 26.2,4.1 h 2.5 c 0,0.2 0.2,0.4 0.4,0.6 0.2,0.2 0.4,0.3 0.7,0.4 0.3,0.1 0.6,0.2 1,0.2 0.4,0 0.8,0.1 1.2,0.1 0.4,0 0.8,0 1.1,-0.1 0.3,0 0.6,-0.1 0.9,-0.2 C 34.2,5 34.4,4.9 34.6,4.8 34.7,4.7 34.8,4.6 34.8,4.5 34.8,4.4 34.7,4.3 34.6,4.2 34.5,4.1 34.3,4 34,3.9 33.7,3.8 33.3,3.8 32.9,3.7 32.4,3.6 31.8,3.6 31.2,3.5 30.4,3.4 29.7,3.3 29.2,3.2 28.6,3.1 28.2,3 27.8,2.8 27.4,2.7 27.2,2.5 27,2.3 26.8,2.1 26.7,1.9 26.7,1.7 c 0,-0.3 0.1,-0.5 0.4,-0.7 0.2,-0.2 0.6,-0.4 1,-0.6 0.4,-0.2 1,-0.3 1.6,-0.4 0.5,0 1.2,0 2,0 0.8,0 1.5,0 2.1,0.1 0.6,0.1 1.2,0.2 1.7,0.4 0.5,0.2 0.8,0.4 1.1,0.7 0.3,0.3 0.4,0.6 0.4,0.9 H 34.5 C 34.3,1.4 33.4,1 31.7,1 c -0.8,0 -1.5,0.1 -1.9,0.2 -0.4,0.1 -0.7,0.3 -0.7,0.5 0,0.1 0,0.2 0.1,0.2 0.1,0 0.3,0.1 0.5,0.2 0.2,0.1 0.5,0.1 0.8,0.2 0.3,0 0.7,0.1 1.2,0.1 0.4,0 0.8,0.1 1.3,0.1 0.4,0 0.9,0.1 1.3,0.2 0.4,0.1 0.8,0.1 1.2,0.2 0.4,0.1 0.7,0.2 1,0.3 0.3,0.1 0.5,0.3 0.7,0.5 0.2,0.2 0.2,0.4 0.2,0.6 0,0.3 -0.1,0.5 -0.4,0.8 -0.3,0.2 -0.6,0.4 -1.1,0.6 -0.5,0.2 -1,0.3 -1.7,0.4 -0.6,0.2 -1.3,0.3 -2.1,0.3 z"
   id="path22"
   inkscape:connector-curvature="0" />
	</g>
	<g
   id="g32">
		<g
   id="g30">
			<path
   d="m 150.5,16.6 h -1.1 v 2.8 h -0.7 v -2.8 h -1.1 V 16 h 2.9 z"
   id="path26"
   inkscape:connector-curvature="0" />
			<path
   d="m 154.6,19.4 h -0.7 v -2.2 l -0.8,2.2 h -0.6 l -0.8,-2.2 v 2.2 H 151 V 16 h 0.9 l 0.8,2.4 0.8,-2.4 h 0.9 v 3.4 z"
   id="path28"
   inkscape:connector-curvature="0" />
		</g>
	</g>
	<path
   d="m 61.4,33.3 v -4.8 l 0.7,-0.2 c 7.2,-2.7 18.7,-9.1 19.3,-11.1 0.1,-0.3 0,-0.6 -0.2,-1 -0.5,-0.6 -1.4,-1.1 -2.3,-1.1 -1.2,0 -2.3,0.8 -2.5,1.8 l -0.1,0.7 H 75.4 61.1 l 0.3,-1.3 c 1.4,-5.5 8.4,-9.1 17.7,-9.1 10.4,0 17.7,3.7 17.7,9.1 0,3.8 -3.9,6.9 -11.8,9.4 h 11.1 v 7.4 H 61.4 Z"
   id="path34"
   inkscape:connector-curvature="0" />
	<path
   d="m 82.1,17.4 c 0.5,-1.7 -1.6,-3.3 -3.6,-3.3 -1.7,0 -3.1,1.1 -3.5,2.6 v 0 H 62.3 C 63.5,12 69.8,8.4 79,8.4 c 9.2,0 16.7,3.2 16.7,8.1 0,4.3 -6.1,7.2 -13.7,9.2 v 1.2 h 13.1 v 5.4 H 62.3 V 29.2 C 68.1,27 81.4,20.3 82.1,17.4 Z"
   id="path36"
   inkscape:connector-curvature="0"
   style="fill:#ffffff" />
	<path
   d="M 42.5,34.4 C 38,34.4 29.8,33.8 26.1,30.1 24.9,28.8 24.2,27.4 24.2,25.7 v -1 h 1 12.7 0.9 l 0.2,0.8 c 0.1,0.8 1.4,1.6 3.3,1.6 2.1,0 3.7,-0.9 3.7,-1.8 0,-0.9 -1.6,-1.8 -3.7,-1.8 h -0.1 c -0.2,0 -0.3,0 -0.5,0 l -1.1,0.2 V 17 l 1.5,0.2 c 0.1,0 0.2,0 0.4,0 1.7,0 2.9,-0.8 2.9,-1.6 0,-0.8 -1.3,-1.6 -2.9,-1.6 -1.6,0 -2.8,0.7 -2.9,1.4 l -0.2,0.8 H 38.5 25.6 v -1 c 0,-2.1 2,-4.4 5,-5.8 2.9,-1.4 7,-2.1 12.2,-2.1 8.4,0 16.9,2.4 16.9,6.9 0,1.9 -1.7,3.8 -4.3,5.1 3.8,1.4 5.3,4 5.3,6.1 0.1,5.2 -8,9 -18.2,9 z"
   id="path38"
   inkscape:connector-curvature="0" />
	<path
   id="XMLID_1_"
   d="M 25.2,25.7 H 38 v 0 c 0.3,1.4 2.1,2.5 4.3,2.5 2.6,0 4.7,-1.3 4.7,-2.8 0,-1.5 -2.1,-2.8 -4.7,-2.8 -0.3,0 -0.5,0 -0.8,0 v -2.3 -2.1 0 c 0.3,0 0.5,0.1 0.8,0.1 2.2,0 3.9,-1.1 3.9,-2.6 0,-1.4 -1.8,-2.6 -3.9,-2.6 -2,0 -3.7,1 -3.9,2.3 v 0 H 26.6 c 0,-1.6 1.7,-3.6 4.4,-4.9 3,-1.4 7.1,-2 11.8,-2 9,0 15.9,2.6 15.9,5.9 0,2 -2.6,3.8 -6.8,4.8 v 1.1 c 5.2,0.6 7.7,2.7 7.7,5.4 0,4.2 -7.7,7.7 -17.3,7.7 -9.6,0 -17.1,-2.3 -17.1,-7.7"
   inkscape:connector-curvature="0"
   style="fill:#ffffff" />
	<polyline
   points="158.9,34.5 120.5,34.5 84.9,0 123.3,0 123.3,0.1 158.9,34.6  "
   id="polyline41"
   style="fill:#1d46a5" />
	<g
   id="g49">
		<polygon
   points="97.1,3.2 118.8,3.2 124.1,8 129.2,3.2 150.7,3.2 135,18 151.7,33.3 130,33.3 124.3,28.1 118.7,33.3 97.2,33.3 113.4,18.1 "
   id="polygon43" />
		<g
   id="g47">
			<path
   d="M 114.8,18.1 99.7,4.2 h 18.7 l 5.7,5.2 5.5,-5.2 h 18.6 L 133.5,18 149.1,32.3 h -18.7 l -6.1,-5.6 -5.9,5.6 H 99.7 Z"
   id="path45"
   inkscape:connector-curvature="0"
   style="fill:#ffffff" />
		</g>
	</g>
</g>
</svg>