<?xml version="1.0" encoding="UTF-8" standalone="no"?>
<!-- Generator: Adobe Illustrator 19.0.0, SVG Export Plug-In . SVG Version: 6.00 Build 0)  -->

<svg
   xmlns:dc="http://purl.org/dc/elements/1.1/"
   xmlns:cc="http://creativecommons.org/ns#"
   xmlns:rdf="http://www.w3.org/1999/02/22-rdf-syntax-ns#"
   xmlns:svg="http://www.w3.org/2000/svg"
   xmlns="http://www.w3.org/2000/svg"
   xmlns:sodipodi="http://sodipodi.sourceforge.net/DTD/sodipodi-0.dtd"
   xmlns:inkscape="http://www.inkscape.org/namespaces/inkscape"
   version="1.1"
   id="Layer_1"
   x="0px"
   y="0px"
   viewBox="0 0 220 71.8"
   xml:space="preserve"
   sodipodi:docname="logo.svg"
   width="220"
   height="71.800003"
   inkscape:version="0.92.5 (2060ec1f9f, 2020-04-08)"><metadata
   id="metadata45"><rdf:RDF><cc:Work
       rdf:about=""><dc:format>image/svg+xml</dc:format><dc:type
         rdf:resource="http://purl.org/dc/dcmitype/StillImage" /><dc:title></dc:title></cc:Work></rdf:RDF></metadata><defs
   id="defs43" /><sodipodi:namedview
   pagecolor="#ffffff"
   bordercolor="#666666"
   borderopacity="1"
   objecttolerance="10"
   gridtolerance="10"
   guidetolerance="10"
   inkscape:pageopacity="0"
   inkscape:pageshadow="2"
   inkscape:window-width="3840"
   inkscape:window-height="2065"
   id="namedview41"
   showgrid="false"
   inkscape:zoom="5.2110909"
   inkscape:cx="139.95669"
   inkscape:cy="37.651164"
   inkscape:window-x="0"
   inkscape:window-y="0"
   inkscape:window-maximized="1"
   inkscape:current-layer="Layer_1" />
<g
   id="g38"
   transform="translate(-55.5,-0.04999847)">
	<g
   id="g16">
		<g
   id="g8">
			<path
   d="m 157.1,28.6 c 1.7,-0.2 3.3,-0.4 5,-0.4 2.6,-0.1 5.2,0.4 7.8,0.8 1.9,0.5 3.7,1.1 5.5,1.8 2,0.8 3.9,2 5.3,3.6 1.2,1.2 2.1,2.8 2.4,4.5 0.1,1.6 0.3,3.3 -0.4,4.9 -0.5,1.3 -1.2,2.7 -2.2,3.7 -1.6,1.6 -3.6,2.7 -5.6,3.7 -1.2,0.6 -2.4,1.2 -3.7,1.7 -2.3,0.8 -4.6,1.7 -7,2.3 -2.5,0.6 -4.9,1.6 -7.4,2.4 -3.1,1.1 -6,2.5 -8.5,4.6 -0.4,0.3 -0.6,0.8 -0.9,1.2 0.5,0.5 1.3,0.3 2,0.4 11.1,0 22.3,0 33.4,0 0.5,0 1.1,0 1.6,-0.3 0.6,-0.4 1.1,-0.8 1.7,-1 0.2,1.3 0.1,2.6 0.2,3.9 0,1.8 0,3.6 -0.1,5.4 -0.2,0 -0.5,0.1 -0.7,0.1 -0.4,-0.4 -0.8,-1 -1.4,-1.1 -0.7,-0.2 -1.4,-0.2 -2.1,-0.2 -15.3,0 -30.6,0 -45.9,0 -0.4,0 -0.8,-0.2 -0.9,-0.5 -0.1,-1.9 0.4,-3.9 1.2,-5.7 1.2,-2.9 3.7,-5.1 6.1,-7 1.7,-1.1 3.4,-2.1 5.2,-2.9 1,-0.5 2,-1.1 3.1,-1.5 1.6,-0.6 3.2,-1.3 4.8,-1.9 2.3,-0.8 4.6,-1.7 6.8,-2.6 2.2,-0.8 4.3,-1.7 6.3,-2.9 1.6,-0.9 2.7,-2.3 3.6,-3.9 0.6,-1.4 -0.1,-2.9 -1,-4 -2.4,-2.1 -5.8,-2.7 -8.9,-2.9 -4.7,0 -9.5,1.4 -13.3,4.3 -0.7,0.5 -1.4,1 -1.9,1.7 -0.4,0.5 -0.7,1.1 -0.9,1.7 -0.2,0.7 0,1.4 0,2.1 -0.1,0.4 -0.7,0.3 -0.9,0.1 -1.4,-1.1 -2.5,-2.5 -3.9,-3.6 -1.1,-0.9 -2.1,-2 -3.2,-3 -0.4,-0.4 -0.9,-0.7 -0.9,-1.3 0.7,-0.2 1.4,-0.2 2,-0.5 1.3,-0.8 2.5,-1.8 3.8,-2.6 2.3,-1.4 4.6,-2.7 7.1,-3.5 2.4,-0.8 4.6,-1.4 6.8,-1.6 z"
   id="path2"
   inkscape:connector-curvature="0" />
			<path
   d="m 97.7,29.3 c 2.7,-0.5 5.4,-0.8 8.1,-0.9 3,0 6.1,-0.1 9.1,0.5 1.7,0.2 3.4,0.8 5.1,1.2 1.8,0.6 3.5,1.5 5.1,2.5 1.9,1.3 3.5,3.1 4.2,5.4 0.3,1.4 0.4,3 0,4.4 -0.3,0.9 -0.7,1.8 -1.4,2.5 -0.6,0.7 -1.5,1.1 -2.4,1.6 -0.9,0.5 -2,0.8 -2.9,1.3 0.2,0.2 0.2,0.5 0.4,0.6 1.1,0.5 2.4,0.8 3.5,1.4 1.7,0.8 3.1,2.1 4.4,3.4 0.9,1.1 1.5,2.4 1.7,3.9 0.1,0.9 0.3,1.8 0.1,2.7 -0.3,1.7 -1,3.4 -2.3,4.6 -1.8,1.9 -4.1,3.1 -6.5,4.2 -2.3,0.9 -4.7,1.6 -7.1,1.9 -4.7,0.8 -9.6,0.6 -14.3,0.4 C 99.3,70.6 96,70.3 92.9,69.5 90.4,68.8 88,68 85.6,67 84.8,66.6 83.9,66.2 83,66.1 c -0.7,0 -1.5,0.2 -2.2,0.2 -0.3,-0.1 -0.5,-0.4 -0.4,-0.6 0.3,-0.7 0.7,-1.3 1.1,-1.9 1,-1.6 1.9,-3.1 2.9,-4.7 0.4,-0.7 0.8,-1.4 1.3,-2 0.3,-0.4 0.9,-0.4 1.2,0.1 0.4,0.8 0.6,1.9 1.5,2.4 1.9,1.6 4.3,2.5 6.7,3.3 1.9,0.5 3.8,1 5.8,1.3 3.8,0.6 7.7,0.7 11.5,0.3 1.9,-0.3 3.8,-0.7 5.6,-1.4 1.6,-0.6 2.9,-1.8 3.8,-3.2 1.1,-1.7 0.2,-4 -1.4,-5.1 -2.2,-1.8 -5,-2.4 -7.7,-2.8 -2.2,-0.4 -4.5,-0.3 -6.7,-0.3 -1.4,0 -2.8,0.2 -4.2,0.6 -0.6,0.2 -1,0.8 -1.6,0.9 -0.5,-0.2 -0.4,-0.9 -0.4,-1.3 0,-2.5 -0.1,-5 0.1,-7.6 0.9,-0.1 1.5,0.7 2.4,0.8 3.1,0.8 6.4,0.4 9.6,0 1.8,-0.4 3.7,-0.5 5.2,-1.7 0.8,-0.7 1.6,-1.4 2.1,-2.4 0.4,-1.2 -0.1,-2.6 -1.1,-3.4 -0.7,-0.6 -1.5,-1.1 -2.3,-1.5 -1.9,-0.8 -3.9,-1 -5.9,-1.3 -2,-0.2 -4,0 -6,0.2 -2.7,0.2 -5.4,1 -7.9,2.1 -1.5,0.6 -2.9,1.5 -4.2,2.5 -0.6,0.7 -0.7,1.6 -0.7,2.5 0,0.4 -0.6,0.8 -0.9,0.5 -2.3,-2 -4.3,-4.4 -6.5,-6.5 -0.3,-0.3 -0.7,-0.6 -0.8,-1 0,-0.2 0.1,-0.4 0.2,-0.6 0.8,0.1 1.7,0.2 2.4,-0.2 2.1,-1 4.1,-2.2 6.2,-3.2 1.8,-0.7 3.9,-1.3 6,-1.8 z"
   id="path4"
   inkscape:connector-curvature="0" />
			<path
   d="m 191.8,28.3 c 5.1,-0.2 10.2,0 15.3,-0.1 0.5,0 1.1,-0.1 1.5,0.2 -0.2,0.5 -0.6,0.9 -0.8,1.4 1.6,1.9 3.5,3.5 5.1,5.4 1.9,1.9 3.8,3.8 5.7,5.8 0.3,0.3 0.7,0.7 1.2,0.4 1.1,-0.9 2,-2 3,-3 2.5,-2.5 4.9,-5.1 7.4,-7.6 0.3,-0.4 0.9,-0.7 0.7,-1.3 -0.2,-0.4 -0.5,-0.7 -0.7,-1.1 1.2,-0.2 2.5,-0.2 3.8,-0.2 4.2,0 8.4,0 12.6,0 0.4,-0.1 0.5,0.5 0.6,0.7 -0.9,0.4 -1.8,0.5 -2.7,0.9 -1.4,0.6 -2.4,1.9 -3.5,3 -1.6,1.6 -3.2,3.3 -4.8,4.9 -2.2,2.2 -4.4,4.4 -6.6,6.7 -1,1.1 -2.1,2.1 -3.1,3.2 -0.2,0.3 -0.5,0.7 -0.2,1.1 1,1.3 2.3,2.3 3.4,3.6 1,0.9 1.7,1.9 2.7,2.9 2.5,2.6 5.1,5.1 7.6,7.7 1.4,1.6 2.9,3 4.3,4.5 0.8,0.8 1.8,1.4 2.9,1.7 0.6,0.3 1.5,0.3 1.8,1 -0.9,0.2 -1.9,0.2 -2.8,0.2 -4,0 -8,0 -12,0 -0.7,0 -1.4,0.1 -2.1,-0.2 0.2,-0.4 0.6,-0.8 0.7,-1.3 -0.2,-0.3 -0.4,-0.6 -0.7,-0.8 -1,-1.1 -2.1,-2.1 -3.1,-3.2 -2.4,-2.8 -5.1,-5.2 -7.6,-7.9 -0.5,-0.5 -1,-1.2 -1.7,-1.5 -0.6,-0.4 -1.1,0.3 -1.5,0.6 -2.4,2.5 -4.9,4.9 -7.3,7.4 -1.4,1.7 -2.9,3.1 -4.5,4.7 -0.3,0.3 -0.6,0.6 -0.5,1 0.2,0.3 0.4,0.6 0.6,0.9 -0.1,0.1 -0.2,0.2 -0.2,0.3 -4.8,0 -9.6,0 -14.5,0 -0.7,0 -1.4,0.1 -2.1,-0.2 0.2,-0.3 0.4,-0.6 0.7,-0.7 1.1,-0.4 2.3,-0.6 3.3,-1.5 1.3,-1.1 2.4,-2.4 3.6,-3.6 3.6,-4 7.6,-7.6 11.2,-11.6 1.1,-1 2,-2.1 3.1,-3 0.4,-0.3 0.7,-0.7 0.9,-1.1 0.2,-0.6 -0.4,-1 -0.7,-1.4 -0.5,-0.5 -1,-1 -1.5,-1.5 -3.1,-3.4 -6.5,-6.6 -9.7,-9.9 -1.2,-1.4 -2.6,-2.6 -3.9,-4 -0.6,-0.6 -1.2,-1.3 -2,-1.8 -0.8,-0.5 -1.9,-0.6 -2.8,-1 -0.1,0 -0.1,-0.4 -0.1,-0.7 z"
   id="path6"
   inkscape:connector-curvature="0" />
		</g>
		<path
   d="m 158.8,27 c 1.7,-0.2 3.3,-0.4 5,-0.4 2.6,-0.1 5.2,0.4 7.8,0.8 1.9,0.5 3.7,1.1 5.5,1.8 2,0.8 3.9,2 5.3,3.6 1.2,1.2 2.1,2.8 2.4,4.5 0.1,1.6 0.3,3.3 -0.4,4.9 -0.5,1.3 -1.2,2.7 -2.2,3.7 -1.6,1.6 -3.6,2.7 -5.6,3.7 -1.2,0.6 -2.4,1.2 -3.7,1.7 -2.3,0.8 -4.6,1.7 -7,2.3 -2.5,0.6 -4.9,1.6 -7.4,2.4 -3.1,1.1 -6,2.5 -8.5,4.6 -0.4,0.3 -0.6,0.8 -0.9,1.2 0.5,0.5 1.3,0.3 2,0.4 11.1,0 22.3,0 33.4,0 0.5,0 1.1,0 1.6,-0.3 0.6,-0.4 1.1,-0.8 1.7,-1 0.2,1.3 0.1,2.6 0.2,3.9 0,1.8 0,3.6 -0.1,5.4 -0.2,0 -0.5,0.1 -0.7,0.1 -0.4,-0.4 -0.8,-1 -1.4,-1.1 -0.7,-0.2 -1.4,-0.2 -2.1,-0.2 -15.3,0 -30.6,0 -45.9,0 -0.4,0 -0.8,-0.2 -0.9,-0.5 -0.1,-1.9 0.4,-3.9 1.2,-5.7 1.2,-2.9 3.7,-5.1 6.1,-7 1.7,-1.1 3.4,-2.1 5.2,-2.9 1,-0.5 2,-1.1 3.1,-1.5 1.6,-0.6 3.2,-1.3 4.8,-1.9 2.3,-0.8 4.6,-1.7 6.8,-2.6 2.2,-0.8 4.3,-1.7 6.3,-2.9 1.6,-0.9 2.7,-2.3 3.6,-3.9 0.6,-1.4 -0.1,-2.9 -1,-4 -2.4,-2.1 -5.8,-2.7 -8.9,-2.9 -4.7,0 -9.5,1.4 -13.3,4.3 -0.7,0.5 -1.4,1 -1.9,1.7 -0.4,0.5 -0.7,1.1 -0.9,1.7 -0.2,0.7 0,1.4 0,2.1 -0.1,0.4 -0.7,0.3 -0.9,0.1 -1.4,-1.1 -2.5,-2.5 -3.9,-3.6 -1.1,-0.9 -2.1,-2 -3.2,-3 -0.4,-0.4 -0.9,-0.7 -0.9,-1.3 0.7,-0.2 1.4,-0.2 2,-0.5 1.3,-0.8 2.5,-1.8 3.8,-2.6 2.3,-1.4 4.6,-2.7 7.1,-3.5 2.3,-0.8 4.5,-1.3 6.8,-1.6 z"
   id="path10"
   inkscape:connector-curvature="0"
   style="fill:#0084e2" />
		<path
   d="m 99.3,27.7 c 2.7,-0.5 5.4,-0.8 8.1,-0.9 3,0 6.1,-0.1 9.1,0.5 1.7,0.2 3.4,0.8 5.1,1.2 1.8,0.6 3.5,1.5 5.1,2.5 1.9,1.3 3.5,3.1 4.2,5.4 0.3,1.4 0.4,3 0,4.4 -0.3,0.9 -0.7,1.8 -1.4,2.5 -0.6,0.7 -1.5,1.1 -2.4,1.6 -0.9,0.5 -2,0.8 -2.9,1.3 0.2,0.2 0.2,0.5 0.4,0.6 1.1,0.5 2.4,0.8 3.5,1.4 1.7,0.8 3.1,2.1 4.4,3.4 0.9,1.1 1.5,2.4 1.7,3.9 0.1,0.9 0.3,1.8 0.1,2.7 -0.3,1.7 -1,3.4 -2.3,4.6 -1.8,1.9 -4.1,3.1 -6.5,4.2 -2.3,0.9 -4.7,1.6 -7.1,1.9 -4.7,0.8 -9.6,0.6 -14.3,0.4 C 100.9,69 97.6,68.7 94.5,67.9 92,67.2 89.6,66.4 87.2,65.4 86.4,65 85.5,64.6 84.6,64.5 c -0.7,0 -1.5,0.2 -2.2,0.2 -0.3,-0.1 -0.5,-0.4 -0.4,-0.6 0.3,-0.7 0.7,-1.3 1.1,-1.9 1,-1.6 1.9,-3.1 2.9,-4.7 0.4,-0.7 0.8,-1.4 1.3,-2 0.3,-0.4 0.9,-0.4 1.2,0.1 0.4,0.8 0.6,1.9 1.5,2.4 1.9,1.6 4.3,2.5 6.7,3.3 1.9,0.5 3.8,1 5.8,1.3 3.8,0.6 7.7,0.7 11.5,0.3 1.9,-0.3 3.8,-0.7 5.6,-1.4 1.6,-0.6 2.9,-1.8 3.8,-3.2 1.1,-1.7 0.2,-4 -1.4,-5.1 -2.2,-1.8 -5,-2.4 -7.7,-2.8 -2.2,-0.4 -4.5,-0.3 -6.7,-0.3 -1.4,0 -2.8,0.2 -4.2,0.6 -0.6,0.2 -1,0.8 -1.6,0.9 -0.5,-0.2 -0.4,-0.9 -0.4,-1.3 0,-2.5 -0.1,-5 0.1,-7.6 0.9,-0.1 1.5,0.7 2.4,0.8 3.1,0.8 6.4,0.4 9.6,0 1.8,-0.4 3.7,-0.5 5.2,-1.7 0.8,-0.7 1.6,-1.4 2.1,-2.4 0.4,-1.2 -0.1,-2.6 -1.1,-3.4 -0.7,-0.6 -1.5,-1.1 -2.3,-1.5 -1.9,-0.8 -3.9,-1 -5.9,-1.3 -2,-0.2 -4,0 -6,0.2 -2.7,0.2 -5.4,1 -7.9,2.1 -1.5,0.6 -2.9,1.5 -4.2,2.5 -0.6,0.7 -0.7,1.6 -0.7,2.5 0,0.4 -0.6,0.8 -0.9,0.5 -2.3,-2 -4.3,-4.4 -6.5,-6.5 -0.3,-0.3 -0.7,-0.6 -0.8,-1 0,-0.2 0.1,-0.4 0.2,-0.6 0.8,0.1 1.7,0.2 2.4,-0.2 2.1,-1 4.1,-2.2 6.2,-3.2 1.8,-0.6 3.9,-1.3 6,-1.8 z"
   id="path12"
   inkscape:connector-curvature="0"
   style="fill:#0084e2" />
		<path
   d="m 193.4,26.8 c 5.1,-0.2 10.2,0 15.3,-0.1 0.5,0 1.1,-0.1 1.5,0.2 -0.2,0.5 -0.6,0.9 -0.8,1.4 1.6,1.9 3.5,3.5 5.1,5.4 1.9,1.9 3.8,3.8 5.7,5.8 0.3,0.3 0.7,0.7 1.2,0.4 1.1,-0.9 2,-2 3,-3 2.5,-2.5 4.9,-5.1 7.4,-7.6 0.3,-0.4 0.9,-0.7 0.7,-1.3 -0.2,-0.4 -0.5,-0.7 -0.7,-1.1 1.2,-0.2 2.5,-0.2 3.8,-0.2 4.2,0 8.4,0 12.6,0 0.4,-0.1 0.5,0.5 0.6,0.7 -0.9,0.4 -1.8,0.5 -2.7,0.9 -1.4,0.6 -2.4,1.9 -3.5,3 -1.6,1.6 -3.2,3.3 -4.8,4.9 -2.2,2.2 -4.4,4.4 -6.6,6.7 -1,1.1 -2.1,2.1 -3.1,3.2 -0.2,0.3 -0.5,0.7 -0.2,1.1 1,1.3 2.3,2.3 3.4,3.6 1,0.9 1.7,1.9 2.7,2.9 2.5,2.6 5.1,5.1 7.6,7.7 1.4,1.6 2.9,3 4.3,4.5 0.8,0.8 1.8,1.4 2.9,1.7 0.6,0.3 1.5,0.3 1.8,1 -0.9,0.2 -1.9,0.2 -2.8,0.2 -4,0 -8,0 -12,0 -0.7,0 -1.4,0.1 -2.1,-0.2 0.2,-0.4 0.6,-0.8 0.7,-1.3 -0.2,-0.3 -0.4,-0.6 -0.7,-0.8 -1,-1.1 -2.1,-2.1 -3.1,-3.2 -2.4,-2.8 -5.1,-5.2 -7.6,-7.9 -0.5,-0.5 -1,-1.2 -1.7,-1.5 -0.6,-0.4 -1.1,0.3 -1.5,0.6 -2.4,2.5 -4.9,4.9 -7.3,7.4 -1.4,1.7 -2.9,3.1 -4.5,4.7 -0.3,0.3 -0.6,0.6 -0.5,1 0.2,0.3 0.4,0.6 0.6,0.9 -0.1,0.1 -0.2,0.2 -0.2,0.3 -4.8,0 -9.6,0 -14.5,0 -0.7,0 -1.4,0.1 -2.1,-0.2 0.2,-0.3 0.4,-0.6 0.7,-0.7 1.1,-0.4 2.3,-0.6 3.3,-1.5 1.3,-1.1 2.4,-2.4 3.6,-3.6 3.6,-4 7.6,-7.6 11.2,-11.6 1.1,-1 2,-2.1 3.1,-3 0.4,-0.3 0.7,-0.7 0.9,-1.1 0.2,-0.6 -0.4,-1 -0.7,-1.4 -0.5,-0.5 -1,-1 -1.5,-1.5 -3.1,-3.4 -6.5,-6.6 -9.7,-9.9 -1.2,-1.4 -2.6,-2.6 -3.9,-4 -0.6,-0.6 -1.2,-1.3 -2,-1.8 -0.8,-0.5 -1.9,-0.6 -2.8,-1 -0.1,-0.1 0,-0.5 -0.1,-0.7 z"
   id="path14"
   inkscape:connector-curvature="0"
   style="fill:#ed0a0a" />
	</g>
	<g
   id="g36">
		<rect
   x="65.199997"
   width="200.60001"
   height="20.299999"
   id="rect18"
   y="0"
   style="fill:#ffe607" />
		<g
   id="g34">
			<path
   d="m 88.6,11.2 h -3 c -0.2,0 -0.3,0 -0.4,0.1 -0.1,0.1 -0.2,0.2 -0.2,0.5 h -0.3 v -3 H 85 c 0,0.2 0.1,0.4 0.2,0.5 0.1,0.1 0.2,0.1 0.4,0.1 h 5.7 v 0.3 c -0.2,0.1 -0.4,0.1 -0.4,0.2 -0.1,0.1 -0.1,0.2 -0.1,0.4 V 13 c 0,0.2 0,0.3 0.1,0.4 0.1,0.1 0.2,0.2 0.4,0.2 v 0.2 C 89,15.3 86.8,16 84.6,16 c -2,0 -3.6,-0.5 -4.8,-1.5 -1.6,-1.2 -2.3,-2.9 -2.3,-5.1 0,-2 0.7,-3.7 2.1,-4.9 1.3,-1.1 3.1,-1.7 5.2,-1.7 0.7,0 1.3,0.1 2,0.2 0.6,0.1 1.3,0.4 2.1,0.7 0.4,0.2 0.7,0.3 0.9,0.3 0.1,0 0.3,-0.1 0.4,-0.2 l 0.2,0.1 -1.4,3 -0.3,-0.1 c 0,-0.2 0,-0.4 -0.1,-0.4 C 88.6,6.3 88.4,6.2 88.3,6.1 87.9,5.8 87.4,5.6 86.7,5.4 86,5.2 85.3,5.1 84.7,5.1 c -1.3,0 -2.3,0.4 -3.1,1.1 -0.9,0.8 -1.4,2 -1.4,3.3 0,1.3 0.5,2.4 1.4,3.2 0.8,0.8 1.9,1.1 3.3,1.1 0.7,0 1.3,-0.1 2,-0.2 0.6,-0.2 1.2,-0.4 1.7,-0.7 z"
   id="path20"
   inkscape:connector-curvature="0" />
			<path
   d="m 110.2,10.2 v 3.5 h 7.8 c 0.2,0 0.3,0 0.4,-0.1 0.1,-0.1 0.2,-0.2 0.2,-0.5 h 0.3 v 3.3 h -0.3 c -0.1,-0.2 -0.1,-0.4 -0.2,-0.5 -0.1,-0.1 -0.2,-0.1 -0.4,-0.1 h -11 v -0.3 c 0.2,-0.1 0.4,-0.1 0.4,-0.2 0.1,-0.1 0.1,-0.2 0.1,-0.4 V 4 c 0,-0.2 0,-0.3 -0.1,-0.4 C 107.3,3.5 107.2,3.4 107,3.4 V 3 h 10.8 c 0.2,0 0.3,0 0.4,-0.1 0.1,-0.1 0.2,-0.2 0.2,-0.5 h 0.3 v 3.3 h -0.3 C 118.3,5.5 118.3,5.3 118.2,5.2 118.1,5.1 118,5.1 117.8,5.1 h -7.6 v 3 h 4.9 c 0.2,0 0.3,0 0.4,-0.1 0.1,-0.1 0.2,-0.2 0.2,-0.5 h 0.3 v 3.2 h -0.3 c -0.1,-0.2 -0.1,-0.4 -0.2,-0.5 -0.1,-0.1 -0.2,-0.1 -0.4,-0.1 h -4.9 z"
   id="path22"
   inkscape:connector-curvature="0" />
			<path
   d="m 137.5,7 v 7.7 c 0,0.2 0,0.3 0.1,0.4 0.1,0.1 0.2,0.2 0.4,0.2 v 0.3 h -3.6 v -0.3 c 0.2,-0.1 0.4,-0.1 0.4,-0.2 0.1,-0.1 0.1,-0.2 0.1,-0.4 V 4 c 0,-0.2 0,-0.3 -0.1,-0.4 -0.1,-0.1 -0.2,-0.2 -0.4,-0.2 V 3 h 4.1 v 0.3 c -0.3,0.1 -0.4,0.2 -0.4,0.4 0,0.1 0.1,0.3 0.2,0.5 l 6.7,7.3 V 4 c 0,-0.2 0,-0.3 -0.1,-0.4 -0.1,-0.1 -0.2,-0.2 -0.4,-0.2 V 3 h 3.6 v 0.3 c -0.2,0.1 -0.4,0.1 -0.4,0.2 -0.1,0.1 -0.1,0.2 -0.1,0.4 v 10.8 c 0,0.2 0,0.3 0.1,0.4 0.1,0.1 0.2,0.2 0.4,0.2 v 0.3 h -3.8 v -0.3 c 0.2,-0.1 0.4,-0.2 0.4,-0.4 0,-0.1 -0.1,-0.3 -0.4,-0.7 z"
   id="path24"
   inkscape:connector-curvature="0" />
			<path
   d="m 167.2,10.2 v 3.5 h 7.8 c 0.2,0 0.3,0 0.4,-0.1 0.1,-0.1 0.2,-0.2 0.2,-0.5 h 0.3 v 3.3 h -0.3 c -0.1,-0.2 -0.1,-0.4 -0.2,-0.5 -0.1,-0.1 -0.2,-0.1 -0.4,-0.1 h -11 v -0.3 c 0.2,-0.1 0.4,-0.1 0.4,-0.2 0.1,-0.1 0.1,-0.2 0.1,-0.4 V 4 c 0,-0.2 0,-0.3 -0.1,-0.4 C 164.3,3.5 164.2,3.4 164,3.4 V 3 h 10.8 c 0.2,0 0.3,0 0.4,-0.1 0.1,-0.1 0.2,-0.2 0.2,-0.5 h 0.3 v 3.3 h -0.3 C 175.3,5.5 175.3,5.3 175.2,5.2 175.1,5.1 175,5.1 174.8,5.1 h -7.6 v 3 h 4.9 c 0.2,0 0.3,0 0.4,-0.1 0.1,-0.1 0.2,-0.2 0.2,-0.5 h 0.3 v 3.2 h -0.3 c -0.1,-0.2 -0.1,-0.4 -0.2,-0.5 -0.1,-0.1 -0.2,-0.1 -0.4,-0.1 h -4.9 z"
   id="path26"
   inkscape:connector-curvature="0" />
			<path
   d="m 202.7,4.1 -1.4,3 -0.3,-0.2 c 0,-0.1 0,-0.1 0,-0.1 0,-0.2 -0.2,-0.4 -0.5,-0.7 -1.1,-0.8 -2.3,-1.2 -3.7,-1.2 -0.6,0 -1.2,0.1 -1.7,0.2 -0.3,0.1 -0.6,0.3 -0.8,0.6 -0.2,0.2 -0.3,0.5 -0.3,0.8 0,0.5 0.3,0.8 0.8,1 0.3,0.1 0.9,0.2 1.8,0.3 L 198,8 c 0.8,0.1 1.5,0.2 2,0.4 0.5,0.2 1,0.4 1.4,0.7 0.4,0.3 0.7,0.7 1,1.2 0.2,0.5 0.4,1 0.4,1.6 0,0.9 -0.3,1.7 -0.8,2.4 -0.5,0.6 -1.3,1.1 -2.3,1.4 -0.8,0.2 -1.6,0.3 -2.5,0.3 -1.6,0 -3.2,-0.4 -4.7,-1.2 -0.3,-0.2 -0.5,-0.2 -0.6,-0.2 -0.1,0 -0.2,0.1 -0.4,0.2 l -0.3,-0.1 1.3,-3.1 0.3,0.1 c 0,0.1 0,0.1 0,0.1 0,0.3 0.1,0.5 0.4,0.8 0.4,0.4 1,0.7 1.8,0.9 0.8,0.3 1.6,0.4 2.3,0.4 0.8,0 1.5,-0.1 2,-0.4 0.3,-0.2 0.6,-0.4 0.7,-0.6 0.2,-0.3 0.3,-0.5 0.3,-0.8 0,-0.4 -0.2,-0.7 -0.6,-0.9 -0.3,-0.1 -0.9,-0.2 -1.8,-0.3 l -1.4,-0.1 c -0.9,-0.1 -1.6,-0.2 -1.9,-0.3 -0.4,-0.1 -0.8,-0.2 -1.1,-0.4 -0.5,-0.3 -1,-0.7 -1.3,-1.3 -0.3,-0.5 -0.4,-1.1 -0.4,-1.7 0,-1.1 0.4,-2 1.1,-2.7 0.9,-0.9 2.3,-1.4 4.2,-1.4 0.8,0 1.5,0.1 2.2,0.2 0.7,0.2 1.5,0.5 2.5,0.9 0.3,0.1 0.6,0.2 0.6,0.2 0.1,0 0.3,-0.1 0.4,-0.2 z"
   id="path28"
   inkscape:connector-curvature="0" />
			<path
   d="M 223.3,14.8 V 4 c 0,-0.2 0,-0.3 -0.1,-0.4 C 223.1,3.5 223,3.4 222.8,3.4 V 3 h 3.8 v 0.3 c -0.2,0.1 -0.4,0.1 -0.4,0.2 -0.1,0.1 -0.1,0.2 -0.1,0.4 v 10.8 c 0,0.2 0,0.3 0.1,0.4 0.1,0.1 0.2,0.2 0.4,0.2 v 0.3 h -3.8 v -0.3 c 0.2,-0.1 0.4,-0.1 0.4,-0.2 0,0 0.1,-0.1 0.1,-0.3 z"
   id="path30"
   inkscape:connector-curvature="0" />
			<path
   d="m 253.6,4.1 -1.4,3 L 252,7 c 0,-0.1 0,-0.1 0,-0.1 0,-0.2 -0.2,-0.4 -0.5,-0.7 C 250.4,5.4 249.2,5 247.8,5 247,5 246.5,5 246,5.2 c -0.3,0.1 -0.6,0.3 -0.8,0.6 -0.2,0.2 -0.3,0.5 -0.3,0.8 0,0.5 0.3,0.8 0.8,1 0.3,0.1 0.9,0.2 1.8,0.3 l 1.4,0.1 c 0.8,0.1 1.5,0.2 2,0.4 0.5,0.2 1,0.4 1.4,0.7 0.4,0.3 0.7,0.7 1,1.2 0.2,0.5 0.4,1 0.4,1.6 0,0.9 -0.3,1.7 -0.8,2.4 -0.5,0.6 -1.3,1.1 -2.3,1.4 -0.8,0.2 -1.6,0.3 -2.5,0.3 -1.6,0 -3.2,-0.4 -4.7,-1.2 -0.3,-0.2 -0.5,-0.2 -0.6,-0.2 -0.1,0 -0.2,0.1 -0.4,0.2 l -0.3,-0.1 1.3,-3.1 0.3,0.1 c 0,0.1 0,0.1 0,0.1 0,0.3 0.1,0.5 0.4,0.8 0.4,0.4 1,0.7 1.8,0.9 0.8,0.3 1.6,0.4 2.3,0.4 0.8,0 1.5,-0.1 2,-0.4 0.3,-0.2 0.6,-0.4 0.7,-0.6 0.2,-0.3 0.3,-0.5 0.3,-0.8 0,-0.4 -0.2,-0.7 -0.6,-0.9 -0.3,-0.1 -0.9,-0.2 -1.8,-0.3 l -1.4,-0.1 c -0.9,-0.1 -1.6,-0.2 -1.9,-0.3 -0.4,-0.1 -0.8,-0.2 -1.1,-0.4 -0.5,-0.3 -1,-0.7 -1.3,-1.3 -0.3,-0.5 -0.4,-1.1 -0.4,-1.7 0,-1.1 0.4,-2 1.1,-2.7 0.9,-0.9 2.3,-1.4 4.2,-1.4 0.8,0 1.5,0.1 2.2,0.2 0.7,0.2 1.5,0.5 2.5,0.9 0.3,0.1 0.6,0.2 0.6,0.2 0.1,0 0.3,-0.1 0.4,-0.2 z"
   id="path32"
   inkscape:connector-curvature="0" />
		</g>
	</g>
</g>
</svg>