<?xml version="1.0" encoding="UTF-8" standalone="no"?>
<!-- Generator: Adobe Illustrator 19.0.0, SVG Export Plug-In . SVG Version: 6.00 Build 0)  -->

<svg
   xmlns:dc="http://purl.org/dc/elements/1.1/"
   xmlns:cc="http://creativecommons.org/ns#"
   xmlns:rdf="http://www.w3.org/1999/02/22-rdf-syntax-ns#"
   xmlns:svg="http://www.w3.org/2000/svg"
   xmlns="http://www.w3.org/2000/svg"
   xmlns:sodipodi="http://sodipodi.sourceforge.net/DTD/sodipodi-0.dtd"
   xmlns:inkscape="http://www.inkscape.org/namespaces/inkscape"
   version="1.1"
   id="Ebene_1"
   x="0px"
   y="0px"
   viewBox="-51 295.6 542 184.5"
   xml:space="preserve"
   sodipodi:docname="logo.svg"
   width="542"
   height="184.5"
   inkscape:version="0.92.5 (2060ec1f9f, 2020-04-08)"><metadata
   id="metadata47"><rdf:RDF><cc:Work
       rdf:about=""><dc:format>image/svg+xml</dc:format><dc:type
         rdf:resource="http://purl.org/dc/dcmitype/StillImage" /><dc:title></dc:title></cc:Work></rdf:RDF></metadata><defs
   id="defs45" /><sodipodi:namedview
   pagecolor="#ffffff"
   bordercolor="#666666"
   borderopacity="1"
   objecttolerance="10"
   gridtolerance="10"
   guidetolerance="10"
   inkscape:pageopacity="0"
   inkscape:pageshadow="2"
   inkscape:window-width="3840"
   inkscape:window-height="2065"
   id="namedview43"
   showgrid="false"
   inkscape:zoom="1.8938945"
   inkscape:cx="328.33679"
   inkscape:cy="91.269941"
   inkscape:window-x="0"
   inkscape:window-y="0"
   inkscape:window-maximized="1"
   inkscape:current-layer="Ebene_1" />
<g
   id="g874"
   transform="translate(-51)"><g
     id="g40">
	<path
   style="fill:#17569b"
   inkscape:connector-curvature="0"
   id="path2"
   d="m 114.1,394.7 h 39.8 c 16.3,0 29.5,-13.2 29.5,-29.5 0,-16.3 -13.2,-29.4 -29.5,-29.4 h -10.4 c -0.8,0 -1.5,-0.7 -1.5,-1.5 0,-0.9 0.7,-1.6 1.5,-1.6 h 39.7 l 0.1,-12.4 h -39.8 c -7.7,0 -13.9,6.2 -13.9,13.9 0,7.8 6.2,14.1 13.9,14.1 h 10.4 c 9.3,0 16.9,7.6 16.9,16.9 0,9.3 -7.6,16.8 -16.9,16.8 h -39.8 z" />
	<path
   style="fill:#17569b"
   inkscape:connector-curvature="0"
   id="path4"
   d="m 114.1,379.1 h 39.8 c 7.8,0 14,-6.3 14,-14 0,-7.7 -6.2,-14 -14,-14 h -10.4 c -9.3,0 -16.8,-7.7 -16.8,-17 0,-9.3 7.5,-16.8 16.8,-16.8 h 39.8 l -0.1,-12.6 h -39.7 c -16.3,0 -29.4,13.2 -29.4,29.5 0,16.3 13.2,29.4 29.4,29.4 h 10.3 c 0.8,0 1.5,0.7 1.5,1.5 0,0.8 -0.7,1.5 -1.5,1.5 h -39.7 z" />
	<path
   style="fill:#17569b"
   inkscape:connector-curvature="0"
   id="path6"
   d="m 214.2,382.1 c -6.9,0 -12.5,-5.5 -12.5,-12.5 v -40 c 0,-6.7 5.6,-12.3 12.5,-12.3 h 42.5 v -12.5 h -42.5 c -13.8,0 -25,11.2 -25,25 v 39.8 c 0,13.8 11.2,25 25,25 h 42.3 v -12.5 z" />
	<path
   style="fill:#17569b"
   inkscape:connector-curvature="0"
   id="path8"
   d="m 204.8,329.8 c 0,-5.2 4.2,-9.6 9.5,-9.6 h 42.5 v 12.5 h -36.6 c -2.9,0 -2.9,2.9 -2.9,2.9 h 30.6 v 12.5 h -43 z" />
	<path
   style="fill:#17569b"
   inkscape:connector-curvature="0"
   id="path10"
   d="m 214.2,379.1 c -5.2,0 -9.5,-4.3 -9.5,-9.5 v -18.4 h 43 v 12.5 h -30.6 c 0,2.9 2.9,2.9 2.9,2.9 h 36.4 V 379 Z" />
	<path
   style="fill:#17569b"
   inkscape:connector-curvature="0"
   id="path12"
   d="m 286.6,382.1 c -6.9,0 -12.6,-5.6 -12.6,-12.5 v -39.8 c 0,-6.9 5.6,-12.5 12.5,-12.5 h 41.2 v -12.5 h -41.3 c -13.8,0 -25,11.2 -25,25 v 39.8 c 0,13.8 11.3,25 25.1,25 h 41.2 v -58.9 h -35.4 v 12.5 h 22.9 v 33.9 z" />
	<path
   style="fill:#17569b"
   inkscape:connector-curvature="0"
   id="path14"
   d="m 276.9,369.6 c 0,5.2 4.3,9.6 9.6,9.6 h 25.7 v -28 h -19.9 v 12.6 h 7.4 v 2.9 h -7.4 c -1.6,0 -2.9,-1.4 -2.9,-2.9 v -28 c 0,0 0,-2.9 2.9,-2.9 h 35.3 v -12.5 h -41.2 c -5.2,0 -9.6,4.3 -9.6,9.6 z" />
	<path
   style="fill:#17569b"
   inkscape:connector-curvature="0"
   id="path16"
   d="m 366.3,320.1 c 0.6,-1.6 2,-2.8 3.8,-2.8 1.8,0 3.3,1.1 3.8,2.8 l 19.9,59.2 h -29.2 v -13.9 h 9.8 l -4.4,-13.2 -14.4,42.4 h -14.7 z" />
	<path
   style="fill:#17569b"
   inkscape:connector-curvature="0"
   id="path18"
   d="m 398,382.1 h -33.3 v 12.5 h 50.6 l -26.3,-78 c -2.3,-7.6 -9.9,-13.2 -18.9,-13.2 -9,0 -16.6,5.6 -18.9,13.2 l -26.6,78 H 338 l 25.7,-75.9 c 1.1,-2.5 3.5,-4.3 6.5,-4.3 2.9,0 5.3,1.7 6.4,4.3 z" />
	<path
   style="fill:#17569b"
   inkscape:connector-curvature="0"
   id="path20"
   d="m 408,315.1 c 2.6,0 5.1,-1 6.9,-2.9 1.9,-1.9 2.9,-4.3 2.9,-6.9 0,-2.6 -1,-5.1 -2.9,-6.9 -1.8,-1.9 -4.3,-2.9 -6.9,-2.9 -5.4,0 -9.8,4.3 -9.8,9.7 0,2.6 1.1,5.1 2.9,6.9 1.8,2.1 4.3,3 6.9,3 z m -8.4,-9.8 c 0,-2.2 0.9,-4.3 2.5,-6 1.5,-1.6 3.7,-2.5 6,-2.5 2.2,0 4.3,0.9 6,2.5 1.6,1.6 2.5,3.8 2.5,6 0,4.7 -3.8,8.4 -8.4,8.4 -2.3,0 -4.4,-0.8 -6,-2.5 -1.7,-1.4 -2.6,-3.6 -2.6,-5.9 z" />
	<path
   style="fill:#17569b"
   inkscape:connector-curvature="0"
   id="path22"
   d="m 405.5,306.2 v 4.7 h -1.4 V 300 h 4 c 1.5,0 2.4,0 3.3,0.7 0.7,0.6 1.1,1.5 1.1,2.5 0,2.5 -2,2.9 -2.6,2.9 l 3,4.7 h -1.7 l -2.9,-4.7 z m 0,-1.2 h 2.9 c 0.5,0 0.9,0 1.3,-0.2 1.1,-0.2 1.4,-1 1.4,-1.7 0,-0.2 -0.1,-1.1 -0.7,-1.6 -0.6,-0.5 -1.3,-0.4 -2.1,-0.4 h -2.8 z" />
	<g
   id="g38">
		<path
   style="fill:#ff0000"
   inkscape:connector-curvature="0"
   id="path24"
   d="m 0.9,440.3 v -10.9 c 0,-9.7 4.8,-14.5 14.5,-14.5 h 65.3 v 14.5 H 15.4 v 10.9 h 50.8 c 9.7,0 14.5,4.8 14.5,14.5 v 10.9 c 0,9.7 -4.8,14.5 -14.5,14.5 H 0.9 V 465.7 H 66.2 V 454.8 H 15.4 c -9.6,0 -14.5,-4.9 -14.5,-14.5 z" />
		<path
   style="fill:#ff0000"
   inkscape:connector-curvature="0"
   id="path26"
   d="m 87.9,465.6 v -36.3 c 0,-9.7 4.8,-14.5 14.5,-14.5 h 65.3 v 14.5 h -65.3 v 36.3 h 50.8 v -10.9 h -29 v -14.5 h 43.5 v 39.9 h -65.3 c -9.6,0 -14.5,-4.8 -14.5,-14.5 z" />
		<path
   style="fill:#ff0000"
   inkscape:connector-curvature="0"
   id="path28"
   d="m 174.9,454.8 v -14.5 h 25.4 v 14.5 z" />
		<path
   style="fill:#ff0000"
   inkscape:connector-curvature="0"
   id="path30"
   d="m 207.6,480.1 v -14.5 h 21.8 v -36.3 h -21.8 v -14.5 h 39.9 v 50.8 h 21.8 v 14.5 z" />
		<path
   style="fill:#ff0000"
   inkscape:connector-curvature="0"
   id="path32"
   d="m 359.8,465.6 c 0,9.7 -4.8,14.5 -14.5,14.5 h -54.4 c -9.7,0 -14.5,-4.8 -14.5,-14.5 v -36.3 c 0,-9.7 4.8,-14.5 14.5,-14.5 h 54.4 c 9.7,0 14.5,4.8 14.5,14.5 z m -14.5,0 v -36.3 h -54.4 v 36.3 z" />
		<path
   style="fill:#ff0000"
   inkscape:connector-curvature="0"
   id="path34"
   d="m 450.4,465.6 c 0,9.7 -4.8,14.5 -14.5,14.5 h -54.4 c -9.7,0 -14.5,-4.8 -14.5,-14.5 v -36.3 c 0,-9.7 4.8,-14.5 14.5,-14.5 h 54.4 c 9.7,0 14.5,4.8 14.5,14.5 z m -14.5,0 v -36.3 h -54.4 v 36.3 z" />
		<path
   style="fill:#ff0000"
   inkscape:connector-curvature="0"
   id="path36"
   d="m 541.1,465.6 c 0,9.7 -4.8,14.5 -14.5,14.5 h -54.4 c -9.7,0 -14.5,-4.8 -14.5,-14.5 v -36.3 c 0,-9.7 4.8,-14.5 14.5,-14.5 h 54.4 c 9.7,0 14.5,4.8 14.5,14.5 z m -14.5,0 v -36.3 h -54.4 v 36.3 z" />
	</g>
</g></g>
</svg>