<?xml version="1.0" encoding="utf-8"?>
<!-- Generator: Adobe Illustrator 19.0.0, SVG Export Plug-In . SVG Version: 6.00 Build 0)  -->
<svg version="1.1" baseProfile="tiny" id="Ebene_1" xmlns="http://www.w3.org/2000/svg" xmlns:xlink="http://www.w3.org/1999/xlink"
	 x="0px" y="0px" viewBox="-105 349.6 399.5 98.4" xml:space="preserve">
<g>
	<path id="polyline2177" fill="#FC0C18" d="M-85.5,349.6c-3.8,0-7.4,3.1-8.1,6.9v0.1v0.1v0.1l-0.1,0.1v0.1v0.1l-0.1,0.1v0.1
		l-0.1,0.1v0.2l-0.1,0.1v0.2l-0.1,0.2l-0.1,0.2l-0.1,0.4l-0.1,0.5l-0.1,0.5l-0.1,0.5l-0.1,0.5l-0.1,0.5l-0.1,0.6l-0.1,0.5l-0.2,1.2
		l-0.1,0.6l-0.1,0.5l-0.1,0.5l-0.1,0.5l-0.1,0.5l-0.1,0.5l-0.1,0.5l-0.1,0.4l-0.1,0.5v0.2l-0.1,0.1v0.2v0.1l-0.1,0.2v0.1v0.1
		l-0.1,0.1v0.1v0.1c-0.1,1.7,0.2,4,0.7,4.4c0.7,3.7,13,20.8,12.6,23.4c-0.3,2.6-1.8,10.3-1.8,10.3c-0.4,2.6-2.2,4.7-4.8,4.7
		c-2.6,0-4.4-2.1-3.9-4.7l2.3-12.7h-9.2l-3.1,17.7c-0.6,3.6,1.8,6.4,5.4,6.4h13.1c3.6,0,7.1-2.9,7.7-6.4c0,0,3.4-16.5,3.4-17.7
		c0-1.2-0.3-1.3-0.3-1.3c0-1.3-10.9-19.4-12.1-20.1c-0.5-0.3-0.9-2.1-0.9-3.1c0-1.1,1.4-8.3,1.4-8.3c0.4-2.6,2.9-4.7,5.5-4.7
		c2.6,0,3.7,2.1,3.2,4.7l-2,11.4h9.2l3.2-17.2c0.7-3.8-1.7-6.9-5.5-6.9H-85.5z M-60.3,349.6l-11,63.2c-0.6,3.6,1.8,6.4,5.4,6.4h13.1
		c3.6,0,7.1-2.9,7.8-6.4l11.7-63.2h-8.2l-11.2,61.4c-0.2,0.9-1,1.6-1.9,1.6h-6.5c-0.9,0-1.5-0.7-1.4-1.6l10.9-61.4H-60.3z
		 M-28.8,349.6L-42,419.2h8.8l6-31.5h11.2c3.6,0,7.1-2.9,7.7-6.4l4.8-24.7c0.7-3.8-1.7-6.9-5.5-6.9h-11H-28.8z M2.5,349.6
		l-13.7,69.6H8.5l1.4-8.6H0.1l4-23.5h9.7l1.4-7.3H5.5l4.3-21.6h9.7l1.4-8.6H2.5z M26,349.6l-13.2,69.6h8.8l6-31.5h6.2
		c0.8,0.8,0.9,2.2,1,2.9c0.2,1,0.3,2.3,0.2,3.4c-0.1,1-4.8,25.3-4.8,25.3h8.8c0,0,4.9-26.4,4.9-26.9c0-0.4,0-1.8-0.5-2.5
		c-0.3-0.5-0.9-1.6-1.5-2c-1.2-0.8-2.6-1.3-2.6-1.3h-0.6c2.5-1,7.2-2.6,7.7-5.3l4.8-24.7c0.7-3.8-1.7-6.9-5.5-6.9H26z M73,349.6
		l-13.2,69.6h10.1l8.1-40.3l3.2,40.3H90l13.2-69.6H93.1l-6.9,36.4l-4.5-36.4H73z M107.8,349.6l-13.2,69.6h8.8l13.2-69.6H107.8z
		 M121.1,349.6l-13.2,69.6H118l8.2-40.3l3.2,40.3h8.8l13.2-69.6h-10.1l-6.8,36.4l-4.5-36.4H121.1z M155.1,349.6l-1.6,8.6h5.5
		l-10.8,61h10l11-61h5.3l1.4-8.6H155.1z M179.2,349.6l-13.7,69.6h19.7l1.4-8.6h-9.7l4-23.5h9.7l1.4-7.3h-9.7l4.2-21.6h9.7l1.4-8.6
		H179.2z M201.5,349.6l-13.2,69.6h10.1l8.2-40.3l3.2,40.3h8.8l13.2-69.6h-10.1l-6.8,36.4l-4.5-36.4H201.5z M236.3,349.6l-13.2,69.6
		h20c3.6,0,7.1-2.9,7.8-6.4l10.6-56.2c0.7-3.8-1.7-6.9-5.5-6.9H236.3z M273.9,349.6c-3.8,0-7.3,3.1-8,6.9l-9.8,56.2
		c-0.6,3.6,1.7,6.4,5.3,6.4h14.5c3.6,0,7.1-2.9,7.8-6.4l10.6-56.2c0.7-3.8-1.7-6.9-5.5-6.9H273.9z M243.8,357.6h4
		c2.6,0,4.3,2.1,3.9,4.7l-8.6,45.6c-0.5,2.6-3,4.7-5.5,4.7h-4L243.8,357.6z M279.1,357.6h0.3c2.6,0,4.3,2.1,3.8,4.7l-8.2,45.6
		c-0.4,2.6-2.8,4.7-5.4,4.7c-2.6,0-3.7-2.1-3.2-4.7l8.2-45.6l0.1-0.2l0.1-0.2l0.1-0.3l0.1-0.2l0.1-0.3l0.1-0.2l0.1-0.2l0.1-0.2
		l0.1-0.2l0.1-0.2l0.1-0.2l0.1-0.2l0.1-0.1l0.1-0.2l0.1-0.2l0.2-0.1l0.1-0.1l0.1-0.1l0.2-0.1l0.2-0.1l0.1-0.1l0.2-0.1l0.2-0.1
		l0.2-0.1l0.1-0.1l0.3-0.1l0.2-0.1h0.2l0.2-0.1h0.3L279.1,357.6z M-20.4,357.9h4.2c0.9,0,2.9,2.1,2.7,3.1l-3.6,17.2
		c-0.2,0.9-1.4,2.9-2.3,2.9h-5.1h-0.1h-0.1l-0.1-0.1h-0.1h-0.1h-0.1h-0.1v-0.1H-25h-0.1l-0.1-0.1h-0.1l-0.1-0.1l-0.1-0.1h-0.1v-0.1
		l-0.1-0.1l-0.1-0.1v-0.1l-0.1-0.1l-0.1-0.1v-0.1v-0.1l-0.1-0.1V380V380l-0.1-0.1v-0.1c0-0.1,0-0.3,0-0.4l4.1-21
		C-21.3,358.1-20.9,357.9-20.4,357.9z M34.2,357.9L34.2,357.9h0.1h0.1h0.1h4c0.9,0,2.9,2.1,2.7,3.1l-3.6,17.1c-0.2,0.9-2.4,3-3.3,3
		h-3.8c-0.8,0-1.3-0.5-1.4-1.2c0-0.1,0-0.3,0-0.4l4-21l0.1-0.1l0.1-0.1l0.1-0.1h0.1l0.1-0.1l0.1-0.1h0.1l0.1-0.1h0.1l0.1-0.1H34
		L34.2,357.9L34.2,357.9L34.2,357.9L34.2,357.9L34.2,357.9z M-105,425.2V448h391v-22.8H-105z M182.4,427.6L182.4,427.6h0.1h0.1h0.1
		h0.1h3c0.8,0,1.4,0.6,1.2,1.5l-0.8,3.8h-1.8l0.4-2.5c0.1-0.6-0.2-1-0.8-1c-0.6,0-1.1,0.5-1.2,1l-0.3,1.9c-0.1,0.1,0.1,0.6,0.2,0.7
		c0.3,0.1,2.7,4.2,2.7,4.5c0.1,0.1,0.1,0.2,0.1,0.3c-0.1,0.5-0.8,3.9-0.8,3.9c-0.1,0.8-0.9,1.4-1.7,1.4H180c-0.8,0-1.3-0.7-1.2-1.4
		l0.7-3.9h2l-0.5,2.8c-0.1,0.6,0.2,1.1,0.8,1.1c0.6,0,1.1-0.5,1.2-1.1l0.4-2.3c-0.4-0.9-2.8-4.4-2.9-5.2c-0.1-0.1-0.1-0.6-0.1-1
		c0-0.4,0.5-2.9,0.5-2.9h0.1V429V429v-0.1l0.1-0.1v-0.1l0.1-0.1v-0.1l0.1-0.1v-0.1l0.1-0.1l0.1-0.1v-0.1h0.1l0.1-0.1l0.1-0.1
		l0.1-0.1v-0.1h0.1l0.1-0.1l0.1-0.1h0.1l0.1-0.1h0.1l0.1-0.1h0.1L182.4,427.6L182.4,427.6z M198.2,427.6h2.5l0.3,5.8l3.1-5.8h2.5
		l-5.1,8.9l-1.2,6.5h-2.2l1.1-7L198.2,427.6z M220.6,427.6L220.6,427.6h0.1h0.1h0.1h0.1h3c0.8,0,1.4,0.6,1.2,1.5l-0.8,3.8h-1.9
		l0.4-2.5c0.1-0.6-0.2-1-0.8-1c-0.6,0-1.1,0.5-1.2,1l-0.3,1.9c-0.1,0.1,0.1,0.6,0.2,0.7c0.2,0.1,2.7,4.2,2.7,4.5
		c0.1,0.1,0.1,0.2,0.1,0.3c-0.1,0.5-0.7,3.9-0.7,3.9c-0.1,0.8-0.9,1.4-1.7,1.4h-2.9c-0.8,0-1.3-0.7-1.2-1.4l0.7-3.9h2l-0.5,2.8
		c-0.1,0.6,0.3,1.1,0.8,1.1c0.6,0,1.1-0.5,1.2-1.1l0.4-2.3c-0.4-0.9-2.8-4.4-2.9-5.2c-0.1-0.1-0.1-0.6-0.1-1c0-0.4,0.5-2.9,0.5-2.9
		l0.1-0.1V429v-0.1l0.1-0.1v-0.1l0.1-0.1v-0.1l0.1-0.1v-0.1l0.1-0.1l0.1-0.1v-0.1h0.1l0.1-0.1l0.1-0.1l0.1-0.1l0.1-0.1l0.1-0.1
		l0.1-0.1h0.1l0.1-0.1h0.1l0.1-0.1h0.1L220.6,427.6L220.6,427.6z M236.5,427.6h4.6l-0.3,1.9h-1.2l-2.4,13.6H235l2.4-13.6h-1.2
		L236.5,427.6z M254.5,427.6h4.1l-0.3,1.9h-2.1l-1,4.9h2.2l-0.3,1.6h-2.1l-0.9,5.2h2.1l-0.3,1.9h-4.4L254.5,427.6z M271.4,427.6h2.5
		l0.4,8.9l3.9-8.8l2.5-0.1l-2.6,15.4h-1.9l1.2-8.1L274,443h-1.4l-0.4-8.4l-1.5,8.4h-2.3L271.4,427.6z M-96.5,428.1h4l-0.3,1.9h-2.2
		l-0.9,4.8h2.1l-0.3,1.6h-2.2l-0.8,5.2h2.1l-0.3,1.9h-4.4L-96.5,428.1z M-77.6,428.1h1.9l1,8.1l1.5-8.1h2.3l-2.9,15.5h-1.9l-0.8-9
		l-1.8,9h-2.3L-77.6,428.1z M-57,428.1h4.5l-0.3,1.9H-54l-2.5,13.6h-2.2l2.4-13.6h-1.2L-57,428.1z M-37.1,428.1h4.1l-0.3,1.9h-2.1
		l-1,4.8h2.1l-0.3,1.6h-2.1l-0.9,5.2h2.1l-0.3,1.9h-4.4L-37.1,428.1z M-17.8,428.1h4.4c0.8,0,1.3,0.7,1.2,1.6l-1,5.5
		c-0.1,0.6-1.2,1.1-1.7,1.3h0.1h0.1h0.1v0.1h0.1h0.1h0.1h0.1l0.1,0.1h0.1h0.1h0.1v0.1h0.1h0.1v0.1h0.1c0.1,0.2,0.1,0.7,0.1,0.8
		c0,0.1-1.1,6.1-1.1,6.1h-2c0,0,1.1-5.4,1.1-5.6c0-0.2,0-0.5-0.1-0.8c0-0.2,0-0.4-0.2-0.6h-1.4l-1.3,7h-2L-17.8,428.1z M1.8,428.1
		h4.6l-0.3,1.9H4.9l-2.5,13.6H0.3l2.4-13.6H1.5L1.8,428.1z M24.6,428.1h2.6l-0.8,15.5h-2.6l0.3-3.6h-1.6l-1.3,3.6h-2.3L24.6,428.1z
		 M42.8,428.1h2l-2.9,15.5h-1.9L42.8,428.1z M60.5,428.1h1.9l1,8.1l1.5-8.1h2.2l-2.9,15.5h-2l-0.7-9l-1.8,9h-2.3L60.5,428.1z
		 M83.2,428.1h2.5l0.4,9l3.9-8.9h2.5l-2.6,15.4H88l1.2-8.2l-3.4,8.2h-1.4l-0.4-8.4l-1.5,8.4h-2.2L83.2,428.1z M108,428.1h4l-0.3,1.9
		h-2.2l-0.9,4.8h2.1l-0.3,1.6h-2.2l-0.9,5.2h2.2l-0.3,1.9H105L108,428.1z M127.9,428.1h1.9l1,8.1l1.5-8.1h2.2l-2.9,15.5h-1.9l-0.8-9
		l-1.8,9H125L127.9,428.1z M148.2,428.1h4.6l-0.3,1.9h-1.2l-2.4,13.6h-2.2l2.4-13.6h-1.2L148.2,428.1z M-15.9,430
		c-0.1,0-0.2,0.1-0.3,0.1l-0.9,4.7c0,0,0,0,0,0.1c0,0.1,0.1,0.3,0.3,0.3h0.8c0.2,0,0.7-0.4,0.8-0.6l0.8-3.8c0-0.2-0.3-0.7-0.5-0.7
		L-15.9,430L-15.9,430z M24.6,434.6l-1.4,3.9h1.1L24.6,434.6z"/>
</g>
</svg>
