<?xml version="1.0" encoding="UTF-8" standalone="no"?>
<svg
   xmlns:dc="http://purl.org/dc/elements/1.1/"
   xmlns:cc="http://creativecommons.org/ns#"
   xmlns:rdf="http://www.w3.org/1999/02/22-rdf-syntax-ns#"
   xmlns:svg="http://www.w3.org/2000/svg"
   xmlns="http://www.w3.org/2000/svg"
   xmlns:sodipodi="http://sodipodi.sourceforge.net/DTD/sodipodi-0.dtd"
   xmlns:inkscape="http://www.inkscape.org/namespaces/inkscape"
   version="1.1"
   width="380"
   height="98"
   id="svg2"
   inkscape:version="0.92.5 (2060ec1f9f, 2020-04-08)"
   sodipodi:docname="logo.svg">
  <metadata
     id="metadata26">
    <rdf:RDF>
      <cc:Work
         rdf:about="">
        <dc:format>image/svg+xml</dc:format>
        <dc:type
           rdf:resource="http://purl.org/dc/dcmitype/StillImage" />
        <dc:title></dc:title>
        <cc:license
           rdf:resource="http://creativecommons.org/licenses/by-nc-sa/4.0/" />
        <dc:creator>
          <cc:Agent>
            <dc:title>https://github.com/sirskunkalot</dc:title>
          </cc:Agent>
        </dc:creator>
      </cc:Work>
      <cc:License
         rdf:about="http://creativecommons.org/licenses/by-nc-sa/4.0/">
        <cc:permits
           rdf:resource="http://creativecommons.org/ns#Reproduction" />
        <cc:permits
           rdf:resource="http://creativecommons.org/ns#Distribution" />
        <cc:requires
           rdf:resource="http://creativecommons.org/ns#Notice" />
        <cc:requires
           rdf:resource="http://creativecommons.org/ns#Attribution" />
        <cc:prohibits
           rdf:resource="http://creativecommons.org/ns#CommercialUse" />
        <cc:permits
           rdf:resource="http://creativecommons.org/ns#DerivativeWorks" />
        <cc:requires
           rdf:resource="http://creativecommons.org/ns#ShareAlike" />
      </cc:License>
    </rdf:RDF>
  </metadata>
  <sodipodi:namedview
     pagecolor="#ffffff"
     bordercolor="#666666"
     borderopacity="1"
     objecttolerance="10"
     gridtolerance="10"
     guidetolerance="10"
     inkscape:pageopacity="0"
     inkscape:pageshadow="2"
     inkscape:window-width="3840"
     inkscape:window-height="2065"
     id="namedview24"
     showgrid="false"
     inkscape:zoom="4.5799907"
     inkscape:cx="137.83051"
     inkscape:cy="51.883618"
     inkscape:window-x="0"
     inkscape:window-y="0"
     inkscape:window-maximized="1"
     inkscape:current-layer="svg2"
     inkscape:snap-object-midpoints="false"
     inkscape:snap-others="true"
     inkscape:snap-center="true"
     inkscape:snap-bbox="false"
     inkscape:snap-bbox-edge-midpoints="false"
     inkscape:snap-bbox-midpoints="true" />
  <defs
     id="defs4" />
  <g
     id="g853"
     transform="translate(-10.161316,15.662765)">
    <g
       transform="translate(0,-22)"
       id="g4215">
      <g
         id="g4199">
        <path
           inkscape:connector-curvature="0"
           style="fill:#171a21;fill-opacity:1;fill-rule:evenodd;stroke:none"
           id="path8078"
           d="m 163.29998,37.018991 -23.00826,34.022874 18.84719,17.378611 39.89733,-29.861808 z" />
        <g
           id="g4186">
          <circle
             style="opacity:1;fill:#171a21;fill-opacity:1;stroke:none;stroke-width:0.2;stroke-miterlimit:4;stroke-dasharray:none;stroke-opacity:1"
             id="path4144"
             cx="189.56975"
             cy="36.779259"
             r="28.75" />
          <path
             d="m 211.58055,36.779259 a 22.010825,22.010856 0 1 1 -44.02162,0 22.010825,22.010856 0 1 1 44.02162,0 z"
             id="path7107"
             style="opacity:1;fill:#ffffff;fill-opacity:1;fill-rule:evenodd;stroke:none;stroke-width:7.53281212;stroke-linecap:round;stroke-linejoin:bevel;stroke-miterlimit:4;stroke-dasharray:none;stroke-dashoffset:0;stroke-opacity:1"
             inkscape:connector-curvature="0" />
          <path
             d="m 207.12496,36.790947 a 17.555218,17.555218 0 0 1 -35.11043,0 17.555218,17.555218 0 1 1 35.11043,0 z"
             id="path10018"
             style="fill:#171a21;fill-opacity:1;fill-rule:evenodd;stroke:none"
             inkscape:connector-curvature="0" />
        </g>
      </g>
      <g
         id="g4206">
        <g
           id="g4191">
          <path
             d="m 161.10529,85.015903 a 17.623371,17.623371 0 1 1 -35.24674,0 17.623371,17.623371 0 1 1 35.24674,0 z"
             id="path5167"
             style="fill:#171a21;fill-opacity:1;fill-rule:evenodd;stroke:none;stroke-width:5.53848743;stroke-linecap:round;stroke-linejoin:bevel;stroke-miterlimit:4;stroke-dasharray:none;stroke-dashoffset:0;stroke-opacity:1"
             inkscape:connector-curvature="0" />
          <path
             d="m 156.63935,85.015903 a 13.157435,13.557435 0 0 1 -26.31487,0 13.157435,13.557435 0 1 1 26.31487,0 z"
             id="path5167-9"
             style="fill:#ffffff;fill-opacity:1;fill-rule:evenodd;stroke:none;stroke-width:5.53848743;stroke-linecap:round;stroke-linejoin:bevel;stroke-miterlimit:4;stroke-dasharray:none;stroke-dashoffset:0;stroke-opacity:1"
             inkscape:connector-curvature="0" />
        </g>
        <g
           id="g4195">
          <path
             d="m 48.258612,38.977203 a 17.623371,17.623371 0 1 1 -35.246741,0 17.623371,17.623371 0 1 1 35.246741,0 z"
             id="path2252"
             style="color:#000000;clip-rule:nonzero;display:inline;overflow:visible;visibility:visible;opacity:1;isolation:auto;mix-blend-mode:normal;color-interpolation:sRGB;color-interpolation-filters:linearRGB;solid-color:#000000;solid-opacity:1;fill:#171a21;fill-opacity:1;fill-rule:evenodd;stroke:none;stroke-width:5.53848743;stroke-linecap:round;stroke-linejoin:bevel;stroke-miterlimit:4;stroke-dasharray:none;stroke-dashoffset:0;stroke-opacity:1;color-rendering:auto;image-rendering:auto;shape-rendering:auto;text-rendering:auto;enable-background:accumulate"
             inkscape:connector-curvature="0" />
          <path
             inkscape:connector-curvature="0"
             style="color:#000000;clip-rule:nonzero;display:inline;overflow:visible;visibility:visible;opacity:1;isolation:auto;mix-blend-mode:normal;color-interpolation:sRGB;color-interpolation-filters:linearRGB;solid-color:#000000;solid-opacity:1;fill:#ffffff;fill-opacity:1;fill-rule:evenodd;stroke:none;stroke-width:5.53848743;stroke-linecap:round;stroke-linejoin:bevel;stroke-miterlimit:4;stroke-dasharray:none;stroke-dashoffset:0;stroke-opacity:1;color-rendering:auto;image-rendering:auto;shape-rendering:auto;text-rendering:auto;enable-background:accumulate"
             id="path4188"
             d="m 43.865761,38.977203 a 13.23052,12.83052 0 1 1 -26.461039,0 13.23052,12.83052 0 1 1 26.461039,0 z" />
        </g>
        <rect
           style="fill:#171a21;fill-opacity:1;fill-rule:evenodd;stroke:none"
           id="rect4196"
           transform="rotate(22.200523)"
           y="13.313908"
           x="33.120049"
           rx="13.68118"
           height="22.776436"
           width="141.70076" />
      </g>
    </g>
    <g
       id="text4156"
       style="font-style:normal;font-variant:normal;font-weight:bold;font-stretch:normal;font-size:42.06233215px;line-height:125%;font-family:'Bitstream Vera Sans';-inkscape-font-specification:'Bitstream Vera Sans Bold';letter-spacing:2.79714489px;word-spacing:0px;fill:#171a21;fill-opacity:1;stroke:none;stroke-width:1px;stroke-linecap:butt;stroke-linejoin:miter;stroke-opacity:1"
       transform="matrix(0.95096987,0,0,1.051558,0,-22)">
      <path
         inkscape:connector-curvature="0"
         id="path4150"
         style="fill:#171a21;fill-opacity:1"
         d="m 263.04439,26.509251 v 6.490086 q -2.5262,-1.129603 -4.92918,-1.704674 -2.40297,-0.575071 -4.53895,-0.575071 -2.83428,0 -4.1898,0.780453 -1.35553,0.780454 -1.35553,2.423513 0,1.232295 0.90369,1.930596 0.92422,0.677762 3.32719,1.17068 l 3.36828,0.677762 q 5.11402,1.026913 7.27054,3.121814 2.15651,2.094901 2.15651,5.956092 0,5.072947 -3.01912,7.558075 -2.99858,2.46459 -9.1806,2.46459 -2.91643,0 -5.8534,-0.554533 -2.93697,-0.554533 -5.87394,-1.64306 v -6.67493 q 2.93697,1.560907 5.66856,2.361898 2.75213,0.780454 5.29887,0.780454 2.58782,0 3.96388,-0.862607 1.37606,-0.862606 1.37606,-2.46459 0,-1.437677 -0.94476,-2.21813 -0.92422,-0.780454 -3.71742,-1.396601 l -3.0602,-0.677762 q -4.60057,-0.985836 -6.73654,-3.142352 -2.11544,-2.156516 -2.11544,-5.812325 0,-4.580029 2.9575,-7.044619 2.95751,-2.464589 8.50284,-2.464589 2.5262,0 5.19618,0.390226 2.66997,0.369689 5.52478,1.129604 z" />
      <path
         inkscape:connector-curvature="0"
         id="path4152"
         style="fill:#171a21;fill-opacity:1"
         d="m 271.16095,25.543953 h 28.26062 v 5.97663 h -10.16643 v 24.686975 h -7.90722 V 31.520583 h -10.18697 z" />
      <path
         inkscape:connector-curvature="0"
         id="path4154"
         style="fill:#171a21;fill-opacity:1"
         d="m 306.28529,25.543953 h 21.33924 v 5.97663 h -13.43201 v 5.709633 h 12.63102 v 5.976631 h -12.63102 v 7.02408 h 13.88385 v 5.976631 h -21.79108 z" />
      <path
         inkscape:connector-curvature="0"
         id="path4156"
         style="fill:#171a21;fill-opacity:1"
         d="m 356.44364,50.621154 h -12.36403 l -1.95113,5.586404 h -7.94831 l 11.35766,-30.663605 h 9.42705 l 11.35765,30.663605 h -7.9483 z m -10.39236,-5.689095 h 8.40015 L 350.26162,32.73234 Z" />
      <path
         inkscape:connector-curvature="0"
         id="path4158"
         style="fill:#171a21;fill-opacity:1"
         d="m 373.16571,25.543953 h 10.06374 l 6.98301,16.41006 7.02408,-16.41006 h 10.0432 v 30.663605 h -7.47592 V 33.779791 l -7.06516,16.533289 h -5.01133 l -7.06516,-16.533289 v 22.427767 h -7.49646 z" />
    </g>
  </g>
</svg>
