<?xml version="1.0" encoding="UTF-8" standalone="no"?>
<!-- Generator: Adobe Illustrator 25.2.1, SVG Export Plug-In . SVG Version: 6.00 Build 0)  -->

<svg
   version="1.1"
   id="Layer_1"
   x="0px"
   y="0px"
   viewBox="0 0 3839 862.3"
   style="enable-background:new 0 0 3839 862.3;"
   xml:space="preserve"
   sodipodi:docname="Watara Supervision-12.svg"
   inkscape:version="1.1.2 (0a00cf5339, 2022-02-04)"
   xmlns:inkscape="http://www.inkscape.org/namespaces/inkscape"
   xmlns:sodipodi="http://sodipodi.sourceforge.net/DTD/sodipodi-0.dtd"
   xmlns="http://www.w3.org/2000/svg"
   xmlns:svg="http://www.w3.org/2000/svg"><defs
   id="defs71">
	
	

		
		
		
		
		
		
		
		
		
		
		
		
	</defs><sodipodi:namedview
   id="namedview69"
   pagecolor="#ffffff"
   bordercolor="#666666"
   borderopacity="1.0"
   inkscape:pageshadow="2"
   inkscape:pageopacity="0.0"
   inkscape:pagecheckerboard="0"
   showgrid="false"
   inkscape:zoom="0.21932795"
   inkscape:cx="923.27494"
   inkscape:cy="649.71199"
   inkscape:window-width="3840"
   inkscape:window-height="2065"
   inkscape:window-x="0"
   inkscape:window-y="0"
   inkscape:window-maximized="1"
   inkscape:current-layer="Layer_1" />
<style
   type="text/css"
   id="style2">
	.st0{fill:#00A336;}
	.st1{fill:#FF0000;}
	.st2{fill:#FFFFFF;}
	.st3{fill:#00FFFE;}
</style>
<g
   id="g3704"
   transform="translate(0.05)"><g
     id="g3671"><path
       class="st2"
       d="M 239.1,457.3 C 221.8,432 199.5,416 169.1,416 c -29.1,0 -57,24 -57,56.6 0,84.6 185.2,49.3 185.2,217.8 0,100.6 -58.2,171.8 -153.6,171.8 -64.4,0 -111.5,-40 -143.7,-97.9 l 58.8,-61.9 c 12.4,38.6 45.2,73.3 84.2,73.3 37.2,0 60.1,-34 60.1,-72.6 0,-51.9 -44.6,-66.6 -81.1,-81.9 C 61.9,594.5 18,561.9 18,484 18,400.8 75.6,333.5 154.3,333.5 c 41.5,0 99.1,22 127.6,55.9 z"
       id="path4"
       style="fill:#000000;fill-opacity:1" /><path
       class="st2"
       d="m 361.1,346.8 h 91 v 281 c 0,61.9 5,149.2 82.4,149.2 77.4,0 82.4,-87.2 82.4,-149.2 v -281 h 91 v 300.4 c 0,122.5 -48.3,215.1 -173.4,215.1 -125.1,0 -173.4,-92.6 -173.4,-215.1 z"
       id="path6"
       style="fill:#000000;fill-opacity:1" /><path
       class="st2"
       d="M 882,848.9 H 791 V 346.8 h 123.9 c 97.9,0 161.6,42 161.6,155.8 0,106.6 -53.9,158.5 -149.3,158.5 H 882 Z m 0,-269 h 18.6 c 53.9,0 83,-12.7 83,-77.9 0,-64.6 -34.7,-73.9 -85.5,-73.9 H 882 Z"
       id="path8"
       style="fill:#000000;fill-opacity:1" /><path
       class="st2"
       d="m 1227.6,432 v 110.6 h 144.9 v 85.2 h -144.9 v 135.9 h 150.5 v 85.2 H 1136.6 V 346.8 h 241.5 V 432 Z"
       id="path10"
       style="fill:#000000;fill-opacity:1" /><path
       class="st2"
       d="M 1773.3,848.9 H 1663.1 L 1549.8,646.4 h -1.2 v 202.5 h -91 V 346.8 h 123.2 c 92.3,0 156.1,44 156.1,151.2 0,63.9 -32.8,127.9 -95.4,139.2 z m -224.8,-271 h 11.8 c 50.2,0 85.5,-16 85.5,-77.3 0,-61.9 -36.5,-73.9 -84.8,-73.9 h -12.4 v 151.2 z"
       id="path12"
       style="fill:#000000;fill-opacity:1" /><path
       class="st2"
       d="m 1989.5,685.1 h 1.2 l 104,-338.3 h 97.9 l -181.5,515.5 h -53.3 L 1779.4,346.8 h 97.9 z"
       id="path14"
       style="fill:#000000;fill-opacity:1" /><path
       class="st2"
       d="m 2327.1,848.9 h -91 V 346.8 h 91 z"
       id="path16"
       style="fill:#000000;fill-opacity:1" /><path
       class="st2"
       d="m 2631.8,457.3 c -17.3,-25.3 -39.6,-41.3 -70,-41.3 -29.1,0 -57,24 -57,56.6 0,84.6 185.2,49.3 185.2,217.8 0,100.6 -58.2,171.8 -153.6,171.8 -64.4,0 -111.5,-40 -143.7,-97.9 l 58.8,-61.9 c 12.4,38.6 45.2,73.3 84.2,73.3 37.2,0 60.1,-34 60.1,-72.6 0,-51.9 -44.6,-66.6 -81.1,-81.9 -60.1,-26.6 -104,-59.3 -104,-137.2 0,-83.2 57.6,-150.5 136.3,-150.5 41.5,0 99.1,22 127.6,55.9 z"
       id="path18"
       style="fill:#000000;fill-opacity:1" /><path
       class="st2"
       d="m 2847.4,848.9 h -91 V 346.8 h 91 z"
       id="path20"
       style="fill:#000000;fill-opacity:1" /><path
       class="st2"
       d="m 3435.2,333.5 h 65.6 l 245.9,351 h 1.2 V 346.8 h 91 v 512.1 h -65.6 l -245.9,-351 h -1.2 v 341 h -91 z"
       id="path22"
       style="fill:#000000;fill-opacity:1" /><path
       class="st2"
       d="m 3008.6,640.3 c -3,-15.8 -4.5,-31.8 -4.5,-47.1 0,-81.2 50.8,-163.2 136.9,-163.2 86.1,0 136.9,81.9 136.9,163.2 0,15.3 -1.5,31.3 -4.5,47.1 l 60.5,110 c 24.7,-43.1 38.2,-95.8 38.2,-153.2 0,-149.2 -91.7,-263.7 -231,-263.7 -139.4,0 -231,114.5 -231,263.7 0,57.4 13.5,110.1 38.2,153.2 z"
       id="path24"
       style="fill:#000000;fill-opacity:1" /><polygon
       class="st3"
       points="3140.9,499.9 2949.1,848.9 3332.8,848.9 "
       id="polygon26"
       style="fill:#00fffe;fill-opacity:1" /></g><g
     id="g64"
     style="fill:#00fffe;fill-opacity:1">
		<g
   id="g32"
   style="fill:#00fffe;fill-opacity:1">
			<polygon
   class="st3"
   points="1672.5,0 1709.9,114.1 1757.8,0 "
   id="polygon30"
   style="fill:#00fffe;fill-opacity:1" />
		</g>
		<polyline
   class="st3"
   points="1655.1,199 1732,16.3 1743.6,34 1737.4,48.6 1666.6,216.9   "
   id="polyline34"
   style="fill:#00fffe;fill-opacity:1" />
		<polyline
   class="st3"
   points="1502.7,250.7 1601.3,16.3 1612.9,34 1521.7,250.7   "
   id="polyline36"
   style="fill:#00fffe;fill-opacity:1" />
		<g
   id="g40"
   style="fill:#00fffe;fill-opacity:1">
			<polygon
   class="st3"
   points="1512.6,0 1408.6,0 1490.8,250.7 1502.7,250.7 1554.5,127.7 "
   id="polygon38"
   style="fill:#00fffe;fill-opacity:1" />
		</g>
		<polygon
   class="st3"
   points="1622.7,250.7 1652.4,250.7 1694.2,151.4 1644.6,0 1540.5,0 "
   id="polygon42"
   style="fill:#00fffe;fill-opacity:1" />
		<polygon
   class="st3"
   points="2430.4,27.8 1789.7,27.8 1800.9,0 2430.4,0 "
   id="polygon44"
   style="fill:#00fffe;fill-opacity:1" />
		<polygon
   class="st3"
   points="2430.4,250.7 1699.6,250.7 1710.8,223 2430.4,223 "
   id="polygon46"
   style="fill:#00fffe;fill-opacity:1" />
		<g
   id="g50"
   style="fill:#00fffe;fill-opacity:1">
			<path
   class="st3"
   d="m 1789,55.5 h -7.4 c 0,0 -4.6,10.8 -4.6,10.8 l -53.5,128.8 h 51.2 v -7.4 l -12,-6.8 c -3.1,-1.7 -5,-5 -5,-8.6 v -3.5 h 29.6 l 13.7,26.3 h 64.5 z m -28.4,95.8 7.9,-18.8 9.8,18.8 z"
   id="path48"
   style="fill:#00fffe;fill-opacity:1" />
		</g>
		<g
   id="g54"
   style="fill:#00fffe;fill-opacity:1">
			<path
   class="st3"
   d="m 2038.9,55.5 h -7.4 c 0,0 -4.6,10.8 -4.6,10.8 l -53.5,128.8 h 51.2 v -7.4 l -12,-6.8 c -3.1,-1.7 -5,-5 -5,-8.6 v -3.5 h 29.6 l 13.7,26.3 h 64.5 z m -28.4,95.8 7.9,-18.8 9.8,18.8 z"
   id="path52"
   style="fill:#00fffe;fill-opacity:1" />
		</g>
		<g
   id="g58"
   style="fill:#00fffe;fill-opacity:1">
			<path
   class="st3"
   d="m 2353.8,55.5 h -7.4 c 0,0 -4.6,10.8 -4.6,10.8 l -53.5,128.8 h 51.2 v -7.4 l -12,-6.8 c -3.1,-1.7 -5,-5 -5,-8.6 v -3.5 h 29.6 l 13.7,26.3 h 64.5 z m -28.4,95.8 7.9,-18.8 9.8,18.8 z"
   id="path56"
   style="fill:#00fffe;fill-opacity:1" />
		</g>
		<path
   class="st3"
   d="m 1863.5,55.5 h -17.6 v 17.6 30.5 h 17.6 c 0,-13.2 7.9,-21.8 13.8,-26.4 3.4,-2.7 7.6,-4.1 12,-4.1 v 0 122.1 h 57.3 v -122.1 0 c 4.3,0 8.6,1.4 12,4.1 5.9,4.6 13.8,13.2 13.8,26.4 H 1990 V 73.1 55.8 55.5 Z"
   id="path60"
   style="fill:#00fffe;fill-opacity:1" />
		<path
   class="st3"
   d="m 2238.5,114.1 h -3.3 c 16.2,0 29.3,-4.9 29.3,-29.3 v 0 c 0,-24.4 -13.1,-29.3 -29.3,-29.3 h -28 v 0 h -74.9 v 16.9 0.7 122.1 h 57.3 v -72.4 h 17.6 v 72.4 h 64.4 v -38 c 0,-18.3 -14.8,-43.1 -33.1,-43.1 z m -48.9,-41 h 17.6 v 32.2 h -17.6 z"
   id="path62"
   style="fill:#00fffe;fill-opacity:1" />
	</g></g>
</svg>
