<?xml version="1.0" encoding="UTF-8" standalone="no"?>
<!-- Generator: Adobe Illustrator 19.0.0, SVG Export Plug-In . SVG Version: 6.00 Build 0)  -->

<svg
   xmlns:dc="http://purl.org/dc/elements/1.1/"
   xmlns:cc="http://creativecommons.org/ns#"
   xmlns:rdf="http://www.w3.org/1999/02/22-rdf-syntax-ns#"
   xmlns:svg="http://www.w3.org/2000/svg"
   xmlns="http://www.w3.org/2000/svg"
   xmlns:sodipodi="http://sodipodi.sourceforge.net/DTD/sodipodi-0.dtd"
   xmlns:inkscape="http://www.inkscape.org/namespaces/inkscape"
   version="1.1"
   id="svg2"
   x="0px"
   y="0px"
   viewBox="-101.7 363.6 180 66.4"
   xml:space="preserve"
   sodipodi:docname="logo.svg"
   width="180"
   height="66.400002"
   inkscape:version="0.92.5 (2060ec1f9f, 2020-04-08)"><metadata
   id="metadata54"><rdf:RDF><cc:Work
       rdf:about=""><dc:format>image/svg+xml</dc:format><dc:type
         rdf:resource="http://purl.org/dc/dcmitype/StillImage" /><dc:title></dc:title></cc:Work></rdf:RDF></metadata><defs
   id="defs52" /><sodipodi:namedview
   pagecolor="#ffffff"
   bordercolor="#666666"
   borderopacity="1"
   objecttolerance="10"
   gridtolerance="10"
   guidetolerance="10"
   inkscape:pageopacity="0"
   inkscape:pageshadow="2"
   inkscape:window-width="3840"
   inkscape:window-height="2065"
   id="namedview50"
   showgrid="false"
   inkscape:zoom="12.153842"
   inkscape:cx="90.478256"
   inkscape:cy="42.396755"
   inkscape:window-x="0"
   inkscape:window-y="0"
   inkscape:window-maximized="1"
   inkscape:current-layer="svg2" />
<rect
   x="-362.70001"
   y="727.20001"
   width="172.5"
   height="66.400002"
   id="rect2"
   style="fill:none" />
<g
   id="g14"
   transform="translate(-35.237722,-0.01169924)">
	<g
   id="g20"
   transform="translate(44.7168,52.9789)">
		<path
   id="path22"
   d="m -51.5,310.8 6.1,6.8 c 0,2.7 0,5.5 0,8.2 -2.9,0 -5.8,0 -8.7,0 0,-2 0,-3.9 0,-5.9 -2.3,0 -4.6,0 -6.9,0 0,3.2 0,6.5 0,9.7 0.7,0 1.4,0 2.1,0 0,2.9 0,5.8 0,8.7 -1.7,0 -3.3,0 -5,0 -0.2,0 -0.3,-0.2 -0.4,-0.3 -2,-2.1 -4.1,-4.1 -6,-6.2 0,-4.6 0,-9.3 0,-13.9 l 6.2,-7.1 z"
   inkscape:connector-curvature="0"
   style="fill:#0a93b2" />
	</g>
	<g
   id="g24"
   transform="translate(52.2605,20.1686)">
		<path
   id="path26"
   d="m -49.6,384.6 c 0,-13.7 0,-27.4 -0.1,-41 3.1,0 6.2,0 9.4,0 0,13 0,26.1 0.1,39.1 0.9,0 1.7,0 2.6,0 0,3 0,5.9 0,8.9 -1.6,0 -3.2,0 -4.8,0 -0.2,0 -0.3,-0.1 -0.4,-0.2 z"
   inkscape:connector-curvature="0"
   style="fill:#0a93b2" />
	</g>
	<g
   id="g28"
   transform="translate(65.6484,53.0148)">
		<path
   id="path30"
   d="m -46.3,310.7 c 3.1,0 6.2,0 9.4,0 0,13.7 0.1,27.4 0.1,41.1 -2.2,2.4 -4.6,4.6 -6.8,7 -1.7,0 -3.3,0 -5,0 0,-3 0,-5.9 0,-8.9 0.8,0 1.6,0 2.5,0 -0.2,-13.1 -0.2,-26.1 -0.2,-39.2"
   inkscape:connector-curvature="0"
   style="fill:#0a93b2" />
	</g>
	<g
   id="g32"
   transform="translate(75.5585,53.0319)">
		<path
   id="path34"
   d="m -43.8,310.7 c 3.1,0 6.2,0 9.4,0 0,16 0.1,32 0.1,48 -3.1,0 -6.2,0 -9.4,0 -0.1,-16 -0.1,-32 -0.1,-48"
   inkscape:connector-curvature="0"
   style="fill:#0a93b2" />
	</g>
	<g
   id="g36"
   transform="translate(90.4033,53.0555)">
		<path
   id="path38"
   d="m -40.1,310.6 c 2.3,2.3 4.6,4.5 6.8,6.7 v 18.2 c -2.3,2.3 -4.5,4.5 -6.8,6.8 -2.2,0 -4.5,0 -6.7,0 0,-3 0,-6.1 0,-9.1 1.4,0 2.7,0 4,0 0,-4.5 0,-9 0,-13.5 -1.4,0 -2.7,0 -4,0 0,-3 0,-6.1 0,-9.1 z"
   inkscape:connector-curvature="0"
   style="fill:#0a93b2" />
	</g>
	<g
   id="g40"
   transform="translate(98.3076,53.071)">
		<path
   id="path42"
   d="m -38.1,310.6 c 6.9,0 13.7,0 20.6,0 0,3 0,6.1 0,9.1 -3.7,0 -7.5,0 -11.2,0 0,9.9 0,19.9 0.1,29.8 3.8,0 7.5,0 11.2,0 0,3 0,6.1 0,9.1 -6.9,0 -13.7,0 -20.6,0 -0.1,-16 -0.1,-32 -0.1,-48"
   inkscape:connector-curvature="0"
   style="fill:#0a93b2" />
	</g>
	<g
   id="g44"
   transform="translate(117.3143,53.1036)">
		<path
   id="path46"
   d="m -33.4,310.5 c 3.1,0 6.2,0 9.4,0 0,16 0.1,32 0.1,48 -3.1,0 -6.2,0 -9.4,0 0,-16 -0.1,-32 -0.1,-48"
   inkscape:connector-curvature="0"
   style="fill:#0a93b2" />
	</g>
	<g
   id="g48"
   transform="translate(133.4452,33.8042)">
		<path
   id="path50"
   d="m -29.4,353.9 c 1.9,1.9 3.8,3.8 5.7,5.7 0.1,6.1 0,12.1 0,18.2 -3.2,0 -6.3,0 -9.5,0 0,-6.4 0,-12.8 0,-19.2 -1.6,0 -3.1,0 -4.7,0 0,-3 0,-6.1 0,-9.1 1.6,0 3.1,0 4.7,0 0,-3.5 0,-7.1 0,-10.6 -1.6,0 -3.1,0 -4.7,0 0,-3 0,-6.1 0,-9.1 h 7.3 l 6.9,6.9 c 0,3.8 0,7.5 0,11.3 z"
   inkscape:connector-curvature="0"
   style="fill:#0a93b2" />
	</g>
	<g
   id="g52"
   transform="translate(107.8365,38.5277)">
		<path
   id="path54"
   d="m -35.8,343.3 c 2.3,0 4.6,0 6.8,0 0,3 0,6.1 0,9.1 -2.3,0 -4.5,0 -6.8,0 0.1,-3 0.1,-6.1 0,-9.1"
   inkscape:connector-curvature="0"
   style="fill:#0a93b2" />
	</g>
	<g
   id="g56"
   transform="translate(44.6569,14.5637)">
		<path
   id="path58"
   d="m -51.5,397.2 h -12.7 l -6.1,-6.8 c 0,-2.7 0,-5.5 0,-8.2 2.9,0 5.8,0 8.7,0 0,2 0,3.9 0,5.9 2.3,0 4.6,0 6.9,0 v -11.3 c -0.5,0 -1,0 -1.6,0 0,-2.9 0,-5.8 0,-8.7 1.5,0 3,0 4.5,0 0.2,0 0.3,0.1 0.4,0.2 2,2.1 4,4.1 6,6.1 0.1,0.1 0.2,0.2 0.1,0.4 0,5.1 0,10.2 0,15.3 z"
   inkscape:connector-curvature="0"
   style="fill:#0a93b2" />
	</g>
	<g
   id="g60"
   transform="translate(58.3586,0.0198)">
		<path
   id="path62"
   d="m -48.1,430 c -4.8,0 -9.5,0 -14.3,0 -0.9,0 -1.9,-0.3 -2.6,-0.9 -0.5,-0.4 -0.7,-1.1 -0.7,-1.7 0,-2.8 0,-5.7 0,-8.5 0,-1 0.8,-1.9 1.7,-2.2 0.7,-0.3 1.4,-0.3 2.1,-0.3 4.6,0 9.2,0 13.8,0 0,0.8 0,1.7 0,2.5 -4.8,0 -9.6,0 -14.4,0 0,2.9 0,5.7 0,8.6 3.8,0 7.5,0 11.3,0 0,-1 0,-2 0,-3 -1.8,0 -3.6,0 -5.4,0 0,-0.8 0,-1.7 0,-2.5 2.9,0 5.7,0 8.6,0 z"
   inkscape:connector-curvature="0"
   style="fill:#0a93b2" />
	</g>
	<g
   id="g64"
   transform="translate(63.2974,8.9267)">
		<path
   id="path66"
   d="m -46.9,409.9 c 0,1 0,2 0,3 3.6,0 7.2,0 10.7,0 0,-1 0,-2 0,-3 -3.5,0 -7.1,0 -10.7,0 m -3.2,-2.5 c 4.6,0 9.2,0 13.8,0 1.2,0 2.4,0.5 3,1.5 0.3,0.6 0.3,1.3 0.3,1.9 0,0.8 0,1.6 0,2.4 -0.1,1 -0.9,1.7 -1.8,2 -0.9,0.4 -1.9,0.2 -2.9,0.3 l 5,5.5 h -3.9 c -1.7,-1.9 -3.3,-3.7 -5,-5.6 h -5.3 v 5.6 h -3.2 c 0.1,0 0,-13.6 0,-13.6 z"
   inkscape:connector-curvature="0"
   style="fill:#0a93b2" />
	</g>
	<g
   id="g68"
   transform="translate(88.5909,0.0718)">
		<path
   id="path70"
   d="m -40.6,429.8 c -1.8,-3.7 -3.7,-7.4 -5.5,-11.1 h -1.4 c -1.8,3.7 -3.6,7.4 -5.5,11.1 h -3.7 c 2.2,-4.6 4.5,-9.1 6.7,-13.7 h 6.3 c 2.2,4.5 4.5,9.1 6.8,13.6 z"
   inkscape:connector-curvature="0"
   style="fill:#0a93b2" />
	</g>
	<g
   id="g72"
   transform="translate(92.7168,10.9988)">
		<path
   id="path74"
   d="m -39.5,405.3 c 5.4,0 10.7,0 16.1,0 0,0.8 0,1.7 0,2.5 -4.3,0 -8.6,0 -12.9,0 0,1 0,2 0,3 3.8,0 7.5,0 11.3,0 0,0.8 0,1.7 0,2.5 -3.8,0 -7.5,0 -11.3,0 0,1.9 0,3.7 0,5.6 -1.1,0 -2.1,0 -3.2,0 0,-4.5 0,-9.1 0,-13.6"
   inkscape:connector-curvature="0"
   style="fill:#0a93b2" />
	</g>
	<g
   id="g76"
   transform="translate(121.837,0.1357)">
		<path
   id="path78"
   d="m -32.3,429.7 h -4.6 c -1.7,-1.6 -3.3,-3.2 -5,-4.8 -1.7,1.6 -3.3,3.3 -4.9,4.8 h -4.6 l 7.1,-7.3 c -2.2,-2.1 -4.3,-4.2 -6.5,-6.4 h 4.7 l 4.3,4.2 c 1.5,-1.4 2.8,-2.8 4.3,-4.2 h 4.6 c -2.2,2.2 -4.4,4.3 -6.5,6.5 z"
   inkscape:connector-curvature="0"
   style="fill:#0a93b2" />
	</g>
	<g
   id="g80"
   transform="translate(5.9731,44.6838)">
		<path
   id="path82"
   d="m -61.2,329.5 v -0.1 c 1.9,-3.9 4.1,-5.9 6.4,-5.9 1.9,0.1 3.7,1.6 5.2,4.4 1.4,2.7 2.5,6.5 3.3,11 0,0.1 -0.1,0.3 -0.2,0.3 -0.1,0 -0.3,-0.1 -0.3,-0.2 -1.4,-9.1 -4.5,-14.8 -7.9,-15 -2,-0.1 -4.1,1.9 -5.9,5.6 -0.1,0.1 -0.2,0.2 -0.4,0.1 -0.2,0 -0.2,-0.1 -0.2,-0.2"
   inkscape:connector-curvature="0"
   style="fill:#0a93b2" />
	</g>
	<g
   id="g84"
   transform="translate(17.2877,17.378)">
		<path
   id="path86"
   d="m -58.4,390.9 v 0 c 0.5,-2.9 0.8,-6 0.9,-9.1 0,-0.2 0.1,-0.3 0.3,-0.3 0.2,0 0.3,0.1 0.3,0.3 -0.1,3.1 -0.5,6.2 -0.9,9.1 0,0.2 -0.2,0.3 -0.3,0.2 -0.2,0 -0.3,-0.1 -0.3,-0.2"
   inkscape:connector-curvature="0"
   style="fill:#0a93b2" />
	</g>
	<g
   id="g88"
   transform="translate(2.4467,24.2714)">
		<path
   id="path90"
   d="m -62.1,375.4 c 0,-0.1 0,-0.2 0,-0.2 0,-0.1 0,-0.3 0,-0.3 0,0 0,0.1 0,0.3 v 0 c 0,0.1 0.2,0.2 0.2,0.2 0,14.7 3.9,26.3 8.9,26.4 1.7,0 3.5,-1.3 5.1,-4 1.6,-2.7 2.9,-6.5 3.9,-11 0,-0.1 0.2,-0.2 0.3,-0.2 0.1,0 0.2,0.2 0.2,0.3 -1,4.6 -2.3,8.5 -3.9,11.2 -1.7,2.9 -3.6,4.3 -5.5,4.3 -2.6,-0.1 -4.9,-3 -6.6,-8.1 -1.8,-5 -2.6,-11.7 -2.6,-18.9"
   inkscape:connector-curvature="0"
   style="fill:#0a93b2" />
	</g>
	<g
   id="g92"
   transform="translate(13.7124,20.3103)">
		<path
   id="path94"
   d="m -59.3,384.3 5.5,7.2 -3.4,-8.5 2.5,-2.4 -3.5,0.8 -5.5,-7.2 3.4,8.5 -2.5,2.4 z"
   inkscape:connector-curvature="0"
   style="fill:#0a93b2" />
	</g>
	<g
   id="g96"
   transform="translate(15.9858,33.9481)">
		<path
   id="path98"
   d="m -58.7,353.6 3.1,0.6 0.3,2.1 c 0,0.3 -0.1,0.4 -0.4,0.4 l -2.1,-0.4 c -0.3,-0.1 -0.5,-0.3 -0.6,-0.5 z m -8.8,24.3 3.1,0.6 c 1,0.2 2,1.2 2.1,2.2 l 0.6,3.9 c 0.1,0.7 -0.6,1.1 -1.4,1 l -1,-0.2 c -0.7,-0.1 -1.5,-0.9 -1.6,-1.5 l -0.7,-4.1 -0.4,-0.1 c -0.4,-0.1 -0.7,0.2 -0.7,0.6 l 0.7,4.6 -1.7,-0.3 -0.8,-5.1 c 0.2,-1 0.9,-1.8 1.8,-1.6 m 3.2,-10.2 0.3,1.6 -6.8,-1.2 -0.3,-1.7 z m -8.3,-10.9 -0.3,-1.7 4.4,0.8 c 0.5,0.1 0.7,-0.1 0.6,-0.6 l -0.5,-2.9 -5.2,-1 -0.3,-1.7 6.8,1.2 v 0 l 0.9,5.6 c 0.1,0.8 -0.4,1.3 -1.3,1.1 0.2,0.2 -5.1,-0.8 -5.1,-0.8 z m 0.4,-8 -1.8,-0.3 -1.1,-7 11.8,2.2 0.9,5.8 -1.6,-0.3 -0.7,-4.1 -3.4,-0.6 0.5,3.4 -1.6,-0.3 -0.5,-3.4 -3.4,-0.6 c 0.1,-0.2 0.9,5.2 0.9,5.2 z m 1.3,0.2 -0.6,-4 0.8,0.1 0.5,3.2 4.2,0.8 -0.5,-3.2 0.8,0.1 0.6,4 c 0,0.1 -5.8,-1 -5.8,-1 z m -2.8,8.8 h 0.1 c 0,0.1 -0.1,0.3 0,0.4 l 0.5,3.3 c -0.7,-0.1 -0.8,-1 -1,-2.3 l -0.2,-1.5 -4.4,-0.8 0.3,2 c 0.5,4.9 3,6.7 6,7.3 l 1,5.9 5.2,0.9 0.1,0.5 c 0.1,0.5 0.2,0.5 -0.4,0.4 l -4.7,-0.9 0.7,4.3 0.3,0.1 c -0.1,0.3 -0.2,0.7 -0.1,1.1 l 1.2,7.4 3.7,0.7 0.3,-0.5 c 0.5,0.4 1.1,0.7 1.6,0.8 l 0.6,0.1 c 2.2,0.4 2.8,-1.7 2.6,-2.6 l -0.7,-4.2 c -0.1,-0.8 -0.6,-1.6 -1.3,-2.2 0.5,-0.6 0.8,-1.4 0.7,-1.9 l -0.8,-4.7 -1.2,0.5 0.7,4.3 c 0.1,0.6 -0.1,1 -0.6,1.1 -0.1,0 -5.9,-1.1 -5.9,-1.1 l -0.2,-1.5 4.4,0.8 c 0.6,0.1 0.7,-0.1 0.6,-0.6 l -0.5,-2.9 -5.2,-1 -0.3,-1.7 5.9,1.1 1.6,-1.4 -1.8,-5 0.4,2.4 v 0 l -8.1,-1.5 c -2.1,-0.4 -4,-2.6 -4.3,-4.5 l -0.3,-2 1.6,0.3 0.2,1.5 c 0.2,1.3 1.5,2.8 2.9,3.1 l 0.9,0.2 -0.6,-3.9 c -0.1,-0.8 0.4,-1.3 1.3,-1.1 l 3.8,0.7 c 0.7,0.1 1.2,0.5 1.5,1.1 h 0.1 l 1.5,2 -0.2,-1.2 c -0.1,-0.6 -0.6,-1.7 -1.5,-2.5 0.6,-0.5 0.9,-1.5 0.8,-2 l -0.7,-4.2 3.7,0.7 0.5,3.1 c 0.3,1.6 2.1,3.5 3.9,3.8 l 2.5,0.5 c 1.7,0.3 3.1,-0.9 2.8,-2.5 l -1.1,-6.8 -7.7,-1.4 -1,-6.2 c -0.1,-0.5 -0.6,-1 -1.2,-1.1 l -12.5,-2.3 c -0.6,-0.1 -0.9,0.2 -0.9,0.8 l 1.9,11.9 5.2,1 0.1,0.5 c 0.1,0.5 0.2,0.5 -0.4,0.4 l -4.7,-0.9 c 0.1,-0.4 0.8,3.9 0.8,3.9 z m 9.2,22.3 h -0.2 l 0.5,3.2 c 0,0.3 0.3,0.5 0.6,0.5 0.3,0.1 0.5,-0.1 0.4,-0.4 l -0.1,-0.8 -0.2,-1.3 -0.1,-0.3 c -0.1,-0.4 -0.5,-0.8 -0.9,-0.9 m -3.2,-19.6 -2,-0.4 c -0.6,-0.1 -0.7,0.1 -0.6,0.6 l 0.5,3.1 3.5,0.7 -0.5,-3.1 c -0.1,-0.5 -0.4,-0.8 -0.9,-0.9 m -0.8,1.1 c 0.5,0.1 0.4,0.3 0.5,0.8 l 0.1,0.5 -0.8,-0.1 -0.1,-0.5 c 0,-0.6 -0.2,-0.8 0.3,-0.7"
   inkscape:connector-curvature="0"
   style="fill:#0a93b2" />
	</g>
	<g
   id="g100"
   transform="translate(14.8581,23.0213)">
		<path
   id="path102"
   d="m -59,378.2 1.8,-0.5 v -0.3 l -0.4,-0.1 c -0.3,-0.1 -0.6,-0.3 -0.6,-0.6 l -0.3,-1.8 c 0,-0.3 0.1,-0.5 0.4,-0.4 l 4.8,0.9 c 0.3,0.1 0.6,0.3 0.6,0.6 l 0.3,1.8 c 0,0.3 -0.1,0.5 -0.4,0.4 l -0.6,-0.1 0.6,3.5 0.7,0.1 c 1.8,0.3 3.2,-0.9 2.9,-2.6 l -0.5,-3.4 c -0.3,-1.7 -2.2,-3.6 -4,-3.9 l -5.1,-0.9 c -1.8,-0.3 -3.2,0.9 -2.9,2.6 l 0.2,1.1 z"
   inkscape:connector-curvature="0"
   style="fill:#0a93b2" />
	</g>
	<g
   id="g104"
   transform="translate(15.7287,21.0101)">
		<path
   id="path106"
   d="m -58.8,382.7 c 0.2,0.1 0.3,0.2 0.6,0.2 l 0.6,0.1 -0.2,-1.4 z"
   inkscape:connector-curvature="0"
   style="fill:#0a93b2" />
	</g>
</g>
</svg>