<?xml version="1.0" encoding="UTF-8" standalone="no"?>
<svg
   xmlns:dc="http://purl.org/dc/elements/1.1/"
   xmlns:cc="http://creativecommons.org/ns#"
   xmlns:rdf="http://www.w3.org/1999/02/22-rdf-syntax-ns#"
   xmlns:svg="http://www.w3.org/2000/svg"
   xmlns="http://www.w3.org/2000/svg"
   xmlns:sodipodi="http://sodipodi.sourceforge.net/DTD/sodipodi-0.dtd"
   xmlns:inkscape="http://www.inkscape.org/namespaces/inkscape"
   width="800"
   height="176.36418"
   version="1.1"
   viewBox="0 0 800 176.36418"
   id="svg2"
   sodipodi:docname="logo.svg"
   inkscape:version="0.92.5 (2060ec1f9f, 2020-04-08)">
  <metadata
     id="metadata8">
    <rdf:RDF>
      <cc:Work
         rdf:about="">
        <dc:format>image/svg+xml</dc:format>
        <dc:type
           rdf:resource="http://purl.org/dc/dcmitype/StillImage" />
        <dc:title></dc:title>
      </cc:Work>
    </rdf:RDF>
  </metadata>
  <defs
     id="defs6" />
  <sodipodi:namedview
     pagecolor="#ffffff"
     bordercolor="#666666"
     borderopacity="1"
     objecttolerance="10"
     gridtolerance="10"
     guidetolerance="10"
     inkscape:pageopacity="0"
     inkscape:pageshadow="2"
     inkscape:window-width="3840"
     inkscape:window-height="2065"
     id="namedview4"
     showgrid="false"
     inkscape:zoom="2.184783"
     inkscape:cx="366.47128"
     inkscape:cy="193.80534"
     inkscape:window-x="0"
     inkscape:window-y="0"
     inkscape:window-maximized="1"
     inkscape:current-layer="svg2"
     fit-margin-top="0"
     fit-margin-left="0"
     fit-margin-right="0"
     fit-margin-bottom="0" />
  <path
     style="fill:#65bade;fill-opacity:1;stroke:none;stroke-width:0.03652103"
     inkscape:connector-curvature="0"
     id="path4"
     d="M 37.76031,0.58425297 C 20.19122,3.7246229 6.0555905,16.724283 1.5993975,33.813713 c -1.60715171,6.17119 -1.71673023,9.78626 -1.53409936,57.6586 0.10957852,43.965127 0.14610469,44.987577 0.87662817,48.383547 4.05440539,18.29447 17.05772269,31.33064 35.53996669,35.63952 2.410727,0.54774 5.478927,0.65728 25.239586,0.76683 20.454656,0.14606 22.573174,0.10955 23.121068,-0.43819 0.547893,-0.54774 0.584418,-7.5953 0.584418,-87.492077 0,-59.22878 -0.109579,-87.1269201 -0.365262,-87.63814003 -0.365262,-0.65729 -0.986206,-0.6938000088983 -22.390543,-0.65729 -17.386458,0.0365 -22.609702,0.14607 -24.91085,0.54774 z M 70.816496,88.222393 v 73.981197 l -14.866152,-0.18258 c -13.697316,-0.14606 -15.158362,-0.21909 -17.897826,-0.91289 -11.761427,-3.03082 -20.491183,-12.08677 -22.938436,-23.8814 -0.803576,-3.6881 -0.803576,-94.539647 -0.03653,-98.154717 2.191571,-10.26096 9.314175,-18.76917 18.920557,-22.60334 4.821456,-1.93534 7.049552,-2.15443 22.682754,-2.19095 l 14.13563,-0.0365 z" />
  <path
     style="fill:#65bade;fill-opacity:1;stroke:none;stroke-width:0.03652103"
     inkscape:connector-curvature="0"
     id="path6"
     d="m 40.901559,36.552403 c -2.301147,0.4382 -5.807661,2.19096 -7.670494,3.83417 -3.83525,3.32295 -5.734609,8.0335 -5.442401,13.58392 0.146105,2.88475 0.328736,3.65158 1.497574,5.9886 1.716728,3.54204 4.310086,6.13467 7.853125,7.88744 2.447255,1.20502 3.0682,1.35108 6.245977,1.46063 2.885568,0.10955 3.908301,0 5.844189,-0.65729 7.926179,-2.66565 12.711107,-10.37051 11.359638,-18.25794 -1.570626,-9.38459 -10.483011,-15.66532 -19.687608,-13.83953 z" />
  <path
     style="fill:#da4a4b;fill-opacity:1;stroke:none;stroke-width:0.03652103"
     inkscape:connector-curvature="0"
     id="path8"
     d="m 103.21521,0.25561297 c -0.14611,0.10955 -0.25568,39.69277003 -0.25568,87.96678003 0,79.641157 0.0365,87.711177 0.58441,87.930267 0.98621,0.36516 29.33052,0.2191 32.83703,-0.14606 14.82963,-1.67973 27.906,-10.69916 35.0286,-24.10049 0.91316,-1.71625 2.11852,-4.601 2.73947,-6.39028 2.30115,-6.86499 2.22809,-5.03919 2.22809,-57.512527 0,-41.88373 -0.073,-48.12795 -0.58441,-50.79361 C 172.17662,18.184913 157.67573,3.8341629 138.60907,0.54773297 136.05224,0.10954297 132.10741,2.9611016e-6 119.3963,2.9611016e-6 110.63002,2.9611016e-6 103.32479,0.10954297 103.21521,0.25561297 Z M 142.22516,79.787223 c 5.69808,1.49715 10.37343,5.84254 12.2728,11.39296 1.20536,3.4325 1.16883,8.47169 -0.0365,11.612047 -2.2281,5.76952 -6.61124,9.82278 -12.23627,11.31993 -9.13154,2.37353 -18.84751,-3.14037 -21.51391,-12.19631 -0.80358,-2.775207 -0.76705,-7.449237 0.1461,-10.297477 2.73946,-8.94639 12.23627,-14.20468 21.36781,-11.83115 z" />
  <g
     id="g4839"
     transform="matrix(0.62745924,0,0,0.62745924,-274.21022,-113.86845)">
    <path
       d="m 1657.0625,183.10464 c -20.6681,6.79999 -32.9357,26.66666 -29.4688,48.26666 2.1335,13.86667 10.1342,24.8 22.4016,31.06667 16.668,8.26666 34.4027,6.13333 47.737,-5.86667 10.0008,-9.06667 14.2677,-18.53333 14.2677,-32 0,-12.66667 -3.7336,-22.13333 -12.1343,-30.53333 -10.534,-10.53333 -29.4688,-15.33333 -42.8032,-10.93333 z m 23.6019,19.46666 c 8.0005,4.13333 12.4009,10.8 13.0676,19.86667 0.8,11.86666 -4.2669,20.4 -14.8011,24.8 -17.868,7.46666 -38.1362,-9.73334 -33.0692,-28.26667 2.1335,-8.26667 5.7338,-12.93333 12.401,-16.26667 7.2005,-3.46666 15.6012,-3.6 22.4017,-0.13333 z"
       id="path10"
       inkscape:connector-curvature="0"
       style="fill:#000000;stroke:none;stroke-width:0.13333833" />
    <path
       d="m 763.26233,224.5713 v 40.8 l 8.40063,-0.4 8.26728,-0.4 0.66672,-25.73333 0.66672,-25.73334 19.33477,26 19.33479,26.13334 8.0006,-0.26667 8.00059,-0.4 v -40 -40 l -8.26729,-0.4 -8.40062,-0.4 v 26.26667 26.4 L 799.66505,210.1713 779.93024,183.90464 h -8.26728 -8.40063 z"
       id="path12"
       inkscape:connector-curvature="0"
       style="fill:#000000;stroke:none;stroke-width:0.13333833" />
    <path
       d="m 896.60565,224.5713 v 40.66667 h 8.6673 8.66732 V 224.5713 183.90464 h -8.66732 -8.6673 z"
       id="path14"
       inkscape:connector-curvature="0"
       style="fill:#000000;stroke:none;stroke-width:0.13333833" />
    <path
       d="m 974.61148,185.63797 c -0.40002,0.93333 -0.53337,19.06666 -0.40002,40.26666 l 0.40002,38.66667 8.40063,0.4 8.26728,0.4 V 238.43797 211.3713 l 20.00151,26.93333 20.0015,26.93334 h 8.0006 8.0006 V 224.5713 183.90464 h -8.6673 -8.6673 l -0.2667,25.59999 -0.4001,25.6 -19.2014,-25.6 -19.06809,-25.59999 h -7.86725 c -5.20039,0 -8.13395,0.53333 -8.53398,1.73333 z"
       id="path16"
       inkscape:connector-curvature="0"
       style="fill:#000000;stroke:none;stroke-width:0.13333833" />
    <path
       d="m 1104.2212,184.83797 c -0.5334,0.4 -0.9334,4.4 -0.9334,8.66666 v 7.73334 h 13.3343 13.3343 v 32 32 h 8.6674 8.6673 v -32 -32 h 12.6676 12.6676 v -8.66667 -8.66666 h -33.7358 c -18.6681,0 -34.2693,0.4 -34.6693,0.93333 z"
       id="path18"
       inkscape:connector-curvature="0"
       style="fill:#000000;stroke:none;stroke-width:0.13333833" />
    <path
       d="m 1231.2974,224.5713 v 40.66667 h 31.3357 31.3356 v -8 -8 h -23.335 -23.3351 v -9.33334 -9.33333 h 21.3349 21.3349 v -7.33333 -7.33334 h -21.3349 -21.3349 v -8 -8 l 23.0684,-0.26666 22.935,-0.4 0.4,-7.73334 0.4001,-7.59999 h -31.469 -31.3357 z"
       id="path20"
       inkscape:connector-curvature="0"
       style="fill:#000000;stroke:none;stroke-width:0.13333833" />
    <path
       d="m 1359.9737,185.63797 c -0.4001,0.93333 -0.5334,19.06666 -0.4001,40.26666 l 0.4001,38.66667 8.4006,0.4 8.2673,0.4 V 238.30463 211.3713 l 20.0015,26.93333 20.0014,26.93334 h 8.0007 8.0005 V 224.5713 183.90464 h -8.6672 -8.6673 l -0.2668,25.59999 -0.4,25.6 -19.2015,-25.6 -19.068,-25.59999 h -7.8673 c -5.2004,0 -8.1339,0.53333 -8.5339,1.73333 z"
       id="path22"
       inkscape:connector-curvature="0"
       style="fill:#000000;stroke:none;stroke-width:0.13333833" />
    <path
       d="m 1500.6509,224.43797 v 40.8 h 17.7347 c 20.5348,0 30.2689,-2 39.0695,-8.13334 26.002,-17.86666 22.0017,-56.13333 -7.2006,-69.6 -5.467,-2.53333 -9.2006,-2.93333 -27.8686,-3.33333 l -21.735,-0.53333 z m 43.6032,-20.66667 c 11.2008,5.2 16.0012,19.46667 10.4008,31.33333 -4.2669,8.8 -12.9342,12.8 -28.1354,12.8 h -9.8674 V 224.5713 201.23797 h 11.0675 c 7.8672,0 12.5343,0.8 16.5345,2.53333 z"
       id="path24"
       inkscape:connector-curvature="0"
       style="fill:#000000;stroke:none;stroke-width:0.13333833" />
    <path
       d="m 1460.3812,301.3713 c -18.5347,2.4 -35.0693,11.06667 -48.6703,25.6 -29.7356,32 -28.8022,80.66666 2.2668,111.6 11.4675,11.6 21.8683,17.59999 36.8028,21.33333 24.5351,6.26666 49.337,1.33333 69.6052,-14 7.8672,-5.86667 18.1347,-17.33333 17.3346,-19.33333 -0.2667,-0.53334 -5.7338,-5.46667 -12.2676,-11.2 l -11.7342,-10.26667 -3.6002,4.66667 c -17.2014,22.53333 -52.0039,24.93333 -72.1388,4.8 -2.9335,-2.93334 -6.9339,-8.4 -8.934,-12.26667 -3.3336,-6.4 -3.7336,-8.4 -3.7336,-20.4 0,-11.46667 0.4,-14.26667 3.3336,-20 9.8674,-20.4 34.2692,-31.46667 55.4708,-25.33333 9.8674,2.8 19.2014,8.66666 25.0685,15.73333 l 4.5337,5.46667 5.8671,-4.8 c 3.2003,-2.53334 8.8007,-7.46667 12.4009,-10.66667 l 6.6672,-6 -5.2004,-6.4 c -17.3346,-21.06666 -45.3366,-32 -73.0721,-28.53333 z"
       id="path26"
       inkscape:connector-curvature="0"
       style="fill:#000000;stroke:none;stroke-width:0.13333833" />
    <path
       d="m 800.86514,306.5713 c -31.7357,8.4 -48.13693,29.6 -41.06974,53.6 5.06705,17.73333 21.8683,26.4 66.53832,34.4 30.00225,5.33333 38.8029,9.73333 38.8029,19.2 0,6.53333 -3.86696,11.33333 -12.26759,15.2 -7.20053,3.33333 -8.80065,3.6 -26.93534,3.6 -21.46828,0 -29.86891,-1.73334 -45.73676,-8.93334 -4.93371,-2.26666 -9.20069,-3.86666 -9.46737,-3.6 -1.60012,2 -14.26774,25.6 -13.86771,25.86667 1.33343,1.46667 22.66836,9.2 31.46903,11.6 14.66776,3.86666 46.00343,4.8 62.00463,1.86666 29.86891,-5.6 44.67002,-19.33333 46.00344,-42.39999 1.06675,-19.06667 -4.26698,-28.93334 -20.66821,-37.46667 -11.73421,-6.13333 -21.86831,-9.06667 -47.7369,-14.26667 -22.53503,-4.4 -28.93551,-6.53333 -33.60252,-10.93333 -4.13364,-3.86667 -4.13364,-10.8 0.13334,-15.06667 9.60072,-9.6 44.00329,-10 70.67196,-0.66666 4.40033,1.46666 8.40063,2.26666 8.934,1.73333 0.9334,-1.06667 10.53412,-23.6 10.53412,-24.93333 0,-1.2 -20.40152,-7.2 -31.86905,-9.33333 -15.46783,-2.93334 -39.46961,-2.66667 -51.87055,0.53333 z"
       id="path28"
       inkscape:connector-curvature="0"
       style="fill:#000000;stroke:none;stroke-width:0.13333833" />
    <path
       d="m 914.47365,307.50463 c 0.40002,1.33334 9.73406,34.53333 20.80156,73.73333 11.06749,39.2 20.40153,72.4 20.80156,73.6 0.66672,2.13333 2.8002,2.4 19.20143,2.4 h 18.53472 l 1.46678,-5.06666 c 13.201,-47.73334 26.5353,-92.53334 27.202,-90.93334 0.4001,1.06667 6.6672,22.93334 13.8677,48.66667 l 13.0677,46.66666 18.668,0.4 18.6681,0.4 21.2016,-74.39999 c 11.6009,-40.93334 21.3349,-75.2 21.735,-76.13333 0.4,-1.2 -3.3336,-1.6 -16.2679,-1.6 h -16.6679 l -1.8669,6.26666 c -1.0667,3.6 -7.4672,27.6 -14.2677,53.33333 -6.9338,25.86667 -12.8009,47.06667 -13.3343,47.06667 -0.4,0 -6.6672,-20.26667 -13.8677,-45.06667 -7.2006,-24.66666 -14.2678,-48.66666 -15.7345,-53.33333 l -2.5336,-8.4 -13.601,0.4 -13.601,0.4 -15.60116,53.33333 c -8.53396,29.33334 -15.60116,53.6 -15.73451,54 -0.13335,0.4 -6.13379,-21.2 -13.20099,-48 -7.20053,-26.8 -13.8677,-51.19999 -14.66775,-54.39999 l -1.60012,-5.6 h -16.66792 c -15.33448,0 -16.66792,0.13333 -16.0012,2.26666 z"
       id="path30"
       inkscape:connector-curvature="0"
       style="fill:#000000;stroke:none;stroke-width:0.13333833" />
    <path
       d="m 1167.2926,381.23796 v 76 h 17.3346 17.3346 l -0.2667,-75.73333 -0.4,-75.6 -16.9346,-0.4 -17.0679,-0.4 z"
       id="path32"
       inkscape:connector-curvature="0"
       style="fill:#000000;stroke:none;stroke-width:0.13333833" />
    <path
       d="m 1237.9645,321.90463 v 16.66667 h 24.0018 24.0018 v 59.33333 59.33333 h 16.6679 16.668 V 397.90463 338.5713 l 23.7351,-0.26667 23.6017,-0.4 v -16 -16 l -64.2714,-0.4 -64.4049,-0.26666 z"
       id="path34"
       inkscape:connector-curvature="0"
       style="fill:#000000;stroke:none;stroke-width:0.13333833" />
    <path
       d="m 1572.6563,381.23796 v 76 h 16.0012 16.0012 v -30 -30 h 35.336 35.336 v 30 30 h 16.0012 16.0012 l -0.2667,-75.73333 -0.4001,-75.6 -15.6011,-0.4 -15.7345,-0.4 v 30.13333 30 h -35.336 -35.336 v -30 -29.99999 h -16.0012 -16.0012 z"
       id="path36"
       inkscape:connector-curvature="0"
       style="fill:#000000;stroke:none;stroke-width:0.13333833" />
  </g>
</svg>
