<?xml version="1.0" encoding="utf-8"?>
<!-- Generator: Adobe Illustrator 19.0.0, SVG Export Plug-In . SVG Version: 6.00 Build 0)  -->
<svg version="1.1" baseProfile="tiny" id="Layer_1" xmlns="http://www.w3.org/2000/svg" xmlns:xlink="http://www.w3.org/1999/xlink"
	 x="0px" y="0px" viewBox="373.5 287.6 1194.9 218.4" xml:space="preserve">
<g>
	<g>
		<path fill="#D5E14D" d="M888.2,307c-0.4-9.1,6.9-17.7,15.8-19.1c7.3-0.3,14.6,0,21.9-0.1c10.5-1.1,20.3,8.8,19.8,19.2
			c0,10.4,0,20.9,0,31.3c-6.3,0.1-12.5,0-18.8,0c0-10.6,0.1-21.2,0-31.8c-7,0.1-13.9,0-20.9,0c-0.1,58.8,0,117.7,0,176.5
			c7.2,0,14.4,0.1,21.5-0.1c-0.1-28.5,0-57,0-85.4c-3.2,0-6.3,0-9.5,0c0-5.7,0-11.3,0-17c9.2,0,18.5,0,27.7,0
			c0,39.9,0.1,79.9,0,119.8c-12.9-0.1-25.8,0-38.7,0c-7.5,0-14.9-4.8-17.7-11.8c-1.5-3.7-1-7.7-1-11.5
			C888.3,420.3,888.3,363.6,888.2,307z"/>
		<g>
			<path fill="#D5E14D" d="M994.2,323.5c12.3,0,24.5-0.1,36.8,0c7.6-0.1,15.3,4,18.5,11c1.3,2.6,1,5.6,1,8.5c0,18.7,0,37.3,0,56
				c-0.4,7.9-6,16-14.2,17.3c6,27.9,11.9,55.9,17.8,83.9c-5.7,0-11.4,0-17.1,0c-6.4-27.7-12.8-55.3-19.2-83c-2,0-4.1,0-6.1,0
				c0,27.8,0,55.5,0,83.3c-5.8,0-11.7,0-17.5,0C994.3,441.5,994.3,382.5,994.2,323.5z M1012,340.8c0,19.2,0,38.3,0,57.5
				c6.8,0,13.7,0,20.5,0c0-19.2,0-38.3,0-57.5C1025.7,340.8,1018.8,340.8,1012,340.8z"/>
		</g>
		<g>
			<path fill="#D5E14D" d="M1098,339.9c0-8,6.7-15.8,14.9-16.1c8-0.1,16.1,0,24.1-0.1c4.1-0.1,8.4,1,11.6,3.6
				c3.7,3,5.7,7.8,5.7,12.6c0,53.4,0,106.9,0,160.3c-5.8,0-11.5,0-17.3,0c0-28,0-56,0-84c-7.2,0-14.3,0-21.5,0c0,28,0,56,0,84
				c-5.8,0-11.7,0-17.5,0C1098,446.8,1098,393.4,1098,339.9z M1116,341.8c0,18.9-0.1,37.9,0,56.8c6.8-0.1,13.6,0,20.5,0
				c0-18.9,0-37.8,0-56.8C1129.7,341.8,1122.8,341.7,1116,341.8z"/>
		</g>
		<path fill="#D5E14D" d="M1198.3,338.9c0.1-7.8,6.8-15.1,14.7-15.2c9.8,0,19.7,0,29.5,0c0,5.3,0,10.5,0,15.8c-8.8,0-17.6,0-26.4,0
			c-0.1,19.8,0,39.5,0,59.3c7.2,0,14.5,0,21.7,0c0,5.8,0,11.7,0,17.5c-7.3,0-14.5,0-21.8,0c0,28,0,56,0,84c-5.9,0-11.8,0-17.8,0
			C1198.3,446.5,1198.3,392.7,1198.3,338.9z"/>
		<path fill="#D5E14D" d="M1286.5,323.8c6.2,0,12.3,0,18.5,0c0.1,16.3-0.2,32.7,0.2,49.1c3.1,5.2,6.8,10.2,10.1,15.3
			c3.2-5.1,7-9.8,9.9-15.1c0.3-16.4,0.1-32.9,0.1-49.3c6.2,0,12.4,0,18.5,0c-0.1,11.8,0,23.5,0,35.3c-0.1,5.5,0.5,11.1-1.5,16.3
			c-4.1,10.9-10.3,20.9-16.4,30.8c7,11.2,14.5,22.5,17.7,35.5c0.4,19.6,0.1,39.3,0.1,58.9c-5.7,0-11.5,0-17.2,0
			c-0.1-19.7,0.1-39.4-0.1-59.1c-2.9-6-7.3-11.2-10.8-16.9c-3.6,5.5-7.3,10.8-10.9,16.3c0,19.9,0.1,39.8,0,59.8
			c-6.1-0.1-12.1,0-18.2,0c0-18.5,0-37,0-55.5c-0.1-5,2.3-9.6,4.3-14.1c4.3-8.7,9.3-16.9,14.7-25c-7.2-11.1-15.3-22.1-18.8-35
			C1286.2,355.2,1286.7,339.5,1286.5,323.8z"/>
	</g>
	<g>
		<path fill="#F79226" d="M1524.7,384.8c-9.6,0-19.2,0-28.8,0c0,18.4,0,36.9,0,55.3c9.6,0,19.2,0,28.8,0
			C1524.7,421.7,1524.7,403.3,1524.7,384.8z"/>
		<path fill="#F79226" d="M1563.5,442.4c6.9-20.1,6.5-42.5-0.7-62.4c-6.3-17-17.4-32.1-32-42.9c-20.1-15.2-46.4-21.6-71.2-17.4
			c-31.2,4.7-59.1,26.7-71.3,55.8c-12.3,28.6-9.2,63.2,8.3,89c16.8,25.5,46.8,41.8,77.4,41.5c20.4,0.4,40.9-6.5,57.1-18.8
			C1546.1,476,1557.6,460.2,1563.5,442.4z M1418.6,372l37.4,0c2.3,2.3,4.3,4.2,6.7,6.5c0,5.1,0,10.1,0,15.2c-3.7,0-7.4,0-11.1,0
			c0-2.9,0-5.9,0-8.9c-8.9,0-17.7,0-26.6,0c0,18.4,0,36.9,0,55.3c8.8,0,17.7,0,26.6,0c0-2.9,0-5.9,0-8.9c3.7,0,7.4,0,11.1,0
			c0,5.1,0,10.1,0,15.2c-2.3,2.3-4.3,4.2-6.6,6.5h-37.5l-6.3-6.2l0-68.5L1418.6,372z M1476,384.8V372h55.1l6.4,6.3v68.4l-6.4,6.3
			h-55.3c0-4.4,0.1-8.4,0.1-12.9c1.7,0,5,0,6.6,0c0-18.4,0-36.9,0-55.3L1476,384.8L1476,384.8z"/>
	</g>
	<g>
		<path fill="#F79226" d="M466.5,323.5c6.1,0,12.1,0,18.2,0c0.1,53,0,106,0,159c6.8,0,13.7,0,20.5,0c0-53-0.1-106,0.1-159.1
			c6.2,0.1,12.3,0,18.5,0.1c-0.1,50.8,0,101.6,0,152.4c-0.1,3.7,0.3,7.4-0.6,11c-1.7,7.7-9.3,13.6-17.2,13.5c-7.3,0-14.7,0-22,0
			c-9.6-0.2-17.7-9.1-17.5-18.6C466.4,429.1,466.5,376.3,466.5,323.5z"/>
		<g>
			<path fill="#F79226" d="M570,323.5c12.6,0.1,25.3-0.1,37.9,0.1c8.9,0.1,18.5,6.9,18.6,16.4c0,19.3,0,38.7,0,58
				c-0.1,8.4-5.7,17.1-14.3,18.6c6,27.9,11.8,55.9,17.8,83.8c-5.7,0-11.4,0-17.2,0c-6.3-27.6-12.8-55.1-19.1-82.7
				c-2.1,0-4.2,0-6.3,0c0,27.6,0,55.2,0,82.8c-5.8,0-11.7,0-17.5,0C570,441.5,570,382.5,570,323.5z M588.2,341c0,19.3,0,38.5,0,57.7
				c6.7,0,13.5,0,20.2,0c0-19.3,0-38.5,0-57.8C601.7,341,595,341,588.2,341z"/>
		</g>
		<g>
			<path fill="#F79226" d="M676.2,323.5c13.2,0,26.5-0.1,39.7,0c8.4,0,16.3,6.9,16.6,15.4c0,18.7,0,37.4,0,56
				c0,5.2-3.7,9.3-7.3,12.5c3.5,2.9,6.9,6.7,7.3,11.5c0.5,7.6,0.2,15.3,0.3,22.9c-0.1,11.6,0.2,23.3-0.3,35
				c-0.2,4.9,0.8,10.3-1.7,14.8c-2.7,5.5-8.8,8.7-14.8,8.7c-13.2,0-26.5,0-39.7,0C676.2,441.5,676.3,382.5,676.2,323.5z M694.5,341
				c0,19.3,0,38.5,0,57.8c6.8,0,13.5,0,20.2,0c0-19.3,0-38.5,0-57.7C708,341,701.3,341,694.5,341z M694.5,417.2
				c0,21.9,0,43.9,0,65.8c6.8,0,13.5,0,20.3,0c0-21.9,0-43.8,0-65.7C708,417.2,701.3,417.3,694.5,417.2z"/>
		</g>
		<g>
			<path fill="#F79226" d="M791.4,324.5c5.4-1.5,11-0.8,16.6-1c6.1,0.1,12.7-0.8,18.2,2.3c5.5,2.9,10.5,8.5,10.3,15.1
				c0,45.4,0,90.7,0,136.1c-0.1,3.9,0.5,8.1-1.4,11.8c-2.8,5.9-8.4,10.9-15.1,11.6c-6,0.1-12,0-18,0c-3.5,0-7.2,0.3-10.5-1
				c-7-2.8-12.8-9.7-12.6-17.5c0-45.3,0-90.6,0-136c0-3.6-0.4-7.5,1.2-10.9C782.2,330.2,786.4,326.3,791.4,324.5z M798.3,341.3
				c0,46.9,0,93.8,0,140.7c6.5,0,13,0,19.5,0c0-46.9,0-93.8,0-140.7C811.3,341.3,804.8,341.3,798.3,341.3z"/>
		</g>
		<polygon fill="#F79226" points="390.7,305.3 373.5,305.3 373.5,287.6 428.5,287.6 428.5,305.3 411.3,305.3 411.3,500.3 
			390.7,500.3 		"/>
	</g>
</g>
</svg>
