<?xml version="1.0" encoding="UTF-8" standalone="no"?>
<!-- Created with Inkscape (http://www.inkscape.org/) -->
<svg xmlns:dc="http://purl.org/dc/elements/1.1/" xmlns:cc="http://creativecommons.org/ns#" xmlns:rdf="http://www.w3.org/1999/02/22-rdf-syntax-ns#" xmlns:svg="http://www.w3.org/2000/svg" xmlns="http://www.w3.org/2000/svg" xmlns:sodipodi="http://sodipodi.sourceforge.net/DTD/sodipodi-0.dtd" xmlns:inkscape="http://www.inkscape.org/namespaces/inkscape" width="833" height="111" viewBox="0 0 220.39791 29.368751" version="1.1" id="svg8" inkscape:version="0.92.4 (5da689c313, 2019-01-14)" sodipodi:docname="TRS-80 logo.svg">
  <defs id="defs2"/>
  <sodipodi:namedview id="base" pagecolor="#ffffff" bordercolor="#666666" borderopacity="1.0" inkscape:pageopacity="0.0" inkscape:pageshadow="2" inkscape:zoom="0.86974134" inkscape:cx="334.44946" inkscape:cy="127.90765" inkscape:document-units="mm" inkscape:current-layer="layer2" showgrid="false" units="px" inkscape:window-width="1680" inkscape:window-height="1027" inkscape:window-x="-8" inkscape:window-y="-8" inkscape:window-maximized="1"/>
  <metadata id="metadata5">
    <rdf:RDF>
      <cc:Work rdf:about="">
        <dc:format>image/svg+xml</dc:format>
        <dc:type rdf:resource="http://purl.org/dc/dcmitype/StillImage"/>
        <dc:title/>
      </cc:Work>
    </rdf:RDF>
  </metadata>
  <g inkscape:groupmode="layer" id="layer2" inkscape:label="TRS-80" style="display:inline">
    <path transform="translate(0,-267.63123)" style="fill:#000000;stroke-width:0.26458335" d="m 100.14479,296.99998 c -17.16314,0 -17.859375,-1.37278 -17.859372,-9.52496 h 8.73125 c 0,3.42825 0.828413,3.17496 8.202082,3.17496 6.90638,0 10.06016,0.12938 10.05417,-2.51354 -0.006,-2.64292 -2.86187,-2.51354 -3.70417,-2.51354 H 92.604167 c -5.290474,0 -10.583334,-0.53142 -10.583334,-8.59861 0,-8.06719 3.396035,-9.39306 17.4625,-9.39306 14.066467,0 17.462497,0.59595 17.462497,9.26038 l -8.74272,0.0135 c 0,-3.26215 -2.45805,-2.92388 -6.9999,-2.92388 -7.730261,0 -10.451127,-0.10151 -10.451127,2.51354 0,2.61505 3.618702,2.51354 4.7625,2.51354 H 106.3625 c 9.07526,0 11.64167,1.65722 11.64167,8.99584 0,7.33862 -2.56093,8.99583 -17.85938,8.99583 z m 46.16979,-7.67289 c 0,-3.90333 0.96149,-5.59468 4.7625,-7.27607 -3.43125,-0.84263 -4.49791,-2.7065 -4.49791,-6.61456 0,-8.10187 5.82011,-7.54065 16.66875,-7.54065 10.84864,0 16.66875,-0.61582 16.66875,7.54063 0,3.91895 -0.81409,5.96285 -4.49792,6.61458 4.11278,1.35818 4.76238,3.36227 4.76238,7.01148 0,8.66824 -7.82046,7.93748 -16.93321,7.93748 -9.11275,0 -16.93334,0.70867 -16.93334,-7.67289 z m 16.93334,1.58747 c 4.92323,0 8.73125,0.39372 8.73125,-3.0427 0,-3.43642 -3.74708,-3.04271 -8.73125,-3.04271 -4.98418,0 -8.73125,-0.3817 -8.73125,3.04271 0,3.42441 3.80801,3.0427 8.73125,3.0427 z m 8.46666,-14.55208 c 0,-3.36271 -3.82135,-2.91042 -8.46666,-2.91042 -4.64531,0 -8.46667,-0.42168 -8.46667,2.91042 0,3.3321 3.82127,2.91042 8.46667,2.91042 4.6454,0 8.46666,0.45229 8.46666,-2.91042 z m 30.69167,20.6375 c -14.48189,0 -17.99167,0.0342 -17.99167,-14.68437 0,-14.71858 4.27364,-14.68438 17.99167,-14.68438 13.71803,0 17.99167,-0.0195 17.99167,14.68438 0,14.70392 -3.50978,14.68437 -17.99167,14.68437 z m 0,-7.14375 c 9.37955,0 9.525,-0.29587 9.525,-7.54062 0,-7.24475 -0.61061,-7.80521 -9.525,-7.80521 -8.91439,0 -9.525,0.56168 -9.525,7.80521 0,7.24353 0.14545,7.54062 9.525,7.54062 z M 12.7,296.7354 V 275.30418 H 0 v -7.40834 h 34.395834 v 7.40834 h -12.7 v 21.43125 z m 26.987501,3e-5 V 267.89581 H 66.675 c 7.517294,0 9.260417,3.10149 9.260417,9.525 0,6.42351 -2.361754,7.40935 -4.7625,8.27781 3.293449,0.83353 4.497914,2.34102 4.497916,5.48053 l 3e-6,5.55625 H 66.41042 l -3e-6,-3.96875 c -10e-7,-1.60297 -0.01966,-3.17492 -2.910417,-3.17492 H 48.683327 v 7.14375 z m 22.489582,-14.55212 c 4.762642,0 4.762501,-0.629 4.762501,-3.43958 0,-2.81058 -4.95e-4,-3.4395 -4.762501,-3.4395 H 48.683334 v 6.89997 z m 59.531247,4.23337 v -9.26045 H 142.875 v 9.26042 z" id="path826" inkscape:connector-curvature="0" sodipodi:nodetypes="sccszcszzccszsszsscszscszszzzzzzzzzzzzzzzzzzzzcccccccccscczcsccssccsczccscccccc"/>
  </g>
<script xmlns=""/></svg>