<?xml version="1.0" encoding="UTF-8" standalone="no"?>
<!-- Created with Inkscape (http://www.inkscape.org/) -->

<svg
   xmlns:dc="http://purl.org/dc/elements/1.1/"
   xmlns:cc="http://creativecommons.org/ns#"
   xmlns:rdf="http://www.w3.org/1999/02/22-rdf-syntax-ns#"
   xmlns:svg="http://www.w3.org/2000/svg"
   xmlns="http://www.w3.org/2000/svg"
   xmlns:sodipodi="http://sodipodi.sourceforge.net/DTD/sodipodi-0.dtd"
   xmlns:inkscape="http://www.inkscape.org/namespaces/inkscape"
   width="560"
   height="172.5"
   viewBox="0 0 148.16667 45.640626"
   version="1.1"
   id="svg4786"
   inkscape:version="0.92.5 (2060ec1f9f, 2020-04-08)"
   sodipodi:docname="logo.svg">
  <defs
     id="defs4780" />
  <sodipodi:namedview
     id="base"
     pagecolor="#ffffff"
     bordercolor="#666666"
     borderopacity="1.0"
     inkscape:pageopacity="0.0"
     inkscape:pageshadow="2"
     inkscape:zoom="2.4691406"
     inkscape:cx="87.503266"
     inkscape:cy="148.33024"
     inkscape:document-units="mm"
     inkscape:current-layer="layer1"
     showgrid="false"
     units="px"
     inkscape:window-width="3840"
     inkscape:window-height="2065"
     inkscape:window-x="0"
     inkscape:window-y="0"
     inkscape:window-maximized="1" />
  <metadata
     id="metadata4783">
    <rdf:RDF>
      <cc:Work
         rdf:about="">
        <dc:format>image/svg+xml</dc:format>
        <dc:type
           rdf:resource="http://purl.org/dc/dcmitype/StillImage" />
        <dc:title></dc:title>
      </cc:Work>
    </rdf:RDF>
  </metadata>
  <g
     inkscape:label="Layer 1"
     inkscape:groupmode="layer"
     id="layer1"
     transform="translate(0,-251.35937)">
    <g
       id="g4857"
       transform="matrix(0.26379816,0,0,0.26379816,-2.3339815,250.75171)">
      <path
         id="path2"
         d="m 289.459,6.35 c -1.418,-0.986 -2.708,-1.393 -4.37,-1.741 -8.058,-1.656 -16.311,-2.576 -24.532,-1.742 -22.83,1.925 -44.398,14.155 -58.31,32.279 -3.01,3.858 -5.92,7.788 -8.806,11.737 -0.223,0.335 -0.684,1.005 -0.907,1.34 -4.758,6.236 -7.446,13.656 -10.146,20.93 -1.249,4.482 -2.425,9.017 -3.089,13.623 -0.729,6.454 -0.657,12.972 -0.25,19.439 1.255,14.629 7.005,28.771 15.667,40.594 2.07,2.693 4.239,5.322 6.572,7.799 4.225,4.213 8.852,8.045 13.885,11.258 6.519,4.369 13.735,7.736 21.305,9.814 14.439,4.152 30.275,4.836 44.642,0.077 l 8.338,-13.063 v -28.525 l 61.333,-0.063 7.741,-12.742 -29.862,-30.15 -4.467,-0.028 27.854,-28.241 8.563,-11.458 h -71.161 z m -9.399,116.099 c -8.813,2.438 -20.159,2.393 -28.618,-1.242 -9.68,-4.087 -17.895,-11.882 -21.865,-21.688 -3.726,-8.167 -4.12,-17.504 -2.136,-26.182 1.203,-4.797 3.713,-9.463 7.695,-12.512 6.545,-5.514 15.227,-7.399 23.514,-8.333 7.301,0.25 15.1,1.688 21.409,5.552 z"
         inkscape:connector-curvature="0"
         style="fill:#010101" />
      <path
         id="path4"
         d="M 88.46,171.447 98.475,157.831 119.134,6.35 H 79.979 L 72.975,15.114 65.44,79.53 56.205,6.35 h -39.54 l -7.188,9.22 21.975,155.756 z"
         inkscape:connector-curvature="0"
         style="fill:#010101" />
      <path
         id="path6"
         d="m 512.711,6.35 c -8.543,0 -11.24,3.176 -13.843,4.931 -2.233,1.688 -3.809,3.178 -5.968,4.939 -4.563,3.746 -7.354,7.929 -10.461,12.916 -3.179,5.148 -5.914,9.132 -5.914,17.894 l 0.192,83.273 c 0.105,7.53 -0.897,15.344 1.771,22.579 1.771,4.495 4.486,8.845 8.411,11.763 3.68,3.174 10.731,6.683 16.481,6.683 h 29.736 c 8.955,0 17.252,-5.423 22.837,-12.075 l 5.449,-7.063 c 6.38,-9.774 7.663,-15.058 7.374,-23.15 l 1.109,-96.635 C 569.753,24 567.079,16.637 559.979,11.834 556.371,9.507 552.68,6.355 546.528,6.355 h -33.82 z m 6.85,34.705 h 4.238 c 2.423,-0.161 2.425,3.27 2.425,4.872 l -0.002,87.859 -2.921,0.08 c -1.703,0 -3.739,-3.271 -3.739,-4.871 z"
         inkscape:connector-curvature="0"
         style="fill:#010101" />
      <path
         id="path8"
         d="m 421.312,82.293 c -0.104,2.458 -2.209,6.043 -4.298,7.226 -6.882,3.851 -13.715,7.788 -20.612,11.605 -3.708,1.78 -7.396,3.812 -10.206,6.873 -5.618,6.04 -9.863,13.88 -9.732,22.323 l -0.371,41.195 78.313,0.026 9.002,-12.854 V 133.781 H 416.99 c 0,0 -0.149,-7.395 1.191,-9.354 1.759,-2.564 5.505,-4.146 8.188,-5.816 5.81,-3.438 11.822,-6.53 17.638,-9.975 3.721,-2.145 6.776,-5.244 9.135,-8.82 1.827,-2.653 3.996,-5.047 5.977,-7.584 2.892,-3.718 4.641,-8.313 4.814,-13.03 l 0.259,-45.462 c -0.44,-7.446 -2.559,-15.352 -8.233,-20.55 -4.751,-5.001 -10.104,-6.919 -16.951,-6.841 -7.358,-0.381 -18.479,-0.053 -25.848,0 -4.182,0.138 -7.602,0.508 -11.542,1.974 -3.076,0.947 -6.495,3.877 -7.777,4.929 -3.962,3.917 -7.016,6.708 -10.655,10.926 -3.581,4.351 -6.31,11.08 -6.109,16.843 l 0.262,31.169 31.266,-0.013 c 2.17,-2.615 6.771,-7.729 8.736,-10.507 1.07,-1.407 0.782,-3.28 0.861,-4.929 -0.119,-4.758 -0.008,-10.837 -0.146,-15.595 0.578,0.007 1.666,0.722 2.541,2.047 0.715,1.192 0.777,3.493 0.729,6.299 v 32.802 z"
         inkscape:connector-curvature="0"
         style="fill:#010101" />
      <g
         id="g18">
        <path
           style="fill:#dededd"
           inkscape:connector-curvature="0"
           id="path10"
           d="m 284.529,6.258 c -7.596,-1.676 -15.39,-2.097 -23.145,-1.63 -18.493,1.814 -36.519,9.706 -49.747,22.862 -1.268,1.367 -2.373,2.878 -3.594,4.285 11.395,-9.857 25.931,-15.765 40.803,-17.756 l 0.539,-0.092 c 4.85,-0.138 9.706,-0.789 14.555,-0.335 3.595,0.328 7.17,0.795 10.772,1.084 2.26,0.5 4.507,1.052 6.813,1.301 0.243,-0.342 0.729,-1.025 0.973,-1.367 1.511,-2.28 2.878,-4.666 4.587,-6.808 -0.61,-0.861 -1.491,-1.452 -2.556,-1.544 z" />
        <path
           style="fill:#dededd"
           inkscape:connector-curvature="0"
           id="path12"
           d="m 455.698,15.642 c -3.519,-4.271 -6.851,-6.234 -12.25,-6.99 -8.49,-1.104 -18.481,-0.686 -27.014,-0.876 -4.387,0.405 -7.857,-0.282 -11.32,0.986 -4.479,1.531 -8.816,4.233 -11.958,7.794 l -0.026,0.033 c 0.263,0.125 0.789,0.362 1.053,0.487 5.316,-1.413 10.855,-1.157 16.307,-1.301 7.912,0.138 15.854,-0.48 23.729,0.512 5.642,1.025 11.055,3.595 15.082,7.729 z" />
        <path
           style="fill:#dededd"
           inkscape:connector-curvature="0"
           id="path14"
           d="m 278.556,124.874 c -2.543,0.563 -5.106,1.091 -7.709,1.248 -5.454,0.401 -10.973,-0.157 -16.23,-1.649 -4.672,-1.603 -9.121,-3.89 -13.117,-6.802 -5.441,-4.205 -9.898,-9.674 -12.887,-15.864 -4.081,-8.355 -5.185,-18.091 -3.286,-27.186 0.375,-2.057 0.979,-4.062 1.597,-6.053 -1.597,1.879 -2.997,3.923 -4.081,6.145 -2.734,5.868 -4.862,12.25 -4.666,18.801 -0.151,8.057 2.201,16.107 6.513,22.902 0.42,0.689 0.866,1.374 1.347,2.037 5.191,6.882 12.361,12.367 20.668,14.879 10.31,3.229 21.804,2.207 31.445,-2.648 0.664,-0.397 1.314,-0.834 1.958,-1.269 0.039,-1.608 0.045,-3.228 0,-4.836 -0.389,0.071 -1.164,0.217 -1.552,0.295 z" />
        <path
           style="fill:#dededd"
           inkscape:connector-curvature="0"
           id="path16"
           d="m 560.891,14.875 c -1.354,-1.051 -3.081,-2.229 -4.521,-3.156 -4.337,-2.852 -8.52,-3.7 -13.648,-3.943 -5.757,-0.19 -12.979,0.033 -18.729,0 -5.967,0.086 -12.866,-0.694 -18.551,1.534 -5.586,2.519 -7.164,5.04 -10.877,8.417 8.563,-2.458 17.523,-1.689 26.316,-1.722 3.456,-0.046 6.913,0.013 10.376,-0.026 4.063,0.21 8.208,0.545 12.046,2.024 2.904,1.071 5.454,2.905 7.827,4.863 0.702,0.598 1.399,1.203 2.109,1.807 z" />
      </g>
      <path
         id="path20"
         d="M 158.79,171.268 167.503,158.633 167.208,6.35 h -36.5 l -7.26,9.47 -0.085,155.448 z"
         inkscape:connector-curvature="0"
         style="fill:#010101" />
      <g
         id="g32">
        <g
           id="g24">
          <path
             style="fill:#ffffff"
             inkscape:connector-curvature="0"
             id="path22"
             d="m 412.327,39.73 c -3.818,0 -5.033,6.22 -5.053,9.118 v 22.146 l -28.619,-0.119 0.203,-29.953 c 0.599,-9.332 5.961,-19.413 15.417,-22.192 2.51,-0.729 5.109,-1.137 7.728,-1.183 7.867,-0.27 15.753,0.092 23.612,-0.368 5.704,0.466 11.819,0.473 16.837,3.627 6.176,3.325 9.979,9.693 10.564,16.692 0.288,17.296 -0.063,33.852 0,51.148 0.041,2.978 -0.179,6.892 -1.519,9.573 -1.578,3.285 -4.035,6.211 -7.223,8.023 -8.341,4.764 -16.771,9.357 -25.063,14.193 -4.259,2.512 -9.286,4.869 -11.468,9.582 -1.367,5.149 -0.828,10.561 -0.907,15.83 h 46.18 v 23.914 l -75.127,0.077 v -41.877 c 1.764,-9.315 9.229,-19.446 17.486,-23.894 6.44,-3.629 12.834,-7.318 19.32,-10.86 3.549,-1.959 8.411,-4.16 8.438,-8.898 0.093,-12.907 -0.085,-22.541 0.063,-35.454 -0.147,-3.998 -1.285,-9.131 -5.61,-9.131 h -5.259 z" />
        </g>
        <polygon
           style="fill:#323eaa"
           id="polygon26"
           points="282.364,90.148 282.364,58.709 349.673,58.709 318.623,90.148 " />
        <polygon
           style="fill:#fa362c"
           id="polygon28"
           points="282.364,98.044 282.364,128.046 349.673,128.046 318.623,98.044 " />
        <path
           style="fill:#ffffff"
           inkscape:connector-curvature="0"
           id="path30"
           d="m 530.679,169.895 c 15.854,0 28.707,-13.617 28.707,-24.74 V 46.851 c 0,-11.122 -10.881,-29.339 -26.732,-29.339 h -27.73 c -15.854,0 -26.734,18.217 -26.734,29.339 v 98.303 c 0,11.123 12.854,24.74 28.706,24.74 h 23.783 z M 510.196,45.269 c 0,-1.602 0.938,-5.529 3.736,-5.529 h 9.699 c 3.163,0 3.739,3.927 3.739,5.529 v 95.553 c 0,1.603 -2.695,4.871 -4.396,4.871 h -8.384 c -1.703,0 -4.396,-3.271 -4.396,-4.871 z" />
      </g>
      <polygon
         id="polygon34"
         points="47.592,15.246 53.426,7.775 17.528,7.775 11.695,15.246 "
         style="fill:#dededd" />
      <polygon
         id="polygon36"
         points="111.309,15.219 117.142,7.748 81.245,7.748 75.412,15.219 "
         style="fill:#dededd" />
      <polygon
         id="polygon38"
         points="158.652,15.246 164.485,7.775 131.216,7.775 125.383,15.246 "
         style="fill:#dededd" />
      <polygon
         id="polygon40"
         points="350.329,57.126 356.82,48.999 289.379,48.999 282.889,57.126 "
         style="fill:#dededd" />
      <polygon
         id="polygon42"
         points="320.149,96.311 326.377,88.416 323.417,88.443 320.288,91.757 286.377,91.757 282.778,96.365 320.04,96.365 320.083,96.311 "
         style="fill:#dededd" />
      <polygon
         id="polygon44"
         points="453.127,143.917 460.274,135.132 417.148,135.132 410.001,143.917 "
         style="fill:#dededd" />
      <g
         id="g72">
        <polygon
           style="fill:#2e329a"
           id="polygon46"
           points="23.762,103.844 54.708,70.815 47.213,16.826 11.343,16.826 " />
        <polygon
           style="fill:#2e329a"
           id="polygon48"
           points="105.295,16.826 74.639,16.826 69.871,54.633 " />
        <polygon
           style="fill:#dc2770"
           id="polygon50"
           points="124.547,71.221 157.793,35.739 157.793,16.825 124.547,16.825 " />
        <polygon
           style="fill:#dc2770"
           id="polygon52"
           points="69.871,54.633 69.835,54.913 61.583,120.334 54.737,71.026 54.708,70.815 23.762,103.844 23.792,104.055 33.044,168.881 98.056,99.495 109.855,16.826 105.521,16.826 105.295,16.826 " />
        <path
           style="fill:#fa6b28"
           inkscape:connector-curvature="0"
           id="path54"
           d="m 180.566,86.322 66.315,-70.778 c -35.549,5.404 -62.92,34.533 -66.315,70.778 z" />
        <polygon
           style="fill:#fa6b28"
           id="polygon56"
           points="33.169,169.752 88.028,169.752 98.044,99.577 98.056,99.495 33.044,168.881 33.053,168.939 " />
        <polygon
           style="fill:#fa6b28"
           id="polygon58"
           points="124.547,146.107 157.793,110.626 157.793,35.808 157.793,35.739 124.547,71.221 124.547,71.291 " />
        <g
           id="g64">
          <path
             style="fill:#ffcd1c"
             inkscape:connector-curvature="0"
             id="path60"
             d="m 258.852,14.643 c -4.027,0 -7.978,0.303 -11.833,0.881 -0.046,0.007 -0.092,0.013 -0.137,0.02 l -66.315,70.778 c -0.005,0.046 -0.009,0.093 -0.012,0.139 -0.227,2.465 -0.349,4.961 -0.349,7.484 0,18.724 6.372,35.93 17.086,49.494 l 25.424,-27.135 c -3.882,-6.513 -6.103,-14.166 -6.103,-22.357 0,-23.691 18.549,-42.895 42.239,-42.895 7.323,0 14.213,1.844 20.244,5.08 l 0.49,-0.523 V 17.4 c -6.611,-1.787 -13.559,-2.757 -20.734,-2.757 z" />
          <polygon
             style="fill:#ffcd1c"
             id="polygon62"
             points="157.793,169.752 157.793,110.753 157.793,110.626 124.547,146.107 124.547,146.234 124.547,169.752 " />
        </g>
        <path
           style="fill:#53a520"
           inkscape:connector-curvature="0"
           id="path66"
           d="m 258.852,136.844 c -15.487,0 -28.774,-8.211 -36.121,-20.514 -0.005,-0.01 -0.01,-0.018 -0.016,-0.023 l -25.424,27.135 c 0.006,0.008 0.012,0.016 0.017,0.021 10.9,13.79 26.288,23.816 44.043,27.84 l 36.403,-38.854 c -5.704,2.809 -12.116,4.395 -18.902,4.395 z" />
        <path
           style="fill:#53a520"
           inkscape:connector-curvature="0"
           id="path68"
           d="m 279.096,56.132 c 0.009,0.004 0.017,0.009 0.026,0.013 0.154,0.084 0.311,0.163 0.464,0.249 v -0.743 -0.042 z" />
        <path
           style="fill:#42591f"
           inkscape:connector-curvature="0"
           id="path70"
           d="m 277.98,132.338 c -0.075,0.038 -0.149,0.074 -0.225,0.111 l -36.403,38.854 c 0.034,0.006 0.067,0.014 0.101,0.02 5.588,1.262 11.409,1.93 17.399,1.93 7.176,0 14.124,-0.973 20.734,-2.756 V 131.5 c -0.528,0.291 -1.065,0.568 -1.606,0.838 z" />
      </g>
    </g>
  </g>
</svg>
