<?xml version="1.0" encoding="UTF-8" standalone="no"?>
<!-- Generator: Adobe Illustrator 19.0.0, SVG Export Plug-In . SVG Version: 6.00 Build 0)  -->

<svg
   xmlns:dc="http://purl.org/dc/elements/1.1/"
   xmlns:cc="http://creativecommons.org/ns#"
   xmlns:rdf="http://www.w3.org/1999/02/22-rdf-syntax-ns#"
   xmlns:svg="http://www.w3.org/2000/svg"
   xmlns="http://www.w3.org/2000/svg"
   xmlns:sodipodi="http://sodipodi.sourceforge.net/DTD/sodipodi-0.dtd"
   xmlns:inkscape="http://www.inkscape.org/namespaces/inkscape"
   version="1.1"
   id="Ebene_1"
   x="0px"
   y="0px"
   viewBox="57.1 352 360 89"
   xml:space="preserve"
   sodipodi:docname="logo.svg"
   width="360"
   height="89"
   inkscape:version="0.92.5 (2060ec1f9f, 2020-04-08)"><metadata
   id="metadata21"><rdf:RDF><cc:Work
       rdf:about=""><dc:format>image/svg+xml</dc:format><dc:type
         rdf:resource="http://purl.org/dc/dcmitype/StillImage" /><dc:title></dc:title></cc:Work></rdf:RDF></metadata><defs
   id="defs19" /><sodipodi:namedview
   pagecolor="#ffffff"
   bordercolor="#666666"
   borderopacity="1"
   objecttolerance="10"
   gridtolerance="10"
   guidetolerance="10"
   inkscape:pageopacity="0"
   inkscape:pageshadow="2"
   inkscape:window-width="3840"
   inkscape:window-height="2065"
   id="namedview17"
   showgrid="false"
   inkscape:zoom="4.5963552"
   inkscape:cx="151.3775"
   inkscape:cy="34.158292"
   inkscape:window-x="0"
   inkscape:window-y="0"
   inkscape:window-maximized="1"
   inkscape:current-layer="Ebene_1" />
<g
   id="g14"
   transform="translate(-54)">
	<path
   id="path2952"
   d="m 114.1,352 18.6,89 18.5,-89 h -10 l -8.5,50 -8.6,-50 z"
   inkscape:connector-curvature="0"
   style="fill:#fe0016" />
	<path
   id="path3726"
   d="m 155.2,352 h 10 v 89 h -10 z"
   inkscape:connector-curvature="0"
   style="fill:#fe0016" />
	<path
   id="path3728"
   d="m 174.2,352 v 89 h 10 v -46 l 13.9,46 h 9.2 l -11.1,-42.1 c 6.2,-3.7 8,-8.6 8,-8.6 V 362 C 200.1,352.9 193,351.9 193,351.9 Z m 10,9 h 10 v 30.9 h -10 z"
   inkscape:connector-curvature="0"
   style="fill:#fe0016" />
	<path
   id="path3733"
   d="m 207.3,352 h 29.9 v 9 h -10 v 80 h -10 v -80 h -9.9 z"
   inkscape:connector-curvature="0"
   style="fill:#fe0016" />
	<path
   id="path3735"
   d="m 292.5,352 -19.3,88.9 v 0.1 h 9.9 l 2.1,-12 h 14 l 2,12 h 10 z m 0,38.3 4.6,30.7 h -9.9 z"
   inkscape:connector-curvature="0"
   style="fill:#fe0016" />
	<path
   id="path2882"
   d="m 315.2,352 h 10 v 80 h 14.9 v 9 h -24.9 z"
   inkscape:connector-curvature="0"
   style="fill:#fe0016" />
	<path
   id="path3660"
   d="m 422.1,352 h 9.1 l 9.3,38.4 8.5,-38.4 h 10.1 l -14,52.4 v 36.7 h -10 v -36.7 z"
   inkscape:connector-curvature="0"
   style="fill:#fe0016" />
	<path
   id="path3662"
   d="m 404.2,352 c -11.4,0 -15,10.1 -15,10.1 0.1,0.1 0,66.9 0,68.8 1.5,10.8 15,10.1 15,10.1 v 0 c 15,0 15,-10.1 15,-10.1 v -68.8 c -3.9,-10.6 -15,-10.1 -15,-10.1 z m -5.1,10.1 h 10 V 432 h -10 z"
   inkscape:connector-curvature="0"
   style="fill:#fe0016" />
	<path
   id="path3667"
   d="m 241.1,352 h 10.1 v 78.9 h 10.1 V 352 h 9.9 v 78.9 c 0,0 -3.2,10.1 -14.6,10.1 -11.4,0 -15.5,-10.1 -15.5,-10.1 z"
   inkscape:connector-curvature="0"
   style="fill:#fe0016" />
	<path
   id="path3669"
   d="m 351.2,352 v 89 h 20.1 c 9.3,-2.4 9.9,-9.1 9.9,-9.1 0,0 0,-23.8 0,-29.9 -0.7,-3.9 -3.9,-4 -3.9,-4 0,0 0,-1.1 0,-1.9 3.5,-0.3 3.9,-4.1 3.9,-4.1 0,0 0,-23.8 0,-29.9 -1.5,-7.3 -9.9,-10.1 -9.9,-10.1 z m 10,10.1 h 10.1 v 29.8 h -10.1 z m 0,38.9 h 10.1 v 30.9 h -10.1 z"
   inkscape:connector-curvature="0"
   style="fill:#fe0016" />
	<path
   id="path3699"
   d="m 451.2,431.9 h 7 v 1 h -3 v 8 h -1 v -8 h -3 z"
   inkscape:connector-curvature="0"
   style="fill:#fe0016" />
	<path
   id="path3713"
   d="m 459.1,441 v -9 h 1 l 3.6,8.1 3.4,-8.1 h 1 v 9 h -1 v -7 l -3,7 h -1 l -3,-7 v 7 z"
   inkscape:connector-curvature="0"
   style="fill:#fe0016" />
</g>
</svg>