<?xml version="1.0" encoding="UTF-8" standalone="no"?>
<!-- Generator: Adobe Illustrator 19.0.0, SVG Export Plug-In . SVG Version: 6.00 Build 0)  -->

<svg
   xmlns:dc="http://purl.org/dc/elements/1.1/"
   xmlns:cc="http://creativecommons.org/ns#"
   xmlns:rdf="http://www.w3.org/1999/02/22-rdf-syntax-ns#"
   xmlns:svg="http://www.w3.org/2000/svg"
   xmlns="http://www.w3.org/2000/svg"
   xmlns:sodipodi="http://sodipodi.sourceforge.net/DTD/sodipodi-0.dtd"
   xmlns:inkscape="http://www.inkscape.org/namespaces/inkscape"
   version="1.1"
   id="svg1354"
   x="0px"
   y="0px"
   viewBox="9.6 187.5 989.99998 418"
   xml:space="preserve"
   sodipodi:docname="logo.svg"
   inkscape:version="0.92.5 (2060ec1f9f, 2020-04-08)"
   width="990"
   height="418"><metadata
   id="metadata8"><rdf:RDF><cc:Work
       rdf:about=""><dc:format>image/svg+xml</dc:format><dc:type
         rdf:resource="http://purl.org/dc/dcmitype/StillImage" /><dc:title></dc:title><dc:title></dc:title></cc:Work></rdf:RDF></metadata><defs
   id="defs6" /><sodipodi:namedview
   pagecolor="#ffffff"
   bordercolor="#666666"
   borderopacity="1"
   objecttolerance="10"
   gridtolerance="10"
   guidetolerance="10"
   inkscape:pageopacity="0"
   inkscape:pageshadow="2"
   inkscape:window-width="3840"
   inkscape:window-height="2065"
   id="namedview4"
   showgrid="false"
   inkscape:zoom="1.2609628"
   inkscape:cx="620.89578"
   inkscape:cy="224.28062"
   inkscape:window-x="0"
   inkscape:window-y="0"
   inkscape:window-maximized="1"
   inkscape:current-layer="svg1354" />
<path
   id="path1363"
   d="m 184.9,610.75 c -18.2,-5 -35.9,-21.8 -43.6,-41.5 -5.2,-13.2 -24,-79.3 -89.8,-316 l -9.9,-35.5 44.5,-0.3 c 24.5,-0.1 44.8,0.1 45.2,0.5 0.4,0.4 17.1,64.9 37,143.4 l 36.3,142.6 17.3,-66.1 c 41,-157 48,-182.3 53.2,-193.2 7,-14.7 19.2,-25.1 33.6,-28.9 7.6,-2 25.2,-2 32.8,0 16,4.2 28.4,15.7 35.3,32.6 4.2,10.3 13.2,43.5 46.8,172.5 11.3,43.4 20.9,79.8 21.3,80.7 0.5,1.1 14.5,-52.2 37.2,-141.2 l 36.5,-143 h 45.2 c 35.7,0 45.1,0.3 44.8,1.2 -0.2,0.7 -9.9,35.2 -21.4,76.8 -55.1,198.4 -74.3,265.1 -79.7,276.8 -9.2,20 -24.6,33.8 -42.9,38.6 -7.7,2 -24.3,2 -31.9,0 -10.6,-2.8 -16.6,-6.4 -25.7,-15.5 -7.1,-7.1 -9.3,-10.2 -13.2,-18 -6.3,-12.9 -12.4,-33.9 -51.2,-176.5 -9.1,-33.6 -16.9,-61.7 -17.2,-62.5 -0.3,-0.8 -9.7,32 -20.9,72.9 -24.6,89.9 -37.6,136.4 -41.6,149.1 -8.7,27.5 -24.6,45 -45.4,50.4 -7.4,2 -25.6,2 -32.6,0.1 z m 468.4,-138 v -136.5 h 42.5 42.5 v 136.5 136.5 h -42.5 -42.5 z m 171,0 v -136.5 h 42.5 42.5 v 136.5 136.5 h -42.5 -42.5 z m 117,123 v -13.5 h -5 c -4.7,0 -5,-0.2 -5,-2.5 v -2.5 h 13 13 v 2.5 c 0,2.3 -0.3,2.5 -5,2.5 h -5 v 13.5 13.5 h -3 -3 z m 18,-2.5 v -16 h 4.5 4.5 l 3,9.9 c 1.7,5.4 3,10.5 3,11.2 0,3.1 2,-1.2 4.9,-10.8 l 3.1,-10.3 h 4.5 4.5 v 16 16 h -3 -3 l -0.1,-11.3 c -0.1,-12.2 0,-12.2 -4.4,2.6 -2.6,8.8 -2.6,8.8 -5.8,8.5 -3.1,-0.3 -3.2,-0.5 -6.2,-10.8 l -3,-10.5 -0.3,10.8 -0.3,10.8 h -3 -3 v -16.1 z M 683.8,289.15 c -19.3,-3.9 -35.2,-20.4 -38.5,-39.8 -4,-23.6 11.8,-47.4 35.5,-53.6 12.1,-3.2 27.6,-1.5 38.7,4.1 6.6,3.4 16.7,13 20.1,19.2 11.6,21.4 4.7,49.3 -15.4,62.2 -11.1,7.2 -27.8,10.5 -40.4,7.9 z m 171,0 c -24.9,-5.1 -42.6,-29.9 -38.6,-54.3 3.1,-18.7 17.3,-34.3 35.6,-39.1 12.1,-3.2 27.6,-1.5 38.7,4.1 6.6,3.4 16,12.3 19.8,18.9 12,21.1 5.2,49.6 -15,62.5 -11.2,7.2 -27.9,10.5 -40.5,7.9 z M 17.9,180.75"
   inkscape:connector-curvature="0"
   style="fill:#999999" />
</svg>