<?xml version="1.0" encoding="UTF-8" standalone="no"?>
<!-- Generator: Adobe Illustrator 15.0.2, SVG Export Plug-In  -->
<svg xmlns:dc="http://purl.org/dc/elements/1.1/" xmlns:cc="http://creativecommons.org/ns#" xmlns:rdf="http://www.w3.org/1999/02/22-rdf-syntax-ns#" xmlns:svg="http://www.w3.org/2000/svg" xmlns="http://www.w3.org/2000/svg" xmlns:xlink="http://www.w3.org/1999/xlink" xmlns:sodipodi="http://sodipodi.sourceforge.net/DTD/sodipodi-0.dtd" xmlns:inkscape="http://www.inkscape.org/namespaces/inkscape" enable-background="new 2.472168 0.6079102 167 36" xml:space="preserve" height="36px" width="167px" version="1.1" y="0px" x="0px" viewBox="2.472168 0.6079102 167 36" id="svg3003" inkscape:version="0.48.4 r9939" sodipodi:docname="Xbox_360_full_logo.svg"><defs id="defs3019"><radialGradient inkscape:collect="always" xlink:href="#linearGradient3037" id="radialGradient3528" gradientUnits="userSpaceOnUse" gradientTransform="matrix(0,1.8458161,-1.5756108,0,41.660507,-29.484015)" cx="23.689831" cy="12.765525" fx="23.689831" fy="12.765525" r="14.35"/><linearGradient inkscape:collect="always" id="linearGradient3037"><stop style="stop-color:#ffffff;stop-opacity:1;" offset="0" id="stop3039"/><stop style="stop-color:#ffffff;stop-opacity:0;" offset="1" id="stop3041"/></linearGradient><radialGradient inkscape:collect="always" xlink:href="#linearGradient3037" id="radialGradient3530" gradientUnits="userSpaceOnUse" gradientTransform="matrix(0,1.152526,-0.98381007,0,34.10586,-13.060091)" cx="23.689831" cy="12.765525" fx="23.689831" fy="12.765525" r="14.35"/><linearGradient inkscape:collect="always" xlink:href="#linearGradient3992" id="linearGradient3532" gradientUnits="userSpaceOnUse" x1="17.160885" y1="21.540094" x2="13.205508" y2="16.899706"/><linearGradient inkscape:collect="always" id="linearGradient3992"><stop style="stop-color:#97ca43;stop-opacity:1;" offset="0" id="stop3994"/><stop style="stop-color:#97ca43;stop-opacity:0;" offset="1" id="stop3996"/></linearGradient><linearGradient inkscape:collect="always" xlink:href="#linearGradient3356" id="linearGradient3534" gradientUnits="userSpaceOnUse" x1="11.656183" y1="18.171713" x2="13.586248" y2="19.23148"/><linearGradient inkscape:collect="always" id="linearGradient3356"><stop style="stop-color:#458f41;stop-opacity:1;" offset="0" id="stop3358"/><stop style="stop-color:#458f41;stop-opacity:0;" offset="1" id="stop3360"/></linearGradient><linearGradient inkscape:collect="always" xlink:href="#linearGradient3366" id="linearGradient3536" gradientUnits="userSpaceOnUse" x1="19.902828" y1="19.23148" x2="14.902203" y2="17.20026"/><linearGradient inkscape:collect="always" id="linearGradient3366"><stop style="stop-color:#e5edae;stop-opacity:1;" offset="0" id="stop3368"/><stop style="stop-color:#e5edae;stop-opacity:0;" offset="1" id="stop3370"/></linearGradient><linearGradient inkscape:collect="always" xlink:href="#linearGradient4002" id="linearGradient3538" gradientUnits="userSpaceOnUse" x1="19.663462" y1="13.089741" x2="23.287384" y2="5.046401"/><linearGradient inkscape:collect="always" id="linearGradient4002"><stop style="stop-color:#97ca43;stop-opacity:1;" offset="0" id="stop4004"/><stop style="stop-color:#97ca43;stop-opacity:0;" offset="1" id="stop4006"/></linearGradient><linearGradient inkscape:collect="always" xlink:href="#linearGradient3316" id="linearGradient3540" gradientUnits="userSpaceOnUse" x1="17.496838" y1="4.0984344" x2="17.321375" y2="6.2179689"/><linearGradient inkscape:collect="always" id="linearGradient3316"><stop style="stop-color:#459743;stop-opacity:1;" offset="0" id="stop3318"/><stop style="stop-color:#459743;stop-opacity:0;" offset="1" id="stop3320"/></linearGradient><linearGradient inkscape:collect="always" xlink:href="#linearGradient3316" id="linearGradient3542" gradientUnits="userSpaceOnUse" x1="19.339172" y1="4.7166319" x2="18.286409" y2="6.3062825"/><linearGradient inkscape:collect="always" xlink:href="#linearGradient3330" id="linearGradient3544" gradientUnits="userSpaceOnUse" x1="19.514631" y1="15.66756" x2="21.79562" y2="11.516805"/><linearGradient inkscape:collect="always" id="linearGradient3330"><stop style="stop-color:#e6edae;stop-opacity:1;" offset="0" id="stop3332"/><stop style="stop-color:#e6edae;stop-opacity:0;" offset="1" id="stop3334"/></linearGradient><linearGradient inkscape:collect="always" xlink:href="#linearGradient3992" id="linearGradient3546" gradientUnits="userSpaceOnUse" x1="17.160885" y1="21.540094" x2="13.205508" y2="16.899706"/><linearGradient inkscape:collect="always" xlink:href="#linearGradient3356" id="linearGradient3548" gradientUnits="userSpaceOnUse" x1="11.656183" y1="18.171713" x2="13.586248" y2="19.23148"/><linearGradient inkscape:collect="always" xlink:href="#linearGradient3366" id="linearGradient3550" gradientUnits="userSpaceOnUse" x1="19.902828" y1="19.23148" x2="14.902203" y2="17.20026"/><linearGradient inkscape:collect="always" xlink:href="#linearGradient4002" id="linearGradient3552" gradientUnits="userSpaceOnUse" x1="17.550945" y1="12.030865" x2="20.646738" y2="6.9876728"/><linearGradient inkscape:collect="always" xlink:href="#linearGradient3306" id="linearGradient3554" gradientUnits="userSpaceOnUse" x1="19.55179" y1="5.0687752" x2="18.759596" y2="6.3482499"/><linearGradient inkscape:collect="always" id="linearGradient3306"><stop style="stop-color:#46873f;stop-opacity:1;" offset="0" id="stop3308"/><stop style="stop-color:#46873f;stop-opacity:0;" offset="1" id="stop3310"/></linearGradient><linearGradient inkscape:collect="always" xlink:href="#linearGradient3346" id="linearGradient3556" gradientUnits="userSpaceOnUse" x1="20.123928" y1="15.569291" x2="21.972382" y2="10.980831"/><linearGradient inkscape:collect="always" id="linearGradient3346"><stop style="stop-color:#e6eead;stop-opacity:1;" offset="0" id="stop3348"/><stop style="stop-color:#e6eead;stop-opacity:0;" offset="1" id="stop3350"/></linearGradient></defs><sodipodi:namedview pagecolor="#ffffff" bordercolor="#666666" borderopacity="1" objecttolerance="10" gridtolerance="10" guidetolerance="10" inkscape:pageopacity="0" inkscape:pageshadow="2" inkscape:window-width="1600" inkscape:window-height="838" id="namedview3017" showgrid="false" inkscape:zoom="8.9820359" inkscape:cx="83.5" inkscape:cy="18" inkscape:window-x="-8" inkscape:window-y="-8" inkscape:window-maximized="1" inkscape:current-layer="svg3003"/><metadata id="metadata3005"><rdf:RDF><cc:Work rdf:about=""><dc:format>image/svg+xml</dc:format><dc:type rdf:resource="http://purl.org/dc/dcmitype/StillImage"/><dc:title/></cc:Work></rdf:RDF></metadata>
<path d="M112.1289,29.16992l-6.442383-8.751953-6.44043,8.751953h-2.65232l7.74707-10.57324-7.074219-9.60498h2.65332l5.766602,7.833984,5.763672-7.833984h2.649414l-7.071289,9.604004,7.75,10.57422h-2.649394zm-50.21972-0.0039l-7.75293-10.57032,7.072266-9.604004h-2.650395l-5.766602,7.839844-5.760742-7.839844h-2.647461l7.072266,9.604004-7.751953,10.57031h2.65332l6.4375-8.748047,6.44043,8.748047h2.65429zm16.4873-5.89014c0,3.633789-2.753906,5.894043-7.194336,5.894043l-8.191406-0.0039063v-9.452148h-4.191406c0.3037109-0.4550781,1.108398-1.564941,1.459961-2.022949h2.731445v-8.699211h8.191406c6.083008,0,6.557617,4.199219,6.557617,5.490234,0,1.742676-0.9580078,3.243652-2.424805,4.038086,0.44531,0.20361,0.90234,0.47998,1.32227,0.8418,1.1416,0.97607,1.73925,2.32519,1.73925,3.91406m-13.12011-5.58496h5.925781c2.728516,0,4.291992-1.265137,4.291992-3.385254,0-2.805664-2.6875-3.209961-4.291992-3.209961h-5.925781v6.595208zm10.86035,5.54297c0-2.895996-2.683594-3.518066-4.93457-3.518066h-5.925781v7.346191h5.925781c1.84473,0,4.93457-0.50244,4.93457-3.82812m22.52637-4.16602c0,6.212891-3.948242,10.54395-9.607422,10.54395-5.666992,0-9.62793-4.331055-9.62793-10.54395,0-6.205078,3.960938-10.54004,9.62793-10.54004,5.65917,0.000002,9.60742,4.33496,9.60742,10.54004m-2.29102,0c0-4.951172-3.009766-8.408203-7.316406-8.408203-4.317383,0-7.342773,3.457031-7.342773,8.408203s3.025391,8.412109,7.342773,8.412109c4.30664,0,7.31641-3.46094,7.31641-8.41211" fill="#92C83E" id="path3007"/>
<path d="M159.0547,8.51709c-4.790039,0-7.540039,3.855957-7.540039,10.57812,0,6.717773,2.75,10.57812,7.540039,10.57812,2.731445,0,4.760742-1.193359,6.049805-3.53125,1.224609-2.23291,1.484375-5.065918,1.484375-7.046875,0-3.17918-0.7364-10.57811-7.5342-10.57811m0,19.34619c-1.367188,0-2.501953-0.4462891-3.376953-1.313965-1.921875-1.931152-2.210938-5.496094-2.210938-7.454102,0-2.637207,0.546875-8.766113,5.587891-8.766113,5.040039,0,5.581055,6.128906,5.581055,8.766113-0.0001,2.63671-0.5411,8.76806-5.5811,8.76806m-16.1875-12.35986c-2.1875,0-4.186523,1.066894-5.416016,2.825684,0.2578125-3.831055,1.488281-8,5.645508-8,2.325195,0,4.085938,1.516113,4.481445,3.866211l0.0605469,0.3686523h1.930664l-0.0507813-0.4897461c-0.3818359-3.42627-2.842773-5.557129-6.421875-5.557129-6.327148,0-7.652344,6.277344-7.652344,11.54004,0,6.291016,2.566406,9.616211,7.422852,9.616211,3.987305,0,7.003906-3.020996,7.003906-7.025391,0-4.14355-2.9492-7.14452-7.0039-7.14452m0,12.35986c-2.859375,0-5.103516-2.292969-5.103516-5.215332,0-3.041992,2.199219-5.331543,5.103516-5.331543,1.305664,0,2.541016,0.5097656,3.461914,1.43457,1.010742,1.004394,1.581055,2.424316,1.581055,3.896973,0,2.92236-2.2149,5.21533-5.043,5.21533m-8.9414-4.43017c0,3.769043-2.804688,6.203125-7.140625,6.203125-2.351562,0-4.262695-0.7001953-5.526367-2.024902-1.208984-1.268066-1.796875-3.082031-1.700195-5.25l0.0146484-0.4130859h1.956055l-0.0136719,0.4521484c-0.0683594,1.632812,0.3769531,3.001953,1.291016,3.953613,0.9257813,0.9599609,2.305664,1.475098,3.978516,1.475098,2.581055,0,5.181641-1.512695,5.181641-4.395996,0-1.190918-0.3642578-2.138672-1.094727-2.819824-0.8808594-0.8271484-2.300781-1.202148-4.094727-1.221191h-1.360352c-0.0117188-0.4726563-0.0117188-1.417969,0-1.907715,0.4960938-0.0024414,1.009766-0.0102539,1.352539-0.0102539,0.9541016,0,2.80957-0.2397461,3.813477-1.205078,0.6132813-0.59375,0.9365234-1.405762,0.9365234-2.407715,0-2.344238-2.382812-3.569336-4.734375-3.569336-2.329102,0-4.086914,1.518066-4.483398,3.870117l-0.0595703,0.3652344h-1.942383l0.0566406-0.4873047c0.3857422-3.424805,2.852539-5.559082,6.428711-5.559082,2.185547,0,4.116211,0.6772461,5.294922,1.854004,0.9189453,0.9243164,1.391602,2.108398,1.391602,3.526367,0,2.008789-1.084961,3.708984-2.791016,4.493652,2.0071,0.80517,3.2454,2.6953,3.2454,5.07812" fill="#9D9FA2" id="path3009"/>
<path d="M168.4541,26.96143c0,0.3833008-0.1308594,0.7050781-0.3925781,0.9663086-0.2578125,0.2607422-0.5800781,0.3920898-0.9609375,0.3920898-0.3867188,0-0.7070313-0.1264648-0.9609375-0.3813477-0.2558594-0.2548828-0.3828125-0.578125-0.3828125-0.9648438,0-0.3833008,0.1308594-0.7060547,0.390625-0.9663086,0.2558594-0.2636719,0.578125-0.3935547,0.9628906-0.3935547,0.3769531,0,0.6933594,0.125,0.9492188,0.375,0.2617,0.25683,0.3945,0.58202,0.3945,0.97265m-0.1621,0.0083c0-0.3452148-0.1132813-0.6313477-0.3457031-0.8632813-0.2285156-0.2290039-0.5097656-0.3417969-0.8398438-0.3417969-0.34375,0-0.6269531,0.1137695-0.8515625,0.3457031-0.2265625,0.2333984-0.3378906,0.5170898-0.3378906,0.859375,0,0.3457031,0.1152344,0.6357422,0.3496094,0.8666992,0.2285156,0.2290039,0.5078125,0.3452148,0.8398438,0.3452148,0.328125,0,0.6074219-0.1162109,0.8378906-0.347168,0.2344-0.2329,0.3477-0.52098,0.3477-0.86473m-0.5352,0.85107h-0.2890625l-0.1875-0.4169922c-0.09375-0.2104492-0.1953125-0.3144531-0.3066406-0.3144531h-0.1582031v0.7314453h-0.2382813v-1.740234h0.4824219c0.2128906,0,0.375,0.0488281,0.484375,0.1450195,0.09375,0.0849609,0.140625,0.1938477,0.140625,0.3300781,0,0.1186523-0.0390625,0.21875-0.1132813,0.3037109-0.0742188,0.0854492-0.1835938,0.1420898-0.3203125,0.1704102v0.0068359c0.09375,0.0219727,0.1894531,0.1289063,0.2832031,0.3208008l0.2227,0.46336zm-0.3281-1.2373c0-0.1010742-0.0273438-0.1708984-0.0839844-0.2167969-0.0605469-0.0512695-0.1660156-0.0761719-0.3164063-0.0761719h-0.2128906v0.5942383h0.2597656c0.2324,0,0.3535-0.10108,0.3535-0.30127" fill="#9D9FA2" id="path3011"/>

<path d="M168.3096,27.15381c0,0.3833008-0.1318359,0.7050781-0.3935547,0.9663086-0.2578125,0.2607422-0.5800781,0.3920898-0.9609375,0.3920898-0.3867188,0-0.7070313-0.1264648-0.9609375-0.3813477-0.2548828-0.2548828-0.3818359-0.578125-0.3818359-0.9648438,0-0.3833008,0.1308594-0.7060547,0.3896484-0.9663086,0.2568359-0.2636719,0.578125-0.3935547,0.9628906-0.3935547,0.3769531,0,0.6943359,0.125,0.9492188,0.375,0.2617,0.25683,0.3955,0.58202,0.3955,0.97265m-0.1621,0.0083c0-0.3452148-0.1142578-0.6313477-0.3466797-0.8632813-0.2275391-0.2290039-0.5087891-0.3417969-0.8398438-0.3417969-0.3427734,0-0.6259766,0.1137695-0.8505859,0.3457031-0.2265625,0.2333984-0.3378906,0.5170898-0.3378906,0.859375,0,0.3457031,0.1152344,0.6357422,0.3486328,0.8666992,0.2294922,0.2290039,0.5078125,0.3452148,0.8398438,0.3452148,0.328125,0,0.6083984-0.1162109,0.8378906-0.347168,0.2344-0.23289,0.3487-0.52098,0.3487-0.86473m-0.5352,0.85107h-0.2890625l-0.1884766-0.4169922c-0.09375-0.2104492-0.1943359-0.3144531-0.3066406-0.3144531h-0.1572266v0.7314453h-0.2382813v-1.740234h0.4824219c0.2119141,0,0.3740234,0.0488281,0.484375,0.1450195,0.09375,0.0849609,0.140625,0.1938477,0.140625,0.3300781,0,0.1186523-0.0400391,0.21875-0.1142578,0.3037109-0.0742188,0.0854492-0.1826172,0.1420898-0.3203125,0.1704102v0.0068359c0.0947266,0.0219727,0.1894531,0.1289063,0.2841797,0.3208008l0.2227,0.46336zm-0.3281-1.2373c0-0.1010742-0.0283203-0.1708984-0.0839844-0.2167969-0.0605469-0.0512695-0.1669922-0.0761719-0.3173828-0.0761719h-0.2119141v0.5942383h0.2597656c0.2324,0,0.3535-0.10108,0.3535-0.30127" display="none" fill="#9D9FA2" id="path3015"/>
<g transform="translate(-8.5927588,36.998558)" id="g4160"><g id="g3489"><g id="g3484"><path sodipodi:type="arc" style="fill:#666666;fill-opacity:1;stroke:none" id="path3033" sodipodi:cx="23.333334" sodipodi:cy="17.391666" sodipodi:rx="14.35" sodipodi:ry="14.758333" d="m 37.683334,17.391666 c 0,8.150803 -6.424714,14.758334 -14.35,14.758334 -7.925286,0 -14.3500004,-6.607531 -14.3500004,-14.758334 0,-8.150802 6.4247144,-14.7583328 14.3500004,-14.7583328 7.925286,0 14.35,6.6075308 14.35,14.7583328 z" transform="matrix(1.1755978,0,0,1.1301272,4.1196441,-37.63611)"/><path transform="matrix(1.1755978,0,0,1.1301272,4.1196441,-37.63611)" d="m 37.683334,17.391666 c 0,8.150803 -6.424714,14.758334 -14.35,14.758334 -7.925286,0 -14.3500004,-6.607531 -14.3500004,-14.758334 0,-8.150802 6.4247144,-14.7583328 14.3500004,-14.7583328 7.925286,0 14.35,6.6075308 14.35,14.7583328 z" sodipodi:ry="14.758333" sodipodi:rx="14.35" sodipodi:cy="17.391666" sodipodi:cx="23.333334" id="path3035" style="fill:url(#radialGradient3528);fill-opacity:1;stroke:none" sodipodi:type="arc"/><path sodipodi:type="arc" style="fill:url(#radialGradient3530);fill-opacity:1;stroke:none" id="path3290" sodipodi:cx="23.333334" sodipodi:cy="17.391666" sodipodi:rx="14.35" sodipodi:ry="14.758333" d="m 37.683334,17.391666 c 0,8.150803 -6.424714,14.758334 -14.35,14.758334 -7.925286,0 -14.3500004,-6.607531 -14.3500004,-14.758334 0,-8.150802 6.4247144,-14.7583328 14.3500004,-14.7583328 7.925286,0 14.35,6.6075308 14.35,14.7583328 z" transform="matrix(1.1755978,0,0,1.1301272,4.1196441,-37.63611)"/></g><g transform="translate(-4.7343777,9.5517766)" id="g4126"><g transform="matrix(1.0075011,0,0,1.0008426,-0.23709798,0.02715301)" id="g4010"><g id="g3951"/></g><g transform="translate(4.7499999,-9.4999998)" id="g3427"><g transform="matrix(1.0075011,0,0,1.0008426,-0.237093,0.0271527)" id="g3378"><g transform="translate(1.334375,-34.927083)" id="g3917"><path sodipodi:nodetypes="ccccc" inkscape:connector-curvature="0" style="fill:#00a54d;fill-opacity:1;stroke:none" d="m 17.75,10.65625 c -1.847688,2.256035 -9.5926641,11.425091 -8.90625,17.625 0.4783172,0.610018 1.0047273,1.180327 1.5625,1.71875 -0.08129,-4.745696 5.4515,-9.824588 9.769368,-13.658449 z" transform="translate(8.2169271,-1.0729817)" id="path3900"/></g><g id="g3988" transform="translate(1.334375,-34.927083)" style="fill:#97ca43;fill-opacity:1"><path id="path3990" transform="translate(8.2169271,-1.0729817)" d="m 17.75,10.65625 c -1.847688,2.256035 -9.5926641,11.425091 -8.90625,17.625 0.4783172,0.610018 1.0047273,1.180327 1.5625,1.71875 -0.08129,-4.745696 5.4515,-9.824588 9.769368,-13.658449 z" style="fill:url(#linearGradient3532);fill-opacity:1;stroke:none" inkscape:connector-curvature="0" sodipodi:nodetypes="ccccc"/><path sodipodi:nodetypes="ccccc" inkscape:connector-curvature="0" style="fill:url(#linearGradient3534);fill-opacity:1;stroke:none" d="m 17.75,10.65625 c -1.847688,2.256035 -9.5926641,11.425091 -8.90625,17.625 0.4783172,0.610018 1.0047273,1.180327 1.5625,1.71875 -0.08129,-4.745696 5.4515,-9.824588 9.769368,-13.658449 z" transform="translate(8.2169271,-1.0729817)" id="path3354"/><path id="path3364" transform="translate(8.2169271,-1.0729817)" d="m 17.75,10.65625 c -1.847688,2.256035 -9.5926641,11.425091 -8.90625,17.625 0.4783172,0.610018 1.0047273,1.180327 1.5625,1.71875 -0.08129,-4.745696 5.4515,-9.824588 9.769368,-13.658449 z" style="fill:url(#linearGradient3536);fill-opacity:1;stroke:none" inkscape:connector-curvature="0" sodipodi:nodetypes="ccccc"/></g></g><g id="g3888" transform="matrix(1.0075011,0,0,1.0008426,0.968067,-34.89797)"><g id="g3876"><path style="fill:#02a74d;fill-opacity:1;stroke:none" d="m 13.34375,3.75 c -0.965665,0.5849225 -1.862933,1.2722918 -2.6875,2.03125 2.656255,0.5079752 5.32084,2.8624365 6.78125,4.8125 1.272411,2.001434 1.963367,3.836737 2.861547,5.731248 0.608132,-0.518349 1.226492,-1.046358 1.896265,-1.586717 l -0.0039,-8.2265622 C 20.212403,5.2739256 16.941625,3.6447553 13.375,3.75 c -0.0076,0.00461 -0.02361,-0.00463 -0.03125,0 z" id="path3089" transform="translate(8.2169271,-1.0729817)" inkscape:connector-curvature="0" sodipodi:nodetypes="cccccccc"/><path sodipodi:nodetypes="cccccccc" inkscape:connector-curvature="0" transform="translate(8.2169271,-1.0729817)" id="path4000" d="m 13.34375,3.75 c -0.965665,0.5849225 -1.862933,1.2722918 -2.6875,2.03125 2.656255,0.5079752 5.32084,2.8624365 6.78125,4.8125 1.272411,2.001434 1.963367,3.836737 2.861547,5.731248 0.608132,-0.518349 1.226492,-1.046358 1.896265,-1.586717 l -0.0039,-8.2265622 C 20.212403,5.2739256 16.941625,3.6447553 13.375,3.75 c -0.0076,0.00461 -0.02361,-0.00463 -0.03125,0 z" style="fill:url(#linearGradient3538);fill-opacity:1;stroke:none"/><path style="fill:url(#linearGradient3540);fill-opacity:1;stroke:none" d="m 13.34375,3.75 c -0.965665,0.5849225 -1.862933,1.2722918 -2.6875,2.03125 2.656255,0.5079752 5.32084,2.8624365 6.78125,4.8125 1.272411,2.001434 1.963367,3.836737 2.861547,5.731248 0.608132,-0.518349 1.226492,-1.046358 1.896265,-1.586717 l -0.0039,-8.2265622 C 20.212403,5.2739256 16.941625,3.6447553 13.375,3.75 c -0.0076,0.00461 -0.02361,-0.00463 -0.03125,0 z" id="path3314" transform="translate(8.2169271,-1.0729817)" inkscape:connector-curvature="0" sodipodi:nodetypes="cccccccc"/><path sodipodi:nodetypes="cccccccc" inkscape:connector-curvature="0" transform="translate(8.2169271,-1.0729817)" id="path3324" d="m 13.34375,3.75 c -0.965665,0.5849225 -1.862933,1.2722918 -2.6875,2.03125 2.656255,0.5079752 5.32084,2.8624365 6.78125,4.8125 1.272411,2.001434 1.963367,3.836737 2.861547,5.731248 0.608132,-0.518349 1.226492,-1.046358 1.896265,-1.586717 l -0.0039,-8.2265622 C 20.212403,5.2739256 16.941625,3.6447553 13.375,3.75 c -0.0076,0.00461 -0.02361,-0.00463 -0.03125,0 z" style="fill:url(#linearGradient3542);fill-opacity:1;stroke:none"/><path style="fill:url(#linearGradient3544);fill-opacity:1;stroke:none" d="m 13.34375,3.75 c -0.965665,0.5849225 -1.862933,1.2722918 -2.6875,2.03125 2.656255,0.5079752 5.32084,2.8624365 6.78125,4.8125 1.272411,2.001434 1.963367,3.836737 2.861547,5.731248 0.608132,-0.518349 1.226492,-1.046358 1.896265,-1.586717 l -0.0039,-8.2265622 C 20.212403,5.2739256 16.941625,3.6447553 13.375,3.75 c -0.0076,0.00461 -0.02361,-0.00463 -0.03125,0 z" id="path3328" transform="translate(8.2169271,-1.0729817)" inkscape:connector-curvature="0" sodipodi:nodetypes="cccccccc"/></g></g><g id="g3386" transform="matrix(-1.0075011,0,0,1.0008426,63.322778,0.0271527)"><g id="g3388" transform="translate(1.334375,-34.927083)"><path id="path3390" transform="translate(8.2169271,-1.0729817)" d="m 17.75,10.65625 c -1.847688,2.256035 -9.5926641,11.425091 -8.90625,17.625 0.4783172,0.610018 1.0047273,1.180327 1.5625,1.71875 -0.08129,-4.745696 5.4515,-9.824588 9.769368,-13.658449 z" style="fill:#00a54d;fill-opacity:1;stroke:none" inkscape:connector-curvature="0" sodipodi:nodetypes="ccccc"/></g><g style="fill:#97ca43;fill-opacity:1" transform="translate(1.334375,-34.927083)" id="g3392"><path sodipodi:nodetypes="ccccc" inkscape:connector-curvature="0" style="fill:url(#linearGradient3546);fill-opacity:1;stroke:none" d="m 17.75,10.65625 c -1.847688,2.256035 -9.5926641,11.425091 -8.90625,17.625 0.4783172,0.610018 1.0047273,1.180327 1.5625,1.71875 -0.08129,-4.745696 5.4515,-9.824588 9.769368,-13.658449 z" transform="translate(8.2169271,-1.0729817)" id="path3394"/><path id="path3396" transform="translate(8.2169271,-1.0729817)" d="m 17.75,10.65625 c -1.847688,2.256035 -9.5926641,11.425091 -8.90625,17.625 0.4783172,0.610018 1.0047273,1.180327 1.5625,1.71875 -0.08129,-4.745696 5.4515,-9.824588 9.769368,-13.658449 z" style="fill:url(#linearGradient3548);fill-opacity:1;stroke:none" inkscape:connector-curvature="0" sodipodi:nodetypes="ccccc"/><path sodipodi:nodetypes="ccccc" inkscape:connector-curvature="0" style="fill:url(#linearGradient3550);fill-opacity:1;stroke:none" d="m 17.75,10.65625 c -1.847688,2.256035 -9.5926641,11.425091 -8.90625,17.625 0.4783172,0.610018 1.0047273,1.180327 1.5625,1.71875 -0.08129,-4.745696 5.4515,-9.824588 9.769368,-13.658449 z" transform="translate(8.2169271,-1.0729817)" id="path3398"/></g></g><g id="g4021" transform="matrix(-1.0041673,0,0,1.0016853,63.252358,0.05430602)"><g id="g4023"><g transform="translate(1.196189,-34.89572)" id="g4033"><g id="g4035"><path sodipodi:nodetypes="cccccccc" inkscape:connector-curvature="0" transform="translate(8.2169271,-1.0729817)" id="path4037" d="m 13.34375,3.75 c -0.965665,0.5849225 -1.862933,1.2722918 -2.6875,2.03125 2.656255,0.5079752 5.32084,2.8624365 6.78125,4.8125 1.272411,2.001434 1.963367,3.836737 2.861547,5.731248 0.608132,-0.518349 1.226492,-1.046358 1.896265,-1.586717 l -0.0039,-8.2265622 C 20.212403,5.2739256 16.941625,3.6447553 13.375,3.75 c -0.0076,0.00461 -0.02361,-0.00463 -0.03125,0 z" style="fill:#02a74d;fill-opacity:1;stroke:none"/><path style="fill:url(#linearGradient3552);fill-opacity:1;stroke:none" d="m 13.34375,3.75 c -0.965665,0.5849225 -1.862933,1.2722918 -2.6875,2.03125 2.656255,0.5079752 5.32084,2.8624365 6.78125,4.8125 1.272411,2.001434 1.963367,3.836737 2.861547,5.731248 0.608132,-0.518349 1.226492,-1.046358 1.896265,-1.586717 l -0.0039,-8.2265622 C 20.212403,5.2739256 16.941625,3.6447553 13.375,3.75 c -0.0076,0.00461 -0.02361,-0.00463 -0.03125,0 z" id="path4039" transform="translate(8.2169271,-1.0729817)" inkscape:connector-curvature="0" sodipodi:nodetypes="cccccccc"/><path sodipodi:nodetypes="cccccccc" inkscape:connector-curvature="0" transform="translate(8.2169271,-1.0729817)" id="path3304" d="m 13.34375,3.75 c -0.965665,0.5849225 -1.862933,1.2722918 -2.6875,2.03125 2.656255,0.5079752 5.32084,2.8624365 6.78125,4.8125 1.272411,2.001434 1.963367,3.836737 2.861547,5.731248 0.608132,-0.518349 1.226492,-1.046358 1.896265,-1.586717 l -0.0039,-8.2265622 C 20.212403,5.2739256 16.941625,3.6447553 13.375,3.75 c -0.0076,0.00461 -0.02361,-0.00463 -0.03125,0 z" style="fill:url(#linearGradient3554);fill-opacity:1;stroke:none"/><path style="fill:url(#linearGradient3556);fill-opacity:1;stroke:none" d="m 13.34375,3.75 c -0.965665,0.5849225 -1.862933,1.2722918 -2.6875,2.03125 2.656255,0.5079752 5.32084,2.8624365 6.78125,4.8125 1.272411,2.001434 1.963367,3.836737 2.861547,5.731248 0.608132,-0.518349 1.226492,-1.046358 1.896265,-1.586717 l -0.0039,-8.2265622 C 20.212403,5.2739256 16.941625,3.6447553 13.375,3.75 c -0.0076,0.00461 -0.02361,-0.00463 -0.03125,0 z" id="path3344" transform="translate(8.2169271,-1.0729817)" inkscape:connector-curvature="0" sodipodi:nodetypes="cccccccc"/></g></g></g></g></g></g></g></g><script xmlns=""/></svg>