<?xml version="1.0" encoding="utf-8"?><!-- Uploaded to: SVG Repo, www.svgrepo.com, Generator: SVG Repo Mixer Tools -->
<svg width="800px" height="800px" viewBox="0 0 24 24" fill="none" xmlns="http://www.w3.org/2000/svg">
<path d="M16 7V6.2C16 5.0799 16 4.51984 15.782 4.09202C15.5903 3.71569 15.2843 3.40973 14.908 3.21799C14.4802 3 13.9201 3 12.8 3H11.2C10.0799 3 9.51984 3 9.09202 3.21799C8.71569 3.40973 8.40973 3.71569 8.21799 4.09202C8 4.51984 8 5.0799 8 6.2V7M7 7V21M17 7V21M10 14H14M12 12V16M7.8 21H16.2C17.8802 21 18.7202 21 19.362 20.673C19.9265 20.3854 20.3854 19.9265 20.673 19.362C21 18.7202 21 17.8802 21 16.2V11.8C21 10.1198 21 9.27976 20.673 8.63803C20.3854 8.07354 19.9265 7.6146 19.362 7.32698C18.7202 7 17.8802 7 16.2 7H7.8C6.11984 7 5.27976 7 4.63803 7.32698C4.07354 7.6146 3.6146 8.07354 3.32698 8.63803C3 9.27976 3 10.1198 3 11.8V16.2C3 17.8802 3 18.7202 3.32698 19.362C3.6146 19.9265 4.07354 20.3854 4.63803 20.673C5.27976 21 6.11984 21 7.8 21Z" stroke="#000000" stroke-width="2" stroke-linecap="round" stroke-linejoin="round"/>
</svg>