<?xml version="1.0" encoding="utf-8"?><!-- Uploaded to: SVG Repo, www.svgrepo.com, Generator: SVG Repo Mixer Tools -->
<svg width="800px" height="800px" viewBox="0 0 24 24" fill="none" xmlns="http://www.w3.org/2000/svg">
<path d="M9 14H15M4.6 10H19.4C19.9601 10 20.2401 10 20.454 9.89101C20.6422 9.79513 20.7951 9.64215 20.891 9.45399C21 9.24008 21 8.96005 21 8.4V5.6C21 5.03995 21 4.75992 20.891 4.54601C20.7951 4.35785 20.6422 4.20487 20.454 4.10899C20.2401 4 19.9601 4 19.4 4H4.6C4.03995 4 3.75992 4 3.54601 4.10899C3.35785 4.20487 3.20487 4.35785 3.10899 4.54601C3 4.75992 3 5.03995 3 5.6V8.4C3 8.96005 3 9.24008 3.10899 9.45399C3.20487 9.64215 3.35785 9.79513 3.54601 9.89101C3.75992 10 4.03995 10 4.6 10ZM5 10H19V16.8C19 17.9201 19 18.4802 18.782 18.908C18.5903 19.2843 18.2843 19.5903 17.908 19.782C17.4802 20 16.9201 20 15.8 20H8.2C7.07989 20 6.51984 20 6.09202 19.782C5.71569 19.5903 5.40973 19.2843 5.21799 18.908C5 18.4802 5 17.9201 5 16.8V10Z" stroke="#000000" stroke-width="2" stroke-linecap="round" stroke-linejoin="round"/>
</svg>