<?xml version="1.0" encoding="utf-8"?><!-- Uploaded to: SVG Repo, www.svgrepo.com, Generator: SVG Repo Mixer Tools -->
<svg width="800px" height="800px" viewBox="0 0 24 24" fill="none" xmlns="http://www.w3.org/2000/svg">
<path d="M12 3L12.4892 2.12785C12.1854 1.95738 11.8146 1.95738 11.5108 2.12785L12 3ZM13.3976 3.784L12.9084 4.65615C13.0542 4.73792 13.2181 4.78185 13.3852 4.78392L13.3976 3.784ZM15 3.80385L15.8598 3.29316C15.6818 2.99359 15.3608 2.80824 15.0124 2.80392L15 3.80385ZM15.8184 5.18162L14.9586 5.69231C15.044 5.83601 15.164 5.95603 15.3077 6.04139L15.8184 5.18162ZM17.1962 6L18.1961 5.98761C18.1918 5.63921 18.0064 5.31817 17.7068 5.14023L17.1962 6ZM17.216 7.60238L16.2161 7.61476C16.2181 7.78189 16.2621 7.94584 16.3438 8.09161L17.216 7.60238ZM18 9L18.8722 9.48924C19.0426 9.18535 19.0426 8.81465 18.8722 8.51076L18 9ZM17.216 10.3976L16.3438 9.90839C16.2621 10.0542 16.2181 10.2181 16.2161 10.3852L17.216 10.3976ZM17.1962 12L17.7068 12.8598C18.0064 12.6818 18.1918 12.3608 18.1961 12.0124L17.1962 12ZM15.8184 12.8184L15.3077 11.9586C15.164 12.044 15.044 12.164 14.9586 12.3077L15.8184 12.8184ZM15 14.1962L15.0124 15.1961C15.3608 15.1918 15.6818 15.0064 15.8598 14.7068L15 14.1962ZM13.3976 14.216L13.3852 13.2161C13.2181 13.2181 13.0542 13.2621 12.9084 13.3438L13.3976 14.216ZM12 15L11.5108 15.8722C11.8146 16.0426 12.1854 16.0426 12.4892 15.8722L12 15ZM10.6024 14.216L11.0916 13.3438C10.9458 13.2621 10.7819 13.2181 10.6148 13.2161L10.6024 14.216ZM9 14.1962L8.14023 14.7068C8.31817 15.0064 8.63921 15.1918 8.98761 15.1961L9 14.1962ZM8.18162 12.8184L9.04139 12.3077C8.95603 12.164 8.83602 12.044 8.69231 11.9586L8.18162 12.8184ZM6.80385 12L5.80392 12.0124C5.80824 12.3608 5.99359 12.6818 6.29316 12.8598L6.80385 12ZM6.784 10.3976L7.78392 10.3852C7.78185 10.2181 7.73792 10.0542 7.65615 9.90839L6.784 10.3976ZM6 9L5.12785 8.51076C4.95738 8.81465 4.95738 9.18535 5.12785 9.48924L6 9ZM6.784 7.60238L7.65615 8.09161C7.73792 7.94584 7.78185 7.78189 7.78392 7.61476L6.784 7.60238ZM6.80385 6L6.29316 5.14023C5.99359 5.31817 5.80824 5.63921 5.80392 5.98762L6.80385 6ZM8.18162 5.18162L8.69231 6.04139C8.83602 5.95603 8.95603 5.83602 9.04139 5.69231L8.18162 5.18162ZM9 3.80385L8.98762 2.80392C8.63921 2.80824 8.31817 2.99359 8.14023 3.29316L9 3.80385ZM10.6024 3.784L10.6148 4.78392C10.7819 4.78185 10.9458 4.73792 11.0916 4.65615L10.6024 3.784ZM4 19L3.10557 18.5528C2.95058 18.8628 2.96714 19.2309 3.14935 19.5258C3.33156 19.8206 3.65342 20 4 20V19ZM6.5 19L7.3 18.4C7.11115 18.1482 6.81476 18 6.5 18V19ZM8 21L7.2 21.6C7.40795 21.8773 7.74463 22.0271 8.08981 21.996C8.43498 21.9649 8.73943 21.7572 8.89443 21.4472L8 21ZM20 19V20C20.3466 20 20.6684 19.8206 20.8507 19.5258C21.0329 19.2309 21.0494 18.8628 20.8944 18.5528L20 19ZM17.5 19V18C17.1852 18 16.8889 18.1482 16.7 18.4L17.5 19ZM16 21L15.1056 21.4472C15.2606 21.7572 15.565 21.9649 15.9102 21.996C16.2554 22.0271 16.5921 21.8773 16.8 21.6L16 21ZM19.3944 15.5528C19.1474 15.0588 18.5468 14.8586 18.0528 15.1056C17.5588 15.3526 17.3586 15.9533 17.6056 16.4472L19.3944 15.5528ZM15.3944 17.5528C15.1474 17.0588 14.5468 16.8586 14.0528 17.1056C13.5588 17.3526 13.3586 17.9533 13.6056 18.4472L15.3944 17.5528ZM10.3944 18.4472C10.6414 17.9533 10.4412 17.3526 9.94721 17.1056C9.45324 16.8586 8.85256 17.0588 8.60557 17.5528L10.3944 18.4472ZM6.39443 16.4472C6.64142 15.9533 6.44119 15.3526 5.94721 15.1056C5.45324 14.8586 4.85256 15.0588 4.60557 15.5528L6.39443 16.4472ZM11.5108 3.87215L12.9084 4.65615L13.8869 2.91185L12.4892 2.12785L11.5108 3.87215ZM13.3852 4.78392L14.9876 4.80377L15.0124 2.80392L13.41 2.78408L13.3852 4.78392ZM14.1402 4.31454L14.9586 5.69231L16.6781 4.67094L15.8598 3.29316L14.1402 4.31454ZM15.3077 6.04139L16.6855 6.85977L17.7068 5.14023L16.3291 4.32186L15.3077 6.04139ZM16.1962 6.01239L16.2161 7.61476L18.2159 7.58999L18.1961 5.98761L16.1962 6.01239ZM16.3438 8.09161L17.1278 9.48924L18.8722 8.51076L18.0882 7.11314L16.3438 8.09161ZM17.1278 8.51076L16.3438 9.90839L18.0882 10.8869L18.8722 9.48924L17.1278 8.51076ZM16.2161 10.3852L16.1962 11.9876L18.1961 12.0124L18.2159 10.41L16.2161 10.3852ZM14.9586 12.3077L14.1402 13.6855L15.8598 14.7068L16.6781 13.3291L14.9586 12.3077ZM14.9876 13.1962L13.3852 13.2161L13.41 15.2159L15.0124 15.1961L14.9876 13.1962ZM10.6148 13.2161L9.01239 13.1962L8.98761 15.1961L10.59 15.2159L10.6148 13.2161ZM9.85977 13.6855L9.04139 12.3077L7.32186 13.3291L8.14023 14.7068L9.85977 13.6855ZM7.80377 11.9876L7.78392 10.3852L5.78408 10.41L5.80392 12.0124L7.80377 11.9876ZM7.65615 9.90839L6.87215 8.51076L5.12785 9.48924L5.91185 10.8869L7.65615 9.90839ZM6.87215 9.48924L7.65615 8.09161L5.91185 7.11314L5.12785 8.51076L6.87215 9.48924ZM7.78392 7.61476L7.80377 6.01238L5.80392 5.98762L5.78408 7.58999L7.78392 7.61476ZM7.31454 6.85977L8.69231 6.04139L7.67094 4.32186L6.29316 5.14023L7.31454 6.85977ZM9.04139 5.69231L9.85977 4.31454L8.14023 3.29316L7.32186 4.67094L9.04139 5.69231ZM9.01238 4.80377L10.6148 4.78392L10.59 2.78408L8.98762 2.80392L9.01238 4.80377ZM11.0916 4.65615L12.4892 3.87215L11.5108 2.12785L10.1131 2.91185L11.0916 4.65615ZM16.6855 11.1402L15.3077 11.9586L16.3291 13.6781L17.7068 12.8598L16.6855 11.1402ZM8.69231 11.9586L7.31454 11.1402L6.29316 12.8598L7.67094 13.6781L8.69231 11.9586ZM12.9084 13.3438L11.5108 14.1278L12.4892 15.8722L13.8869 15.0882L12.9084 13.3438ZM12.4892 14.1278L11.0916 13.3438L10.1131 15.0882L11.5108 15.8722L12.4892 14.1278ZM4 20H6.5V18H4V20ZM5.7 19.6L7.2 21.6L8.8 20.4L7.3 18.4L5.7 19.6ZM20 18H17.5V20H20V18ZM16.7 18.4L15.2 20.4L16.8 21.6L18.3 19.6L16.7 18.4ZM17.6056 16.4472L19.1056 19.4472L20.8944 18.5528L19.3944 15.5528L17.6056 16.4472ZM13.6056 18.4472L15.1056 21.4472L16.8944 20.5528L15.3944 17.5528L13.6056 18.4472ZM8.60557 17.5528L7.10557 20.5528L8.89443 21.4472L10.3944 18.4472L8.60557 17.5528ZM4.60557 15.5528L3.10557 18.5528L4.89443 19.4472L6.39443 16.4472L4.60557 15.5528ZM13 9C13 9.55228 12.5523 10 12 10V12C13.6569 12 15 10.6569 15 9H13ZM12 10C11.4477 10 11 9.55228 11 9H9C9 10.6569 10.3431 12 12 12V10ZM11 9C11 8.44772 11.4477 8 12 8V6C10.3431 6 9 7.34315 9 9H11ZM12 8C12.5523 8 13 8.44772 13 9H15C15 7.34315 13.6569 6 12 6V8Z" fill="#000000"/>
</svg>