<?xml version="1.0" encoding="utf-8"?><!-- Uploaded to: SVG Repo, www.svgrepo.com, Generator: SVG Repo Mixer Tools -->
<svg width="800px" height="800px" viewBox="0 0 24 24" fill="none" xmlns="http://www.w3.org/2000/svg">
<path d="M3 5V19M12 7.329V16.671C12 17.7367 12 18.2695 11.7815 18.5432C11.5916 18.7812 11.3035 18.9197 10.9989 18.9194C10.6487 18.919 10.2327 18.5861 9.40049 17.9204L5.12347 14.4988C4.05578 13.6446 3.52194 13.2176 3.32866 12.7016C3.1592 12.2492 3.1592 11.7508 3.32866 11.2984C3.52194 10.7824 4.05578 10.3554 5.12348 9.50122L9.40049 6.07961C10.2327 5.41387 10.6487 5.081 10.9989 5.08063C11.3035 5.0803 11.5916 5.21876 11.7815 5.45677C12 5.73045 12 6.2633 12 7.329ZM21 7.329V16.671C21 17.7367 21 18.2695 20.7815 18.5432C20.5916 18.7812 20.3035 18.9197 19.9989 18.9194C19.6487 18.919 19.2327 18.5861 18.4005 17.9204L14.1235 14.4988C13.0558 13.6446 12.5219 13.2176 12.3287 12.7016C12.1592 12.2492 12.1592 11.7508 12.3287 11.2984C12.5219 10.7824 13.0558 10.3554 14.1235 9.50122L18.4005 6.07961C19.2327 5.41387 19.6487 5.081 19.9989 5.08063C20.3035 5.0803 20.5916 5.21876 20.7815 5.45677C21 5.73045 21 6.2633 21 7.329Z" stroke="#000000" stroke-width="2" stroke-linecap="round" stroke-linejoin="round"/>
</svg>