<svg version="1.1" id="Layer_1" xmlns="http://www.w3.org/2000/svg" xmlns:xlink="http://www.w3.org/1999/xlink" x="0px" y="0px"
	 width="100%" viewBox="0 0 512 512" enable-background="new 0 0 512 512" xml:space="preserve">
<path fill="#FFFFFF" opacity="1.000000" stroke="none" 
	d="
M199.000000,513.000000 
	C133.033310,513.000000 67.066635,513.000000 1.049974,513.000000 
	C1.049974,342.452820 1.049974,171.905609 1.049974,1.000000 
	C53.020344,1.000000 105.041512,1.000000 157.428329,1.356895 
	C149.016464,3.043020 142.372650,15.817499 145.679672,23.998739 
	C148.177994,30.179350 151.788406,35.951363 155.267136,41.684834 
	C160.088242,49.630772 165.249985,57.370029 170.289291,65.234329 
	C166.679062,68.123184 163.214005,70.574188 160.118546,73.426300 
	C143.162399,89.049362 129.151047,106.806015 120.831749,128.589157 
	C115.390503,142.836411 110.922806,157.308838 111.001434,172.786453 
	C111.049019,182.152802 118.964783,189.994171 128.432602,189.995087 
	C214.228485,190.003448 300.024353,190.004944 385.820251,189.992645 
	C394.795471,189.991364 402.882050,181.929001 403.007385,173.040573 
	C403.202454,159.208542 399.493866,146.157822 394.966400,133.302933 
	C388.492096,114.920464 378.488342,98.614952 364.979889,84.595062 
	C358.384979,77.750481 351.186066,71.487831 344.145935,64.853783 
	C344.380066,64.295364 344.626038,63.336586 345.136017,62.548672 
	C351.438110,52.811905 357.634430,43.002167 364.144897,33.405884 
	C372.834015,20.598446 369.611908,6.825634 356.000000,1.000000 
	C408.306915,1.000000 460.613861,1.000000 512.960388,1.000000 
	C512.960388,171.554123 512.960388,342.108276 512.960388,513.000000 
	C447.312836,513.000000 381.625061,513.000000 315.585663,512.630493 
	C317.215637,511.631256 319.222900,511.071777 321.174988,510.360779 
	C341.016357,503.134125 352.508728,483.784668 349.971344,463.659790 
	C348.858093,454.830109 338.604156,446.452393 327.124481,449.373260 
	C317.058502,451.934418 313.153625,459.333557 311.970703,468.895233 
	C311.421478,473.334869 308.423401,475.459198 304.232941,474.890564 
	C300.326416,474.360474 298.179443,471.781616 297.942841,467.497650 
	C297.417206,457.980988 289.902222,448.048889 277.539551,448.920288 
	C268.556030,449.553558 259.168030,456.964294 260.045288,467.766937 
	C260.450226,472.753510 260.555206,477.978271 262.189270,482.602814 
	C264.864624,490.174316 268.404877,497.648956 275.631317,502.129517 
	C281.917572,506.027130 288.531097,509.396942 295.000000,513.000000 
	C269.979095,513.000000 244.958206,513.000000 219.585022,512.631104 
	C228.283417,510.161438 236.655853,506.002014 242.191193,498.847412 
	C247.157379,492.428497 250.969391,484.608978 253.307343,476.812592 
	C255.479782,469.568207 255.256287,461.473328 249.521759,455.022552 
	C244.573822,449.456543 235.366211,447.193115 228.019882,450.071960 
	C221.408096,452.662964 216.526993,458.999084 216.157379,467.277802 
	C215.986435,471.106873 213.978638,473.598419 211.379181,474.559845 
	C209.307220,475.326141 205.544113,474.360596 203.926834,472.756897 
	C202.127533,470.972748 201.421143,467.653046 201.094025,464.900208 
	C200.178925,457.199219 195.731262,452.497650 188.841431,450.084961 
	C181.793915,447.617035 175.229767,448.594452 169.489166,453.954163 
	C163.657532,459.398804 162.978806,465.878174 163.879852,473.385498 
	C165.397018,486.026276 170.865753,496.415558 180.946030,503.817596 
	C186.316025,507.760864 192.941299,509.994659 199.000000,513.000000 
M403.000000,251.502625 
	C403.000000,247.169357 403.109894,242.832748 402.978058,238.503494 
	C402.664398,228.205368 393.385010,221.139694 384.130585,221.192139 
	C372.952087,221.255493 365.003204,230.493759 365.001892,241.945435 
	C364.997101,284.442993 365.002228,326.940552 364.997620,369.438110 
	C364.996918,375.914398 361.013611,379.982086 354.438080,379.984650 
	C289.441803,380.010010 224.445541,380.011841 159.449280,379.981812 
	C152.899658,379.978790 149.002289,375.890900 149.001755,369.325500 
	C148.998322,326.827942 149.063721,284.330200 148.946274,241.832977 
	C148.922775,233.326385 145.483704,226.728195 137.191925,222.952560 
	C124.184387,217.029633 110.615715,228.967697 110.758827,239.608856 
	C111.339233,282.765259 111.103310,325.934418 110.919563,369.097839 
	C110.879059,378.611969 112.500168,387.348755 117.784714,395.430267 
	C126.810493,409.233124 139.003296,417.873413 155.807632,417.921844 
	C221.969955,418.112518 288.133270,417.937042 354.295868,418.070465 
	C363.803314,418.089661 372.513031,416.432098 380.590546,411.101013 
	C394.369965,402.006805 402.845520,389.803833 402.932739,372.994476 
	C403.141083,332.831177 403.000000,292.666077 403.000000,251.502625 
M43.026695,223.928574 
	C43.017799,259.569946 42.974464,295.211395 43.053238,330.852600 
	C43.061123,334.419617 43.355518,338.109283 44.290073,341.530823 
	C50.047733,362.610565 67.800232,376.626312 89.041565,376.071808 
	C100.943764,375.761139 106.664223,367.916107 107.885895,357.962921 
	C108.999939,348.886688 100.826660,339.440979 91.517342,338.009308 
	C82.410713,336.608826 81.000404,334.926544 81.000221,325.453522 
	C80.999634,294.975067 80.999985,264.496613 81.000000,234.018158 
	C81.000000,222.955551 81.999207,221.803040 93.154457,219.998672 
	C100.861259,218.752090 106.795341,211.747818 107.993248,202.483734 
	C108.731491,196.774475 103.766769,187.926224 98.466911,185.113663 
	C93.595924,182.528687 88.588814,182.348831 83.187996,182.900894 
	C72.277847,184.016129 63.520279,188.947464 55.832550,196.457809 
	C48.302616,203.813965 44.797153,212.929291 43.026695,223.928574 
M417.814728,218.982483 
	C419.209351,219.322083 420.587616,219.769547 422.001251,219.983765 
	C431.098328,221.362350 432.999481,223.532654 432.999908,232.677795 
	C433.000458,244.505646 433.000000,256.333496 433.000000,268.161346 
	C433.000000,287.818878 433.025421,307.476501 432.987488,327.133942 
	C432.972351,334.969421 430.682587,336.907623 423.314972,338.115631 
	C413.429352,339.736481 407.675446,344.748108 406.038177,356.675354 
	C405.078461,363.666901 411.550140,372.626465 418.969360,375.033234 
	C432.440521,379.403259 453.108765,370.943176 462.075378,357.794647 
	C468.434906,348.469086 471.033112,338.256744 471.016754,327.136169 
	C470.969391,294.984467 470.985748,262.832703 471.006226,230.680939 
	C471.015900,215.521729 466.300140,202.386322 454.162415,192.741928 
	C444.971008,185.438614 434.559174,181.049103 422.542694,183.060303 
	C410.312439,185.107285 408.324219,190.526169 406.097687,200.355042 
	C404.698853,206.530304 410.223633,215.116425 417.814728,218.982483 
z"/>
<path fill="#000000" opacity="1.000000" stroke="none" 
	d="
M355.535339,1.000000 
	C369.611908,6.825634 372.834015,20.598446 364.144897,33.405884 
	C357.634430,43.002167 351.438110,52.811905 345.136017,62.548672 
	C344.626038,63.336586 344.380066,64.295364 344.145935,64.853783 
	C351.186066,71.487831 358.384979,77.750481 364.979889,84.595062 
	C378.488342,98.614952 388.492096,114.920464 394.966400,133.302933 
	C399.493866,146.157822 403.202454,159.208542 403.007385,173.040573 
	C402.882050,181.929001 394.795471,189.991364 385.820251,189.992645 
	C300.024353,190.004944 214.228485,190.003448 128.432602,189.995087 
	C118.964783,189.994171 111.049019,182.152802 111.001434,172.786453 
	C110.922806,157.308838 115.390503,142.836411 120.831749,128.589157 
	C129.151047,106.806015 143.162399,89.049362 160.118546,73.426300 
	C163.214005,70.574188 166.679062,68.123184 170.289291,65.234329 
	C165.249985,57.370029 160.088242,49.630772 155.267136,41.684834 
	C151.788406,35.951363 148.177994,30.179350 145.679672,23.998739 
	C142.372650,15.817499 149.016464,3.043020 157.896988,1.356895 
	C161.692902,1.000000 165.385818,1.000000 169.640091,1.354793 
	C173.450775,4.020851 177.666641,5.672482 179.775269,8.762223 
	C187.274490,19.750811 194.016968,31.253935 201.140076,42.502636 
	C202.692032,44.953438 204.309372,46.824127 208.120789,45.563351 
	C226.549042,39.467514 245.357605,36.608269 264.943451,37.794334 
	C278.831024,38.635326 292.277740,41.016235 305.371582,45.270554 
	C309.351562,46.563679 311.002411,45.357353 312.815979,42.606178 
	C322.143463,28.456503 329.115417,12.654638 342.000000,1.000000 
	C346.356903,1.000000 350.713806,1.000000 355.535339,1.000000 
M360.493164,151.039352 
	C357.006409,143.484665 353.943573,135.697327 349.949738,128.420975 
	C339.854492,110.028473 324.615082,96.551910 306.197113,87.246826 
	C285.549835,76.815460 263.219116,72.913246 240.318466,77.241058 
	C228.930542,79.393181 217.463959,82.906380 207.031082,87.892372 
	C193.489944,94.363838 181.722198,103.842079 172.456177,116.013794 
	C164.150192,126.924385 156.936111,138.386459 153.351608,152.000000 
	C186.916687,152.000000 220.243713,152.015366 253.570709,151.995819 
	C289.230621,151.974899 324.890564,151.921051 360.493164,151.039352 
z"/>
<path fill="#FFFFFF" opacity="1.000000" stroke="none" 
	d="
M341.531342,1.000000 
	C329.115417,12.654638 322.143463,28.456503 312.815979,42.606178 
	C311.002411,45.357353 309.351562,46.563679 305.371582,45.270554 
	C292.277740,41.016235 278.831024,38.635326 264.943451,37.794334 
	C245.357605,36.608269 226.549042,39.467514 208.120789,45.563351 
	C204.309372,46.824127 202.692032,44.953438 201.140076,42.502636 
	C194.016968,31.253935 187.274490,19.750811 179.775269,8.762223 
	C177.666641,5.672482 173.450775,4.020851 170.100739,1.354793 
	C227.020889,1.000000 284.041779,1.000000 341.531342,1.000000 
z"/>
<path fill="#000000" opacity="1.000000" stroke="none" 
	d="
M199.468414,513.000000 
	C192.941299,509.994659 186.316025,507.760864 180.946030,503.817596 
	C170.865753,496.415558 165.397018,486.026276 163.879852,473.385498 
	C162.978806,465.878174 163.657532,459.398804 169.489166,453.954163 
	C175.229767,448.594452 181.793915,447.617035 188.841431,450.084961 
	C195.731262,452.497650 200.178925,457.199219 201.094025,464.900208 
	C201.421143,467.653046 202.127533,470.972748 203.926834,472.756897 
	C205.544113,474.360596 209.307220,475.326141 211.379181,474.559845 
	C213.978638,473.598419 215.986435,471.106873 216.157379,467.277802 
	C216.526993,458.999084 221.408096,452.662964 228.019882,450.071960 
	C235.366211,447.193115 244.573822,449.456543 249.521759,455.022552 
	C255.256287,461.473328 255.479782,469.568207 253.307343,476.812592 
	C250.969391,484.608978 247.157379,492.428497 242.191193,498.847412 
	C236.655853,506.002014 228.283417,510.161438 219.116364,512.631104 
	C212.645599,513.000000 206.291214,513.000000 199.468414,513.000000 
z"/>
<path fill="#000000" opacity="1.000000" stroke="none" 
	d="
M295.468384,513.000000 
	C288.531097,509.396942 281.917572,506.027130 275.631317,502.129517 
	C268.404877,497.648956 264.864624,490.174316 262.189270,482.602814 
	C260.555206,477.978271 260.450226,472.753510 260.045288,467.766937 
	C259.168030,456.964294 268.556030,449.553558 277.539551,448.920288 
	C289.902222,448.048889 297.417206,457.980988 297.942841,467.497650 
	C298.179443,471.781616 300.326416,474.360474 304.232941,474.890564 
	C308.423401,475.459198 311.421478,473.334869 311.970703,468.895233 
	C313.153625,459.333557 317.058502,451.934418 327.124481,449.373260 
	C338.604156,446.452393 348.858093,454.830109 349.971344,463.659790 
	C352.508728,483.784668 341.016357,503.134125 321.174988,510.360779 
	C319.222900,511.071777 317.215637,511.631256 315.117004,512.630493 
	C308.645599,513.000000 302.291199,513.000000 295.468384,513.000000 
z"/>
<path fill="#000000" opacity="1.000000" stroke="none" 
	d="
M403.000000,252.002167 
	C403.000000,292.666077 403.141083,332.831177 402.932739,372.994476 
	C402.845520,389.803833 394.369965,402.006805 380.590546,411.101013 
	C372.513031,416.432098 363.803314,418.089661 354.295868,418.070465 
	C288.133270,417.937042 221.969955,418.112518 155.807632,417.921844 
	C139.003296,417.873413 126.810493,409.233124 117.784714,395.430267 
	C112.500168,387.348755 110.879059,378.611969 110.919563,369.097839 
	C111.103310,325.934418 111.339233,282.765259 110.758827,239.608856 
	C110.615715,228.967697 124.184387,217.029633 137.191925,222.952560 
	C145.483704,226.728195 148.922775,233.326385 148.946274,241.832977 
	C149.063721,284.330200 148.998322,326.827942 149.001755,369.325500 
	C149.002289,375.890900 152.899658,379.978790 159.449280,379.981812 
	C224.445541,380.011841 289.441803,380.010010 354.438080,379.984650 
	C361.013611,379.982086 364.996918,375.914398 364.997620,369.438110 
	C365.002228,326.940552 364.997101,284.442993 365.001892,241.945435 
	C365.003204,230.493759 372.952087,221.255493 384.130585,221.192139 
	C393.385010,221.139694 402.664398,228.205368 402.978058,238.503494 
	C403.109894,242.832748 403.000000,247.169357 403.000000,252.002167 
z"/>
<path fill="#000000" opacity="1.000000" stroke="none" 
	d="
M43.210564,223.507187 
	C44.797153,212.929291 48.302616,203.813965 55.832550,196.457809 
	C63.520279,188.947464 72.277847,184.016129 83.187996,182.900894 
	C88.588814,182.348831 93.595924,182.528687 98.466911,185.113663 
	C103.766769,187.926224 108.731491,196.774475 107.993248,202.483734 
	C106.795341,211.747818 100.861259,218.752090 93.154457,219.998672 
	C81.999207,221.803040 81.000000,222.955551 81.000000,234.018158 
	C80.999985,264.496613 80.999634,294.975067 81.000221,325.453522 
	C81.000404,334.926544 82.410713,336.608826 91.517342,338.009308 
	C100.826660,339.440979 108.999939,348.886688 107.885895,357.962921 
	C106.664223,367.916107 100.943764,375.761139 89.041565,376.071808 
	C67.800232,376.626312 50.047733,362.610565 44.290073,341.530823 
	C43.355518,338.109283 43.061123,334.419617 43.053238,330.852600 
	C42.974464,295.211395 43.017799,259.569946 43.210564,223.507187 
z"/>
<path fill="#000000" opacity="1.000000" stroke="none" 
	d="
M417.458740,218.805145 
	C410.223633,215.116425 404.698853,206.530304 406.097687,200.355042 
	C408.324219,190.526169 410.312439,185.107285 422.542694,183.060303 
	C434.559174,181.049103 444.971008,185.438614 454.162415,192.741928 
	C466.300140,202.386322 471.015900,215.521729 471.006226,230.680939 
	C470.985748,262.832703 470.969391,294.984467 471.016754,327.136169 
	C471.033112,338.256744 468.434906,348.469086 462.075378,357.794647 
	C453.108765,370.943176 432.440521,379.403259 418.969360,375.033234 
	C411.550140,372.626465 405.078461,363.666901 406.038177,356.675354 
	C407.675446,344.748108 413.429352,339.736481 423.314972,338.115631 
	C430.682587,336.907623 432.972351,334.969421 432.987488,327.133942 
	C433.025421,307.476501 433.000000,287.818878 433.000000,268.161346 
	C433.000000,256.333496 433.000458,244.505646 432.999908,232.677795 
	C432.999481,223.532654 431.098328,221.362350 422.001251,219.983765 
	C420.587616,219.769547 419.209351,219.322083 417.458740,218.805145 
z"/>
<path fill="#FFFFFF" opacity="1.000000" stroke="none" 
	d="
M360.521820,151.460464 
	C324.890564,151.921051 289.230621,151.974899 253.570709,151.995819 
	C220.243713,152.015366 186.916687,152.000000 153.351608,152.000000 
	C156.936111,138.386459 164.150192,126.924385 172.456177,116.013794 
	C181.722198,103.842079 193.489944,94.363838 207.031082,87.892372 
	C217.463959,82.906380 228.930542,79.393181 240.318466,77.241058 
	C263.219116,72.913246 285.549835,76.815460 306.197113,87.246826 
	C324.615082,96.551910 339.854492,110.028473 349.949738,128.420975 
	C353.943573,135.697327 357.006409,143.484665 360.521820,151.460464 
z"/>
</svg>