<svg width="21" height="16" viewBox="0 0 21 16" fill="none" xmlns="http://www.w3.org/2000/svg">
<path d="M20.191 2.58872V12.7933C20.191 14.5136 19.3225 15.3737 17.5688 15.3737H3.12213C1.37683 15.3737 0.5 14.5136 0.5 12.7933V2.58872C0.5 0.868471 1.37683 0 3.12213 0H17.5688C19.3225 0 20.191 0.868471 20.191 2.58872ZM3.13883 1.34447C2.30376 1.34447 1.84447 1.79541 1.84447 2.66388V12.7181C1.84447 13.5866 2.30376 14.0292 3.13883 14.0292H17.5522C18.3789 14.0292 18.8466 13.5866 18.8466 12.7181V2.66388C18.8466 1.79541 18.3789 1.34447 17.5522 1.34447H3.13883ZM12.3414 11.6826C12.3414 11.9665 12.1242 12.1837 11.8236 12.1837H4.75887C4.45825 12.1837 4.24112 11.9665 4.24112 11.6826C4.24112 11.3904 4.45825 11.1566 4.75887 11.1566H11.8236C12.1242 11.1566 12.3414 11.3904 12.3414 11.6826ZM12.3414 3.69102C12.3414 3.98329 12.1242 4.20877 11.8236 4.20877H4.75887C4.45825 4.20877 4.24112 3.98329 4.24112 3.69102C4.24112 3.4071 4.45825 3.18162 4.75887 3.18162H11.8236C12.1242 3.18162 12.3414 3.4071 12.3414 3.69102Z" fill="white" fill-opacity="0.64"/>
<path d="M17.7862 6.83088V8.53443C17.7862 9.21914 17.377 9.65345 16.6839 9.65345H4.01587C3.32275 9.65345 2.91357 9.21914 2.91357 8.53443V6.83088C2.91357 6.14612 3.32275 5.71188 4.01587 5.71188H16.6839C17.377 5.71188 17.7862 6.14612 17.7862 6.83088ZM4.76743 7.17326C4.4668 7.17326 4.24134 7.39872 4.24134 7.68266C4.24134 7.97492 4.4668 8.20039 4.76743 8.20039H8.87598C9.17662 8.20039 9.39374 7.97492 9.39374 7.68266C9.39374 7.39872 9.17662 7.17326 8.87598 7.17326H4.76743Z" fill="white" fill-opacity="0.64"/>
</svg>
