<svg width="16" height="16" viewBox="0 0 16 16" fill="none" xmlns="http://www.w3.org/2000/svg">
<path d="M7.86126 14.7977C8.03202 14.7977 8.20278 14.7905 8.37347 14.7763L8.77188 15.5233C8.85726 15.6941 9.02802 15.7795 9.2272 15.7439C9.4193 15.7083 9.55444 15.566 9.57578 15.3669L9.70385 14.5415C10.0311 14.4562 10.3513 14.3352 10.6643 14.2001L11.2761 14.7408C11.4184 14.8689 11.6176 14.9115 11.8026 14.8048C11.9662 14.7123 12.0445 14.5273 11.9946 14.3282L11.831 13.5243C12.1014 13.325 12.3717 13.1045 12.6136 12.8697L13.3677 13.1827C13.5669 13.261 13.7519 13.2112 13.8942 13.0476C14.008 12.9052 14.0293 12.7061 13.9226 12.5353L13.4886 11.831C13.6736 11.5536 13.8444 11.2548 14.0009 10.9417L14.8262 10.9702C15.0111 10.9844 15.1961 10.8848 15.253 10.6857C15.317 10.5007 15.253 10.3157 15.1036 10.1947L14.4633 9.68251C14.5487 9.35526 14.6056 9.01374 14.6341 8.65809L15.4095 8.40909C15.6087 8.34505 15.7368 8.19563 15.7368 7.99646C15.7368 7.79015 15.6087 7.6478 15.4095 7.58384L14.6341 7.33481C14.6056 6.9791 14.5487 6.64473 14.4633 6.31035L15.1036 5.79101C15.2459 5.67718 15.317 5.49933 15.253 5.31435C15.1961 5.11516 15.0111 5.01556 14.8262 5.02979L14.0009 5.05113C13.8444 4.7381 13.6736 4.44642 13.4886 4.15473L13.9226 3.45042C14.0222 3.29391 14.008 3.09471 13.8942 2.95242C13.7519 2.78168 13.5669 2.73899 13.3748 2.81725L12.6136 3.11605C12.3717 2.8955 12.1014 2.66785 11.831 2.46865L11.9946 1.67185C12.0373 1.45843 11.9662 1.28056 11.8026 1.1952C11.6176 1.08848 11.4184 1.11694 11.2761 1.25211L10.6643 1.78568C10.3513 1.65762 10.0311 1.54379 9.70385 1.45131L9.57578 0.633167C9.55444 0.433968 9.4193 0.291682 9.2272 0.256111C9.02802 0.22054 8.85012 0.305911 8.77188 0.469539L8.37347 1.21653C8.20278 1.20231 8.03202 1.1952 7.86126 1.1952C7.68343 1.1952 7.51981 1.20231 7.34191 1.21653L6.95064 0.469539C6.86527 0.305911 6.69453 0.22054 6.49533 0.256111C6.30324 0.291682 6.1823 0.433968 6.14673 0.633167L6.01867 1.44419C5.69142 1.54379 5.37128 1.65762 5.05113 1.78568L4.44642 1.25922C4.29702 1.11694 4.10494 1.08848 3.91285 1.1952C3.75633 1.28056 3.68519 1.45843 3.72788 1.67185L3.88439 2.46865C3.62116 2.66785 3.3437 2.8955 3.10182 3.11605L2.34771 2.81725C2.15562 2.73899 1.97065 2.78168 1.82837 2.95242C1.71454 3.09471 1.6932 3.29391 1.7928 3.45042L2.23388 4.15473C2.04891 4.44642 1.88528 4.7381 1.72165 5.05113L0.896399 5.02979C0.704313 5.01556 0.526456 5.11516 0.469542 5.31435C0.405514 5.49933 0.462428 5.67718 0.618941 5.79101L1.25923 6.31035C1.17386 6.64473 1.11694 6.9791 1.0956 7.33481L0.305914 7.58384C0.106714 7.64073 0 7.79015 0 7.99646C0 8.20277 0.106714 8.34505 0.305914 8.40909L1.0956 8.65809C1.11694 9.01374 1.17386 9.35526 1.25923 9.68251L0.618941 10.1947C0.462428 10.3157 0.405514 10.5007 0.469542 10.6857C0.526456 10.8848 0.704313 10.9844 0.896399 10.9702L1.72165 10.9417C1.88528 11.2548 2.04891 11.5536 2.23388 11.831L1.79991 12.5353C1.70031 12.7061 1.70742 12.9052 1.82837 13.0476C1.97065 13.2112 2.15562 13.261 2.35482 13.1827L3.10182 12.8697C3.3437 13.1045 3.62116 13.325 3.88439 13.5243L3.72788 14.3282C3.69231 14.5273 3.75633 14.7123 3.91285 14.8048C4.10494 14.9115 4.29702 14.8689 4.44642 14.7408L5.05113 14.2001C5.37128 14.3352 5.69142 14.4562 6.01867 14.5487L6.14673 15.3669C6.1823 15.566 6.30324 15.7083 6.49533 15.7439C6.69453 15.7795 6.86527 15.6941 6.95064 15.5233L7.34191 14.7763C7.51267 14.7905 7.68343 14.7977 7.86126 14.7977ZM7.86126 13.6523C4.70253 13.6523 2.28368 11.148 2.28368 8.00353C2.28368 4.85193 4.70253 2.34059 7.86126 2.34059C11.02 2.34059 13.4531 4.85193 13.4531 8.00353C13.4531 11.148 11.02 13.6523 7.86126 13.6523ZM6.62339 6.90795L7.46284 6.37438L5.0867 2.29791L4.21165 2.78879L6.62339 6.90795ZM9.44779 8.48019H14.1787V7.49844H9.44779V8.48019ZM7.47712 9.63982L6.64472 9.09912L4.1405 13.1827L5.00845 13.6949L7.47712 9.63982ZM7.84705 9.86747C8.87861 9.86747 9.71099 9.04223 9.71099 8.01067C9.71099 6.9791 8.87861 6.14672 7.84705 6.14672C6.81547 6.14672 5.99022 6.9791 5.99022 8.01067C5.99022 9.04223 6.81547 9.86747 7.84705 9.86747ZM7.84705 8.80036C7.3988 8.80036 7.05024 8.46598 7.05024 8.01067C7.05024 7.55535 7.3988 7.20675 7.84705 7.20675C8.30236 7.20675 8.65095 7.55535 8.65095 8.01067C8.65095 8.46598 8.30236 8.80036 7.84705 8.80036Z" fill="white" fill-opacity="0.64"/>
</svg>
