<svg width="23" height="24" viewBox="0 0 23 24" fill="none" xmlns="http://www.w3.org/2000/svg">
<g clip-path="url(#clip0_47_3847)">
<path d="M11.82 24C11.8963 23.9782 11.9618 23.9454 12.0382 23.9017L20.5839 19.034C21.5989 18.4557 22.1447 17.8662 22.1447 16.2837V7.78168C22.1447 7.45425 22.1228 7.19232 22.0573 6.9522L11.82 12.8022V24ZM10.3247 24V12.8022L0.0873125 6.9522C0.0218281 7.19232 0 7.45425 0 7.78168V16.2837C0 17.8662 0.556617 18.4557 1.56071 19.034L10.1173 23.9017C10.1828 23.9454 10.2483 23.9782 10.3247 24ZM11.0778 11.4925L15.738 8.85125L5.40245 2.94675L1.397 5.22778C1.15689 5.35875 0.960437 5.48972 0.785812 5.65343L11.0778 11.4925ZM17.2552 7.98905L21.3588 5.65343C21.195 5.48972 20.9987 5.35875 20.7585 5.22778L13.0532 0.840336C12.3875 0.458344 11.7217 0.250977 11.0778 0.250977C10.4229 0.250977 9.75717 0.458344 9.09141 0.840336L6.87585 2.09545L17.2552 7.98905Z" fill="white" fill-opacity="0.64"/>
</g>
<defs>
<clipPath id="clip0_47_3847">
<rect width="22.5485" height="24" fill="white"/>
</clipPath>
</defs>
</svg>
