<svg width="18" height="18" viewBox="0 0 18 18" fill="none" xmlns="http://www.w3.org/2000/svg">
<g clip-path="url(#clip0_64_11338)">
<path d="M17.6794 8.83968C17.6794 13.6668 13.6755 17.6794 8.83968 17.6794C4.01252 17.6794 0 13.6668 0 8.83968C0 4.00385 4.00385 0 8.83101 0C13.6668 0 17.6794 4.00385 17.6794 8.83968ZM9.04766 5.74579C9.04766 5.93645 9.13436 6.10111 9.24697 6.2311L10.3563 7.33173L11.4396 8.23303L9.5503 8.15503H4.90515C4.51517 8.15503 4.22917 8.43235 4.22917 8.83101C4.22917 9.22097 4.51517 9.49829 4.90515 9.49829H9.5503L11.4396 9.42899L10.3563 10.3303L9.24697 11.4309C9.12566 11.5523 9.04766 11.7169 9.04766 11.9076C9.04766 12.2802 9.32498 12.5662 9.69761 12.5662C9.88832 12.5662 10.0443 12.4968 10.1656 12.3755L13.1815 9.35098C13.3548 9.18636 13.4328 9.03035 13.4328 8.83101C13.4328 8.63168 13.3635 8.49302 13.1815 8.31102L10.1656 5.27781C10.0443 5.15648 9.88832 5.09581 9.69761 5.09581C9.32498 5.09581 9.04766 5.37314 9.04766 5.74579Z" fill="#E7D8FF"/>
</g>
<defs>
<clipPath id="clip0_64_11338">
<rect width="18" height="17.688" fill="white"/>
</clipPath>
</defs>
</svg>
