<svg width="24" height="20" viewBox="0 0 24 20" fill="none" xmlns="http://www.w3.org/2000/svg">
<path d="M0.194597 9.88695C-0.182325 10.4185 -0.00836073 10.8921 0.687495 10.8921H2.02122C2.54312 15.8114 6.78591 19.716 11.8212 19.716C14.7689 19.716 17.4364 18.3726 19.2533 16.285C19.6109 15.8694 19.5626 15.3475 19.1857 15.0769C18.8087 14.8062 18.3449 14.9029 18.0356 15.2605C16.5376 16.9905 14.3147 18.0729 11.8212 18.0729C7.60739 18.0729 4.17644 14.9512 3.68354 10.8921H5.12358C5.80977 10.8921 5.98374 10.4185 5.61648 9.89662L3.4516 6.8136C3.14233 6.36902 2.67842 6.35935 2.35948 6.8136L0.194597 9.88695ZM4.39873 3.43096C4.03147 3.84654 4.07979 4.35877 4.46638 4.62937C4.84331 4.89999 5.29754 4.813 5.61648 4.45541C7.12416 2.7351 9.34704 1.643 11.8212 1.643C16.0253 1.643 19.4563 4.76468 19.9588 8.83351H18.5189C17.8326 8.83351 17.6586 9.29741 18.0259 9.82897L20.1908 12.912C20.5001 13.3566 20.964 13.3663 21.2829 12.912L23.4382 9.83864C23.8247 9.29741 23.6411 8.83351 22.9452 8.83351H21.6211C21.0896 3.91419 16.8565 0 11.8212 0C8.87347 0 6.21568 1.33373 4.39873 3.43096Z" fill="white" fill-opacity="0.64"/>
</svg>
